<?xml version="1.0" standalone="no"?>
<!DOCTYPE svg PUBLIC "-//W3C//DTD SVG 1.1//EN" "http://www.w3.org/Graphics/SVG/1.1/DTD/svg11.dtd" >
<svg xmlns="http://www.w3.org/2000/svg" xmlns:xlink="http://www.w3.org/1999/xlink" version="1.1">
<metadata>
Created by FontForge 20230101 at Mon Jul 15 17:25:42 2024
 By Johanna Fagerås
Copyright (c) Font Awesome
</metadata>
<defs>
<font id="FontAwesome6Pro-Regular" horiz-adv-x="512" >
  <font-face 
    font-family="Font Awesome 6 Pro Regular"
    font-weight="400"
    font-stretch="normal"
    units-per-em="512"
    panose-1="2 0 5 3 0 0 0 0 0 0"
    ascent="409"
    descent="-103"
    cap-height="416"
    bbox="-1.77778 -65.3158 640.564 448.444"
    underline-thickness="25"
    underline-position="-49"
    unicode-range="U+0021-F8FF"
  />
<missing-glyph horiz-adv-x="384" 
d="M48 26l115 166l-115 -166l115 166l-115 166v0v-332v0zM77 -16h230h-230h230l-115 166v0l-115 -166v0zM221 192l115 -166l-115 166l115 -166v332v0l-115 -166v0zM307 400h-230h230h-230l115 -166v0l115 166v0zM0 400q1 20 14 34v0v0q14 13 34 14h288v0q20 -1 34 -14
q13 -14 14 -34v-416v0q-1 -20 -14 -34q-14 -13 -34 -14h-288v0q-20 1 -34 14q-13 14 -14 34v416v0z" />
    <glyph glyph-name=".notdef" horiz-adv-x="384" 
d="M48 26l115 166l-115 -166l115 166l-115 166v0v-332v0zM77 -16h230h-230h230l-115 166v0l-115 -166v0zM221 192l115 -166l-115 166l115 -166v332v0l-115 -166v0zM307 400h-230h230h-230l115 -166v0l115 166v0zM0 400q1 20 14 34v0v0q14 13 34 14h288v0q20 -1 34 -14
q13 -14 14 -34v-416v0q-1 -20 -14 -34q-14 -13 -34 -14h-288v0q-20 1 -34 14q-13 14 -14 34v416v0z" />
    <glyph glyph-name="exclamation" unicode="!" horiz-adv-x="128" 
d="M88 392q-2 22 -24 24q-22 -2 -24 -24v-288v0q2 -22 24 -24q22 2 24 24v288v0zM64 -32q14 0 23 9v0v0q9 9 9 23t-9 23t-23 9t-23 -9t-9 -23t9 -23t23 -9v0z" />
    <glyph glyph-name="exclamation" unicode="&#xf12a;" horiz-adv-x="128" 
d="M88 392q-2 22 -24 24q-22 -2 -24 -24v-288v0q2 -22 24 -24q22 2 24 24v288v0zM64 -32q14 0 23 9v0v0q9 9 9 23t-9 23t-23 9t-23 -9t-9 -23t9 -23t23 -9v0z" />
    <glyph glyph-name="exclamation" unicode="&#x2757;" horiz-adv-x="128" 
d="M88 392q-2 22 -24 24q-22 -2 -24 -24v-288v0q2 -22 24 -24q22 2 24 24v288v0zM64 -32q14 0 23 9v0v0q9 9 9 23t-9 23t-23 9t-23 -9t-9 -23t9 -23t23 -9v0z" />
    <glyph glyph-name="exclamation" unicode="&#x2755;" horiz-adv-x="128" 
d="M88 392q-2 22 -24 24q-22 -2 -24 -24v-288v0q2 -22 24 -24q22 2 24 24v288v0zM64 -32q14 0 23 9v0v0q9 9 9 23t-9 23t-23 9t-23 -9t-9 -23t9 -23t23 -9v0z" />
    <glyph glyph-name="exclamation" unicode="&#xf12a;" horiz-adv-x="128" 
d="M88 392q-2 22 -24 24q-22 -2 -24 -24v-288v0q2 -22 24 -24q22 2 24 24v288v0zM64 -32q14 0 23 9v0v0q9 9 9 23t-9 23t-23 9t-23 -9t-9 -23t9 -23t23 -9v0z" />
    <glyph glyph-name="exclamation" unicode="&#x2757;" horiz-adv-x="128" 
d="M88 392q-2 22 -24 24q-22 -2 -24 -24v-288v0q2 -22 24 -24q22 2 24 24v288v0zM64 -32q14 0 23 9v0v0q9 9 9 23t-9 23t-23 9t-23 -9t-9 -23t9 -23t23 -9v0z" />
    <glyph glyph-name="exclamation" unicode="&#x2755;" horiz-adv-x="128" 
d="M88 392q-2 22 -24 24q-22 -2 -24 -24v-288v0q2 -22 24 -24q22 2 24 24v288v0zM64 -32q14 0 23 9v0v0q9 9 9 23t-9 23t-23 9t-23 -9t-9 -23t9 -23t23 -9v0z" />
    <glyph glyph-name="ditto" unicode="&#x22;" horiz-adv-x="320" 
d="M48 342v-4l24 -142v0l24 142v0v0v4v2v0q-2 22 -24 24q-22 -2 -24 -24v-2v0zM144 342q0 -6 -1 -12l-24 -147v0q-4 -17 -16 -28q-13 -11 -31 -11t-31 11q-12 11 -16 28l-24 147v0q-1 6 -1 12v2v0q1 31 21 51t51 21q31 -1 51 -21t21 -51v-2v0zM224 342v-4l24 -142v0l24 142
v0v4v2v0q-2 22 -24 24q-22 -2 -24 -24v-2v0zM320 342q0 -6 -1 -12l-24 -147v0q-4 -17 -16 -28q-13 -11 -31 -11t-31 11q-12 11 -16 28l-24 147v0q-1 6 -1 12v2v0q1 31 21 51t51 21q31 -1 51 -21t21 -51v-2v0z" />
    <glyph glyph-name="hashtag" unicode="#" horiz-adv-x="448" 
d="M189 415q21 -6 19 -28l-15 -75v0h111v0l16 85v0q7 21 29 18q21 -6 18 -28l-14 -75v0h71v0q22 -2 24 -24q-2 -22 -24 -24h-81v0l-29 -144v0h78v0q22 -2 24 -24q-2 -22 -24 -24h-87v0l-17 -85v0q-7 -21 -29 -19q-21 7 -18 29l15 75v0h-111v0l-17 -85v0q-7 -21 -29 -19
q-21 7 -18 29l15 75v0h-72v0q-22 2 -24 24q2 22 24 24h81v0l29 144v0h-78v0q-22 2 -24 24q2 22 24 24h88v0l16 85v0q7 21 29 18v0zM183 264l-29 -144l29 144l-29 -144h111v0l29 144v0h-111v0z" />
    <glyph glyph-name="hashtag" unicode="&#xf292;" horiz-adv-x="448" 
d="M189 415q21 -6 19 -28l-15 -75v0h111v0l16 85v0q7 21 29 18q21 -6 18 -28l-14 -75v0h71v0q22 -2 24 -24q-2 -22 -24 -24h-81v0l-29 -144v0h78v0q22 -2 24 -24q-2 -22 -24 -24h-87v0l-17 -85v0q-7 -21 -29 -19q-21 7 -18 29l15 75v0h-111v0l-17 -85v0q-7 -21 -29 -19
q-21 7 -18 29l15 75v0h-72v0q-22 2 -24 24q2 22 24 24h81v0l29 144v0h-78v0q-22 2 -24 24q2 22 24 24h88v0l16 85v0q7 21 29 18v0zM183 264l-29 -144l29 144l-29 -144h111v0l29 144v0h-111v0z" />
    <glyph glyph-name="hashtag" unicode="&#xf292;" horiz-adv-x="448" 
d="M189 415q21 -6 19 -28l-15 -75v0h111v0l16 85v0q7 21 29 18q21 -6 18 -28l-14 -75v0h71v0q22 -2 24 -24q-2 -22 -24 -24h-81v0l-29 -144v0h78v0q22 -2 24 -24q-2 -22 -24 -24h-87v0l-17 -85v0q-7 -21 -29 -19q-21 7 -18 29l15 75v0h-111v0l-17 -85v0q-7 -21 -29 -19
q-21 7 -18 29l15 75v0h-72v0q-22 2 -24 24q2 22 24 24h81v0l29 144v0h-78v0q-22 2 -24 24q2 22 24 24h88v0l16 85v0q7 21 29 18v0zM183 264l-29 -144l29 144l-29 -144h111v0l29 144v0h-111v0z" />
    <glyph glyph-name="dollar-sign" unicode="$" horiz-adv-x="320" 
d="M184 424q-2 22 -24 24q-22 -2 -24 -24v-48v0h-9q-36 -2 -67 -20q-33 -20 -42 -62q-6 -31 6 -55q13 -24 35 -37q20 -12 45 -19q24 -8 48 -14h2v0q52 -12 82 -28q13 -9 17 -17q5 -8 2 -25q-4 -22 -35 -35q-33 -13 -87 -6q-18 3 -42 9t-41 14q-21 7 -32 -13q-7 -21 12 -31
q21 -9 49 -16q27 -7 47 -10v0v0q3 0 5 -1h5v-50v0q2 -22 24 -24q22 2 24 24v49v0q29 2 54 11q51 18 64 70q6 31 -6 55q-13 24 -35 37q-20 12 -45 19q-24 8 -48 14l-2 1v0q-52 11 -82 28q-13 8 -17 16q-5 8 -2 25q5 21 20 30q17 11 46 13t59 -2q31 -5 55 -11q21 -3 28 18
q3 22 -17 29q-30 7 -72 12v50v0z" />
    <glyph glyph-name="dollar-sign" unicode="&#x1f4b2;" horiz-adv-x="320" 
d="M184 424q-2 22 -24 24q-22 -2 -24 -24v-48v0h-9q-36 -2 -67 -20q-33 -20 -42 -62q-6 -31 6 -55q13 -24 35 -37q20 -12 45 -19q24 -8 48 -14h2v0q52 -12 82 -28q13 -9 17 -17q5 -8 2 -25q-4 -22 -35 -35q-33 -13 -87 -6q-18 3 -42 9t-41 14q-21 7 -32 -13q-7 -21 12 -31
q21 -9 49 -16q27 -7 47 -10v0v0q3 0 5 -1h5v-50v0q2 -22 24 -24q22 2 24 24v49v0q29 2 54 11q51 18 64 70q6 31 -6 55q-13 24 -35 37q-20 12 -45 19q-24 8 -48 14l-2 1v0q-52 11 -82 28q-13 8 -17 16q-5 8 -2 25q5 21 20 30q17 11 46 13t59 -2q31 -5 55 -11q21 -3 28 18
q3 22 -17 29q-30 7 -72 12v50v0z" />
    <glyph glyph-name="dollar-sign" unicode="&#xf155;" horiz-adv-x="320" 
d="M184 424q-2 22 -24 24q-22 -2 -24 -24v-48v0h-9q-36 -2 -67 -20q-33 -20 -42 -62q-6 -31 6 -55q13 -24 35 -37q20 -12 45 -19q24 -8 48 -14h2v0q52 -12 82 -28q13 -9 17 -17q5 -8 2 -25q-4 -22 -35 -35q-33 -13 -87 -6q-18 3 -42 9t-41 14q-21 7 -32 -13q-7 -21 12 -31
q21 -9 49 -16q27 -7 47 -10v0v0q3 0 5 -1h5v-50v0q2 -22 24 -24q22 2 24 24v49v0q29 2 54 11q51 18 64 70q6 31 -6 55q-13 24 -35 37q-20 12 -45 19q-24 8 -48 14l-2 1v0q-52 11 -82 28q-13 8 -17 16q-5 8 -2 25q5 21 20 30q17 11 46 13t59 -2q31 -5 55 -11q21 -3 28 18
q3 22 -17 29q-30 7 -72 12v50v0z" />
    <glyph glyph-name="dollar-sign" unicode="&#x1f4b2;" horiz-adv-x="320" 
d="M184 424q-2 22 -24 24q-22 -2 -24 -24v-48v0h-9q-36 -2 -67 -20q-33 -20 -42 -62q-6 -31 6 -55q13 -24 35 -37q20 -12 45 -19q24 -8 48 -14h2v0q52 -12 82 -28q13 -9 17 -17q5 -8 2 -25q-4 -22 -35 -35q-33 -13 -87 -6q-18 3 -42 9t-41 14q-21 7 -32 -13q-7 -21 12 -31
q21 -9 49 -16q27 -7 47 -10v0v0q3 0 5 -1h5v-50v0q2 -22 24 -24q22 2 24 24v49v0q29 2 54 11q51 18 64 70q6 31 -6 55q-13 24 -35 37q-20 12 -45 19q-24 8 -48 14l-2 1v0q-52 11 -82 28q-13 8 -17 16q-5 8 -2 25q5 21 20 30q17 11 46 13t59 -2q31 -5 55 -11q21 -3 28 18
q3 22 -17 29q-30 7 -72 12v50v0z" />
    <glyph glyph-name="dollar-sign" unicode="&#xf155;" horiz-adv-x="320" 
d="M184 424q-2 22 -24 24q-22 -2 -24 -24v-48v0h-9q-36 -2 -67 -20q-33 -20 -42 -62q-6 -31 6 -55q13 -24 35 -37q20 -12 45 -19q24 -8 48 -14h2v0q52 -12 82 -28q13 -9 17 -17q5 -8 2 -25q-4 -22 -35 -35q-33 -13 -87 -6q-18 3 -42 9t-41 14q-21 7 -32 -13q-7 -21 12 -31
q21 -9 49 -16q27 -7 47 -10v0v0q3 0 5 -1h5v-50v0q2 -22 24 -24q22 2 24 24v49v0q29 2 54 11q51 18 64 70q6 31 -6 55q-13 24 -35 37q-20 12 -45 19q-24 8 -48 14l-2 1v0q-52 11 -82 28q-13 8 -17 16q-5 8 -2 25q5 21 20 30q17 11 46 13t59 -2q31 -5 55 -11q21 -3 28 18
q3 22 -17 29q-30 7 -72 12v50v0z" />
    <glyph glyph-name="percent" unicode="%" horiz-adv-x="384" 
d="M369 335q14 17 0 34q-17 14 -34 0l-320 -320v0q-14 -17 0 -34q17 -14 34 0l320 320v0zM112 320q-1 27 -24 42q-24 12 -48 0q-23 -15 -24 -42q1 -27 24 -42q24 -12 48 0q23 15 24 42v0zM368 64q-1 27 -24 42q-24 12 -48 0q-23 -15 -24 -42q1 -27 24 -42q24 -12 48 0
q23 15 24 42v0z" />
    <glyph glyph-name="percent" unicode="&#xf541;" horiz-adv-x="384" 
d="M369 335q14 17 0 34q-17 14 -34 0l-320 -320v0q-14 -17 0 -34q17 -14 34 0l320 320v0zM112 320q-1 27 -24 42q-24 12 -48 0q-23 -15 -24 -42q1 -27 24 -42q24 -12 48 0q23 15 24 42v0zM368 64q-1 27 -24 42q-24 12 -48 0q-23 -15 -24 -42q1 -27 24 -42q24 -12 48 0
q23 15 24 42v0z" />
    <glyph glyph-name="percent" unicode="&#xf295;" horiz-adv-x="384" 
d="M369 335q14 17 0 34q-17 14 -34 0l-320 -320v0q-14 -17 0 -34q17 -14 34 0l320 320v0zM112 320q-1 27 -24 42q-24 12 -48 0q-23 -15 -24 -42q1 -27 24 -42q24 -12 48 0q23 15 24 42v0zM368 64q-1 27 -24 42q-24 12 -48 0q-23 -15 -24 -42q1 -27 24 -42q24 -12 48 0
q23 15 24 42v0z" />
    <glyph glyph-name="percent" unicode="&#xf541;" horiz-adv-x="384" 
d="M369 335q14 17 0 34q-17 14 -34 0l-320 -320v0q-14 -17 0 -34q17 -14 34 0l320 320v0zM112 320q-1 27 -24 42q-24 12 -48 0q-23 -15 -24 -42q1 -27 24 -42q24 -12 48 0q23 15 24 42v0zM368 64q-1 27 -24 42q-24 12 -48 0q-23 -15 -24 -42q1 -27 24 -42q24 -12 48 0
q23 15 24 42v0z" />
    <glyph glyph-name="percent" unicode="&#xf295;" horiz-adv-x="384" 
d="M369 335q14 17 0 34q-17 14 -34 0l-320 -320v0q-14 -17 0 -34q17 -14 34 0l320 320v0zM112 320q-1 27 -24 42q-24 12 -48 0q-23 -15 -24 -42q1 -27 24 -42q24 -12 48 0q23 15 24 42v0zM368 64q-1 27 -24 42q-24 12 -48 0q-23 -15 -24 -42q1 -27 24 -42q24 -12 48 0
q23 15 24 42v0z" />
    <glyph glyph-name="ampersand" unicode="&#x26;" horiz-adv-x="448" 
d="M178 368h44h-44h44q21 -1 36 -15q14 -14 14 -35q-1 -25 -21 -40l-61 -43v0l-48 48v0q-14 15 -14 35q1 21 15 35t35 15v0zM223 200l55 38l-55 -38l55 38q41 30 42 80q-1 42 -29 69q-27 28 -69 29h-44v0q-42 -1 -69 -29q-28 -27 -29 -69q1 -40 28 -68l42 -43v0l-74 -52v0
q-43 -31 -44 -84q1 -44 30 -73t73 -30h78v0q55 2 87 47l14 22v0l61 -62v0q16 -14 34 0q14 17 0 34l-68 69v0l71 109v0q10 19 -7 33q-20 10 -33 -7l-65 -99v0l-84 86v0zM184 172l96 -99l-96 99l96 -99l-20 -32v0q-17 -24 -47 -25h-78v0q-23 1 -39 16q-15 16 -16 39
q1 28 23 45l80 56h1z" />
    <glyph glyph-name="apostrophe" unicode="'" horiz-adv-x="192" 
d="M128 272q15 1 16 16v32v0v32v0q-1 15 -16 16h-64v0q-15 -1 -16 -16v-64v0q1 -15 16 -16h64v0zM144 226q-8 -2 -16 -2h-64v0q-27 1 -45 19t-19 45v64v0q1 27 19 45t45 19h64v0q27 -1 45 -19t19 -45v-32v0v-32v0v-72v0q-1 -51 -35 -85t-85 -35h-16v0q-22 2 -24 24
q2 22 24 24h16v0q31 1 51 21t21 51v10v0z" />
    <glyph glyph-name="bracket-round" unicode="(" horiz-adv-x="192" 
d="M157 404q9 -20 -9 -33q-28 -15 -62 -61q-35 -46 -38 -118q3 -72 38 -118q34 -46 62 -61q18 -13 9 -33q-13 -18 -33 -9q-22 13 -51 42q-29 30 -50 75q-22 45 -23 104q1 59 23 104q21 45 50 75q29 29 51 42q20 9 33 -9v0z" />
    <glyph glyph-name="bracket-round-right" unicode=")" horiz-adv-x="192" 
d="M35 404q-9 -20 9 -33q28 -15 62 -61q35 -46 38 -118q-3 -72 -38 -118q-34 -46 -62 -61q-18 -13 -9 -33q13 -18 33 -9q22 13 51 42q29 30 50 75q22 45 23 104q-1 59 -23 104q-21 45 -50 75q-29 29 -51 42q-20 9 -33 -9v0z" />
    <glyph glyph-name="asterisk" unicode="*" horiz-adv-x="384" 
d="M192 416q22 -2 24 -24v-157v0l131 81v0q20 10 33 -7q10 -20 -7 -33l-135 -84v0l135 -84v0q17 -13 7 -33q-13 -17 -33 -7l-131 81v0v-157v0q-2 -22 -24 -24q-22 2 -24 24v157v0l-131 -81v0q-20 -10 -33 7q-10 20 7 33l135 84v0l-135 84v0q-17 13 -7 33q13 17 33 7l131 -81
v0v157v0q2 22 24 24v0z" />
    <glyph glyph-name="asterisk" unicode="&#xf069;" horiz-adv-x="384" 
d="M192 416q22 -2 24 -24v-157v0l131 81v0q20 10 33 -7q10 -20 -7 -33l-135 -84v0l135 -84v0q17 -13 7 -33q-13 -17 -33 -7l-131 81v0v-157v0q-2 -22 -24 -24q-22 2 -24 24v157v0l-131 -81v0q-20 -10 -33 7q-10 20 7 33l135 84v0l-135 84v0q-17 13 -7 33q13 17 33 7l131 -81
v0v157v0q2 22 24 24v0z" />
    <glyph glyph-name="asterisk" unicode="&#x2731;" horiz-adv-x="384" 
d="M192 416q22 -2 24 -24v-157v0l131 81v0q20 10 33 -7q10 -20 -7 -33l-135 -84v0l135 -84v0q17 -13 7 -33q-13 -17 -33 -7l-131 81v0v-157v0q-2 -22 -24 -24q-22 2 -24 24v157v0l-131 -81v0q-20 -10 -33 7q-10 20 7 33l135 84v0l-135 84v0q-17 13 -7 33q13 17 33 7l131 -81
v0v157v0q2 22 24 24v0z" />
    <glyph glyph-name="asterisk" unicode="&#xf069;" horiz-adv-x="384" 
d="M192 416q22 -2 24 -24v-157v0l131 81v0q20 10 33 -7q10 -20 -7 -33l-135 -84v0l135 -84v0q17 -13 7 -33q-13 -17 -33 -7l-131 81v0v-157v0q-2 -22 -24 -24q-22 2 -24 24v157v0l-131 -81v0q-20 -10 -33 7q-10 20 7 33l135 84v0l-135 84v0q-17 13 -7 33q13 17 33 7l131 -81
v0v157v0q2 22 24 24v0z" />
    <glyph glyph-name="asterisk" unicode="&#x2731;" horiz-adv-x="384" 
d="M192 416q22 -2 24 -24v-157v0l131 81v0q20 10 33 -7q10 -20 -7 -33l-135 -84v0l135 -84v0q17 -13 7 -33q-13 -17 -33 -7l-131 81v0v-157v0q-2 -22 -24 -24q-22 2 -24 24v157v0l-131 -81v0q-20 -10 -33 7q-10 20 7 33l135 84v0l-135 84v0q-17 13 -7 33q13 17 33 7l131 -81
v0v157v0q2 22 24 24v0z" />
    <glyph glyph-name="plus" unicode="+" horiz-adv-x="448" 
d="M248 376q-2 22 -24 24q-22 -2 -24 -24v-160v0h-160v0q-22 -2 -24 -24q2 -22 24 -24h160v0v-160v0q2 -22 24 -24q22 2 24 24v160v0h160v0q22 2 24 24q-2 22 -24 24h-160v0v160v0z" />
    <glyph glyph-name="plus" unicode="&#xf067;" horiz-adv-x="448" 
d="M248 376q-2 22 -24 24q-22 -2 -24 -24v-160v0h-160v0q-22 -2 -24 -24q2 -22 24 -24h160v0v-160v0q2 -22 24 -24q22 2 24 24v160v0h160v0q22 2 24 24q-2 22 -24 24h-160v0v160v0z" />
    <glyph glyph-name="plus" unicode="&#x2795;" horiz-adv-x="448" 
d="M248 376q-2 22 -24 24q-22 -2 -24 -24v-160v0h-160v0q-22 -2 -24 -24q2 -22 24 -24h160v0v-160v0q2 -22 24 -24q22 2 24 24v160v0h160v0q22 2 24 24q-2 22 -24 24h-160v0v160v0z" />
    <glyph glyph-name="plus" unicode="&#xf067;" horiz-adv-x="448" 
d="M248 376q-2 22 -24 24q-22 -2 -24 -24v-160v0h-160v0q-22 -2 -24 -24q2 -22 24 -24h160v0v-160v0q2 -22 24 -24q22 2 24 24v160v0h160v0q22 2 24 24q-2 22 -24 24h-160v0v160v0z" />
    <glyph glyph-name="plus" unicode="&#x2795;" horiz-adv-x="448" 
d="M248 376q-2 22 -24 24q-22 -2 -24 -24v-160v0h-160v0q-22 -2 -24 -24q2 -22 24 -24h160v0v-160v0q2 -22 24 -24q22 2 24 24v160v0h160v0q22 2 24 24q-2 22 -24 24h-160v0v160v0z" />
    <glyph glyph-name="comma" unicode="," horiz-adv-x="192" 
d="M120 95q-2 16 -17 17q-14 -1 -17 -14l-19 -104v0l50 86v0q3 5 3 11v4v0zM168 95v-4v4v-4q0 -19 -9 -35l-58 -98v0q-13 -21 -39 -22h-2v0q-19 0 -31 13q-13 12 -13 31q0 4 1 8l21 118v0q5 24 23 39q17 15 42 15q27 -1 46 -19q18 -19 19 -46v0z" />
    <glyph glyph-name="hyphen" unicode="-" horiz-adv-x="320" 
d="M0 192q2 22 24 24h272v0q22 -2 24 -24q-2 -22 -24 -24h-272v0q-22 2 -24 24v0z" />
    <glyph glyph-name="period" unicode="." horiz-adv-x="192" 
d="M96 56q22 -2 24 -24q-2 -22 -24 -24q-22 2 -24 24q2 22 24 24v0zM96 -40q41 1 62 36q20 36 0 72q-21 35 -62 36q-41 -1 -62 -36q-20 -36 0 -72q21 -35 62 -36v0z" />
    <glyph glyph-name="slash-forward" unicode="/" horiz-adv-x="320" 
d="M308 445q18 -13 9 -33l-272 -464v0q-13 -18 -33 -9q-18 13 -9 33l272 464v0q13 18 33 9v0z" />
    <glyph glyph-name="0" unicode="0" horiz-adv-x="320" 
d="M0 256q2 68 47 113v0v0q45 45 113 47q68 -2 113 -47t47 -113v-128v0q-2 -68 -47 -113t-113 -47q-68 2 -113 47t-47 113v128v0zM160 368q-48 -1 -79 -33v0v0q-32 -31 -33 -79v-128v0q1 -48 33 -79q31 -32 79 -33q48 1 79 33q32 31 33 79v128v0q-1 48 -33 79q-31 32 -79 33
v0z" />
    <glyph glyph-name="1" unicode="1" horiz-adv-x="256" 
d="M152 392q0 14 -12 21q-13 6 -25 -1l-104 -64v0q-17 -13 -8 -33q14 -17 33 -7l68 41v0v-333v0h-80v0q-22 -2 -24 -24q2 -22 24 -24h104h104q22 2 24 24q-2 22 -24 24h-80v0v376v0z" />
    <glyph glyph-name="2" unicode="2" horiz-adv-x="320" 
d="M148 368q-42 -1 -71 -29l-36 -36v0q-17 -14 -34 0q-14 17 0 34l36 35v0q43 43 105 44h7v0q60 -2 100 -41q39 -40 41 -100q-1 -61 -45 -103l-166 -156v0h211v0q22 -2 24 -24q-2 -22 -24 -24h-272v0q-16 1 -22 15q-5 15 6 26l211 198v0q28 28 29 68q-1 39 -27 66
q-27 26 -66 27h-7v0z" />
    <glyph glyph-name="3" unicode="3" horiz-adv-x="320" 
d="M0 392q2 22 24 24h256v0q16 -1 22 -15q6 -15 -5 -26l-149 -143v0h40v0q56 -1 93 -39q38 -37 39 -93q-1 -56 -39 -93q-37 -38 -93 -39h-91v0q-30 0 -54 16q-25 15 -39 41l-1 4v0q-8 21 10 32q21 8 32 -10l2 -4v0q17 -30 50 -31h91v0q36 1 59 25q24 23 25 59q-1 36 -25 59
q-23 24 -59 25h-100v0q-16 1 -22 15q-6 15 5 26l149 143v0h-196v0q-22 2 -24 24v0z" />
    <glyph glyph-name="4" unicode="4" horiz-adv-x="384" 
d="M189 381q9 20 -10 32q-20 9 -32 -10l-144 -272v0q-6 -12 0 -23q8 -12 21 -12h248v0v-104v0q2 -22 24 -24q22 2 24 24v104v0h40v0q22 2 24 24q-2 22 -24 24h-40v0v152v0q-2 22 -24 24q-22 -2 -24 -24v-152v0h-208v0l125 237v0z" />
    <glyph glyph-name="5" unicode="5" horiz-adv-x="320" 
d="M32 396q5 19 24 20h208v0q22 -2 24 -24q-2 -22 -24 -24h-188v0l-23 -136v0h135v0q56 -1 93 -39q38 -37 39 -93q-1 -56 -39 -93q-37 -38 -93 -39h-95v0q-28 0 -51 14t-35 39l-5 8v0q-7 21 11 33q21 7 32 -11l5 -8v0q14 -26 43 -27h95v0q36 1 59 25q24 23 25 59
q-1 36 -25 59q-23 24 -59 25h-164v0q-11 0 -18 9q-7 8 -6 19l32 184v0z" />
    <glyph glyph-name="6" unicode="6" horiz-adv-x="320" 
d="M272 128q-1 48 -33 79v0v0q-31 32 -79 33q-50 -1 -82 -36l-5 -6v0q-25 -31 -25 -70q1 -48 33 -79q31 -32 79 -33q48 1 79 33q32 31 33 79v0zM146 287q7 1 14 1q68 -2 113 -47t47 -113q-2 -68 -47 -113t-113 -47q-68 2 -113 47t-47 113q1 64 42 108l139 171v0q16 16 34 4
q16 -16 4 -34l-73 -90v0z" />
    <glyph glyph-name="7" unicode="7" horiz-adv-x="320" 
d="M0 392q2 22 24 24h272v0q14 0 21 -12q6 -12 0 -24l-240 -400v0q-13 -18 -33 -9q-18 13 -8 33l218 364v0h-230v0q-22 2 -24 24v0z" />
    <glyph glyph-name="8" unicode="8" horiz-adv-x="320" 
d="M304 292q-1 53 -36 88v0v0q-35 35 -88 36h-40v0q-53 -1 -88 -36t-36 -88q2 -58 43 -94q-27 -17 -43 -44q-16 -28 -16 -62q1 -53 36 -88t88 -36h72v0q53 1 88 36t36 88q0 34 -16 62q-16 27 -43 44q41 36 43 94v0zM180 168h16h-16h16q32 -1 54 -22q21 -22 22 -54
q-1 -32 -22 -54q-22 -21 -54 -22h-72v0q-32 1 -54 22q-21 22 -22 54q1 32 22 54q22 21 54 22h16v0v0v0h40v0v0v0v0zM180 216v0v0v0v0h-40v0v0v0q-32 1 -54 22q-21 22 -22 54q1 32 22 54q22 21 54 22h40v0q32 -1 54 -22q21 -22 22 -54q-1 -32 -22 -54q-22 -21 -54 -22v0z" />
    <glyph glyph-name="9" unicode="9" horiz-adv-x="320" 
d="M48 256q1 -48 33 -79v0v0q31 -32 79 -33q50 1 82 36l5 6v0q25 31 25 70q-1 48 -33 79q-31 32 -79 33q-48 -1 -79 -33q-32 -31 -33 -79v0zM174 97q-7 -1 -14 -1q-68 2 -113 47t-47 113q2 68 47 113t113 47q68 -2 113 -47t47 -113q-1 -64 -42 -108l-139 -171v0
q-16 -16 -34 -4q-16 16 -4 34l73 90v0z" />
    <glyph glyph-name="colon" unicode=":" horiz-adv-x="192" 
d="M120 320q-2 22 -24 24q-22 -2 -24 -24q2 -22 24 -24q22 2 24 24v0zM24 320q1 41 36 62q36 20 72 0q35 -21 36 -62q-1 -41 -36 -62q-36 -20 -72 0q-35 21 -36 62v0zM120 64q-2 22 -24 24q-22 -2 -24 -24q2 -22 24 -24q22 2 24 24v0zM24 64q1 41 36 62q36 20 72 0
q35 -21 36 -62q-1 -41 -36 -62q-36 -20 -72 0q-35 21 -36 62v0z" />
    <glyph glyph-name="semicolon" unicode=";" horiz-adv-x="192" 
d="M72 320q2 22 24 24q22 -2 24 -24q-2 -22 -24 -24q-22 2 -24 24v0zM168 320q-1 41 -36 62q-36 20 -72 0q-35 -21 -36 -62q1 -41 36 -62q36 -20 72 0q35 21 36 62v0zM84 101q3 10 14 11q12 -1 14 -14q0 -4 -2 -8l-43 -70v0l17 81v0zM84 -45l67 110l-67 -110l67 110
q9 15 9 33q-1 26 -18 44q-18 17 -44 18q-22 0 -39 -14q-16 -13 -21 -35l-28 -127v0q-3 -19 8 -33q12 -14 32 -15q22 1 34 19v0z" />
    <glyph glyph-name="less-than" unicode="&#x3c;" horiz-adv-x="384" 
d="M382 371q7 -21 -11 -33l-293 -146v0l293 -147v0q18 -11 10 -32q-11 -18 -32 -10l-336 168v0q-12 6 -13 21q0 14 13 21l336 168v0q21 8 33 -10v0z" />
    <glyph glyph-name="less-than" unicode="&#xf536;" horiz-adv-x="384" 
d="M382 371q7 -21 -11 -33l-293 -146v0l293 -147v0q18 -11 10 -32q-11 -18 -32 -10l-336 168v0q-12 6 -13 21q0 14 13 21l336 168v0q21 8 33 -10v0z" />
    <glyph glyph-name="less-than" unicode="&#xf536;" horiz-adv-x="384" 
d="M382 371q7 -21 -11 -33l-293 -146v0l293 -147v0q18 -11 10 -32q-11 -18 -32 -10l-336 168v0q-12 6 -13 21q0 14 13 21l336 168v0q21 8 33 -10v0z" />
    <glyph glyph-name="equals" unicode="=" horiz-adv-x="448" 
d="M40 304q-22 -2 -24 -24q2 -22 24 -24h368v0q22 2 24 24q-2 22 -24 24h-368v0zM40 128q-22 -2 -24 -24q2 -22 24 -24h368v0q22 2 24 24q-2 22 -24 24h-368v0z" />
    <glyph glyph-name="equals" unicode="&#xf52c;" horiz-adv-x="448" 
d="M40 304q-22 -2 -24 -24q2 -22 24 -24h368v0q22 2 24 24q-2 22 -24 24h-368v0zM40 128q-22 -2 -24 -24q2 -22 24 -24h368v0q22 2 24 24q-2 22 -24 24h-368v0z" />
    <glyph glyph-name="equals" unicode="&#xf52c;" horiz-adv-x="448" 
d="M40 304q-22 -2 -24 -24q2 -22 24 -24h368v0q22 2 24 24q-2 22 -24 24h-368v0zM40 128q-22 -2 -24 -24q2 -22 24 -24h368v0q22 2 24 24q-2 22 -24 24h-368v0z" />
    <glyph glyph-name="greater-than" unicode="&#x3e;" horiz-adv-x="384" 
d="M3 371q-8 -21 10 -33l293 -146v0l-293 -147v0q-18 -11 -10 -32q11 -18 32 -10l336 168v0q12 7 13 21q0 15 -13 22l-336 168v0q-21 7 -32 -11v0z" />
    <glyph glyph-name="greater-than" unicode="&#xf531;" horiz-adv-x="384" 
d="M3 371q-8 -21 10 -33l293 -146v0l-293 -147v0q-18 -11 -10 -32q11 -18 32 -10l336 168v0q12 7 13 21q0 15 -13 22l-336 168v0q-21 7 -32 -11v0z" />
    <glyph glyph-name="greater-than" unicode="&#xf531;" horiz-adv-x="384" 
d="M3 371q-8 -21 10 -33l293 -146v0l-293 -147v0q-18 -11 -10 -32q11 -18 32 -10l336 168v0q12 7 13 21q0 15 -13 22l-336 168v0q-21 7 -32 -11v0z" />
    <glyph glyph-name="question" unicode="?" horiz-adv-x="320" 
d="M64 288q1 34 23 57v0v0q23 22 57 23h32v0q34 -1 57 -23q22 -23 23 -57v-5v0q-1 -38 -32 -60l-52 -34v0q-35 -25 -36 -67v-2v0q2 -22 24 -24q22 2 24 24v2v0q0 17 14 27l53 34v0q25 18 39 44t14 56v5v0q-1 54 -38 90q-36 37 -90 38h-32v0q-54 -1 -91 -38q-36 -36 -37 -90
q2 -22 24 -24q22 2 24 24v0zM160 -32q14 0 23 9v0v0q9 9 9 23t-9 23t-23 9t-23 -9t-9 -23t9 -23t23 -9v0z" />
    <glyph glyph-name="question" unicode="&#xf128;" horiz-adv-x="320" 
d="M64 288q1 34 23 57v0v0q23 22 57 23h32v0q34 -1 57 -23q22 -23 23 -57v-5v0q-1 -38 -32 -60l-52 -34v0q-35 -25 -36 -67v-2v0q2 -22 24 -24q22 2 24 24v2v0q0 17 14 27l53 34v0q25 18 39 44t14 56v5v0q-1 54 -38 90q-36 37 -90 38h-32v0q-54 -1 -91 -38q-36 -36 -37 -90
q2 -22 24 -24q22 2 24 24v0zM160 -32q14 0 23 9v0v0q9 9 9 23t-9 23t-23 9t-23 -9t-9 -23t9 -23t23 -9v0z" />
    <glyph glyph-name="question" unicode="&#x2754;" horiz-adv-x="320" 
d="M64 288q1 34 23 57v0v0q23 22 57 23h32v0q34 -1 57 -23q22 -23 23 -57v-5v0q-1 -38 -32 -60l-52 -34v0q-35 -25 -36 -67v-2v0q2 -22 24 -24q22 2 24 24v2v0q0 17 14 27l53 34v0q25 18 39 44t14 56v5v0q-1 54 -38 90q-36 37 -90 38h-32v0q-54 -1 -91 -38q-36 -36 -37 -90
q2 -22 24 -24q22 2 24 24v0zM160 -32q14 0 23 9v0v0q9 9 9 23t-9 23t-23 9t-23 -9t-9 -23t9 -23t23 -9v0z" />
    <glyph glyph-name="question" unicode="&#x2753;" horiz-adv-x="320" 
d="M64 288q1 34 23 57v0v0q23 22 57 23h32v0q34 -1 57 -23q22 -23 23 -57v-5v0q-1 -38 -32 -60l-52 -34v0q-35 -25 -36 -67v-2v0q2 -22 24 -24q22 2 24 24v2v0q0 17 14 27l53 34v0q25 18 39 44t14 56v5v0q-1 54 -38 90q-36 37 -90 38h-32v0q-54 -1 -91 -38q-36 -36 -37 -90
q2 -22 24 -24q22 2 24 24v0zM160 -32q14 0 23 9v0v0q9 9 9 23t-9 23t-23 9t-23 -9t-9 -23t9 -23t23 -9v0z" />
    <glyph glyph-name="question" unicode="&#xf128;" horiz-adv-x="320" 
d="M64 288q1 34 23 57v0v0q23 22 57 23h32v0q34 -1 57 -23q22 -23 23 -57v-5v0q-1 -38 -32 -60l-52 -34v0q-35 -25 -36 -67v-2v0q2 -22 24 -24q22 2 24 24v2v0q0 17 14 27l53 34v0q25 18 39 44t14 56v5v0q-1 54 -38 90q-36 37 -90 38h-32v0q-54 -1 -91 -38q-36 -36 -37 -90
q2 -22 24 -24q22 2 24 24v0zM160 -32q14 0 23 9v0v0q9 9 9 23t-9 23t-23 9t-23 -9t-9 -23t9 -23t23 -9v0z" />
    <glyph glyph-name="question" unicode="&#x2754;" horiz-adv-x="320" 
d="M64 288q1 34 23 57v0v0q23 22 57 23h32v0q34 -1 57 -23q22 -23 23 -57v-5v0q-1 -38 -32 -60l-52 -34v0q-35 -25 -36 -67v-2v0q2 -22 24 -24q22 2 24 24v2v0q0 17 14 27l53 34v0q25 18 39 44t14 56v5v0q-1 54 -38 90q-36 37 -90 38h-32v0q-54 -1 -91 -38q-36 -36 -37 -90
q2 -22 24 -24q22 2 24 24v0zM160 -32q14 0 23 9v0v0q9 9 9 23t-9 23t-23 9t-23 -9t-9 -23t9 -23t23 -9v0z" />
    <glyph glyph-name="question" unicode="&#x2753;" horiz-adv-x="320" 
d="M64 288q1 34 23 57v0v0q23 22 57 23h32v0q34 -1 57 -23q22 -23 23 -57v-5v0q-1 -38 -32 -60l-52 -34v0q-35 -25 -36 -67v-2v0q2 -22 24 -24q22 2 24 24v2v0q0 17 14 27l53 34v0q25 18 39 44t14 56v5v0q-1 54 -38 90q-36 37 -90 38h-32v0q-54 -1 -91 -38q-36 -36 -37 -90
q2 -22 24 -24q22 2 24 24v0zM160 -32q14 0 23 9v0v0q9 9 9 23t-9 23t-23 9t-23 -9t-9 -23t9 -23t23 -9v0z" />
    <glyph glyph-name="at" unicode="@" 
d="M256 400q-88 -2 -147 -61v0v0q-59 -59 -61 -147q2 -88 61 -147t147 -61q22 -2 24 -24q-2 -22 -24 -24q-72 1 -129 35q-58 34 -92 92q-34 57 -35 129q1 72 35 129q34 58 92 92q57 34 129 35q72 -1 129 -35q58 -34 92 -92q34 -57 35 -129v-28v0q-1 -39 -27 -65t-65 -27
q-49 2 -75 39q-35 -37 -89 -39q-51 1 -85 35t-35 85q1 51 35 85t85 35q44 -1 76 -27q7 10 20 11q22 -2 24 -24v-80v0v-28v0q0 -19 13 -31q12 -13 31 -13t31 13q13 12 13 31v28v0q-2 88 -61 147t-147 61v0zM328 192q-1 41 -36 62q-36 20 -72 0q-35 -21 -36 -62q1 -41 36 -62
q36 -20 72 0q35 21 36 62v0z" />
    <glyph glyph-name="at" unicode="&#xf1fa;" 
d="M256 400q-88 -2 -147 -61v0v0q-59 -59 -61 -147q2 -88 61 -147t147 -61q22 -2 24 -24q-2 -22 -24 -24q-72 1 -129 35q-58 34 -92 92q-34 57 -35 129q1 72 35 129q34 58 92 92q57 34 129 35q72 -1 129 -35q58 -34 92 -92q34 -57 35 -129v-28v0q-1 -39 -27 -65t-65 -27
q-49 2 -75 39q-35 -37 -89 -39q-51 1 -85 35t-35 85q1 51 35 85t85 35q44 -1 76 -27q7 10 20 11q22 -2 24 -24v-80v0v-28v0q0 -19 13 -31q12 -13 31 -13t31 13q13 12 13 31v28v0q-2 88 -61 147t-147 61v0zM328 192q-1 41 -36 62q-36 20 -72 0q-35 -21 -36 -62q1 -41 36 -62
q36 -20 72 0q35 21 36 62v0z" />
    <glyph glyph-name="at" unicode="&#xf1fa;" 
d="M256 400q-88 -2 -147 -61v0v0q-59 -59 -61 -147q2 -88 61 -147t147 -61q22 -2 24 -24q-2 -22 -24 -24q-72 1 -129 35q-58 34 -92 92q-34 57 -35 129q1 72 35 129q34 58 92 92q57 34 129 35q72 -1 129 -35q58 -34 92 -92q34 -57 35 -129v-28v0q-1 -39 -27 -65t-65 -27
q-49 2 -75 39q-35 -37 -89 -39q-51 1 -85 35t-35 85q1 51 35 85t85 35q44 -1 76 -27q7 10 20 11q22 -2 24 -24v-80v0v-28v0q0 -19 13 -31q12 -13 31 -13t31 13q13 12 13 31v28v0q-2 88 -61 147t-147 61v0zM328 192q-1 41 -36 62q-36 20 -72 0q-35 -21 -36 -62q1 -41 36 -62
q36 -20 72 0q35 21 36 62v0z" />
    <glyph glyph-name="a" unicode="A" horiz-adv-x="384" 
d="M214 401q-6 14 -22 15q-16 -1 -22 -15l-168 -400v0q-7 -21 13 -31q21 -7 31 13l34 81v0h224v0l34 -81v0q10 -20 31 -13q20 10 13 31l-168 400v0zM284 112h-183h183h-183l91 218v0l92 -218v0z" />
    <glyph glyph-name="a" unicode="a" horiz-adv-x="384" 
d="M214 401q-6 14 -22 15q-16 -1 -22 -15l-168 -400v0q-7 -21 13 -31q21 -7 31 13l34 81v0h224v0l34 -81v0q10 -20 31 -13q20 10 13 31l-168 400v0zM284 112h-183h183h-183l91 218v0l92 -218v0z" />
    <glyph glyph-name="a" unicode="a" horiz-adv-x="384" 
d="M214 401q-6 14 -22 15q-16 -1 -22 -15l-168 -400v0q-7 -21 13 -31q21 -7 31 13l34 81v0h224v0l34 -81v0q10 -20 31 -13q20 10 13 31l-168 400v0zM284 112h-183h183h-183l91 218v0l92 -218v0z" />
    <glyph glyph-name="b" unicode="B" horiz-adv-x="320" 
d="M56 416q-24 -1 -40 -16v0v0q-15 -16 -16 -40v-168v0v-168v0q1 -24 16 -40q16 -15 40 -16h140v0q53 1 88 36t36 88q0 37 -19 66q-19 30 -50 45q36 35 37 89q-1 53 -36 88t-88 36h-108v0zM164 216h-116h116h-116v144v0q1 7 8 8h108v0q32 -1 54 -22q21 -22 22 -54
q-1 -32 -22 -54q-22 -21 -54 -22v0zM48 168h116h-116h148q32 -1 54 -22q21 -22 22 -54q-1 -32 -22 -54q-22 -21 -54 -22h-140v0q-7 1 -8 8v144v0z" />
    <glyph glyph-name="b" unicode="b" horiz-adv-x="320" 
d="M56 416q-24 -1 -40 -16v0v0q-15 -16 -16 -40v-168v0v-168v0q1 -24 16 -40q16 -15 40 -16h140v0q53 1 88 36t36 88q0 37 -19 66q-19 30 -50 45q36 35 37 89q-1 53 -36 88t-88 36h-108v0zM164 216h-116h116h-116v144v0q1 7 8 8h108v0q32 -1 54 -22q21 -22 22 -54
q-1 -32 -22 -54q-22 -21 -54 -22v0zM48 168h116h-116h148q32 -1 54 -22q21 -22 22 -54q-1 -32 -22 -54q-22 -21 -54 -22h-140v0q-7 1 -8 8v144v0z" />
    <glyph glyph-name="b" unicode="b" horiz-adv-x="320" 
d="M56 416q-24 -1 -40 -16v0v0q-15 -16 -16 -40v-168v0v-168v0q1 -24 16 -40q16 -15 40 -16h140v0q53 1 88 36t36 88q0 37 -19 66q-19 30 -50 45q36 35 37 89q-1 53 -36 88t-88 36h-108v0zM164 216h-116h116h-116v144v0q1 7 8 8h108v0q32 -1 54 -22q21 -22 22 -54
q-1 -32 -22 -54q-22 -21 -54 -22v0zM48 168h116h-116h148q32 -1 54 -22q21 -22 22 -54q-1 -32 -22 -54q-22 -21 -54 -22h-140v0q-7 1 -8 8v144v0z" />
    <glyph glyph-name="c" unicode="C" horiz-adv-x="384" 
d="M344 316q-54 52 -123 52v0v0q-69 0 -123 -52q-50 -54 -50 -124t50 -124q54 -52 123 -52t123 52q16 14 33 0q14 -17 0 -35q-44 -43 -100 -58t-112 0t-100 58q-44 45 -58 102t0 114t58 101t100 59q56 14 112 0q56 -15 100 -59q14 -17 0 -34q-17 -14 -33 0v0z" />
    <glyph glyph-name="c" unicode="c" horiz-adv-x="384" 
d="M344 316q-54 52 -123 52v0v0q-69 0 -123 -52q-50 -54 -50 -124t50 -124q54 -52 123 -52t123 52q16 14 33 0q14 -17 0 -35q-44 -43 -100 -58t-112 0t-100 58q-44 45 -58 102t0 114t58 101t100 59q56 14 112 0q56 -15 100 -59q14 -17 0 -34q-17 -14 -33 0v0z" />
    <glyph glyph-name="c" unicode="c" horiz-adv-x="384" 
d="M344 316q-54 52 -123 52v0v0q-69 0 -123 -52q-50 -54 -50 -124t50 -124q54 -52 123 -52t123 52q16 14 33 0q14 -17 0 -35q-44 -43 -100 -58t-112 0t-100 58q-44 45 -58 102t0 114t58 101t100 59q56 14 112 0q56 -15 100 -59q14 -17 0 -34q-17 -14 -33 0v0z" />
    <glyph glyph-name="d" unicode="D" horiz-adv-x="384" 
d="M56 368q-7 -1 -8 -8v-336v0q1 -7 8 -8h104v0q75 2 124 52q50 49 52 124q-2 75 -52 124q-49 50 -124 52h-104v0zM0 360q1 24 16 40v0v0q16 15 40 16h104v0q63 -1 113 -31q51 -29 80 -80q30 -50 31 -113q-1 -63 -31 -113q-29 -51 -80 -80q-50 -30 -113 -31h-104v0
q-24 1 -40 16q-15 16 -16 40v336v0z" />
    <glyph glyph-name="d" unicode="d" horiz-adv-x="384" 
d="M56 368q-7 -1 -8 -8v-336v0q1 -7 8 -8h104v0q75 2 124 52q50 49 52 124q-2 75 -52 124q-49 50 -124 52h-104v0zM0 360q1 24 16 40v0v0q16 15 40 16h104v0q63 -1 113 -31q51 -29 80 -80q30 -50 31 -113q-1 -63 -31 -113q-29 -51 -80 -80q-50 -30 -113 -31h-104v0
q-24 1 -40 16q-15 16 -16 40v336v0z" />
    <glyph glyph-name="d" unicode="d" horiz-adv-x="384" 
d="M56 368q-7 -1 -8 -8v-336v0q1 -7 8 -8h104v0q75 2 124 52q50 49 52 124q-2 75 -52 124q-49 50 -124 52h-104v0zM0 360q1 24 16 40v0v0q16 15 40 16h104v0q63 -1 113 -31q51 -29 80 -80q30 -50 31 -113q-1 -63 -31 -113q-29 -51 -80 -80q-50 -30 -113 -31h-104v0
q-24 1 -40 16q-15 16 -16 40v336v0z" />
    <glyph glyph-name="e" unicode="E" horiz-adv-x="320" 
d="M56 416q-24 -1 -40 -16v0v0q-15 -16 -16 -40v-168v0v-168v0q1 -24 16 -40q16 -15 40 -16h240v0q22 2 24 24q-2 22 -24 24h-240v0q-7 1 -8 8v152v0h184v0q22 2 24 24q-2 22 -24 24h-184v0v136v0q1 7 8 8h240v0q22 2 24 24q-2 22 -24 24h-240v0z" />
    <glyph glyph-name="e" unicode="e" horiz-adv-x="320" 
d="M56 416q-24 -1 -40 -16v0v0q-15 -16 -16 -40v-168v0v-168v0q1 -24 16 -40q16 -15 40 -16h240v0q22 2 24 24q-2 22 -24 24h-240v0q-7 1 -8 8v152v0h184v0q22 2 24 24q-2 22 -24 24h-184v0v136v0q1 7 8 8h240v0q22 2 24 24q-2 22 -24 24h-240v0z" />
    <glyph glyph-name="e" unicode="e" horiz-adv-x="320" 
d="M56 416q-24 -1 -40 -16v0v0q-15 -16 -16 -40v-168v0v-168v0q1 -24 16 -40q16 -15 40 -16h240v0q22 2 24 24q-2 22 -24 24h-240v0q-7 1 -8 8v152v0h184v0q22 2 24 24q-2 22 -24 24h-184v0v136v0q1 7 8 8h240v0q22 2 24 24q-2 22 -24 24h-240v0z" />
    <glyph glyph-name="f" unicode="F" horiz-adv-x="320" 
d="M56 416q-24 -1 -40 -16v0v0q-15 -16 -16 -40v-160v0v-208v0q2 -22 24 -24q22 2 24 24v184v0h184v0q22 2 24 24q-2 22 -24 24h-184v0v136v0q1 7 8 8h240v0q22 2 24 24q-2 22 -24 24h-240v0z" />
    <glyph glyph-name="f" unicode="f" horiz-adv-x="320" 
d="M56 416q-24 -1 -40 -16v0v0q-15 -16 -16 -40v-160v0v-208v0q2 -22 24 -24q22 2 24 24v184v0h184v0q22 2 24 24q-2 22 -24 24h-184v0v136v0q1 7 8 8h240v0q22 2 24 24q-2 22 -24 24h-240v0z" />
    <glyph glyph-name="f" unicode="f" horiz-adv-x="320" 
d="M56 416q-24 -1 -40 -16v0v0q-15 -16 -16 -40v-160v0v-208v0q2 -22 24 -24q22 2 24 24v184v0h184v0q22 2 24 24q-2 22 -24 24h-184v0v136v0q1 7 8 8h240v0q22 2 24 24q-2 22 -24 24h-240v0z" />
    <glyph glyph-name="g" unicode="G" horiz-adv-x="448" 
d="M224 368q-75 -2 -124 -52v0v0q-50 -49 -52 -124q2 -75 52 -124q49 -50 124 -52q68 1 116 44q48 42 58 108h-149v0q-22 2 -24 24q2 22 24 24h159v0q17 0 28 -12q12 -12 11 -30q-9 -89 -71 -146q-62 -58 -152 -60q-63 1 -113 31q-51 29 -80 80q-30 50 -31 113q1 63 31 113
q29 51 80 80q50 30 113 31q88 -2 149 -57q15 -16 2 -34q-16 -15 -34 -2q-48 44 -117 45v0z" />
    <glyph glyph-name="g" unicode="g" horiz-adv-x="448" 
d="M224 368q-75 -2 -124 -52v0v0q-50 -49 -52 -124q2 -75 52 -124q49 -50 124 -52q68 1 116 44q48 42 58 108h-149v0q-22 2 -24 24q2 22 24 24h159v0q17 0 28 -12q12 -12 11 -30q-9 -89 -71 -146q-62 -58 -152 -60q-63 1 -113 31q-51 29 -80 80q-30 50 -31 113q1 63 31 113
q29 51 80 80q50 30 113 31q88 -2 149 -57q15 -16 2 -34q-16 -15 -34 -2q-48 44 -117 45v0z" />
    <glyph glyph-name="g" unicode="g" horiz-adv-x="448" 
d="M224 368q-75 -2 -124 -52v0v0q-50 -49 -52 -124q2 -75 52 -124q49 -50 124 -52q68 1 116 44q48 42 58 108h-149v0q-22 2 -24 24q2 22 24 24h159v0q17 0 28 -12q12 -12 11 -30q-9 -89 -71 -146q-62 -58 -152 -60q-63 1 -113 31q-51 29 -80 80q-30 50 -31 113q1 63 31 113
q29 51 80 80q50 30 113 31q88 -2 149 -57q15 -16 2 -34q-16 -15 -34 -2q-48 44 -117 45v0z" />
    <glyph glyph-name="h" unicode="H" horiz-adv-x="384" 
d="M336 192v-200v200v-200q2 -22 24 -24q22 2 24 24v232v0v168v0q-2 22 -24 24q-22 -2 -24 -24v-152v0h-288v0v152v0q-2 22 -24 24q-22 -2 -24 -24v-400v0q2 -22 24 -24q22 2 24 24v200v0h288v0z" />
    <glyph glyph-name="h" unicode="h" horiz-adv-x="384" 
d="M336 192v-200v200v-200q2 -22 24 -24q22 2 24 24v232v0v168v0q-2 22 -24 24q-22 -2 -24 -24v-152v0h-288v0v152v0q-2 22 -24 24q-22 -2 -24 -24v-400v0q2 -22 24 -24q22 2 24 24v200v0h288v0z" />
    <glyph glyph-name="h" unicode="h" horiz-adv-x="384" 
d="M336 192v-200v200v-200q2 -22 24 -24q22 2 24 24v232v0v168v0q-2 22 -24 24q-22 -2 -24 -24v-152v0h-288v0v152v0q-2 22 -24 24q-22 -2 -24 -24v-400v0q2 -22 24 -24q22 2 24 24v200v0h288v0z" />
    <glyph glyph-name="i" unicode="I" horiz-adv-x="320" 
d="M24 416q-22 -2 -24 -24q2 -22 24 -24h112v0v-352v0h-112v0q-22 -2 -24 -24q2 -22 24 -24h272v0q22 2 24 24q-2 22 -24 24h-112v0v352v0h112v0q22 2 24 24q-2 22 -24 24h-136h-136z" />
    <glyph glyph-name="i" unicode="i" horiz-adv-x="320" 
d="M24 416q-22 -2 -24 -24q2 -22 24 -24h112v0v-352v0h-112v0q-22 -2 -24 -24q2 -22 24 -24h272v0q22 2 24 24q-2 22 -24 24h-112v0v352v0h112v0q22 2 24 24q-2 22 -24 24h-136h-136z" />
    <glyph glyph-name="i" unicode="i" horiz-adv-x="320" 
d="M24 416q-22 -2 -24 -24q2 -22 24 -24h112v0v-352v0h-112v0q-22 -2 -24 -24q2 -22 24 -24h272v0q22 2 24 24q-2 22 -24 24h-112v0v352v0h112v0q22 2 24 24q-2 22 -24 24h-136h-136z" />
    <glyph glyph-name="j" unicode="J" horiz-adv-x="320" 
d="M296 416q22 -2 24 -24v-264v0q-2 -68 -47 -113t-113 -47q-68 2 -113 47t-47 113v40v0q2 22 24 24q22 -2 24 -24v-40v0q1 -48 33 -79q31 -32 79 -33q48 1 79 33q32 31 33 79v264v0q2 22 24 24v0z" />
    <glyph glyph-name="j" unicode="j" horiz-adv-x="320" 
d="M296 416q22 -2 24 -24v-264v0q-2 -68 -47 -113t-113 -47q-68 2 -113 47t-47 113v40v0q2 22 24 24q22 -2 24 -24v-40v0q1 -48 33 -79q31 -32 79 -33q48 1 79 33q32 31 33 79v264v0q2 22 24 24v0z" />
    <glyph glyph-name="j" unicode="j" horiz-adv-x="320" 
d="M296 416q22 -2 24 -24v-264v0q-2 -68 -47 -113t-113 -47q-68 2 -113 47t-47 113v40v0q2 22 24 24q22 -2 24 -24v-40v0q1 -48 33 -79q31 -32 79 -33q48 1 79 33q32 31 33 79v264v0q2 22 24 24v0z" />
    <glyph glyph-name="k" unicode="K" horiz-adv-x="320" 
d="M48 392q-2 22 -24 24q-22 -2 -24 -24v-272v0v-128v0q2 -22 24 -24q22 2 24 24v118v0l80 80v0l148 -212v0q15 -17 34 -6q16 15 6 34l-154 218v0l151 151v0q14 17 0 34q-17 14 -34 0l-231 -231v0v214v0z" />
    <glyph glyph-name="k" unicode="k" horiz-adv-x="320" 
d="M48 392q-2 22 -24 24q-22 -2 -24 -24v-272v0v-128v0q2 -22 24 -24q22 2 24 24v118v0l80 80v0l148 -212v0q15 -17 34 -6q16 15 6 34l-154 218v0l151 151v0q14 17 0 34q-17 14 -34 0l-231 -231v0v214v0z" />
    <glyph glyph-name="k" unicode="k" horiz-adv-x="320" 
d="M48 392q-2 22 -24 24q-22 -2 -24 -24v-272v0v-128v0q2 -22 24 -24q22 2 24 24v118v0l80 80v0l148 -212v0q15 -17 34 -6q16 15 6 34l-154 218v0l151 151v0q14 17 0 34q-17 14 -34 0l-231 -231v0v214v0z" />
    <glyph glyph-name="l" unicode="L" horiz-adv-x="320" 
d="M56 416q22 -2 24 -24v-376v0h216v0q22 -2 24 -24q-2 -22 -24 -24h-240v0q-22 2 -24 24v400v0q2 22 24 24v0z" />
    <glyph glyph-name="l" unicode="l" horiz-adv-x="320" 
d="M56 416q22 -2 24 -24v-376v0h216v0q22 -2 24 -24q-2 -22 -24 -24h-240v0q-22 2 -24 24v400v0q2 22 24 24v0z" />
    <glyph glyph-name="l" unicode="l" horiz-adv-x="320" 
d="M56 416q22 -2 24 -24v-376v0h216v0q22 -2 24 -24q-2 -22 -24 -24h-240v0q-22 2 -24 24v400v0q2 22 24 24v0z" />
    <glyph glyph-name="m" unicode="M" horiz-adv-x="448" 
d="M17 415q17 4 27 -10l180 -273v0l180 273v0q10 14 27 10q16 -6 17 -23v-400v0q-2 -22 -24 -24q-22 2 -24 24v320v0l-156 -237v0q-7 -11 -20 -11t-20 11l-156 237v0v-320v0q-2 -22 -24 -24q-22 2 -24 24v400v0q1 17 17 23v0z" />
    <glyph glyph-name="m" unicode="m" horiz-adv-x="448" 
d="M17 415q17 4 27 -10l180 -273v0l180 273v0q10 14 27 10q16 -6 17 -23v-400v0q-2 -22 -24 -24q-22 2 -24 24v320v0l-156 -237v0q-7 -11 -20 -11t-20 11l-156 237v0v-320v0q-2 -22 -24 -24q-22 2 -24 24v400v0q1 17 17 23v0z" />
    <glyph glyph-name="m" unicode="m" horiz-adv-x="448" 
d="M17 415q17 4 27 -10l180 -273v0l180 273v0q10 14 27 10q16 -6 17 -23v-400v0q-2 -22 -24 -24q-22 2 -24 24v320v0l-156 -237v0q-7 -11 -20 -11t-20 11l-156 237v0v-320v0q-2 -22 -24 -24q-22 2 -24 24v400v0q1 17 17 23v0z" />
    <glyph glyph-name="n" unicode="N" horiz-adv-x="384" 
d="M16 414q15 5 26 -7l294 -349v0v334v0q2 22 24 24q22 -2 24 -24v-400v0q-1 -16 -16 -23q-15 -4 -26 7l-294 350v0v-334v0q-2 -22 -24 -24q-22 2 -24 24v400v0q1 16 16 22v0z" />
    <glyph glyph-name="n" unicode="n" horiz-adv-x="384" 
d="M16 414q15 5 26 -7l294 -349v0v334v0q2 22 24 24q22 -2 24 -24v-400v0q-1 -16 -16 -23q-15 -4 -26 7l-294 350v0v-334v0q-2 -22 -24 -24q-22 2 -24 24v400v0q1 16 16 22v0z" />
    <glyph glyph-name="n" unicode="n" horiz-adv-x="384" 
d="M16 414q15 5 26 -7l294 -349v0v334v0q2 22 24 24q22 -2 24 -24v-400v0q-1 -16 -16 -23q-15 -4 -26 7l-294 350v0v-334v0q-2 -22 -24 -24q-22 2 -24 24v400v0q1 16 16 22v0z" />
    <glyph glyph-name="o" unicode="O" horiz-adv-x="448" 
d="M224 368q-48 0 -88 -24v0v0q-40 -23 -64 -64q-24 -42 -24 -88t24 -88q24 -41 64 -64q40 -24 88 -24t88 24q40 23 64 64q24 42 24 88t-24 88q-24 41 -64 64q-40 24 -88 24v0zM448 192q-1 -61 -30 -112v0v0q-30 -51 -82 -82q-53 -30 -112 -30t-112 30q-52 31 -82 82
q-29 51 -30 112q1 61 30 112q30 51 82 82q53 30 112 30t112 -30q52 -31 82 -82q29 -51 30 -112v0z" />
    <glyph glyph-name="o" unicode="o" horiz-adv-x="448" 
d="M224 368q-48 0 -88 -24v0v0q-40 -23 -64 -64q-24 -42 -24 -88t24 -88q24 -41 64 -64q40 -24 88 -24t88 24q40 23 64 64q24 42 24 88t-24 88q-24 41 -64 64q-40 24 -88 24v0zM448 192q-1 -61 -30 -112v0v0q-30 -51 -82 -82q-53 -30 -112 -30t-112 30q-52 31 -82 82
q-29 51 -30 112q1 61 30 112q30 51 82 82q53 30 112 30t112 -30q52 -31 82 -82q29 -51 30 -112v0z" />
    <glyph glyph-name="o" unicode="o" horiz-adv-x="448" 
d="M224 368q-48 0 -88 -24v0v0q-40 -23 -64 -64q-24 -42 -24 -88t24 -88q24 -41 64 -64q40 -24 88 -24t88 24q40 23 64 64q24 42 24 88t-24 88q-24 41 -64 64q-40 24 -88 24v0zM448 192q-1 -61 -30 -112v0v0q-30 -51 -82 -82q-53 -30 -112 -30t-112 30q-52 31 -82 82
q-29 51 -30 112q1 61 30 112q30 51 82 82q53 30 112 30t112 -30q52 -31 82 -82q29 -51 30 -112v0z" />
    <glyph glyph-name="p" unicode="P" horiz-adv-x="320" 
d="M56 368h112h-112h112q44 -1 74 -30q29 -30 30 -74q-1 -44 -30 -74q-30 -29 -74 -30h-120v0v200v0q1 7 8 8v0zM48 112h120h-120h120q65 2 107 45q43 42 45 107q-2 65 -45 107q-42 43 -107 45h-112v0q-24 -1 -40 -16q-15 -16 -16 -40v-224v0v-144v0q2 -22 24 -24
q22 2 24 24v120v0z" />
    <glyph glyph-name="p" unicode="p" horiz-adv-x="320" 
d="M56 368h112h-112h112q44 -1 74 -30q29 -30 30 -74q-1 -44 -30 -74q-30 -29 -74 -30h-120v0v200v0q1 7 8 8v0zM48 112h120h-120h120q65 2 107 45q43 42 45 107q-2 65 -45 107q-42 43 -107 45h-112v0q-24 -1 -40 -16q-15 -16 -16 -40v-224v0v-144v0q2 -22 24 -24
q22 2 24 24v120v0z" />
    <glyph glyph-name="p" unicode="p" horiz-adv-x="320" 
d="M56 368h112h-112h112q44 -1 74 -30q29 -30 30 -74q-1 -44 -30 -74q-30 -29 -74 -30h-120v0v200v0q1 7 8 8v0zM48 112h120h-120h120q65 2 107 45q43 42 45 107q-2 65 -45 107q-42 43 -107 45h-112v0q-24 -1 -40 -16q-15 -16 -16 -40v-224v0v-144v0q2 -22 24 -24
q22 2 24 24v120v0z" />
    <glyph glyph-name="q" unicode="Q" horiz-adv-x="448" 
d="M48 192q2 -75 52 -124v0v0q49 -50 124 -52q54 1 97 29l-91 107v0q-13 19 3 34q18 13 33 -3l91 -107v0q42 48 43 116q-2 75 -52 124q-49 50 -124 52q-75 -2 -124 -52q-50 -49 -52 -124v0zM352 8q-56 -39 -128 -40q-63 1 -113 31q-51 29 -80 80q-30 50 -31 113q1 63 31 113
q29 51 80 80q50 30 113 31q63 -1 113 -31q51 -29 80 -80q30 -50 31 -113q-2 -90 -60 -152l54 -65v0q13 -18 -2 -33q-19 -13 -34 2l-54 64v0z" />
    <glyph glyph-name="q" unicode="q" horiz-adv-x="448" 
d="M48 192q2 -75 52 -124v0v0q49 -50 124 -52q54 1 97 29l-91 107v0q-13 19 3 34q18 13 33 -3l91 -107v0q42 48 43 116q-2 75 -52 124q-49 50 -124 52q-75 -2 -124 -52q-50 -49 -52 -124v0zM352 8q-56 -39 -128 -40q-63 1 -113 31q-51 29 -80 80q-30 50 -31 113q1 63 31 113
q29 51 80 80q50 30 113 31q63 -1 113 -31q51 -29 80 -80q30 -50 31 -113q-2 -90 -60 -152l54 -65v0q13 -18 -2 -33q-19 -13 -34 2l-54 64v0z" />
    <glyph glyph-name="q" unicode="q" horiz-adv-x="448" 
d="M48 192q2 -75 52 -124v0v0q49 -50 124 -52q54 1 97 29l-91 107v0q-13 19 3 34q18 13 33 -3l91 -107v0q42 48 43 116q-2 75 -52 124q-49 50 -124 52q-75 -2 -124 -52q-50 -49 -52 -124v0zM352 8q-56 -39 -128 -40q-63 1 -113 31q-51 29 -80 80q-30 50 -31 113q1 63 31 113
q29 51 80 80q50 30 113 31q63 -1 113 -31q51 -29 80 -80q30 -50 31 -113q-2 -90 -60 -152l54 -65v0q13 -18 -2 -33q-19 -13 -34 2l-54 64v0z" />
    <glyph glyph-name="r" unicode="R" horiz-adv-x="320" 
d="M56 416q-24 -1 -40 -16v0v0q-15 -16 -16 -40v-192v0v-176v0q2 -22 24 -24q22 2 24 24v152v0h110v0l119 -166v0q14 -17 33 -6q17 15 6 34l-101 141v0q46 12 75 48t30 85q-1 58 -40 96q-38 39 -96 40h-128v0zM176 192h-128h128h-128v168v0q1 7 8 8h128v0q37 -1 62 -26
t26 -62q-1 -37 -26 -62t-62 -26h-8v0z" />
    <glyph glyph-name="r" unicode="r" horiz-adv-x="320" 
d="M56 416q-24 -1 -40 -16v0v0q-15 -16 -16 -40v-192v0v-176v0q2 -22 24 -24q22 2 24 24v152v0h110v0l119 -166v0q14 -17 33 -6q17 15 6 34l-101 141v0q46 12 75 48t30 85q-1 58 -40 96q-38 39 -96 40h-128v0zM176 192h-128h128h-128v168v0q1 7 8 8h128v0q37 -1 62 -26
t26 -62q-1 -37 -26 -62t-62 -26h-8v0z" />
    <glyph glyph-name="r" unicode="r" horiz-adv-x="320" 
d="M56 416q-24 -1 -40 -16v0v0q-15 -16 -16 -40v-192v0v-176v0q2 -22 24 -24q22 2 24 24v152v0h110v0l119 -166v0q14 -17 33 -6q17 15 6 34l-101 141v0q46 12 75 48t30 85q-1 58 -40 96q-38 39 -96 40h-128v0zM176 192h-128h128h-128v168v0q1 7 8 8h128v0q37 -1 62 -26
t26 -62q-1 -37 -26 -62t-62 -26h-8v0z" />
    <glyph glyph-name="s" unicode="S" horiz-adv-x="320" 
d="M91 357q-36 -15 -42 -48q-3 -23 3 -35q6 -13 21 -24q35 -21 94 -35q1 0 2 -1v0q27 -7 55 -16q27 -10 50 -25q24 -15 38 -43q12 -28 6 -64q-14 -61 -71 -84q-54 -21 -125 -10v0v0q-20 3 -45 11t-46 15h-1q-8 3 -13 4q-21 9 -16 31q9 20 31 15q3 -1 7 -2q4 -2 9 -3
q21 -7 43 -14t38 -10q62 -9 100 8q36 15 42 48q3 23 -3 35q-6 13 -21 24q-35 21 -93 35l-3 1v0v0q-27 7 -55 17q-27 9 -50 24q-24 15 -37 43t-7 64l24 -4v0l-24 4v0q14 61 71 84q54 21 125 10q12 -2 35 -6q22 -4 35 -8q21 -7 17 -29q-7 -20 -29 -17q-11 3 -32 7l-33 6l4 24
v0l-4 -24v0q-62 9 -100 -8v0z" />
    <glyph glyph-name="s" unicode="s" horiz-adv-x="320" 
d="M91 357q-36 -15 -42 -48q-3 -23 3 -35q6 -13 21 -24q35 -21 94 -35q1 0 2 -1v0q27 -7 55 -16q27 -10 50 -25q24 -15 38 -43q12 -28 6 -64q-14 -61 -71 -84q-54 -21 -125 -10v0v0q-20 3 -45 11t-46 15h-1q-8 3 -13 4q-21 9 -16 31q9 20 31 15q3 -1 7 -2q4 -2 9 -3
q21 -7 43 -14t38 -10q62 -9 100 8q36 15 42 48q3 23 -3 35q-6 13 -21 24q-35 21 -93 35l-3 1v0v0q-27 7 -55 17q-27 9 -50 24q-24 15 -37 43t-7 64l24 -4v0l-24 4v0q14 61 71 84q54 21 125 10q12 -2 35 -6q22 -4 35 -8q21 -7 17 -29q-7 -20 -29 -17q-11 3 -32 7l-33 6l4 24
v0l-4 -24v0q-62 9 -100 -8v0z" />
    <glyph glyph-name="s" unicode="s" horiz-adv-x="320" 
d="M91 357q-36 -15 -42 -48q-3 -23 3 -35q6 -13 21 -24q35 -21 94 -35q1 0 2 -1v0q27 -7 55 -16q27 -10 50 -25q24 -15 38 -43q12 -28 6 -64q-14 -61 -71 -84q-54 -21 -125 -10v0v0q-20 3 -45 11t-46 15h-1q-8 3 -13 4q-21 9 -16 31q9 20 31 15q3 -1 7 -2q4 -2 9 -3
q21 -7 43 -14t38 -10q62 -9 100 8q36 15 42 48q3 23 -3 35q-6 13 -21 24q-35 21 -93 35l-3 1v0v0q-27 7 -55 17q-27 9 -50 24q-24 15 -37 43t-7 64l24 -4v0l-24 4v0q14 61 71 84q54 21 125 10q12 -2 35 -6q22 -4 35 -8q21 -7 17 -29q-7 -20 -29 -17q-11 3 -32 7l-33 6l4 24
v0l-4 -24v0q-62 9 -100 -8v0z" />
    <glyph glyph-name="t" unicode="T" horiz-adv-x="384" 
d="M24 416q-22 -2 -24 -24q2 -22 24 -24h144v0v-376v0q2 -22 24 -24q22 2 24 24v376v0h144v0q22 2 24 24q-2 22 -24 24h-168h-168z" />
    <glyph glyph-name="t" unicode="t" horiz-adv-x="384" 
d="M24 416q-22 -2 -24 -24q2 -22 24 -24h144v0v-376v0q2 -22 24 -24q22 2 24 24v376v0h144v0q22 2 24 24q-2 22 -24 24h-168h-168z" />
    <glyph glyph-name="t" unicode="t" horiz-adv-x="384" 
d="M24 416q-22 -2 -24 -24q2 -22 24 -24h144v0v-376v0q2 -22 24 -24q22 2 24 24v376v0h144v0q22 2 24 24q-2 22 -24 24h-168h-168z" />
    <glyph glyph-name="u" unicode="U" horiz-adv-x="384" 
d="M24 416q22 -2 24 -24v-232v0q2 -61 42 -102q41 -40 102 -42q61 2 102 42q40 41 42 102v232v0q2 22 24 24q22 -2 24 -24v-232v0q-2 -82 -56 -136t-136 -56q-82 2 -136 56t-56 136v232v0q2 22 24 24v0z" />
    <glyph glyph-name="u" unicode="u" horiz-adv-x="384" 
d="M24 416q22 -2 24 -24v-232v0q2 -61 42 -102q41 -40 102 -42q61 2 102 42q40 41 42 102v232v0q2 22 24 24q22 -2 24 -24v-232v0q-2 -82 -56 -136t-136 -56q-82 2 -136 56t-56 136v232v0q2 22 24 24v0z" />
    <glyph glyph-name="u" unicode="u" horiz-adv-x="384" 
d="M24 416q22 -2 24 -24v-232v0q2 -61 42 -102q41 -40 102 -42q61 2 102 42q40 41 42 102v232v0q2 22 24 24q22 -2 24 -24v-232v0q-2 -82 -56 -136t-136 -56q-82 2 -136 56t-56 136v232v0q2 22 24 24v0z" />
    <glyph glyph-name="v" unicode="V" horiz-adv-x="384" 
d="M15 414q21 7 31 -13l146 -347v0l146 347v0q10 20 31 13q20 -10 13 -31l-168 -400v0q-7 -14 -22 -15q-15 1 -22 15l-168 400v0q-7 21 13 31v0z" />
    <glyph glyph-name="v" unicode="v" horiz-adv-x="384" 
d="M15 414q21 7 31 -13l146 -347v0l146 347v0q10 20 31 13q20 -10 13 -31l-168 -400v0q-7 -14 -22 -15q-15 1 -22 15l-168 400v0q-7 21 13 31v0z" />
    <glyph glyph-name="v" unicode="v" horiz-adv-x="384" 
d="M15 414q21 7 31 -13l146 -347v0l146 347v0q10 20 31 13q20 -10 13 -31l-168 -400v0q-7 -14 -22 -15q-15 1 -22 15l-168 400v0q-7 21 13 31v0z" />
    <glyph glyph-name="w" unicode="W" horiz-adv-x="576" 
d="M16 415q21 5 31 -15l119 -331v0l99 330v0q6 16 23 17q17 -1 23 -17l99 -330v0l119 331v0q10 20 31 15q20 -10 15 -31l-144 -400v0q-7 -15 -24 -16q-16 1 -22 17l-97 323v0l-97 -323v0q-6 -16 -22 -17q-17 0 -23 16l-145 400v0q-5 21 15 31v0z" />
    <glyph glyph-name="w" unicode="w" horiz-adv-x="576" 
d="M16 415q21 5 31 -15l119 -331v0l99 330v0q6 16 23 17q17 -1 23 -17l99 -330v0l119 331v0q10 20 31 15q20 -10 15 -31l-144 -400v0q-7 -15 -24 -16q-16 1 -22 17l-97 323v0l-97 -323v0q-6 -16 -22 -17q-17 0 -23 16l-145 400v0q-5 21 15 31v0z" />
    <glyph glyph-name="w" unicode="w" horiz-adv-x="576" 
d="M16 415q21 5 31 -15l119 -331v0l99 330v0q6 16 23 17q17 -1 23 -17l99 -330v0l119 331v0q10 20 31 15q20 -10 15 -31l-144 -400v0q-7 -15 -24 -16q-16 1 -22 17l-97 323v0l-97 -323v0q-6 -16 -22 -17q-17 0 -23 16l-145 400v0q-5 21 15 31v0z" />
    <glyph glyph-name="x" unicode="X" horiz-adv-x="384" 
d="M378 377q13 18 -2 33q-19 13 -34 -3l-150 -178v0l-150 178v0q-15 16 -33 3q-16 -15 -3 -33l155 -185v0l-155 -185v0q-13 -18 3 -33q18 -13 33 2l150 179v0l150 -178v0q15 -16 33 -3q16 15 3 33l-155 185v0l155 185v0z" />
    <glyph glyph-name="x" unicode="x" horiz-adv-x="384" 
d="M378 377q13 18 -2 33q-19 13 -34 -3l-150 -178v0l-150 178v0q-15 16 -33 3q-16 -15 -3 -33l155 -185v0l-155 -185v0q-13 -18 3 -33q18 -13 33 2l150 179v0l150 -178v0q15 -16 33 -3q16 15 3 33l-155 185v0l155 185v0z" />
    <glyph glyph-name="x" unicode="x" horiz-adv-x="384" 
d="M378 377q13 18 -2 33q-19 13 -34 -3l-150 -178v0l-150 178v0q-15 16 -33 3q-16 -15 -3 -33l155 -185v0l-155 -185v0q-13 -18 3 -33q18 -13 33 2l150 179v0l150 -178v0q15 -16 33 -3q16 15 3 33l-155 185v0l155 185v0z" />
    <glyph glyph-name="y" unicode="Y" horiz-adv-x="384" 
d="M43 406q-14 17 -33 5q-17 -14 -5 -33l163 -226v0v-160v0q2 -22 24 -24q22 2 24 24v160v0l163 226v0q12 19 -5 33q-19 12 -33 -5l-149 -205v0l-149 205v0z" />
    <glyph glyph-name="y" unicode="y" horiz-adv-x="384" 
d="M43 406q-14 17 -33 5q-17 -14 -5 -33l163 -226v0v-160v0q2 -22 24 -24q22 2 24 24v160v0l163 226v0q12 19 -5 33q-19 12 -33 -5l-149 -205v0l-149 205v0z" />
    <glyph glyph-name="y" unicode="y" horiz-adv-x="384" 
d="M43 406q-14 17 -33 5q-17 -14 -5 -33l163 -226v0v-160v0q2 -22 24 -24q22 2 24 24v160v0l163 226v0q12 19 -5 33q-19 12 -33 -5l-149 -205v0l-149 205v0z" />
    <glyph glyph-name="z" unicode="Z" horiz-adv-x="384" 
d="M0 392q2 22 24 24h336v0q15 -1 22 -14q6 -14 -4 -26l-302 -360v0h284v0q22 -2 24 -24q-2 -22 -24 -24h-336v0q-15 1 -22 14q-6 14 4 25l303 361v0h-285v0q-22 2 -24 24v0z" />
    <glyph glyph-name="z" unicode="z" horiz-adv-x="384" 
d="M0 392q2 22 24 24h336v0q15 -1 22 -14q6 -14 -4 -26l-302 -360v0h284v0q22 -2 24 -24q-2 -22 -24 -24h-336v0q-15 1 -22 14q-6 14 4 25l303 361v0h-285v0q-22 2 -24 24v0z" />
    <glyph glyph-name="z" unicode="z" horiz-adv-x="384" 
d="M0 392q2 22 24 24h336v0q15 -1 22 -14q6 -14 -4 -26l-302 -360v0h284v0q22 -2 24 -24q-2 -22 -24 -24h-336v0q-15 1 -22 14q-6 14 4 25l303 361v0h-285v0q-22 2 -24 24v0z" />
    <glyph glyph-name="bracket-square" unicode="[" horiz-adv-x="192" 
d="M0 360q1 24 16 40v0v0q16 15 40 16h64v0q22 -2 24 -24q-2 -22 -24 -24h-64v0q-7 -1 -8 -8v-336v0q1 -7 8 -8h64v0q22 -2 24 -24q-2 -22 -24 -24h-64v0q-24 1 -40 16q-15 16 -16 40v336v0z" />
    <glyph glyph-name="slash-back" unicode="\" horiz-adv-x="320" 
d="M12 445q-18 -13 -9 -33l272 -464v0q13 -18 33 -9q18 13 9 33l-272 464v0q-13 18 -33 9v0z" />
    <glyph glyph-name="bracket-square-right" unicode="]" horiz-adv-x="192" 
d="M192 360q-1 24 -16 40v0v0q-16 15 -40 16h-64v0q-22 -2 -24 -24q2 -22 24 -24h64v0q7 -1 8 -8v-336v0q-1 -7 -8 -8h-64v0q-22 -2 -24 -24q2 -22 24 -24h64v0q24 1 40 16q15 16 16 40v336v0z" />
    <glyph glyph-name="accent-grave" unicode="`" horiz-adv-x="192" 
d="M80 383q2 15 17 17q14 -1 17 -14l19 -102v0l-50 84v0q-3 5 -3 11v4v0zM32 383v-4v4v-4q0 -19 10 -35l57 -98v0q13 -21 39 -22q22 1 35 16q12 16 9 37l-20 117v0q-5 24 -23 39q-17 15 -42 15q-27 -1 -46 -19q-18 -19 -19 -46v0z" />
    <glyph glyph-name="bracket-curly" unicode="{" horiz-adv-x="256" 
d="M64 328q1 37 26 62v0v0q25 25 62 26h48v0q22 -2 24 -24q-2 -22 -24 -24h-48v0q-17 0 -28 -12q-12 -11 -12 -28v-46v0q-1 -36 -26 -62l-28 -28v0l28 -28v0q25 -26 26 -63v-45v0q0 -17 12 -28q11 -12 28 -12h48v0q22 -2 24 -24q-2 -22 -24 -24h-48v0q-37 1 -62 26t-26 62
v45v0q0 17 -12 29l-45 45v0q-14 17 0 34l45 45v0q12 12 12 28v46v0z" />
    <glyph glyph-name="pipe" unicode="|" horiz-adv-x="64" 
d="M32 448q22 -2 24 -24v-464v0q-2 -22 -24 -24q-22 2 -24 24v464v0q2 22 24 24v0z" />
    <glyph glyph-name="bracket-curly-right" unicode="}" horiz-adv-x="256" 
d="M192 328q-1 37 -26 62v0v0q-25 25 -62 26h-48v0q-22 -2 -24 -24q2 -22 24 -24h48v0q17 0 28 -12q12 -11 12 -28v-46v0q1 -36 26 -62l28 -28v0l-28 -28v0q-25 -26 -26 -63v-45v0q0 -17 -12 -28q-11 -12 -28 -12h-48v0q-22 -2 -24 -24q2 -22 24 -24h48v0q37 1 62 26t26 62
v45v0q0 17 12 29l45 45v0q14 17 0 34l-45 45v0q-12 12 -12 28v46v0z" />
    <glyph glyph-name="tilde" unicode="~" horiz-adv-x="448" 
d="M101 272q-23 -1 -38 -15v0v0q-14 -15 -15 -38v-91v0q-2 -22 -24 -24q-22 2 -24 24v91v0q1 43 29 72q29 28 72 29q46 -1 76 -36l130 -153v0q16 -19 41 -19q22 1 37 15q14 15 15 37v92v0q2 22 24 24q22 -2 24 -24v-92v0q-1 -42 -29 -71q-29 -28 -71 -29q-47 1 -77 36
l-130 153v0q-16 19 -40 19v0z" />
    <glyph glyph-name="tilde" unicode="&#xf69f;" horiz-adv-x="448" 
d="M101 272q-23 -1 -38 -15v0v0q-14 -15 -15 -38v-91v0q-2 -22 -24 -24q-22 2 -24 24v91v0q1 43 29 72q29 28 72 29q46 -1 76 -36l130 -153v0q16 -19 41 -19q22 1 37 15q14 15 15 37v92v0q2 22 24 24q22 -2 24 -24v-92v0q-1 -42 -29 -71q-29 -28 -71 -29q-47 1 -77 36
l-130 153v0q-16 19 -40 19v0z" />
    <glyph glyph-name="tilde" unicode="&#xf69f;" horiz-adv-x="448" 
d="M101 272q-23 -1 -38 -15v0v0q-14 -15 -15 -38v-91v0q-2 -22 -24 -24q-22 2 -24 24v91v0q1 43 29 72q29 28 72 29q46 -1 76 -36l130 -153v0q16 -19 41 -19q22 1 37 15q14 15 15 37v92v0q2 22 24 24q22 -2 24 -24v-92v0q-1 -42 -29 -71q-29 -28 -71 -29q-47 1 -77 36
l-130 153v0q-16 19 -40 19v0z" />
    <glyph glyph-name="caravan-simple" unicode="&#xe000;" horiz-adv-x="640" 
d="M80 368q-14 0 -23 -9v0v0q-9 -9 -9 -23v-224v0q0 -14 9 -23t23 -9h29v0q13 22 34 35q22 13 49 13t49 -13q21 -13 34 -35h253v0v176v0q-1 48 -33 79q-31 32 -79 33h-336v0zM96 32h-16h16h-16q-34 1 -57 23q-22 23 -23 57v224v0q1 34 23 57q23 22 57 23h336v0
q68 -2 113 -47t47 -113v-176v0h40v0q22 -2 24 -24q-2 -22 -24 -24h-40h-288q-1 -41 -28 -68t-68 -28q-41 1 -68 28t-28 68v0zM96 288q0 14 9 23v0v0q9 9 23 9h128v0q14 0 23 -9t9 -23v-64v0q0 -14 -9 -23t-23 -9h-128v0q-14 0 -23 9t-9 23v64v0zM352 320h64h-64h64
q14 0 23 -9t9 -23v-64v0q0 -14 -9 -23t-23 -9h-64v0q-14 0 -23 9t-9 23v64v0q0 14 9 23t23 9v0zM240 32q-1 27 -24 42q-24 12 -48 0q-23 -15 -24 -42q1 -27 24 -42q24 -12 48 0q23 15 24 42v0z" />
    <glyph glyph-name="cat-space" unicode="&#xe001;" horiz-adv-x="640" 
d="M464 144q54 1 91 37v0v0q36 37 37 91q-1 50 -32 85v-85v0q-1 -41 -28 -68t-68 -28q-41 1 -68 28t-28 68v85v0q-31 -35 -32 -85q1 -54 37 -91q37 -36 91 -37v0zM398 382l29 -40l-29 40l29 -40q5 -6 13 -6h48v0q8 0 13 6l29 40v0q-29 18 -66 18t-66 -18v0zM464 96v-96v96
v-96q1 -15 16 -16q15 1 16 16v99v0q-16 -3 -32 -3v0zM640 272q-1 -52 -27 -93v0v0q-26 -41 -69 -64v-115v0q-1 -27 -19 -45t-45 -19q-27 1 -45 19t-19 45v54v0l-80 -47v0v-23v0h24v0q22 -2 24 -24q-2 -22 -24 -24h-176v0q-37 1 -62 26t-26 62v0v0v239v0q0 16 -10 27t-25 13
l-8 1v0q-21 5 -21 27q5 22 27 21l8 -1v0q34 -5 55 -29t22 -59v-94v0q54 72 144 93v10q2 75 52 124q49 50 124 52q75 -2 124 -52q50 -49 52 -124v0zM144 24v0v0v0v0q0 -17 12 -28q11 -12 28 -12h104v0v64v0q0 14 -9 23t-23 9h-8v0q-22 2 -24 24q2 22 24 24h8v0q30 -1 52 -19
q21 -18 27 -47l73 43v0q-39 13 -68 42t-42 68q-68 -16 -110 -68q-43 -52 -44 -123v0zM232 436l10 -29l-10 29l10 -29q2 -3 5 -5l29 -11v0q5 -2 5 -7t-5 -8l-29 -10v0q-4 -1 -5 -5l-10 -29v0q-3 -5 -8 -5t-7 5l-11 29v0q-2 3 -5 5l-29 10v0q-5 3 -5 8t5 7l29 11v0q4 1 5 5
l11 29v0q2 5 7 5t8 -5v0zM432 256q15 1 16 16q-1 15 -16 16q-15 -1 -16 -16q1 -15 16 -16v0zM512 272q-1 15 -16 16q-15 -1 -16 -16q1 -15 16 -16q15 1 16 16v0z" />
    <glyph glyph-name="coffee-pot" unicode="&#xe002;" 
d="M88 368q-17 0 -28 -12v0v0q-12 -11 -12 -28v-80v0q-2 -22 -24 -24q-22 2 -24 24v80v0q1 37 26 62t62 26h34h332q24 -2 26 -26q0 -6 -2 -11l-49 -109v0q38 -27 60 -68q23 -40 23 -90v-8v0q-1 -42 -20 -73q-18 -32 -36 -48q-16 -15 -38 -15h-260v0q-22 0 -38 15
q-18 16 -36 48q-19 31 -20 73v8v0q0 50 23 90q22 41 60 68l-44 98v0h-15v0zM385 288l35 80l-35 -80l35 80h-228h-36l35 -80v0h194v0zM386 240h-196h196h-196q-32 -17 -52 -46q-21 -29 -25 -66h350v0q-4 37 -25 66q-20 29 -52 46v0zM418 16h-260h260h-260v0v0h260v0v0v0z" />
    <glyph glyph-name="comet" unicode="&#xe003;" 
d="M460 445q7 3 15 3q16 0 26 -11q11 -10 11 -26q0 -8 -3 -15l-60 -136v0l11 1v0q26 1 38 -20t-2 -43l-127 -177v0q-29 -40 -72 -62q-44 -23 -93 -23q-87 2 -144 60q-58 58 -60 144q0 50 22 93q21 43 61 72l179 133v0q22 15 43 3q21 -11 20 -38l-1 -18v0l136 60v0zM454 390
l-147 -65l147 65l-147 -65q-13 -5 -24 2q-10 8 -10 22l3 40v0l-165 -122v0q-30 -23 -46 -56q-17 -33 -17 -71q2 -66 46 -110t110 -46q38 0 71 17t55 48l117 163v0l-34 -3v0q-13 0 -21 11t-3 23l65 147v0zM208 248q10 0 14 -9l25 -50v0l55 -8v0q9 -1 13 -10q2 -10 -4 -17
l-40 -38v0l9 -55v0q2 -10 -6 -16q-8 -5 -17 -1l-49 26v0l-49 -26v0q-9 -4 -17 1q-7 6 -6 16l9 55v0l-39 38v0q-7 7 -4 17q3 9 13 10l54 8v0l25 50v0q5 9 14 9v0z" />
    <glyph glyph-name="fan-table" unicode="&#xe004;" horiz-adv-x="448" 
d="M224 48q48 0 88 24v0v0q40 23 64 64q24 42 24 88t-24 88q-24 41 -64 64q-40 24 -88 24t-88 -24q-40 -23 -64 -64q-24 -42 -24 -88t24 -88q24 -41 64 -64q40 -24 88 -24v0zM448 224q-2 -89 -58 -150v0v0q-56 -62 -142 -73v-17v0h112v0q22 -2 24 -24q-2 -22 -24 -24h-136
h-136q-22 2 -24 24q2 22 24 24h112v0v17v0q-86 11 -142 73q-56 61 -58 150q1 63 31 113q29 51 80 80q50 30 113 31q63 -1 113 -31q51 -29 80 -80q30 -50 31 -113v0zM118 250q-12 32 1 62v0v0q12 29 44 42q21 7 31 -13l29 -72v0q13 18 33 27t44 6q33 -5 52 -31q20 -25 16 -59
q-5 -22 -27 -21l-77 11v0q9 -20 6 -42q-2 -22 -16 -41q-22 -26 -53 -30q-32 -4 -59 16q-16 16 -5 34l48 62v0q-22 2 -40 15t-27 34v0zM224 208q15 1 16 16q-1 15 -16 16q-15 -1 -16 -16q1 -15 16 -16v0z" />
    <glyph glyph-name="faucet" unicode="&#xe005;" 
d="M224 384q22 -2 24 -24v-21v0l104 13v0q14 0 23 -9t9 -23t-9 -23t-23 -9l-104 13v0v-45v0h27v0q23 0 39 -16l16 -16v0h30v0q65 -2 107 -45q43 -42 45 -107v-16v0q-1 -24 -16 -40q-16 -15 -40 -16h-48v0q-24 1 -40 16q-15 16 -16 40q-1 7 -8 8h-20v0q-37 -46 -100 -48
q-63 2 -100 48h-100v0q-22 2 -24 24q2 22 24 24h112v0q13 0 21 -11q23 -35 67 -37q44 2 67 37q8 11 21 11h32v0q24 -1 39 -16q16 -16 17 -40q1 -7 8 -8h48v0q7 1 8 8v16v0q-1 44 -31 74q-29 29 -73 30h-40v0q-10 0 -17 7l-23 23v0q-2 2 -5 2h-94v0q-3 0 -6 -2l-22 -23v0
q-7 -7 -17 -7h-112v0q-22 2 -24 24q2 22 24 24h102v0l16 16v0q16 16 39 16h19v0v45v0l-104 -13v0q-14 0 -23 9t-9 23t9 23t23 9l104 -13v0v21v0q2 22 24 24v0z" />
    <glyph glyph-name="faucet-drip" unicode="&#xe006;" 
d="M248 424q-2 22 -24 24q-22 -2 -24 -24v-21v0l-104 13v0q-14 0 -23 -9t-9 -23t9 -23t23 -9l104 13v0v-45v0h-19v0q-23 0 -39 -16l-16 -16v0h-102v0q-22 -2 -24 -24q2 -22 24 -24h112v0q10 0 17 7l23 23v0q2 2 5 2h94v0q3 0 6 -2l22 -23v0q7 -7 17 -7h40v0q44 -1 74 -30
q29 -30 30 -74v-16v0q-1 -7 -8 -8h-48v0q-7 1 -8 8q-1 24 -16 40q-16 15 -40 16h-32v0q-13 0 -20 -11q-24 -35 -68 -37q-44 2 -67 37q-8 11 -21 11h-112v0q-22 -2 -24 -24q2 -22 24 -24h100v0q37 -46 100 -48q63 2 100 48h20v0q7 -1 8 -8q1 -24 16 -40q16 -15 40 -16h48v0
q24 1 40 16q15 16 16 40v16v0q-2 65 -45 107q-42 43 -107 45h-30v0l-16 16v0q-16 16 -39 16h-27v0v45v0l104 -13v0q14 0 23 9t9 23t-9 23t-23 9l-104 -13v0v21v0zM421 25l-18 -43l18 43l-18 -43q-3 -6 -3 -13v-1v0q0 -14 9 -23t23 -9t23 9t9 23v1v0q0 7 -3 13l-18 43v0
q-3 7 -11 7t-11 -7v0z" />
    <glyph glyph-name="faucet-drip" unicode="&#x1f6b0;" 
d="M248 424q-2 22 -24 24q-22 -2 -24 -24v-21v0l-104 13v0q-14 0 -23 -9t-9 -23t9 -23t23 -9l104 13v0v-45v0h-19v0q-23 0 -39 -16l-16 -16v0h-102v0q-22 -2 -24 -24q2 -22 24 -24h112v0q10 0 17 7l23 23v0q2 2 5 2h94v0q3 0 6 -2l22 -23v0q7 -7 17 -7h40v0q44 -1 74 -30
q29 -30 30 -74v-16v0q-1 -7 -8 -8h-48v0q-7 1 -8 8q-1 24 -16 40q-16 15 -40 16h-32v0q-13 0 -20 -11q-24 -35 -68 -37q-44 2 -67 37q-8 11 -21 11h-112v0q-22 -2 -24 -24q2 -22 24 -24h100v0q37 -46 100 -48q63 2 100 48h20v0q7 -1 8 -8q1 -24 16 -40q16 -15 40 -16h48v0
q24 1 40 16q15 16 16 40v16v0q-2 65 -45 107q-42 43 -107 45h-30v0l-16 16v0q-16 16 -39 16h-27v0v45v0l104 -13v0q14 0 23 9t9 23t-9 23t-23 9l-104 -13v0v21v0zM421 25l-18 -43l18 43l-18 -43q-3 -6 -3 -13v-1v0q0 -14 9 -23t23 -9t23 9t9 23v1v0q0 7 -3 13l-18 43v0
q-3 7 -11 7t-11 -7v0z" />
    <glyph glyph-name="faucet-drip" unicode="&#x1f6b0;" 
d="M248 424q-2 22 -24 24q-22 -2 -24 -24v-21v0l-104 13v0q-14 0 -23 -9t-9 -23t9 -23t23 -9l104 13v0v-45v0h-19v0q-23 0 -39 -16l-16 -16v0h-102v0q-22 -2 -24 -24q2 -22 24 -24h112v0q10 0 17 7l23 23v0q2 2 5 2h94v0q3 0 6 -2l22 -23v0q7 -7 17 -7h40v0q44 -1 74 -30
q29 -30 30 -74v-16v0q-1 -7 -8 -8h-48v0q-7 1 -8 8q-1 24 -16 40q-16 15 -40 16h-32v0q-13 0 -20 -11q-24 -35 -68 -37q-44 2 -67 37q-8 11 -21 11h-112v0q-22 -2 -24 -24q2 -22 24 -24h100v0q37 -46 100 -48q63 2 100 48h20v0q7 -1 8 -8q1 -24 16 -40q16 -15 40 -16h48v0
q24 1 40 16q15 16 16 40v16v0q-2 65 -45 107q-42 43 -107 45h-30v0l-16 16v0q-16 16 -39 16h-27v0v45v0l104 -13v0q14 0 23 9t9 23t-9 23t-23 9l-104 -13v0v21v0zM421 25l-18 -43l18 43l-18 -43q-3 -6 -3 -13v-1v0q0 -14 9 -23t23 -9t23 9t9 23v1v0q0 7 -3 13l-18 43v0
q-3 7 -11 7t-11 -7v0z" />
    <glyph glyph-name="galaxy" unicode="&#xe008;" 
d="M160 264q1 52 33 89v0v0q33 37 83 45q-48 -44 -58 -108q-2 -15 11 -23t26 0q32 20 73 21q52 -1 89 -33q37 -33 46 -83q-45 48 -108 58q-15 2 -24 -11q-8 -13 0 -26q20 -32 21 -73q-1 -52 -33 -89q-33 -37 -83 -46q48 45 58 109q2 15 -11 23t-26 0q-32 -21 -73 -21
q-52 1 -89 33q-37 33 -45 83q44 -48 108 -58q15 -2 23 11t0 26q-20 32 -21 73v0zM296 448q-78 -2 -130 -54v0v0q-52 -52 -54 -130q0 -24 6 -46q-25 14 -42 38l-13 18v0q-11 14 -28 14q-15 0 -25 -10t-10 -25v-21v0q2 -78 54 -130t130 -54q24 0 46 6q-14 -25 -38 -42l-18 -13
v0q-14 -11 -14 -28q0 -15 10 -25t25 -10h21v0q78 2 130 54t54 130q0 24 -6 46q25 -14 42 -38l13 -18v0q11 -14 28 -14q15 0 25 10t10 25v21v0q-2 78 -54 130t-130 54q-24 0 -46 -6q14 25 38 42l18 13v0l-14 20v0l14 -20v0q14 11 14 28q0 15 -10 25t-25 10h-21v0zM256 160
q14 0 23 9v0v0q9 9 9 23t-9 23t-23 9t-23 -9t-9 -23t9 -23t23 -9v0z" />
    <glyph glyph-name="garage" unicode="&#xe009;" horiz-adv-x="640" 
d="M323 397q-3 1 -6 0l-254 -103v0q-14 -7 -15 -22v-312v0q-2 -22 -24 -24q-22 2 -24 24v312v0q0 22 12 40t33 26l254 103v0q21 9 42 0l254 -103v0q21 -8 33 -26t12 -40v-312v0q-2 -22 -24 -24q-22 2 -24 24v312v0q-1 15 -15 22l-254 103v0zM144 80v-120v120v-120
q-2 -22 -24 -24q-22 2 -24 24v256v0q0 17 12 28q11 12 28 12h368v0q17 0 28 -12q12 -11 12 -28v-256v0q-2 -22 -24 -24q-22 2 -24 24v120v0h-352v0zM144 128h352h-352h352v80v0h-352v0v-80v0zM280 32h80h-80h80q22 -2 24 -24q-2 -22 -24 -24h-80v0q-22 2 -24 24q2 22 24 24
v0z" />
    <glyph glyph-name="garage-car" unicode="&#xe00a;" horiz-adv-x="640" 
d="M323 397q-3 1 -6 0l-254 -103v0q-14 -7 -15 -22v-312v0q-2 -22 -24 -24q-22 2 -24 24v312v0q0 22 12 40t33 26l254 103v0q21 9 42 0l254 -103v0q21 -8 33 -26t12 -40v-312v0q-2 -22 -24 -24q-22 2 -24 24v312v0q-1 15 -15 22l-254 103v0zM144 208v-248v248v-248
q-2 -22 -24 -24q-22 2 -24 24v256v0q0 17 12 28q11 12 28 12h368v0q17 0 28 -12q12 -11 12 -28v-256v0q-2 -22 -24 -24q-22 2 -24 24v248v0h-352v0zM272 122l-7 -26l7 26l-7 -26h110v0l-7 26v0q-2 6 -8 6h-80v0q-6 0 -8 -6v0zM212 85l5 17l-5 -17l5 17l9 33v0q5 18 20 29
q14 12 34 12h80v0q19 0 34 -11q14 -11 20 -30l9 -32v0l5 -18v0q27 -19 28 -53v-72v0q-2 -22 -24 -24q-22 2 -24 24v8v0h-176v0v-8v0q-2 -22 -24 -24q-22 2 -24 24v72v0q1 34 28 53v0zM408 32q-1 15 -16 16h-144v0q-15 -1 -16 -16v-16v0h176v0v16v0z" />
    <glyph glyph-name="garage-open" unicode="&#xe00b;" horiz-adv-x="640" 
d="M323 397q-3 1 -6 0l-254 -103v0q-14 -7 -15 -22v-312v0q-2 -22 -24 -24q-22 2 -24 24v312v0q0 22 12 40t33 26l254 103v0q21 9 42 0l254 -103v0q21 -8 33 -26t12 -40v-312v0q-2 -22 -24 -24q-22 2 -24 24v312v0q-1 15 -15 22l-254 103v0zM144 128v-168v168v-168
q-2 -22 -24 -24q-22 2 -24 24v256v0q0 17 12 28q11 12 28 12h368v0q17 0 28 -12q12 -11 12 -28v-256v0q-2 -22 -24 -24q-22 2 -24 24v168v0h-352v0zM144 176h352h-352h352v32v0h-352v0v-32v0zM232 32v-16v16v-16h176v0v16v0q-1 15 -16 16h-144v0q-15 -1 -16 -16v0zM232 -32
v-8v8v-8q-2 -22 -24 -24q-22 2 -24 24v72v0q1 27 19 45t45 19h144v0q27 -1 45 -19t19 -45v-72v0q-2 -22 -24 -24q-22 2 -24 24v8v0h-176v0z" />
    <glyph glyph-name="heat" unicode="&#xe00c;" horiz-adv-x="448" 
d="M176 416q22 -2 24 -24v-88v0q0 -56 34 -101l19 -25v0q42 -58 43 -130v-56v0q-2 -22 -24 -24q-22 2 -24 24v56v0q0 56 -34 101l-19 25v0q-42 58 -43 130v88v0q2 22 24 24v0zM24 352q22 -2 24 -24v-38v0q0 -51 28 -93l32 -47v0q36 -55 36 -120v-38v0q-2 -22 -24 -24
q-22 2 -24 24v38v0q0 51 -28 93l-32 47v0q-36 55 -36 120v38v0q2 22 24 24v0zM352 328v-38v38v-38q0 -51 28 -93l32 -47v0q36 -55 36 -120v-38v0q-2 -22 -24 -24q-22 2 -24 24v38v0q0 51 -28 93l-32 47v0q-36 55 -36 120v38v0q2 22 24 24q22 -2 24 -24v0z" />
    <glyph glyph-name="house-chimney-window" unicode="&#xe00d;" horiz-adv-x="576" 
d="M273 442q15 12 31 0l160 -136v0v86v0q2 22 24 24q22 -2 24 -24v-127v0l56 -47v0q15 -15 2 -34q-15 -15 -33 -2l-25 20v0v-186v0q-1 -34 -23 -57q-23 -22 -57 -23h-288v0q-34 1 -57 23q-22 23 -23 57v186v0l-24 -20v0q-19 -13 -34 2q-13 19 3 34l264 224v0zM112 243v-227
v227v-227q0 -14 9 -23t23 -9h288v0q14 0 23 9t9 23v227v0l-176 149v0l-176 -149v0zM256 160h64h-64h64v64v0h-64v0v-64v0zM208 232q0 17 12 28v0v0q11 12 28 12h80v0q17 0 28 -12q12 -11 12 -28v-80v0q0 -17 -12 -28q-11 -12 -28 -12h-80v0q-17 0 -28 12q-12 11 -12 28v80v0
z" />
    <glyph glyph-name="house-day" unicode="&#xe00e;" horiz-adv-x="640" 
d="M174 440q-5 8 -14 8t-14 -8l-28 -52v0l-55 17v0q-9 3 -16 -4t-4 -16l17 -55v0l-52 -28v0q-8 -5 -8 -14t8 -14l52 -28v0l-17 -55v0q-3 -9 4 -16t16 -4l55 16v0l7 -11v0l24 20v0l14 11v0h-1h-2q-34 1 -57 24q-22 22 -23 56q1 34 23 57q23 22 57 23q34 -1 57 -23
q22 -23 23 -57q0 -10 -2 -19l54 45v0l-31 17v0l16 55v0q3 9 -4 16t-16 4l-55 -17v0l-28 52v0zM208 288q-1 27 -24 42q-24 12 -48 0q-23 -15 -24 -42q1 -27 24 -42q24 -12 48 0q23 15 24 42v0zM415 347q-15 10 -30 0l-216 -176v0q-16 -16 -3 -34q15 -16 33 -4l25 21v0v-162v0
q1 -24 16 -40q16 -15 40 -16h240v0q24 1 40 16q15 16 16 40v162v0l25 -21v0q18 -12 34 4q12 18 -4 34l-216 176v0zM528 193v-201v201v-201q-1 -7 -8 -8h-240v0q-7 1 -8 8v201v0l128 104v0l128 -104v0zM352 136v-48v48v-48q2 -22 24 -24h48v0q22 2 24 24v48v0q-2 22 -24 24
h-48v0q-22 -2 -24 -24v0z" />
    <glyph glyph-name="house-person-leave" unicode="&#xe00f;" horiz-adv-x="640" 
d="M528 448q27 -1 42 -24q12 -24 0 -48q-15 -23 -42 -24q-27 1 -42 24q-12 24 0 48q15 23 42 24v0zM462 181q-2 -5 2 -8l17 -14v0l32 104v0v1v0q-10 5 -21 7l-30 -90v0zM521 127l50 -41l-50 41l50 -41q10 -9 14 -22l22 -99v0q3 -21 -18 -28q-21 -3 -28 18l-22 96v0l-105 84
v0q-28 25 -18 62l23 68v0q-38 -16 -56 -53l-9 -22v0q-11 -19 -32 -12q-19 11 -12 32l9 21v0q28 60 90 81q23 8 47 8h5v0q40 0 71 -24q31 -23 42 -61l11 -38v0l28 -28v0q14 -17 0 -34q-17 -14 -34 0l-29 29v0q-7 7 -10 17l-11 37v0l-28 -91v0zM420 106l39 -32l-39 32l39 -32
l-20 -48v0q-3 -8 -8 -13l-70 -70v0q-17 -14 -34 0q-14 17 0 34l69 68v0l24 61v0zM255 443l137 -112l-137 112l137 -112q-22 -12 -41 -29l-111 91v0l-128 -104v0v-201v0q1 -7 8 -8h200h55l-7 -17v0l-31 -31v0h-217v0q-24 1 -40 16q-15 16 -16 40v162v0l-25 -21v0
q-18 -12 -34 4q-12 18 4 34l216 176v0q15 10 30 0v0zM160 240q1 15 16 16h64v0q15 -1 16 -16v-64v0q-1 -15 -16 -16h-64v0q-15 1 -16 16v64v0z" />
    <glyph glyph-name="house-night" unicode="&#xe010;" horiz-adv-x="640" 
d="M125 432q5 4 4 9v0v0q0 5 -6 6q-5 1 -11 1q-48 -1 -79 -33q-32 -31 -33 -79q1 -48 33 -79q31 -32 79 -33q50 1 82 35q3 5 0 9q-3 5 -9 4h-9q-37 1 -62 26t-26 62q2 46 37 72v0zM415 347q-15 10 -30 0l-216 -176v0q-16 -16 -4 -34q16 -16 34 -4l25 21v0v-162v0
q1 -24 16 -40q16 -15 40 -16h240v0q24 1 40 16q15 16 16 40v162v0l25 -21v0q18 -12 34 4q12 18 -4 34l-216 176v0zM528 193v-201v201v-201q-1 -7 -8 -8h-240v0q-7 1 -8 8v201v0l128 104v0l128 -104v0zM352 136v-48v48v-48q2 -22 24 -24h48v0q22 2 24 24v48v0q-2 22 -24 24
h-48v0q-22 -2 -24 -24v0zM249 436l-12 -33l12 33l-12 -33l-33 -12v0q-5 -2 -5 -7t5 -8l33 -11v0l12 -33v0q2 -5 7 -5t8 5l11 33v0l33 12v0q5 2 5 7t-5 8l-33 11v0l-11 33v0q-3 5 -8 5t-7 -5v0zM104 116q-3 5 -8 5v0v0q-5 0 -7 -5l-12 -33v0l-33 -12v0q-5 -2 -5 -7t5 -8
l33 -11v0l12 -33v0q2 -5 7 -5t8 5l11 33v0l33 11v0q5 3 5 8t-5 7l-33 12v0l-12 33h1z" />
    <glyph glyph-name="house-person-return" unicode="&#xe011;" horiz-adv-x="640" 
d="M432 448q27 -1 42 -24q12 -24 0 -48q-15 -23 -42 -24q-27 1 -42 24q-12 24 0 48q15 23 42 24v0zM498 181l-30 90l30 -90l-30 90q-11 -2 -21 -7v0v-1l32 -104v0l17 14v0q4 3 2 8v0zM439 127l-28 91l28 -91l-28 91l-11 -37v0q-3 -10 -10 -17l-29 -29v0q-17 -14 -34 0
q-14 17 0 34l28 27v0l11 39v0q11 38 42 61t71 24h5v0q24 0 47 -8q62 -21 90 -81l9 -21v0q7 -21 -12 -32q-21 -7 -32 12l-9 22v0q-18 37 -56 53l23 -68v0q10 -37 -18 -62l-104 -84v0l-23 -96v0q-7 -21 -28 -18q-21 7 -18 28l22 99v0q4 13 14 22l50 41v0zM540 106l24 -61
l-24 61l24 -61l69 -68v0q14 -17 0 -34q-17 -14 -34 0l-70 70v0q-5 6 -9 13l-19 48v0l39 32v0zM394 330l2 -3l-2 3l2 -3q-20 -13 -35 -32l-121 98v0l-128 -104v0v-201v0q1 -7 8 -8h227v0q-2 -4 -3 -9l-9 -39v0h-215v0q-24 1 -40 16q-15 16 -16 40v162v0l-25 -21v0
q-18 -12 -34 4q-12 18 4 34l216 176v0q15 10 30 0l116 -95v0q10 -11 23 -18v0zM160 240q1 15 16 16h64v0q15 -1 16 -16v-64v0q-1 -15 -16 -16h-64v0q-15 1 -16 16v64v0z" />
    <glyph glyph-name="house-signal" unicode="&#xe012;" horiz-adv-x="576" 
d="M321 443q15 10 30 0l216 -176v0q16 -16 4 -34q-16 -16 -34 -4l-25 21v0v-162v0q-1 -24 -16 -40q-16 -15 -40 -16h-178v0q-7 25 -19 48h197v0q7 1 8 8v201v0l-128 104v0l-128 -104v0v-140v0q-22 21 -48 37v64v0l-25 -21v0q-18 -12 -34 4q-12 18 4 34l216 176v0zM312 256
h48h-48h48q22 -2 24 -24v-48v0q-2 -22 -24 -24h-48v0q-22 2 -24 24v48v0q2 22 24 24v0zM24 192q65 -1 117 -32v0v0q52 -31 83 -83v0v0q31 -52 32 -117q-2 -22 -24 -24q-22 2 -24 24q-2 78 -54 130t-130 54q-22 2 -24 24q2 22 24 24v0zM32 0q14 0 23 -9v0v0q9 -9 9 -23
t-9 -23t-23 -9t-23 9t-9 23t9 23t23 9v0zM0 72q2 22 24 24q58 -1 96 -40q39 -38 40 -96q-2 -22 -24 -24q-22 2 -24 24q-1 37 -26 62t-62 26q-22 2 -24 24v0z" />
    <glyph glyph-name="lamp-desk" unicode="&#xe014;" 
d="M347 350l-38 38l38 -38l-38 38q-12 12 -28 12q-18 0 -29 -12q-12 -11 -12 -29q0 -16 12 -28l38 -38v0q14 -15 14 -34v-60v0l137 137v0h-60v0q-19 0 -34 14v0zM343 422l38 -38l-38 38l38 -38h99v0q21 -1 30 -20q7 -19 -7 -35l-74 -73v0l-45 -45v0l-73 -74v0
q-16 -14 -35 -7q-19 9 -20 30v99v0l-14 13v0l-2 -2v0l-93 -86v0l57 -200v0h156v0q22 -2 24 -24q-2 -22 -24 -24h-336v0q-22 2 -24 24q2 22 24 24h131v0l-58 201v0q-4 14 7 25l104 96v0v0l1 1q-17 23 -17 52q1 38 26 63t63 26q36 -1 62 -26v0zM432 160q-23 1 -37 17l68 68v0
q16 -14 17 -37q-1 -20 -14 -34q-14 -13 -34 -14v0z" />
    <glyph glyph-name="lamp-floor" unicode="&#xe015;" horiz-adv-x="384" 
d="M56 272h272h-272h272l-51 128v0h-170v0l-51 -128v0zM66 428q9 19 30 20h192v0q21 -1 30 -20l64 -160v0q5 -16 -3 -30q-10 -14 -27 -14h-320v0q-17 0 -26 14q-10 14 -4 30l64 160v0zM88 -16h80h-80h80v208v0h48v0v-208v0h80v0q22 -2 24 -24q-2 -22 -24 -24h-104h-104
q-22 2 -24 24q2 22 24 24v0z" />
    <glyph glyph-name="light-ceiling" unicode="&#xe016;" 
d="M280 424q-2 22 -24 24q-22 -2 -24 -24v-137v0q-91 -10 -154 -71t-76 -152q-1 -14 8 -23q8 -9 22 -9h448v0q14 0 22 9q9 9 8 23q-13 91 -76 152t-154 71v137v0zM458 80h-404h404h-404q17 70 72 114q55 45 130 46q75 -1 130 -46q55 -44 72 -114v0zM256 -64q27 1 45 19v0v0
q18 18 19 45h-128v0q1 -27 19 -45t45 -19v0z" />
    <glyph glyph-name="light-switch" unicode="&#xe017;" horiz-adv-x="384" 
d="M192 384q-17 1 -23 16h-105v0q-15 -1 -16 -16v-384v0q1 -15 16 -16h105v0q6 15 23 16q17 -1 23 -16h105v0q15 1 16 16v384v0q-1 15 -16 16h-105v0q-6 -15 -23 -16v0zM0 384q1 27 19 45v0v0q18 18 45 19h256v0q27 -1 45 -19t19 -45v-384v0q-1 -27 -19 -45t-45 -19h-256v0
q-27 1 -45 19t-19 45v384v0zM144 80h96h-96h96v88v0h-96v0v-88v0zM144 304v-88v88v-88h96v0v88v0h-96v0zM96 304q1 20 14 34v0v0q14 13 34 14h96v0q20 -1 34 -14q13 -14 14 -34v-224v0q-1 -20 -14 -34q-14 -13 -34 -14h-96v0q-20 1 -34 14q-13 14 -14 34v224v0z" />
    <glyph glyph-name="light-switch-off" unicode="&#xe018;" horiz-adv-x="384" 
d="M169 -16q6 15 23 16q17 -1 23 -16h105v0q15 1 16 16v384v0q-1 15 -16 16h-105v0q-6 -15 -23 -16q-17 1 -23 16h-105v0q-15 -1 -16 -16v-384v0q1 -15 16 -16h105v0zM64 -64q-27 1 -45 19v0v0q-18 18 -19 45v384v0q1 27 19 45t45 19h256v0q27 -1 45 -19t19 -45v-384v0
q-1 -27 -19 -45t-45 -19h-256v0zM144 192h96h-96h96v112v0h-96v0v-112v0zM144 32q-20 1 -34 14v0v0q-13 14 -14 34v224v0q1 20 14 34q14 13 34 14h96v0q20 -1 34 -14q13 -14 14 -34v-224v0q-1 -20 -14 -34q-14 -13 -34 -14h-96v0z" />
    <glyph glyph-name="light-switch-on" unicode="&#xe019;" horiz-adv-x="384" 
d="M169 400q6 -15 23 -16q17 1 23 16h105v0q15 -1 16 -16v-384v0q-1 -15 -16 -16h-105v0q-6 15 -23 16q-17 -1 -23 -16h-105v0q-15 1 -16 16v384v0q1 15 16 16h105v0zM64 448q-27 -1 -45 -19v0v0q-18 -18 -19 -45v-384v0q1 -27 19 -45t45 -19h256v0q27 1 45 19t19 45v384v0
q-1 27 -19 45t-45 19h-256v0zM144 192h96h-96h96v-112v0h-96v0v112v0zM144 352q-20 -1 -34 -14v0v0q-13 -14 -14 -34v-224v0q1 -20 14 -34q14 -13 34 -14h96v0q20 1 34 14q13 14 14 34v224v0q-1 20 -14 34q-14 13 -34 14h-96v0z" />
    <glyph glyph-name="microwave" unicode="&#xe01b;" horiz-adv-x="576" 
d="M512 368q15 -1 16 -16v-288v0q-1 -15 -16 -16h-448v0q-15 1 -16 16v288v0q1 15 16 16h448v0zM64 416q-27 -1 -45 -19v0v0q-18 -18 -19 -45v-288v0q1 -27 19 -45t45 -19v-8v0q2 -22 24 -24q22 2 24 24v8v0h352v0v-8v0q2 -22 24 -24q22 2 24 24v8v0q27 1 45 19t19 45v288v0
q-1 27 -19 45t-45 19h-448v0zM432 312v-208v208v-208q2 -22 24 -24q22 2 24 24v208v0q-2 22 -24 24q-22 -2 -24 -24v0zM120 320q-22 -2 -24 -24v-176v0q2 -22 24 -24h240v0q22 2 24 24v176v0q-2 22 -24 24h-240v0z" />
    <glyph glyph-name="outlet" unicode="&#xe01c;" horiz-adv-x="448" 
d="M64 368q-15 -1 -16 -16v-320v0q1 -15 16 -16h320v0q15 1 16 16v320v0q-1 15 -16 16h-320v0zM0 352q1 27 19 45v0v0q18 18 45 19h320v0q27 -1 45 -19t19 -45v-320v0q-1 -27 -19 -45t-45 -19h-320v0q-27 1 -45 19t-19 45v320v0zM80 192q1 39 15 64v0v0q15 25 29 37
q13 11 32 11h137v0q18 0 31 -11q14 -12 29 -37q14 -25 15 -64q-1 -39 -15 -64q-15 -25 -29 -37q-13 -11 -31 -11h-137v0q-19 0 -32 11q-14 12 -29 37q-14 25 -15 64v0zM176 240q-1 15 -16 16q-15 -1 -16 -16v-48v0q1 -15 16 -16q15 1 16 16v48v0zM304 240q-1 15 -16 16
q-15 -1 -16 -16v-48v0q1 -15 16 -16q15 1 16 16v48v0zM200 152v-16v16v-16q1 -7 8 -8h32v0q7 1 8 8v16v0q-2 22 -24 24q-22 -2 -24 -24v0z" />
    <glyph glyph-name="oven" unicode="&#xe01d;" horiz-adv-x="448" 
d="M352 400q20 -1 34 -14v0v0q13 -14 14 -34v-64v0h-352v0v64v0q1 20 14 34q14 13 34 14h256v0zM400 240v-240v240v-240q-1 -15 -16 -16h-320v0q-15 1 -16 16v240v0h352v0zM96 448q-41 -1 -68 -28v0v0q-27 -27 -28 -68v-352v0q1 -27 19 -45t45 -19h320v0q27 1 45 19t19 45
v352v0q-1 41 -28 68t-68 28h-256v0zM128 344q-2 22 -24 24q-22 -2 -24 -24q2 -22 24 -24q22 2 24 24v0zM184 320q22 2 24 24q-2 22 -24 24q-22 -2 -24 -24q2 -22 24 -24v0zM288 344q-2 22 -24 24q-22 -2 -24 -24q2 -22 24 -24q22 2 24 24v0zM344 320q22 2 24 24
q-2 22 -24 24q-22 -2 -24 -24q2 -22 24 -24v0zM112 208q-14 0 -23 -9v0v0q-9 -9 -9 -23v-128v0q0 -14 9 -23t23 -9h224v0q14 0 23 9t9 23v128v0q0 14 -9 23t-23 9h-224v0zM144 160h160h-160h160q15 -1 16 -16q-1 -15 -16 -16h-160v0q-15 1 -16 16q1 15 16 16v0z" />
    <glyph glyph-name="planet-moon" unicode="&#xe01f;" horiz-adv-x="576" 
d="M512 448q36 -1 55 -32q18 -32 0 -64q-19 -31 -55 -32q-36 1 -55 32q-18 32 0 64q19 31 55 32v0zM224 -16q75 2 124 52v0v0q50 49 52 124q-1 63 -38 109q-36 46 -95 62l-71 -83v0q-8 -11 -8 -24q1 -12 10 -22q10 -10 24 -10h66v0q14 0 23 -9t9 -23v-16v0q0 -16 -8 -30
l-41 -77v0q-7 -13 -22 -13q-23 2 -25 25v47v0q-13 0 -22 9t-10 23v32v0l-50 50v0q-14 14 -34 14h-48v0q-12 -30 -12 -64q2 -75 52 -124q49 -50 124 -52v0zM0 160q1 80 48 139l3 3v0q31 38 76 60q44 22 97 22q20 0 39 -3q81 -16 132 -76t53 -145q-1 -63 -31 -113
q-29 -51 -80 -80q-50 -30 -113 -31q-63 1 -113 31q-51 29 -80 80q-30 50 -31 113v0z" />
    <glyph glyph-name="planet-ringed" unicode="&#xe020;" 
d="M464 417v-1v1v0zM459 395q-18 -7 -45 -22q-20 18 -43 30q48 31 83 41t50 -4q16 -18 0 -61t-58 -103q18 -39 18 -84q-2 -88 -61 -147t-147 -61q-45 0 -84 18q-60 -42 -103 -58t-61 0q-14 15 -4 50t41 83q13 -23 30 -43q-15 -27 -22 -45q19 7 48 24q13 7 26 16
q-37 29 -58 71t-21 92q2 88 61 147t147 61q50 0 92 -21t71 -58q9 13 16 26q17 29 24 48v0zM390 280q-22 33 -57 52v0v0q-35 20 -77 20q-68 -2 -113 -47t-47 -113q0 -42 20 -77q19 -35 52 -57q56 43 118 104q61 62 104 118v0zM218 37q18 -5 38 -5q68 2 113 47t47 113
q0 20 -5 38q-40 -50 -91 -102q-52 -51 -102 -91v0zM31 -16h1h-1v0zM48 -32v-1v0v0v0v1v0zM480 400h1h-1v0v0z" />
    <glyph glyph-name="planet-ringed" unicode="&#x1fa90;" 
d="M464 417v-1v1v0zM459 395q-18 -7 -45 -22q-20 18 -43 30q48 31 83 41t50 -4q16 -18 0 -61t-58 -103q18 -39 18 -84q-2 -88 -61 -147t-147 -61q-45 0 -84 18q-60 -42 -103 -58t-61 0q-14 15 -4 50t41 83q13 -23 30 -43q-15 -27 -22 -45q19 7 48 24q13 7 26 16
q-37 29 -58 71t-21 92q2 88 61 147t147 61q50 0 92 -21t71 -58q9 13 16 26q17 29 24 48v0zM390 280q-22 33 -57 52v0v0q-35 20 -77 20q-68 -2 -113 -47t-47 -113q0 -42 20 -77q19 -35 52 -57q56 43 118 104q61 62 104 118v0zM218 37q18 -5 38 -5q68 2 113 47t47 113
q0 20 -5 38q-40 -50 -91 -102q-52 -51 -102 -91v0zM31 -16h1h-1v0zM48 -32v-1v0v0v0v1v0zM480 400h1h-1v0v0z" />
    <glyph glyph-name="planet-ringed" unicode="&#x1fa90;" 
d="M464 417v-1v1v0zM459 395q-18 -7 -45 -22q-20 18 -43 30q48 31 83 41t50 -4q16 -18 0 -61t-58 -103q18 -39 18 -84q-2 -88 -61 -147t-147 -61q-45 0 -84 18q-60 -42 -103 -58t-61 0q-14 15 -4 50t41 83q13 -23 30 -43q-15 -27 -22 -45q19 7 48 24q13 7 26 16
q-37 29 -58 71t-21 92q2 88 61 147t147 61q50 0 92 -21t71 -58q9 13 16 26q17 29 24 48v0zM390 280q-22 33 -57 52v0v0q-35 20 -77 20q-68 -2 -113 -47t-47 -113q0 -42 20 -77q19 -35 52 -57q56 43 118 104q61 62 104 118v0zM218 37q18 -5 38 -5q68 2 113 47t47 113
q0 20 -5 38q-40 -50 -91 -102q-52 -51 -102 -91v0zM31 -16h1h-1v0zM48 -32v-1v0v0v0v1v0zM480 400h1h-1v0v0z" />
    <glyph glyph-name="police-box" unicode="&#xe021;" horiz-adv-x="384" 
d="M192 448q15 -1 16 -16v-16v0h80v0q14 0 23 -9t9 -23q14 0 23 -9t9 -23v-368v0h8v0q22 -2 24 -24q-2 -22 -24 -24h-40h-296q-22 2 -24 24q2 22 24 24h8v0v368v0q0 14 9 23t23 9q0 14 9 23t23 9h80v0v16v0q1 15 16 16v0zM80 -16h224h-224h224v352v0h-224v0v-352v0zM104 304
q1 7 8 8h24v0v-32v0h-32v0v24v0zM104 264h32h-32h32v-32v0h-24v0q-7 1 -8 8v24v0zM176 312q7 -1 8 -8v-24v0h-32v0v32v0h24v0zM152 264h32h-32h32v-24v0q-1 -7 -8 -8h-24v0v32v0zM208 312h24h-24h24v-32v0h-32v0v24v0q1 7 8 8v0zM232 264v-32v32v-32h-24v0q-7 1 -8 8v24v0
h32v0zM248 312h24h-24h24q7 -1 8 -8v-24v0h-32v0v32v0zM280 264v-24v24v-24q-1 -7 -8 -8h-24v0v32v0h32v0zM104 200q1 15 16 16h48v0q15 -1 16 -16v-48v0q-1 -15 -16 -16h-48v0q-15 1 -16 16v48v0z" />
    <glyph glyph-name="person-to-portal" unicode="&#xe022;" 
d="M272 352q27 1 42 24q12 24 0 48q-15 23 -42 24q-27 -1 -42 -24q-12 -24 0 -48q15 -23 42 -24v0zM181 339q-21 6 -42 0h-2v0q-20 -5 -36 -19l-45 -38v0q-15 -16 -2 -34q16 -15 34 -2l44 38v0q7 6 16 8l2 1v0q10 2 20 0l8 -2v0l-32 -98v0q-7 -20 0 -38t25 -29l88 -49v0
l-34 -110v0q-4 -21 16 -30q21 -5 30 16l36 115v0q7 30 -19 47l-32 18v0l28 85v0l6 -19v0q6 -17 20 -28q15 -11 34 -11h8h40q22 2 24 24q-2 22 -24 24h-24v0q3 122 24 164q10 21 16 25q7 4 8 3v0v0v0v0q1 1 8 -3q6 -4 16 -25q10 -23 17 -67t7 -113t-7 -113t-17 -67
q-10 -21 -16 -25q-7 -4 -8 -3v0v0v0v0q-1 -1 -8 3q-6 4 -16 25q-16 34 -22 116h-18h-30q7 -104 33 -149q25 -44 61 -43q41 -2 68 57t28 199q-1 140 -28 199t-68 57q-35 1 -61 -43q-25 -43 -33 -146l-6 19v0q-10 29 -40 38l-95 23v0zM252 272l-38 -115l38 115l-38 -115
l-19 11v0q-5 3 -4 9l34 102v0l27 -7v0zM123 131l-20 -51l20 51l-20 -51h-79v0q-22 -2 -24 -24q2 -22 24 -24h85v0q27 1 37 26l14 37v0l-4 3v0q-22 13 -33 33v0z" />
    <glyph glyph-name="person-from-portal" unicode="&#xe023;" 
d="M72 12q-10 23 -17 67v0v0q-7 44 -7 113t7 113t17 67q10 21 16 25q7 4 8 3v0v0v0v0q1 1 8 -3q6 -4 16 -25q10 -23 17 -67t7 -113q0 -68 -7 -112h-17v0q-22 -2 -24 -24q2 -22 24 -24h7v0v0v0h50v0v0v0h28v0q27 1 37 26l14 37v0l-4 3v0q-22 13 -33 33l-20 -51v0h-13v0
q6 47 6 112q0 32 -2 60l38 32v0q7 6 16 8l2 1v0q10 2 20 0l8 -2v0l-33 -98v0q-6 -20 1 -38t25 -29l88 -49v0l-34 -110v0q-5 -21 16 -30q21 -5 30 16l36 115v0q7 30 -19 47l-32 18v0l28 85v0l6 -19v0q6 -17 20 -28q15 -11 34 -11h48v0q22 2 24 24q-2 22 -24 24h-48v0
q-6 0 -8 6l-20 64v0q-10 29 -40 38l-95 23v0q-21 6 -42 0h-2v0q-20 -5 -36 -19l-12 -10v0q-12 74 -35 106q-24 33 -54 32q-41 2 -68 -57t-28 -199q1 -140 28 -199t68 -57q43 -2 71 64h-53v0q-7 -12 -12 -14q-5 -3 -6 -2v0v0v0v0q-1 -1 -8 3q-6 4 -16 25v0zM368 352
q27 1 42 24q12 24 0 48q-15 23 -42 24q-27 -1 -42 -24q-12 -24 0 -48q15 -23 42 -24v0zM348 272l-38 -115l38 115l-38 -115l-19 11v0q-5 3 -4 9l34 102v0l27 -7v0z" />
    <glyph glyph-name="radar" unicode="&#xe024;" 
d="M316 286q-26 18 -60 18q-48 -1 -79 -33q-32 -31 -33 -79q1 -48 33 -79q31 -32 79 -33q48 1 79 33q32 31 33 79h48v0q-1 -60 -37 -103t-93 -54q-12 12 -30 13q-18 -1 -30 -13q-49 10 -83 44t-44 83q12 12 13 30q-1 18 -13 30q11 57 54 93t103 37q54 -1 95 -31l34 34v0
q-54 44 -129 45q-79 -2 -135 -50q-57 -48 -70 -124q-18 -12 -19 -34q1 -22 19 -34q12 -67 58 -113t113 -58q12 -18 34 -19q22 1 34 19q76 13 124 70q48 56 50 135h48v0q-1 -72 -35 -129q-34 -58 -92 -92q-57 -34 -129 -35q-72 1 -129 35q-58 34 -92 92q-34 57 -35 129
q1 72 35 129q34 58 92 92q57 34 129 35q95 -2 163 -59l44 44v0q17 14 34 0q14 -17 0 -34l-182 -182v0q5 -12 5 -25q-1 -27 -19 -45t-45 -19q-27 1 -45 19t-19 45q1 27 19 45t45 19q13 0 25 -5l35 35v0z" />
    <glyph glyph-name="raygun" unicode="&#xe025;" horiz-adv-x="576" 
d="M288 384h-96h96h-96l-90 60v0q-6 4 -13 4q-23 -2 -25 -25v-50v0q-29 -14 -46 -40q-18 -27 -18 -61q1 -46 30 -77q30 -31 74 -35l-69 -138v0q-5 -12 -1 -24t16 -19l80 -40v0q12 -5 24 -1t19 16l103 206v0v0v0h12v0v-8v0q2 -22 24 -24q22 2 24 24v8v0v48v0v128v0v48v0v8v0
q-2 22 -24 24q-22 -2 -24 -24v-8v0zM112 336h176h-176h176v-128v0h-176v0q-27 1 -45 19t-19 45q1 27 19 45t45 19v0zM392 384q-22 -2 -24 -24v-176v0q2 -22 24 -24q22 2 24 24v56v0h61v0l77 -31v0q8 -3 15 2t7 13v96v0q0 8 -7 13t-15 2l-77 -31v0h-61v0v56v0q-2 22 -24 24v0
zM112 248q22 2 24 24q-2 22 -24 24q-22 -2 -24 -24q2 -22 24 -24v0zM232 272q-2 22 -24 24q-22 -2 -24 -24q2 -22 24 -24q22 2 24 24v0zM222 160l-85 -171l85 171l-85 -171l-51 26v0l72 145v0h64v0z" />
    <glyph glyph-name="refrigerator" unicode="&#xe026;" horiz-adv-x="384" 
d="M288 400q20 -1 34 -14v0v0q13 -14 14 -34v-64v0h-48v0v40v0q-2 22 -24 24q-22 -2 -24 -24v-40v0h-192v0v64v0q1 20 14 34q14 13 34 14h192v0zM240 240v-136v136v-136q2 -22 24 -24q22 2 24 24v136v0h48v0v-240v0q-1 -15 -16 -16h-256v0q-15 1 -16 16v240v0h192v0zM96 448
q-41 -1 -68 -28v0v0q-27 -27 -28 -68v-352v0q1 -27 19 -45t45 -19h256v0q27 1 45 19t19 45v352v0q-1 41 -28 68t-68 28h-192v0z" />
    <glyph glyph-name="rocket-launch" unicode="&#xe027;" 
d="M198 194q19 -10 35 -25q15 -16 25 -35q79 23 121 57q43 33 61 69q18 35 22 71t0 67q-31 4 -67 0t-71 -22q-36 -18 -69 -61q-34 -43 -57 -121v0zM384 136v-82v82v-82q-1 -41 -35 -62l-89 -53v0q-12 -6 -24 0q-12 7 -12 21v115v0q0 35 -25 60q-25 24 -60 25h-115v0
q-14 0 -21 12q-6 12 0 24l53 89v0q21 34 62 35h82v0q42 65 93 93q52 29 102 33q50 5 89 -3q18 -5 23 -23q8 -39 3 -89q-4 -50 -33 -102q-28 -51 -93 -93v0zM28 -64q-12 0 -20 8v0v0q-8 8 -8 20q0 30 9 71q8 40 33 67q27 26 62 26t63 -26q25 -27 25 -62t-25 -62
q-28 -25 -68 -33q-41 -9 -71 -9v0zM79 1q10 0 21 3v0v0q12 3 20 10q8 9 8 21t-8 21q-9 8 -21 8t-21 -8q-7 -8 -10 -20t-3 -22q0 -13 14 -13v0zM328 304q1 23 20 35q20 10 40 0q19 -12 20 -35q-1 -23 -20 -35q-20 -10 -40 0q-19 12 -20 35v0z" />
    <glyph glyph-name="rocket-launch" unicode="&#x1f680;" 
d="M198 194q19 -10 35 -25q15 -16 25 -35q79 23 121 57q43 33 61 69q18 35 22 71t0 67q-31 4 -67 0t-71 -22q-36 -18 -69 -61q-34 -43 -57 -121v0zM384 136v-82v82v-82q-1 -41 -35 -62l-89 -53v0q-12 -6 -24 0q-12 7 -12 21v115v0q0 35 -25 60q-25 24 -60 25h-115v0
q-14 0 -21 12q-6 12 0 24l53 89v0q21 34 62 35h82v0q42 65 93 93q52 29 102 33q50 5 89 -3q18 -5 23 -23q8 -39 3 -89q-4 -50 -33 -102q-28 -51 -93 -93v0zM28 -64q-12 0 -20 8v0v0q-8 8 -8 20q0 30 9 71q8 40 33 67q27 26 62 26t63 -26q25 -27 25 -62t-25 -62
q-28 -25 -68 -33q-41 -9 -71 -9v0zM79 1q10 0 21 3v0v0q12 3 20 10q8 9 8 21t-8 21q-9 8 -21 8t-21 -8q-7 -8 -10 -20t-3 -22q0 -13 14 -13v0zM328 304q1 23 20 35q20 10 40 0q19 -12 20 -35q-1 -23 -20 -35q-20 -10 -40 0q-19 12 -20 35v0z" />
    <glyph glyph-name="rocket-launch" unicode="&#x1f680;" 
d="M198 194q19 -10 35 -25q15 -16 25 -35q79 23 121 57q43 33 61 69q18 35 22 71t0 67q-31 4 -67 0t-71 -22q-36 -18 -69 -61q-34 -43 -57 -121v0zM384 136v-82v82v-82q-1 -41 -35 -62l-89 -53v0q-12 -6 -24 0q-12 7 -12 21v115v0q0 35 -25 60q-25 24 -60 25h-115v0
q-14 0 -21 12q-6 12 0 24l53 89v0q21 34 62 35h82v0q42 65 93 93q52 29 102 33q50 5 89 -3q18 -5 23 -23q8 -39 3 -89q-4 -50 -33 -102q-28 -51 -93 -93v0zM28 -64q-12 0 -20 8v0v0q-8 8 -8 20q0 30 9 71q8 40 33 67q27 26 62 26t63 -26q25 -27 25 -62t-25 -62
q-28 -25 -68 -33q-41 -9 -71 -9v0zM79 1q10 0 21 3v0v0q12 3 20 10q8 9 8 21t-8 21q-9 8 -21 8t-21 -8q-7 -8 -10 -20t-3 -22q0 -13 14 -13v0zM328 304q1 23 20 35q20 10 40 0q19 -12 20 -35q-1 -23 -20 -35q-20 -10 -40 0q-19 12 -20 35v0z" />
    <glyph glyph-name="sensor" unicode="&#xe028;" horiz-adv-x="448" 
d="M64 368q-15 -1 -16 -16v-320v0q1 -15 16 -16h320v0q15 1 16 16v320v0q-1 15 -16 16h-320v0zM0 352q1 27 19 45v0v0q18 18 45 19h320v0q27 -1 45 -19t19 -45v-320v0q-1 -27 -19 -45t-45 -19h-320v0q-27 1 -45 19t-19 45v320v0zM144 296v-112v112v-112q-2 -22 -24 -24
q-22 2 -24 24v112v0q2 22 24 24q22 -2 24 -24v0zM240 296v-112v112v-112q-2 -22 -24 -24q-22 2 -24 24v112v0q2 22 24 24q22 -2 24 -24v0z" />
    <glyph glyph-name="sensor-triangle-exclamation" unicode="&#xe029;" horiz-adv-x="640" 
d="M64 368h320h-320h320q15 -1 16 -16v-50v0q20 18 48 18v32v0q-1 27 -19 45t-45 19h-320v0q-27 -1 -45 -19t-19 -45v-320v0q1 -27 19 -45t45 -19h161v0q-1 6 -1 12q0 19 9 36h-169v0q-15 1 -16 16v320v0q1 15 16 16v0zM144 296q-2 22 -24 24q-22 -2 -24 -24v-112v0
q2 -22 24 -24q22 2 24 24v112v0zM240 296q-2 22 -24 24q-22 -2 -24 -24v-112v0q2 -22 24 -24q22 2 24 24v112v0zM262 2q-6 -10 -6 -22q0 -19 13 -31q12 -13 31 -13h296v0q19 0 31 13q13 12 13 31q0 12 -6 22l-150 265v0q-12 20 -36 21q-24 -1 -36 -21l-150 -265v0zM464 176
v-88v88v-88q-1 -15 -16 -16q-15 1 -16 16v88v0q1 15 16 16q15 -1 16 -16v0zM448 40q22 -2 24 -24q-2 -22 -24 -24q-22 2 -24 24q2 22 24 24v0z" />
    <glyph glyph-name="sensor-fire" unicode="&#xe02a;" horiz-adv-x="640" 
d="M64 368h320h-320h320q15 -1 16 -16v-55v0q6 5 13 11q15 13 35 12v32v0q-1 27 -19 45t-45 19h-320v0q-27 -1 -45 -19t-19 -45v-320v0q1 -27 19 -45t45 -19h274v0q-20 22 -32 48h-242v0q-15 1 -16 16v320v0q1 15 16 16v0zM144 296q-2 22 -24 24q-22 -2 -24 -24v-112v0
q2 -22 24 -24q22 2 24 24v112v0zM240 296q-2 22 -24 24q-22 -2 -24 -24v-112v0q2 -22 24 -24q22 2 24 24v112v0zM506 240l-19 20l19 -20l-19 20q-2 1 -3 3l-3 3v0v0q0 1 -1 1q-12 18 -32 21q-11 0 -20 -7q-38 -33 -71 -81q-34 -47 -37 -104q2 -68 46 -113q45 -45 114 -47
q68 2 113 47t47 113q-2 46 -26 88t-55 71q-9 8 -20 8q-12 0 -21 -9l-12 -14v0zM544 48q-1 -27 -19 -45v0v0q-18 -18 -45 -19q-27 1 -45 19t-19 45q2 28 21 52t34 36q9 7 18 0q15 -12 34 -36t21 -52v0z" />
    <glyph glyph-name="sensor-on" unicode="&#xe02b;" horiz-adv-x="640" 
d="M384 368q15 -1 16 -16v-320v0q-1 -15 -16 -16h-320v0q-15 1 -16 16v320v0q1 15 16 16h320v0zM64 416q-27 -1 -45 -19v0v0q-18 -18 -19 -45v-320v0q1 -27 19 -45t45 -19h320v0q27 1 45 19t19 45v320v0q-1 27 -19 45t-45 19h-320v0zM120 320q-22 -2 -24 -24v-112v0
q2 -22 24 -24q22 2 24 24v112v0q-2 22 -24 24v0zM216 320q-22 -2 -24 -24v-112v0q2 -22 24 -24q22 2 24 24v112v0q-2 22 -24 24v0zM597 340q17 14 7 33q-14 17 -33 7l-48 -32v0q-17 -14 -7 -33q14 -17 33 -7l48 32v0zM536 216q-22 -2 -24 -24q2 -22 24 -24h80v0q22 2 24 24
q-2 22 -24 24h-80v0zM549 76q-19 11 -33 -7q-11 -19 7 -33l48 -32v0q19 -11 33 7q11 19 -7 33l-48 32v0z" />
    <glyph glyph-name="sensor-cloud" unicode="&#xe02c;" horiz-adv-x="640" 
d="M64 368h320h-320h320q15 -1 16 -16v-128v0q26 0 48 -11v139v0q-1 27 -19 45t-45 19h-320v0q-27 -1 -45 -19t-19 -45v-320v0q1 -27 19 -45t45 -19h171v0q-11 22 -11 48h-160v0q-15 1 -16 16v320v0q1 15 16 16v0zM144 296q-2 22 -24 24q-22 -2 -24 -24v-112v0q2 -22 24 -24
q22 2 24 24v112v0zM240 296q-2 22 -24 24q-22 -2 -24 -24v-112v0q2 -22 24 -24q22 2 24 24v112v0zM336 -64h224h-224h224q34 1 57 23q22 23 23 57q-1 30 -19 51q-18 22 -46 28q1 4 1 9q-1 24 -16 40q-16 15 -40 16q-28 -1 -44 -22q-9 24 -29 39t-47 15q-34 -1 -57 -23
q-22 -23 -23 -57q0 -9 2 -17q-29 -6 -47 -27q-18 -22 -19 -52q1 -34 23 -57q23 -22 57 -23v0z" />
    <glyph glyph-name="siren" unicode="&#xe02d;" horiz-adv-x="448" 
d="M346 144h48h-48h48l-19 152v0q-4 24 -21 40q-18 16 -42 16h-175v0q-25 0 -43 -16q-17 -16 -21 -40l-19 -152v0h48v0l19 146v0q2 13 16 14h175v0q13 -1 15 -14l19 -146v0zM180 144l12 94l-12 -94l12 94q0 15 -14 18q-15 0 -18 -14l-12 -98v0h32v0zM48 64h352h-352h352v-48
v0h-352v0v48v0zM0 64v-48v48v-48q1 -20 14 -34q14 -13 34 -14h352v0q20 1 34 14q13 14 14 34v48v0q-1 20 -14 34q-14 13 -34 14h-352v0q-20 -1 -34 -14q-13 -14 -14 -34v0z" />
    <glyph glyph-name="siren-on" unicode="&#xe02e;" horiz-adv-x="640" 
d="M69 412l48 -32l-48 32l48 -32q17 -14 7 -33q-14 -17 -33 -7l-48 32v0q-17 14 -7 33q14 17 33 7v0zM597 372l-48 -32l48 32l-48 -32q-19 -11 -33 7q-11 19 7 33l48 32v0q19 11 33 -7q11 -19 -7 -33v0zM24 256h64h-64h64q22 -2 24 -24q-2 -22 -24 -24h-64v0q-22 2 -24 24
q2 22 24 24v0zM552 256h64h-64h64q22 -2 24 -24q-2 -22 -24 -24h-64v0q-22 2 -24 24q2 22 24 24v0zM490 144h-48h48h-48l-19 146v0q-2 13 -15 14h-175v0q-14 -1 -16 -14l-19 -146v0h-48v0l19 152v0q4 24 21 40q18 15 43 16h175v0q24 0 42 -16q17 -16 21 -40l19 -152v0z
M244 144l12 98l-12 -98l12 98q3 14 18 14q14 -3 14 -18l-12 -94v0h-32v0zM496 64h-352h352h-352v-48v0h352v0v48v0zM144 112h352h-352h352q20 -1 34 -14q13 -14 14 -34v-48v0q-1 -20 -14 -34q-14 -13 -34 -14h-352v0q-20 1 -34 14q-13 14 -14 34v48v0q1 20 14 34
q14 13 34 14v0z" />
    <glyph glyph-name="solar-system" unicode="&#xe02f;" 
d="M464 192q-1 -64 -34 -114q-7 2 -14 2q-20 -1 -34 -14q-13 -14 -14 -34q1 -20 14 -34q14 -13 34 -14q20 1 34 14q13 14 14 34q0 5 -1 9q48 65 49 151q-1 72 -35 129q-34 58 -92 92q-57 34 -129 35q-64 -1 -117 -28q22 -14 31 -38q40 18 86 18q88 -2 147 -61t61 -147v0z
M256 -16q-88 2 -147 61v0v0q-59 59 -61 147q1 64 34 114q7 -2 14 -2q20 1 34 14q13 14 14 34q-1 20 -14 34q-14 13 -34 14q-20 -1 -34 -14q-13 -14 -14 -34q0 -5 1 -9q-48 -65 -49 -151q1 -72 35 -129q34 -58 92 -92q57 -34 129 -35q64 1 117 28q-22 14 -31 38
q-40 -18 -86 -18v0zM391 278q1 5 1 10q0 17 -12 28q-11 12 -28 12q-5 0 -10 -1q-38 24 -86 25q-68 -2 -113 -47t-47 -113q2 -68 47 -113t113 -47q68 2 113 47t47 113q-1 48 -25 86v0zM312 289v-1v0v0v0q0 -17 12 -28q11 -12 28 -12h1v0q15 -25 15 -56q-1 -48 -33 -79
q-31 -32 -79 -33q-48 1 -79 33q-32 31 -33 79q1 48 33 79q31 32 79 33q31 0 56 -15v0zM256 208q15 -1 16 -16q-1 -15 -16 -16q-15 1 -16 16q1 15 16 16v0zM256 128q36 1 55 32q18 32 0 64q-19 31 -55 32q-36 -1 -55 -32q-18 -32 0 -64q19 -31 55 -32v0z" />
    <glyph glyph-name="circle-sort" unicode="&#xe030;" 
d="M464 192q0 57 -28 104v0v0q-27 47 -76 76q-49 28 -104 28t-104 -28q-49 -29 -76 -76q-28 -47 -28 -104t28 -104q27 -47 76 -76q49 -28 104 -28t104 28q49 29 76 76q28 47 28 104v0zM0 192q1 70 34 128v0v0q34 58 94 94q61 34 128 34t128 -34q60 -36 94 -94
q33 -58 34 -128q-1 -70 -34 -128q-34 -58 -94 -94q-61 -34 -128 -34t-128 34q-60 36 -94 94q-33 58 -34 128v0zM267 347l96 -96l-96 96l96 -96q7 -7 4 -17q-5 -9 -15 -10h-192v0q-10 0 -15 10q-3 10 4 17l96 96v0q11 10 22 0v0zM245 37l-96 96l96 -96l-96 96q-7 7 -4 17
q5 9 15 10h192v0q10 0 15 -10q3 -10 -4 -17l-96 -96v0q-11 -10 -22 0v0z" />
    <glyph glyph-name="circle-sort-down" unicode="&#xe031;" 
d="M48 192q0 57 28 104v0v0q27 47 76 76q49 28 104 28t104 -28q49 -29 76 -76q28 -47 28 -104t-28 -104q-27 -47 -76 -76q-49 -28 -104 -28t-104 28q-49 29 -76 76q-28 47 -28 104v0zM512 192q-1 70 -34 128v0v0q-34 58 -94 94q-61 34 -128 34t-128 -34q-60 -36 -94 -94
q-33 -58 -34 -128q1 -70 34 -128q34 -58 94 -94q61 -34 128 -34t128 34q60 36 94 94q33 58 34 128v0zM267 37l96 96l-96 -96l96 96q7 7 4 17q-5 9 -15 10h-192v0q-10 0 -15 -10q-3 -10 4 -17l96 -96v0q11 -10 22 0v0zM267 347q-11 10 -22 0l-96 -96v0q-7 -7 -4 -17
q5 -9 15 -10h192v0q10 0 15 10q3 10 -4 17l-96 96v0zM313 256h-114h114h-114l57 57v0l57 -57v0z" />
    <glyph glyph-name="circle-sort-up" unicode="&#xe032;" 
d="M464 192q0 57 -28 104v0v0q-27 47 -76 76q-49 28 -104 28t-104 -28q-49 -29 -76 -76q-28 -47 -28 -104t28 -104q27 -47 76 -76q49 -28 104 -28t104 28q49 29 76 76q28 47 28 104v0zM0 192q1 70 34 128v0v0q34 58 94 94q61 34 128 34t128 -34q60 -36 94 -94
q33 -58 34 -128q-1 -70 -34 -128q-34 -58 -94 -94q-61 -34 -128 -34t-128 34q-60 36 -94 94q-33 58 -34 128v0zM267 347l96 -96l-96 96l96 -96q7 -7 4 -17q-5 -9 -15 -10h-192v0q-10 0 -15 10q-3 10 4 17l96 96v0q11 10 22 0v0zM267 37q-11 -10 -22 0l-96 96v0q-7 7 -4 17
q5 9 15 10h192v0q10 0 15 -10q3 -10 -4 -17l-96 -96v0zM313 128h-114h114h-114l57 -57v0l57 57v0z" />
    <glyph glyph-name="space-station-moon" unicode="&#xe033;" 
d="M256 400q-25 0 -48 -6q29 -10 46 -34q18 -24 18 -56q-1 -41 -28 -68t-68 -28q-41 1 -68 28t-28 67q-31 -49 -32 -111q0 -19 3 -37l1 -1h1q25 -10 74 -22q48 -11 129 -12q81 1 129 12q49 12 74 22v0v0h1q0 1 1 1q3 18 3 37q-2 88 -61 147t-147 61v0zM441 97
q-29 -9 -74 -17v0v0q-46 -8 -111 -8t-111 8q-45 8 -74 17q26 -51 75 -82q49 -30 110 -31q61 1 110 31q49 31 75 82v0zM512 192q-1 -70 -34 -128v0v0q-34 -58 -94 -94q-61 -34 -128 -34t-128 34q-60 36 -94 94q-33 58 -34 128q1 70 34 128q34 58 94 94q61 34 128 34t128 -34
q60 -36 94 -94q33 -58 34 -128v0zM176 256q27 1 42 24q12 24 0 48q-15 23 -42 24q-27 -1 -42 -24q-12 -24 0 -48q15 -23 42 -24v0z" />
    <glyph glyph-name="space-station-moon-construction" unicode="&#xe034;" 
d="M208 394q23 6 48 6q84 -2 142 -56h-30v0q-22 -2 -24 -24q2 -22 24 -24h82v0q14 1 21 13q6 12 -1 24q-36 53 -91 84q-55 30 -123 31q-72 -1 -129 -35q-58 -34 -92 -92q-34 -57 -35 -129q1 -72 35 -129q34 -58 92 -92q57 -34 129 -35q62 1 113 26q52 26 88 71q12 19 -4 34
q-19 12 -34 -4q-29 -37 -71 -58t-92 -21q-61 1 -110 31q-49 31 -75 82q29 -9 74 -17q46 -8 111 -8q87 1 140 14q53 12 79 23v0v0q3 1 5 2l8 2q11 5 15 16l1 3v0q8 29 8 59v1v0q-2 22 -24 24q-22 -2 -24 -24v-1v0q0 -19 -4 -37h-1v0q-25 -10 -74 -22q-48 -11 -129 -12
q-81 1 -129 12q-49 12 -74 22l-2 1v0q-3 18 -3 37q1 62 32 111q1 -40 28 -67t68 -28q41 1 68 28t28 68q-1 32 -18 56t-46 34v0zM128 304q1 27 24 42q24 12 48 0q23 -15 24 -42q-1 -27 -24 -42q-24 -12 -48 0q-23 15 -24 42v0zM376 264q-22 -2 -24 -24q2 -22 24 -24h48v0
q22 2 24 24q-2 22 -24 24h-48v0z" />
    <glyph glyph-name="sprinkler" unicode="&#xe035;" 
d="M0 424q2 22 24 24q22 -2 24 -24q-2 -22 -24 -24q-22 2 -24 24v0zM24 344q22 -2 24 -24q-2 -22 -24 -24q-22 2 -24 24q2 22 24 24v0zM24 240q22 -2 24 -24q-2 -22 -24 -24q-22 2 -24 24q2 22 24 24v0zM88 400q22 -2 24 -24q-2 -22 -24 -24q-22 2 -24 24q2 22 24 24v0z
M64 264q2 22 24 24q22 -2 24 -24q-2 -22 -24 -24q-22 2 -24 24v0zM152 344q22 -2 24 -24q-2 -22 -24 -24q-22 2 -24 24q2 22 24 24v0zM512 216q-2 -22 -24 -24q-22 2 -24 24q2 22 24 24q22 -2 24 -24v0zM488 344q22 -2 24 -24q-2 -22 -24 -24q-22 2 -24 24q2 22 24 24v0z
M512 424q-2 -22 -24 -24q-22 2 -24 24q2 22 24 24q22 -2 24 -24v0zM424 400q22 -2 24 -24q-2 -22 -24 -24q-22 2 -24 24q2 22 24 24v0zM448 264q-2 -22 -24 -24q-22 2 -24 24q2 22 24 24q22 -2 24 -24v0zM360 344q22 -2 24 -24q-2 -22 -24 -24q-22 2 -24 24q2 22 24 24v0z
M98 177q6 14 22 15h112v0v168v0q2 22 24 24q22 -2 24 -24v-168v0h112v0q16 -1 22 -15t-5 -26l-89 -89v0v-86v0q0 -17 -12 -28q-11 -12 -28 -12h-48v0q-17 0 -28 12q-12 11 -12 28v86v0l-89 89v0q-11 12 -5 26v0zM256 144h-78h78h-78l55 -55v0q7 -7 7 -17v-88v0h32v0v88v0
q0 10 7 17l55 55v0h-78v0z" />
    <glyph glyph-name="star-shooting" unicode="&#xe036;" 
d="M313 407l-48 -48l48 48l-48 -48q-17 -14 -34 0q-14 17 0 34l48 48v0q17 14 34 0q14 -17 0 -34v0zM130 59l-10 -55l10 55l-10 -55l50 26v0q22 11 44 0l50 -26v0l-10 55v0q-3 25 14 43l40 39v0l-55 8v0q-25 4 -36 26l-25 51v0l-25 -51v0q-12 -22 -36 -26l-55 -8v0l40 -39v0
q17 -18 14 -43v0zM124 197l46 94l-46 -94l46 94q8 13 22 13t22 -13l46 -94v0l103 -16v0q15 -3 20 -16q4 -13 -6 -24l-75 -74v0l17 -103v0q2 -15 -9 -23q-11 -9 -25 -2l-93 49v0l-93 -49v0q-14 -7 -25 2q-11 8 -9 23l17 103v0l-75 74v0q-10 11 -6 24t20 16l103 16v0zM505 249
q14 -17 0 -34l-48 -48v0q-17 -14 -34 0q-14 17 0 34l48 48v0q17 14 34 0v0zM505 407l-144 -144l144 144l-144 -144q-17 -14 -34 0q-14 17 0 34l144 144v0q17 14 34 0q14 -17 0 -34v0z" />
    <glyph glyph-name="star-shooting" unicode="&#x1f320;" 
d="M313 407l-48 -48l48 48l-48 -48q-17 -14 -34 0q-14 17 0 34l48 48v0q17 14 34 0q14 -17 0 -34v0zM130 59l-10 -55l10 55l-10 -55l50 26v0q22 11 44 0l50 -26v0l-10 55v0q-3 25 14 43l40 39v0l-55 8v0q-25 4 -36 26l-25 51v0l-25 -51v0q-12 -22 -36 -26l-55 -8v0l40 -39v0
q17 -18 14 -43v0zM124 197l46 94l-46 -94l46 94q8 13 22 13t22 -13l46 -94v0l103 -16v0q15 -3 20 -16q4 -13 -6 -24l-75 -74v0l17 -103v0q2 -15 -9 -23q-11 -9 -25 -2l-93 49v0l-93 -49v0q-14 -7 -25 2q-11 8 -9 23l17 103v0l-75 74v0q-10 11 -6 24t20 16l103 16v0zM505 249
q14 -17 0 -34l-48 -48v0q-17 -14 -34 0q-14 17 0 34l48 48v0q17 14 34 0v0zM505 407l-144 -144l144 144l-144 -144q-17 -14 -34 0q-14 17 0 34l144 144v0q17 14 34 0q14 -17 0 -34v0z" />
    <glyph glyph-name="star-shooting" unicode="&#x1f320;" 
d="M313 407l-48 -48l48 48l-48 -48q-17 -14 -34 0q-14 17 0 34l48 48v0q17 14 34 0q14 -17 0 -34v0zM130 59l-10 -55l10 55l-10 -55l50 26v0q22 11 44 0l50 -26v0l-10 55v0q-3 25 14 43l40 39v0l-55 8v0q-25 4 -36 26l-25 51v0l-25 -51v0q-12 -22 -36 -26l-55 -8v0l40 -39v0
q17 -18 14 -43v0zM124 197l46 94l-46 -94l46 94q8 13 22 13t22 -13l46 -94v0l103 -16v0q15 -3 20 -16q4 -13 -6 -24l-75 -74v0l17 -103v0q2 -15 -9 -23q-11 -9 -25 -2l-93 49v0l-93 -49v0q-14 -7 -25 2q-11 8 -9 23l17 103v0l-75 74v0q-10 11 -6 24t20 16l103 16v0zM505 249
q14 -17 0 -34l-48 -48v0q-17 -14 -34 0q-14 17 0 34l48 48v0q17 14 34 0v0zM505 407l-144 -144l144 144l-144 -144q-17 -14 -34 0q-14 17 0 34l144 144v0q17 14 34 0q14 -17 0 -34v0z" />
    <glyph glyph-name="starfighter" unicode="&#xe037;" horiz-adv-x="640" 
d="M254 413q3 15 14 25v0v0q11 10 26 10h52v0q15 0 26 -10t14 -25l25 -206v0q7 1 13 1h32v0q24 -1 40 -16q15 -16 16 -40v-56v0h56v0v184v0q-22 2 -24 24q2 22 24 24v24v0q2 22 24 24q22 -2 24 -24v-24v0q22 -2 24 -24q-2 -22 -24 -24v-280v0q-2 -22 -24 -24q-22 2 -24 24v3
v0l-88 -30v0v-5v0q0 -14 -9 -23t-23 -9t-23 9t-9 23v1v0q-13 2 -24 9q-14 -10 -32 -10h-80v0q-18 0 -32 10q-11 -7 -24 -9v-1v0q0 -14 -9 -23t-23 -9t-23 9t-9 23v5v0l-88 30v0v-3v0q-2 -22 -24 -24q-22 2 -24 24v280v0q-22 2 -24 24q2 22 24 24v24v0q2 22 24 24
q22 -2 24 -24v-24v0q22 -2 24 -24q-2 -22 -24 -24v-184v0h56v0v56v0q1 24 16 40q16 15 40 16h32v0q7 0 13 -1l25 206v0zM368 24v128v-128v128v14v0l-29 234v0h-38v0l-29 -234v0v-14v0v-128v0q1 -7 8 -8h80v0q7 1 8 8v0zM416 152v-128v128v-128q1 -7 8 -8h32v0q7 1 8 8v128v0
q-1 7 -8 8h-32v0q-7 -1 -8 -8v0zM216 160h-32h32h-32q-7 -1 -8 -8v-128v0q1 -7 8 -8h32v0q7 1 8 8v128v0q-1 7 -8 8v0zM320 224q14 0 23 -9v0v0q9 -9 9 -23v-48v0q-1 -15 -16 -16h-32v0q-15 1 -16 16v48v0q0 14 9 23t23 9v0z" />
    <glyph glyph-name="starfighter-twin-ion-engine" unicode="&#xe038;" horiz-adv-x="576" 
d="M24 416q22 -2 24 -24v-138v0l106 25v0q22 33 57 53q34 20 77 20t77 -20q35 -20 57 -53l106 -25v0v138v0q2 22 24 24q22 -2 24 -24v-149v0v-19v0v-64v0v-19v0v-149v0q-2 -22 -24 -24q-22 2 -24 24v138v0l-106 -25v0q-22 -33 -57 -53q-34 -20 -77 -20t-77 20q-35 20 -57 53
l-106 25v0v-138v0q-2 -22 -24 -24q-22 2 -24 24v149v0v19v0v64v0v19v0v149v0q2 22 24 24v0zM445 159l83 20l-83 -20l83 20v26v0l-83 20v0q3 -16 3 -33t-3 -33v0zM48 179l83 -20l-83 20l83 -20q-3 16 -3 33t3 33l-83 -20v0v-26v0zM272 81v33v-33v33q-15 3 -28 11l-23 -23v0
q22 -16 51 -21v0zM198 125l23 23l-23 -23l23 23q-8 13 -11 28h-33v0q4 -29 21 -51v0zM177 208h33h-33h33q3 15 11 28l-23 23v0q-17 -22 -21 -51v0zM221 282l23 -23l-23 23l23 -23q13 8 28 11v33v0q-29 -4 -51 -21v0zM355 102l-23 23l23 -23l-23 23q-13 -8 -28 -11v-33v0
q29 4 51 21v0zM378 125q16 22 21 51h-33v0q-3 -15 -11 -28l23 -23v0zM355 236q8 -13 11 -28h33v0q-4 29 -21 51l-23 -23v0zM355 282q-22 16 -51 21v-33v0q15 -3 28 -11l23 23v0zM311 169q9 9 9 23q0 13 -9 22v1v0q-9 9 -23 9v0v0q-14 0 -23 -9v-1v0q-9 -9 -9 -22
q0 -14 9 -23t23 -9q13 0 23 9v0z" />
    <glyph glyph-name="starship" unicode="&#xe039;" horiz-adv-x="640" 
d="M0 352q1 27 19 45v0v0q18 18 45 19h128v0q27 -1 45 -19t19 -45q-1 -27 -19 -45t-45 -19h-27v0l38 -26v0l70 8v0q23 51 69 82q47 31 106 32q82 -2 136 -56t56 -136q-2 -82 -56 -136t-136 -56q-59 1 -106 32q-46 31 -69 82l-70 8v0l-38 -26v0h27v0q27 -1 45 -19t19 -45
q-1 -27 -19 -45t-45 -19h-128v0q-27 1 -45 19t-19 45q1 27 19 45t45 19h17v0l50 35v0l-14 1v0q-23 4 -38 20q-15 17 -15 40t15 40q15 16 38 20l14 1v0l-50 35v0h-17v0q-27 1 -45 19t-19 45v0zM64 368q-15 -1 -16 -16q1 -15 16 -16h128v0q15 1 16 16q-1 15 -16 16h-128v0z
M123 204q-10 -2 -11 -12q1 -10 11 -12l135 -16v0q-2 14 -2 28t2 28l-135 -16v0zM48 32q1 -15 16 -16h128v0q15 1 16 16q-1 15 -16 16h-128v0q-15 -1 -16 -16v0zM448 48q39 0 72 19v0v0q33 19 53 53q19 34 19 72t-19 72q-20 34 -53 53t-72 19t-72 -19t-53 -53
q-19 -34 -19 -72t19 -72q20 -34 53 -53t72 -19v0zM480 192q0 14 -9 23v0v0q-9 9 -23 9t-23 -9t-9 -23t9 -23t23 -9t23 9t9 23v0zM368 192q1 45 40 69q40 22 80 0q39 -24 40 -69q-1 -45 -40 -69q-40 -22 -80 0q-39 24 -40 69v0z" />
    <glyph glyph-name="starship-freighter" unicode="&#xe03a;" horiz-adv-x="576" 
d="M400 192q-2 75 -52 124v0v0q-49 50 -124 52q-75 -2 -124 -52q-50 -49 -52 -124q2 -75 52 -124q49 -50 124 -52q22 0 43 5l-59 76v0q-35 7 -57 33t-23 62q1 41 28 68t68 28q41 -1 68 -28t28 -68v-4l60 -78v0q20 37 20 82v0zM440 80h3l85 33v0v55v0h-81v0q-6 -48 -29 -88
h22v0zM447 216h81h-81h81v55v0l-118 46v0q30 -45 37 -101v0zM556 72l-57 -22l57 22l-57 -22q13 -18 13 -42q-1 -31 -21 -51t-51 -21h-72v0q-35 1 -57 28l-10 13v0q-38 -9 -77 -9q-63 1 -113 31q-51 29 -80 80q-30 50 -31 113q1 63 31 113q29 51 80 80q50 30 113 31
q64 0 124 -23l208 -81v0q19 -9 20 -30v-90v0v-90v0q-1 -21 -20 -30v0zM88 208q15 -1 16 -16q-1 -15 -16 -16q-15 1 -16 16q1 15 16 16v0zM104 288q1 15 16 16q15 -1 16 -16q-1 -15 -16 -16q-15 1 -16 16v0zM120 112q15 -1 16 -16q-1 -15 -16 -16q-15 1 -16 16q1 15 16 16v0z
M272 192q-1 27 -24 42q-24 12 -48 0q-23 -15 -24 -42q1 -27 24 -42q24 -12 48 0q23 15 24 42v0zM349 -7q7 -9 19 -9h72v0q22 2 24 24q-2 22 -24 24h-60v0l-79 102v0q-15 -19 -38 -30l86 -111v0z" />
    <glyph glyph-name="sword-laser" unicode="&#xe03b;" 
d="M506 408q13 17 -1 33q-16 14 -33 1l-241 -221v0l54 -54v0l221 241v0zM185 217q-17 14 -34 0q-14 -17 0 -34l1 -1v0l-59 -59v0v0v0v0v0l-83 -82v0q-10 -10 -10 -25t10 -25l45 -45v0q10 -10 25 -10t25 10l82 83v0l59 59v0l1 -1v0q17 -14 34 0q14 17 0 34l-96 96v0zM165 74
l-27 27l27 -27l-27 27l12 12v0l27 -27v0l-12 -12v0zM115 78l27 -27l-27 27l27 -27l-62 -62v0l-27 27v0l62 62v0zM173 136l13 12l-13 -12l13 12l26 -26v0l-12 -13v0l-27 27v0z" />
    <glyph glyph-name="sword-laser-alt" unicode="&#xe03c;" 
d="M506 408q13 17 -1 33q-16 14 -33 1l-247 -226v0h105v0l176 192v0zM13 -12l39 -39l-39 39l39 -39q13 -13 32 -13t32 13l195 195v0l1 1v0l8 8v0l11 12v0q7 7 4 17q-5 9 -15 10h-16h-131q-19 0 -34 -14l-126 -126v0q-13 -13 -13 -32t13 -32v0zM243 144l-70 -70l70 70
l-70 -70l-35 35v0l35 35v0h70v0zM150 51l-66 -66l66 66l-66 -66l-35 35v0l66 66v0l35 -35v0z" />
    <glyph glyph-name="swords-laser" unicode="&#xe03d;" horiz-adv-x="640" 
d="M205 197l43 40l-43 -40l43 40l50 -56v0l-37 -40v0l20 -20v0q14 -17 0 -34q-17 -14 -34 0l-1 1v0l-59 -59v0l-82 -83v0q-10 -10 -25 -10t-25 10l-45 45v0q-10 10 -10 25t10 25l83 82v0v0v0v0v0l59 59v0l-1 1v0q-14 17 0 34q17 14 34 0l20 -20v0zM506 408l-116 -126
l116 126l-116 -126l-46 42v0l128 118v0q17 13 33 -1q14 -16 1 -33v0zM177 86l-27 27l27 -27l-27 27l-12 -12v0l27 -27v0l12 12v0zM115 78l-62 -62l62 62l-62 -62l27 -27v0l62 62v0l-27 27v0zM173 136l27 -27l-27 27l27 -27l12 13v0l-26 26v0l-13 -12v0zM135 441q16 14 33 1
l192 -176v0v-105v0l-226 247v0q-13 17 1 33v0zM627 -12l-39 -39l39 39l-39 -39q-13 -13 -32 -13t-32 13l-126 126v0q-14 14 -14 34v128v0q1 16 15 22q14 5 26 -5l202 -202v0q13 -13 13 -32t-13 -32v0zM591 20l-66 66l66 -66l-66 66l-35 -35v0l66 -66v0l35 35v0zM502 109
l-70 70l70 -70l-70 70v-70v0l35 -35v0l35 35v0z" />
    <glyph glyph-name="telescope" unicode="&#xe03e;" horiz-adv-x="576" 
d="M460 216l61 36l-61 -36l61 36l-80 138v0l-61 -35v0l80 -139v0zM328 348q-8 25 14 40l89 52v0q12 6 24 3q13 -3 20 -15l96 -166v0q6 -12 3 -24q-3 -13 -15 -20l-89 -51v0q-12 -7 -24 -3q-13 3 -20 14v1v0l-43 -23v0q1 -6 1 -12q-1 -31 -20 -53l50 -122v0q7 -21 -13 -31
q-21 -7 -31 13l-47 115v0q-9 -2 -19 -2t-19 2l-47 -115v0q-10 -20 -31 -13q-20 10 -13 31l44 109v0l-88 -48v0q-12 -6 -24 -3q-13 4 -19 15l-1 1v0l-44 -25v0q-20 -9 -33 9l-26 45v0q-9 20 9 32l44 26v0l-4 7v0q-6 11 -3 23t14 20l265 168v0zM402 221l-50 86l50 -86l-50 86
l-251 -160v0l39 -67v0l86 46v0q-2 9 -2 18q1 34 23 57q23 22 57 23q35 -1 58 -25l40 22v0zM304 112q14 0 23 9v0v0q9 9 9 23t-9 23t-23 9t-23 -9t-9 -23t9 -23t23 -9v0z" />
    <glyph glyph-name="telescope" unicode="&#x1f52d;" horiz-adv-x="576" 
d="M460 216l61 36l-61 -36l61 36l-80 138v0l-61 -35v0l80 -139v0zM328 348q-8 25 14 40l89 52v0q12 6 24 3q13 -3 20 -15l96 -166v0q6 -12 3 -24q-3 -13 -15 -20l-89 -51v0q-12 -7 -24 -3q-13 3 -20 14v1v0l-43 -23v0q1 -6 1 -12q-1 -31 -20 -53l50 -122v0q7 -21 -13 -31
q-21 -7 -31 13l-47 115v0q-9 -2 -19 -2t-19 2l-47 -115v0q-10 -20 -31 -13q-20 10 -13 31l44 109v0l-88 -48v0q-12 -6 -24 -3q-13 4 -19 15l-1 1v0l-44 -25v0q-20 -9 -33 9l-26 45v0q-9 20 9 32l44 26v0l-4 7v0q-6 11 -3 23t14 20l265 168v0zM402 221l-50 86l50 -86l-50 86
l-251 -160v0l39 -67v0l86 46v0q-2 9 -2 18q1 34 23 57q23 22 57 23q35 -1 58 -25l40 22v0zM304 112q14 0 23 9v0v0q9 9 9 23t-9 23t-23 9t-23 -9t-9 -23t9 -23t23 -9v0z" />
    <glyph glyph-name="telescope" unicode="&#x1f52d;" horiz-adv-x="576" 
d="M460 216l61 36l-61 -36l61 36l-80 138v0l-61 -35v0l80 -139v0zM328 348q-8 25 14 40l89 52v0q12 6 24 3q13 -3 20 -15l96 -166v0q6 -12 3 -24q-3 -13 -15 -20l-89 -51v0q-12 -7 -24 -3q-13 3 -20 14v1v0l-43 -23v0q1 -6 1 -12q-1 -31 -20 -53l50 -122v0q7 -21 -13 -31
q-21 -7 -31 13l-47 115v0q-9 -2 -19 -2t-19 2l-47 -115v0q-10 -20 -31 -13q-20 10 -13 31l44 109v0l-88 -48v0q-12 -6 -24 -3q-13 4 -19 15l-1 1v0l-44 -25v0q-20 -9 -33 9l-26 45v0q-9 20 9 32l44 26v0l-4 7v0q-6 11 -3 23t14 20l265 168v0zM402 221l-50 86l50 -86l-50 86
l-251 -160v0l39 -67v0l86 46v0q-2 9 -2 18q1 34 23 57q23 22 57 23q35 -1 58 -25l40 22v0zM304 112q14 0 23 9v0v0q9 9 9 23t-9 23t-23 9t-23 -9t-9 -23t9 -23t23 -9v0z" />
    <glyph glyph-name="temperature-arrow-down" unicode="&#xe03f;" horiz-adv-x="576" 
d="M176 400q-27 -1 -45 -19v0v0q-18 -18 -19 -45v-162v0q-1 -22 -13 -37q-18 -24 -19 -57q1 -41 28 -68t68 -28q41 1 68 28t28 68q-1 33 -19 57q-12 15 -13 37v162v0q-1 27 -19 45t-45 19v0zM64 336q1 48 33 79v0v0q31 32 79 33q48 -1 79 -33q32 -31 33 -79v-162v0
q0 -3 3 -8q28 -37 29 -86q-2 -61 -42 -102q-41 -41 -102 -42q-61 1 -102 42q-40 41 -42 102q1 49 29 86q3 6 3 8v162v0zM224 80q-1 -20 -14 -34v0v0q-14 -13 -34 -14q-20 1 -34 14q-13 14 -14 34q2 33 32 45v51v0q1 15 16 16q15 -1 16 -16v-51v0q30 -12 32 -45v0zM448 -32
q-11 0 -18 8l-72 80v0q-13 18 2 34q18 13 34 -2l30 -34v0v338v0q2 22 24 24q22 -2 24 -24v-338v0l30 34v0q16 15 34 2q15 -16 2 -34l-72 -80v0q-7 -8 -18 -8v0z" />
    <glyph glyph-name="temperature-arrow-up" unicode="&#xe040;" horiz-adv-x="576" 
d="M176 400q-27 -1 -45 -19v0v0q-18 -18 -19 -45v-162v0q-1 -22 -13 -37q-18 -24 -19 -57q1 -41 28 -68t68 -28q41 1 68 28t28 68q-1 33 -19 57q-12 15 -13 37v162v0q-1 27 -19 45t-45 19v0zM64 336q1 48 33 79v0v0q31 32 79 33q48 -1 79 -33q32 -31 33 -79v-162v0
q0 -3 3 -8q28 -37 29 -86q-2 -61 -42 -102q-41 -41 -102 -42q-61 1 -102 42q-40 41 -42 102q1 49 29 86q3 6 3 8v162v0zM224 80q-1 -20 -14 -34v0v0q-14 -13 -34 -14q-20 1 -34 14q-13 14 -14 34q2 33 32 45v211v0q1 15 16 16q15 -1 16 -16v-211v0q30 -12 32 -45v0zM448 416
q11 0 18 -8l72 -80v0q13 -18 -2 -34q-18 -13 -34 2l-30 33v0v-337v0q-2 -22 -24 -24q-22 2 -24 24v337v0l-30 -33v0q-16 -15 -34 -2q-15 16 -2 34l72 80v0q7 8 18 8v0z" />
    <glyph glyph-name="trailer" unicode="&#xe041;" horiz-adv-x="640" 
d="M64 368h432h-432h432q15 -1 16 -16v-240v0h-237v0q-13 22 -34 35q-22 13 -49 13t-49 -13q-21 -13 -34 -35h-45v0q-15 1 -16 16v224v0q1 15 16 16v0zM288 64h328h-328h328q22 2 24 24q-2 22 -24 24h-56v0v240v0q-1 27 -19 45t-45 19h-432v0q-27 -1 -45 -19t-19 -45v-224v0
q1 -27 19 -45t45 -19h32v0q1 -41 28 -68t68 -28q41 1 68 28t28 68v0zM136 336q-22 -2 -24 -24v-96v0q2 -22 24 -24q22 2 24 24v96v0q-2 22 -24 24v0zM232 336q-22 -2 -24 -24v-96v0q2 -22 24 -24q22 2 24 24v96v0q-2 22 -24 24v0zM328 336q-22 -2 -24 -24v-144v0
q2 -22 24 -24q22 2 24 24v144v0q-2 22 -24 24v0zM424 336q-22 -2 -24 -24v-144v0q2 -22 24 -24q22 2 24 24v144v0q-2 22 -24 24v0zM144 64q1 27 24 42q24 12 48 0q23 -15 24 -42q-1 -27 -24 -42q-24 -12 -48 0q-23 15 -24 42v0z" />
    <glyph glyph-name="transporter" unicode="&#xe042;" 
d="M473 441l7 -25l-7 25l7 -25l25 -7v0q7 -2 7 -9t-7 -9l-25 -7v0l-7 -25v0q-2 -7 -9 -7t-9 7l-7 25v0l-25 7v0q-7 2 -7 9t7 9l25 7v0l7 25v0q2 7 9 7t9 -7v0zM57 377l7 -25l-7 25l7 -25l25 -7v0q7 -2 7 -9t-7 -9l-25 -7v0l-7 -25v0q-2 -7 -9 -7t-9 7l-7 25v0l-25 7v0
q-7 2 -7 9t7 9l25 7v0l7 25v0q2 7 9 7t9 -7v0zM96 -40q2 22 24 24h272v0q22 -2 24 -24q-2 -22 -24 -24h-272v0q-22 2 -24 24v0zM208 400q1 27 24 42q24 12 48 0q23 -15 24 -42q-1 -27 -24 -42q-24 -12 -48 0q-23 15 -24 42v0zM240 128v-112v112v-112h-48v0v223v0l-53 -70v0
q-15 -16 -33 -4q-17 15 -5 33l66 87v0q26 34 70 35h38v0q44 -1 70 -35l66 -87v0q12 -18 -4 -33q-19 -12 -34 4l-53 70v0v-223v0h-48v0v112v0h-32v0zM240 176h32h-32h32v96v0h-32v0v-96v0z" />
    <glyph glyph-name="transporter-1" unicode="&#xe043;" 
d="M256 352q27 1 42 24q12 24 0 48q-15 23 -42 24q-27 -1 -42 -24q-12 -24 0 -48q15 -23 42 -24v0zM192 160h48h-48h48v112v0h32v0v-112v0h48v0v79v0l53 -70v0q15 -16 34 -4q16 15 4 33l-66 87v0q-26 34 -70 35h-38v0q-44 -1 -70 -35l-66 -87v0q-12 -18 5 -33q18 -12 33 4
l53 70v0v-79v0zM480 288l-7 25l7 -25l-7 25q-2 7 -9 7t-9 -7l-7 -25v0l-25 -7v0q-7 -2 -7 -9t7 -9l25 -7v0l7 -25v0q2 -7 9 -7t9 7l7 25v0l25 7v0q7 2 7 9t-7 9l-25 7v0zM64 96l-7 25l7 -25l-7 25q-2 7 -9 7t-9 -7l-7 -25v0l-25 -7v0q-7 -2 -7 -9t7 -9l25 -7v0l7 -25v0
q2 -7 9 -7t9 7l7 25v0l25 7v0q7 2 7 9t-7 9l-25 7v0zM120 -16q-22 -2 -24 -24q2 -22 24 -24h272v0q22 2 24 24q-2 22 -24 24h-272v0zM176 128q-15 -1 -16 -16q1 -15 16 -16h160v0q15 1 16 16q-1 15 -16 16h-160v0zM176 64q-15 -1 -16 -16q1 -15 16 -16h160v0q15 1 16 16
q-1 15 -16 16h-160v0z" />
    <glyph glyph-name="transporter-2" unicode="&#xe044;" 
d="M64 416l25 -7l-25 7l25 -7q7 -2 7 -9t-7 -9l-25 -7v0l-7 -25v0q-2 -7 -9 -7t-9 7l-7 25v0l-25 7v0q-7 2 -7 9t7 9l25 7v0l7 25v0q2 7 9 7t9 -7l7 -25v0zM480 96l25 -7l-25 7l25 -7q7 -2 7 -9t-7 -9l-25 -7v0l-7 -25v0q-2 -7 -9 -7t-9 7l-7 25v0l-25 7v0q-7 2 -7 9t7 9
l25 7v0l7 25v0q2 7 9 7t9 -7l7 -25v0zM120 -16h272h-272h272q22 -2 24 -24q-2 -22 -24 -24h-272v0q-22 2 -24 24q2 22 24 24v0zM256 448q27 -1 42 -24q12 -24 0 -48q-15 -23 -42 -24q-27 1 -42 24q-12 24 0 48q15 23 42 24v0zM180 224h-60h60h-60l47 61v0q26 34 70 35h38v0
q44 -1 70 -35l47 -61v0h-60h-60v48v0h-32v0v-48v0h-48h-12zM112 192h288h-288h288q15 -1 16 -16q-1 -15 -16 -16h-288v0q-15 1 -16 16q1 15 16 16v0zM176 128h160h-160h160q15 -1 16 -16q-1 -15 -16 -16h-160v0q-15 1 -16 16q1 15 16 16v0zM176 64h160h-160h160
q15 -1 16 -16q-1 -15 -16 -16h-160v0q-15 1 -16 16q1 15 16 16v0z" />
    <glyph glyph-name="transporter-3" unicode="&#xe045;" 
d="M480 416l-7 25l7 -25l-7 25q-2 7 -9 7t-9 -7l-7 -25v0l-25 -7v0q-7 -2 -7 -9t7 -9l25 -7v0l7 -25v0q2 -7 9 -7t9 7l7 25v0l25 7v0q7 2 7 9t-7 9l-25 7v0zM64 320l-7 25l7 -25l-7 25q-2 7 -9 7t-9 -7l-7 -25v0l-25 -7v0q-7 -2 -7 -9t7 -9l25 -7v0l7 -25v0q2 -7 9 -7t9 7
l7 25v0l25 7v0q7 2 7 9t-7 9l-25 7v0zM120 -16q-22 -2 -24 -24q2 -22 24 -24h272v0q22 2 24 24q-2 22 -24 24h-272v0zM304 400q-1 27 -24 42q-24 12 -48 0q-23 -15 -24 -42q1 -27 24 -42q24 -12 48 0q23 15 24 42v0zM176 320q-15 -1 -16 -16q1 -15 16 -16h160v0q15 1 16 16
q-1 15 -16 16h-160v0zM144 256q-15 -1 -16 -16q1 -15 16 -16h224v0q15 1 16 16q-1 15 -16 16h-224v0zM112 192q-15 -1 -16 -16q1 -15 16 -16h288v0q15 1 16 16q-1 15 -16 16h-288v0zM176 128q-15 -1 -16 -16q1 -15 16 -16h160v0q15 1 16 16q-1 15 -16 16h-160v0zM176 64
q-15 -1 -16 -16q1 -15 16 -16h160v0q15 1 16 16q-1 15 -16 16h-160v0z" />
    <glyph glyph-name="transporter-empty" unicode="&#xe046;" 
d="M96 -40q2 22 24 24h272v0q22 -2 24 -24q-2 -22 -24 -24h-272v0q-22 2 -24 24v0z" />
    <glyph glyph-name="ufo" unicode="&#xe047;" horiz-adv-x="640" 
d="M177 202q-13 -12 -16 -15v0v0l-2 -2v0v0v0v0v0v0h1v0v-1l2 -2v0q3 -3 8 -6q10 -8 29 -17q38 -21 121 -23q82 2 121 23q19 9 29 17q5 3 7 6q2 1 3 2v1v0h1v0v0v0v0v0v0l-18 17v0l18 -17v0q5 6 6 15q1 8 1 17q45 -14 72 -32q34 -25 32 -42q1 -11 -16 -29q-18 -17 -56 -33
q-38 -15 -89 -24t-111 -9t-111 9t-89 24q-38 16 -56 33q-17 18 -16 29q-2 17 32 42q27 18 72 32q0 -9 1 -17q0 -9 6 -15l18 17v0zM479 269q-18 52 -61 83v0v0q-43 31 -98 32q-55 -1 -98 -32t-61 -83q-65 -16 -108 -44q-23 -15 -38 -35q-14 -21 -15 -47q2 -37 31 -63
q27 -26 71 -43q43 -18 99 -27q56 -10 119 -10t119 10q56 9 99 27q44 17 71 43q29 25 31 63q-1 26 -15 47q-15 20 -38 35q-43 28 -108 44v0zM440 213q-6 -4 -19 -10q-29 -16 -101 -19q-72 2 -101 19q-13 6 -19 10q1 54 35 88q35 34 85 35q50 -1 85 -35q34 -34 35 -88v0z
M152 136q-2 22 -24 24q-22 -2 -24 -24q2 -22 24 -24q22 2 24 24v0zM344 96q-2 22 -24 24q-22 -2 -24 -24q2 -22 24 -24q22 2 24 24v0zM512 112q22 2 24 24q-2 22 -24 24q-22 -2 -24 -24q2 -22 24 -24v0z" />
    <glyph glyph-name="ufo" unicode="&#x1f6f8;" horiz-adv-x="640" 
d="M177 202q-13 -12 -16 -15v0v0l-2 -2v0v0v0v0v0v0h1v0v-1l2 -2v0q3 -3 8 -6q10 -8 29 -17q38 -21 121 -23q82 2 121 23q19 9 29 17q5 3 7 6q2 1 3 2v1v0h1v0v0v0v0v0v0l-18 17v0l18 -17v0q5 6 6 15q1 8 1 17q45 -14 72 -32q34 -25 32 -42q1 -11 -16 -29q-18 -17 -56 -33
q-38 -15 -89 -24t-111 -9t-111 9t-89 24q-38 16 -56 33q-17 18 -16 29q-2 17 32 42q27 18 72 32q0 -9 1 -17q0 -9 6 -15l18 17v0zM479 269q-18 52 -61 83v0v0q-43 31 -98 32q-55 -1 -98 -32t-61 -83q-65 -16 -108 -44q-23 -15 -38 -35q-14 -21 -15 -47q2 -37 31 -63
q27 -26 71 -43q43 -18 99 -27q56 -10 119 -10t119 10q56 9 99 27q44 17 71 43q29 25 31 63q-1 26 -15 47q-15 20 -38 35q-43 28 -108 44v0zM440 213q-6 -4 -19 -10q-29 -16 -101 -19q-72 2 -101 19q-13 6 -19 10q1 54 35 88q35 34 85 35q50 -1 85 -35q34 -34 35 -88v0z
M152 136q-2 22 -24 24q-22 -2 -24 -24q2 -22 24 -24q22 2 24 24v0zM344 96q-2 22 -24 24q-22 -2 -24 -24q2 -22 24 -24q22 2 24 24v0zM512 112q22 2 24 24q-2 22 -24 24q-22 -2 -24 -24q2 -22 24 -24v0z" />
    <glyph glyph-name="ufo" unicode="&#x1f6f8;" horiz-adv-x="640" 
d="M177 202q-13 -12 -16 -15v0v0l-2 -2v0v0v0v0v0v0h1v0v-1l2 -2v0q3 -3 8 -6q10 -8 29 -17q38 -21 121 -23q82 2 121 23q19 9 29 17q5 3 7 6q2 1 3 2v1v0h1v0v0v0v0v0v0l-18 17v0l18 -17v0q5 6 6 15q1 8 1 17q45 -14 72 -32q34 -25 32 -42q1 -11 -16 -29q-18 -17 -56 -33
q-38 -15 -89 -24t-111 -9t-111 9t-89 24q-38 16 -56 33q-17 18 -16 29q-2 17 32 42q27 18 72 32q0 -9 1 -17q0 -9 6 -15l18 17v0zM479 269q-18 52 -61 83v0v0q-43 31 -98 32q-55 -1 -98 -32t-61 -83q-65 -16 -108 -44q-23 -15 -38 -35q-14 -21 -15 -47q2 -37 31 -63
q27 -26 71 -43q43 -18 99 -27q56 -10 119 -10t119 10q56 9 99 27q44 17 71 43q29 25 31 63q-1 26 -15 47q-15 20 -38 35q-43 28 -108 44v0zM440 213q-6 -4 -19 -10q-29 -16 -101 -19q-72 2 -101 19q-13 6 -19 10q1 54 35 88q35 34 85 35q50 -1 85 -35q34 -34 35 -88v0z
M152 136q-2 22 -24 24q-22 -2 -24 -24q2 -22 24 -24q22 2 24 24v0zM344 96q-2 22 -24 24q-22 -2 -24 -24q2 -22 24 -24q22 2 24 24v0zM512 112q22 2 24 24q-2 22 -24 24q-22 -2 -24 -24q2 -22 24 -24v0z" />
    <glyph glyph-name="ufo-beam" unicode="&#xe048;" horiz-adv-x="576" 
d="M153 285l-17 -17l17 17l-17 -17q-7 6 -7 15q-1 10 -1 20q-33 -10 -54 -23q-16 -10 -21 -18t-5 -12q-1 -6 13 -20q15 -14 49 -27q69 -26 178 -27q109 1 178 27q34 13 49 27q14 14 13 20q0 4 -5 12t-21 18q-21 13 -54 23q0 -10 -1 -21q0 -8 -7 -14l-17 17v0h1
q12 -13 14 -15q3 -3 2 -3v0v0v0v0v0v0v0v0l-1 -1q-1 0 -2 -2q-2 -2 -7 -5q-9 -7 -28 -15q-36 -18 -114 -20q-78 2 -114 20q-18 8 -28 15q-4 3 -7 6q-1 1 -2 1l-1 1v0v0v1v0v0v0v0v0l17 17v0zM49 321q37 22 92 35q19 42 59 67q39 24 88 25q49 -1 88 -25q40 -25 59 -67
q55 -13 92 -35q20 -12 34 -30q14 -17 15 -41q-2 -34 -29 -56q-25 -22 -64 -36q-79 -29 -195 -30q-115 1 -195 30q-39 14 -64 36q-27 22 -29 56q1 23 15 41t34 30v0zM400 297q-2 44 -33 73v0v0q-32 29 -79 30q-47 -1 -79 -30q-31 -29 -33 -73q6 -4 17 -9q26 -14 95 -16
q69 2 95 16q11 5 17 9v0zM117 85l-72 -136l72 136l-72 -136q-12 -19 -32 -10q-19 12 -10 32l72 136v0q12 19 32 10q19 -12 10 -32v0zM501 107l72 -136l-72 136l72 -136q9 -20 -10 -32q-20 -9 -32 10l-72 136v0q-9 20 10 32q20 9 32 -10v0z" />
    <glyph glyph-name="user-alien" unicode="&#xe04a;" horiz-adv-x="448" 
d="M112 281q1 52 34 85v0v0q32 33 78 34q46 -1 78 -34q33 -33 34 -85q-2 -52 -46 -102q-18 -21 -36 -37q-17 -16 -30 -25q-13 9 -30 25q-18 16 -36 37q-44 50 -46 102v0zM224 448q-68 -2 -113 -49v0v0q-45 -47 -47 -118q2 -51 29 -94t60 -72q32 -30 50 -42q10 -7 21 -7t21 7
q18 12 50 42q33 29 60 72t29 94q-2 71 -47 118t-113 49v0zM0 -38q2 -24 26 -26h396v0q24 2 26 26q-1 54 -37 92q-35 37 -89 42q-36 -34 -57 -48h48v0q31 -1 54 -18q22 -18 30 -46h-346v0q8 28 30 46q23 17 53 18h49v0q-21 14 -57 48q-54 -5 -89 -42q-36 -38 -37 -92v0z
M208 225q-1 23 -16 39v0v0q-16 15 -39 16h-16v0q-8 -1 -9 -9q1 -23 16 -39q16 -15 39 -16h16v0q8 1 9 9v0zM295 280q-23 -1 -39 -16v0v0q-15 -16 -16 -39q1 -8 9 -9h16v0q23 1 39 16q15 16 16 39q-1 8 -9 9h-16v0z" />
    <glyph glyph-name="user-robot" unicode="&#xe04b;" horiz-adv-x="448" 
d="M240 432q-1 15 -16 16q-15 -1 -16 -16v-48v0h-64v0q-34 -1 -57 -23q-22 -23 -23 -57v-96v0q1 -34 23 -57q23 -22 57 -23h160v0q34 1 57 23q22 23 23 57v96v0q-1 34 -23 57q-23 22 -57 23h-64v0v48v0zM336 304v-96v96v-96q0 -14 -9 -23t-23 -9v16v0q-1 15 -16 16
q-15 -1 -16 -16v-16v0h-32v0v16v0q-1 15 -16 16q-15 -1 -16 -16v-16v0h-32v0v16v0q-1 15 -16 16q-15 -1 -16 -16v-16v0q-14 0 -23 9t-9 23v96v0q0 14 9 23t23 9h160v0q14 0 23 -9t9 -23v0zM400 0v-16v16v-16h-96v0v32v0q-1 15 -16 16q-15 -1 -16 -16v-32v0h-32v0v32v0
q-1 15 -16 16q-15 -1 -16 -16v-32v0h-32v0v32v0q-1 15 -16 16q-15 -1 -16 -16v-32v0h-96v0v16v0q1 20 14 34q14 13 34 14h256v0q20 -1 34 -14q13 -14 14 -34v0zM160 -64h64h-64h240q20 1 34 14q13 14 14 34v16v0q-1 41 -28 68t-68 28h-256v0q-41 -1 -68 -28t-28 -68v-16v0
q1 -20 14 -34q14 -13 34 -14h112v0zM16 320q-15 -1 -16 -16v-96v0q1 -15 16 -16q15 1 16 16v96v0q-1 15 -16 16v0zM448 304q-1 15 -16 16q-15 -1 -16 -16v-96v0q1 -15 16 -16q15 1 16 16v96v0zM208 272q0 14 -9 23v0v0q-9 9 -23 9t-23 -9t-9 -23t9 -23t23 -9t23 9t9 23v0z
M272 240q14 0 23 9v0v0q9 9 9 23t-9 23t-23 9t-23 -9t-9 -23t9 -23t23 -9v0z" />
    <glyph glyph-name="user-visor" unicode="&#xe04c;" horiz-adv-x="448" 
d="M224 240q41 1 64 32h-128v0q23 -31 64 -32v0zM224 192q-41 1 -73 23v0v0q-31 22 -46 58q-23 6 -25 31v64v0q0 14 9 23t23 9h12v0q37 46 100 48q63 -2 100 -48h12v0q14 0 23 -9t9 -23v-64v0q-2 -25 -25 -31q-15 -36 -46 -58q-32 -22 -73 -23v0zM128 336q1 -15 16 -16h160
v0q15 1 16 16q-1 15 -16 16h-160v0q-15 -1 -16 -16v0zM270 96h-92h92h-92q-50 -1 -85 -32q-36 -31 -44 -80h350v0q-8 49 -43 80q-36 31 -86 32v0zM0 -34q2 75 52 126v0v0q51 50 126 52h92v0q75 -2 126 -52q50 -51 52 -126q0 -13 -9 -21q-8 -9 -21 -9h-388v0q-13 0 -21 9
q-9 8 -9 21v0zM314 19q-7 0 -14 -6v0v0q-7 -5 -13 -10l-5 -5q-5 -2 -6 3q5 46 30 75q3 2 5 -1q24 -31 25 -75q-1 -5 -6 -2q-15 20 -17 21h1z" />
    <glyph glyph-name="vacuum" unicode="&#xe04d;" horiz-adv-x="640" 
d="M290 400q-21 0 -36 -13v0v0q-16 -12 -20 -33l-28 -130v0h-49v0l30 140v0q8 38 37 61q28 22 66 23h238v0q48 -1 79 -33q32 -31 33 -79q0 -34 -18 -61q-17 -27 -46 -40q31 -47 32 -107v-128v0q-1 -27 -19 -45t-45 -19h-75v0q22 20 34 48h41v0q15 1 16 16v128v0
q-2 61 -42 102q-41 40 -102 42q-15 -1 -16 -16v-97v0q-8 1 -16 1q-17 0 -32 -4v100v0q1 27 19 45t45 19q73 -2 125 -47q23 5 37 22q14 18 14 41q-1 27 -19 45t-45 19h-238v0zM150 192h49h-49h49l-27 -129v0q23 -5 37 -22q15 -17 15 -41q-1 -27 -19 -45t-45 -19h-128v0
q-14 0 -23 9t-9 23q1 41 28 68t68 28h27v0l27 128v0zM432 32q-1 27 -24 42q-24 12 -48 0q-23 -15 -24 -42q1 -27 24 -42q24 -12 48 0q23 15 24 42v0zM288 32q0 26 13 48v0v0q13 22 35 35q23 13 48 13t48 -13q22 -13 35 -35t13 -48t-13 -48t-35 -35q-23 -13 -48 -13t-48 13
q-22 13 -35 35t-13 48v0zM176 0q-1 15 -16 16h-64v0q-33 -2 -45 -32h109v0q15 1 16 16v0zM384 48q15 -1 16 -16q-1 -15 -16 -16q-15 1 -16 16q1 15 16 16v0z" />
    <glyph glyph-name="vacuum-robot" unicode="&#xe04e;" 
d="M464 192q0 57 -28 104v0v0q-27 47 -76 76q-49 28 -104 28t-104 -28q-49 -29 -76 -76q-28 -47 -28 -104t28 -104q27 -47 76 -76q49 -28 104 -28t104 28q49 29 76 76q28 47 28 104v0zM0 192q1 70 34 128v0v0q34 58 94 94q61 34 128 34t128 -34q60 -36 94 -94
q33 -58 34 -128q-1 -70 -34 -128q-34 -58 -94 -94q-61 -34 -128 -34t-128 34q-60 36 -94 94q-33 58 -34 128v0zM335 271q-34 33 -79 33v0v0q-45 0 -79 -33q-17 -14 -34 0q-14 17 0 34q49 47 113 47t113 -47q47 -49 47 -113t-47 -113q-17 -14 -34 0q-14 17 0 34q33 34 33 79
t-33 79v0zM213 235q11 10 22 0l64 -64v0q10 -11 0 -22q-11 -10 -22 0l-64 64v0q-10 11 0 22v0zM133 219q11 10 22 0l128 -128v0q10 -11 0 -22q-11 -10 -22 0l-128 128v0q-10 11 0 22v0zM117 117q-10 11 0 22q11 10 22 0l64 -64v0q10 -11 0 -22q-11 -10 -22 0l-64 64v0z" />
    <glyph glyph-name="window-frame" unicode="&#xe04f;" 
d="M80 -16h152h-152h152v192v0h-152v0v-192v0zM32 -16v400v-400v400q1 27 19 45t45 19h320v0q27 -1 45 -19t19 -45v-400v0h8v0q22 -2 24 -24q-2 -22 -24 -24h-8h-456q-22 2 -24 24q2 22 24 24h8v0zM432 -16v192v-192v192h-152v0v-192v0h152v0zM80 224h152h-152h152v176v0
h-136v0q-15 -1 -16 -16v-160v0zM280 224h152h-152h152v160v0q-1 15 -16 16h-136v0v-176v0z" />
    <glyph glyph-name="window-frame" unicode="&#x1fa9f;" 
d="M80 -16h152h-152h152v192v0h-152v0v-192v0zM32 -16v400v-400v400q1 27 19 45t45 19h320v0q27 -1 45 -19t19 -45v-400v0h8v0q22 -2 24 -24q-2 -22 -24 -24h-8h-456q-22 2 -24 24q2 22 24 24h8v0zM432 -16v192v-192v192h-152v0v-192v0h152v0zM80 224h152h-152h152v176v0
h-136v0q-15 -1 -16 -16v-160v0zM280 224h152h-152h152v160v0q-1 15 -16 16h-136v0v-176v0z" />
    <glyph glyph-name="window-frame" unicode="&#x1fa9f;" 
d="M80 -16h152h-152h152v192v0h-152v0v-192v0zM32 -16v400v-400v400q1 27 19 45t45 19h320v0q27 -1 45 -19t19 -45v-400v0h8v0q22 -2 24 -24q-2 -22 -24 -24h-8h-456q-22 2 -24 24q2 22 24 24h8v0zM432 -16v192v-192v192h-152v0v-192v0h152v0zM80 224h152h-152h152v176v0
h-136v0q-15 -1 -16 -16v-160v0zM280 224h152h-152h152v160v0q-1 15 -16 16h-136v0v-176v0z" />
    <glyph glyph-name="window-frame-open" unicode="&#xe050;" 
d="M432 208h-152h152h-152v192v0h136v0q15 -1 16 -16v-176v0zM232 208h-152h152h-152v176v0q1 15 16 16h136v0v-192v0zM480 160v48v-48v48v176v0q-1 27 -19 45t-45 19h-320v0q-27 -1 -45 -19t-19 -45v-176v0v-48v0h48h400zM24 -16q-22 -2 -24 -24q2 -22 24 -24h32h432
q22 2 24 24q-2 22 -24 24h-8v0v144v0h-48v0v-144v0h-352v0v144v0h-48v0v-144v0h-8v0z" />
    <glyph glyph-name="coffin-cross" unicode="&#xe051;" horiz-adv-x="384" 
d="M140 -16h104h-104h104l92 318v0l-86 98v0h-116v0l-86 -98v0l92 -318v0zM12 333l91 104l-91 -104l91 104q9 11 24 11h131v0q14 0 24 -11l91 -104v0q11 -13 11 -31q0 -6 -2 -12l-95 -331v0q-8 -22 -31 -23h-128v0q-23 1 -31 23l-95 331v0q-2 6 -2 13q0 17 12 30v0zM216 328
v-40v40v-40h48v0q22 -2 24 -24q-2 -22 -24 -24h-48v0v-120v0q-2 -22 -24 -24q-22 2 -24 24v120v0h-48v0q-22 2 -24 24q2 22 24 24h48v0v40v0q2 22 24 24q22 -2 24 -24v0z" />
    <glyph glyph-name="folder-arrow-down" unicode="&#xe053;" 
d="M252 320v0q16 -16 39 -16h157v0q15 -1 16 -16v-256v0q-1 -15 -16 -16h-384v0q-15 1 -16 16v320v0q1 15 16 16h134v0q6 0 11 -5l34 34v0l-34 -34v0l43 -43v0zM286 354l-43 43l43 -43l-43 43q-19 19 -46 19h-133v0q-27 -1 -45 -19t-19 -45v-320v0q1 -27 19 -45t45 -19h384
v0q27 1 45 19t19 45v256v0q-1 27 -19 45t-45 19h-157v0q-3 0 -5 2v0zM280 248q-2 22 -24 24q-22 -2 -24 -24v-102v0l-31 31v0q-17 14 -34 0q-14 -17 0 -34l72 -72v0q17 -14 34 0l72 72v0q14 17 0 34q-17 14 -34 0l-31 -31v0v102v0z" />
    <glyph glyph-name="folder-arrow-up" unicode="&#xe054;" 
d="M252 320v0q16 -16 39 -16h157v0q15 -1 16 -16v-256v0q-1 -15 -16 -16h-384v0q-15 1 -16 16v320v0q1 15 16 16h134v0q6 0 11 -5l34 34v0l-34 -34v0l43 -43v0zM286 354l-43 43l43 -43l-43 43q-19 19 -46 19h-133v0q-27 -1 -45 -19t-19 -45v-320v0q1 -27 19 -45t45 -19h384
v0q27 1 45 19t19 45v256v0q-1 27 -19 45t-45 19h-157v0q-3 0 -5 2v0zM280 72v102v-102v102l31 -31v0q17 -14 34 0q14 17 0 34l-72 72v0q-17 14 -34 0l-72 -72v0q-14 -17 0 -34q17 -14 34 0l31 31v0v-102v0q2 -22 24 -24q22 2 24 24v0z" />
    <glyph glyph-name="user-unlock" unicode="&#xe058;" horiz-adv-x="640" 
d="M224 240q45 1 69 40q22 40 0 80q-24 39 -69 40q-45 -1 -69 -40q-22 -40 0 -80q24 -39 69 -40v0zM224 448q35 0 64 -17v0v0q29 -17 47 -47q17 -30 17 -64t-17 -64q-18 -30 -47 -47t-64 -17t-64 17t-47 47q-17 30 -17 64t17 64q18 30 47 47t64 17v0zM49 -16h335h-335h335
v-16v0q0 -18 9 -32h-363v0q-13 0 -21 9q-9 8 -9 21q2 75 52 126q51 50 126 52h46h46q66 -1 114 -42v-6v-68v0q-17 31 -47 49q-30 19 -67 19h-92v0q-50 -1 -85 -32q-36 -31 -44 -80v0zM496 176v-48v48v-48h16h96q14 0 23 -9t9 -23v-128v0q0 -14 -9 -23t-23 -9h-160v0
q-14 0 -23 9t-9 23v128v0q0 14 9 23t23 9v48v0q1 34 23 57q23 22 57 23q34 -1 57 -23q22 -23 23 -57h-48v0q0 14 -9 23t-23 9t-23 -9t-9 -23v0z" />
    <glyph glyph-name="bacteria" unicode="&#xe059;" horiz-adv-x="640" 
d="M305 447q15 -6 12 -22l-3 -10v0q24 -13 37 -37l10 3v0q16 3 22 -12q3 -16 -12 -22l-11 -3v0q1 -27 -13 -49l8 -8v0q10 -13 0 -26q-13 -10 -26 0l-8 8v0q-12 -8 -26 -11q-9 -2 -17 -5l3 -10v0q3 -16 -12 -22q-16 -4 -23 12l-1 6v0q-26 -17 -37 -35l9 -4v0q14 -7 9 -23
q-8 -15 -23 -10l-10 4v0l-2 -8q-2 -20 -12 -36l8 -8v0q10 -13 0 -26q-13 -10 -26 0l-8 8v0q-21 -14 -49 -13l-3 -11v0q-6 -16 -22 -13q-15 7 -12 23l3 10v0q-24 13 -37 37l-10 -3v0q-16 -3 -22 12q-3 16 12 22l11 3v0v12q2 18 7 36q1 1 1 2l-9 3v0q-14 8 -10 24q8 14 24 10
l7 -3v0q7 16 18 34q2 3 4 7l-11 9v0q-12 12 -3 25q12 12 25 3l10 -8v0q16 18 36 35l-6 9v0q-8 15 5 25q15 8 25 -5l5 -7v0q20 13 45 23l-4 9v0q-5 16 10 24q16 5 24 -10l4 -10v0q13 4 26 7q12 2 23 2l3 11v0q6 15 22 12v0zM144 168v2q6 32 20 54q13 23 42 46q28 22 78 35
q15 4 23 16q7 12 4 27q-4 15 -16 23q-12 7 -27 4q-66 -16 -106 -48q-40 -31 -59 -66q-20 -34 -25 -58q-5 -15 -6 -28q-1 -15 8 -26t25 -13q15 -1 26 8t13 24v0zM496 216v-2q-6 -32 -20 -54q-13 -23 -42 -46q-28 -22 -78 -35q-15 -4 -23 -16q-7 -12 -4 -27q4 -15 16 -23
q12 -7 27 -4q66 16 106 48q40 31 59 66q20 34 25 58q5 15 6 28q1 15 -8 26t-25 13q-15 1 -26 -8t-13 -24v0zM536 296l3 11l-3 -11l3 11q6 15 22 12q15 -6 12 -22l-3 -10v0q24 -13 37 -37l10 3v0q16 3 22 -12q3 -16 -12 -23l-11 -3v0v-11q-2 -18 -7 -36l-1 -1v0v-1v0l9 -4v0
q14 -7 10 -23q-8 -15 -24 -10l-7 3v0q-7 -16 -18 -34l-2 -4t-2 -3l11 -9v0q12 -12 3 -25q-11 -12 -25 -3l-10 8v0q-16 -18 -36 -35l6 -9v0q8 -15 -5 -25q-15 -8 -25 5l-5 7v0q-20 -13 -45 -24l4 -8v0q5 -16 -10 -24q-16 -5 -24 10l-4 10v0q-13 -4 -26 -7q-12 -2 -23 -2
l-3 -11v0q-6 -15 -22 -12q-15 6 -12 22l3 10v0q-24 12 -37 37l-10 -3v0q-16 -3 -22 12q-4 16 12 22l11 3v0q-1 27 13 49l-8 8v0q-10 13 0 26q13 10 26 0l8 -8v0q12 8 26 11q9 2 17 4l-3 11v0q-3 16 12 22q16 3 22 -12l2 -6v0q26 17 37 35l-9 3v0q-14 8 -9 24q7 15 23 10
l10 -5v0q1 5 2 9q2 20 12 36l-8 8v0q-10 13 0 26q13 10 26 0l8 -8v0q21 14 49 13v0zM192 320q15 -1 16 -16q-1 -15 -16 -16q-15 1 -16 16q1 15 16 16v0zM96 208q1 15 16 16q15 -1 16 -16q-1 -15 -16 -16q-15 1 -16 16v0zM400 64q15 -1 16 -16q-1 -15 -16 -16q-15 1 -16 16
q1 15 16 16v0z" />
    <glyph glyph-name="bacterium" unicode="&#xe05a;" 
d="M423 417q4 22 -16 30q-22 4 -30 -16l-4 -15v0q-15 1 -30 -3q-18 -4 -35 -9l-6 13v0q-10 20 -31 13q-20 -10 -13 -31l5 -12v0q-33 -14 -60 -32l-7 10v0q-14 17 -33 7q-17 -14 -7 -33l8 -12v0q-27 -22 -47 -47l-14 11v0q-18 12 -34 -4q-12 -18 4 -34l15 -12v0q-3 -5 -6 -9
q-13 -22 -23 -46l-10 4v0q-21 6 -31 -13q-6 -21 13 -31l12 -5v0q-8 -25 -10 -51q-1 -7 -1 -15l-15 -4v0q-20 -8 -16 -30q8 -20 30 -16l13 4v0q17 -32 49 -49l-4 -13v0q-4 -22 17 -30q21 -4 29 16l4 15v0q37 -1 66 18l10 -11v0q17 -14 34 0q14 17 0 34l-11 10v0q14 22 17 49
q1 6 3 11l13 -5v0q21 -7 31 12q7 21 -13 32l-11 5v0q14 23 49 46l2 -8v0q8 -20 30 -16q20 8 16 29l-4 15v0q10 3 22 6q20 4 35 15l11 -11v0q17 -14 34 0q14 17 0 34l-11 10v0q19 30 18 66l15 4v0q20 8 16 29q-8 21 -30 17l-13 -4v0q-17 32 -49 49l4 13v0zM208 75v-2
q-4 -27 -23 -43q-20 -16 -47 -14q-27 3 -43 23q-16 19 -15 46q8 64 43 122q28 49 84 93q55 44 147 66q26 6 48 -8q22 -13 28 -40q6 -26 -8 -48q-13 -22 -40 -29q-63 -15 -98 -43t-51 -57q-18 -27 -25 -66v0zM192 128q0 14 -9 23v0v0q-9 9 -23 9t-23 -9t-9 -23t9 -23t23 -9
t23 9t9 23v0zM240 216q22 2 24 24q-2 22 -24 24q-22 -2 -24 -24q2 -22 24 -24v0z" />
    <glyph glyph-name="box-tissue" unicode="&#xe05b;" 
d="M208 400h-90h90h-90l57 -228v0l3 -12v0h154v0l7 18v0l51 126v0h-54v0q-47 0 -75 28q-24 26 -31 45l-1 2v0q-9 18 -11 19q-1 1 -2 1v0q-1 1 -8 1v0zM384 160h8h-8h8q22 -2 24 -24q-2 -22 -24 -24h-272v0q-22 2 -24 24q2 22 24 24h8v0l-8 32v0l-12 48v0l-43 173v0
q-1 3 -1 6q0 13 8 21t21 8h115v0q29 -1 43 -15q13 -14 21 -33t22 -33q13 -14 42 -15h85v0q12 0 19 -8q8 -7 8 -19q0 -5 -2 -10l-30 -75v0l-19 -48v0l-13 -32v0zM75 240l12 -48l-12 48l12 -48h-39v0v-112v0h416v0v112v0h-33v0l20 48v0h13v0q20 -1 34 -14q13 -14 14 -34v-208
v0q-1 -20 -14 -34q-14 -13 -34 -14h-416v0q-20 1 -34 14q-13 14 -14 34v208v0q1 20 14 34q14 13 34 14h27v0zM48 32v-48v48v-48h416v0v48v0h-416v0z" />
    <glyph glyph-name="hand-holding-medical" unicode="&#xe05c;" horiz-adv-x="576" 
d="M224 424q2 22 24 24h48v0q22 -2 24 -24v-56v0h56v0q22 -2 24 -24v-48v0q-2 -22 -24 -24h-56v0v-56v0q-2 -22 -24 -24h-48v0q-22 2 -24 24v56v0h-56v0q-22 2 -24 24v48v0q2 22 24 24h56v0v56v0zM187 96q-12 0 -22 -7l-80 -53v0q-6 -4 -13 -4h-48v0q-22 2 -24 24
q2 22 24 24h41v0l74 49v0q22 15 48 15h157v0q27 -1 45 -19t19 -45v-1v-1l65 40v0q16 10 35 10h8v0q25 -1 42 -18t18 -42q-1 -33 -27 -51l-96 -62v0q-30 -19 -65 -19h-364v0q-22 2 -24 24q2 22 24 24h364v0q21 0 39 12l95 61v0q6 4 6 11q-1 11 -12 12h-8v0q-5 0 -10 -3
l-93 -57v0q-6 -4 -13 -4h-48h-88q-22 2 -24 24q2 22 24 24h64h24q15 1 16 16q-1 15 -16 16h-157v0z" />
    <glyph glyph-name="hand-sparkles" unicode="&#xe05d;" horiz-adv-x="640" 
d="M262 412q18 34 58 36q40 -2 58 -36q10 4 22 4q27 -1 45 -19t19 -45v-2v0q8 2 16 2q27 -1 45 -19t19 -45v-163v0q-19 -8 -25 -28l-9 -31v0l-29 -9v0q12 23 14 49q0 2 1 4v0v178v0q-1 15 -16 16q-15 -1 -16 -16v0v0v-72v0q-2 -22 -24 -24q-22 2 -24 24v80v0v0v0v56v0
q-1 15 -16 16q-15 -1 -16 -16v0v0v-136v0q-2 -22 -24 -24q-22 2 -24 24v136v0v0v0v32v0q-1 15 -16 16q-15 -1 -16 -16v-32v0v0v0v-136v0q-2 -22 -24 -24q-22 2 -24 24v136v0q-1 15 -16 16q-15 -1 -16 -16v-223v0q-1 -16 -15 -23q-14 -5 -26 6l-44 43v0q-11 10 -22 0
q-10 -11 0 -22l88 -88v0q61 -60 147 -61h8h5h1h1q47 3 81 32v0v0q1 -28 27 -40q-43 -35 -102 -39q-3 -1 -5 -1h-8h-8q-52 0 -98 20q-47 19 -83 55l-88 88v0q-19 19 -19 45q0 25 19 45q19 19 45 19q25 0 45 -19l3 -3v0v166v0q1 27 19 45t45 19q12 0 22 -4v0zM313 121l7 -25
l-7 25l7 -25l25 -7v0q7 -2 7 -9t-7 -9l-25 -7v0l-7 -25v0q-2 -7 -9 -7t-9 7l-7 25v0l-25 7v0q-7 2 -7 9t7 9l25 7v0l7 25v0q2 7 9 7t9 -7v0zM570 88l14 -48l-14 48l14 -48l48 -14v0q8 -2 8 -10t-8 -10l-48 -14v0l-14 -48v0q-2 -8 -10 -8t-10 8l-14 48v0l-48 14v0q-8 2 -8 10
t8 10l48 14v0l14 48v0q2 8 10 8t10 -8v0zM104 360l40 -11l-40 11l40 -11v-26v0l-40 -11v0l-14 -48v0q-2 -8 -10 -8t-10 8l-14 48v0l-48 14v0q-8 2 -8 10t8 10l48 14v0l14 48v0q2 8 10 8t10 -8l14 -48v0z" />
    <glyph glyph-name="hands-bubbles" unicode="&#xe05e;" horiz-adv-x="576" 
d="M416 448q14 0 23 -9v0v0q9 -9 9 -23t-9 -23t-23 -9t-23 9t-9 23t9 23t23 9v0zM528 384q27 -1 42 -24q12 -24 0 -48q-15 -23 -42 -24q-27 1 -42 24q-12 24 0 48q15 23 42 24v0zM144 -16q14 0 23 9v0v0q9 9 9 23t-9 23t-23 9t-23 -9t-9 -23t9 -23t23 -9v0zM144 96
q45 -1 69 -40q22 -40 0 -80q-24 -39 -69 -40q-45 1 -69 40q-22 40 0 80q24 39 69 40v0zM48 304v-84v84v-84q1 -62 43 -105q-21 -12 -36 -31q-54 56 -55 136v84v0q1 27 19 45q18 19 45 19q35 -1 54 -29l47 81v0q12 20 34 26q21 6 42 -6q6 -3 11 -7q28 20 61 3q30 -20 27 -54
q6 -2 12 -6q19 -11 25 -31q-33 14 -69 -1l-53 -23v0l20 35v0v0l16 28v0q3 6 -2 11q-7 3 -11 -3l-8 -14v0v0l-8 -14v0l-32 -55v0q-29 -14 -51 -36q-16 13 -7 32l48 83v0v0q3 7 -3 11q-7 3 -11 -3l-81 -141v0q-10 -15 -27 -11q-17 5 -18 23v37v0q-1 15 -16 16q-15 -1 -16 -16
v0zM326 -64q-47 0 -86 22q13 21 15 46q32 -19 71 -20h130v0q7 1 8 8q-1 7 -8 8h-64v0q-22 2 -24 24q2 22 24 24h64v0v0v0h32v0q7 1 8 8q-1 7 -8 8h-96v0q-22 2 -24 24q2 22 24 24h96v0v0v0h32v0q7 1 8 8q-1 7 -8 8h-16v0v0v0h-112v0q-22 2 -24 24q2 22 24 24h96v0v0v0
q7 1 8 8q-1 7 -8 8h-152v0q-18 1 -23 19q-3 18 13 27l25 12v0q12 7 8 21q-8 13 -22 8l-56 -27v0q-42 -20 -66 -58v-1v0q-23 -33 -23 -75v-1v0q-22 11 -48 11q4 51 31 91q31 50 85 76l57 27v0q25 11 49 2q24 -8 36 -33q11 -26 1 -51h85v0q24 -1 40 -16q15 -16 16 -40
q0 -7 -1 -13q31 -15 33 -51q-2 -36 -33 -51q1 -6 1 -13q-2 -36 -33 -51q1 -6 1 -13q-1 -24 -16 -40q-16 -15 -40 -16h-130v0z" />
    <glyph glyph-name="handshake-simple-slash" unicode="&#xe05f;" horiz-adv-x="640" 
d="M39 443q-19 12 -34 -4q-12 -19 4 -34l592 -464v0q19 -12 34 4q12 19 -4 34l-129 101v0h82v0q22 2 24 24q-2 22 -24 24h-128h-15l-100 78v0l35 32v0q15 17 2 34q-17 15 -34 2l-41 -38v0l-39 30v0l45 43v0q29 26 68 27q38 -1 66 -25l37 -33v0q7 -6 16 -6h88v0q22 2 24 24
q-2 22 -24 24h-79v0l-30 27v0q-42 36 -98 37q-58 -1 -101 -40l-50 -48v0l-31 25v0q12 7 26 11l51 51v0q-6 1 -13 1h-10v0q-53 -1 -94 -32l-116 91v0zM389 46l-42 33l42 -33l-42 33q1 -14 -9 -24q-9 -9 -21 -9t-21 9l-10 11v0q-10 9 -23 6q-12 -3 -17 -15q-1 -3 -4 -6
q-11 -9 -22 0l-27 27v0v0v0l-7 7v0l-36 35v0q-23 23 -56 24h-38v0q-22 -2 -24 -24q2 -22 24 -24h38v0q13 0 22 -9l36 -36v0l7 -7v0l27 -27v0q18 -18 42 -19t44 15q24 -17 51 -15q28 2 49 23q11 11 17 24v1zM102 272l-58 45l58 -45l-58 45q-11 -7 -12 -21q2 -22 24 -24h46v0z
" />
    <glyph glyph-name="handshake-slash" unicode="&#xe060;" horiz-adv-x="640" 
d="M39 443q-19 12 -34 -4q-12 -19 4 -34l592 -464v0q19 -12 34 4q12 19 -4 34l-129 101v0h46v0q9 -15 28 -16h32v0q14 0 23 9t9 23v208v0q-1 15 -16 16h-40h-79l-30 27v0q-42 36 -98 37q-58 -1 -101 -40l-50 -48v0l-31 25v0q12 7 26 11l51 51v0q-6 1 -13 1h-10v0
q-53 -1 -94 -32l-116 91v0zM264 266l45 43l-45 -43l45 43q29 26 68 27q38 0 66 -25l37 -33v0q7 -6 16 -6h48v0v-144v0h-88h-15l-100 78v0l35 32v0q15 17 2 34q-17 15 -34 2l-41 -38v0l-39 30v0zM96 276l-55 44l55 -44l-55 44h-25v0q-15 -1 -16 -16v-208v0q0 -14 9 -23t23 -9
h32v0q14 0 23 9t9 23q12 -1 20 -9l36 -36v0l7 -7v0l27 -27v0q18 -18 42 -19t44 15q24 -17 51 -15q28 2 49 23q11 11 17 24l-42 34v0q1 -14 -9 -24q-9 -9 -21 -9t-21 9l-10 11v0q-10 8 -23 6q-12 -3 -17 -15q-1 -3 -4 -6q-11 -9 -22 0l-27 27v0v0v0l-7 7v0l-36 35v0
q-22 23 -54 24v80v0v48v0v4v0zM32 112q1 15 16 16q15 -1 16 -16q-1 -15 -16 -16q-15 1 -16 16v0zM592 128q15 -1 16 -16q-1 -15 -16 -16q-15 1 -16 16q1 15 16 16v0z" />
    <glyph glyph-name="head-side-cough" unicode="&#xe061;" horiz-adv-x="640" 
d="M224 400q-75 -2 -124 -52v0v0q-50 -49 -52 -124q1 -64 40 -111q22 -26 24 -64v-89v0q-2 -22 -24 -24q-22 2 -24 24v89v0q0 17 -14 34q-48 59 -50 141q1 63 31 113q29 51 80 80q50 30 113 31h24v0q60 -1 109 -32q49 -32 74 -84l12 -28l2 -3v0q6 -15 13 -29q13 -28 31 -47
l5 -5v0q18 -18 18 -45q-1 -27 -19 -44q-17 -18 -45 -19v0v0v0v0v-24v0v-64v0v-8v0q-1 -27 -19 -45t-45 -19h-65v0q-6 -15 -23 -16q-22 2 -24 24v16v0q2 22 24 24h88v0q15 1 16 16v8v0v9v0l-58 5v0q-20 3 -22 23q1 18 18 23l62 16v0v12v0v8v0v16v0q2 22 24 24h24v0
q15 1 16 16q0 6 -5 11l-4 4v0q-26 28 -41 60q-7 16 -13 31l-2 4v0q-6 13 -11 26q-19 39 -57 63q-37 24 -83 25h-24v0zM304 256q0 14 9 23v0v0q9 9 23 9t23 -9t9 -23t-9 -23t-23 -9t-23 9t-9 23v0zM488 88q22 -2 24 -24q-2 -22 -24 -24q-22 2 -24 24q2 22 24 24v0zM592 64
q2 22 24 24q22 -2 24 -24q-2 -22 -24 -24q-22 2 -24 24v0zM616 -8q22 -2 24 -24q-2 -22 -24 -24q-22 2 -24 24q2 22 24 24v0zM528 112q2 22 24 24q22 -2 24 -24q-2 -22 -24 -24q-22 2 -24 24v0zM616 184q22 -2 24 -24q-2 -22 -24 -24q-22 2 -24 24q2 22 24 24v0zM528 16
q2 22 24 24q22 -2 24 -24q-2 -22 -24 -24q-22 2 -24 24v0z" />
    <glyph glyph-name="head-side-cough-slash" unicode="&#xe062;" horiz-adv-x="640" 
d="M129 372q42 27 95 28h24v0q46 -1 83 -25q38 -24 57 -63q4 -9 7 -18l4 -8l2 -4v0q6 -15 13 -31q15 -32 41 -60l4 -4v0q5 -5 5 -11q-1 -15 -16 -16h-24v0q-10 0 -16 -6l-279 218v0zM460 113q22 4 37 22v0v0q15 17 15 41q0 26 -19 45l-4 4v0q-18 19 -31 47q-7 14 -13 29
l-2 4v0q-6 13 -12 27q-25 52 -74 84q-49 31 -109 32h-24v0q-77 -1 -134 -45l-51 40v0q-19 12 -34 -4q-12 -19 4 -34l592 -464v0q19 -12 34 4q12 19 -4 34l-171 134v0zM27 331q-26 -48 -27 -107q2 -82 50 -142q14 -16 14 -33v-89v0q2 -22 24 -24q22 2 24 24v89v0
q-2 38 -24 64q-39 47 -40 111q0 41 17 76l-38 31v0zM339 85l-1 -1l1 1l-1 -1q-17 -5 -18 -22q2 -20 22 -24l58 -5v0v-9v0v-8v0q-1 -14 -16 -16h-88v0q-22 -2 -24 -24v-16v0q2 -22 24 -24q17 1 23 16h65v0q23 1 40 14t22 35l-107 84v0zM640 64q-2 22 -24 24q-22 -2 -24 -24
q2 -22 24 -24q22 2 24 24v0zM552 88q22 2 24 24q-2 22 -24 24q-22 -2 -24 -24q2 -22 24 -24v0zM640 160q-2 22 -24 24q-22 -2 -24 -24q2 -22 24 -24q22 2 24 24v0z" />
    <glyph glyph-name="head-side-mask" unicode="&#xe063;" horiz-adv-x="576" 
d="M80 224q0 12 2 23l174 -116v0v-3v0v-160v0q0 -14 9 -23t23 -9h144v0q22 0 38 13q17 12 23 33l42 146v0l5 17v0q2 7 3 15q1 5 1 10v2v2v2v0v0q-2 11 -9 20l-18 22v0q-17 22 -28 51q-6 13 -11 28l-1 2v0q0 2 -1 3q-5 14 -11 29q-23 52 -70 84t-107 33h-32v0
q-63 -1 -113 -31q-51 -29 -80 -80q-30 -50 -31 -113q2 -82 50 -142q14 -16 14 -33v-89v0q2 -22 24 -24q22 2 24 24v89v0q-2 38 -24 64q-39 47 -40 111v0zM275 176l-180 120l180 -120l-180 120q22 47 64 75q43 28 97 29h32v0q45 -1 80 -25q36 -23 53 -63q6 -14 11 -30l1 -2v0
v0v0q5 -14 11 -29q12 -32 35 -63l10 -12v0h-33h-181zM368 224q14 0 23 9v0v0q9 9 9 23t-9 23t-23 9t-23 -9t-9 -23t9 -23t23 -9v0zM432 -16h-128h128h-128v144v0h181v0l-7 -24v0h-110v0q-15 -1 -16 -16q1 -15 16 -16h101v0l-9 -32v0h-92v0q-15 -1 -16 -16q1 -15 16 -16h83v0
l-4 -12v0q-4 -11 -15 -12v0z" />
    <glyph glyph-name="head-side-virus" unicode="&#xe064;" 
d="M48 224q2 75 52 124v0v0q49 50 124 52h24v0q46 -1 83 -25q38 -24 57 -63q4 -9 7 -18l4 -8l2 -4v0q6 -15 13 -31q15 -32 41 -60l4 -4v0q5 -5 5 -11q-1 -15 -16 -16h-24v0q-22 -2 -24 -24v-72v0q-1 -15 -16 -16h-88v0q-22 -2 -24 -24v-64v0q2 -22 24 -24q22 2 24 24v40v0
h64v0q27 1 45 19t19 45v48v0v0v0q27 1 45 19t19 45q0 26 -19 45l-4 4v0q-18 19 -31 47q-7 14 -13 29l-2 4v0q-6 13 -12 27q-25 52 -74 84q-49 31 -109 32h-24v0q-63 -1 -113 -31q-51 -29 -80 -80q-30 -50 -31 -113q2 -82 50 -142q14 -16 14 -33v-89v0q2 -22 24 -24
q22 2 24 24v89v0q-2 38 -24 64q-39 47 -40 111v0zM224 376q-15 -1 -16 -16q-2 -25 -23 -34t-40 8q-11 9 -23 0q-9 -11 0 -23q17 -19 8 -40t-34 -23q-15 -1 -16 -16q1 -15 16 -16q25 -2 34 -23t-8 -40q-9 -12 0 -23q12 -9 23 0q19 17 40 8t23 -34q1 -15 16 -16q15 1 16 16
q2 25 23 34t40 -8q12 -9 23 0q9 12 0 23q-17 19 -8 40t34 23q15 1 16 16q-1 15 -16 16q-25 2 -34 23t8 40q9 11 0 23q-12 9 -23 0q-19 -17 -40 -8t-23 34q-1 15 -16 16v0zM200 280q22 -2 24 -24q-2 -22 -24 -24q-22 2 -24 24q2 22 24 24v0zM240 200q1 15 16 16q15 -1 16 -16
q-1 -15 -16 -16q-15 1 -16 16v0z" />
    <glyph glyph-name="house-chimney-user" unicode="&#xe065;" horiz-adv-x="576" 
d="M304 442q-16 12 -32 0l-264 -224v0q-15 -15 -2 -34q15 -15 33 -2l25 20v0v-186v0q1 -34 23 -57q23 -22 57 -23h288v0q34 1 57 23q22 23 23 57v186v0l25 -20v0q18 -13 33 2q13 19 -2 34l-56 47v0v127v0q-2 22 -24 24q-22 -2 -24 -24v-86v0l-160 136v0zM112 16v227v-227
v227l176 149v0l176 -149v0v-227v0q0 -14 -9 -23t-23 -9h-288v0q-14 0 -23 9t-9 23v0zM288 160q36 1 55 32q18 32 0 64q-19 31 -55 32q-36 -1 -55 -32q-18 -32 0 -64q19 -31 55 -32v0zM176 48q1 -15 16 -16h192v0q15 1 16 16q-1 34 -23 57q-23 22 -57 23h-64v0
q-34 -1 -57 -23q-22 -23 -23 -57v0z" />
    <glyph glyph-name="house-laptop" unicode="&#xe066;" horiz-adv-x="640" 
d="M225 443q15 10 30 0l216 -176v0q16 -16 4 -34q-16 -16 -34 -4l-25 21v0v-42v0h-48v0v81v0l-128 104v0l-128 -104v0v-201v0q1 -7 8 -8h152v0v-48v0h-152v0q-24 1 -40 16q-15 16 -16 40v162v0l-25 -21v0q-18 -12 -34 4q-12 18 4 34l216 176v0zM288 232v-46v46v-46
q-9 -10 -13 -24q-5 -2 -11 -2h-48v0q-22 2 -24 24v48v0q2 22 24 24h48v0q22 -2 24 -24v0zM352 128v-144v144v-144h192v0v144v0h-192v0zM304 144q0 14 9 23v0v0q9 9 23 9h224v0q14 0 23 -9t9 -23v-160v0h36v0q11 -1 12 -12q0 -15 -11 -25q-10 -11 -25 -11h-12h-300
q-15 0 -25 11q-11 10 -11 25q1 11 12 12h36v0v160v0z" />
    <glyph glyph-name="lungs-virus" unicode="&#xe067;" horiz-adv-x="640" 
d="M344 424v-126v126v-126q-11 6 -24 6t-24 -6v126v0q2 22 24 24q22 -2 24 -24v0zM256 283v-24v24v-24q-23 14 -48 2v22v0q-2 19 -21 21q-11 0 -17 -8q-11 -17 -30 -46q-18 -29 -37 -66q-20 -37 -35 -76q-15 -40 -20 -77v-6v0q0 -17 12 -29t29 -12q5 0 10 1l73 18v0
q9 3 17 9q3 -5 7 -9q17 -16 39 -13q-20 -25 -52 -33l-72 -18v0q-11 -3 -22 -3q-38 1 -63 26t-26 63v7v0v4q6 44 23 88q16 44 37 82q20 39 39 70q20 30 32 47q21 28 56 29q29 -1 49 -20q19 -20 20 -49v0zM529 -61l-72 18l72 -18l-72 18q-32 8 -52 33q22 -3 39 14l-22 22v0
l22 -22v0q4 3 7 8q8 -6 17 -8l73 -19v0q5 -1 10 -1q17 1 29 12q11 12 12 29v6v0q-5 37 -20 77q-15 39 -34 76q-20 37 -38 66q-19 30 -30 46q-6 8 -17 8q-19 -2 -21 -21v-21v0q-25 11 -48 -3v24v0q1 29 20 49q20 19 49 20q35 0 56 -29q12 -17 31 -47q20 -31 40 -70
q21 -38 37 -82q17 -44 23 -88v-4v-7v0q-1 -38 -26 -63t-63 -26q-11 0 -22 3v0zM320 272q15 -1 16 -16q2 -25 23 -34t40 8q12 9 23 0q9 -12 0 -23q-17 -19 -8 -40t34 -23q15 -1 16 -16q-1 -15 -16 -16q-25 -2 -34 -23t8 -40q9 -12 0 -23q-12 -9 -23 0q-19 17 -40 8t-23 -34
q-1 -15 -16 -16q-15 1 -16 16q-2 25 -23 34t-40 -8q-11 -9 -23 0q-9 12 0 23q17 19 8 40t-34 23q-15 1 -16 16q1 15 16 16q25 2 34 23t-8 40q-9 11 0 23q12 9 23 0q19 -17 40 -8t23 34q1 15 16 16v0zM296 128q22 2 24 24q-2 22 -24 24q-22 -2 -24 -24q2 -22 24 -24v0z
M368 96q-1 15 -16 16q-15 -1 -16 -16q1 -15 16 -16q15 1 16 16v0z" />
    <glyph glyph-name="people-arrows" unicode="&#xe068;" horiz-adv-x="640" 
d="M64 384q1 36 32 55q32 18 64 0q31 -19 32 -55q-1 -36 -32 -55q-32 -18 -64 0q-31 19 -32 55v0zM106 240q-13 0 -22 -8v0v0q-9 -9 -10 -21l-4 -50v0q0 -15 16 -17h2h40q0 -22 16 -40l48 -47v0v-97v0q-2 -22 -24 -24q-22 2 -24 24v136v0h-32v0v-136v0q-2 -22 -24 -24
q-22 2 -24 24v140v0q-20 7 -32 25t-10 40l4 50v0q3 31 25 52q23 20 55 21h44v0q43 -2 66 -34l-8 -6l-28 -29v0q-8 20 -30 21h-44v0zM448 -40v97v-97v97l48 47v0q16 18 16 40h40h2q16 2 16 17l-4 50v0q-1 12 -10 21q-9 8 -22 8h-44v0q-22 -1 -30 -21l-28 29v0l-8 6
q24 32 66 34h44v0q32 -1 55 -21q22 -21 25 -52l4 -50v0q2 -22 -10 -40t-32 -25v-140v0q-2 -22 -24 -24q-22 2 -24 24v136v0h-32v0v-136v0q-2 -22 -24 -24q-22 2 -24 24v0zM448 384q1 36 32 55q32 18 64 0q31 -19 32 -55q-1 -36 -32 -55q-32 -18 -64 0q-31 19 -32 55v0z
M265 191l-23 -23l23 23l-23 -23h156v0l-23 23v0q-14 17 0 34q17 14 34 0l64 -64v0q14 -17 0 -34l-64 -64v0q-17 -14 -34 0q-14 17 0 34l23 23v0h-156v0l23 -23v0q14 -17 0 -34q-17 -14 -34 0l-64 64v0q-14 17 0 34l64 64v0q17 14 34 0q14 -17 0 -34v0z" />
    <glyph glyph-name="plane-slash" unicode="&#xe069;" horiz-adv-x="640" 
d="M39 443q-19 12 -34 -4q-12 -19 4 -34l592 -464v0q19 -12 34 4q12 19 -4 34l-170 133v0h19v0q16 0 36 4t38 12q20 8 35 23q17 15 19 41q-2 26 -19 41q-15 14 -34 22t-39 13q-20 4 -36 4h-66v0l-96 150v0q-17 25 -47 26h-41v0q-21 -1 -32 -16q-12 -16 -6 -36l31 -97v0
l-184 144v0zM288 247q0 4 -1 8l-46 145v0h30v0q4 0 6 -4l20 13v0l-20 -13v0l103 -161v0q8 -11 21 -11h79v0q10 0 25 -3t30 -10q14 -6 21 -13q5 -6 4 -6v0v0q1 -1 -4 -7q-7 -6 -21 -13q-31 -12 -55 -12h-79v0h-1v0l-112 87v0zM377 55l-38 30l38 -30l-38 30l-62 -97v0
q-2 -4 -7 -4h-29v0l45 142v0l-42 34v0h-76v0q-12 0 -19 -10l-41 -54v0h-24v0l27 89v0q2 7 0 14l-27 87v0l-44 35v0q-8 -10 -8 -23q0 -6 2 -11v0v0l29 -95v0l-29 -95v0v0q-2 -5 -2 -11q0 -16 11 -27t27 -11h42v0q20 0 32 16l-19 14v0l19 -14v0l36 48v0h51v0l-39 -124v0
q-6 -20 6 -36q11 -15 32 -16h41v0q30 1 47 26l59 93v0z" />
    <glyph glyph-name="pump-medical" unicode="&#xe06a;" horiz-adv-x="448" 
d="M168 448h48h-48h48q19 0 34 -11q14 -11 20 -29h46v0q30 0 51 -21l42 -42v0q14 -17 0 -34q-17 -14 -34 0l-42 42v0q-7 7 -17 7h-44v0v-40v0h-48v0v72v0q-1 7 -8 8h-48v0q-7 -1 -8 -8v-72v0h-48v0v72v0q1 24 16 40q16 15 40 16v0zM102 225l-19 -224l19 224l-19 -224
q0 -15 16 -17h186v0q16 2 16 17l-19 224v0q-2 14 -15 15h-150v0q-13 -1 -16 -15h1zM54 229q2 26 20 42v0v0q18 16 44 17h149v0q25 -1 43 -17t20 -42l19 -224v0q2 -29 -17 -48q-18 -20 -47 -21h-186v0q-29 1 -47 21q-19 19 -17 48l19 224v0zM216 152v-16v16v-16h16v0
q22 -2 24 -24q-2 -22 -24 -24h-16v0v-16v0q-2 -22 -24 -24q-22 2 -24 24v16v0h-16v0q-22 2 -24 24q2 22 24 24h16v0v16v0q2 22 24 24q22 -2 24 -24v0z" />
    <glyph glyph-name="pump-soap" unicode="&#xe06b;" horiz-adv-x="448" 
d="M112 392q1 24 16 40v0v0q16 15 40 16h48v0q19 0 34 -11q14 -11 20 -29h46v0q30 0 51 -21l42 -42v0q14 -17 0 -34q-17 -14 -34 0l-42 42v0q-7 7 -17 7h-44v0v-40v0h-48v0v72v0q-1 7 -8 8h-48v0q-7 -1 -8 -8v-72v0h-48v0v72v0zM102 225l-19 -224l19 224l-19 -224
q0 -15 16 -17h186v0q16 2 16 17l-19 224v0q-2 14 -15 15h-150v0q-13 -1 -16 -15h1zM54 229q2 26 20 42v0v0q18 16 44 17h149v0q25 -1 43 -17t20 -42l19 -224v0q2 -29 -17 -48q-18 -20 -47 -21h-186v0q-29 1 -47 21q-19 19 -17 48l19 224v0zM180 169q4 7 12 7t13 -7l33 -48v0
q10 -14 10 -32v-1v0q-1 -24 -16 -40q-16 -15 -40 -16q-24 1 -39 16q-16 16 -17 40v1v0q0 18 10 32l34 48v0z" />
    <glyph glyph-name="shield-virus" unicode="&#xe06c;" 
d="M73 321l183 78l-183 -78l183 78l183 -78v0q9 -5 9 -13q0 -47 -16 -108q-16 -60 -56 -118q-41 -57 -114 -94q-6 -2 -12 0q-73 37 -114 94q-40 58 -56 118q-16 61 -16 108q0 8 9 13v0zM458 365l-189 80l189 -80l-189 80q-6 3 -13 3t-13 -3l-189 -80v0q-17 -7 -27 -22
q-11 -15 -11 -35q-1 -51 17 -120t65 -134q46 -66 132 -109q26 -12 52 0q86 43 132 109q47 65 65 134t17 120q0 20 -11 35q-10 15 -27 22v0zM256 352q-15 -1 -16 -16q-2 -25 -23 -34t-40 8q-11 9 -23 0q-9 -12 0 -23q17 -19 8 -40t-34 -23q-15 -1 -16 -16q1 -15 16 -16
q25 -2 34 -23t-8 -40q-9 -12 0 -23q12 -9 23 0q19 17 40 8t23 -34q1 -15 16 -16q15 1 16 16q2 25 23 34t40 -8q12 -9 23 0q9 12 0 23q-17 19 -8 40t34 23q15 1 16 16q-1 15 -16 16q-25 2 -34 23t8 40q9 11 0 23q-12 9 -23 0q-19 -17 -40 -8t-23 34q-1 15 -16 16v0zM232 256
q22 -2 24 -24q-2 -22 -24 -24q-22 2 -24 24q2 22 24 24v0zM272 176q1 15 16 16q15 -1 16 -16q-1 -15 -16 -16q-15 1 -16 16v0z" />
    <glyph glyph-name="sink" unicode="&#xe06d;" 
d="M280 360q0 17 12 28v0v0q11 12 28 12t28 -12q12 -11 12 -28v-24v0q2 -22 24 -24q22 2 24 24v24v0q-1 37 -26 62t-62 26q-37 -1 -62 -26t-26 -62v-200v0h-72v0v24v0q-1 24 -16 40q-16 15 -40 16h-48v0q-22 -2 -24 -24q2 -22 24 -24h48v0q7 -1 8 -8v-24v0h-88v0
q-22 -2 -24 -24q2 -22 24 -24h232h232q22 2 24 24q-2 22 -24 24h-88v0v24v0q1 7 8 8h56v0q22 2 24 24q-2 22 -24 24h-56v0q-24 -1 -40 -16q-15 -16 -16 -40v-24v0h-72v0v200v0zM32 80v-24v24v-24q1 -51 35 -85t85 -35h208v0q51 1 85 35t35 85v24v0h-48v0v-24v0
q-1 -31 -21 -51t-51 -21h-208v0q-31 1 -51 21t-21 51v24v0h-48v0z" />
    <glyph glyph-name="soap" unicode="&#xe06e;" 
d="M208 448q27 -1 42 -24q12 -24 0 -48q-15 -23 -42 -24q-27 1 -42 24q-12 24 0 48q15 23 42 24v0zM96 256h113h-113h113q4 -27 19 -48h-132v0q-20 -1 -34 -14q-13 -14 -14 -34v-128v0q1 -20 14 -34q14 -13 34 -14h320v0q20 1 34 14q13 14 14 34v128v0q-1 20 -14 34
q-14 13 -34 14h-4v0q14 21 19 47q35 -6 58 -32q22 -26 23 -63v-128v0q-1 -41 -28 -68t-68 -28h-320v0q-41 1 -68 28t-28 68v128v0q1 41 28 68t68 28v0zM320 160h32h-32h32q27 -1 45 -19t19 -45q-1 -27 -19 -45t-45 -19h-192v0q-27 1 -45 19t-19 45q1 27 19 45t45 19h160v0z
M144 96q1 -15 16 -16h192v0q15 1 16 16q-1 15 -16 16h-192v0q-15 -1 -16 -16v0zM320 240q14 0 23 9v0v0q9 9 9 23t-9 23t-23 9t-23 -9t-9 -23t9 -23t23 -9v0zM320 352q45 -1 69 -40q22 -40 0 -80q-24 -39 -69 -40q-45 1 -69 40q-22 40 0 80q24 39 69 40v0zM384 448
q14 0 23 -9v0v0q9 -9 9 -23t-9 -23t-23 -9t-23 9t-9 23t9 23t23 9v0z" />
    <glyph glyph-name="soap" unicode="&#x1f9fc;" 
d="M208 448q27 -1 42 -24q12 -24 0 -48q-15 -23 -42 -24q-27 1 -42 24q-12 24 0 48q15 23 42 24v0zM96 256h113h-113h113q4 -27 19 -48h-132v0q-20 -1 -34 -14q-13 -14 -14 -34v-128v0q1 -20 14 -34q14 -13 34 -14h320v0q20 1 34 14q13 14 14 34v128v0q-1 20 -14 34
q-14 13 -34 14h-4v0q14 21 19 47q35 -6 58 -32q22 -26 23 -63v-128v0q-1 -41 -28 -68t-68 -28h-320v0q-41 1 -68 28t-28 68v128v0q1 41 28 68t68 28v0zM320 160h32h-32h32q27 -1 45 -19t19 -45q-1 -27 -19 -45t-45 -19h-192v0q-27 1 -45 19t-19 45q1 27 19 45t45 19h160v0z
M144 96q1 -15 16 -16h192v0q15 1 16 16q-1 15 -16 16h-192v0q-15 -1 -16 -16v0zM320 240q14 0 23 9v0v0q9 9 9 23t-9 23t-23 9t-23 -9t-9 -23t9 -23t23 -9v0zM320 352q45 -1 69 -40q22 -40 0 -80q-24 -39 -69 -40q-45 1 -69 40q-22 40 0 80q24 39 69 40v0zM384 448
q14 0 23 -9v0v0q9 -9 9 -23t-9 -23t-23 -9t-23 9t-9 23t9 23t23 9v0z" />
    <glyph glyph-name="soap" unicode="&#x1f9fc;" 
d="M208 448q27 -1 42 -24q12 -24 0 -48q-15 -23 -42 -24q-27 1 -42 24q-12 24 0 48q15 23 42 24v0zM96 256h113h-113h113q4 -27 19 -48h-132v0q-20 -1 -34 -14q-13 -14 -14 -34v-128v0q1 -20 14 -34q14 -13 34 -14h320v0q20 1 34 14q13 14 14 34v128v0q-1 20 -14 34
q-14 13 -34 14h-4v0q14 21 19 47q35 -6 58 -32q22 -26 23 -63v-128v0q-1 -41 -28 -68t-68 -28h-320v0q-41 1 -68 28t-28 68v128v0q1 41 28 68t68 28v0zM320 160h32h-32h32q27 -1 45 -19t19 -45q-1 -27 -19 -45t-45 -19h-192v0q-27 1 -45 19t-19 45q1 27 19 45t45 19h160v0z
M144 96q1 -15 16 -16h192v0q15 1 16 16q-1 15 -16 16h-192v0q-15 -1 -16 -16v0zM320 240q14 0 23 9v0v0q9 9 9 23t-9 23t-23 9t-23 -9t-9 -23t9 -23t23 -9v0zM320 352q45 -1 69 -40q22 -40 0 -80q-24 -39 -69 -40q-45 1 -69 40q-22 40 0 80q24 39 69 40v0zM384 448
q14 0 23 -9v0v0q9 -9 9 -23t-9 -23t-23 -9t-23 9t-9 23t9 23t23 9v0z" />
    <glyph glyph-name="stopwatch-20" unicode="&#xe06f;" horiz-adv-x="448" 
d="M168 448q-22 -2 -24 -24q2 -22 24 -24h32v0v-49v0q-79 -11 -131 -68q-51 -57 -53 -139q2 -88 61 -147t147 -61q88 2 147 61t61 147q-1 68 -38 120l31 31v0q14 17 0 34q-17 14 -34 0l-29 -29v0q-48 42 -114 51v49v0h32v0q22 2 24 24q-2 22 -24 24h-112v0zM64 144
q0 43 21 80v0v0q22 37 59 59q38 21 80 21t80 -21q37 -22 59 -59q21 -37 21 -80t-21 -80q-22 -37 -59 -59q-38 -21 -80 -21t-80 21q-37 22 -59 59q-21 37 -21 80v0zM236 192v-96v96v-96q1 -22 15 -37q15 -14 37 -15q22 1 37 15q14 15 15 37v96v0q-1 22 -15 37q-15 14 -37 15
q-22 -1 -37 -15q-14 -15 -15 -37v0zM288 204q11 -1 12 -12v-96v0q-1 -11 -12 -12q-11 1 -12 12v96v0q1 11 12 12v0zM156 195q3 9 12 9q11 -1 12 -13v-2v0q0 -5 -4 -10l-39 -43v0q-21 -24 -21 -56v-16v0q2 -18 20 -20h64v0q18 2 20 20q-2 18 -20 20h-44v0q2 14 11 25l39 44v0
q14 16 14 36v2v0q-1 23 -15 38q-15 14 -37 15q-37 -2 -50 -36l-1 -2v0q-4 -17 13 -25q18 -4 25 13l1 1v0z" />
    <glyph glyph-name="shop-slash" unicode="&#xe070;" horiz-adv-x="640" 
d="M39 443q-19 12 -34 -4q-12 -19 4 -34l592 -464v0q19 -12 34 4q12 19 -4 34l-55 43v0v202v0h26v0q16 0 27 11t11 27q0 10 -5 18l-77 143v0q-15 24 -42 25h-391v0q-28 -1 -43 -25l-5 -10v0l-38 30v0zM115 383l10 17l-10 -17l10 17h391v0l69 -128v0h-328v0l-142 111v0z
M318 224h210h-210h210v-165v0l-210 165v0zM0 262q0 -16 11 -27v0v0q11 -11 27 -11h26v0v-248v0q0 -17 12 -28q11 -12 28 -12h240v0q17 0 28 12q12 11 12 28v73v0l-100 79v0h-172v0v96v0h51v0l-61 48v0h-47v0l14 26v0l-38 30v0l-26 -47v0q-5 -9 -5 -19v0zM112 -16v96v-96v96
h224v0v-96v0h-224v0z" />
    <glyph glyph-name="store-slash" unicode="&#xe071;" horiz-adv-x="640" 
d="M39 443q-19 12 -34 -4q-12 -19 4 -34l592 -464v0q19 -12 34 4q12 19 -4 34l-87 68v0v17v0v48v0v83v0l-12 -2v0q-8 -1 -17 -1q-10 0 -19 2v-82v0h-35v0l-160 125v0l6 4q7 5 13 12q6 -7 13 -12q22 -16 52 -17q30 1 52 17q7 6 13 12q6 -6 13 -12q23 -16 53 -17q6 0 12 1
q42 8 58 45q15 37 -6 74l-58 91v0q-8 13 -24 13h-356v0q-16 0 -24 -13l-23 -36v0l-56 44v0zM133 369l19 31l-19 -31l19 31h336v0l51 -82v0v0v0q9 -14 2 -30q-6 -14 -20 -16h-5q-18 1 -30 13q-15 16 -36 16q-21 -1 -35 -16q-12 -13 -30 -13t-30 13q-14 16 -35 16t-36 -16
q-10 -12 -27 -13l-124 97v0zM49 313q-4 -31 13 -57v0v0q17 -26 50 -31q6 -1 12 -1q17 0 31 6l-106 83v0zM366 64l-61 48l61 -48l-61 48h-161v0v82v0q-10 -2 -20 -2q-8 0 -16 1v0v0l-12 2v-83v0v-48v0v-64v0q1 -27 19 -45t45 -19h320v0q20 0 35 10l-48 38v0h-307v0
q-15 1 -16 16v64v0h222v0z" />
    <glyph glyph-name="toilet-paper-slash" unicode="&#xe072;" horiz-adv-x="640" 
d="M39 443q-19 12 -34 -4q-12 -19 4 -34l592 -464v0q19 -12 34 4q12 19 -4 34l-113 88v0q22 7 36 21q20 21 31 47q23 52 23 121t-23 121q-11 26 -31 46q-21 23 -58 25h-4v0v0h-332v0q-38 -2 -64 -50l-57 45v0zM134 368v1v0v0l1 1q10 20 19 26q3 3 5 4h1v0h259v0
q-7 -11 -12 -23q-23 -52 -23 -121q0 -45 -3 -82l-247 194v0zM427 139q5 51 5 117q1 58 17 98q17 40 42 46h5q27 -2 45 -42q18 -41 19 -102q-1 -61 -19 -102q-18 -40 -45 -42h-35v0l-34 27v0zM21 -16q-7 -11 -4 -23q1 -5 3 -9q10 -15 28 -16h286v0q17 0 32 9t23 27
q9 19 19 58l-42 33v0q-12 -53 -21 -73q-1 -3 -4 -4q-3 -2 -7 -2h-260v0q26 63 32 128q7 78 6 144v8l-45 36v0q-3 -21 -3 -44q1 -59 -4 -126q-6 -66 -29 -124l-10 -22v0v0v0zM496 208q10 1 17 14v0v0q7 14 7 34t-7 34q-7 13 -17 14q-10 -1 -17 -14q-7 -14 -7 -34t7 -34
q7 -13 17 -14v0z" />
    <glyph glyph-name="users-slash" unicode="&#xe073;" horiz-adv-x="640" 
d="M39 443q-19 12 -34 -4q-12 -19 4 -34l592 -464v0q19 -12 34 4q12 19 -4 34l-190 149v0h178v0q19 2 21 21q-1 46 -31 76t-76 31h-42v0q-24 0 -45 -10q2 -11 2 -22q-1 -46 -28 -80l-25 20v0q20 25 21 60q-1 41 -28 68t-68 28q-48 -2 -76 -38l-41 32v0q20 22 21 54
q-1 34 -23 57q-23 22 -57 23q-43 -2 -66 -36l-39 31v0zM282 253q14 18 38 19q20 -1 34 -14q13 -14 14 -34q0 -18 -11 -31l-75 60v0zM107 256q-46 -1 -76 -31v0v0q-30 -30 -31 -76q2 -19 21 -21h214v0v0v0q-31 28 -40 71l-73 57v0h-15v0zM261 96q-56 -1 -94 -39v0v0
q-38 -38 -39 -94q2 -25 27 -27h330v0q17 1 24 15l-49 39v0q0 -2 1 -4v-2h-282v0q7 28 30 46q22 17 52 18h118v0h7l-61 48v0h-64v0zM512 288q45 1 69 40q22 40 0 80q-24 39 -69 40q-45 -1 -69 -40q-22 -40 0 -80q24 -39 69 -40v0z" />
    <glyph glyph-name="virus" unicode="&#xe074;" 
d="M75 373q10 9 23 9v0v0q12 0 22 -9l9 -8v0q29 -25 60 -12q32 13 35 51v12v0q0 14 9 23t23 9t23 -9t9 -23v-12v0q3 -38 35 -51q31 -13 61 12l8 8v0q10 9 22 9q13 0 23 -9q9 -10 9 -23q0 -12 -9 -22l-8 -8v0q-25 -30 -12 -61q13 -32 52 -35h11v0q14 0 23 -9t9 -23t-9 -23
t-23 -9h-11v0q-39 -3 -52 -35q-13 -31 12 -61l8 -8v0q9 -10 9 -22q0 -13 -9 -23q-10 -9 -23 -9q-12 0 -22 9l-8 8v0q-30 25 -61 12q-32 -13 -35 -52v-11v0q0 -14 -9 -23t-23 -9t-23 9t-9 23v11v0q-3 39 -35 52q-31 13 -61 -12l-8 -8v0q-10 -9 -22 -9q-13 0 -23 9
q-9 10 -9 23q0 12 9 22l8 8v0q25 30 12 61q-13 32 -51 35h-12v0q-14 0 -23 9t-9 23t9 23t23 9h12v0q38 3 51 35q13 31 -12 61l-8 8v0q-9 10 -9 22q0 13 9 23v0zM256 348q-18 -27 -48 -40v0v0q-30 -12 -63 -5q7 -33 -5 -63q-13 -30 -40 -48q27 -18 40 -48q12 -30 5 -63
q33 7 63 -5q30 -13 48 -40q18 27 48 40q30 12 63 5q-7 33 5 63q13 30 40 48q-27 18 -40 48q-12 30 -5 63q-33 -7 -63 5q-30 13 -48 40v0zM192 224q0 14 9 23v0v0q9 9 23 9t23 -9t9 -23t-9 -23t-23 -9t-23 9t-9 23v0zM304 168q22 -2 24 -24q-2 -22 -24 -24q-22 2 -24 24
q2 22 24 24v0z" />
    <glyph glyph-name="virus-slash" unicode="&#xe075;" horiz-adv-x="640" 
d="M39 443q-19 12 -34 -4q-12 -19 4 -34l592 -464v0q19 -12 34 4q12 19 -4 34l-154 121v0q-2 23 14 41q15 18 42 19h11v0q14 0 23 9t9 23t-9 23t-23 9h-11v0q-39 3 -52 35q-13 31 12 61l8 8v0q9 10 9 22q0 13 -9 23q-10 9 -23 9q-12 0 -22 -9l-8 -8v0q-30 -25 -61 -12
q-32 13 -35 51v12v0q0 14 -9 23t-23 9t-23 -9t-9 -23v-12v0q-3 -38 -35 -51q-31 -13 -61 12l-8 8v0q-10 9 -22 9q-13 0 -23 -9q-3 -2 -4 -5l-96 75v0zM220 301q30 -3 57 10v0v0q26 12 43 37q18 -27 48 -40q30 -12 63 -5q-7 -33 5 -63q13 -30 40 -48q-32 -21 -43 -58
l-213 167v0zM402 35l-45 35l45 -35l-45 35q-22 -12 -37 -34q-18 27 -48 40q-30 12 -63 5q7 33 -5 63q-13 30 -40 48q10 7 19 16l-38 30v0q-15 -13 -38 -14h-11v0q-14 0 -23 -9t-9 -23t9 -23t23 -9h12v0q38 -3 51 -35q13 -31 -12 -61l-8 -8v0q-9 -10 -9 -22q0 -13 9 -23
q10 -9 23 -9q12 0 22 9l8 8v0q30 25 61 12q32 -13 35 -52v-11v0q0 -14 9 -23t23 -9t23 9t9 23v11v0q1 24 15 39q15 15 35 17v0z" />
    <glyph glyph-name="viruses" unicode="&#xe076;" horiz-adv-x="640" 
d="M328 154q14 -17 0 -34q-17 -14 -34 0l-10 10v0q-20 18 -43 8q-23 -9 -25 -37v-13v0q-2 -22 -24 -24q-22 2 -24 24v13v0q-2 28 -25 37q-22 10 -43 -8l-10 -10v0q-17 -14 -34 0q-14 17 0 34l10 10v0q18 21 8 43q-9 23 -36 25h-14v0q-22 2 -24 24q2 22 24 24h14v0
q27 2 36 25q10 22 -8 43l-10 10v0q-14 17 0 34q17 14 34 0l10 -10v0q21 -18 43 -8q23 9 25 36v14v0q2 22 24 24q22 -2 24 -24v-14v0q2 -27 25 -36q22 -10 43 8l10 10v0q17 14 34 0q14 -17 0 -34l-10 -10v0q-18 -21 -8 -43q9 -23 37 -25h13v0q22 -2 24 -24q-2 -22 -24 -24
h-13v0q-28 -2 -37 -25q-10 -22 8 -43v0v0l10 -10v0zM286 256q-28 27 -28 66q-16 0 -32 6q-19 7 -34 22q-27 -28 -66 -28q0 -38 -28 -66q28 -28 28 -66q38 0 66 -28q28 28 66 28q0 39 28 66v0zM512 208q2 -25 23 -34v0v0q21 -9 40 8q12 9 23 0q9 -12 0 -23q-17 -19 -8 -40
t34 -23q15 -1 16 -16q-1 -15 -16 -16q-25 -2 -34 -23t8 -40q9 -12 0 -23q-11 -9 -23 0q-19 17 -40 8t-23 -34q-1 -15 -16 -16q-15 1 -16 16q-2 25 -23 34t-40 -8q-12 -9 -23 0q-9 12 0 23q17 19 8 40t-34 23q-15 1 -16 16q1 15 16 16q25 2 34 23t-8 40q-9 12 0 23q12 9 23 0
q19 -17 40 -8t23 34q1 15 16 16q15 -1 16 -16v0zM512 96q0 14 -9 23v0v0q-9 9 -23 9t-23 -9t-9 -23t9 -23t23 -9t23 9t9 23v0zM152 272q2 22 24 24q22 -2 24 -24q-2 -22 -24 -24q-22 2 -24 24v0zM224 256q15 -1 16 -16q-1 -15 -16 -16q-15 1 -16 16q1 15 16 16v0z" />
    <glyph glyph-name="vest" unicode="&#xe085;" horiz-adv-x="448" 
d="M104 448h8h-8h13q30 -3 46 -19q7 -7 22 -14q15 -6 39 -7q24 1 39 7q15 7 22 14q16 16 46 19h5h8h6q21 -3 35 -18q15 -16 15 -38v-72v0v-59v0q0 -6 3 -12l35 -57v0q10 -17 10 -37v-163v0q-1 -24 -16 -40q-16 -15 -40 -16h-128v0q-24 1 -40 16q-15 16 -16 40v161v0
q0 11 3 21l59 192v0q-20 -6 -46 -6t-45 6l28 -95v0l-25 -82v0l-62 205v0q-2 6 -8 6h-8v0q-7 -1 -8 -8v-72v0v-59v0q0 -20 -10 -37l-35 -57v0q-3 -6 -3 -12v-105v0l55 55v0q17 14 34 0q14 -17 0 -34l-86 -86v0q2 -1 5 -1h120v0q3 -27 19 -47q-5 -1 -11 -1h-128v0
q-24 1 -40 16q-15 16 -16 40v163v0q0 20 10 37l35 57v0q3 6 3 12v59v0v72v0q1 24 16 40q16 15 40 16v0zM352 392q-1 7 -8 8v0v0h-8v0q-6 0 -8 -6l-71 -234v0q-1 -4 -1 -7v-161v0q1 -7 8 -8h128v0q3 0 5 1l-86 86v0q-14 17 0 34q17 14 34 0l55 -55v0v105v0q0 6 -3 12l-35 57
v0q-10 17 -10 37v59v0v72v0z" />
    <glyph glyph-name="vest-patches" unicode="&#xe086;" horiz-adv-x="448" 
d="M179 366l28 -95l-28 95l28 -95l-25 -82v0l-64 211v0v0h-1h-13v0q-7 -1 -8 -8v-72v0v-59v0q0 -20 -10 -37l-35 -57v0q-3 -6 -3 -12v-163v0q1 -7 8 -8h120v0q3 -27 19 -47q-5 -1 -11 -1h-128v0q-24 1 -40 16q-15 16 -16 40v163v0q0 20 10 37l35 57v0q3 6 3 12v59v0v72v0
q1 24 16 40q16 15 40 16h13h7q16 0 27 -10q7 -5 12 -9q7 -7 22 -14q15 -6 39 -7q24 1 39 7q15 7 22 14q5 5 12 9q11 10 27 10h7h13q24 -1 40 -16q15 -16 16 -40v-72v0v-59v0q0 -6 3 -12l35 -57v0q10 -17 10 -37v-163v0q-1 -24 -16 -40q-16 -15 -40 -16h-128v0q-24 1 -40 16
q-15 16 -16 40v161v0q0 11 3 21l59 192v0q-20 -6 -46 -6t-45 6v0zM330 400l-73 -240l73 240l-73 -240q-1 -4 -1 -7v-161v0q1 -7 8 -8h128v0q7 1 8 8v163v0q0 6 -3 12l-35 57v0q-10 17 -10 37v59v0v72v0q0 6 -6 8h-2h-13v0h-1v0zM288 160v8v-8v8q2 22 24 24q22 -2 24 -24v-8
v0h8v0q22 -2 24 -24q-2 -22 -24 -24h-8h-32q-15 1 -16 16v32v0zM85 187q11 10 22 0l13 -12v0l13 12v0q11 10 22 0q10 -11 0 -22l-12 -13v0l12 -13v0q10 -11 0 -22q-11 -10 -22 0l-13 12v0l-13 -12v0q-11 -10 -22 0q-10 11 0 22l12 13v0l-12 13v0q-10 11 0 22v0zM112 88
q23 -1 35 -20q10 -20 0 -40q-12 -19 -35 -20q-23 1 -35 20q-10 20 0 40q12 19 35 20v0z" />
    <glyph glyph-name="airplay" unicode="&#xe089;" horiz-adv-x="576" 
d="M480 368h-384h384h-384q-20 -1 -34 -14q-13 -14 -14 -34v-192v0q1 -20 14 -34q14 -13 34 -14h54v0l-35 -35v0q-6 -6 -10 -13h-9v0q-41 1 -68 28t-28 68v192v0q1 41 28 68t68 28h384v0q41 -1 68 -28t28 -68v-192v0q-1 -41 -28 -68t-68 -28h-9v0q-4 7 -10 13l-34 35v0h53v0
q20 1 34 14q13 14 14 34v192v0q-1 20 -14 34q-14 13 -34 14v0zM199 16h178h-178h178l-89 89v0l-89 -89v0zM311 151l128 -128l-128 128l128 -128q14 -16 7 -35q-9 -19 -30 -20h-256v0q-21 1 -30 20q-7 19 7 35l128 128v0q10 9 23 9t22 -9h1z" />
    <glyph glyph-name="alt" unicode="&#xe08a;" horiz-adv-x="640" 
d="M468 328q7 8 18 8h130v0q22 2 24 24q-2 22 -24 24h-130v0q-33 -1 -55 -25l-259 -303v0q-7 -8 -18 -8h-130v0q-22 -2 -24 -24q2 -22 24 -24h130v0q33 1 55 25l259 303v0zM440 48q-22 -2 -24 -24q2 -22 24 -24h176v0q22 2 24 24q-2 22 -24 24h-176v0z" />
    <glyph glyph-name="angle" unicode="&#xe08c;" horiz-adv-x="448" 
d="M253 381q9 20 -10 32q-20 9 -32 -10l-208 -400v0q-6 -12 1 -23q7 -12 20 -12h400v0q22 2 24 24q-2 22 -24 24h-360v0l189 365v0zM242 272l-23 -43l23 43l-23 -43q29 -24 52 -54l40 26v0q-29 41 -69 71v0zM323 56h49h-49h49q-10 56 -35 104l-41 -26v0q19 -36 27 -78v0z
" />
    <glyph glyph-name="angle-90" unicode="&#xe08d;" horiz-adv-x="448" 
d="M48 392q-2 22 -24 24q-22 -2 -24 -24v-400v0q2 -22 24 -24h400v0q22 2 24 24q-2 22 -24 24h-376v0v376v0zM96 350v-48v48v-48q47 -6 87 -26l26 41v0q-52 27 -113 33v0zM211 261q50 -32 82 -82l41 25v0q-38 59 -98 98l-25 -41v0zM334 64h48h-48h48q-6 61 -32 113l-42 -26
v0q20 -40 26 -87v0z" />
    <glyph glyph-name="apple-core" unicode="&#xe08f;" horiz-adv-x="384" 
d="M192 336q-15 1 -16 16v16v0q1 34 23 57q23 22 57 23h16v0q15 -1 16 -16v-16v0q-1 -34 -23 -57q-23 -22 -57 -23h-16v0zM128 -16q7 0 25 5q39 12 78 0q17 -5 25 -5q17 0 39 13q-53 61 -55 147q1 70 38 124q-20 -4 -39 -12q-47 -18 -94 0q-19 8 -39 12q37 -54 38 -124
q-2 -86 -55 -147q21 -13 39 -13v0zM304 320q10 0 19 -2v0v0h1v0q17 -4 30 -13q7 -4 6 -12q0 -7 -6 -12q-31 -25 -48 -60q-18 -35 -18 -77q0 -41 17 -76t46 -59q12 -11 3 -23q-44 -49 -98 -50q-19 1 -39 7q-25 7 -50 0q-20 -6 -39 -7q-54 1 -98 50q-9 12 2 23q30 24 47 59
t17 76q0 42 -18 77q-17 35 -47 60q-13 13 -1 24q14 9 30 13h1v0v0v0q9 2 19 2q21 0 43 -6t40 -13q29 -11 58 0q18 7 40 13t43 6v0z" />
    <glyph glyph-name="arrow-down-from-dotted-line" unicode="&#xe090;" horiz-adv-x="448" 
d="M242 -24q-8 -8 -18 -8t-17 8l-128 136v0q-14 17 1 33q17 14 33 -1l87 -92v0v84v0v128v0q2 22 24 24q22 -2 24 -24v-128v0v-84v0l87 92v0q16 15 33 1q15 -16 1 -34l-128 -136zM32 416q14 0 23 -9v0v0q9 -9 9 -23t-9 -23t-23 -9t-23 9t-9 23t9 23t23 9v0zM128 416
q14 0 23 -9v0v0q9 -9 9 -23t-9 -23t-23 -9t-23 9t-9 23t9 23t23 9v0zM256 384q0 -14 -9 -23v0v0q-9 -9 -23 -9t-23 9t-9 23t9 23t23 9t23 -9t9 -23v0zM320 416q14 0 23 -9v0v0q9 -9 9 -23t-9 -23t-23 -9t-23 9t-9 23t9 23t23 9v0zM448 384q0 -14 -9 -23v0v0q-9 -9 -23 -9
t-23 9t-9 23t9 23t23 9t23 -9t9 -23v0z" />
    <glyph glyph-name="arrow-down-left" unicode="&#xe091;" horiz-adv-x="384" 
d="M56 32q-22 2 -24 24v240v0q2 22 24 24q22 -2 24 -24v-182v0l231 231v0q17 14 34 0q14 -17 0 -34l-231 -231v0h182v0q22 -2 24 -24q-2 -22 -24 -24h-240v0z" />
    <glyph glyph-name="arrow-down-left-and-arrow-up-right-to-center" unicode="&#xe092;" 
d="M489 391q14 17 0 34q-17 14 -34 0l-135 -135v0v86v0q-2 22 -24 24q-22 -2 -24 -24v-144v0q2 -22 24 -24h144v0q22 2 24 24q-2 22 -24 24h-86v0l135 135v0zM23 -7q-14 -17 0 -34q17 -14 34 0l135 135v0v-86v0q2 -22 24 -24q22 2 24 24v144v0q-2 22 -24 24h-144v0
q-22 -2 -24 -24q2 -22 24 -24h86v0l-135 -135v0z" />
    <glyph glyph-name="arrow-down-right" unicode="&#xe093;" horiz-adv-x="384" 
d="M328 32q22 2 24 24v240v0q-2 22 -24 24q-22 -2 -24 -24v-182v0l-231 231v0q-17 14 -34 0q-14 -17 0 -34l231 -231v0h-182v0q-22 -2 -24 -24q2 -22 24 -24h240v0z" />
    <glyph glyph-name="arrow-down-to-bracket" unicode="&#xe094;" horiz-adv-x="448" 
d="M369 231l-128 -128l128 128l-128 -128q-17 -14 -34 0l-128 128v0q-14 17 0 34q17 14 34 0l87 -87v0v246v0q2 22 24 24q22 -2 24 -24v-246v0l87 87v0q17 14 34 0q14 -17 0 -34v0zM48 104v-80v80v-80q0 -17 12 -28q11 -12 28 -12h272v0q17 0 28 12q12 11 12 28v80v0
q2 22 24 24q22 -2 24 -24v-80v0q-1 -37 -26 -62t-62 -26h-272v0q-37 1 -62 26t-26 62v80v0q2 22 24 24q22 -2 24 -24v0z" />
    <glyph glyph-name="arrow-down-to-dotted-line" unicode="&#xe095;" horiz-adv-x="448" 
d="M32 32q14 0 23 -9v0v0q9 -9 9 -23t-9 -23t-23 -9t-23 9t-9 23t9 23t23 9v0zM128 32q14 0 23 -9v0v0q9 -9 9 -23t-9 -23t-23 -9t-23 9t-9 23t9 23t23 9v0zM256 0q0 -14 -9 -23v0v0q-9 -9 -23 -9t-23 9t-9 23t9 23t23 9t23 -9t9 -23v0zM320 32q14 0 23 -9v0v0q9 -9 9 -23
t-9 -23t-23 -9t-23 9t-9 23t9 23t23 9v0zM448 0q0 -14 -9 -23v0v0q-9 -9 -23 -9t-23 9t-9 23t9 23t23 9t23 -9t9 -23v0zM242 88q-8 -8 -18 -8t-17 8l-128 136v0q-14 17 1 33q17 14 33 -1l87 -92v0v84v0v128v0q2 22 24 24q22 -2 24 -24v-128v0v-84v0l87 92v0q16 15 33 1
q15 -16 1 -34l-128 -136z" />
    <glyph glyph-name="arrow-down-to-square" unicode="&#xe096;" 
d="M385 215q14 17 0 34q-17 14 -34 0l-71 -71v0v246v0q-2 22 -24 24q-22 -2 -24 -24v-246v0l-71 71v0q-17 14 -34 0q-14 -17 0 -34l112 -112v0q17 -14 34 0l112 112v0zM72 416q-31 -1 -51 -21v0v0q-20 -20 -21 -51v-336v0q1 -31 21 -51t51 -21h368v0q31 1 51 21t21 51v336v0
q-1 31 -21 51t-51 21h-48v0q-22 -2 -24 -24q2 -22 24 -24h48v0q22 -2 24 -24v-336v0q-2 -22 -24 -24h-368v0q-22 2 -24 24v336v0q2 22 24 24h48v0q22 2 24 24q-2 22 -24 24h-48v0z" />
    <glyph glyph-name="arrow-trend-down" unicode="&#xe097;" horiz-adv-x="576" 
d="M352 56q2 -22 24 -24h176v0q22 2 24 24v176v0q-2 22 -24 24q-22 -2 -24 -24v-118v0l-191 191v0q-17 14 -34 0l-111 -111v0l-151 151v0q-17 14 -34 0q-14 -17 0 -34l168 -168v0q17 -14 34 0l111 111v0l174 -174v0h-118v0q-22 -2 -24 -24v0z" />
    <glyph glyph-name="arrow-trend-up" unicode="&#xe098;" horiz-adv-x="576" 
d="M352 328q2 22 24 24h176v0q22 -2 24 -24v-176v0q-2 -22 -24 -24q-22 2 -24 24v118v0l-191 -191v0q-17 -14 -34 0l-111 111v0l-151 -151v0q-17 -14 -34 0q-14 17 0 34l168 168v0q17 14 34 0l111 -111v0l174 174v0h-118v0q-22 2 -24 24v0z" />
    <glyph glyph-name="arrow-up-arrow-down" unicode="&#xe099;" horiz-adv-x="576" 
d="M529 71q14 17 0 34q-17 14 -34 0l-55 -55v0v342v0q-2 22 -24 24q-22 -2 -24 -24v-342v0l-55 55v0q-17 14 -34 0q-14 -17 0 -34l96 -96v0q17 -14 34 0l96 96v0zM177 409q-17 14 -34 0l-96 -96v0q-14 -17 0 -34q17 -14 34 0l55 55v0v-342v0q2 -22 24 -24q22 2 24 24v342v0
l55 -55v0q17 -14 34 0q14 17 0 34l-96 96v0z" />
    <glyph glyph-name="arrow-up-from-bracket" unicode="&#xe09a;" horiz-adv-x="448" 
d="M241 441q-17 14 -34 0l-128 -128v0q-14 -17 0 -34q17 -14 34 0l87 87v0v-246v0q2 -22 24 -24q22 2 24 24v246v0l87 -87v0q17 -14 34 0q14 17 0 34l-128 128v0zM48 104q-2 22 -24 24q-22 -2 -24 -24v-80v0q1 -37 26 -62t62 -26h272v0q37 1 62 26t26 62v80v0q-2 22 -24 24
q-22 -2 -24 -24v-80v0q0 -17 -12 -28q-11 -12 -28 -12h-272v0q-17 0 -28 12q-12 11 -12 28v80v0z" />
    <glyph glyph-name="arrow-up-from-dotted-line" unicode="&#xe09b;" horiz-adv-x="448" 
d="M242 408q-8 8 -18 8t-17 -8l-128 -136v0q-14 -17 1 -34q17 -13 33 1l87 92v0v-83v0v-128v0q2 -22 24 -24q22 2 24 24v128v0v83v0l87 -91v0q16 -15 33 -1q15 16 1 33l-128 136h1zM32 32q-14 0 -23 -9v0v0q-9 -9 -9 -23t9 -23t23 -9t23 9t9 23t-9 23t-23 9v0zM128 32
q-14 0 -23 -9v0v0q-9 -9 -9 -23t9 -23t23 -9t23 9t9 23t-9 23t-23 9v0zM192 0q0 -14 9 -23v0v0q9 -9 23 -9t23 9t9 23t-9 23t-23 9t-23 -9t-9 -23v0zM320 32q-14 0 -23 -9v0v0q-9 -9 -9 -23t9 -23t23 -9t23 9t9 23t-9 23t-23 9v0zM384 0q0 -14 9 -23v0v0q9 -9 23 -9t23 9
t9 23t-9 23t-23 9t-23 -9t-9 -23v0z" />
    <glyph glyph-name="arrow-up-from-square" unicode="&#xe09c;" 
d="M273 441q-17 14 -34 0l-112 -112v0q-14 -17 0 -34q17 -14 34 0l71 71v0v-246v0q2 -22 24 -24q22 2 24 24v246v0l71 -71v0q17 -14 34 0q14 17 0 34l-112 112v0zM72 416q-31 -1 -51 -21v0v0q-20 -20 -21 -51v-336v0q1 -31 21 -51t51 -21h368v0q31 1 51 21t21 51v336v0
q-1 31 -21 51t-51 21h-8v0q-22 -2 -24 -24q2 -22 24 -24h8v0q22 -2 24 -24v-336v0q-2 -22 -24 -24h-368v0q-22 2 -24 24v336v0q2 22 24 24h8v0q22 2 24 24q-2 22 -24 24h-8v0z" />
    <glyph glyph-name="arrow-up-left" unicode="&#xe09d;" horiz-adv-x="384" 
d="M56 352q-22 -2 -24 -24v-240v0q2 -22 24 -24q22 2 24 24v182v0l231 -231v0q17 -14 34 0q14 17 0 34l-231 231v0h182v0q22 2 24 24q-2 22 -24 24h-240v0z" />
    <glyph glyph-name="arrow-up-left-from-circle" unicode="&#xe09e;" 
d="M184 448h-160h160h-160q-22 -2 -24 -24v-160v0q2 -22 24 -24q22 2 24 24v102v0l247 -247v0q17 -14 34 0q14 17 0 34l-247 247v0h102v0q22 2 24 24q-2 22 -24 24v0zM288 384q-22 -2 -24 -24q2 -22 24 -24q75 -2 124 -52q50 -49 52 -124q-2 -75 -52 -124q-49 -50 -124 -52
q-75 2 -124 52q-50 49 -52 124q-2 22 -24 24q-22 -2 -24 -24q1 -63 31 -113q29 -51 80 -80q50 -30 113 -31q63 1 113 31q51 29 80 80q30 50 31 113q-1 63 -31 113q-29 51 -80 80q-50 30 -113 31v0z" />
    <glyph glyph-name="arrow-up-right" unicode="&#xe09f;" horiz-adv-x="384" 
d="M328 352q22 -2 24 -24v-240v0q-2 -22 -24 -24q-22 2 -24 24v182v0l-231 -231v0q-17 -14 -34 0q-14 17 0 34l231 231v0h-182v0q-22 2 -24 24q2 22 24 24h240v0z" />
    <glyph glyph-name="arrow-up-right-and-arrow-down-left-from-center" unicode="&#xe0a0;" 
d="M295 265q-14 -17 0 -34q17 -14 34 0l135 135v0v-86v0q2 -22 24 -24q22 2 24 24v144v0q-2 22 -24 24h-144v0q-22 -2 -24 -24q2 -22 24 -24h86v0l-135 -135v0zM217 119q14 17 0 34q-17 14 -34 0l-135 -135v0v86v0q-2 22 -24 24q-22 -2 -24 -24v-144v0q2 -22 24 -24h144v0
q22 2 24 24q-2 22 -24 24h-86v0l135 135v0z" />
    <glyph glyph-name="arrow-up-to-dotted-line" unicode="&#xe0a1;" horiz-adv-x="448" 
d="M32 416q-14 0 -23 -9v0v0q-9 -9 -9 -23t9 -23t23 -9t23 9t9 23t-9 23t-23 9v0zM128 416q-14 0 -23 -9v0v0q-9 -9 -9 -23t9 -23t23 -9t23 9t9 23t-9 23t-23 9v0zM192 384q0 -14 9 -23v0v0q9 -9 23 -9t23 9t9 23t-9 23t-23 9t-23 -9t-9 -23v0zM320 416q-14 0 -23 -9v0v0
q-9 -9 -9 -23t9 -23t23 -9t23 9t9 23t-9 23t-23 9v0zM384 384q0 -14 9 -23v0v0q9 -9 23 -9t23 9t9 23t-9 23t-23 9t-23 -9t-9 -23v0zM242 296q-8 8 -18 8t-17 -8l-128 -136v0q-14 -17 1 -34q17 -13 33 1l87 92v0v-83v0v-128v0q2 -22 24 -24q22 2 24 24v128v0v83v0l87 -91v0
q16 -15 33 -1q15 16 1 33l-128 136h1z" />
    <glyph glyph-name="arrows-cross" unicode="&#xe0a2;" horiz-adv-x="448" 
d="M296 416q-22 -2 -24 -24q2 -22 24 -24h70v0l-359 -359v0q-14 -17 0 -34q17 -14 34 0l359 359v0v-70v0q2 -22 24 -24q22 2 24 24v128v0q-2 22 -24 24h-128v0zM41 409q-17 14 -34 0q-14 -17 0 -34l160 -160v0l34 33v0l-160 161v0zM247 135l119 -119l-119 119l119 -119h-70
v0q-22 -2 -24 -24q2 -22 24 -24h128v0q22 2 24 24v128v0q-2 22 -24 24q-22 -2 -24 -24v-70v0l-119 119v0l-34 -34v0z" />
    <glyph glyph-name="arrows-from-dotted-line" unicode="&#xe0a3;" horiz-adv-x="448" 
d="M241 441q-17 14 -34 0l-72 -72v0q-14 -17 0 -34q17 -14 34 0l31 31v0v-86v0q2 -22 24 -24q22 2 24 24v86v0l31 -31v0q17 -14 34 0q14 17 0 34l-72 72v0zM248 104q-2 22 -24 24q-22 -2 -24 -24v-86v0l-31 31v0q-17 14 -34 0q-14 -17 0 -34l72 -72v0q17 -14 34 0l72 72v0
q14 17 0 34q-17 14 -34 0l-31 -31v0v86v0zM32 224q-14 0 -23 -9v0v0q-9 -9 -9 -23t9 -23t23 -9t23 9t9 23t-9 23t-23 9v0zM128 224q-14 0 -23 -9v0v0q-9 -9 -9 -23t9 -23t23 -9t23 9t9 23t-9 23t-23 9v0zM192 192q0 -14 9 -23v0v0q9 -9 23 -9t23 9t9 23t-9 23t-23 9t-23 -9
t-9 -23v0zM320 224q-14 0 -23 -9v0v0q-9 -9 -9 -23t9 -23t23 -9t23 9t9 23t-9 23t-23 9v0zM384 192q0 -14 9 -23v0v0q9 -9 23 -9t23 9t9 23t-9 23t-23 9t-23 -9t-9 -23v0z" />
    <glyph glyph-name="arrows-from-line" unicode="&#xe0a4;" horiz-adv-x="448" 
d="M241 441q-17 14 -34 0l-72 -72v0q-14 -17 0 -34q17 -14 34 0l31 31v0v-86v0q2 -22 24 -24q22 2 24 24v86v0l31 -31v0q17 -14 34 0q14 17 0 34l-72 72v0zM248 104q-2 22 -24 24q-22 -2 -24 -24v-86v0l-31 31v0q-17 14 -34 0q-14 -17 0 -34l72 -72v0q17 -14 34 0l72 72v0
q14 17 0 34q-17 14 -34 0l-31 -31v0v86v0zM24 216q-22 -2 -24 -24q2 -22 24 -24h400v0q22 2 24 24q-2 22 -24 24h-400v0z" />
    <glyph glyph-name="arrows-minimize" unicode="&#xe0a5;" 
d="M23 425q17 14 34 0l119 -119v0v86v0q2 22 24 24q22 -2 24 -24v-144v0q-2 -22 -24 -24h-144v0q-22 2 -24 24q2 22 24 24h86v0l-119 119v0q-14 17 0 34v0zM489 425q14 -17 0 -34l-119 -119v0h86v0q22 -2 24 -24q-2 -22 -24 -24h-144v0q-22 2 -24 24v144v0q2 22 24 24
q22 -2 24 -24v-86v0l119 119v0q17 14 34 0v0zM56 112q-22 2 -24 24q2 22 24 24h144v0q22 -2 24 -24v-144v0q-2 -22 -24 -24q-22 2 -24 24v86v0l-119 -119v0q-17 -14 -34 0q-14 17 0 34l119 119v0h-86v0zM288 136q2 22 24 24h144v0q22 -2 24 -24q-2 -22 -24 -24h-86v0
l119 -119v0q14 -17 0 -34q-17 -14 -34 0l-119 119v0v-86v0q-2 -22 -24 -24q-22 2 -24 24v144v0z" />
    <glyph glyph-name="arrows-to-dotted-line" unicode="&#xe0a6;" horiz-adv-x="448" 
d="M241 263l72 72l-72 -72l72 72q14 17 0 34q-17 14 -34 0l-31 -31v0v86v0q-2 22 -24 24q-22 -2 -24 -24v-86v0l-31 31v0q-17 14 -34 0q-14 -17 0 -34l72 -72v0q17 -14 34 0v0zM0 192q0 -14 9 -23v0v0q9 -9 23 -9t23 9t9 23t-9 23t-23 9t-23 -9t-9 -23v0zM96 192
q0 -14 9 -23v0v0q9 -9 23 -9t23 9t9 23t-9 23t-23 9t-23 -9t-9 -23v0zM224 224q-14 0 -23 -9v0v0q-9 -9 -9 -23t9 -23t23 -9t23 9t9 23t-9 23t-23 9v0zM288 192q0 -14 9 -23v0v0q9 -9 23 -9t23 9t9 23t-9 23t-23 9t-23 -9t-9 -23v0zM416 224q-14 0 -23 -9v0v0q-9 -9 -9 -23
t9 -23t23 -9t23 9t9 23t-9 23t-23 9v0zM313 49l-72 72l72 -72l-72 72q-17 14 -34 0l-72 -72v0q-14 -17 0 -34q17 -14 34 0l31 31v0v-86v0q2 -22 24 -24q22 2 24 24v86v0l31 -31v0q17 -14 34 0q14 17 0 34v0z" />
    <glyph glyph-name="arrows-to-line" unicode="&#xe0a7;" horiz-adv-x="448" 
d="M241 263l72 72l-72 -72l72 72q14 17 0 34q-17 14 -34 0l-31 -31v0v86v0q-2 22 -24 24q-22 -2 -24 -24v-86v0l-31 31v0q-17 14 -34 0q-14 -17 0 -34l72 -72v0q17 -14 34 0v0zM0 192q2 -22 24 -24h400v0q22 2 24 24q-2 22 -24 24h-400v0q-22 -2 -24 -24v0zM241 121
q-17 14 -34 0l-72 -72v0q-14 -17 0 -34q17 -14 34 0l31 31v0v-86v0q2 -22 24 -24q22 2 24 24v86v0l31 -31v0q17 -14 34 0q14 17 0 34l-72 72v0z" />
    <glyph glyph-name="audio-description-slash" unicode="&#xe0a8;" horiz-adv-x="640" 
d="M39 443q-19 12 -34 -4q-12 -19 4 -34l592 -464v0q19 -12 34 4q12 19 -4 34l-30 23v0q7 14 7 30v320v0q-1 27 -19 45t-45 19h-448v0q-10 0 -19 -3l-38 30v0zM134 368h410h-410h410q15 -1 16 -16v-318v0l-95 75v0q21 13 34 35q13 21 13 48q-1 41 -28 68t-68 28h-56v0
q-22 -2 -24 -24v-54v0l-202 158v0zM420 144l-36 28l36 -28l-36 28v68v0h32v0q20 -1 34 -14q13 -14 14 -34q0 -19 -13 -33q-12 -13 -31 -15v0zM487 -32l-60 48l60 -48l-60 48h-331v0q-15 1 -16 16v257v0l-48 38v0v-295v0q1 -27 19 -45t45 -19h391v0zM131 131q-8 -21 10 -33
q21 -7 32 11l10 19v0h82v0l9 -19v0q12 -19 33 -11q4 3 7 6l-81 64v0h-30v0l8 17v0l-38 31v0l-42 -85v0z" />
    <glyph glyph-name="austral-sign" unicode="&#xe0a9;" horiz-adv-x="448" 
d="M246 401q-6 14 -22 15q-16 -1 -22 -15l-75 -177v0h-103v0q-22 -2 -24 -24q2 -22 24 -24h83v0l-20 -48v0h-63v0q-22 -2 -24 -24q2 -22 24 -24h43v0l-33 -79v0q-7 -21 13 -31q21 -7 31 13l41 97v0h210v0l41 -97v0q10 -20 31 -13q20 10 13 31l-33 79v0h43v0q22 2 24 24
q-2 22 -24 24h-63v0l-20 48v0h83v0q22 2 24 24q-2 22 -24 24h-104v0l-74 177v0zM269 224h-90h90h-90l45 106v0l45 -106v0zM159 176h130h-130h130l20 -48v0h-170v0l20 48v0z" />
    <glyph glyph-name="avocado" unicode="&#xe0aa;" 
d="M464 304q-1 -46 -35 -74q-19 -15 -34 -37t-21 -50q-7 -35 -21 -64q-14 -30 -32 -48q-49 -47 -113 -47t-113 47q-47 49 -47 113t47 113q18 18 48 32q29 14 64 21q28 6 50 21t37 34q28 34 74 35q41 -1 68 -28t28 -68v0zM421 134q9 35 38 59q51 42 53 111q-2 61 -42 102
q-41 40 -102 42q-69 -2 -111 -53q-24 -29 -59 -38q-40 -8 -76 -25t-61 -41q-61 -64 -61 -147t61 -147q64 -61 147 -61t147 61q24 25 42 61q17 36 24 75v1zM283 101q32 33 36 71v0v0q5 38 -19 64q-26 24 -64 19q-38 -4 -71 -36q-32 -33 -36 -71q-5 -38 19 -64q26 -24 64 -19
q38 4 71 36v0z" />
    <glyph glyph-name="award-simple" unicode="&#xe0ab;" horiz-adv-x="384" 
d="M163 440q29 16 58 0l16 -10v0q1 -1 4 -1l18 1v0q33 -1 50 -29l9 -16v0q1 -2 3 -3l16 -9v0q28 -17 29 -50l-1 -18v0q0 -2 1 -4l10 -16v0q16 -29 0 -58l-10 -15v0q-1 -2 -1 -5l1 -18v0q-1 -33 -29 -50l-16 -9v0q-2 -1 -3 -3l-9 -16v0q-17 -28 -50 -29l-18 1v0q-2 0 -4 -1
l-16 -10v0q-29 -16 -58 0l-15 10v0q-2 1 -5 1l-18 -1v0q-33 1 -50 29l-9 16v0q-1 2 -3 3l-16 9v0q-28 17 -29 50l1 18v0q0 2 -1 4l-10 16v0q-16 29 0 58l10 16v0q1 1 1 4l-1 18v0q1 33 29 50l16 9v0q2 1 3 3l9 16v0q17 28 50 29l18 -1v0q2 0 4 1l16 10v0zM196 399q-4 2 -8 0
l-15 -10v0q-14 -8 -31 -8l-18 1v0q-4 0 -7 -4l-9 -16v0q-7 -15 -22 -22l-16 -9v0q-4 -3 -4 -7l1 -18v0q0 -17 -8 -31l-10 -15v0l-20 12v0l20 -12v0q-2 -4 0 -8l10 -16v0q8 -13 8 -30l-1 -18v0q0 -4 4 -7l16 -9v0q15 -8 22 -22l9 -16v0q3 -4 7 -4l18 1v0q17 0 31 -8l15 -10v0
q4 -2 8 0l16 10v0q13 8 30 8l18 -1v0q4 0 7 4l9 16v0q8 14 22 22l16 9v0q4 3 4 7l-1 18v0q0 17 8 30l10 16v0q2 4 0 8l-10 16v0q-8 13 -8 30l1 18v0q0 4 -4 7l-16 9v0q-14 8 -22 22l-9 16v0q-3 4 -7 4l-18 -1v0q-17 0 -30 8l-16 10v0zM128 256q1 36 32 55q32 18 64 0
q31 -19 32 -55q-1 -36 -32 -55q-32 -18 -64 0q-31 19 -32 55v0zM64 -44l24 102l-24 -102l24 102q18 -8 38 -8l11 1v0l9 -6v0q22 -13 46 -13t46 13l9 6v0l11 -1v0q20 0 38 8l24 -102v0q1 -10 -6 -16t-16 -3l-106 46v0l-106 -46v0q-9 -3 -16 3q-8 6 -6 16v0z" />
    <glyph glyph-name="baht-sign" unicode="&#xe0ac;" horiz-adv-x="320" 
d="M136 448q-22 -2 -24 -24v-40v0h-74v0q-16 0 -27 -11t-11 -27v-130v0v-42v0v-6v0v-126v0q0 -18 12 -30t30 -12h70v0v-40v0q2 -22 24 -24q22 2 24 24v40v0h52v0q46 1 76 32q31 30 32 76q0 32 -16 57q-16 26 -43 39q26 30 27 72q-1 46 -32 76q-30 31 -76 32h-20v0v40v0
q-2 22 -24 24v0zM112 336v-120v120v-120h-64v0v120v0h64v0zM160 216v120v-120v120h20v0q25 -1 42 -18t18 -42q-1 -25 -18 -42t-42 -18h-20v0zM112 168v-120v120v-120h-64v0v120v0h64v0zM160 48v120v-120v120h20h32q25 -1 42 -18t18 -42q-1 -25 -18 -42t-42 -18h-52v0z" />
    <glyph glyph-name="bars-filter" unicode="&#xe0ad;" horiz-adv-x="448" 
d="M0 360q2 22 24 24h400v0q22 -2 24 -24q-2 -22 -24 -24h-400v0q-22 2 -24 24v0zM64 200q2 22 24 24h272v0q22 -2 24 -24q-2 -22 -24 -24h-272v0q-22 2 -24 24v0zM288 40q-2 -22 -24 -24h-80v0q-22 2 -24 24q2 22 24 24h80v0q22 -2 24 -24v0z" />
    <glyph glyph-name="bars-sort" unicode="&#xe0ae;" horiz-adv-x="448" 
d="M0 360q2 22 24 24h400v0q22 -2 24 -24q-2 -22 -24 -24h-400v0q-22 2 -24 24v0zM0 200q2 22 24 24h272v0q22 -2 24 -24q-2 -22 -24 -24h-272v0q-22 2 -24 24v0zM192 40q-2 -22 -24 -24h-144v0q-22 2 -24 24q2 22 24 24h144v0q22 -2 24 -24v0z" />
    <glyph glyph-name="basket-shopping-simple" unicode="&#xe0af;" horiz-adv-x="576" 
d="M243 445q19 -12 10 -32l-81 -157v0h232v0l-81 157v0q-9 20 10 32q20 9 32 -10l93 -179v0h37h57q22 -2 24 -24q-2 -22 -24 -24h-20v0l-56 -224v0q-6 -21 -23 -34q-16 -14 -39 -14h-252v0q-23 0 -39 14q-17 13 -23 34l-56 224v0h-20v0q-22 2 -24 24q2 22 24 24h8h86l93 179
v0q12 19 32 10v0zM483 208h-389h389h-389l53 -212v0q3 -11 15 -12h252v0q12 1 16 12l53 212v0zM144 152q2 22 24 24q22 -2 24 -24q-2 -22 -24 -24q-22 2 -24 24v0zM408 176q22 -2 24 -24q-2 -22 -24 -24q-22 2 -24 24q2 22 24 24v0z" />
    <glyph glyph-name="battery-exclamation" unicode="&#xe0b0;" horiz-adv-x="576" 
d="M208 352v-48v48v-48h-128v0q-14 0 -23 -9t-9 -23v-160v0q0 -14 9 -23t23 -9h114v0q-2 -8 -2 -16q0 -17 7 -32h-119v0q-34 1 -57 23q-22 23 -23 57v160v0q1 34 23 57q23 22 57 23h128v0zM464 32h-119h119h-119q7 15 7 32q0 8 -2 16h114v0q14 0 23 9t9 23v160v0q0 14 -9 23
t-23 9h-128v0v48v0h128v0q34 -1 57 -23q22 -23 23 -57v-16v0q14 0 23 -9t9 -23v-64v0q0 -14 -9 -23t-23 -9v-16v0q-1 -34 -23 -57q-23 -22 -57 -23v0zM272 352q22 -2 24 -24v-176v0q-2 -22 -24 -24q-22 2 -24 24v176v0q2 22 24 24v0zM240 64q0 14 9 23v0v0q9 9 23 9t23 -9
t9 -23t-9 -23t-23 -9t-23 9t-9 23v0z" />
    <glyph glyph-name="battery-low" unicode="&#xe0b1;" horiz-adv-x="576" 
d="M464 304q14 0 23 -9v0v0q9 -9 9 -23v-160v0q0 -14 -9 -23t-23 -9h-384v0q-14 0 -23 9t-9 23v160v0q0 14 9 23t23 9h384v0zM80 352q-34 -1 -57 -23v0v0q-22 -23 -23 -57v-160v0q1 -34 23 -57q23 -22 57 -23h384v0q34 1 57 23q22 23 23 57v16v0q14 0 23 9t9 23v64v0
q0 14 -9 23t-23 9v16v0q-1 34 -23 57q-23 22 -57 23h-384v0zM160 256h-64h64h-64v-128v0h64v0v128v0z" />
    <glyph glyph-name="bee" unicode="&#xe0b2;" horiz-adv-x="576" 
d="M219 443q-11 10 -22 0q-10 -11 0 -22l31 -32v0q-19 -22 -20 -53q0 -5 1 -9q-36 24 -81 25q-51 -1 -88 -31q-38 -30 -40 -81q1 -47 34 -76q33 -30 79 -35q-1 7 -1 15q0 17 3 33q-31 4 -49 22t-18 41q1 25 22 44q22 19 58 20q28 0 48 -13q20 -12 28 -30q-28 -20 -44 -50
q-16 -31 -16 -67q2 -43 28 -85t57 -74q30 -31 45 -44q6 -5 14 -5t14 5q15 13 45 44q31 32 57 74t28 85q0 36 -16 67q-16 30 -44 50q8 18 28 30q20 13 48 13q36 -1 58 -20q21 -19 22 -44q0 -23 -18 -41t-49 -22q3 -16 3 -33q0 -8 -1 -15q46 5 79 35q33 29 34 76q-2 51 -40 81
q-37 30 -88 31q-45 -1 -80 -25v9q-1 31 -20 53l31 32v0q10 11 0 22q-11 10 -22 0l-35 -35v0q-16 8 -34 8t-34 -8l-35 35v0zM237 49q-6 8 -11 15h124v0q-5 -7 -11 -15q-28 -34 -51 -56q-23 22 -51 56v0zM377 112h-178h178h-178q-7 18 -7 32h192v0q0 -14 -7 -32v0zM371 192
h-166h166h-166q13 22 34 35q22 13 49 13t49 -13q21 -13 34 -35v0z" />
    <glyph glyph-name="beer-mug" unicode="&#xe0b3;" 
d="M208 448q-41 -1 -68 -29h-1v0q-19 13 -43 13q-34 -1 -57 -23q-22 -23 -23 -57q1 -34 23 -57q23 -22 57 -23q24 0 43 13h1q27 -28 68 -29q41 1 68 28v0v0q20 -13 45 -13q34 1 57 23q22 23 23 57q-1 35 -23 57q-23 23 -57 24q-25 0 -44 -13v0v0q-28 28 -69 29v0zM173 385
q14 14 35 15q21 -1 35 -15q14 -13 29 -14q16 -2 31 8q8 5 18 5q14 0 23 -10q9 -9 9 -23q0 -13 -9 -23q-9 -9 -23 -9q-11 0 -19 5q-15 10 -30 8q-16 0 -29 -13q-14 -14 -35 -15q-21 1 -35 15q-13 13 -29 14q-15 1 -30 -8q-8 -5 -18 -5q-14 0 -23 9t-9 23t9 23t23 9
q10 0 18 -5q15 -9 30 -7q16 0 29 13v0zM32 260v-260v260v-260q1 -27 19 -45t45 -19h224v0q27 1 45 19t19 45v0v0l87 38v0q19 9 30 26q11 16 11 37v118v0q-1 29 -20 49q-20 19 -49 20h-29v0q-28 -40 -78 -48v-223v0v-1v-1v-15v0q-1 -15 -16 -16h-224v0q-15 1 -16 16v241v0
q-27 4 -48 19v0zM208 224q-15 -1 -16 -16v-160v0q1 -15 16 -16q15 1 16 16v160v0q-1 15 -16 16v0zM320 351v0v0v0v0v0h1v0v0v0v0v0v0v0v0v0v1v0v0v0v0h-1v0v0v0v0v0l-1 -1v0h1v0zM96 352v0v0v0v0v0v0v0v0v0v0v0v0v0v0v0v0v0v0v0v0v0v0v0zM443 240q19 -2 21 -21v-118v0
q-1 -13 -12 -19l-68 -29v0v187v0h59v0zM160 208q-1 15 -16 16q-15 -1 -16 -16v-160v0q1 -15 16 -16q15 1 16 16v160v0zM288 208q-1 15 -16 16q-15 -1 -16 -16v-160v0q1 -15 16 -16q15 1 16 16v160v0z" />
    <glyph glyph-name="bitcoin-sign" unicode="&#xe0b4;" horiz-adv-x="320" 
d="M64 424q2 22 24 24q22 -2 24 -24v-40v0h32v0v40v0q2 22 24 24q22 -2 24 -24v-41v0q41 -5 68 -35q27 -29 28 -72q-1 -42 -27 -72q27 -13 43 -39q16 -25 16 -57q-1 -46 -32 -76q-30 -31 -76 -32h-20v0v-40v0q-2 -22 -24 -24q-22 2 -24 24v40v0h-32v0v-40v0q-2 -22 -24 -24
q-22 2 -24 24v40v0h-22v0q-18 0 -30 12t-12 30v126v0v6v0v42v0v130v0q0 16 11 27t27 11h26v0v40v0zM48 216h132h-132h132q25 1 42 18t18 42q-1 25 -18 42t-42 18h-132v0v-120v0zM180 168h-132h132h-132v-120v0h164v0q25 1 42 18t18 42q-1 25 -18 42t-42 18h-32v0z" />
    <glyph glyph-name="block-quote" unicode="&#xe0b5;" horiz-adv-x="448" 
d="M24 376q-22 -2 -24 -24q2 -22 24 -24h400v0q22 2 24 24q-2 22 -24 24h-400v0zM152 216q-22 -2 -24 -24q2 -22 24 -24h272v0q22 2 24 24q-2 22 -24 24h-272v0zM128 32q2 -22 24 -24h272v0q22 2 24 24q-2 22 -24 24h-272v0q-22 -2 -24 -24v0zM0 24q2 -22 24 -24q22 2 24 24
v176v0q-2 22 -24 24q-22 -2 -24 -24v-176v0z" />
    <glyph glyph-name="bolt-auto" unicode="&#xe0b6;" horiz-adv-x="576" 
d="M317 411q4 15 -4 26v0v0q-9 10 -23 11q-11 0 -19 -7l-259 -222v0q-12 -10 -12 -25t10 -24q9 -10 24 -10h86v0l-53 -187v0q-4 -15 4 -26q9 -10 23 -11q11 0 19 7l259 219v0q12 11 12 27q0 15 -10 25t-25 10h-85v0l53 187v0zM72 208l182 155l-182 -155l182 155l-45 -156v0
q-3 -12 4 -21q7 -10 19 -10h82v0l-184 -156v0l45 157v0q3 12 -4 21q-7 10 -19 10h-80v0zM464 160q-14 -1 -21 -13l-88 -176v0q-8 -21 10 -33q21 -7 32 11l14 27v0h106v0l14 -27v0q11 -18 32 -10q18 11 10 32l-88 176v0q-7 13 -21 13v0zM464 82l29 -58l-29 58l29 -58h-58v0
l29 58v0z" />
    <glyph glyph-name="bolt-lightning" unicode="&#xe0b7;" horiz-adv-x="384" 
d="M77 400l-26 -192l26 192l-26 -192h157v0q12 0 19 -9t4 -21l-23 -92v0l115 170v0h-147v0q-12 0 -20 10q-7 11 -2 23l43 111v0h-120v0zM30 413q3 16 14 25v0v0q11 10 26 10h139v0q21 -1 33 -17q11 -17 4 -38l-35 -89v0h127v0q25 -1 35 -21q11 -20 -2 -41l-199 -295v0
q-12 -15 -30 -9q-17 9 -13 28l48 194v0h-135v0q-18 1 -30 14q-11 13 -9 31l27 208v0z" />
    <glyph glyph-name="bolt-slash" unicode="&#xe0b8;" horiz-adv-x="640" 
d="M39 443q-19 12 -34 -4q-12 -19 4 -34l592 -464v0q19 -12 34 4q12 19 -4 34l-181 141v0l50 42v0q12 11 12 27q0 15 -10 25t-25 10h-85v0l53 187v0q4 15 -4 26q-9 10 -23 11q-11 0 -19 -7l-171 -146v0l-189 148v0zM266 264l116 99l-116 -99l116 99l-44 -154v0l-72 55v0z
M379 176h63h-63h63l-30 -25v0l-33 25v0zM375 57l-39 30l39 -30l-39 30l-78 -67v0l30 105v0l-41 32v0l-52 -184v0q-4 -15 4 -26q8 -10 23 -11q11 0 19 7l134 114v0zM154 231l-14 -12l14 12l-14 -12q-12 -10 -12 -25t10 -24q9 -10 24 -10h82v0l-90 71v0z" />
    <glyph glyph-name="book-arrow-right" unicode="&#xe0b9;" horiz-adv-x="640" 
d="M88 448q-37 -1 -62 -26v0v0q-25 -25 -26 -62v-336v0v0v0v-8q1 -34 23 -57q23 -22 57 -23h344v0q22 2 24 24q-2 22 -24 24h-8v0v69v0q30 16 32 51v56v0h-48v0v-56v0q-1 -7 -8 -8h-312v0q-17 0 -32 -7v271v0q0 17 12 28q11 12 28 12h304v0q7 -1 8 -8v-72v0h48v0v72v0
q-1 24 -16 40q-16 15 -40 16h-304v0zM368 48v-64v64v-64h-288v0q-14 0 -23 9t-9 23t9 23t23 9h288v0zM553 337q-17 14 -34 0q-14 -17 0 -34l39 -39v0h-278v0q-22 -2 -24 -24q2 -22 24 -24h278v0l-39 -39v0q-14 -17 0 -34q17 -14 34 0l80 80v0q14 17 0 34l-80 80v0z" />
    <glyph glyph-name="book-arrow-up" unicode="&#xe0ba;" horiz-adv-x="448" 
d="M88 448q-37 -1 -62 -26v0v0q-25 -25 -26 -62v-336v0v0v0v-8q1 -34 23 -57q23 -22 57 -23h96v0v48v0h-96v0q-14 0 -23 9t-9 23t9 23t23 9h96v0v48v0h-96v0q-17 0 -32 -7v271v0q0 17 12 28q11 12 28 12h304v0q7 -1 8 -8v-288v0q-1 -7 -8 -8h-88v0v-48v0h64v0v-64v0h-64v0
v-48v0h120v0q22 2 24 24q-2 22 -24 24h-8v0v69v0q30 16 32 51v288v0q-1 24 -16 40q-16 15 -40 16h-304v0zM143 233q-14 -17 0 -34q17 -14 34 0l39 39v0v-278v0q2 -22 24 -24q22 2 24 24v278v0l39 -39v0q17 -14 34 0q14 17 0 34l-80 80v0q-17 14 -34 0l-80 -80v0z" />
    <glyph glyph-name="book-bookmark" unicode="&#xe0bb;" horiz-adv-x="448" 
d="M0 360q1 37 26 62v0v0q25 25 62 26h304v0q24 -1 40 -16q15 -16 16 -40v-288v0q-2 -35 -32 -51v-69v0h8v0q22 -2 24 -24q-2 -22 -24 -24h-344v0q-34 1 -57 23q-22 23 -23 57v8v0v0v336v0zM80 48q-14 0 -23 -9v0v0q-9 -9 -9 -23t9 -23t23 -9h288v0v64v0h-288v0zM48 89
q15 7 32 7h312v0q7 1 8 8v288v0q-1 7 -8 8h-40v0v-159v0q-1 -10 -9 -14t-17 2l-54 43v0l-54 -43v0q-9 -6 -17 -2t-9 14v159v0h-104v0q-17 0 -28 -12q-12 -11 -12 -28v-271v0z" />
    <glyph glyph-name="book-circle-arrow-right" unicode="&#xe0bc;" horiz-adv-x="640" 
d="M88 448q-37 -1 -62 -26v0v0q-25 -25 -26 -62v-336v0v0v0v-8q1 -34 23 -57q23 -22 57 -23h315v0q-28 20 -46 48h-269v0q-14 0 -23 9t-9 23t9 23t23 9h243v0q-3 16 -3 32q0 8 1 16h-241v0q-17 0 -32 -7v271v0q0 17 12 28q11 12 28 12h304v0q7 -1 8 -8v-165v0q22 15 48 22
v143v0q-1 24 -16 40q-16 15 -40 16h-304v0zM640 80q0 39 -19 72v0v0q-19 33 -53 53q-34 19 -72 19t-72 -19q-34 -20 -53 -53t-19 -72t19 -72t53 -53q34 -19 72 -19t72 19q34 20 53 53t19 72v0zM493 147q11 10 22 0l56 -56v0q10 -11 0 -22l-56 -56v0q-11 -10 -22 0
q-10 11 0 22l28 29v0h-89v0q-15 1 -16 16q1 15 16 16h89v0l-28 29v0q-10 11 0 22v0z" />
    <glyph glyph-name="book-circle-arrow-up" unicode="&#xe0bd;" horiz-adv-x="640" 
d="M88 448q-37 -1 -62 -26v0v0q-25 -25 -26 -62v-336v0v0v0v-8q1 -34 23 -57q23 -22 57 -23h315v0q-28 20 -46 48h-269v0q-14 0 -23 9t-9 23t9 23t23 9h243v0q-3 16 -3 32q0 8 1 16h-241v0q-17 0 -32 -7v271v0q0 17 12 28q11 12 28 12h304v0q7 -1 8 -8v-165v0q22 15 48 22
v143v0q-1 24 -16 40q-16 15 -40 16h-304v0zM496 224q-39 0 -72 -19v0v0q-33 -19 -53 -53q-19 -34 -19 -72t19 -72q20 -34 53 -53t72 -19t72 19t53 53q19 34 19 72t-19 72q-20 34 -53 53t-72 19v0zM429 77q-10 11 0 22l56 56v0q11 10 22 0l56 -56v0q10 -11 0 -22
q-11 -10 -22 0l-29 28v0v-89v0q-1 -15 -16 -16q-15 1 -16 16v89v0l-29 -28v0q-11 -10 -22 0v0z" />
    <glyph glyph-name="book-copy" unicode="&#xe0be;" horiz-adv-x="576" 
d="M192 360q1 37 26 62v0v0q25 25 62 26h248v0q20 -1 34 -14q13 -14 14 -34v-112v0v-96v0q-2 -33 -32 -45v-67v0h8v0q22 -2 24 -24q-2 -22 -24 -24h-32h-248q-34 1 -57 23q-22 23 -23 57v248v0zM528 400h-248h248h-248q-17 0 -28 -12q-12 -11 -12 -28v-175v0q15 7 32 7h248
h8v96v0v112v0zM272 144q-14 0 -23 -9v0v0q-9 -9 -9 -23t9 -23t23 -9h224v0v64v0h-224v0zM160 352v-48v48v-48h-72v0q-17 0 -28 -12q-12 -11 -12 -28v-175v0q15 7 32 7h81v0q4 -27 19 -48h-100v0q-14 0 -23 -9t-9 -23t9 -23t23 -9h224v0v16v0h48v0v-16v0h8v0q22 -2 24 -24
q-2 -22 -24 -24h-32h-248q-34 1 -57 23q-22 23 -23 57v248v0q1 37 26 62t62 26h72v0z" />
    <glyph glyph-name="book-font" unicode="&#xe0bf;" horiz-adv-x="448" 
d="M0 360q1 37 26 62v0v0q25 25 62 26h304v0q24 -1 40 -16q15 -16 16 -40v-288v0q-2 -35 -32 -51v-69v0h8v0q22 -2 24 -24q-2 -22 -24 -24h-344v0q-34 1 -57 23q-22 23 -23 57v8v0v0v336v0zM80 48q-14 0 -23 -9v0v0q-9 -9 -9 -23t9 -23t23 -9h288v0v64v0h-288v0zM48 89
q15 7 32 7h312v0q7 1 8 8v288v0q-1 7 -8 8h-304v0q-17 0 -28 -12q-12 -11 -12 -28v-271v0zM262 355l88 -176l-88 176l88 -176q7 -21 -11 -33q-21 -7 -32 11l-18 35v0v0h-1h-96v0h-1v0l-18 -35v0q-11 -19 -32 -11q-19 12 -10 33l88 176v0q7 12 21 13q15 0 22 -13v0zM265 240
l-25 50l25 -50l-25 50l-25 -50v0h50v0z" />
    <glyph glyph-name="book-open-cover" unicode="&#xe0c0;" horiz-adv-x="640" 
d="M512 111v285v-285v285l-168 -25v0v-296v0l168 36v0zM296 75v296v-296v296l-168 25v0v-285v0l168 -36v0zM523 446q15 2 26 -8v0v0q11 -9 11 -24v-316v0q-2 -25 -25 -31l-202 -43v0q-13 -3 -26 0l-202 43v0q-23 6 -25 31v316v0q0 15 11 24q11 10 26 8l203 -30v0l203 30v0z
M38 424l11 -2l-11 2l11 -2q-1 -4 -1 -8v-41v0v-267v0v-67v0l266 -54v0q3 -1 6 -1t6 1l266 54v0v67v0v268v0v40v0v8l10 2v0q15 3 26 -6t12 -25v-367v0q-2 -25 -26 -31l-278 -57v0q-8 -2 -16 -2t-16 2l-278 57v0q-24 6 -26 31v367v0q1 16 12 25t26 6v0z" />
    <glyph glyph-name="book-section" unicode="&#xe0c1;" horiz-adv-x="448" 
d="M0 360q1 37 26 62v0v0q25 25 62 26h304v0q24 -1 40 -16q15 -16 16 -40v-288v0q-2 -35 -32 -51v-69v0h8v0q22 -2 24 -24q-2 -22 -24 -24h-344v0q-34 1 -57 23q-22 23 -23 57v8v0v0v336v0zM80 48q-14 0 -23 -9v0v0q-9 -9 -9 -23t9 -23t23 -9h288v0v64v0h-288v0zM48 89
q15 7 32 7h312v0q7 1 8 8v288v0q-1 7 -8 8h-304v0q-17 0 -28 -12q-12 -11 -12 -28v-271v0zM225 202q-18 3 -39 16v0v0q-21 12 -17 43q3 16 16 25q-20 13 -16 42q5 23 27 33q21 10 55 6q11 -2 28 -7q13 -5 10 -19q-5 -12 -19 -10q-14 5 -23 6q-42 5 -49 -15q-2 -6 4 -12
q6 -5 30 -12l7 -2v0v0v0v0q23 -4 45 -17q22 -12 18 -43q-3 -16 -16 -26q20 -13 16 -42q-9 -39 -63 -40q-9 0 -19 2q-19 3 -36 9l-5 2v0q-13 5 -10 19q5 12 19 9l5 -1v0q16 -6 31 -9q42 -4 49 15q2 9 -7 14q-8 5 -34 12l-7 2v0zM222 270q-7 -1 -14 -4v0v0q-8 -3 -10 -11
q-2 -6 4 -12t30 -12q1 0 7 -2q7 -2 10 -3q7 1 14 4q8 4 10 11q2 9 -7 15q-8 5 -34 11q-1 1 -5 2t-5 1v0z" />
    <glyph glyph-name="bookmark-slash" unicode="&#xe0c2;" horiz-adv-x="640" 
d="M39 443q-19 12 -34 -4q-12 -19 4 -34l592 -464v0q19 -12 34 4q12 19 -4 34l-119 93v0v328v0q-1 20 -14 34q-14 13 -34 14h-288v0q-20 -1 -34 -14q-13 -14 -14 -34v-27v0l-89 70v0zM176 335v65v-65v65h288v0v-290v0l-288 225v0zM510 -50l-195 153l195 -153l-195 153
q-5 0 -9 -4l-130 -92v0v206v0l-48 38v0v-291v0q1 -14 13 -21q13 -6 25 1l154 110v0l154 -110v0q12 -7 25 -1q8 4 11 11v0z" />
    <glyph glyph-name="bowling-ball-pin" unicode="&#xe0c3;" horiz-adv-x="576" 
d="M464 400q-14 0 -23 -9v0v0q-9 -9 -9 -23v-4v0q0 -9 2 -18l10 -37v0q2 -10 3 -21h34v0q1 11 4 21l9 38v0q2 8 2 17v4v0q0 14 -9 23t-23 9v0zM438 218l-1 -3l1 3l-1 -3q-13 41 -38 75q-1 4 -2 7l-9 38v0q-4 14 -4 28v5v0q1 34 23 56q23 23 57 24q34 -1 57 -24
q22 -22 23 -56v-5v0q0 -14 -3 -28l-10 -38v0q-3 -12 -3 -25v-1v0q0 -19 7 -36l28 -76v0q13 -35 13 -72q0 -44 -18 -85l-22 -47v0q-9 -18 -29 -19h-86v0q-20 1 -29 19l-10 23v0q18 20 33 43l17 -37v0h65v0l17 38v0q14 31 14 65q0 29 -10 55l-28 76v0q-4 11 -7 22h-38v0
q-2 -11 -6 -22h-1zM168 252q0 12 8 20v0v0q8 8 20 8t20 -8t8 -20t-8 -20t-20 -8t-20 8t-8 20v0zM196 192q12 0 20 -8v0v0q8 -8 8 -20t-8 -20t-20 -8t-20 8t-8 20t8 20t20 8v0zM96 204q0 12 8 20v0v0q8 8 20 8t20 -8t8 -20t-8 -20t-20 -8t-20 8t-8 20v0zM368 144q0 43 -21 80
v0v0q-22 37 -59 59q-38 21 -80 21t-80 -21q-37 -22 -59 -59q-21 -37 -21 -80t21 -80q22 -37 59 -59q38 -21 80 -21t80 21q37 22 59 59q21 37 21 80v0zM0 144q0 57 28 104v0v0q27 47 76 76q49 28 104 28t104 -28q49 -29 76 -76q28 -47 28 -104t-28 -104q-27 -47 -76 -76
q-49 -28 -104 -28t-104 28q-49 29 -76 76q-28 47 -28 104v0z" />
    <glyph glyph-name="box-circle-check" unicode="&#xe0c4;" horiz-adv-x="576" 
d="M342 368q11 0 15 -10l31 -70v0h-140v0v80v0h94v0zM48 240h311h-311h311q33 16 73 16q8 0 16 -1v3v0q0 14 -5 26l-42 94v0q-18 36 -59 38h-236v0q-41 -2 -59 -38l-41 -94v0q-6 -12 -6 -26v-226v0q1 -27 19 -45t45 -19h232v0q-18 22 -28 48h-204v0q-15 1 -16 16v208v0z
M60 288l31 70l-31 -70l31 70q5 10 15 10h94v0v-80v0h-140v0zM576 80q0 39 -19 72v0v0q-19 33 -53 53q-34 19 -72 19t-72 -19q-34 -20 -53 -53t-19 -72t19 -72t53 -53q34 -19 72 -19t72 19q34 20 53 53t19 72v0zM499 123q10 -11 0 -22l-72 -72v0q-11 -10 -22 0l-40 40v0
q-10 11 0 22q11 10 22 0l29 -28v0l61 60v0q11 10 22 0v0z" />
    <glyph glyph-name="brackets-round" unicode="&#xe0c5;" 
d="M148 371q18 13 9 33q-13 18 -33 9q-22 -13 -51 -42q-29 -30 -50 -75q-22 -45 -23 -104q1 -59 23 -104q21 -45 50 -75q29 -29 51 -42q20 -9 33 9q9 20 -9 33q-28 15 -62 61q-35 46 -38 118q3 72 38 118q34 46 62 61v0zM364 371q28 -15 62 -61v0v0q35 -46 38 -118
q-3 -72 -38 -118q-34 -46 -62 -61q-18 -13 -9 -33q13 -18 33 -9q22 13 51 42q29 30 50 75q22 45 23 104q-1 59 -23 104q-21 45 -50 75q-29 29 -51 42q-20 9 -33 -9q-9 -20 9 -33v0z" />
    <glyph glyph-name="brain-circuit" unicode="&#xe0c6;" 
d="M192 400q17 0 28 -12v0v0q12 -11 12 -28v-40v0h-19v0q-11 23 -37 24q-17 0 -28 -12q-12 -11 -12 -28t12 -28q11 -12 28 -12q26 1 37 24h19v0v-96v0h-40v0q-20 -1 -34 -14q-13 -14 -14 -34v-11v0q-23 -11 -24 -37q0 -17 12 -28q11 -12 28 -12t28 12q12 11 12 28
q-1 26 -24 37v11v0q1 15 16 16h40v0v-132v0q0 -19 -13 -31q-12 -13 -31 -13q-28 1 -40 26q-7 13 -21 14q-20 1 -33 14q-14 14 -14 34q0 4 1 8q1 13 -9 22q-23 19 -24 50q1 30 22 48q12 12 6 28q-4 9 -4 20q1 30 27 43q12 7 13 21q2 31 28 44q10 5 14 15q9 27 38 29v0z
M188 -64q42 1 68 30q26 -29 68 -30q50 2 77 41q34 7 56 33t23 62v1v1q31 31 32 78q-1 43 -27 73q3 11 3 23q-2 51 -41 79q-8 45 -46 68q-11 24 -32 38q-21 15 -49 15q-39 -1 -64 -28q-25 27 -64 28q-28 0 -49 -15q-21 -14 -32 -38q-38 -23 -46 -68q-39 -28 -41 -79
q0 -12 3 -23q-26 -30 -27 -73q1 -47 32 -78v-1v-1q1 -36 23 -62t56 -33q27 -39 77 -41v0zM324 -16q-19 0 -31 13v0v0q-13 12 -13 31v68v0h51v0q11 -23 37 -24q17 0 28 12q12 11 12 28t-12 28q-11 12 -28 12q-26 -1 -37 -24h-51v0v160v0h40v0q15 -1 16 -16v-11v0
q-23 -11 -24 -37q0 -17 12 -28q11 -12 28 -12t28 12q12 11 12 28q-1 26 -24 37v11v0q-1 20 -14 34q-14 13 -34 14h-40v0v40v0q0 17 12 28q11 12 28 12q29 -2 39 -29q3 -10 13 -15q26 -13 28 -44q1 -14 13 -21q26 -13 27 -43q0 -11 -4 -20q-6 -16 6 -28q21 -18 22 -48
q-1 -31 -24 -50q-10 -9 -9 -22q1 -4 1 -8q0 -20 -14 -34q-13 -13 -33 -14q-14 -1 -21 -14q-12 -25 -40 -26v0zM176 320q15 -1 16 -16q-1 -15 -16 -16q-15 1 -16 16q1 15 16 16v0zM160 112q15 -1 16 -16q-1 -15 -16 -16q-15 1 -16 16q1 15 16 16v0zM336 224q1 15 16 16
q15 -1 16 -16q-1 -15 -16 -16q-15 1 -16 16v0zM368 128q15 -1 16 -16q-1 -15 -16 -16q-15 1 -16 16q1 15 16 16v0z" />
    <glyph glyph-name="brake-warning" unicode="&#xe0c7;" horiz-adv-x="640" 
d="M320 368q48 0 88 -24v0v0q40 -23 64 -64q24 -42 24 -88t-24 -88q-24 -41 -64 -64q-40 -24 -88 -24t-88 24q-40 23 -64 64q-24 42 -24 88t24 88q24 41 64 64q40 24 88 24v0zM320 -32q61 1 112 30v0v0q51 30 82 82q30 53 30 112t-30 112q-31 52 -82 82q-51 29 -112 30
q-61 -1 -112 -30q-51 -30 -82 -82q-30 -53 -30 -112t30 -112q31 -52 82 -82q51 -29 112 -30v0zM84 372q-20 10 -33 -7q-50 -76 -51 -173q1 -97 51 -173q13 -17 33 -7q17 13 7 33q-42 65 -43 147q1 82 43 147q10 20 -7 33v0zM556 372q-17 -13 -7 -33q42 -65 43 -147
q-1 -82 -43 -147q-10 -20 7 -33q20 -10 33 7q50 76 51 173q-1 97 -51 173q-13 17 -33 7v0zM320 320q-22 -2 -24 -24v-112v0q2 -22 24 -24q22 2 24 24v112v0q-2 22 -24 24v0zM352 96q0 14 -9 23v0v0q-9 9 -23 9t-23 -9t-9 -23t9 -23t23 -9t23 9t9 23v0z" />
    <glyph glyph-name="briefcase-blank" unicode="&#xe0c8;" 
d="M176 392v-40v40v-40h160v0v40v0q-1 7 -8 8h-144v0q-7 -1 -8 -8v0zM128 352v40v-40v40q1 24 16 40q16 15 40 16h144v0q24 -1 40 -16q15 -16 16 -40v-40v0h64v0q27 -1 45 -19t19 -45v-256v0q-1 -27 -19 -45t-45 -19h-384v0q-27 1 -45 19t-19 45v256v0q1 27 19 45t45 19h64
v0zM360 304h-208h208h-296q-15 -1 -16 -16v-256v0q1 -15 16 -16h384v0q15 1 16 16v256v0q-1 15 -16 16h-88v0z" />
    <glyph glyph-name="brightness" unicode="&#xe0c9;" 
d="M232 360q2 -22 24 -24q22 2 24 24v64v0q-2 22 -24 24q-22 -2 -24 -24v-64v0zM256 240q27 -1 42 -24q12 -24 0 -48q-15 -23 -42 -24q-27 1 -42 24q-12 24 0 48q15 23 42 24v0zM256 96q26 0 48 13v0v0q22 13 35 35q13 23 13 48t-13 48q-13 22 -35 35t-48 13t-48 -13
t-35 -35q-13 -23 -13 -48t13 -48q13 -22 35 -35t48 -13v0zM0 192q2 -22 24 -24h64v0q22 2 24 24q-2 22 -24 24h-64v0q-22 -2 -24 -24v0zM424 216q-22 -2 -24 -24q2 -22 24 -24h64v0q22 2 24 24q-2 22 -24 24h-64v0zM256 -64q22 2 24 24v64v0q-2 22 -24 24q-22 -2 -24 -24
v-64v0q2 -22 24 -24v0zM75 373q-14 -17 0 -34l45 -45v0q17 -14 34 0q14 17 0 34l-45 45v0q-17 14 -34 0v0zM392 90q-17 14 -34 0q-14 -17 0 -34l45 -45v0q17 -14 34 0q14 17 0 34l-45 45v0zM75 11q17 -14 34 0l45 45v0q14 17 0 34q-17 14 -34 0l-45 -45v0q-14 -17 0 -34v0z
M358 328q-14 -17 0 -34q17 -14 34 0l45 45v0q14 17 0 34q-17 14 -34 0l-45 -45v0z" />
    <glyph glyph-name="brightness-low" unicode="&#xe0ca;" 
d="M288 368q0 14 -9 23v0v0q-9 9 -23 9t-23 -9t-9 -23t9 -23t23 -9t23 9t9 23v0zM256 240q27 -1 42 -24q12 -24 0 -48q-15 -23 -42 -24q-27 1 -42 24q-12 24 0 48q15 23 42 24v0zM256 96q26 0 48 13v0v0q22 13 35 35q13 23 13 48t-13 48q-13 22 -35 35t-48 13t-48 -13
t-35 -35q-13 -23 -13 -48t13 -48q13 -22 35 -35t48 -13v0zM256 -16q14 0 23 9v0v0q9 9 9 23t-9 23t-23 9t-23 -9t-9 -23t9 -23t23 -9v0zM432 160q14 0 23 9v0v0q9 9 9 23t-9 23t-23 9t-23 -9t-9 -23t9 -23t23 -9v0zM48 192q0 -14 9 -23v0v0q9 -9 23 -9t23 9t9 23t-9 23
t-23 9t-23 -9t-9 -23v0zM160 320q0 14 -9 23v0v0q-9 9 -23 9t-23 -9t-9 -23t9 -23t23 -9t23 9t9 23v0zM416 64q0 14 -9 23v0v0q-9 9 -23 9t-23 -9t-9 -23t9 -23t23 -9t23 9t9 23v0zM416 320q0 14 -9 23v0v0q-9 9 -23 9t-23 -9t-9 -23t9 -23t23 -9t23 9t9 23v0zM96 64
q0 -14 9 -23v0v0q9 -9 23 -9t23 9t9 23t-9 23t-23 9t-23 -9t-9 -23v0z" />
    <glyph glyph-name="browsers" unicode="&#xe0cb;" horiz-adv-x="576" 
d="M144 96v224v-224v224h384v0v-224v0q-1 -15 -16 -16h-352v0q-15 1 -16 16v0zM160 448q-27 -1 -45 -19v0v0q-18 -18 -19 -45v-288v0q1 -27 19 -45t45 -19h352v0q27 1 45 19t19 45v288v0q-1 27 -19 45t-45 19h-352v0zM48 328q-2 22 -24 24q-22 -2 -24 -24v-256v0
q1 -58 40 -96q38 -39 96 -40h320v0q22 2 24 24q-2 22 -24 24h-320v0q-37 1 -62 26t-26 62v256v0z" />
    <glyph glyph-name="buildings" unicode="&#xe0cc;" 
d="M448 400q15 -1 16 -16v-384v0q-1 -15 -16 -16h-160v0q-15 1 -16 16v384v0q1 15 16 16h160v0zM288 448q-27 -1 -45 -19v0v0q-18 -18 -19 -45v-384v0q1 -27 19 -45t45 -19h160v0q27 1 45 19t19 45v384v0q-1 27 -19 45t-45 19h-160v0zM192 320h-120h120h-120q-31 -1 -51 -21
t-21 -51v-240v0q1 -31 21 -51t51 -21h144v0q-18 20 -23 48h-121v0q-22 2 -24 24v240v0q2 22 24 24h120v0v48v0zM112 128q-15 -1 -16 -16v-32v0q1 -15 16 -16h32v0q15 1 16 16v32v0q-1 15 -16 16h-32v0zM336 112q1 -15 16 -16h32v0q15 1 16 16v32v0q-1 15 -16 16h-32v0
q-15 -1 -16 -16v-32v0zM112 224q-15 -1 -16 -16v-32v0q1 -15 16 -16h32v0q15 1 16 16v32v0q-1 15 -16 16h-32v0zM336 336v-32v32v-32q1 -15 16 -16h32v0q15 1 16 16v32v0q-1 15 -16 16h-32v0q-15 -1 -16 -16v0zM352 192h32h-32h32q15 1 16 16v32v0q-1 15 -16 16h-32v0
q-15 -1 -16 -16v-32v0q1 -15 16 -16v0z" />
    <glyph glyph-name="burger-fries" unicode="&#xe0cd;" horiz-adv-x="640" 
d="M168 446q-8 -5 -8 -14v-191v0v0v0v-63v0q14 -2 32 -2t32 2v238v0q-1 10 -9 14l-32 16v0q-8 4 -15 0v0zM128 187v246v-246v246v2v0q-2 7 -9 11t-14 0l-32 -16v0q-10 -5 -9 -17l32 -192v0q1 -1 2 -3q1 -11 18 -24q5 -4 12 -7v0zM58 255l-18 107l18 -107l-18 107l-20 5v0
q-8 2 -15 -3q-6 -6 -5 -15l17 -93v0v0h4h27v0q5 0 10 -1v0zM370 272l14 77l-14 -77l14 77q1 9 -5 15q-6 5 -15 4l-18 -5v0l-19 -108v0q4 1 8 1q16 9 35 16v0zM287 218q1 3 2 7l31 172v0q1 9 -5 15q-6 5 -15 3l-32 -8v0q-10 -2 -12 -12v-2v0v-206v0q7 3 12 7q1 1 3 2q1 1 3 2
q4 7 11 15q1 3 2 5v0zM192 144q-67 2 -94 23v0v0q-27 22 -31 41q-5 15 -19 16h-27v0q-19 -2 -21 -21q0 -3 1 -6l57 -237v0q7 -23 31 -24h205v0q-21 20 -31 48h-161v0l-36 147v0q2 -1 4 -3q43 -31 122 -32q40 0 71 9q-7 18 -7 37q0 5 1 11q-25 -9 -65 -9v0zM450 208
q-2 -4 -2 -8q1 -14 16 -16q15 2 16 16q0 4 -2 8q34 -2 56 -11q-6 -5 -6 -13q1 -14 16 -16q14 1 16 15q26 -21 31 -34q1 -1 1 -6q0 -13 -9 -22q-9 -8 -22 -9h-194v0q-13 1 -22 9q-9 9 -9 22q0 5 1 6q5 13 31 34q2 -14 16 -15q15 2 16 16q0 8 -6 13q22 9 56 11v0zM628 101
q12 18 12 42q1 13 -7 29q-9 23 -48 52t-121 32q-82 -3 -121 -32t-48 -52q-8 -16 -7 -29q0 -24 12 -42q-12 -12 -12 -29q0 -12 7 -22q-7 -11 -7 -26q1 -37 26 -62t62 -26h176v0q37 1 62 26t26 62q0 15 -6 26q6 10 6 22q0 18 -12 29v0zM344 32h240h-240h240q7 -1 8 -8
q0 -17 -12 -28q-11 -11 -28 -12h-176v0q-17 1 -28 12q-12 11 -12 28q1 7 8 8v0z" />
    <glyph glyph-name="burger-glass" unicode="&#xe0ce;" horiz-adv-x="640" 
d="M24 448q-10 0 -18 -8q-7 -8 -6 -18l36 -420v0q3 -29 23 -47t49 -19h168v0q8 0 16 2q-20 19 -29 46h-155v0q-21 2 -24 22l-20 234v0h248v0q23 19 59 33l13 149v0q1 10 -6 18t-18 8h-336v0zM60 288l-10 112l10 -112l-10 112h284v0l-10 -112v0h-264v0zM450 208q-2 -4 -2 -8
q1 -14 16 -16q15 2 16 16q0 4 -2 8q34 -2 56 -11q-6 -5 -6 -13q1 -14 16 -16q14 1 16 15q26 -21 31 -34v0q1 -1 1 -6q0 -13 -9 -22q-9 -8 -22 -9h-194v0q-13 1 -22 9q-9 9 -9 22q0 5 1 6q5 13 31 34q2 -14 16 -15q15 2 16 16q0 8 -6 13q22 9 56 11v0zM628 101q12 18 12 42
q1 13 -7 29q-9 23 -48 52t-121 32q-82 -3 -121 -32t-48 -52q-8 -16 -7 -29q0 -24 12 -42q-12 -12 -12 -29q0 -12 7 -22q-7 -11 -7 -26q1 -37 26 -62t62 -26h176v0q37 1 62 26t26 62q0 15 -6 26q6 10 6 22q0 18 -12 29v0zM344 32h240h-240h240q7 -1 8 -8q0 -17 -12 -28
q-11 -11 -28 -12h-176v0q-17 1 -28 12q-12 11 -12 28q1 7 8 8v0z" />
    <glyph glyph-name="calendar-arrow-down" unicode="&#xe0d0;" horiz-adv-x="448" 
d="M128 448q22 -2 24 -24v-40v0h144v0v40v0q2 22 24 24q22 -2 24 -24v-40v0h40v0q27 -1 45 -19t19 -45v-16v0v-48v0v-256v0q-1 -27 -19 -45t-45 -19h-320v0q-27 1 -45 19t-19 45v256v0v48v0v16v0q1 27 19 45t45 19h40v0v40v0q2 22 24 24v0zM400 256h-352h352h-352v-256v0
q1 -15 16 -16h320v0q15 1 16 16v256v0zM248 200v-102v102v-102l39 39v0q17 14 34 0q14 -17 0 -34l-80 -80v0q-17 -14 -34 0l-80 80v0q-14 17 0 34q17 14 34 0l39 -39v0v102v0q2 22 24 24q22 -2 24 -24v0z" />
    <glyph glyph-name="calendar-arrow-up" unicode="&#xe0d1;" horiz-adv-x="448" 
d="M128 448q22 -2 24 -24v-40v0h144v0v40v0q2 22 24 24q22 -2 24 -24v-40v0h40v0q27 -1 45 -19t19 -45v-16v0v-48v0v-256v0q-1 -27 -19 -45t-45 -19h-320v0q-27 1 -45 19t-19 45v256v0v48v0v16v0q1 27 19 45t45 19h40v0v40v0q2 22 24 24v0zM400 256h-352h352h-352v-256v0
q1 -15 16 -16h320v0q15 1 16 16v256v0zM200 40v102v-102v102l-39 -39v0q-17 -14 -34 0q-14 17 0 34l80 80v0q17 14 34 0l80 -80v0q14 -17 0 -34q-17 -14 -34 0l-39 39v0v-102v0q-2 -22 -24 -24q-22 2 -24 24v0z" />
    <glyph glyph-name="calendar-clock" unicode="&#xe0d2;" horiz-adv-x="576" 
d="M128 448q22 -2 24 -24v-40v0h144v0v40v0q2 22 24 24q22 -2 24 -24v-40v0h40v0q27 -1 45 -19t19 -45v-16v0v-48v0h-16h-384v-256v0q1 -15 16 -16h221v0q18 -28 46 -48h-267v0q-27 1 -45 19t-19 45v256v0v48v0v16v0q1 27 19 45t45 19h40v0v40v0q2 22 24 24v0zM288 80
q0 39 19 72v0v0q19 33 53 53q34 19 72 19t72 -19q34 -20 53 -53t19 -72t-19 -72t-53 -53q-34 -19 -72 -19t-72 19q-34 20 -53 53t-19 72v0zM432 160q-15 -1 -16 -16v-64v0q1 -15 16 -16h48v0q15 1 16 16q-1 15 -16 16h-32v0v48v0q-1 15 -16 16v0z" />
    <glyph glyph-name="calendar-heart" unicode="&#xe0d3;" horiz-adv-x="448" 
d="M128 448q22 -2 24 -24v-40v0h144v0v40v0q2 22 24 24q22 -2 24 -24v-40v0h40v0q27 -1 45 -19t19 -45v-16v0v-48v0v-256v0q-1 -27 -19 -45t-45 -19h-320v0q-27 1 -45 19t-19 45v256v0v48v0v16v0q1 27 19 45t45 19h40v0v40v0q2 22 24 24v0zM400 256h-352h352h-352v-256v0
q1 -15 16 -16h320v0q15 1 16 16v256v0zM112 147q1 26 18 43v0v0q17 17 43 18q25 0 44 -18l7 -7v0l7 7v0q19 18 44 18q26 -1 43 -18t18 -43q0 -25 -18 -44l-83 -82v0q-11 -10 -22 0l-83 82v0q-17 19 -18 44v0z" />
    <glyph glyph-name="calendar-image" unicode="&#xe0d4;" horiz-adv-x="448" 
d="M152 424q-2 22 -24 24q-22 -2 -24 -24v-40v0h-40v0q-27 -1 -45 -19t-19 -45v-16v0v-48v0v-256v0q1 -27 19 -45t45 -19h320v0q27 1 45 19t19 45v256v0v48v0v16v0q-1 27 -19 45t-45 19h-40v0v40v0q-2 22 -24 24q-22 -2 -24 -24v-40v0h-144v0v40v0zM48 256h352h-352h352
v-256v0q-1 -15 -16 -16h-320v0q-15 1 -16 16v256v0zM147 119l-47 -61l47 61l-47 -61q-6 -9 -2 -17t15 -9h226v0q10 1 14 8q4 8 -1 17l-83 131v0q-5 7 -13 7t-14 -7l-58 -84v0l-11 15v0q-13 13 -26 0v0zM128 160q14 0 23 9v0v0q9 9 9 23t-9 23t-23 9t-23 -9t-9 -23t9 -23
t23 -9v0z" />
    <glyph glyph-name="calendar-lines" unicode="&#xe0d5;" horiz-adv-x="448" 
d="M152 424q-2 22 -24 24q-22 -2 -24 -24v-40v0h-40v0q-27 -1 -45 -19t-19 -45v-16v0v-48v0v-256v0q1 -27 19 -45t45 -19h320v0q27 1 45 19t19 45v256v0v48v0v16v0q-1 27 -19 45t-45 19h-40v0v40v0q-2 22 -24 24q-22 -2 -24 -24v-40v0h-144v0v40v0zM48 256h352h-352h352
v-256v0q-1 -15 -16 -16h-320v0q-15 1 -16 16v256v0zM96 168q2 -22 24 -24h208v0q22 2 24 24q-2 22 -24 24h-208v0q-22 -2 -24 -24v0zM120 96q-22 -2 -24 -24q2 -22 24 -24h112v0q22 2 24 24q-2 22 -24 24h-112v0z" />
    <glyph glyph-name="calendar-range" unicode="&#xe0d6;" horiz-adv-x="448" 
d="M152 424q-2 22 -24 24q-22 -2 -24 -24v-40v0h-40v0q-27 -1 -45 -19t-19 -45v-16v0v-48v0v-256v0q1 -27 19 -45t45 -19h320v0q27 1 45 19t19 45v256v0v48v0v16v0q-1 27 -19 45t-45 19h-40v0v40v0q-2 22 -24 24q-22 -2 -24 -24v-40v0h-144v0v40v0zM48 256h352h-352h352
v-256v0q-1 -15 -16 -16h-320v0q-15 1 -16 16v256v0zM96 160q0 -14 9 -23v0v0q9 -9 23 -9t23 9t9 23t-9 23t-23 9t-23 -9t-9 -23v0zM320 96q-14 0 -23 -9v0v0q-9 -9 -9 -23t9 -23t23 -9t23 9t9 23t-9 23t-23 9v0zM192 160q2 -22 24 -24h112v0q22 2 24 24q-2 22 -24 24h-112v0
q-22 -2 -24 -24v0zM232 88h-112h112h-112q-22 -2 -24 -24q2 -22 24 -24h112v0q22 2 24 24q-2 22 -24 24v0z" />
    <glyph glyph-name="calendars" unicode="&#xe0d7;" 
d="M224 448q22 -2 24 -24v-40v0h112v0v40v0q2 22 24 24q22 -2 24 -24v-40v0h40v0q27 -1 45 -19t19 -45v-48v0v-16v0v-160v0q-1 -27 -19 -45t-45 -19h-288v0q-27 1 -45 19t-19 45v160v0v16v0v48v0q1 27 19 45t45 19h40v0v40v0q2 22 24 24v0zM144 256v-160v160v-160
q1 -15 16 -16h288v0q15 1 16 16v160v0h-320v0zM48 264v-208v208v-208q1 -31 21 -51t51 -21h272v0q22 -2 24 -24q-2 -22 -24 -24h-272v0q-51 1 -85 35t-35 85v208v0q2 22 24 24q22 -2 24 -24v0z" />
    <glyph glyph-name="camera-rotate" unicode="&#xe0d8;" horiz-adv-x="640" 
d="M263 416q-18 0 -33 -11v0v0q-14 -10 -20 -27l23 -8v0l-23 8v0l-9 -26v0h-73v0q-27 -1 -45 -19t-19 -45v-256v0q1 -27 19 -45t45 -19h384v0q27 1 45 19t19 45v256v0q-1 27 -19 45t-45 19h-73v0l-9 26v0q-6 17 -20 27q-15 11 -33 11h-114v0zM256 362q2 6 7 6h114v0
q6 0 8 -6l14 -42v0q6 -15 22 -16h91v0q15 -1 16 -16v-256v0q-1 -15 -16 -16h-384v0q-15 1 -16 16v256v0q1 15 16 16h91v0q16 1 23 16l14 42v0zM362 210l-15 -15l15 15l-15 -15q-3 -3 -3 -8q1 -10 11 -11h61v0q15 2 16 16v61v0q-1 10 -11 11q-5 0 -8 -3l-16 -16v0
q-34 26 -77 27q-50 -1 -85 -35l-4 -4v0q-14 -17 0 -34q17 -14 34 0l4 4v0q21 21 51 21q23 0 42 -14v0zM208 67q1 -10 11 -11q5 0 8 3l16 16v0q34 -27 77 -27q50 1 85 35l4 4v0q14 17 0 34q-17 14 -34 0l-4 -4v0q-21 -21 -51 -21q-23 0 -42 14l15 15v0q3 3 3 8q-1 10 -11 11
h-61v0q-15 -1 -16 -16v-61v0z" />
    </font>
</defs>
</svg>
