<?xml version="1.0" standalone="no"?>
<!DOCTYPE svg PUBLIC "-//W3C//DTD SVG 1.1//EN" "http://www.w3.org/Graphics/SVG/1.1/DTD/svg11.dtd" >
<svg xmlns="http://www.w3.org/2000/svg" xmlns:xlink="http://www.w3.org/1999/xlink" version="1.1">
<metadata>
Created by FontForge 20230101 at Mon Jul 15 17:25:37 2024
 By Johanna Fagerås
Copyright (c) Font Awesome
</metadata>
<defs>
<font id="FontAwesome6Sharp-Light" horiz-adv-x="512" >
  <font-face 
    font-family="Font Awesome 6 Sharp Light"
    font-weight="300"
    font-stretch="normal"
    units-per-em="512"
    panose-1="2 0 4 3 0 0 0 0 0 0"
    ascent="409"
    descent="-103"
    cap-height="416"
    bbox="-12 -71 643 456"
    underline-thickness="25"
    underline-position="-49"
    unicode-range="U+0021-F8FF"
  />
<missing-glyph horiz-adv-x="384" 
d="M0 448h16h-16h384v-16v0v-480v0v-16v0h-16h-368v16v0v480v0v16v0zM32 -5l140 197l-140 -197l140 197l-140 196v0v-392v-1zM52 -32h280h-280h280l-140 196v0l-140 -196v0zM212 192l140 -197l-140 197l140 -197v393v0l-140 -196v0zM332 416h-280h280h-280l140 -197v0
l140 197v0z" />
    <glyph glyph-name=".notdef" horiz-adv-x="384" 
d="M0 448h16h-16h384v-16v0v-480v0v-16v0h-16h-368v16v0v480v0v16v0zM32 -5l140 197l-140 -197l140 197l-140 196v0v-392v-1zM52 -32h280h-280h280l-140 196v0l-140 -196v0zM212 192l140 -197l-140 197l140 -197v393v0l-140 -196v0zM332 416h-280h280h-280l140 -197v0
l140 197v0z" />
    <glyph glyph-name="exclamation" unicode="!" horiz-adv-x="128" 
d="M80 400v16v-16v16h-32v0v-16v0v-304v0v-16v0h32v0v16v0v304v0zM88 24h-48h48h-48v-48v0h48v0v48v0z" />
    <glyph glyph-name="exclamation" unicode="&#xf12a;" horiz-adv-x="128" 
d="M80 400v16v-16v16h-32v0v-16v0v-304v0v-16v0h32v0v16v0v304v0zM88 24h-48h48h-48v-48v0h48v0v48v0z" />
    <glyph glyph-name="exclamation" unicode="&#x2757;" horiz-adv-x="128" 
d="M80 400v16v-16v16h-32v0v-16v0v-304v0v-16v0h32v0v16v0v304v0zM88 24h-48h48h-48v-48v0h48v0v48v0z" />
    <glyph glyph-name="exclamation" unicode="&#x2755;" horiz-adv-x="128" 
d="M80 400v16v-16v16h-32v0v-16v0v-304v0v-16v0h32v0v16v0v304v0zM88 24h-48h48h-48v-48v0h48v0v48v0z" />
    <glyph glyph-name="exclamation" unicode="&#xf12a;" horiz-adv-x="128" 
d="M80 400v16v-16v16h-32v0v-16v0v-304v0v-16v0h32v0v16v0v304v0zM88 24h-48h48h-48v-48v0h48v0v48v0z" />
    <glyph glyph-name="exclamation" unicode="&#x2757;" horiz-adv-x="128" 
d="M80 400v16v-16v16h-32v0v-16v0v-304v0v-16v0h32v0v16v0v304v0zM88 24h-48h48h-48v-48v0h48v0v48v0z" />
    <glyph glyph-name="exclamation" unicode="&#x2755;" horiz-adv-x="128" 
d="M80 400v16v-16v16h-32v0v-16v0v-304v0v-16v0h32v0v16v0v304v0zM88 24h-48h48h-48v-48v0h48v0v48v0z" />
    <glyph glyph-name="ditto" unicode="&#x22;" horiz-adv-x="320" 
d="M59 192l-27 155l27 -155l-27 155v37v0h64v0v-37v0l-27 -155v0h-10v0zM128 416h-32h32h-128v-32v0v-40v0l32 -184v0h64v0l32 184v0v40v0v32v0zM251 192l-27 155l27 -155l-27 155v37v0h64v0v-37v0l-27 -155v0h-10v0zM320 416h-32h32h-128v-32v0v-40v0l32 -184v0h64v0
l32 184v0v40v0v32v0z" />
    <glyph glyph-name="hashtag" unicode="#" horiz-adv-x="448" 
d="M446 304h-14h14h-100l26 112v0h-33v0l-26 -112v0h-127v0l26 112v0h-33v0l-26 -112v0h-105h-1l-6 -32v0h7h98l-37 -160v0h-93h-7l-7 -32v0h14h86l-26 -112v0h33v0l26 112v0h127v0l-26 -112v0h33v0l25 112v0h106h1l7 32v0h-8h-98l37 160v0h93h8l6 32v0zM179 272h127h-127
h127l-37 -160v0h-127v0l37 160v0z" />
    <glyph glyph-name="hashtag" unicode="&#xf292;" horiz-adv-x="448" 
d="M446 304h-14h14h-100l26 112v0h-33v0l-26 -112v0h-127v0l26 112v0h-33v0l-26 -112v0h-105h-1l-6 -32v0h7h98l-37 -160v0h-93h-7l-7 -32v0h14h86l-26 -112v0h33v0l26 112v0h127v0l-26 -112v0h33v0l25 112v0h106h1l7 32v0h-8h-98l37 160v0h93h8l6 32v0zM179 272h127h-127
h127l-37 -160v0h-127v0l37 160v0z" />
    <glyph glyph-name="hashtag" unicode="&#xf292;" horiz-adv-x="448" 
d="M446 304h-14h14h-100l26 112v0h-33v0l-26 -112v0h-127v0l26 112v0h-33v0l-26 -112v0h-105h-1l-6 -32v0h7h98l-37 -160v0h-93h-7l-7 -32v0h14h86l-26 -112v0h33v0l26 112v0h127v0l-26 -112v0h33v0l25 112v0h106h1l7 32v0h-8h-98l37 160v0h93h8l6 32v0zM179 272h127h-127
h127l-37 -160v0h-127v0l37 160v0z" />
    <glyph glyph-name="dollar-sign" unicode="$" horiz-adv-x="320" 
d="M176 432v16v-16v16h-32v0v-16v0v-48v0h-19q-37 -3 -67 -21q-31 -19 -40 -61q-6 -30 6 -54q11 -22 33 -35q21 -13 46 -21q26 -9 51 -15h2v0q55 -13 90 -32q16 -10 22 -23q6 -12 3 -34q-6 -31 -43 -46q-39 -15 -98 -7q-19 3 -44 9q-24 7 -48 17l-14 6v0l-13 -30v0l15 -6v0
q26 -11 52 -18q27 -6 47 -9v0v0q10 -2 19 -2v-50v0v-16v0h32v0v16v0v49v0q35 1 63 12q51 18 63 69q6 31 -6 54q-11 23 -33 36q-21 12 -46 21q-26 8 -51 14l-2 1v0q-55 12 -90 32q-16 10 -22 22t-3 34q6 28 26 40q21 13 53 16q32 2 66 -3q33 -5 58 -11l16 -4v0l7 31v0l-15 4
v0q-35 9 -84 14v49v0z" />
    <glyph glyph-name="dollar-sign" unicode="&#x1f4b2;" horiz-adv-x="320" 
d="M176 432v16v-16v16h-32v0v-16v0v-48v0h-19q-37 -3 -67 -21q-31 -19 -40 -61q-6 -30 6 -54q11 -22 33 -35q21 -13 46 -21q26 -9 51 -15h2v0q55 -13 90 -32q16 -10 22 -23q6 -12 3 -34q-6 -31 -43 -46q-39 -15 -98 -7q-19 3 -44 9q-24 7 -48 17l-14 6v0l-13 -30v0l15 -6v0
q26 -11 52 -18q27 -6 47 -9v0v0q10 -2 19 -2v-50v0v-16v0h32v0v16v0v49v0q35 1 63 12q51 18 63 69q6 31 -6 54q-11 23 -33 36q-21 12 -46 21q-26 8 -51 14l-2 1v0q-55 12 -90 32q-16 10 -22 22t-3 34q6 28 26 40q21 13 53 16q32 2 66 -3q33 -5 58 -11l16 -4v0l7 31v0l-15 4
v0q-35 9 -84 14v49v0z" />
    <glyph glyph-name="dollar-sign" unicode="&#xf155;" horiz-adv-x="320" 
d="M176 432v16v-16v16h-32v0v-16v0v-48v0h-19q-37 -3 -67 -21q-31 -19 -40 -61q-6 -30 6 -54q11 -22 33 -35q21 -13 46 -21q26 -9 51 -15h2v0q55 -13 90 -32q16 -10 22 -23q6 -12 3 -34q-6 -31 -43 -46q-39 -15 -98 -7q-19 3 -44 9q-24 7 -48 17l-14 6v0l-13 -30v0l15 -6v0
q26 -11 52 -18q27 -6 47 -9v0v0q10 -2 19 -2v-50v0v-16v0h32v0v16v0v49v0q35 1 63 12q51 18 63 69q6 31 -6 54q-11 23 -33 36q-21 12 -46 21q-26 8 -51 14l-2 1v0q-55 12 -90 32q-16 10 -22 22t-3 34q6 28 26 40q21 13 53 16q32 2 66 -3q33 -5 58 -11l16 -4v0l7 31v0l-15 4
v0q-35 9 -84 14v49v0z" />
    <glyph glyph-name="dollar-sign" unicode="&#x1f4b2;" horiz-adv-x="320" 
d="M176 432v16v-16v16h-32v0v-16v0v-48v0h-19q-37 -3 -67 -21q-31 -19 -40 -61q-6 -30 6 -54q11 -22 33 -35q21 -13 46 -21q26 -9 51 -15h2v0q55 -13 90 -32q16 -10 22 -23q6 -12 3 -34q-6 -31 -43 -46q-39 -15 -98 -7q-19 3 -44 9q-24 7 -48 17l-14 6v0l-13 -30v0l15 -6v0
q26 -11 52 -18q27 -6 47 -9v0v0q10 -2 19 -2v-50v0v-16v0h32v0v16v0v49v0q35 1 63 12q51 18 63 69q6 31 -6 54q-11 23 -33 36q-21 12 -46 21q-26 8 -51 14l-2 1v0q-55 12 -90 32q-16 10 -22 22t-3 34q6 28 26 40q21 13 53 16q32 2 66 -3q33 -5 58 -11l16 -4v0l7 31v0l-15 4
v0q-35 9 -84 14v49v0z" />
    <glyph glyph-name="dollar-sign" unicode="&#xf155;" horiz-adv-x="320" 
d="M176 432v16v-16v16h-32v0v-16v0v-48v0h-19q-37 -3 -67 -21q-31 -19 -40 -61q-6 -30 6 -54q11 -22 33 -35q21 -13 46 -21q26 -9 51 -15h2v0q55 -13 90 -32q16 -10 22 -23q6 -12 3 -34q-6 -31 -43 -46q-39 -15 -98 -7q-19 3 -44 9q-24 7 -48 17l-14 6v0l-13 -30v0l15 -6v0
q26 -11 52 -18q27 -6 47 -9v0v0q10 -2 19 -2v-50v0v-16v0h32v0v16v0v49v0q35 1 63 12q51 18 63 69q6 31 -6 54q-11 23 -33 36q-21 12 -46 21q-26 8 -51 14l-2 1v0q-55 12 -90 32q-16 10 -22 22t-3 34q6 28 26 40q21 13 53 16q32 2 66 -3q33 -5 58 -11l16 -4v0l7 31v0l-15 4
v0q-35 9 -84 14v49v0z" />
    <glyph glyph-name="percent" unicode="%" horiz-adv-x="384" 
d="M96 352h-64h64h-64v-64v0h64v0v64v0zM32 384h64h-64h96v-32v0v-64v0v-32v0h-32h-96v32v0v64v0v32v0h32v0zM5 27l352 352l-352 -352l352 352l22 -22v0l-352 -352v0l-22 22v0zM288 96v-64v64v-64h64v0v64v0h-64v0zM256 128h32h-32h128v-32v0v-64v0v-32v0h-32h-96v32v0v64v0
v32v0z" />
    <glyph glyph-name="percent" unicode="&#xf541;" horiz-adv-x="384" 
d="M96 352h-64h64h-64v-64v0h64v0v64v0zM32 384h64h-64h96v-32v0v-64v0v-32v0h-32h-96v32v0v64v0v32v0h32v0zM5 27l352 352l-352 -352l352 352l22 -22v0l-352 -352v0l-22 22v0zM288 96v-64v64v-64h64v0v64v0h-64v0zM256 128h32h-32h128v-32v0v-64v0v-32v0h-32h-96v32v0v64v0
v32v0z" />
    <glyph glyph-name="percent" unicode="&#xf295;" horiz-adv-x="384" 
d="M96 352h-64h64h-64v-64v0h64v0v64v0zM32 384h64h-64h96v-32v0v-64v0v-32v0h-32h-96v32v0v64v0v32v0h32v0zM5 27l352 352l-352 -352l352 352l22 -22v0l-352 -352v0l-22 22v0zM288 96v-64v64v-64h64v0v64v0h-64v0zM256 128h32h-32h128v-32v0v-64v0v-32v0h-32h-96v32v0v64v0
v32v0z" />
    <glyph glyph-name="percent" unicode="&#xf541;" horiz-adv-x="384" 
d="M96 352h-64h64h-64v-64v0h64v0v64v0zM32 384h64h-64h96v-32v0v-64v0v-32v0h-32h-96v32v0v64v0v32v0h32v0zM5 27l352 352l-352 -352l352 352l22 -22v0l-352 -352v0l-22 22v0zM288 96v-64v64v-64h64v0v64v0h-64v0zM256 128h32h-32h128v-32v0v-64v0v-32v0h-32h-96v32v0v64v0
v32v0z" />
    <glyph glyph-name="percent" unicode="&#xf295;" horiz-adv-x="384" 
d="M96 352h-64h64h-64v-64v0h64v0v64v0zM32 384h64h-64h96v-32v0v-64v0v-32v0h-32h-96v32v0v64v0v32v0h32v0zM5 27l352 352l-352 -352l352 352l22 -22v0l-352 -352v0l-22 22v0zM288 96v-64v64v-64h64v0v64v0h-64v0zM256 128h32h-32h128v-32v0v-64v0v-32v0h-32h-96v32v0v64v0
v32v0z" />
    <glyph glyph-name="ampersand" unicode="&#x26;" horiz-adv-x="448" 
d="M96 416h-16h16h-16v-16v0v-81v0q0 -37 26 -65l46 -50v0l-79 -55v0q-40 -29 -41 -79v-86v0v-16v0h16h216l5 6v0l43 58v0l60 -64v0h43v0l-83 90v0l81 108v0l-26 20v0l-77 -104v0l-109 117v0l62 44v0q40 29 41 79v78v0v16v0h-16h-192zM245 269l-67 -46l67 46l-67 -46l-49 53
v0q-17 18 -17 43v65v0h160v0v-62v0q-1 -33 -27 -53v0zM91 123l83 58l-83 -58l83 58l116 -125v0l-42 -56v0h-184v0v70v0q1 33 27 53v0z" />
    <glyph glyph-name="apostrophe" unicode="'" horiz-adv-x="192" 
d="M80 96q48 1 79 33v0v0q32 31 33 79v16v0v32v0v64v0v64v0v32v0h-32h-160v-32v0v-128v0v-32v0h32h128v-16v0q-1 -34 -23 -57q-23 -22 -57 -23h-16v0v-32v0h16v0zM160 256h-128h128h-128v128v0h128v0v-64v0v-64v0z" />
    <glyph glyph-name="bracket-round" unicode="(" horiz-adv-x="192" 
d="M0 192q1 60 25 105v0v0q24 46 56 75v0v0q32 30 55 42l16 -28v0q-22 -11 -49 -37q-28 -26 -49 -66t-22 -91q1 -51 22 -91t49 -66q27 -26 49 -37l-16 -28v0q-23 12 -55 42q-32 29 -56 75q-24 45 -25 105v0z" />
    <glyph glyph-name="bracket-round-right" unicode=")" horiz-adv-x="192" 
d="M192 192q-1 60 -25 105v0v0q-24 46 -56 75v0v0q-32 30 -55 42l-16 -28v0q22 -11 49 -37q28 -26 49 -66t22 -91q-1 -51 -22 -91t-49 -66q-27 -26 -49 -37l16 -28v0q23 12 55 42q32 29 56 75q24 45 25 105v0z" />
    <glyph glyph-name="asterisk" unicode="*" horiz-adv-x="384" 
d="M208 416v-16v16v-16v-179v0l151 96v0l18 -27v0l-155 -98v0l155 -99v0l-18 -27v0l-151 97v0v-179v0v-16v0h-32v0v16v0v179v0l-151 -97v0l-18 27v0l155 99v0l-155 98v0l18 27v0l151 -96v0v179v0v16v0h32v0z" />
    <glyph glyph-name="asterisk" unicode="&#xf069;" horiz-adv-x="384" 
d="M208 416v-16v16v-16v-179v0l151 96v0l18 -27v0l-155 -98v0l155 -99v0l-18 -27v0l-151 97v0v-179v0v-16v0h-32v0v16v0v179v0l-151 -97v0l-18 27v0l155 99v0l-155 98v0l18 27v0l151 -96v0v179v0v16v0h32v0z" />
    <glyph glyph-name="asterisk" unicode="&#x2731;" horiz-adv-x="384" 
d="M208 416v-16v16v-16v-179v0l151 96v0l18 -27v0l-155 -98v0l155 -99v0l-18 -27v0l-151 97v0v-179v0v-16v0h-32v0v16v0v179v0l-151 -97v0l-18 27v0l155 99v0l-155 98v0l18 27v0l151 -96v0v179v0v16v0h32v0z" />
    <glyph glyph-name="asterisk" unicode="&#xf069;" horiz-adv-x="384" 
d="M208 416v-16v16v-16v-179v0l151 96v0l18 -27v0l-155 -98v0l155 -99v0l-18 -27v0l-151 97v0v-179v0v-16v0h-32v0v16v0v179v0l-151 -97v0l-18 27v0l155 99v0l-155 98v0l18 27v0l151 -96v0v179v0v16v0h32v0z" />
    <glyph glyph-name="asterisk" unicode="&#x2731;" horiz-adv-x="384" 
d="M208 416v-16v16v-16v-179v0l151 96v0l18 -27v0l-155 -98v0l155 -99v0l-18 -27v0l-151 97v0v-179v0v-16v0h-32v0v16v0v179v0l-151 -97v0l-18 27v0l155 99v0l-155 98v0l18 27v0l151 -96v0v179v0v16v0h32v0z" />
    <glyph glyph-name="plus" unicode="+" horiz-adv-x="448" 
d="M240 384v16v-16v16h-32v0v-16v0v-176v0h-176h-16v-32v0h16h176v-176v0v-16v0h32v0v16v0v176v0h176h16v32v0h-16h-176v176v0z" />
    <glyph glyph-name="plus" unicode="&#xf067;" horiz-adv-x="448" 
d="M240 384v16v-16v16h-32v0v-16v0v-176v0h-176h-16v-32v0h16h176v-176v0v-16v0h32v0v16v0v176v0h176h16v32v0h-16h-176v176v0z" />
    <glyph glyph-name="plus" unicode="&#x2795;" horiz-adv-x="448" 
d="M240 384v16v-16v16h-32v0v-16v0v-176v0h-176h-16v-32v0h16h176v-176v0v-16v0h32v0v16v0v176v0h176h16v32v0h-16h-176v176v0z" />
    <glyph glyph-name="plus" unicode="&#xf067;" horiz-adv-x="448" 
d="M240 384v16v-16v16h-32v0v-16v0v-176v0h-176h-16v-32v0h16h176v-176v0v-16v0h32v0v16v0v176v0h176h16v32v0h-16h-176v176v0z" />
    <glyph glyph-name="plus" unicode="&#x2795;" horiz-adv-x="448" 
d="M240 384v16v-16v16h-32v0v-16v0v-176v0h-176h-16v-32v0h16h176v-176v0v-16v0h32v0v16v0v176v0h176h16v32v0h-16h-176v176v0z" />
    <glyph glyph-name="comma" unicode="," horiz-adv-x="192" 
d="M136 81l-73 -113l73 113l-73 -113h-10v0l23 160v0h60v0v-47v0zM48 160l-27 -192l27 192l-27 -192l-5 -32v0h32h32l88 136v0v56v0v32v0h-32h-88z" />
    <glyph glyph-name="hyphen" unicode="-" horiz-adv-x="320" 
d="M0 208h16h-16h320v-32v0h-16h-304v32v0z" />
    <glyph glyph-name="period" unicode="." horiz-adv-x="192" 
d="M128 64v-64v64v-64h-64v0v64v0h64v0zM64 96h-32h32h-32v-32v0v-64v0v-32v0h32h96v32v0v64v0v32v0h-32h-64z" />
    <glyph glyph-name="slash-forward" unicode="/" horiz-adv-x="320" 
d="M318 448h-36h36h-36l-280 -512v0h36v0l280 512v0z" />
    <glyph glyph-name="0" unicode="0" horiz-adv-x="320" 
d="M0 256q2 68 47 113v0v0q45 45 113 47q68 -2 113 -47t47 -113v-128v0q-2 -68 -47 -113t-113 -47q-68 2 -113 47t-47 113v128v0zM160 384q-54 -1 -91 -37v0v0q-36 -37 -37 -91v-128v0q1 -54 37 -91q37 -36 91 -37q54 1 91 37q36 37 37 91v128v0q-1 54 -37 91q-37 36 -91 37
v0z" />
    <glyph glyph-name="1" unicode="1" horiz-adv-x="256" 
d="M16 305l3 2l-3 -2l3 2l93 67v0v-374v0h-96h-16v-32v0h16h240v32v0h-16h-96v400v0v16v0h-16h-13l-4 -3v0l-95 -69v0v-40v1z" />
    <glyph glyph-name="2" unicode="2" horiz-adv-x="320" 
d="M71 352q32 31 77 32q46 -1 76 -31q31 -31 32 -76q-1 -46 -34 -78l-217 -203v0l-5 -5v0v-23v0h16h304v32v0h-16h-247l187 176v0q43 41 44 101q-2 59 -41 98q-40 40 -99 41q-58 -1 -100 -41l-27 -28v0l-12 -11v0l23 -23v0l11 12v0l28 27v0z" />
    <glyph glyph-name="3" unicode="3" horiz-adv-x="320" 
d="M304 416v-23v23v-23l-5 -5v0l-178 -164v0h71v0q54 -1 91 -37q36 -37 37 -91q-1 -54 -37 -91q-37 -36 -91 -37h-99v0q-29 0 -53 16q-24 15 -35 42l-4 8v0l30 12v0l3 -7v0q18 -37 59 -39h99v0q41 1 68 28t28 68q-1 41 -28 68t-68 28h-112h-16v23v0l5 5v0l178 164v0h-231
h-16v32v0h16h288z" />
    <glyph glyph-name="4" unicode="4" horiz-adv-x="384" 
d="M11 119l139 297l-139 -297l139 297h35v0l-134 -288v0h237v0v176v0v16v0h32v0v-16v0v-176v0h48h16v-32v0h-16h-48v-112v0v-16v0h-32v0v16v0v112v0h-262h-25l10 23v0z" />
    <glyph glyph-name="5" unicode="5" horiz-adv-x="320" 
d="M51 416h13h-13h237v-32v0h-16h-195l-36 -160v0h151v0q54 -1 91 -37q36 -37 37 -91q-1 -54 -37 -91q-37 -36 -91 -37h-104v0q-27 0 -49 15q-22 14 -32 38l-6 13v0l30 12v0l5 -12v0q16 -32 52 -34h104v0q41 1 68 28t28 68q-1 41 -28 68t-68 28h-171h-20l4 19v0l43 192v0
l3 13v0z" />
    <glyph glyph-name="6" unicode="6" horiz-adv-x="320" 
d="M201 416l-160 -180l160 180l-160 -180q-38 -44 -41 -102v-6q2 -68 47 -113t113 -47q68 2 113 47t47 113q-2 68 -47 113t-113 47q-17 0 -33 -4l117 132v0h-43v0zM160 0q-54 1 -91 37v0v0q-36 37 -37 91v2v1q3 53 39 88q35 36 89 37q54 -1 91 -37q36 -37 37 -91
q-1 -54 -37 -91q-37 -36 -91 -37v0z" />
    <glyph glyph-name="7" unicode="7" horiz-adv-x="320" 
d="M304 416h16h-16h16v-20v0l-2 -4v0l-254 -424v0h-37v0l249 416v0h-260h-16v32v0h16h288z" />
    <glyph glyph-name="8" unicode="8" horiz-adv-x="320" 
d="M304 296q-1 51 -35 85v0v0q-34 34 -85 35h-48v0q-51 -1 -85 -35t-35 -85q0 -31 14 -57q15 -26 39 -42q-31 -15 -50 -44t-19 -65q1 -51 35 -85t85 -35h80v0q51 1 85 35t35 85q0 36 -19 65t-50 44q24 16 39 42q14 26 14 57v0zM184 176h16h-16h16q37 -1 62 -26t26 -62
q-1 -37 -26 -62t-62 -26h-80v0q-37 1 -62 26t-26 62q1 37 26 62t62 26h16v0v0v0h48v0v0v0v0zM184 208v0v0v0v0h-48v0v0v0q-37 1 -62 26t-26 62q1 37 26 62t62 26h48v0q37 -1 62 -26t26 -62q-1 -37 -26 -62t-62 -26v0z" />
    <glyph glyph-name="9" unicode="9" horiz-adv-x="320" 
d="M119 -32l160 179l-160 -179l160 179q38 45 41 103v6q-2 68 -47 113t-113 47q-68 -2 -113 -47t-47 -113q2 -68 47 -113t113 -47q17 0 33 3l-117 -131v0h43v0zM160 384q54 -1 91 -37v0v0q36 -37 37 -91v-2v-1q-3 -53 -39 -89q-35 -35 -89 -36q-54 1 -91 37q-36 37 -37 91
q1 54 37 91q37 36 91 37v0z" />
    <glyph glyph-name="colon" unicode=":" horiz-adv-x="192" 
d="M64 352v-64v64v-64h64v0v64v0h-64v0zM32 384h32h-32h128v-32v0v-64v0v-32v0h-32h-96v32v0v64v0v32v0zM64 96v-64v64v-64h64v0v64v0h-64v0zM32 128h32h-32h128v-32v0v-64v0v-32v0h-32h-96v32v0v64v0v32v0z" />
    <glyph glyph-name="semicolon" unicode=";" horiz-adv-x="192" 
d="M64 352v-64v64v-64h64v0v64v0h-64v0zM32 384h32h-32h128v-32v0v-64v0v-32v0h-32h-96v32v0v64v0v32v0zM47 -32l81 122l-81 -122l81 122v38v0h-54v0l-34 -160v0h7v0zM7 -32l41 192l-41 -192l41 192h80h32v-32v0v-48v0l-96 -144v0h-31h-33l7 32v0z" />
    <glyph glyph-name="less-than" unicode="&#x3c;" horiz-adv-x="384" 
d="M384 384l-375 -178l375 178l-375 -178l-9 -4v0v-20v0l9 -4v0l375 -178v0v36v0l-331 156v0l331 156v0v36v0z" />
    <glyph glyph-name="less-than" unicode="&#xf536;" horiz-adv-x="384" 
d="M384 384l-375 -178l375 178l-375 -178l-9 -4v0v-20v0l9 -4v0l375 -178v0v36v0l-331 156v0l331 156v0v36v0z" />
    <glyph glyph-name="less-than" unicode="&#xf536;" horiz-adv-x="384" 
d="M384 384l-375 -178l375 178l-375 -178l-9 -4v0v-20v0l9 -4v0l375 -178v0v36v0l-331 156v0l331 156v0v36v0z" />
    <glyph glyph-name="equals" unicode="=" horiz-adv-x="448" 
d="M32 304h-16h16h-16v-32v0h16h400v32v0h-16h-384zM32 112h-16h16h-16v-32v0h16h400v32v0h-16h-384z" />
    <glyph glyph-name="equals" unicode="&#xf52c;" horiz-adv-x="448" 
d="M32 304h-16h16h-16v-32v0h16h400v32v0h-16h-384zM32 112h-16h16h-16v-32v0h16h400v32v0h-16h-384z" />
    <glyph glyph-name="equals" unicode="&#xf52c;" horiz-adv-x="448" 
d="M32 304h-16h16h-16v-32v0h16h400v32v0h-16h-384zM32 112h-16h16h-16v-32v0h16h400v32v0h-16h-384z" />
    <glyph glyph-name="greater-than" unicode="&#x3e;" horiz-adv-x="384" 
d="M0 384l375 -178l-375 178l375 -178l9 -4v0v-20v0l-9 -4v0l-375 -178v0v36v0l331 156v0l-331 156v0v36v0z" />
    <glyph glyph-name="greater-than" unicode="&#xf531;" horiz-adv-x="384" 
d="M0 384l375 -178l-375 178l375 -178l9 -4v0v-20v0l-9 -4v0l-375 -178v0v36v0l331 156v0l-331 156v0v36v0z" />
    <glyph glyph-name="greater-than" unicode="&#xf531;" horiz-adv-x="384" 
d="M0 384l375 -178l-375 178l375 -178l9 -4v0v-20v0l-9 -4v0l-375 -178v0v36v0l331 156v0l-331 156v0v36v0z" />
    <glyph glyph-name="question" unicode="?" horiz-adv-x="320" 
d="M48 288q1 41 28 68v0v0q27 27 68 28h32v0q41 -1 68 -28t28 -68q-1 -40 -32 -64l-90 -67v0l-6 -5v0v-8v0v-48v0v-16v0h32v0v16v0v40v0l83 62v0q44 35 45 90q-1 54 -37 91q-37 36 -91 37h-32v0q-54 -1 -91 -37q-36 -37 -37 -91h32v0zM184 24h-48h48h-48v-48v0h48v0v48v0z
" />
    <glyph glyph-name="question" unicode="&#xf128;" horiz-adv-x="320" 
d="M48 288q1 41 28 68v0v0q27 27 68 28h32v0q41 -1 68 -28t28 -68q-1 -40 -32 -64l-90 -67v0l-6 -5v0v-8v0v-48v0v-16v0h32v0v16v0v40v0l83 62v0q44 35 45 90q-1 54 -37 91q-37 36 -91 37h-32v0q-54 -1 -91 -37q-36 -37 -37 -91h32v0zM184 24h-48h48h-48v-48v0h48v0v48v0z
" />
    <glyph glyph-name="question" unicode="&#x2754;" horiz-adv-x="320" 
d="M48 288q1 41 28 68v0v0q27 27 68 28h32v0q41 -1 68 -28t28 -68q-1 -40 -32 -64l-90 -67v0l-6 -5v0v-8v0v-48v0v-16v0h32v0v16v0v40v0l83 62v0q44 35 45 90q-1 54 -37 91q-37 36 -91 37h-32v0q-54 -1 -91 -37q-36 -37 -37 -91h32v0zM184 24h-48h48h-48v-48v0h48v0v48v0z
" />
    <glyph glyph-name="question" unicode="&#x2753;" horiz-adv-x="320" 
d="M48 288q1 41 28 68v0v0q27 27 68 28h32v0q41 -1 68 -28t28 -68q-1 -40 -32 -64l-90 -67v0l-6 -5v0v-8v0v-48v0v-16v0h32v0v16v0v40v0l83 62v0q44 35 45 90q-1 54 -37 91q-37 36 -91 37h-32v0q-54 -1 -91 -37q-36 -37 -37 -91h32v0zM184 24h-48h48h-48v-48v0h48v0v48v0z
" />
    <glyph glyph-name="question" unicode="&#xf128;" horiz-adv-x="320" 
d="M48 288q1 41 28 68v0v0q27 27 68 28h32v0q41 -1 68 -28t28 -68q-1 -40 -32 -64l-90 -67v0l-6 -5v0v-8v0v-48v0v-16v0h32v0v16v0v40v0l83 62v0q44 35 45 90q-1 54 -37 91q-37 36 -91 37h-32v0q-54 -1 -91 -37q-36 -37 -37 -91h32v0zM184 24h-48h48h-48v-48v0h48v0v48v0z
" />
    <glyph glyph-name="question" unicode="&#x2754;" horiz-adv-x="320" 
d="M48 288q1 41 28 68v0v0q27 27 68 28h32v0q41 -1 68 -28t28 -68q-1 -40 -32 -64l-90 -67v0l-6 -5v0v-8v0v-48v0v-16v0h32v0v16v0v40v0l83 62v0q44 35 45 90q-1 54 -37 91q-37 36 -91 37h-32v0q-54 -1 -91 -37q-36 -37 -37 -91h32v0zM184 24h-48h48h-48v-48v0h48v0v48v0z
" />
    <glyph glyph-name="question" unicode="&#x2753;" horiz-adv-x="320" 
d="M48 288q1 41 28 68v0v0q27 27 68 28h32v0q41 -1 68 -28t28 -68q-1 -40 -32 -64l-90 -67v0l-6 -5v0v-8v0v-48v0v-16v0h32v0v16v0v40v0l83 62v0q44 35 45 90q-1 54 -37 91q-37 36 -91 37h-32v0q-54 -1 -91 -37q-36 -37 -37 -91h32v0zM184 24h-48h48h-48v-48v0h48v0v48v0z
" />
    <glyph glyph-name="at" unicode="@" 
d="M256 416q-63 -1 -113 -31v0v0q-51 -29 -80 -80v0v0q-30 -50 -31 -113q1 -63 31 -113q29 -51 80 -80q50 -30 113 -31h16v0v-32v0h-16v0q-72 1 -129 35q-58 34 -92 92q-34 57 -35 129q1 72 35 129q34 58 92 92q57 34 129 35q72 -1 129 -35q58 -34 92 -92q34 -57 35 -129
v-96v0v-16v0h-16h-72q-25 0 -46 13q-20 12 -31 33q-33 -44 -91 -46q-48 1 -79 33q-32 31 -33 79q1 48 33 79q31 32 79 33q48 -1 80 -34v2v0v16v0h32v0v-16v0v-80v0v-24v0q1 -24 16 -40q16 -15 40 -16h56v0v80v0q-1 63 -31 113q-29 51 -80 80q-50 30 -113 31v0zM336 192
q-1 45 -40 69q-40 22 -80 0q-39 -24 -40 -69q1 -45 40 -69q40 -22 80 0q39 24 40 69v0z" />
    <glyph glyph-name="at" unicode="&#xf1fa;" 
d="M256 416q-63 -1 -113 -31v0v0q-51 -29 -80 -80v0v0q-30 -50 -31 -113q1 -63 31 -113q29 -51 80 -80q50 -30 113 -31h16v0v-32v0h-16v0q-72 1 -129 35q-58 34 -92 92q-34 57 -35 129q1 72 35 129q34 58 92 92q57 34 129 35q72 -1 129 -35q58 -34 92 -92q34 -57 35 -129
v-96v0v-16v0h-16h-72q-25 0 -46 13q-20 12 -31 33q-33 -44 -91 -46q-48 1 -79 33q-32 31 -33 79q1 48 33 79q31 32 79 33q48 -1 80 -34v2v0v16v0h32v0v-16v0v-80v0v-24v0q1 -24 16 -40q16 -15 40 -16h56v0v80v0q-1 63 -31 113q-29 51 -80 80q-50 30 -113 31v0zM336 192
q-1 45 -40 69q-40 22 -80 0q-39 -24 -40 -69q1 -45 40 -69q40 -22 80 0q39 24 40 69v0z" />
    <glyph glyph-name="at" unicode="&#xf1fa;" 
d="M256 416q-63 -1 -113 -31v0v0q-51 -29 -80 -80v0v0q-30 -50 -31 -113q1 -63 31 -113q29 -51 80 -80q50 -30 113 -31h16v0v-32v0h-16v0q-72 1 -129 35q-58 34 -92 92q-34 57 -35 129q1 72 35 129q34 58 92 92q57 34 129 35q72 -1 129 -35q58 -34 92 -92q34 -57 35 -129
v-96v0v-16v0h-16h-72q-25 0 -46 13q-20 12 -31 33q-33 -44 -91 -46q-48 1 -79 33q-32 31 -33 79q1 48 33 79q31 32 79 33q48 -1 80 -34v2v0v16v0h32v0v-16v0v-80v0v-24v0q1 -24 16 -40q16 -15 40 -16h56v0v80v0q-1 63 -31 113q-29 51 -80 80q-50 30 -113 31v0zM336 192
q-1 45 -40 69q-40 22 -80 0q-39 -24 -40 -69q1 -45 40 -69q40 -22 80 0q39 24 40 69v0z" />
    <glyph glyph-name="a" unicode="A" horiz-adv-x="384" 
d="M181 416h22h-22h22l4 -10v0l175 -438v0h-34v0l-39 96v0h-234v0l-39 -96v0h-34v0l175 438v0l4 10v0zM192 357l-104 -261l104 261l-104 -261h208v0l-104 261v0z" />
    <glyph glyph-name="a" unicode="a" horiz-adv-x="384" 
d="M181 416h22h-22h22l4 -10v0l175 -438v0h-34v0l-39 96v0h-234v0l-39 -96v0h-34v0l175 438v0l4 10v0zM192 357l-104 -261l104 261l-104 -261h208v0l-104 261v0z" />
    <glyph glyph-name="a" unicode="a" horiz-adv-x="384" 
d="M181 416h22h-22h22l4 -10v0l175 -438v0h-34v0l-39 96v0h-234v0l-39 -96v0h-34v0l175 438v0l4 10v0zM192 357l-104 -261l104 261l-104 -261h208v0l-104 261v0z" />
    <glyph glyph-name="b" unicode="B" horiz-adv-x="320" 
d="M16 416h-16h16h-16v-16v0v-176v0v-16v0v-16v0v-208v0v-16v0h16h176q54 1 91 37q36 37 37 91q-1 40 -22 71t-56 47q44 32 46 90q-1 48 -33 79q-31 32 -79 33h-160v0zM192 192q41 -1 68 -28v0v0q27 -27 28 -68q-1 -41 -28 -68t-68 -28h-160v0v192v0h144h16zM176 224h-144
h144h-144v160v0h144v0q34 -1 57 -23q22 -23 23 -57q-1 -34 -23 -57q-23 -22 -57 -23v0z" />
    <glyph glyph-name="b" unicode="b" horiz-adv-x="320" 
d="M16 416h-16h16h-16v-16v0v-176v0v-16v0v-16v0v-208v0v-16v0h16h176q54 1 91 37q36 37 37 91q-1 40 -22 71t-56 47q44 32 46 90q-1 48 -33 79q-31 32 -79 33h-160v0zM192 192q41 -1 68 -28v0v0q27 -27 28 -68q-1 -41 -28 -68t-68 -28h-160v0v192v0h144h16zM176 224h-144
h144h-144v160v0h144v0q34 -1 57 -23q22 -23 23 -57q-1 -34 -23 -57q-23 -22 -57 -23v0z" />
    <glyph glyph-name="b" unicode="b" horiz-adv-x="320" 
d="M16 416h-16h16h-16v-16v0v-176v0v-16v0v-16v0v-208v0v-16v0h16h176q54 1 91 37q36 37 37 91q-1 40 -22 71t-56 47q44 32 46 90q-1 48 -33 79q-31 32 -79 33h-160v0zM192 192q41 -1 68 -28v0v0q27 -27 28 -68q-1 -41 -28 -68t-68 -28h-160v0v192v0h144h16zM176 224h-144
h144h-144v160v0h144v0q34 -1 57 -23q22 -23 23 -57q-1 -34 -23 -57q-23 -22 -57 -23v0z" />
    <glyph glyph-name="c" unicode="C" horiz-adv-x="384" 
d="M224 384q-82 -2 -136 -56v0v0q-54 -54 -56 -136q2 -82 56 -136t136 -56q79 2 133 53l22 -23v0q-63 -60 -155 -62q-63 1 -113 31q-51 29 -80 80q-30 50 -31 113q1 63 31 113q29 51 80 80q50 30 113 31q92 -2 155 -62l-22 -24v0q-54 52 -133 54v0z" />
    <glyph glyph-name="c" unicode="c" horiz-adv-x="384" 
d="M224 384q-82 -2 -136 -56v0v0q-54 -54 -56 -136q2 -82 56 -136t136 -56q79 2 133 53l22 -23v0q-63 -60 -155 -62q-63 1 -113 31q-51 29 -80 80q-30 50 -31 113q1 63 31 113q29 51 80 80q50 30 113 31q92 -2 155 -62l-22 -24v0q-54 52 -133 54v0z" />
    <glyph glyph-name="c" unicode="c" horiz-adv-x="384" 
d="M224 384q-82 -2 -136 -56v0v0q-54 -54 -56 -136q2 -82 56 -136t136 -56q79 2 133 53l22 -23v0q-63 -60 -155 -62q-63 1 -113 31q-51 29 -80 80q-30 50 -31 113q1 63 31 113q29 51 80 80q50 30 113 31q92 -2 155 -62l-22 -24v0q-54 52 -133 54v0z" />
    <glyph glyph-name="d" unicode="D" horiz-adv-x="384" 
d="M0 416h16h-16h160q63 -1 113 -31q51 -29 80 -80q30 -50 31 -113q-1 -63 -31 -113q-29 -51 -80 -80q-50 -30 -113 -31h-144h-16v16v0v416v0v16v0zM32 384v-384v384v-384h128v0q82 2 136 56t56 136q-2 82 -56 136t-136 56h-128v0z" />
    <glyph glyph-name="d" unicode="d" horiz-adv-x="384" 
d="M0 416h16h-16h160q63 -1 113 -31q51 -29 80 -80q30 -50 31 -113q-1 -63 -31 -113q-29 -51 -80 -80q-50 -30 -113 -31h-144h-16v16v0v416v0v16v0zM32 384v-384v384v-384h128v0q82 2 136 56t56 136q-2 82 -56 136t-136 56h-128v0z" />
    <glyph glyph-name="d" unicode="d" horiz-adv-x="384" 
d="M0 416h16h-16h160q63 -1 113 -31q51 -29 80 -80q30 -50 31 -113q-1 -63 -31 -113q-29 -51 -80 -80q-50 -30 -113 -31h-144h-16v16v0v416v0v16v0zM32 384v-384v384v-384h128v0q82 2 136 56t56 136q-2 82 -56 136t-136 56h-128v0z" />
    <glyph glyph-name="e" unicode="E" horiz-adv-x="320" 
d="M16 416h-16h16h-16v-16v0v-208v0v-208v0v-16v0h16h304v32v0h-16h-272v176v0h208h16v32v0h-16h-208v176v0h272h16v32v0h-16h-288z" />
    <glyph glyph-name="e" unicode="e" horiz-adv-x="320" 
d="M16 416h-16h16h-16v-16v0v-208v0v-208v0v-16v0h16h304v32v0h-16h-272v176v0h208h16v32v0h-16h-208v176v0h272h16v32v0h-16h-288z" />
    <glyph glyph-name="e" unicode="e" horiz-adv-x="320" 
d="M16 416h-16h16h-16v-16v0v-208v0v-208v0v-16v0h16h304v32v0h-16h-272v176v0h208h16v32v0h-16h-208v176v0h272h16v32v0h-16h-288z" />
    <glyph glyph-name="f" unicode="F" horiz-adv-x="320" 
d="M16 416h-16h16h-16v-16v0v-200v0v-216v0v-16v0h32v0v16v0v192v0h208h16v32v0h-16h-208v176v0h272h16v32v0h-16h-288z" />
    <glyph glyph-name="f" unicode="f" horiz-adv-x="320" 
d="M16 416h-16h16h-16v-16v0v-200v0v-216v0v-16v0h32v0v16v0v192v0h208h16v32v0h-16h-208v176v0h272h16v32v0h-16h-288z" />
    <glyph glyph-name="f" unicode="f" horiz-adv-x="320" 
d="M16 416h-16h16h-16v-16v0v-200v0v-216v0v-16v0h32v0v16v0v192v0h208h16v32v0h-16h-208v176v0h272h16v32v0h-16h-288z" />
    <glyph glyph-name="g" unicode="G" horiz-adv-x="448" 
d="M224 384q-82 -2 -136 -56v0v0q-54 -54 -56 -136q2 -82 56 -136t136 -56q77 2 130 51t61 125h-173h-16v32v0h16h206v-16v0q-1 -63 -31 -113q-29 -51 -80 -80q-50 -30 -113 -31q-63 1 -113 31q-51 29 -80 80q-30 50 -31 113q1 63 31 113q29 51 80 80q50 30 113 31
q88 -2 149 -57l12 -11v0l-21 -24v0l-12 11v0q-53 47 -128 49v0z" />
    <glyph glyph-name="g" unicode="g" horiz-adv-x="448" 
d="M224 384q-82 -2 -136 -56v0v0q-54 -54 -56 -136q2 -82 56 -136t136 -56q77 2 130 51t61 125h-173h-16v32v0h16h206v-16v0q-1 -63 -31 -113q-29 -51 -80 -80q-50 -30 -113 -31q-63 1 -113 31q-51 29 -80 80q-30 50 -31 113q1 63 31 113q29 51 80 80q50 30 113 31
q88 -2 149 -57l12 -11v0l-21 -24v0l-12 11v0q-53 47 -128 49v0z" />
    <glyph glyph-name="g" unicode="g" horiz-adv-x="448" 
d="M224 384q-82 -2 -136 -56v0v0q-54 -54 -56 -136q2 -82 56 -136t136 -56q77 2 130 51t61 125h-173h-16v32v0h16h206v-16v0q-1 -63 -31 -113q-29 -51 -80 -80q-50 -30 -113 -31q-63 1 -113 31q-51 29 -80 80q-30 50 -31 113q1 63 31 113q29 51 80 80q50 30 113 31
q88 -2 149 -57l12 -11v0l-21 -24v0l-12 11v0q-53 47 -128 49v0z" />
    <glyph glyph-name="h" unicode="H" horiz-adv-x="384" 
d="M352 192v-208v208v-208v-16v0h32v0v16v0v208v0v32v0v176v0v16v0h-32v0v-16v0v-176v0h-320v0v176v0v16v0h-32v0v-16v0v-176v0v-32v0v-208v0v-16v0h32v0v16v0v208v0h320v0z" />
    <glyph glyph-name="h" unicode="h" horiz-adv-x="384" 
d="M352 192v-208v208v-208v-16v0h32v0v16v0v208v0v32v0v176v0v16v0h-32v0v-16v0v-176v0h-320v0v176v0v16v0h-32v0v-16v0v-176v0v-32v0v-208v0v-16v0h32v0v16v0v208v0h320v0z" />
    <glyph glyph-name="h" unicode="h" horiz-adv-x="384" 
d="M352 192v-208v208v-208v-16v0h32v0v16v0v208v0v32v0v176v0v16v0h-32v0v-16v0v-176v0h-320v0v176v0v16v0h-32v0v-16v0v-176v0v-32v0v-208v0v-16v0h32v0v16v0v208v0h320v0z" />
    <glyph glyph-name="i" unicode="I" horiz-adv-x="320" 
d="M16 416h-16h16h-16v-32v0h16h128v-384v0h-128h-16v-32v0h16h304v32v0h-16h-128v384v0h128h16v32v0h-16h-288z" />
    <glyph glyph-name="i" unicode="i" horiz-adv-x="320" 
d="M16 416h-16h16h-16v-32v0h16h128v-384v0h-128h-16v-32v0h16h304v32v0h-16h-128v384v0h128h16v32v0h-16h-288z" />
    <glyph glyph-name="i" unicode="i" horiz-adv-x="320" 
d="M16 416h-16h16h-16v-32v0h16h128v-384v0h-128h-16v-32v0h16h304v32v0h-16h-128v384v0h128h16v32v0h-16h-288z" />
    <glyph glyph-name="j" unicode="J" horiz-adv-x="320" 
d="M320 416v-16v16v-16v-272v0q-2 -68 -47 -113t-113 -47q-68 2 -113 47t-47 113v48v0v16v0h32v0v-16v0v-48v0q1 -54 37 -91q37 -36 91 -37q54 1 91 37q36 37 37 91v272v0v16v0h32v0z" />
    <glyph glyph-name="j" unicode="j" horiz-adv-x="320" 
d="M320 416v-16v16v-16v-272v0q-2 -68 -47 -113t-113 -47q-68 2 -113 47t-47 113v48v0v16v0h32v0v-16v0v-48v0q1 -54 37 -91q37 -36 91 -37q54 1 91 37q36 37 37 91v272v0v16v0h32v0z" />
    <glyph glyph-name="j" unicode="j" horiz-adv-x="320" 
d="M320 416v-16v16v-16v-272v0q-2 -68 -47 -113t-113 -47q-68 2 -113 47t-47 113v48v0v16v0h32v0v-16v0v-48v0q1 -54 37 -91q37 -36 91 -37q54 1 91 37q36 37 37 91v272v0v16v0h32v0z" />
    <glyph glyph-name="k" unicode="K" horiz-adv-x="320" 
d="M274 416h43h-43h43l-172 -188v0l173 -260v0h-39v0l-157 236v0l-90 -98v0v-122v0v-16v0h-32v0v16v0v128v0v288v0v16v0h32v0v-16v0v-247v0l242 263v0z" />
    <glyph glyph-name="k" unicode="k" horiz-adv-x="320" 
d="M274 416h43h-43h43l-172 -188v0l173 -260v0h-39v0l-157 236v0l-90 -98v0v-122v0v-16v0h-32v0v16v0v128v0v288v0v16v0h32v0v-16v0v-247v0l242 263v0z" />
    <glyph glyph-name="k" unicode="k" horiz-adv-x="320" 
d="M274 416h43h-43h43l-172 -188v0l173 -260v0h-39v0l-157 236v0l-90 -98v0v-122v0v-16v0h-32v0v16v0v128v0v288v0v16v0h32v0v-16v0v-247v0l242 263v0z" />
    <glyph glyph-name="l" unicode="L" horiz-adv-x="320" 
d="M64 416v-16v16v-16v-400v0h240h16v-32v0h-16h-272v16v0v416v0v16v0h32v0z" />
    <glyph glyph-name="l" unicode="l" horiz-adv-x="320" 
d="M64 416v-16v16v-16v-400v0h240h16v-32v0h-16h-272v16v0v416v0v16v0h32v0z" />
    <glyph glyph-name="l" unicode="l" horiz-adv-x="320" 
d="M64 416v-16v16v-16v-400v0h240h16v-32v0h-16h-272v16v0v416v0v16v0h32v0z" />
    <glyph glyph-name="m" unicode="M" horiz-adv-x="448" 
d="M0 416v-16v16v-16v-416v0v-16v0h32v0v16v0v364v0l179 -261v0l13 -19v0l13 19v0l179 261v0v-364v0v-16v0h32v0v16v0v416v0v16v0h-24v0l-5 -7v0l-195 -285v0l-195 285v0l-5 7v0h-24v0z" />
    <glyph glyph-name="m" unicode="m" horiz-adv-x="448" 
d="M0 416v-16v16v-16v-416v0v-16v0h32v0v16v0v364v0l179 -261v0l13 -19v0l13 19v0l179 261v0v-364v0v-16v0h32v0v16v0v416v0v16v0h-24v0l-5 -7v0l-195 -285v0l-195 285v0l-5 7v0h-24v0z" />
    <glyph glyph-name="m" unicode="m" horiz-adv-x="448" 
d="M0 416v-16v16v-16v-416v0v-16v0h32v0v16v0v364v0l179 -261v0l13 -19v0l13 19v0l179 261v0v-364v0v-16v0h32v0v16v0v416v0v16v0h-24v0l-5 -7v0l-195 -285v0l-195 285v0l-5 7v0h-24v0z" />
    <glyph glyph-name="n" unicode="N" horiz-adv-x="384" 
d="M0 400v16v-16v16h23v0l5 -6v0l324 -382v0v372v0v16v0h32v0v-16v0v-416v0v-16v0h-23v0l-5 6v0l-324 382v0v-372v0v-16v0h-32v0v16v0v416v0z" />
    <glyph glyph-name="n" unicode="n" horiz-adv-x="384" 
d="M0 400v16v-16v16h23v0l5 -6v0l324 -382v0v372v0v16v0h32v0v-16v0v-416v0v-16v0h-23v0l-5 6v0l-324 382v0v-372v0v-16v0h-32v0v16v0v416v0z" />
    <glyph glyph-name="n" unicode="n" horiz-adv-x="384" 
d="M0 400v16v-16v16h23v0l5 -6v0l324 -382v0v372v0v16v0h32v0v-16v0v-416v0v-16v0h-23v0l-5 6v0l-324 382v0v-372v0v-16v0h-32v0v16v0v416v0z" />
    <glyph glyph-name="o" unicode="O" horiz-adv-x="448" 
d="M224 384q-52 0 -96 -26v0v0q-44 -25 -70 -70t-26 -96t26 -96t70 -70q44 -26 96 -26t96 26q44 25 70 70t26 96t-26 96t-70 70q-44 26 -96 26v0zM448 192q-1 -61 -30 -112v0v0q-30 -51 -82 -82q-53 -30 -112 -30t-112 30q-52 31 -82 82q-29 51 -30 112q1 61 30 112
q30 51 82 82q53 30 112 30t112 -30q52 -31 82 -82q29 -51 30 -112v0z" />
    <glyph glyph-name="o" unicode="o" horiz-adv-x="448" 
d="M224 384q-52 0 -96 -26v0v0q-44 -25 -70 -70t-26 -96t26 -96t70 -70q44 -26 96 -26t96 26q44 25 70 70t26 96t-26 96t-70 70q-44 26 -96 26v0zM448 192q-1 -61 -30 -112v0v0q-30 -51 -82 -82q-53 -30 -112 -30t-112 30q-52 31 -82 82q-29 51 -30 112q1 61 30 112
q30 51 82 82q53 30 112 30t112 -30q52 -31 82 -82q29 -51 30 -112v0z" />
    <glyph glyph-name="o" unicode="o" horiz-adv-x="448" 
d="M224 384q-52 0 -96 -26v0v0q-44 -25 -70 -70t-26 -96t26 -96t70 -70q44 -26 96 -26t96 26q44 25 70 70t26 96t-26 96t-70 70q-44 26 -96 26v0zM448 192q-1 -61 -30 -112v0v0q-30 -51 -82 -82q-53 -30 -112 -30t-112 30q-52 31 -82 82q-29 51 -30 112q1 61 30 112
q30 51 82 82q53 30 112 30t112 -30q52 -31 82 -82q29 -51 30 -112v0z" />
    <glyph glyph-name="p" unicode="P" horiz-adv-x="320" 
d="M0 416h16h-16h176q61 -2 102 -42q40 -41 42 -102q-2 -61 -42 -102q-41 -40 -102 -42h-144v0v-144v0v-16v0h-32v0v16v0v144v0v32v0v240v0v16v0zM32 160h144h-144h144q48 1 79 33q32 31 33 79q-1 48 -33 79q-31 32 -79 33h-144v0v-224v0z" />
    <glyph glyph-name="p" unicode="p" horiz-adv-x="320" 
d="M0 416h16h-16h176q61 -2 102 -42q40 -41 42 -102q-2 -61 -42 -102q-41 -40 -102 -42h-144v0v-144v0v-16v0h-32v0v16v0v144v0v32v0v240v0v16v0zM32 160h144h-144h144q48 1 79 33q32 31 33 79q-1 48 -33 79q-31 32 -79 33h-144v0v-224v0z" />
    <glyph glyph-name="p" unicode="p" horiz-adv-x="320" 
d="M0 416h16h-16h176q61 -2 102 -42q40 -41 42 -102q-2 -61 -42 -102q-41 -40 -102 -42h-144v0v-144v0v-16v0h-32v0v16v0v144v0v32v0v240v0v16v0zM32 160h144h-144h144q48 1 79 33q32 31 33 79q-1 48 -33 79q-31 32 -79 33h-144v0v-224v0z" />
    <glyph glyph-name="q" unicode="Q" horiz-adv-x="448" 
d="M32 192q2 -82 56 -136v0v0q54 -54 136 -56q64 1 112 36l-111 156v0h39v0l97 -135v0q53 54 55 135q-2 82 -56 136t-136 56q-82 -2 -136 -56t-56 -136v0zM355 10q-57 -41 -131 -42q-63 1 -113 31q-51 29 -80 80q-30 50 -31 113q1 63 31 113q29 51 80 80q50 30 113 31
q63 -1 113 -31q51 -29 80 -80q30 -50 31 -113q0 -48 -18 -89q-19 -41 -51 -72l68 -95v0h-39v0l-53 74v0z" />
    <glyph glyph-name="q" unicode="q" horiz-adv-x="448" 
d="M32 192q2 -82 56 -136v0v0q54 -54 136 -56q64 1 112 36l-111 156v0h39v0l97 -135v0q53 54 55 135q-2 82 -56 136t-136 56q-82 -2 -136 -56t-56 -136v0zM355 10q-57 -41 -131 -42q-63 1 -113 31q-51 29 -80 80q-30 50 -31 113q1 63 31 113q29 51 80 80q50 30 113 31
q63 -1 113 -31q51 -29 80 -80q30 -50 31 -113q0 -48 -18 -89q-19 -41 -51 -72l68 -95v0h-39v0l-53 74v0z" />
    <glyph glyph-name="q" unicode="q" horiz-adv-x="448" 
d="M32 192q2 -82 56 -136v0v0q54 -54 136 -56q64 1 112 36l-111 156v0h39v0l97 -135v0q53 54 55 135q-2 82 -56 136t-136 56q-82 -2 -136 -56t-56 -136v0zM355 10q-57 -41 -131 -42q-63 1 -113 31q-51 29 -80 80q-30 50 -31 113q1 63 31 113q29 51 80 80q50 30 113 31
q63 -1 113 -31q51 -29 80 -80q30 -50 31 -113q0 -48 -18 -89q-19 -41 -51 -72l68 -95v0h-39v0l-53 74v0z" />
    <glyph glyph-name="r" unicode="R" horiz-adv-x="320" 
d="M16 416h-16h16h-16v-16v0v-224v0v-192v0v-16v0h32v0v16v0v176v0h135v0l115 -192v0h37v0l-115 192v0q50 6 82 42q33 35 34 86q-1 54 -37 91q-37 36 -91 37h-176v0zM176 192h-144h144h-144v192v0h160v0q41 -1 68 -28t28 -68q-1 -41 -28 -68t-68 -28h-16v0z" />
    <glyph glyph-name="r" unicode="r" horiz-adv-x="320" 
d="M16 416h-16h16h-16v-16v0v-224v0v-192v0v-16v0h32v0v16v0v176v0h135v0l115 -192v0h37v0l-115 192v0q50 6 82 42q33 35 34 86q-1 54 -37 91q-37 36 -91 37h-176v0zM176 192h-144h144h-144v192v0h160v0q41 -1 68 -28t28 -68q-1 -41 -28 -68t-68 -28h-16v0z" />
    <glyph glyph-name="r" unicode="r" horiz-adv-x="320" 
d="M16 416h-16h16h-16v-16v0v-224v0v-192v0v-16v0h32v0v16v0v176v0h135v0l115 -192v0h37v0l-115 192v0q50 6 82 42q33 35 34 86q-1 54 -37 91q-37 36 -91 37h-176v0zM176 192h-144h144h-144v192v0h160v0q41 -1 68 -28t28 -68q-1 -41 -28 -68t-68 -28h-16v0z" />
    <glyph glyph-name="s" unicode="S" horiz-adv-x="320" 
d="M83 372q-42 -17 -49 -56q-5 -27 3 -43t26 -28q39 -23 101 -38h2v0h1q29 -8 57 -18q28 -9 51 -24q24 -15 37 -41q12 -26 6 -61q-13 -59 -69 -81q-55 -21 -128 -10v0q-20 3 -46 11t-49 15q-8 3 -15 5l10 31v0q5 -2 11 -4l6 -2h2q22 -8 45 -15q24 -7 41 -10q67 -9 111 9
q42 17 49 56q5 27 -3 42q-8 16 -26 28q-39 24 -101 38l-2 1v0h-1q-29 8 -57 17q-28 10 -51 25q-24 15 -37 41q-12 26 -6 61q13 59 69 81q55 21 128 10q13 -2 36 -6q24 -5 37 -8l-8 -31v0q-12 3 -35 7q-22 5 -35 7l3 15v0l-3 -15v0q-67 9 -111 -9v0z" />
    <glyph glyph-name="s" unicode="s" horiz-adv-x="320" 
d="M83 372q-42 -17 -49 -56q-5 -27 3 -43t26 -28q39 -23 101 -38h2v0h1q29 -8 57 -18q28 -9 51 -24q24 -15 37 -41q12 -26 6 -61q-13 -59 -69 -81q-55 -21 -128 -10v0q-20 3 -46 11t-49 15q-8 3 -15 5l10 31v0q5 -2 11 -4l6 -2h2q22 -8 45 -15q24 -7 41 -10q67 -9 111 9
q42 17 49 56q5 27 -3 42q-8 16 -26 28q-39 24 -101 38l-2 1v0h-1q-29 8 -57 17q-28 10 -51 25q-24 15 -37 41q-12 26 -6 61q13 59 69 81q55 21 128 10q13 -2 36 -6q24 -5 37 -8l-8 -31v0q-12 3 -35 7q-22 5 -35 7l3 15v0l-3 -15v0q-67 9 -111 -9v0z" />
    <glyph glyph-name="s" unicode="s" horiz-adv-x="320" 
d="M83 372q-42 -17 -49 -56q-5 -27 3 -43t26 -28q39 -23 101 -38h2v0h1q29 -8 57 -18q28 -9 51 -24q24 -15 37 -41q12 -26 6 -61q-13 -59 -69 -81q-55 -21 -128 -10v0q-20 3 -46 11t-49 15q-8 3 -15 5l10 31v0q5 -2 11 -4l6 -2h2q22 -8 45 -15q24 -7 41 -10q67 -9 111 9
q42 17 49 56q5 27 -3 42q-8 16 -26 28q-39 24 -101 38l-2 1v0h-1q-29 8 -57 17q-28 10 -51 25q-24 15 -37 41q-12 26 -6 61q13 59 69 81q55 21 128 10q13 -2 36 -6q24 -5 37 -8l-8 -31v0q-12 3 -35 7q-22 5 -35 7l3 15v0l-3 -15v0q-67 9 -111 -9v0z" />
    <glyph glyph-name="t" unicode="T" horiz-adv-x="384" 
d="M16 416h-16h16h-16v-32v0h16h160v-400v0v-16v0h32v0v16v0v400v0h160h16v32v0h-16h-352z" />
    <glyph glyph-name="t" unicode="t" horiz-adv-x="384" 
d="M16 416h-16h16h-16v-32v0h16h160v-400v0v-16v0h32v0v16v0v400v0h160h16v32v0h-16h-352z" />
    <glyph glyph-name="t" unicode="t" horiz-adv-x="384" 
d="M16 416h-16h16h-16v-32v0h16h160v-400v0v-16v0h32v0v16v0v400v0h160h16v32v0h-16h-352z" />
    <glyph glyph-name="u" unicode="U" horiz-adv-x="384" 
d="M32 416v-16v16v-16v-240v0q2 -68 47 -113t113 -47q68 2 113 47t47 113v240v0v16v0h32v0v-16v0v-240v0q-2 -82 -56 -136t-136 -56q-82 2 -136 56t-56 136v240v0v16v0h32v0z" />
    <glyph glyph-name="u" unicode="u" horiz-adv-x="384" 
d="M32 416v-16v16v-16v-240v0q2 -68 47 -113t113 -47q68 2 113 47t47 113v240v0v16v0h32v0v-16v0v-240v0q-2 -82 -56 -136t-136 -56q-82 2 -136 56t-56 136v240v0v16v0h32v0z" />
    <glyph glyph-name="u" unicode="u" horiz-adv-x="384" 
d="M32 416v-16v16v-16v-240v0q2 -68 47 -113t113 -47q68 2 113 47t47 113v240v0v16v0h32v0v-16v0v-240v0q-2 -82 -56 -136t-136 -56q-82 2 -136 56t-56 136v240v0v16v0h32v0z" />
    <glyph glyph-name="v" unicode="V" horiz-adv-x="384" 
d="M349 416h35h-35h35l-177 -438v0l-4 -10v0h-22v0l-4 10v0l-176 438v0h34v0l157 -389v0l157 389v0z" />
    <glyph glyph-name="v" unicode="v" horiz-adv-x="384" 
d="M349 416h35h-35h35l-177 -438v0l-4 -10v0h-22v0l-4 10v0l-176 438v0h34v0l157 -389v0l157 389v0z" />
    <glyph glyph-name="v" unicode="v" horiz-adv-x="384" 
d="M349 416h35h-35h35l-177 -438v0l-4 -10v0h-22v0l-4 10v0l-176 438v0h34v0l157 -389v0l157 389v0z" />
    <glyph glyph-name="w" unicode="W" horiz-adv-x="576" 
d="M542 416h33h-33h33l-152 -437v0l-4 -11v0h-23v0l-3 12v0l-105 362v0l-105 -362v0l-3 -12v0h-23v0l-4 11v0l-152 437v0h34v0l132 -379v0l106 367v0l3 12v0h24v0l3 -12v0l106 -367v0l133 379v0z" />
    <glyph glyph-name="w" unicode="w" horiz-adv-x="576" 
d="M542 416h33h-33h33l-152 -437v0l-4 -11v0h-23v0l-3 12v0l-105 362v0l-105 -362v0l-3 -12v0h-23v0l-4 11v0l-152 437v0h34v0l132 -379v0l106 367v0l3 12v0h24v0l3 -12v0l106 -367v0l133 379v0z" />
    <glyph glyph-name="w" unicode="w" horiz-adv-x="576" 
d="M542 416h33h-33h33l-152 -437v0l-4 -11v0h-23v0l-3 12v0l-105 362v0l-105 -362v0l-3 -12v0h-23v0l-4 11v0l-152 437v0h34v0l132 -379v0l106 367v0l3 12v0h24v0l3 -12v0l106 -367v0l133 379v0z" />
    <glyph glyph-name="x" unicode="X" horiz-adv-x="384" 
d="M341 416h40h-40h40l-169 -224v0l169 -224v0h-40v0l-149 197v0l-149 -197v0h-40v0l169 224v0l-169 224v0h40v0l149 -197v0l149 197v0z" />
    <glyph glyph-name="x" unicode="x" horiz-adv-x="384" 
d="M341 416h40h-40h40l-169 -224v0l169 -224v0h-40v0l-149 197v0l-149 -197v0h-40v0l169 224v0l-169 224v0h40v0l149 -197v0l149 197v0z" />
    <glyph glyph-name="x" unicode="x" horiz-adv-x="384" 
d="M341 416h40h-40h40l-169 -224v0l169 -224v0h-40v0l-149 197v0l-149 -197v0h-40v0l169 224v0l-169 224v0h40v0l149 -197v0l149 197v0z" />
    <glyph glyph-name="y" unicode="Y" horiz-adv-x="384" 
d="M176 155l-174 261l174 -261l-174 261h39v0l151 -227v0l151 227v0h39v0l-174 -261v0v-171v0v-16v0h-32v0v16v0v171v0z" />
    <glyph glyph-name="y" unicode="y" horiz-adv-x="384" 
d="M176 155l-174 261l174 -261l-174 261h39v0l151 -227v0l151 227v0h39v0l-174 -261v0v-171v0v-16v0h-32v0v16v0v171v0z" />
    <glyph glyph-name="y" unicode="y" horiz-adv-x="384" 
d="M176 155l-174 261l174 -261l-174 261h39v0l151 -227v0l151 227v0h39v0l-174 -261v0v-171v0v-16v0h-32v0v16v0v171v0z" />
    <glyph glyph-name="z" unicode="Z" horiz-adv-x="384" 
d="M384 416h-16h16h-384v-32v0h16h318l-330 -390v0l-4 -4v0v-22v0h16h368v32v0h-16h-317l329 390v0l4 4v0v22v0z" />
    <glyph glyph-name="z" unicode="z" horiz-adv-x="384" 
d="M384 416h-16h16h-384v-32v0h16h318l-330 -390v0l-4 -4v0v-22v0h16h368v32v0h-16h-317l329 390v0l4 4v0v22v0z" />
    <glyph glyph-name="z" unicode="z" horiz-adv-x="384" 
d="M384 416h-16h16h-384v-32v0h16h318l-330 -390v0l-4 -4v0v-22v0h16h368v32v0h-16h-317l329 390v0l4 4v0v22v0z" />
    <glyph glyph-name="bracket-square" unicode="[" horiz-adv-x="192" 
d="M0 416h16h-16h160v-32v0h-16h-112v-384v0h112h16v-32v0h-16h-144v16v0v416v0v16v0z" />
    <glyph glyph-name="slash-back" unicode="\" horiz-adv-x="320" 
d="M2 448h36h-36h36l280 -512v0h-36v0l-280 512v0z" />
    <glyph glyph-name="bracket-square-right" unicode="]" horiz-adv-x="192" 
d="M192 416h-16h16h-160v-32v0h16h112v-384v0h-112h-16v-32v0h16h144v16v0v416v0v16v0z" />
    <glyph glyph-name="accent-grave" unicode="`" horiz-adv-x="192" 
d="M64 370l81 -114l-81 114l81 -114h9v0l-29 160v0h-61v0v-46v0zM152 448l34 -192l-34 192l34 -192l6 -32v0h-32h-32l-96 136v0v56v0v32v0h32h88z" />
    <glyph glyph-name="bracket-curly" unicode="{" horiz-adv-x="256" 
d="M80 416h-16h16h-16v-16v0v-137v0l-59 -60v0l-5 -4v0v-14v0l5 -4v0l59 -60v0v-137v0v-16v0h16h144v32v0h-16h-112v128v0v7v0l-5 4v0l-52 53v0l52 53v0l5 4v0v7v0v128v0h112h16v32v0h-16h-128z" />
    <glyph glyph-name="pipe" unicode="|" horiz-adv-x="64" 
d="M48 448v-16v16v-16v-480v0v-16v0h-32v0v16v0v480v0v16v0h32v0z" />
    <glyph glyph-name="bracket-curly-right" unicode="}" horiz-adv-x="256" 
d="M176 416h16h-16h16v-16v0v-137v0l59 -60v0l5 -4v0v-14v0l-5 -4v0l-59 -60v0v-137v0v-16v0h-16h-144v32v0h16h112v128v0v7v0l5 4v0l52 53v0l-52 53v0l-5 4v0v7v0v128v0h-112h-16v32v0h16h128z" />
    <glyph glyph-name="tilde" unicode="~" horiz-adv-x="448" 
d="M0 320h16h-16h144l5 -6v0l171 -218v0h96v0v160v0v16v0h32v0v-16v0v-176v0v-16v0h-16h-128l-5 6v0l-171 218v0h-96v0v-160v0v-16v0h-32v0v16v0v176v0v16v0z" />
    <glyph glyph-name="tilde" unicode="&#xf69f;" horiz-adv-x="448" 
d="M0 320h16h-16h144l5 -6v0l171 -218v0h96v0v160v0v16v0h32v0v-16v0v-176v0v-16v0h-16h-128l-5 6v0l-171 218v0h-96v0v-160v0v-16v0h-32v0v16v0v176v0v16v0z" />
    <glyph glyph-name="tilde" unicode="&#xf69f;" horiz-adv-x="448" 
d="M0 320h16h-16h144l5 -6v0l171 -218v0h96v0v160v0v16v0h32v0v-16v0v-176v0v-16v0h-16h-128l-5 6v0l-171 218v0h-96v0v-160v0v-16v0h-32v0v16v0v176v0v16v0z" />
    <glyph glyph-name="caravan-simple" unicode="&#xe000;" horiz-adv-x="640" 
d="M32 384v-320v320v-320h70v0q10 28 34 46q24 17 56 18q32 -1 56 -18q24 -18 35 -46h261v0v192v0q-1 54 -37 91q-37 36 -91 37h-384v0zM96 32h-64h64h-96v32v0v320v0v32v0h32h384q68 -2 113 -47t47 -113v-192v0h48h16v-32v0h-16h-336q-1 -41 -28 -68t-68 -28q-41 1 -68 28
t-28 68v0zM256 288h-128h128h-128v-64v0h128v0v64v0zM128 320h128h-128h160v-32v0v-64v0v-32v0h-32h-160v32v0v64v0v32v0h32v0zM352 288v-64v64v-64h64v0v64v0h-64v0zM320 320h32h-32h128v-32v0v-64v0v-32v0h-32h-96v32v0v64v0v32v0zM256 32q-1 36 -32 55q-32 18 -64 0
q-31 -19 -32 -55q1 -36 32 -55q32 -18 64 0q31 19 32 55v0z" />
    <glyph glyph-name="cat-space" unicode="&#xe001;" horiz-adv-x="640" 
d="M448 160q-54 1 -91 37v0v0q-36 37 -37 91q1 50 32 85v-85v0q1 -41 28 -68t68 -28q41 1 68 28t28 68v85v0q31 -35 32 -85q-1 -54 -37 -91q-37 -36 -91 -37v0zM608 288q0 40 -17 73v0v0q-17 33 -47 55v1v0h-1v0q-41 30 -95 31q-54 -1 -95 -31h-1v0v-1v0q-30 -22 -47 -55
t-17 -73q0 -7 1 -14q-53 -14 -94 -47q-42 -32 -67 -78v123v0q-1 34 -23 57q-23 22 -57 23h-16v0v-32v0h16v0q20 -1 34 -14q13 -14 14 -34v-248v0v-72v0v-16v0h16h64v0v0h128h80v16v0v21v0q-2 37 -33 53l65 29v0v-103v0v-16v0h16h80v16v0v189v0q43 20 69 58q26 39 27 89v0z
M480 131v-163v163v-163h-32v0v112v0v25v0l-22 -10v0l-122 -54v0v15v0q-1 31 -21 51t-51 21h-8h-16v-32v0h16h8q17 0 28 -12q12 -11 12 -28v-24v0v-16v0v-16v0h16h37q25 -2 27 -27v-5v0h-48v0v0v0h-128h-48v56v0q1 79 47 138q45 59 120 81q15 -51 56 -82q42 -32 97 -33
q17 0 32 3v0zM414 368l-35 28l35 -28l-35 28q30 19 69 20q39 -1 69 -20l-35 -28v0h-68v0zM240 432v16v-16v16h-32v0v-16v0v-32v0h-32h-16v-32v0h16h32v-32v0v-16v0h32v0v16v0v32v0h32h16v32v0h-16h-32v32v0zM384 351l14 -12l-14 12l14 -12l4 -3v0h6h86l4 3v0l14 12v0v-63v0
q-1 -27 -19 -45t-45 -19q-27 1 -45 19t-19 45v63v0zM416 280q15 1 16 16q-1 15 -16 16q-15 -1 -16 -16q1 -15 16 -16v0zM496 296q-1 15 -16 16q-15 -1 -16 -16q1 -15 16 -16q15 1 16 16v0z" />
    <glyph glyph-name="coffee-pot" unicode="&#xe002;" 
d="M0 416h16h-16h480l-12 -32v0l-41 -113v0q39 -26 62 -67q22 -42 23 -92v-8v0q-1 -40 -19 -71q-17 -30 -34 -48q-18 -17 -19 -17h-304v0q-1 0 -19 17q-17 18 -34 48q-18 31 -19 71v8v0q0 50 23 90q22 41 60 68l-51 114v0h-64v0v-144v0v-16v0h-32v0v16v0v160v0v16v0z
M181 272h213h-213h213l40 112v0h-290h-13l50 -112v0zM416 240h-256h256h-256v0v0q-40 -31 -57 -80h370v0q-16 49 -57 80v0v0v0zM479 128h-382h382h-382q-1 -8 -1 -16v-8v0q3 -46 30 -79q12 -15 21 -24l1 -1v0h280v0l1 1v0q9 8 21 24q27 33 30 79v8v0q0 8 -1 16v0z" />
    <glyph glyph-name="comet" unicode="&#xe003;" 
d="M304 432l-34 -19l34 19l-34 -19l-169 -98v0q-47 -28 -74 -75q-27 -46 -27 -101q2 -86 59 -144q58 -57 144 -59q55 0 101 27q47 27 75 74l98 169v0l19 34v0l-25 -2v0l-14 -1v0l-21 -2v0l12 33v0l50 141v0l14 39v0l-39 -14v0l-141 -50v0l-33 -12v0l2 21v0l1 14v0l2 25v0z
M117 287l150 87l-150 -87l150 87l-3 -49v0l46 17v0l149 53v0l-53 -149v0l-17 -46v0l49 3v0l-87 -150v0q-24 -40 -63 -62q-39 -23 -85 -23q-73 2 -121 50t-50 121q0 46 23 85q22 39 62 63v0zM226 231l-18 36l18 -36l-18 36l-18 -36v0l-22 -43v0l-48 -7v0l-40 -6v0l29 -28v0
l35 -33v0l-8 -47v0l-7 -40v0l36 19v0l43 22v0l43 -22v0l36 -19v0l-7 40v0l-8 47v0l35 33v0l29 28v0l-40 6v0l-49 7v0l-21 43v0zM243 156l24 -3l-24 3l24 -3l-17 -16v0l-12 -12v0l2 -16v0l4 -24v0l-21 12v0l-15 7v0l-15 -7v0l-21 -12v0l4 24v0l2 16v0l-12 12v0l-17 16v0l24 3
v0l17 3v0l7 15v0l11 22v0l11 -22v0l7 -15v0l17 -3v0z" />
    <glyph glyph-name="fan-table" unicode="&#xe004;" horiz-adv-x="448" 
d="M32 224q0 52 26 96v0v0q25 44 70 70t96 26t96 -26t70 -70q26 -44 26 -96t-26 -96q-25 -44 -70 -70t-96 -26t-96 26t-70 70q-26 44 -26 96v0zM240 1q89 8 148 70v0v0q58 62 60 153q-1 63 -31 113q-29 51 -80 80q-50 30 -113 31q-63 -1 -113 -31q-51 -29 -80 -80
q-30 -50 -31 -113q2 -91 60 -153q59 -62 148 -70v-33v0h-128h-16v-32v0h16h304v32v0h-16h-128v33v0zM195 385l-14 -6l14 6l-14 -6l-23 -9v0q-37 -16 -52 -51t-1 -74q16 -36 51 -57l-44 -57v0l-10 -12v0l12 -10v0l19 -15v0q33 -24 71 -20q38 5 64 36q24 32 25 73l71 -10v0
l16 -2v0l2 16v0l3 24v0q5 40 -18 71q-23 30 -64 37q-39 5 -75 -15l-27 66v0l-6 15v0zM178 344l28 -70l-28 70l28 -70l8 -20v0l17 13v0q14 12 32 17q19 6 36 3q27 -4 42 -24q15 -21 12 -48l-1 -8v0l-74 11v0l-22 3v0l4 -22v0q3 -18 -2 -37q-5 -18 -15 -32q-17 -21 -43 -24
q-25 -3 -47 13l-6 5v0l46 59v0l14 18v0l-21 7v0q-17 7 -31 20q-13 13 -20 29q-10 26 0 49q10 24 35 35l8 3v0zM224 208q15 1 16 16q-1 15 -16 16q-15 -1 -16 -16q1 -15 16 -16v0z" />
    <glyph glyph-name="faucet" unicode="&#xe005;" 
d="M240 368v16v-16v16h-32v0v-16v0v-48v0h-128h-16v-32v0h16h128v-48v0h-32h-7l-4 -5v0l-44 -43v0h-105h-16v-32v0h16h119l4 5v0l44 43v0h82v0l44 -43v0l4 -5v0h7h48q48 -1 79 -33q32 -31 33 -79v-16v0h-64v0v16v0q-1 20 -14 34q-14 13 -34 14h-61h-9l-5 -8v0
q-23 -38 -69 -40q-46 2 -69 40l-5 8v0h-9h-141v-32v0h16h116q33 -46 92 -48q59 2 92 48h52v0q15 -1 16 -16v-32v0v-16v0h16h112v16v0v32v0q-2 61 -42 102q-41 40 -102 42h-41v0l-44 43v0l-4 5v0h-7h-32v48v0h128h16v32v0h-16h-128v48v0z" />
    <glyph glyph-name="faucet-drip" unicode="&#xe006;" 
d="M240 432v16v-16v16h-32v0v-16v0v-16v0h-128h-16v-32v0h16h128v-48v0h-32h-7l-4 -5v0l-44 -43v0h-105h-16v-32v0h16h119l4 5v0l44 43v0h25h57l44 -43v0l4 -5v0h7h48q48 -1 79 -33q32 -31 33 -79v-16v0h-64v0v16v0q-1 20 -14 34q-14 13 -34 14h-61h-9l-5 -8v0
q-22 -38 -69 -40q-46 2 -69 40l-5 8v0h-9h-141v-32v0h16h116q33 -46 92 -48q59 2 92 48h52v0q15 -1 16 -16v-32v0v-16v0h16h112v16v0v32v0q-2 61 -42 102q-41 40 -102 42h-41v0l-44 43v0l-4 5v0h-7h-32v48v0h128h16v32v0h-16h-128v16v0zM448 11l13 -17l-13 17l13 -17
q3 -5 3 -10q-1 -15 -16 -16q-15 1 -16 16q0 5 3 10l13 17v0zM428 37l-18 -24l18 24l-18 -24q-10 -13 -10 -29q1 -20 14 -34q14 -13 34 -14q20 1 34 14q13 14 14 34q0 16 -10 29l-18 24v0l-20 27v0l-20 -27v0z" />
    <glyph glyph-name="faucet-drip" unicode="&#x1f6b0;" 
d="M240 432v16v-16v16h-32v0v-16v0v-16v0h-128h-16v-32v0h16h128v-48v0h-32h-7l-4 -5v0l-44 -43v0h-105h-16v-32v0h16h119l4 5v0l44 43v0h25h57l44 -43v0l4 -5v0h7h48q48 -1 79 -33q32 -31 33 -79v-16v0h-64v0v16v0q-1 20 -14 34q-14 13 -34 14h-61h-9l-5 -8v0
q-22 -38 -69 -40q-46 2 -69 40l-5 8v0h-9h-141v-32v0h16h116q33 -46 92 -48q59 2 92 48h52v0q15 -1 16 -16v-32v0v-16v0h16h112v16v0v32v0q-2 61 -42 102q-41 40 -102 42h-41v0l-44 43v0l-4 5v0h-7h-32v48v0h128h16v32v0h-16h-128v16v0zM448 11l13 -17l-13 17l13 -17
q3 -5 3 -10q-1 -15 -16 -16q-15 1 -16 16q0 5 3 10l13 17v0zM428 37l-18 -24l18 24l-18 -24q-10 -13 -10 -29q1 -20 14 -34q14 -13 34 -14q20 1 34 14q13 14 14 34q0 16 -10 29l-18 24v0l-20 27v0l-20 -27v0z" />
    <glyph glyph-name="faucet-drip" unicode="&#x1f6b0;" 
d="M240 432v16v-16v16h-32v0v-16v0v-16v0h-128h-16v-32v0h16h128v-48v0h-32h-7l-4 -5v0l-44 -43v0h-105h-16v-32v0h16h119l4 5v0l44 43v0h25h57l44 -43v0l4 -5v0h7h48q48 -1 79 -33q32 -31 33 -79v-16v0h-64v0v16v0q-1 20 -14 34q-14 13 -34 14h-61h-9l-5 -8v0
q-22 -38 -69 -40q-46 2 -69 40l-5 8v0h-9h-141v-32v0h16h116q33 -46 92 -48q59 2 92 48h52v0q15 -1 16 -16v-32v0v-16v0h16h112v16v0v32v0q-2 61 -42 102q-41 40 -102 42h-41v0l-44 43v0l-4 5v0h-7h-32v48v0h128h16v32v0h-16h-128v16v0zM448 11l13 -17l-13 17l13 -17
q3 -5 3 -10q-1 -15 -16 -16q-15 1 -16 16q0 5 3 10l13 17v0zM428 37l-18 -24l18 24l-18 -24q-10 -13 -10 -29q1 -20 14 -34q14 -13 34 -14q20 1 34 14q13 14 14 34q0 16 -10 29l-18 24v0l-20 27v0l-20 -27v0z" />
    <glyph glyph-name="galaxy" unicode="&#xe008;" 
d="M144 264q2 64 44 107v0v0q43 43 107 45q-49 -47 -60 -112l-5 -32v0l28 15v0q32 17 70 17q64 -2 107 -44q43 -43 45 -107q-47 49 -112 60l-32 5v0l15 -28v0q17 -32 17 -70q-2 -64 -44 -107q-43 -43 -107 -45q49 47 60 112l6 32v0l-29 -15v0q-32 -17 -70 -17q-64 2 -107 44
q-43 43 -45 107q47 -49 112 -60l32 -6v0l-15 29v0q-17 32 -17 70v0zM296 448q-78 -2 -130 -54v0v0q-52 -52 -54 -130q0 -28 8 -54q-39 14 -67 45l-25 28v0l-28 30v0v-41v0v-40v0q2 -78 54 -130t130 -54q28 0 54 8q-14 -39 -45 -67l-28 -25v0l-30 -28v0h41h40q78 2 130 54
t54 130q0 28 -8 54q39 -14 67 -45l25 -28v0l28 -30v0v41v0v40v0q-2 78 -54 130t-130 54q-28 0 -54 -8q14 39 45 67l28 25v0l30 28v0h-41h-40zM233 137l23 -22l-23 22l23 -22l23 22v0l32 32v0l22 23v0l-22 23v0l-32 32v0l-23 22v0l-23 -22v0l-32 -32v0l-22 -23v0l22 -23v0
l32 -32v0zM265 169l-9 -9l9 9l-9 -9l-9 9v0l-14 14v0l-9 9v0l9 9v0l14 14v0l9 9v0l9 -9v0l14 -14v0l9 -9v0l-9 -9v0l-14 -14v0z" />
    <glyph glyph-name="garage" unicode="&#xe009;" horiz-adv-x="640" 
d="M320 441l6 -2l-6 2l6 -2l304 -120v0l10 -4v0v-11v0v-352v0v-16v0h-32v0v16v0v341v0l-288 114v0l-288 -114v0v-341v0v-16v0h-32v0v16v0v352v0v11v0l10 4v0l304 120v0l6 2v0zM96 256h16h-16h448v-16v0v-288v0v-16v0h-32v0v16v0v144v0h-384v0v-144v0v-16v0h-32v0v16v0v288v0
v16v0zM128 128h384h-384h384v96v0h-384v0v-96v0zM272 32h96h-96h112v-32v0h-16h-112v32v0h16v0z" />
    <glyph glyph-name="garage-car" unicode="&#xe00a;" horiz-adv-x="640" 
d="M320 441l6 -2l-6 2l6 -2l304 -120v0l10 -4v0v-11v0v-352v0v-16v0h-32v0v16v0v341v0l-288 114v0l-288 -114v0v-341v0v-16v0h-32v0v16v0v352v0v11v0l10 4v0l304 120v0l6 2v0zM96 256h16h-16h448v-16v0v-288v0v-16v0h-32v0v16v0v272v0h-384v0v-272v0v-16v0h-32v0v16v0v288v0
v16v0zM245 192h150h-150h162l3 -11v0l25 -77v0h13h16v-16v0v-136v0v-16v0h-32v0v16v0v16v0h-224v0v-16v0v-16v0h-32v0v16v0v136v0v16v0h16h13l25 77v0l3 11v0h12v0zM432 0v72v-72v72h-224v0v-72v0h224v0zM402 104l-19 56l19 -56l-19 56h-127v0l-18 -56v0h164v0zM232 32
q1 15 16 16q15 -1 16 -16q-1 -15 -16 -16q-15 1 -16 16v0zM392 48q15 -1 16 -16q-1 -15 -16 -16q-15 1 -16 16q1 15 16 16v0z" />
    <glyph glyph-name="garage-open" unicode="&#xe00b;" horiz-adv-x="640" 
d="M326 439l-6 2l6 -2l-6 2l-6 -2v0l-304 -120v0l-10 -4v0v-11v0v-352v0v-16v0h32v0v16v0v341v0l288 114v0l288 -114v0v-341v0v-16v0h32v0v16v0v352v0v11v0l-10 4v0l-304 120v0zM112 256h-16h16h-16v-16v0v-288v0v-16v0h32v0v16v0v208v0h384v0v-208v0v-16v0h32v0v16v0v288v0
v16v0h-16h-416zM512 192h-384h384h-384v32v0h384v0v-32v0zM213 128l-8 -24l8 24l-8 -24h-13h-16v-16v0v-136v0v-16v0h32v0v16v0v16v0h224v0v-16v0v-16v0h32v0v16v0v136v0v16v0h-16h-13l-7 24v0h-34v0l8 -24v0h-164v0l8 24v0h-33v0zM208 0v72v-72v72h224v0v-72v0h-224v0z
M248 16q15 1 16 16q-1 15 -16 16q-15 -1 -16 -16q1 -15 16 -16v0zM408 32q-1 15 -16 16q-15 -1 -16 -16q1 -15 16 -16q15 1 16 16v0z" />
    <glyph glyph-name="heat" unicode="&#xe00c;" horiz-adv-x="448" 
d="M192 416v-16v16v-16v-96v0q0 -59 35 -106l19 -25v0q41 -56 42 -125v-64v0v-16v0h-32v0v16v0v64v0q0 59 -35 106l-19 25v0q-41 56 -42 125v96v0v16v0h32v0zM32 352v-16v16v-16v-46v0q0 -53 30 -98l31 -47v0q35 -52 35 -115v-46v0v-16v0h-32v0v16v0v46v0q0 53 -30 97
l-31 48v0q-35 52 -35 115v46v0v16v0h32v0zM352 336v-46v46v-46q0 -53 30 -98l31 -47v0q35 -52 35 -115v-46v0v-16v0h-32v0v16v0v46v0q0 53 -30 97l-31 48v0q-35 52 -35 115v46v0v16v0h32v0v-16v0z" />
    <glyph glyph-name="house-chimney-window" unicode="&#xe00d;" horiz-adv-x="576" 
d="M288 445l11 -9l-11 9l11 -9l85 -75v0v39v0v16v0h16h112v-16v0v-152v0v0v0l59 -52v0l-22 -24v0l-37 33v0v-253v0v-16v0h-16h-432v16v0v253v0l-37 -33v0l-22 24v0l272 240v0l11 9v0zM480 276v108v-108v108h-64v0v-52v0l64 -56v0zM96 233v-265v265v-265h384v0v265v0
l-192 170v0l-192 -170v0zM224 256h128h-128h144v-16v0v-128v0v-16v0h-16h-144v16v0v128v0v16v0h16v0zM240 128h96h-96h96v96v0h-96v0v-96v0z" />
    <glyph glyph-name="house-day" unicode="&#xe00e;" horiz-adv-x="640" 
d="M192 448h-32h32h-32v-16v0v-48v0h32v0v48v0v16v0zM0 288v-32v32v-32h16h48v32v0h-48h-16zM299 373l12 11l-12 -11l12 11l-23 23v0l-11 -12v0l-32 -32v0l22 -22v0l32 32v0zM410 340l-10 9l10 -9l-10 9l-10 -9v0l-216 -176v0l-12 -10v0l20 -25v0l12 11v0l30 24v0v-212v0
v-16v0h16h336v16v0v212v0l30 -24v0l12 -11v0l21 25v0l-13 10v0l-216 176v0zM544 190v-222v222v-222h-288v0v222v0l144 117v0l144 -117v0zM336 176v-16v16v-16v-96v0v-16v0h16h112v16v0v96v0v16v0h-16h-112zM368 144h64h-64h64v-64v0h-64v0v64v0zM107 181l-22 22l22 -22
l-22 22l-32 -32v0l-12 -11v0l23 -23v0l11 12v0l32 32v0zM75 395l-11 12l11 -12l-11 12l-23 -23v0l12 -11v0l32 -32v0l22 22v0l-32 32v0zM176 352q-34 -1 -57 -23v0v0q-22 -23 -23 -57q0 -28 17 -49q16 -20 41 -28l41 33v0q-9 -4 -19 -4q-20 1 -34 14q-13 14 -14 34
q1 20 14 34q14 13 34 14q20 -1 34 -14q13 -14 14 -34q0 -15 -8 -27l40 33v0q-3 32 -25 52q-23 21 -55 22v0z" />
    <glyph glyph-name="house-person-leave" unicode="&#xe00f;" horiz-adv-x="640" 
d="M520 416q22 -2 24 -24q-2 -22 -24 -24q-22 2 -24 24q2 22 24 24v0zM520 336q32 1 48 28q16 28 0 56q-16 27 -48 28q-32 -1 -48 -28q-16 -28 0 -56q16 -27 48 -28v0zM397 253l47 32l-47 -32l47 32l-29 -92v0q-8 -30 14 -51l101 -87v0l31 -103v0l4 -15v0l31 9v0l-5 15v0
l-32 108v0l-1 4v0l-3 3v0l-48 41v0l39 111v0l15 -49v0l1 -5v0l5 -3v0l48 -32v0l18 26v0l-43 29v0l-31 99v0l-2 8v0l-9 2v0l-88 24v0l-7 2v0l-6 -4v0l-72 -48v0l-4 -2v0l-2 -5v0l-32 -72v0l-6 -14v0l29 -13v0l7 14v0l30 68v0zM446 183l33 106l-33 -106l33 106l49 -13v0
l-47 -136v0l-31 26v0q-7 7 -4 17v0zM387 25l-54 -54l54 54l-54 -54l-12 -11v0l23 -23v0l11 12v0l56 56v0q2 1 3 4l37 72v0l-25 22v0l-39 -78v0zM250 436l-10 9l10 -9l-10 9l-10 -9v0l-216 -176v0l-12 -10v0l20 -25v0l12 11v0l30 24v0v-212v0v-16v0h16h255l18 17v0l7 15v0
h-40h-224v222v0l144 117v0l113 -92v0l28 19v0l-131 106v0zM256 256v-64v64v-64h-64v0v64v0h64v0zM192 288h-32h32h-32v-32v0v-64v0v-32v0h32h96v32v0v64v0v32v0h-32h-64z" />
    <glyph glyph-name="house-night" unicode="&#xe010;" horiz-adv-x="640" 
d="M114 448h-1v0v0h-1q-48 -1 -79 -33q-32 -31 -33 -79q1 -48 33 -79q31 -32 79 -33q47 1 78 32l2 2q14 14 23 33q-11 -3 -23 -3q-8 0 -15 1q-28 6 -46 28q-18 21 -19 51q0 27 15 47q11 15 29 24q-20 9 -42 9v0zM32 336q0 28 16 48v0v0q16 21 41 29q-9 -21 -9 -45
q1 -35 19 -63q19 -27 50 -40q-17 -9 -37 -9q-34 1 -57 23q-22 23 -23 57v0zM410 340l-10 9l10 -9l-10 9l-10 -9v0l-216 -176v0l-12 -10v0l20 -25v0l12 11v0l30 24v0v-212v0v-16v0h16h336v16v0v212v0l30 -24v0l12 -11v0l21 25v0l-13 10v0l-216 176v0zM544 190v-222v222v-222
h-288v0v222v0l144 117v0l144 -117v0zM336 176v-16v16v-16v-96v0v-16v0h16h112v16v0v96v0v16v0h-16h-112zM368 144h64h-64h64v-64v0h-64v0v64v0zM272 448h-32h32h-32v-16v0v-32v0h-32h-16v-32v0h16h32v-32v0v-16v0h32v0v16v0v32v0h32h16v32v0h-16h-32v32v0v16v0zM112 128h-32
h32h-32v-16v0v-32v0h-32h-16v-32v0h16h32v-32v0v-16v0h32v0v16v0v32v0h32h16v32v0h-16h-32v32v0v16v0z" />
    <glyph glyph-name="house-person-return" unicode="&#xe011;" horiz-adv-x="640" 
d="M437 416q22 -2 24 -24q-2 -22 -24 -24q-22 2 -24 24q2 22 24 24v0zM437 336q32 1 49 28q15 28 0 56q-17 27 -49 28q-32 -1 -48 -28q-15 -28 0 -56q16 -27 48 -28v0zM560 253l31 -68l-31 68l31 -68l6 -14v0l29 13v0l-6 14v0l-32 72v0l-2 5v0l-4 2v0l-72 48v0l-6 4v0l-7 -2
v0l-88 -24v0l-9 -2v0l-2 -8v0l-31 -99v0l-43 -29v0l18 -26v0l48 32v0l5 3v0l1 5v0l15 49v0l39 -111v0l-47 -41v0l-4 -3v0l-1 -4v0l-32 -108v0l-5 -15v0l31 -9v0l5 15v0l30 103v0l101 87v0q22 21 14 51l-29 92v0l47 -32v0zM512 183q2 -10 -5 -17l-31 -26v0l-47 136v0l50 13v0
l33 -106v0zM570 25l-38 78l38 -78l-38 78l-25 -22v0l36 -72v0q1 -2 3 -4l56 -56v0l11 -12v0l23 23v0l-12 11v0l-54 54v0zM250 436l-10 9l10 -9l-10 9l-10 -9v0l-216 -176v0l-12 -10v0l20 -25v0l12 11v0l30 24v0v-212v0v-16v0h16h267l9 32v0h-36h-224v222v0l144 117v0
l121 -98v0l9 29v0l4 1v0l-124 101v0zM256 256v-64v64v-64h-64v0v64v0h64v0zM192 288h-32h32h-32v-32v0v-64v0v-32v0h32h96v32v0v64v0v32v0h-32h-64z" />
    <glyph glyph-name="house-signal" unicode="&#xe012;" horiz-adv-x="576" 
d="M336 448l10 -8l-10 8l10 -8l216 -176v0l13 -10v0l-21 -25v0l-12 10v0l-30 24v0v-212v0v-16v0h-16h-224q-6 17 -14 32h222v0v222v0l-144 118v0l-144 -118v0v-135v0q-15 14 -32 25v84v0l-30 -24v0l-12 -10v0l-20 25v0l12 10v0l216 176v0l10 8v0zM288 275h96h-96h112v-16v0
v-96v0v-16v0h-16h-112v16v0v96v0v16v0h16v0zM304 179h64h-64h64v64v0h-64v0v-64v0zM0 163v32v-32v32q72 0 129 -35q58 -34 92 -91q34 -58 35 -130h-32v0q-1 63 -31 113q-29 51 -80 81q-50 30 -113 30v0zM32 3q14 0 23 -9v0v0q9 -9 9 -23q0 -13 -9 -22t-23 -10q-14 1 -23 10
t-9 22q0 14 9 23t23 9v0zM128 -61q-1 55 -37 91v0v0q-37 36 -91 37v32v0q68 -1 113 -46q45 -46 47 -114h-32v0z" />
    <glyph glyph-name="lamp-desk" unicode="&#xe014;" 
d="M368 352l-9 9l9 -9l-9 9l-38 38v0q-17 17 -40 17q-24 -1 -40 -17t-17 -40q0 -23 17 -40l38 -38v0l9 -9v0v-13v0v-70v0l16 -16v0l163 163v0l-16 16v0h-70h-13zM464 384l25 -25l-25 25l25 -25l23 -23v0l-23 -23v0l-162 -162v0l-23 -23v0l-23 23v0l-25 25v0v83v0l-19 19v0
l-91 -91v0l58 -219v0h164h16v-32v0h-16h-368v32v0h16h155l-58 220v0l-3 9v0l7 6v0l97 98v0q-22 25 -22 58q1 38 26 63t63 26q36 -1 62 -26l38 -38v0h83v0zM379 160l23 23l-23 -23l23 23q9 -7 22 -7q17 0 28 12q12 11 12 28q0 13 -7 22l23 23v0q16 -19 16 -45q-1 -31 -21 -51
t-51 -21q-26 0 -45 16v0z" />
    <glyph glyph-name="lamp-floor" unicode="&#xe015;" horiz-adv-x="384" 
d="M33 224h-33h33h-33l9 32v0l55 192v0h256v0l55 -192v0l9 -32v0h-33h-318zM342 256l-46 160l46 -160l-46 160h-208v0l-46 -160v0h300v0zM80 -32h96h-96h96v224v0h32v0v-224v0h96h16v-32v0h-16h-240v32v0h16v0z" />
    <glyph glyph-name="light-ceiling" unicode="&#xe016;" 
d="M272 448v-16v16v-16v-145v0q94 -7 160 -69q65 -61 78 -154q2 -16 2 -32h-32h-480q0 16 2 32q13 93 78 154q66 62 160 69v145v0v16v0h32v0zM34 64h444h-444h444q-14 83 -75 137q-61 53 -147 55q-86 -2 -147 -55q-61 -54 -75 -137v0zM256 -64q-30 1 -51 18v0v0
q-21 18 -27 46h33v0q12 -30 45 -32q33 2 45 32h33v0q-6 -28 -27 -46q-21 -17 -51 -18v0z" />
    <glyph glyph-name="light-switch" unicode="&#xe017;" horiz-adv-x="384" 
d="M176 400v16v-16v16h-144v0v-448v0h144v0v16v0v16v0h32v0v-16v0v-16v0h144v0v448v0h-144v0v-16v0v-16v0h-32v0v16v0zM0 448h32h-32h384v-32v0v-448v0v-32v0h-32h-352v32v0v448v0v32v0zM96 208v112v-112v112v32v0h32h160v-32v0v-112v0v-32v0v-112v0v-32v0h-32h-160v32v0
v112v0v32v0zM128 176v-112v112v-112h128v0v112v0h-128v0zM128 208h128h-128h128v112v0h-128v0v-112v0z" />
    <glyph glyph-name="light-switch-off" unicode="&#xe018;" horiz-adv-x="384" 
d="M176 -16v-16v16v-16h-144v0v448v0h144v0v-16v0v-16v0h32v0v16v0v16v0h144v0v-448v0h-144v0v16v0v16v0h-32v0v-16v0zM0 -64h32h-32h384v32v0v448v0v32v0h-32h-352v-32v0v-448v0v-32v0zM96 176v-112v112v-112v-32v0h32h160v32v0v112v0v32v0v112v0v32v0h-32h-160v-32v0v-112
v0v-32v0zM128 208v112v-112v112h128v0v-112v0h-128v0zM128 176h128h-128h128v-112v0h-128v0v112v0zM176 104h32h-32h48v32v0h-16h-48v-32v0h16v0z" />
    <glyph glyph-name="light-switch-on" unicode="&#xe019;" horiz-adv-x="384" 
d="M176 400v16v-16v16h-144v0v-448v0h144v0v16v0v16v0h32v0v-16v0v-16v0h144v0v448v0h-144v0v-16v0v-16v0h-32v0v16v0zM0 448h32h-32h384v-32v0v-448v0v-32v0h-32h-352v32v0v448v0v32v0zM96 208v112v-112v112v32v0h32h160v-32v0v-112v0v-32v0v-112v0v-32v0h-32h-160v32v0
v112v0v32v0zM128 176v-112v112v-112h128v0v112v0h-128v0zM128 208h128h-128h128v112v0h-128v0v-112v0zM176 280h32h-32h48v-32v0h-16h-48v32v0h16v0z" />
    <glyph glyph-name="microwave" unicode="&#xe01b;" horiz-adv-x="576" 
d="M544 384v-352v352v-352h-32h-480v352v0h512v0zM512 0h32h-32h64v32v0v352v0v32v0h-32h-544v-32v0v-352v0v-32v0h32h32v-32v0h32v0v32v0h384v0v-32v0h32v0v32v0zM464 336v-256v256v-256h32v0v256v0h-32v0zM128 288h256h-256h256v-160v0h-256v0v160v0zM96 320v-32v32v-32
v-160v0v-32v0h32h288v32v0v160v0v32v0h-32h-288z" />
    <glyph glyph-name="outlet" unicode="&#xe01c;" horiz-adv-x="448" 
d="M32 384v-384v384v-384h384v0v384v0h-384v0zM0 416h32h-32h448v-32v0v-384v0v-32v0h-32h-416v32v0v384v0v32v0zM96 192q0 -27 8 -46v0v0q8 -19 18 -32q10 -12 17 -18h170v0q8 6 18 18q9 13 17 32t8 46t-8 46t-17 32q-11 12 -18 18h-170v0q-8 -6 -18 -18q-9 -13 -17 -32
t-8 -46v0zM64 192q1 44 17 72v0v0q15 29 30 42v0v0q16 14 17 14h192v0q1 0 17 -14q15 -13 30 -42q16 -28 17 -72q-1 -44 -17 -72q-15 -29 -30 -42q-16 -14 -17 -14h-192v0q-1 0 -17 14q-15 13 -30 42q-16 28 -17 72v0zM192 256v-16v16v-16v-48v0v-16v0h-32v0v16v0v48v0v16v0
h32v0zM288 256v-16v16v-16v-48v0v-16v0h-32v0v16v0v48v0v16v0h32v0zM224 160q22 -2 24 -24v-24v0h-48v0v24v0q2 22 24 24v0z" />
    <glyph glyph-name="oven" unicode="&#xe01d;" horiz-adv-x="448" 
d="M32 416v-128v128v-128h384v0v128v0h-384v0zM32 256v-288v288v-288h384v0v288v0h-384v0zM0 448h32h-32h448v-32v0v-448v0v-32v0h-32h-416v32v0v448v0v32v0zM104 368q22 -2 24 -24q-2 -22 -24 -24q-22 2 -24 24q2 22 24 24v0zM160 344q2 22 24 24q22 -2 24 -24
q-2 -22 -24 -24q-22 2 -24 24v0zM264 368q22 -2 24 -24q-2 -22 -24 -24q-22 2 -24 24q2 22 24 24v0zM320 344q2 22 24 24q22 -2 24 -24q-2 -22 -24 -24q-22 2 -24 24v0zM96 192v-160v160v-160h256v0v160v0h-256v0zM64 224h32h-32h320v-32v0v-160v0v-32v0h-32h-288v32v0v160
v0v32v0zM128 160h16h-16h192v-32v0h-16h-176v32v0z" />
    <glyph glyph-name="planet-moon" unicode="&#xe01f;" horiz-adv-x="576" 
d="M512 416q14 0 23 -9v0v0q9 -9 9 -23t-9 -23t-23 -9t-23 9t-9 23t9 23t23 9v0zM512 320q36 1 55 32q18 32 0 64q-19 31 -55 32q-36 -1 -55 -32q-18 -32 0 -64q19 -31 55 -32v0zM224 -32q-82 2 -136 56v0v0q-54 54 -56 136q0 12 2 24h71v0l47 -47v0v-49v0v-10v0l9 -4v0
l23 -12v0v-54v0v-16v0h16h57l5 8v0l64 104v0l2 3v0v5v0v72v0v16v0h-16h-102l-7 15v0l58 88v0l3 5v0v5v0l-2 35v0q67 -14 110 -65q43 -52 44 -123q-2 -82 -56 -136t-136 -56v0zM40 216q19 60 69 98v0v0q49 37 115 38h5l3 -36v0l-61 -91v0l-5 -8v0l4 -8v0l16 -32v0l4 -9v0h10
h96v-52v0l-57 -92v0h-23v0v48v0v10v0l-9 4v0l-23 12v0v46v0v7v0l-5 4v0l-56 56v0l-4 5v0h-7h-72zM227 384h-1v0v0h-2q-63 -1 -113 -31q-51 -29 -80 -80q-30 -50 -31 -113q1 -63 31 -113q29 -51 80 -80q50 -30 113 -31q63 1 113 31q51 29 80 80q30 50 31 113q-2 86 -54 146
q-53 61 -135 75v0v0q-15 3 -32 3v0v0v0z" />
    <glyph glyph-name="planet-ringed" unicode="&#xe020;" 
d="M503 422l1 18v0v0v0l-18 -1q-6 -1 -14 -3q-33 -5 -95 -37q15 -9 30 -20q13 7 25 11q20 8 34 12q-4 -14 -12 -34q-9 -24 -28 -56q-29 40 -73 64q-44 23 -97 24q-88 -2 -147 -61t-61 -147q1 -53 24 -97q24 -44 64 -73q-32 -19 -56 -28q-20 -8 -34 -12q4 14 12 34
q4 12 11 25q-11 15 -20 30q-32 -62 -37 -95q-2 -8 -3 -14q-2 -18 -1 -18v0q0 -1 18 1h1q5 1 13 3q20 4 53 16q32 13 75 40q40 -20 88 -20q88 2 147 61t61 147q0 48 -20 88q27 43 40 75q12 33 16 53q2 8 3 14v0zM407 282q-37 -57 -110 -131q-74 -73 -131 -110q-39 23 -62 63
q-23 39 -24 88q2 75 52 124q49 50 124 52q49 -1 88 -24q40 -23 63 -62v0zM200 25q53 38 120 103q65 67 103 120q9 -26 9 -56q-2 -75 -52 -124q-49 -50 -124 -52q-30 0 -56 9v0z" />
    <glyph glyph-name="planet-ringed" unicode="&#x1fa90;" 
d="M503 422l1 18v0v0v0l-18 -1q-6 -1 -14 -3q-33 -5 -95 -37q15 -9 30 -20q13 7 25 11q20 8 34 12q-4 -14 -12 -34q-9 -24 -28 -56q-29 40 -73 64q-44 23 -97 24q-88 -2 -147 -61t-61 -147q1 -53 24 -97q24 -44 64 -73q-32 -19 -56 -28q-20 -8 -34 -12q4 14 12 34
q4 12 11 25q-11 15 -20 30q-32 -62 -37 -95q-2 -8 -3 -14q-2 -18 -1 -18v0q0 -1 18 1h1q5 1 13 3q20 4 53 16q32 13 75 40q40 -20 88 -20q88 2 147 61t61 147q0 48 -20 88q27 43 40 75q12 33 16 53q2 8 3 14v0zM407 282q-37 -57 -110 -131q-74 -73 -131 -110q-39 23 -62 63
q-23 39 -24 88q2 75 52 124q49 50 124 52q49 -1 88 -24q40 -23 63 -62v0zM200 25q53 38 120 103q65 67 103 120q9 -26 9 -56q-2 -75 -52 -124q-49 -50 -124 -52q-30 0 -56 9v0z" />
    <glyph glyph-name="planet-ringed" unicode="&#x1fa90;" 
d="M503 422l1 18v0v0v0l-18 -1q-6 -1 -14 -3q-33 -5 -95 -37q15 -9 30 -20q13 7 25 11q20 8 34 12q-4 -14 -12 -34q-9 -24 -28 -56q-29 40 -73 64q-44 23 -97 24q-88 -2 -147 -61t-61 -147q1 -53 24 -97q24 -44 64 -73q-32 -19 -56 -28q-20 -8 -34 -12q4 14 12 34
q4 12 11 25q-11 15 -20 30q-32 -62 -37 -95q-2 -8 -3 -14q-2 -18 -1 -18v0q0 -1 18 1h1q5 1 13 3q20 4 53 16q32 13 75 40q40 -20 88 -20q88 2 147 61t61 147q0 48 -20 88q27 43 40 75q12 33 16 53q2 8 3 14v0zM407 282q-37 -57 -110 -131q-74 -73 -131 -110q-39 23 -62 63
q-23 39 -24 88q2 75 52 124q49 50 124 52q49 -1 88 -24q40 -23 63 -62v0zM200 25q53 38 120 103q65 67 103 120q9 -26 9 -56q-2 -75 -52 -124q-49 -50 -124 -52q-30 0 -56 9v0z" />
    <glyph glyph-name="police-box" unicode="&#xe021;" horiz-adv-x="384" 
d="M208 432v16v-16v16h-32v0v-16v0v-16v0h-96h-16v-16v0v-16v0h-16h-16v-16v0v-400v0h-16h-16v-32v0h16h368v32v0h-16h-16v400v0v16v0h-16h-16v16v0v16v0h-16h-96v16v0zM320 -32h-256h256h-256v384v0h16h16v16v0v16v0h80h112v-16v0v-16v0h16h16v-384v0zM112 168h48h-48h48
v-48v0h-48v0v48v0zM88 192v-24v24v-24v-48v0v-24v0h24h72v24v0v48v0v24v0h-24h-72zM132 296v-20v20v-20h-20v0v20v0h20v0zM132 268v-20v20v-20h-20v0v20v0h20v0zM160 268v-20v20v-20h-20v0v20v0h20v0zM140 276v20v-20v20h20v0v-20v0h-20v0zM112 320h-24h24h-24v-24v0v-48v0
v-24v0h24h72v24v0v48v0v24v0h-24h-48zM252 296h20h-20h20v-20v0h-20v0v20v0zM244 296v-20v20v-20h-20v0v20v0h20v0zM244 268v-20v20v-20h-20v0v20v0h20v0zM252 248v20v-20v20h20v0v-20v0h-20v0zM200 320v-24v24v-24v-48v0v-24v0h24h72v24v0v48v0v24v0h-24h-72z" />
    <glyph glyph-name="person-to-portal" unicode="&#xe022;" 
d="M256 392q2 22 24 24q22 -2 24 -24q-2 -22 -24 -24q-22 2 -24 24v0zM336 392q-1 32 -28 48q-28 16 -56 0q-27 -16 -28 -48q1 -32 28 -48q28 -16 56 0q27 16 28 48v0zM128 336h-7h7h-7l-4 -5v0l-64 -64v0l-12 -11v0l23 -23v0l11 12v0l60 59v0h39v0l16 -5v0l-37 -109v0
q-5 -17 1 -32q6 -16 21 -25l94 -52v0l-52 -145v0h34v0l52 147v0l5 12v0l-12 7v0l-49 28v0v1l37 112v0l21 -71v0l3 -12v0h12h96v32v0h-16h-68l-29 100v0l-2 9v0l-8 2v0l-112 32v0l-3 1v0h-2h-48zM184 180l36 111l-36 -111l36 111l43 -12v0l-45 -133v0l-27 15v0q-11 7 -7 19v0
zM101 64h-85h85h-101v-32v0h16h107l4 10v0l27 66v0q-15 11 -24 26l-29 -70v0zM459 4q-10 -26 -18 -32v0v0q-8 -5 -9 -4v0v0v0v0v0v0v0q-1 -1 -9 4q-7 6 -17 32q-15 38 -20 124h-32v0q6 -104 27 -149q21 -44 51 -43q34 -2 57 57q22 59 23 199q-1 140 -23 199q-23 59 -57 57
q-32 1 -54 -50q-22 -52 -26 -174h32v0q4 111 22 156q10 26 17 32q8 5 9 4v0v0v0v0v0q2 1 9 -4q8 -6 17 -32q21 -50 22 -188q-1 -138 -21 -188v0z" />
    <glyph glyph-name="person-from-portal" unicode="&#xe023;" 
d="M128 192q0 -56 -4 -96h32v0q4 41 4 96q0 22 -1 42l1 -1v0l11 12v0l60 59v0h39v0l16 -5v0l-37 -109v0q-5 -17 1 -32q6 -16 21 -25l94 -52v0l-52 -145v0h34v0l52 147v0l5 12v0l-12 7v0l-49 28v0v1l37 112v0l21 -71v0l3 -12v0h12h96v32v0h-16h-68l-29 100v0l-2 9v0l-8 2v0
l-112 32v0l-3 1v0h-2h-55l-4 -5v0l-56 -55v0q-7 93 -28 133t-49 39q-34 2 -57 -57q-22 -59 -23 -199q1 -140 23 -199q23 -59 57 -57q36 -2 59 64h-34v0q-9 -23 -17 -28q-7 -5 -8 -4v0v0v0v0q-1 -1 -9 4q-7 6 -17 32q-21 50 -22 188q1 138 22 188q9 26 17 32q8 5 9 4v0v0v0v0
v0q2 1 9 -4q8 -6 17 -32q21 -50 22 -188v0zM352 392q2 22 24 24q22 -2 24 -24q-2 -22 -24 -24q-22 2 -24 24v0zM432 392q-1 32 -28 48q-28 16 -56 0q-27 -16 -28 -48q1 -32 28 -48q28 -16 56 0q27 16 28 48v0zM280 180l36 111l-36 -111l36 111l43 -12v0l-45 -133v0l-27 15v0
q-11 7 -7 19v0zM197 64h-85h85h-101v-32v0h16h107l4 10v0l27 66v0q-15 11 -24 26l-29 -70v0z" />
    <glyph glyph-name="radar" unicode="&#xe024;" 
d="M32 192q1 63 31 113v0v0q29 51 80 80v0v0q50 30 113 31q86 -2 147 -55l-34 -34v0q-47 40 -113 41q-55 -1 -98 -30q-42 -28 -63 -76l29 -12v0q17 38 52 62q35 23 80 24q52 -1 90 -32l-34 -34v0q-24 17 -56 18q-41 -1 -68 -28t-28 -68q1 -41 28 -68t68 -28q41 1 68 28
t28 68h-32v0q-1 -27 -19 -45t-45 -19q-27 1 -45 19t-19 45q1 27 19 45t45 19q18 0 33 -9l-44 -44v0l-12 -11v0l23 -23v0l11 12v0l224 224v0l12 11v0l-23 23v0l-11 -12v0l-44 -43v0q-70 62 -169 64q-72 -1 -129 -35q-58 -34 -92 -92q-34 -57 -35 -129q1 -72 35 -129
q34 -58 92 -92q57 -34 129 -35q72 1 129 35q58 34 92 92q34 57 35 129h-32v0q-1 -63 -31 -113q-29 -51 -80 -80q-50 -30 -113 -31q-63 1 -113 31q-51 29 -80 80q-30 50 -31 113v0zM314 60l12 -29l-12 29l12 -29q48 21 76 63q29 43 30 98h-32v0q-1 -45 -24 -80
q-24 -35 -62 -52v0zM124 134l-29 -12l29 12l-29 -12q28 -63 91 -91l12 29v0q-51 23 -74 74v0zM120 192q-2 22 -24 24q-22 -2 -24 -24q2 -22 24 -24q22 2 24 24v0zM256 8q22 2 24 24q-2 22 -24 24q-22 -2 -24 -24q2 -22 24 -24v0z" />
    <glyph glyph-name="raygun" unicode="&#xe025;" horiz-adv-x="576" 
d="M32 353v-3v3v-3q-31 -31 -32 -78q1 -48 33 -79q31 -32 79 -33l-66 -131v0l-14 -29v0l29 -14v0l70 -36v0l29 -14v0l14 29v0l98 195v0h48v0v-16v0v-16v0h32v0v16v0v16v0v32v0v64v0h32v0v-80v0v-16v0h32v0v16v0v80v0h32v0v-10v0l9 -4v0l96 -48v0l23 -12v0v26v0v128v0v26v0
l-23 -12v0l-96 -48v0l-9 -4v0v-10v0h-32v0v80v0v16v0h-32v0v-16v0v-80v0h-32v0v64v0v32v0v16v0v16v0h-32v0v-16v0v-16v0h-122v0l-11 4v0l-123 48v0l-32 12v0v-34v0v-61v0zM64 401l45 -17l-45 17l45 -17v0v0q-24 -1 -45 -11v28v0zM111 384h-1v0v0h-1h2v0zM480 266v12v-12v12
l64 32v0v-76v0l-64 32v0zM320 272v-80v80v-80h-32h-176q-34 1 -57 23q-22 23 -23 57q1 34 23 57q23 22 57 23h208v0v-80v0zM148 160h88h-88h88l-90 -181v0l-71 35v0l73 146v0zM112 256q15 1 16 16q-1 15 -16 16q-15 -1 -16 -16q1 -15 16 -16v0zM192 272q-1 15 -16 16
q-15 -1 -16 -16q1 -15 16 -16q15 1 16 16v0zM240 256q15 1 16 16q-1 15 -16 16q-15 -1 -16 -16q1 -15 16 -16v0z" />
    <glyph glyph-name="refrigerator" unicode="&#xe026;" horiz-adv-x="384" 
d="M352 416v-128v128v-128h-64v0v48v0v16v0h-32v0v-16v0v-48v0h-224v0v128v0h320v0zM256 256v-176v176v-176v-16v0h32v0v16v0v176v0h64v0v-288v0h-320v0v288v0h224v0zM32 448h-32h32h-32v-32v0v-448v0v-32v0h32h352v32v0v448v0v32v0h-32h-320z" />
    <glyph glyph-name="rocket-launch" unicode="&#xe027;" 
d="M219 155q-15 15 -33 24q25 97 64 148q40 50 83 69q38 17 75 19q37 3 68 -3q6 -31 3 -68q-2 -37 -19 -75q-19 -43 -69 -83q-51 -39 -148 -65q-9 19 -24 34v0zM256 67q0 12 -2 24q56 14 98 35v-92v0l-96 -48v0v81v0zM384 24v119v-119v119q70 45 98 100q29 55 30 107t-9 89
q-37 10 -89 9t-107 -30q-55 -28 -100 -98h-119h-10l-4 -9v0l-64 -128v0l-12 -23v0h26h107q38 -1 66 -27q26 -28 27 -66v-107v0v-26v0l23 12v0l128 64v0l9 4v0v10v0zM155 190q-12 2 -24 2h-81v0l48 96v0h92v0q-21 -42 -35 -98v0zM144 1q-28 -25 -83 -31q-16 -1 -29 -2
q1 13 2 29q3 26 11 48q7 22 20 35q17 16 39 16q23 0 40 -16q16 -17 16 -40q0 -22 -16 -40v1zM167 -22q25 27 25 62v0v0q0 35 -25 62q-28 26 -63 26t-62 -26q-24 -26 -33 -65q-8 -38 -9 -68q0 -31 1 -33h32q30 1 68 9q39 9 66 33v0zM392 304q-2 -22 -24 -24q-22 2 -24 24
q2 22 24 24q22 -2 24 -24v0zM368 360q-32 -1 -48 -28q-16 -28 0 -56q16 -27 48 -28q32 1 48 28q16 28 0 56q-16 27 -48 28v0z" />
    <glyph glyph-name="rocket-launch" unicode="&#x1f680;" 
d="M219 155q-15 15 -33 24q25 97 64 148q40 50 83 69q38 17 75 19q37 3 68 -3q6 -31 3 -68q-2 -37 -19 -75q-19 -43 -69 -83q-51 -39 -148 -65q-9 19 -24 34v0zM256 67q0 12 -2 24q56 14 98 35v-92v0l-96 -48v0v81v0zM384 24v119v-119v119q70 45 98 100q29 55 30 107t-9 89
q-37 10 -89 9t-107 -30q-55 -28 -100 -98h-119h-10l-4 -9v0l-64 -128v0l-12 -23v0h26h107q38 -1 66 -27q26 -28 27 -66v-107v0v-26v0l23 12v0l128 64v0l9 4v0v10v0zM155 190q-12 2 -24 2h-81v0l48 96v0h92v0q-21 -42 -35 -98v0zM144 1q-28 -25 -83 -31q-16 -1 -29 -2
q1 13 2 29q3 26 11 48q7 22 20 35q17 16 39 16q23 0 40 -16q16 -17 16 -40q0 -22 -16 -40v1zM167 -22q25 27 25 62v0v0q0 35 -25 62q-28 26 -63 26t-62 -26q-24 -26 -33 -65q-8 -38 -9 -68q0 -31 1 -33h32q30 1 68 9q39 9 66 33v0zM392 304q-2 -22 -24 -24q-22 2 -24 24
q2 22 24 24q22 -2 24 -24v0zM368 360q-32 -1 -48 -28q-16 -28 0 -56q16 -27 48 -28q32 1 48 28q16 28 0 56q-16 27 -48 28v0z" />
    <glyph glyph-name="rocket-launch" unicode="&#x1f680;" 
d="M219 155q-15 15 -33 24q25 97 64 148q40 50 83 69q38 17 75 19q37 3 68 -3q6 -31 3 -68q-2 -37 -19 -75q-19 -43 -69 -83q-51 -39 -148 -65q-9 19 -24 34v0zM256 67q0 12 -2 24q56 14 98 35v-92v0l-96 -48v0v81v0zM384 24v119v-119v119q70 45 98 100q29 55 30 107t-9 89
q-37 10 -89 9t-107 -30q-55 -28 -100 -98h-119h-10l-4 -9v0l-64 -128v0l-12 -23v0h26h107q38 -1 66 -27q26 -28 27 -66v-107v0v-26v0l23 12v0l128 64v0l9 4v0v10v0zM155 190q-12 2 -24 2h-81v0l48 96v0h92v0q-21 -42 -35 -98v0zM144 1q-28 -25 -83 -31q-16 -1 -29 -2
q1 13 2 29q3 26 11 48q7 22 20 35q17 16 39 16q23 0 40 -16q16 -17 16 -40q0 -22 -16 -40v1zM167 -22q25 27 25 62v0v0q0 35 -25 62q-28 26 -63 26t-62 -26q-24 -26 -33 -65q-8 -38 -9 -68q0 -31 1 -33h32q30 1 68 9q39 9 66 33v0zM392 304q-2 -22 -24 -24q-22 2 -24 24
q2 22 24 24q22 -2 24 -24v0zM368 360q-32 -1 -48 -28q-16 -28 0 -56q16 -27 48 -28q32 1 48 28q16 28 0 56q-16 27 -48 28v0z" />
    <glyph glyph-name="sensor" unicode="&#xe028;" horiz-adv-x="448" 
d="M32 384v-384v384v-384h384v0v384v0h-384v0zM0 416h32h-32h448v-32v0v-384v0v-32v0h-32h-416v32v0v384v0v32v0zM128 304v-128v128v-128v-16v0h-32v0v16v0v128v0v16v0h32v0v-16v0zM192 304v-128v128v-128v-16v0h-32v0v16v0v128v0v16v0h32v0v-16v0z" />
    <glyph glyph-name="sensor-triangle-exclamation" unicode="&#xe029;" horiz-adv-x="640" 
d="M32 384h384h-384h384v-88v0l32 59v0v29v0v32v0h-32h-416v-32v0v-384v0v-32v0h32h205l18 32v0h-223v0v384v0zM128 304v16v-16v16h-32v0v-16v0v-128v0v-16v0h32v0v16v0v128v0zM192 304v16v-16v16h-32v0v-16v0v-128v0v-16v0h32v0v16v0v128v0zM256 -64h37h-37h384l-17 32v0
l-157 287v0l-18 33v0l-18 -33v0l-156 -287v0l-18 -32v0zM586 -32h-276h276h-276l138 253v0l138 -253v0zM464 128v16v-16v16h-32v0v-16v0v-64v0v-16v0h32v0v16v0v64v0zM432 32v-32v32v-32h32v0v32v0h-32v0z" />
    <glyph glyph-name="sensor-fire" unicode="&#xe02a;" horiz-adv-x="640" 
d="M32 384h384h-384h384v-79v0q8 6 15 10l17 11v0v58v0v32v0h-32h-416v-32v0v-384v0v-32v0h32h305q-13 15 -23 32h-282v0v384v0zM128 304v16v-16v16h-32v0v-16v0v-128v0v-16v0h32v0v16v0v128v0zM192 304v16v-16v16h-32v0v-16v0v-128v0v-16v0h32v0v16v0v128v0zM489 247
l-41 41l41 -41l-41 41q-23 -14 -52 -42q-30 -28 -52 -66q-23 -39 -24 -84q2 -65 44 -110t107 -50h9h9q65 5 107 50t44 110q1 22 -19 66q-21 45 -77 94l-9 -9v0l-23 -23v0l-23 23v0zM480 -32h-7q-26 3 -41 20q-16 16 -16 37q2 35 39 72q14 13 25 23q11 -9 25 -23
q37 -37 39 -72q0 -21 -16 -37q-15 -17 -41 -20h-7v0zM576 25q-2 36 -25 67v0v0q-23 30 -46 49v0v0q-23 18 -25 19q-2 -1 -25 -19q-23 -19 -46 -49q-23 -31 -25 -67q0 -8 2 -15q-33 35 -34 86q2 53 41 100q26 31 51 50l45 -45v0l23 -22v0l23 22v0l10 11v0q38 -40 51 -72
t12 -44q-1 -51 -33 -86q1 7 1 15v0z" />
    <glyph glyph-name="sensor-on" unicode="&#xe02b;" horiz-adv-x="640" 
d="M416 384v-384v384v-384h-384v0v384v0h384v0zM32 416h-32h32h-32v-32v0v-384v0v-32v0h32h416v32v0v384v0v32v0h-32h-384zM128 320h-32h32h-32v-16v0v-128v0v-16v0h32v0v16v0v128v0v16v0zM192 320h-32h32h-32v-16v0v-128v0v-16v0h32v0v16v0v128v0v16v0zM600 354l14 8
l-14 -8l14 8l-16 28v0l-14 -8v0l-80 -48v0l-14 -9v0l17 -27v0l13 8v0l80 48v0zM528 208h-16h16h-16v-32v0h16h112v32v0h-16h-96zM520 78l-13 8l13 -8l-13 8l-17 -28v0l14 -8v0l80 -48v0l13 -8v0l17 27v0l-14 9v0l-80 48v0z" />
    <glyph glyph-name="sensor-cloud" unicode="&#xe02c;" horiz-adv-x="640" 
d="M32 384h384h-384h384v-161v0q17 -2 32 -8v169v0v32v0h-32h-416v-32v0v-384v0v-32v0h32h192v32v0h-192v0v384v0zM128 304v16v-16v16h-32v0v-16v0v-128v0v-16v0h32v0v16v0v128v0zM192 304v16v-16v16h-32v0v-16v0v-128v0v-16v0h32v0v16v0v128v0zM336 96q1 27 19 45v0v0
q18 18 45 19q38 -2 57 -34l10 -20v0l16 17v0q11 13 29 13q17 0 28 -12q12 -11 12 -28v-1v0v-14v0l13 -2v0q19 -5 31 -20t12 -35v-56v0h-56h-264v56v0q0 19 11 33q10 14 26 20l12 4v0l-1 12v0v3v0v0zM400 192q-39 -1 -66 -26v0v0q-26 -25 -30 -64q-22 -11 -35 -31
q-13 -21 -13 -47v-72v0v-16v0h16h368v16v0v72v0q0 29 -16 51q-15 21 -41 31q-4 27 -24 44q-19 17 -47 18q-21 0 -38 -11q-28 34 -74 35v0z" />
    <glyph glyph-name="siren" unicode="&#xe02d;" horiz-adv-x="448" 
d="M364 128h32h-32h32l-28 224v0h-288v0l-28 -224v0h32v0l24 192v0h232v0l24 -192v0zM178 128l14 110l-14 -110l14 110l2 18v0h-32v0l-2 -14v0l-14 -114v0h32v0zM32 64h384h-384h384v-64v0h-384v0v64v0zM0 96v-32v32v-32v-64v0v-32v0h32h416v32v0v64v0v32v0h-32h-416z" />
    <glyph glyph-name="siren-on" unicode="&#xe02e;" horiz-adv-x="640" 
d="M55 414l64 -32l-64 32l64 -32l15 -7v0l-15 -28v0l-14 7v0l-64 32v0l-14 7v0l14 28v0l14 -7v0zM599 386l-64 -32l64 32l-64 -32l-14 -8v0l-14 29v0l14 7v0l64 32v0l14 8v0l14 -29v0l-14 -7v0zM16 256h64h-64h80v-32v0h-16h-80v32v0h16v0zM560 256h64h-64h80v-32v0h-16h-80
v32v0h16v0zM492 128h-32h32h-32l-24 192v0h-232v0l-24 -192v0h-32v0l28 224v0h288v0l28 -224v0zM242 128l14 114l-14 -114l14 114l2 14v0h32v0l-2 -18v0l-14 -110v0h-32v0zM512 64h-384h384h-384v-64v0h384v0v64v0zM128 96h384h-384h416v-32v0v-64v0v-32v0h-32h-416v32v0v64
v0v32v0h32v0z" />
    <glyph glyph-name="solar-system" unicode="&#xe02f;" 
d="M32 192q1 -63 31 -113v0v0q29 -51 80 -80v0v0q50 -30 113 -31q47 0 89 18q6 -13 17 -24l2 -2q-50 -24 -108 -24q-72 1 -129 35q-58 34 -92 92q-34 57 -35 129q1 77 41 138q-9 13 -9 30q1 24 16 40q16 15 40 16q17 0 30 -9v0v0q5 -3 9 -7h1v0v-1v0q7 -7 11 -16v0
q5 -10 5 -23q-1 -24 -16 -40q-16 -15 -40 -16q-12 0 -23 5q-32 -52 -33 -117v0zM394 -24v0v0v0v0q-5 4 -9 8l9 -8v0zM424 -32q-17 0 -30 8l-21 25v0q-5 11 -5 23q1 24 16 40q16 15 40 16q12 0 23 -5q32 52 33 117q-1 63 -31 113q-29 51 -80 80q-50 30 -113 31q-47 0 -88 -18
q-7 13 -18 24l-2 2q50 24 108 24q72 -1 129 -35q58 -34 92 -92q34 -57 35 -129q-1 -77 -40 -138q8 -13 8 -30q-1 -24 -16 -40q-16 -15 -40 -16v0zM448 24q-2 22 -24 24q-22 -2 -24 -24q2 -22 24 -24q22 2 24 24v0zM88 336q22 2 24 24q-2 22 -24 24q-22 -2 -24 -24
q2 -22 24 -24v0zM352 256q-17 0 -28 12v0v0q-12 11 -12 28q0 5 1 10q-26 14 -57 14q-54 -1 -91 -37q-36 -37 -37 -91q1 -54 37 -91q37 -36 91 -37q54 1 91 37q36 37 37 91q0 37 -18 66q-7 -2 -14 -2v0zM416 192q-2 -68 -47 -113v0v0q-45 -45 -113 -47q-68 2 -113 47t-47 113
q2 68 47 113t113 47q43 0 78 -20q8 4 18 4q17 0 28 -12q12 -11 12 -28q0 -8 -3 -15q26 -39 27 -89v0zM256 112l-23 23l23 -23l-23 23l-34 34v0l-23 23v0l23 23v0l34 34v0l23 23v0l23 -23v0l34 -34v0l23 -23v0l-23 -23v0l-34 -34v0l-23 -23v0zM256 227l-35 -35l35 35l-35 -35
l35 -35v0l35 35v0l-35 35v0z" />
    <glyph glyph-name="circle-sort" unicode="&#xe030;" 
d="M256 416q61 -1 112 -30v0v0q51 -30 82 -82q30 -53 30 -112t-30 -112q-31 -52 -82 -82q-51 -29 -112 -30q-61 1 -112 30q-51 30 -82 82q-30 53 -30 112t30 112q31 52 82 82q51 29 112 30v0zM256 -64q70 1 128 34v0v0q58 34 94 94q34 61 34 128t-34 128q-36 60 -94 94
q-58 33 -128 34q-70 -1 -128 -34q-58 -34 -94 -94q-34 -61 -34 -128t34 -128q36 -60 94 -94q58 -33 128 -34v0zM176 224h160h-160h192v32v0l-112 96v0l-112 -96v0v-32v0h32v0zM319 256h-126h126h-126l63 54v0l63 -54v0zM176 160h-32h32h-32v-32v0l112 -96v0l112 96v0v32v0
h-32h-160zM319 128l-63 -54l63 54l-63 -54l-63 54v0h126v0z" />
    <glyph glyph-name="circle-sort-down" unicode="&#xe031;" 
d="M32 192q1 61 30 112v0v0q30 51 82 82q53 30 112 30t112 -30q52 -31 82 -82q29 -51 30 -112q-1 -61 -30 -112q-30 -51 -82 -82q-53 -30 -112 -30t-112 30q-52 31 -82 82q-29 51 -30 112v0zM512 192q-1 70 -34 128v0v0q-34 58 -94 94q-61 34 -128 34t-128 -34
q-60 -36 -94 -94q-33 -58 -34 -128q1 -70 34 -128q34 -58 94 -94q61 -34 128 -34t128 34q60 36 94 94q33 58 34 128v0zM176 160h-32h32h-32v-32v0l112 -96v0l112 96v0v32v0h-32h-160zM319 128l-63 -54l63 54l-63 -54l-63 54v0h126v0zM245 339l-88 -88l88 88l-88 -88l-12 -11
v0l23 -23v0l11 12v0l77 76v0l77 -76v0l11 -12v0l23 23v0l-12 11v0l-88 88v0l-11 12v0l-11 -12v0z" />
    <glyph glyph-name="circle-sort-up" unicode="&#xe032;" 
d="M480 192q-1 61 -30 112v0v0q-30 51 -82 82q-53 30 -112 30t-112 -30q-52 -31 -82 -82q-29 -51 -30 -112q1 -61 30 -112q30 -51 82 -82q53 -30 112 -30t112 30q52 31 82 82q29 51 30 112v0zM0 192q1 70 34 128v0v0q34 58 94 94q61 34 128 34t128 -34q60 -36 94 -94
q33 -58 34 -128q-1 -70 -34 -128q-34 -58 -94 -94q-61 -34 -128 -34t-128 34q-60 36 -94 94q-33 58 -34 128v0zM176 224h-32h32h-32v32v0l112 96v0l112 -96v0v-32v0h-32h-160zM319 256l-63 54l63 -54l-63 54l-63 -54v0h126v0zM245 45l-88 88l88 -88l-88 88l-12 11v0l23 23v0
l11 -12v0l77 -76v0l77 76v0l11 12v0l23 -23v0l-12 -11v0l-88 -88v0l-11 -12v0l-11 12v0z" />
    <glyph glyph-name="space-station-moon" unicode="&#xe033;" 
d="M32 192q1 63 31 113v0v0q29 51 80 80v0v0q50 30 113 31q63 -1 113 -31q51 -29 80 -80q30 -50 31 -113q0 -22 -4 -43l-4 -2q-1 0 -3 -1q-26 -10 -77 -22t-136 -13q-85 1 -136 13t-77 22v0v0q-2 1 -3 1l-4 2q-4 21 -4 43v0zM256 79q78 0 129 11v0v0q51 10 80 21
q-26 -64 -81 -103q-56 -39 -128 -40q-72 1 -128 40q-55 39 -81 103q29 -11 80 -21q51 -11 129 -12v1zM256 448q-70 -1 -128 -34v0v0q-58 -34 -94 -94q-34 -61 -34 -128t34 -128q36 -60 94 -94q58 -33 128 -34q70 1 128 34q58 34 94 94q34 61 34 128t-34 128q-36 60 -94 94
q-58 33 -128 34v0zM136 288q1 32 28 48q28 16 56 0q27 -16 28 -48q-1 -32 -28 -48q-28 -16 -56 0q-27 16 -28 48v0zM280 288q-2 50 -44 76q-44 24 -88 0q-42 -26 -44 -76q2 -50 44 -76q44 -24 88 0q42 26 44 76v0zM192 264q22 2 24 24q-2 22 -24 24q-22 -2 -24 -24
q2 -22 24 -24v0z" />
    <glyph glyph-name="space-station-moon-construction" unicode="&#xe034;" 
d="M32 192q1 63 31 113v0v0q29 51 80 80v0v0q50 30 113 31q46 0 86 -17t71 -47h-45h-16v-32v0h16h80l13 26v0q-36 47 -89 74t-116 28q-72 -1 -129 -35q-58 -34 -92 -92q-34 -57 -35 -129q1 -72 35 -129q34 -58 92 -92q57 -34 129 -35q69 1 126 33q56 32 91 86l-14 25v0h-43
h-16v-32v0h16h12q-32 -37 -76 -58q-44 -22 -96 -22q-72 1 -128 40q-55 39 -81 103q29 -11 80 -21q51 -11 129 -12q89 2 143 14q54 13 81 24q1 0 2 1q6 2 11 4l9 3v0l2 8v0q7 28 8 60q0 8 -1 17l-1 15v0h-15h-79v-32v0h16h48q0 -21 -6 -44l-5 -2v0q-26 -10 -77 -22t-136 -13
q-85 1 -136 13t-77 22q-2 1 -3 1l-4 2q-4 21 -4 43v0zM136 288q1 32 28 48q28 16 56 0q27 -16 28 -48q-1 -32 -28 -48q-28 -16 -56 0q-27 16 -28 48v0zM280 288q-2 50 -44 76q-44 24 -88 0q-42 -26 -44 -76q2 -50 44 -76q44 -24 88 0q42 26 44 76v0zM216 288q-2 22 -24 24
q-22 -2 -24 -24q2 -22 24 -24q22 2 24 24v0zM368 288h-16h16h-16v-32v0h16h96v32v0h-16h-80z" />
    <glyph glyph-name="sprinkler" unicode="&#xe035;" 
d="M512 432q-1 15 -16 16q-15 -1 -16 -16q1 -15 16 -16q15 1 16 16v0zM448 368q-1 15 -16 16q-15 -1 -16 -16q1 -15 16 -16q15 1 16 16v0zM16 288q15 1 16 16q-1 15 -16 16q-15 -1 -16 -16q1 -15 16 -16v0zM144 288q15 1 16 16q-1 15 -16 16q-15 -1 -16 -16q1 -15 16 -16v0z
M368 288q15 1 16 16q-1 15 -16 16q-15 -1 -16 -16q1 -15 16 -16v0zM512 304q-1 15 -16 16q-15 -1 -16 -16q1 -15 16 -16q15 1 16 16v0zM448 240q-1 15 -16 16q-15 -1 -16 -16q1 -15 16 -16q15 1 16 16v0zM80 224q15 1 16 16q-1 15 -16 16q-15 -1 -16 -16q1 -15 16 -16v0z
M512 176q-1 15 -16 16q-15 -1 -16 -16q1 -15 16 -16q15 1 16 16v0zM16 160q15 1 16 16q-1 15 -16 16q-15 -1 -16 -16q1 -15 16 -16v0zM80 352q15 1 16 16q-1 15 -16 16q-15 -1 -16 -16q1 -15 16 -16v0zM16 416q15 1 16 16q-1 15 -16 16q-15 -1 -16 -16q1 -15 16 -16v0z
M224 78l-10 10l10 -10l-10 10l-79 72v0h105h137l-79 -72v0l-10 -10v0v-14v0v-96v0h-64v0v96v0v14v0zM240 192h-112h112h-144v-32v0v-8v0l96 -88v0v-96v0v-32v0h32h96v32v0v96v0l96 88v0v8v0v32v0h-32h-112v176v0v16v0h-32v0v-16v0v-176v0z" />
    <glyph glyph-name="star-shooting" unicode="&#xe036;" 
d="M307 413l-56 -56l56 56l-56 -56l-11 -12v0l-23 23v0l12 11v0l56 56v0l11 12v0l23 -23v0l-12 -11v0zM499 413l-152 -152l152 152l-152 -152l-11 -12v0l-23 23v0l12 11v0l152 152v0l11 12v0l23 -23v0l-12 -11v0zM499 221l-56 -56l56 56l-56 -56l-11 -12v0l-23 23v0l12 11v0
l56 56v0l11 12v0l23 -23v0l-12 -11v0zM211 268l42 -85l-42 85l42 -85l94 -14v0l40 -6v0l-29 -28v0l-68 -66v0l16 -93v0l7 -40v0l-36 19v0l-84 44v0l-84 -44v0l-35 -19v0l7 40v0l16 93v0l-68 66v0l-29 28v0l40 6v0l94 14v0l42 85v0l18 36v0l17 -36v0zM249 151l-17 3l17 -3
l-17 3l-7 15v0l-31 63v0l-32 -63v0l-7 -15v0l-17 -3v0l-69 -10v0l50 -49v0l12 -12v0l-3 -16v0l-12 -69v0l63 32v0l15 8v0l14 -8v0l63 -32v0l-12 69v0l-3 16v0l12 12v0l50 49v0l-69 10v0z" />
    <glyph glyph-name="star-shooting" unicode="&#x1f320;" 
d="M307 413l-56 -56l56 56l-56 -56l-11 -12v0l-23 23v0l12 11v0l56 56v0l11 12v0l23 -23v0l-12 -11v0zM499 413l-152 -152l152 152l-152 -152l-11 -12v0l-23 23v0l12 11v0l152 152v0l11 12v0l23 -23v0l-12 -11v0zM499 221l-56 -56l56 56l-56 -56l-11 -12v0l-23 23v0l12 11v0
l56 56v0l11 12v0l23 -23v0l-12 -11v0zM211 268l42 -85l-42 85l42 -85l94 -14v0l40 -6v0l-29 -28v0l-68 -66v0l16 -93v0l7 -40v0l-36 19v0l-84 44v0l-84 -44v0l-35 -19v0l7 40v0l16 93v0l-68 66v0l-29 28v0l40 6v0l94 14v0l42 85v0l18 36v0l17 -36v0zM249 151l-17 3l17 -3
l-17 3l-7 15v0l-31 63v0l-32 -63v0l-7 -15v0l-17 -3v0l-69 -10v0l50 -49v0l12 -12v0l-3 -16v0l-12 -69v0l63 32v0l15 8v0l14 -8v0l63 -32v0l-12 69v0l-3 16v0l12 12v0l50 49v0l-69 10v0z" />
    <glyph glyph-name="star-shooting" unicode="&#x1f320;" 
d="M307 413l-56 -56l56 56l-56 -56l-11 -12v0l-23 23v0l12 11v0l56 56v0l11 12v0l23 -23v0l-12 -11v0zM499 413l-152 -152l152 152l-152 -152l-11 -12v0l-23 23v0l12 11v0l152 152v0l11 12v0l23 -23v0l-12 -11v0zM499 221l-56 -56l56 56l-56 -56l-11 -12v0l-23 23v0l12 11v0
l56 56v0l11 12v0l23 -23v0l-12 -11v0zM211 268l42 -85l-42 85l42 -85l94 -14v0l40 -6v0l-29 -28v0l-68 -66v0l16 -93v0l7 -40v0l-36 19v0l-84 44v0l-84 -44v0l-35 -19v0l7 40v0l16 93v0l-68 66v0l-29 28v0l40 6v0l94 14v0l42 85v0l18 36v0l17 -36v0zM249 151l-17 3l17 -3
l-17 3l-7 15v0l-31 63v0l-32 -63v0l-7 -15v0l-17 -3v0l-69 -10v0l50 -49v0l12 -12v0l-3 -16v0l-12 -69v0l63 32v0l15 8v0l14 -8v0l63 -32v0l-12 69v0l-3 16v0l12 12v0l50 49v0l-69 10v0z" />
    <glyph glyph-name="starfighter" unicode="&#xe037;" horiz-adv-x="640" 
d="M274 448l-2 -14l2 14l-2 -14l-32 -264v0v-1v0v-1v0v-184v0v-16v0h16h144v16v0v184v0v1v0v1v0l-32 264v0l-2 14v0h-14h-78zM302 416h36h-36h36l30 -249v0v-167v0h-96v0v167v0l30 249v0zM64 352v16v-16v16h-32v0v-16v0v-32v0h-16h-16v-32v0h16h16v-288v0v-16v0h32v0v16v0
v19v0l64 -26v0v-9v0v-16v0h16h48v-16v0v-16v0h32v0v16v0v32v0v16v0h-16h-48v160v0h48h16v32v0h-16h-80v-16v0v-48v0h-64v0v160v0h16h16v32v0h-16h-16v32v0zM64 54v42v-42v42h64v0v-69v0l-64 27v0zM608 352v16v-16v16h-32v0v-16v0v-32v0h-16h-16v-32v0h16h16v-160v0h-64v0v48
v0v16v0h-16h-80v-32v0h16h48v-160v0h-48h-16v-16v0v-32v0v-16v0h32v0v16v0v16v0h48h16v16v0v9v0l64 26v0v-19v0v-16v0h32v0v16v0v288v0h16h16v32v0h-16h-16v32v0zM512 96h64h-64h64v-42v0l-64 -27v0v69v0zM320 224q-15 -1 -16 -16v-80v0h32v0v80v0q-1 15 -16 16v0z" />
    <glyph glyph-name="starfighter-twin-ion-engine" unicode="&#xe038;" horiz-adv-x="576" 
d="M32 416v-16v16v-16v-149v0l116 19v0q21 37 58 59t82 23q45 -1 82 -23t58 -59l116 -19v0v149v0v16v0h32v0v-16v0v-154v0v-14v0v-80v0v-14v0v-154v0v-16v0h-32v0v16v0v149v0l-116 -19v0q-21 -37 -58 -59t-82 -23q-45 1 -82 23t-58 59l-116 19v0v-149v0v-16v0h-32v0v16v0
v154v0v14v0v80v0v14v0v154v0v16v0h32v0zM448 192q0 -23 -6 -43l102 17v0v52v0l-102 17v0q6 -20 6 -43v0zM32 166l102 -17l-102 17l102 -17q-6 20 -6 43t6 43l-102 -17v0v-53v1zM288 64q35 0 64 17v0v0q29 17 47 47q17 30 17 64t-17 64q-18 30 -47 47t-64 17t-64 -17t-47 -47
q-17 -30 -17 -64t17 -64q18 -30 47 -47t64 -17v0zM350 208h34h-34h50v-32v0h-16h-34q-2 -9 -7 -17l24 -24v0l12 -11v0l-23 -23v0l-11 12v0l-24 24v0q-8 -5 -17 -7v-34v0v-16v0h-32v0v16v0v34v0q-9 2 -16 7l-24 -24v0l-12 -12v0l-22 23v0l11 11v0l24 24v0q-5 8 -7 17h-34h-16
v32v0h16h34q2 9 7 16l-24 25v0l-11 11v0l22 23v0l12 -12v0l24 -24v0q7 5 16 7v34v0v16v0h32v0v-16v0v-34v0q9 -2 17 -7l24 24v0l11 12v0l23 -23v0l-12 -11v0l-24 -25v0q5 -7 7 -16v0zM288 160q14 0 23 9v0v0q9 9 9 23t-9 23t-23 9t-23 -9t-9 -23t9 -23t23 -9v0z" />
    <glyph glyph-name="starship" unicode="&#xe039;" horiz-adv-x="640" 
d="M0 384h16h-16h256v-16v0v-64v0v-16v0h-16h-79l48 -35v0l60 9v0q22 54 69 88q48 33 110 34q82 -2 136 -56t56 -136q-2 -82 -56 -136t-136 -56q-62 1 -110 34q-47 34 -69 88l-60 9v0l-48 -35v0h79h16v-16v0v-64v0v-16v0h-16h-240v16v0v64v0v16v0h16h91l56 41v0l-53 7v0
l-14 2v0v14v0v64v0v14v0l14 2v0l53 7v0l-56 41v0h-91h-16v16v0v64v0v16v0zM32 352v-32v32v-32h192v0v32v0h-192v0zM128 210v-36v36v-36l131 -18v0q-3 17 -3 36q0 18 3 36l-131 -18v0zM32 32h192h-192h192v32v0h-192v0v-32v0zM448 32q43 0 80 21v0v0q37 22 59 59q21 38 21 80
t-21 80q-22 37 -59 59q-37 21 -80 21t-80 -21q-37 -22 -59 -59q-21 -38 -21 -80t21 -80q22 -37 59 -59q37 -21 80 -21v0zM480 192q0 14 -9 23v0v0q-9 9 -23 9t-23 -9t-9 -23t9 -23t23 -9t23 9t9 23v0zM384 192q1 36 32 55q32 18 64 0q31 -19 32 -55q-1 -36 -32 -55
q-32 -18 -64 0q-31 19 -32 55v0z" />
    <glyph glyph-name="starship-freighter" unicode="&#xe03a;" horiz-adv-x="576" 
d="M377 76l-61 87l61 -87l-61 87q4 14 4 29q-1 41 -28 68t-68 28q-41 -1 -68 -28t-28 -68q1 -41 28 -68t68 -28h1h1l60 -86v0q-29 -10 -62 -10q-82 2 -136 56t-56 136q2 82 56 136t136 56q80 -2 134 -55q54 -52 58 -132v-2v-3v-5q-3 -64 -39 -111v0zM405 48h-8h8h-8l-1 1v0
q35 41 47 95h4h97v-42v0l-139 -54v0zM480 43l96 37l-96 -37l96 37v64v0v32v0h-32h-97q1 8 1 16t-1 16v0v0h33h96v32v0v64v0l-228 89v0q-60 23 -124 23q-63 -1 -113 -31q-51 -29 -80 -80q-30 -50 -31 -113q1 -63 31 -113q29 -51 80 -80q50 -30 113 -31q43 0 85 11l13 -19v0
l17 -24v0h29h112v107v0zM447 240h-4h4h-4q-14 59 -52 102l153 -60v0v-42v0h-97v0zM80 176q15 1 16 16q-1 15 -16 16q-15 -1 -16 -16q1 -15 16 -16v0zM128 288q-1 15 -16 16q-15 -1 -16 -16q1 -15 16 -16q15 1 16 16v0zM112 80q15 1 16 16q-1 15 -16 16q-15 -1 -16 -16
q1 -15 16 -16v0zM160 192q1 36 32 55q32 18 64 0q31 -19 32 -55q-1 -36 -32 -55q-32 -18 -64 0q-31 19 -32 55v0zM348 -22l-86 126l86 -126l-86 126q23 10 38 29l81 -117v0h43h24v-48v0h-24h-69l-7 10v0z" />
    <glyph glyph-name="sword-laser" unicode="&#xe03b;" 
d="M294 158l218 242l-218 -242l218 242l-48 48v0l-242 -218v0l23 -23v0l218 197v0l5 -5v0l-197 -218v0l23 -23v0zM187 219l-11 12l11 -12l-11 12l-23 -23v0l12 -11v0l4 -5v0l-57 -57v0l-8 8v0l-11 -12v0l-88 -88v0l-5 -4v0v-7v0v-32v0v-7v0l5 -4v0l48 -48v0l4 -5v0h7h39l4 5
v0l88 88v0l12 11v0l-8 8v0l57 57v0l5 -4v0l11 -12v0l23 23v0l-12 11v0l-16 16v0v0v0v0v0l-64 64v0l-16 16v0zM192 169l41 -41l-41 41l41 -41l-17 -17v0l-41 41v0l17 17v0zM135 112l17 17l-17 -17l17 17l41 -41v0l-17 -17v0l-41 41v0zM32 25l72 72l-72 -72l72 72l57 -57v0
l-72 -72v0h-18v0l-39 39v0v18v0z" />
    <glyph glyph-name="sword-laser-alt" unicode="&#xe03c;" 
d="M352 223v1v-1v1h-42v0l158 175v0l-5 5v0l-199 -180v0h-48v0l248 224v0l48 -48v0l-160 -177v0zM96 -64l-23 23l23 -23l-23 23l-50 50v0l-23 23v0l23 23v0l137 137v0h147h45l-32 -32v0l-201 -201v0l-23 -23v0zM275 160h-102h102h-102l-43 -43v0l25 -26v0l26 -25v0l94 94v0z
M144 57l-62 -62l62 62l-62 -62l14 -14v0l62 62v0l-14 14v0zM121 80l-14 14l14 -14l-14 14l-62 -62v0l14 -14v0l62 62v0z" />
    <glyph glyph-name="swords-laser" unicode="&#xe03d;" horiz-adv-x="640" 
d="M384 288v-28v28v-28l-208 188v0l-48 -48v0l256 -284v0v-20v0l137 -137v0l23 -23v0l23 23v0l50 50v0l23 23v0l-23 23v0l-201 201v0l-32 32v0zM172 399l5 5l-5 -5l5 5l207 -187v0v-53v0l-212 235v0zM510 117l-25 -26l25 26l-25 -26l-26 -25v0l-43 43v0v102v0l94 -94v0z
M533 94l62 -62l-62 62l62 -62l-14 -14v0l-62 62v0l14 14v0zM558 -5l-14 -14l14 14l-14 -14l-62 62v0l14 14v0l62 -62v0zM198 208l-11 11l11 -11l-11 11l-11 12v0l-23 -23v0l12 -11v0l4 -5v0l-57 -57v0l-8 8v0l-11 -12v0l-88 -88v0l-5 -4v0v-7v0v-32v0v-7v0l5 -4v0l48 -48v0
l4 -5v0h7h39l4 5v0l88 88v0l12 11v0l-8 8v0l57 57v0l5 -4v0l11 -12v0l23 23v0l-12 11v0l-11 11v0l27 29v0l-22 24v0l-27 -30v0l-29 29v0l32 28v0l-22 24v0l-33 -30v0zM468 399l-70 -77l70 77l-70 -77l23 -23v0l91 101v0l-48 48v0l-120 -108v0l24 -22v0l95 86v0l5 -5v0z
M192 169l41 -41l-41 41l41 -41l-17 -17v0l-41 41v0l17 17v0zM135 112l17 17l-17 -17l17 17l41 -41v0l-17 -17v0l-41 41v0zM32 25l72 72l-72 -72l72 72l57 -57v0l-72 -72v0h-18v0l-39 39v0v18v0z" />
    <glyph glyph-name="telescope" unicode="&#xe03e;" horiz-adv-x="576" 
d="M357 360l96 -166l-96 166l96 -166l76 44v0l-96 166v0l-76 -44v0zM557 254l16 -28l-16 28l16 -28l-28 -16v0l-76 -44v0l-28 -16v0l-16 28v0l-1 1v0l-41 -23v0q1 -6 1 -12q-1 -36 -26 -59l61 -149v0h-34v0l-54 132v0q-13 -4 -27 -4t-26 4l-54 -132v0h-35v0l60 148v0
l-127 -69v0l-85 148v0l290 184v0l-14 25v0l28 16v0l76 44v0l28 16v0l16 -28v0l96 -166v0zM343 320l-263 -167l263 167l-263 -167l54 -95v0l97 52v0q-7 16 -7 34q1 34 23 56q23 23 57 24q45 -2 68 -38l36 20v0l-65 114v0zM304 96q27 1 42 24q12 24 0 48q-15 23 -42 24
q-27 -1 -42 -24q-12 -24 0 -48q15 -23 42 -24v0zM38 104l32 -56l-32 56l32 -56l8 -14v0l-28 -16v0l-8 14v0l-32 56v0l-8 14v0l28 16v0l8 -14v0z" />
    <glyph glyph-name="telescope" unicode="&#x1f52d;" horiz-adv-x="576" 
d="M357 360l96 -166l-96 166l96 -166l76 44v0l-96 166v0l-76 -44v0zM557 254l16 -28l-16 28l16 -28l-28 -16v0l-76 -44v0l-28 -16v0l-16 28v0l-1 1v0l-41 -23v0q1 -6 1 -12q-1 -36 -26 -59l61 -149v0h-34v0l-54 132v0q-13 -4 -27 -4t-26 4l-54 -132v0h-35v0l60 148v0
l-127 -69v0l-85 148v0l290 184v0l-14 25v0l28 16v0l76 44v0l28 16v0l16 -28v0l96 -166v0zM343 320l-263 -167l263 167l-263 -167l54 -95v0l97 52v0q-7 16 -7 34q1 34 23 56q23 23 57 24q45 -2 68 -38l36 20v0l-65 114v0zM304 96q27 1 42 24q12 24 0 48q-15 23 -42 24
q-27 -1 -42 -24q-12 -24 0 -48q15 -23 42 -24v0zM38 104l32 -56l-32 56l32 -56l8 -14v0l-28 -16v0l-8 14v0l-32 56v0l-8 14v0l28 16v0l8 -14v0z" />
    <glyph glyph-name="telescope" unicode="&#x1f52d;" horiz-adv-x="576" 
d="M357 360l96 -166l-96 166l96 -166l76 44v0l-96 166v0l-76 -44v0zM557 254l16 -28l-16 28l16 -28l-28 -16v0l-76 -44v0l-28 -16v0l-16 28v0l-1 1v0l-41 -23v0q1 -6 1 -12q-1 -36 -26 -59l61 -149v0h-34v0l-54 132v0q-13 -4 -27 -4t-26 4l-54 -132v0h-35v0l60 148v0
l-127 -69v0l-85 148v0l290 184v0l-14 25v0l28 16v0l76 44v0l28 16v0l16 -28v0l96 -166v0zM343 320l-263 -167l263 167l-263 -167l54 -95v0l97 52v0q-7 16 -7 34q1 34 23 56q23 23 57 24q45 -2 68 -38l36 20v0l-65 114v0zM304 96q27 1 42 24q12 24 0 48q-15 23 -42 24
q-27 -1 -42 -24q-12 -24 0 -48q15 -23 42 -24v0zM38 104l32 -56l-32 56l32 -56l8 -14v0l-28 -16v0l-8 14v0l-32 56v0l-8 14v0l28 16v0l8 -14v0z" />
    <glyph glyph-name="temperature-arrow-down" unicode="&#xe03f;" horiz-adv-x="576" 
d="M101 163l11 10l-11 -10l11 10v14v0v229v0h128v0v-229v0v-14v0l11 -10v0q36 -32 37 -83q-1 -48 -33 -79q-31 -32 -79 -33q-48 1 -79 33q-32 31 -33 79q1 51 37 83v0zM272 448h-32h32h-192v-32v0v-229v0q-46 -41 -48 -107q2 -61 42 -102q41 -40 102 -42q61 2 102 42
q40 41 42 102q-2 66 -48 107v229v0v32v0zM144 80q0 14 9 23v0v0q9 9 23 9t23 -9t9 -23t-9 -23t-23 -9t-23 9t-9 23v0zM240 80q0 23 -14 40v0v0q-13 16 -34 22v34v0v16v0h-32v0v-16v0v-34v0q-21 -6 -34 -22q-14 -17 -14 -40q1 -27 19 -45t45 -19q27 1 45 19t19 45v0zM421 -27
l11 -12l-11 12l11 -12l11 12v0l80 80v0l-22 22v0l-53 -52v0v377v0v16v0h-32v0v-16v0v-377v0l-53 52v0l-22 -22v0l80 -80v0z" />
    <glyph glyph-name="temperature-arrow-up" unicode="&#xe040;" horiz-adv-x="576" 
d="M101 163l11 10l-11 -10l11 10v14v0v229v0h128v0v-229v0v-14v0l11 -10v0q36 -32 37 -83q-1 -48 -33 -79q-31 -32 -79 -33q-48 1 -79 33q-32 31 -33 79q1 51 37 83v0zM272 448h-32h32h-192v-32v0v-229v0q-46 -41 -48 -107q2 -61 42 -102q41 -40 102 -42q61 2 102 42
q40 41 42 102q-2 66 -48 107v229v0v32v0zM144 80q0 14 9 23v0v0q9 9 23 9t23 -9t9 -23t-9 -23t-23 -9t-23 9t-9 23v0zM240 80q0 23 -14 40v0v0q-13 16 -34 22v210v0v16v0h-32v0v-16v0v-210v0q-21 -6 -34 -22q-14 -17 -14 -40q1 -27 19 -45t45 -19q27 1 45 19t19 45v0z
M421 411l-96 -96l96 96l-96 -96l22 -22v0l69 68v0v-377v0v-16v0h32v0v16v0v377v0l69 -68v0l22 22v0l-96 96v0l-11 12v0l-11 -12v0z" />
    <glyph glyph-name="trailer" unicode="&#xe041;" horiz-adv-x="640" 
d="M0 416h16h-16h512v-16v0v-304v0h104h16v-32v0h-16h-328q-1 -41 -28 -68t-68 -28q-41 1 -68 28t-28 68h-80h-16v16v0v320v0v16v0zM128 64q1 -36 32 -55q32 -18 64 0q31 19 32 55q-1 36 -32 55q-32 18 -64 0q-31 -19 -32 -55v0zM283 96h197h-197h197v288v0h-448v0v-288v0
h70v0q10 28 34 46q24 17 56 18q32 -1 56 -18q24 -18 35 -46v0zM128 352v-16v16v-16v-128v0v-16v0h-32v0v16v0v128v0v16v0h32v0zM224 352v-16v16v-16v-128v0v-16v0h-32v0v16v0v128v0v16v0h32v0zM320 352v-16v16v-16v-160v0v-16v0h-32v0v16v0v160v0v16v0h32v0zM416 352v-16v16
v-16v-160v0v-16v0h-32v0v16v0v160v0v16v0h32v0z" />
    <glyph glyph-name="transporter" unicode="&#xe042;" 
d="M480 432v-16v16v-16h16h16v-32v0h-16h-16v-16v0v-16v0h-32v0v16v0v16v0h-16h-16v32v0h16h16v16v0v16v0h32v0v-16v0zM64 368v-16v16v-16h16h16v-32v0h-16h-16v-16v0v-16v0h-32v0v16v0v16v0h-16h-16v32v0h16h16v16v0v16v0h32v0v-16v0zM256 368q22 2 24 24q-2 22 -24 24
q-22 -2 -24 -24q2 -22 24 -24v0zM256 448q32 -1 48 -28q16 -28 0 -56q-16 -27 -48 -28q-32 1 -48 28q-16 28 0 56q16 27 48 28v0zM96 0h16h-16h320v-16v0v-32v0v-16v0h-32v0v16v0v16v0h-256v0v-16v0v-16v0h-32v0v16v0v32v0v16v0zM189 304h8h-8h134l5 -6v0l85 -112v0l9 -13v0
l-25 -19v0l-10 12v0l-67 89v0v-111v0v-96v0v-16v0h-32v0v16v0v80v0h-64v0v-80v0v-16v0h-32v0v16v0v96v0v111v0l-67 -89v0l-10 -12v0l-25 19v0l9 13v0l85 112v0l5 6v0zM224 272v-112v112v-112h64v0v112v0h-64v0z" />
    <glyph glyph-name="transporter-1" unicode="&#xe043;" 
d="M256 416q22 -2 24 -24q-2 -22 -24 -24q-22 2 -24 24q2 22 24 24v0zM256 336q32 1 48 28q16 28 0 56q-16 27 -48 28q-32 -1 -48 -28q-16 -28 0 -56q16 -27 48 -28v0zM96 0v-16v16v-16v-32v0v-16v0h32v0v16v0v16v0h256v0v-16v0v-16v0h32v0v16v0v32v0v16v0h-16h-304z
M192 255v-95v95v-95h32v0v112v0h64v0v-112v0h32v0v95v0l67 -89v0l10 -12v0l26 19v0l-10 13v0l-85 112v0l-5 6v0h-8h-126l-5 -6v0l-85 -112v0l-9 -13v0l25 -19v0l10 12v0l67 89v0zM480 304v16v-16v16h-32v0v-16v0v-16v0h-16h-16v-32v0h16h16v-16v0v-16v0h32v0v16v0v16v0h16
h16v32v0h-16h-16v16v0zM64 112v16v-16v16h-32v0v-16v0v-16v0h-16h-16v-32v0h16h16v-16v0v-16v0h32v0v16v0v16v0h16h16v32v0h-16h-16v16v0zM176 128h-16h16h-16v-32v0h16h176v32v0h-16h-160zM176 64h-16h16h-16v-32v0h16h176v32v0h-16h-160z" />
    <glyph glyph-name="transporter-2" unicode="&#xe044;" 
d="M64 432v-16v16v-16h16h16v-32v0h-16h-16v-16v0v-16v0h-32v0v16v0v16v0h-16h-16v32v0h16h16v16v0v16v0h32v0v-16v0zM480 112v-16v16v-16h16h16v-32v0h-16h-16v-16v0v-16v0h-32v0v16v0v16v0h-16h-16v32v0h16h16v16v0v16v0h32v0v-16v0zM256 368q22 2 24 24q-2 22 -24 24
q-22 -2 -24 -24q2 -22 24 -24v0zM256 448q32 -1 48 -28q16 -28 0 -56q-16 -27 -48 -28q-32 1 -48 28q-16 28 0 56q16 27 48 28v0zM96 -16v16v-16v16h16h304v-16v0v-32v0v-16v0h-32v0v16v0v16v0h-256v0v-16v0v-16v0h-32v0v16v0v32v0zM384 224h-40h40h-40l-24 31v0v-31v0h-32
v0v48v0h-64v0v-48v0h-32v0v31v0l-23 -31v0h-41v0l56 74v0l5 6v0h8h126l5 -6v0l56 -74v0zM96 192h16h-16h320v-32v0h-16h-304v32v0zM160 128h16h-16h192v-32v0h-16h-176v32v0zM160 64h16h-16h192v-32v0h-16h-176v32v0z" />
    <glyph glyph-name="transporter-3" unicode="&#xe045;" 
d="M480 432v16v-16v16h-32v0v-16v0v-16v0h-16h-16v-32v0h16h16v-16v0v-16v0h32v0v16v0v16v0h16h16v32v0h-16h-16v16v0zM64 336v16v-16v16h-32v0v-16v0v-16v0h-16h-16v-32v0h16h16v-16v0v-16v0h32v0v16v0v16v0h16h16v32v0h-16h-16v16v0zM256 416q22 -2 24 -24q-2 -22 -24 -24
q-22 2 -24 24q2 22 24 24v0zM256 336q32 1 48 28q16 28 0 56q-16 27 -48 28q-32 -1 -48 -28q-16 -28 0 -56q16 -27 48 -28v0zM416 0h-16h16h-320v-16v0v-32v0v-16v0h32v0v16v0v16v0h256v0v-16v0v-16v0h32v0v16v0v32v0v16v0zM160 320v-32v32v-32h16h176v32v0h-16h-176z
M128 256v-32v32v-32h16h240v32v0h-16h-240zM96 192v-32v32v-32h16h304v32v0h-16h-304zM160 128v-32v32v-32h16h176v32v0h-16h-176zM160 64v-32v32v-32h16h176v32v0h-16h-176z" />
    <glyph glyph-name="transporter-empty" unicode="&#xe046;" 
d="M96 0h16h-16h320v-16v0v-32v0v-16v0h-32v0v16v0v16v0h-256v0v-16v0v-16v0h-32v0v16v0v32v0v16v0z" />
    <glyph glyph-name="ufo" unicode="&#xe047;" horiz-adv-x="640" 
d="M177 210q-9 -8 -11 -10v0v0q-1 -2 -1 -1v0v0v0v0v0v0v-1v0h1l2 -2q2 -2 7 -6q9 -7 28 -16q36 -19 117 -22q81 3 118 22q18 9 27 16q5 4 7 6v0q2 1 2 2v0h1v1v0v0v0v0v0l-12 11v0l12 -11v0q4 4 4 9q2 15 1 28q58 -15 92 -39q37 -28 36 -53q0 -18 -19 -39q-21 -20 -60 -37
q-40 -17 -94 -26q-53 -10 -115 -10t-115 10q-54 9 -94 26q-39 17 -60 37q-19 21 -19 39q-1 25 37 53q33 24 92 39q-1 -13 0 -28q0 -5 4 -9l12 11v0zM473 271q-17 51 -58 82v0v0q-41 30 -95 31q-54 -1 -95 -31q-41 -31 -58 -82q-72 -17 -117 -48q-47 -31 -50 -79
q1 -35 29 -61q26 -26 70 -44q43 -19 100 -29q56 -10 121 -10t121 10q57 10 100 29q44 18 70 44q28 26 29 61q-3 48 -50 79q-45 31 -117 48v0zM452 221v0v0v0v0v0v0v0v0zM448 217h-1v0v0l-1 -1q-6 -5 -22 -13q-30 -16 -104 -19q-74 3 -104 19q-16 8 -22 13q-1 0 -1 1h-1
q0 59 36 96q37 38 92 39q55 -1 92 -39q36 -37 36 -96v0zM96 136l32 -32l-32 32l32 -32l32 32v0l-32 32v0l-32 -32v0zM288 88l32 -32l-32 32l32 -32l32 32v0l-32 32v0l-32 -32v0zM512 168l-32 -32l32 32l-32 -32l32 -32v0l32 32v0l-32 32v0z" />
    <glyph glyph-name="ufo" unicode="&#x1f6f8;" horiz-adv-x="640" 
d="M177 210q-9 -8 -11 -10v0v0q-1 -2 -1 -1v0v0v0v0v0v0v-1v0h1l2 -2q2 -2 7 -6q9 -7 28 -16q36 -19 117 -22q81 3 118 22q18 9 27 16q5 4 7 6v0q2 1 2 2v0h1v1v0v0v0v0v0l-12 11v0l12 -11v0q4 4 4 9q2 15 1 28q58 -15 92 -39q37 -28 36 -53q0 -18 -19 -39q-21 -20 -60 -37
q-40 -17 -94 -26q-53 -10 -115 -10t-115 10q-54 9 -94 26q-39 17 -60 37q-19 21 -19 39q-1 25 37 53q33 24 92 39q-1 -13 0 -28q0 -5 4 -9l12 11v0zM473 271q-17 51 -58 82v0v0q-41 30 -95 31q-54 -1 -95 -31q-41 -31 -58 -82q-72 -17 -117 -48q-47 -31 -50 -79
q1 -35 29 -61q26 -26 70 -44q43 -19 100 -29q56 -10 121 -10t121 10q57 10 100 29q44 18 70 44q28 26 29 61q-3 48 -50 79q-45 31 -117 48v0zM452 221v0v0v0v0v0v0v0v0zM448 217h-1v0v0l-1 -1q-6 -5 -22 -13q-30 -16 -104 -19q-74 3 -104 19q-16 8 -22 13q-1 0 -1 1h-1
q0 59 36 96q37 38 92 39q55 -1 92 -39q36 -37 36 -96v0zM96 136l32 -32l-32 32l32 -32l32 32v0l-32 32v0l-32 -32v0zM288 88l32 -32l-32 32l32 -32l32 32v0l-32 32v0l-32 -32v0zM512 168l-32 -32l32 32l-32 -32l32 -32v0l32 32v0l-32 32v0z" />
    <glyph glyph-name="ufo" unicode="&#x1f6f8;" horiz-adv-x="640" 
d="M177 210q-9 -8 -11 -10v0v0q-1 -2 -1 -1v0v0v0v0v0v0v-1v0h1l2 -2q2 -2 7 -6q9 -7 28 -16q36 -19 117 -22q81 3 118 22q18 9 27 16q5 4 7 6v0q2 1 2 2v0h1v1v0v0v0v0v0l-12 11v0l12 -11v0q4 4 4 9q2 15 1 28q58 -15 92 -39q37 -28 36 -53q0 -18 -19 -39q-21 -20 -60 -37
q-40 -17 -94 -26q-53 -10 -115 -10t-115 10q-54 9 -94 26q-39 17 -60 37q-19 21 -19 39q-1 25 37 53q33 24 92 39q-1 -13 0 -28q0 -5 4 -9l12 11v0zM473 271q-17 51 -58 82v0v0q-41 30 -95 31q-54 -1 -95 -31q-41 -31 -58 -82q-72 -17 -117 -48q-47 -31 -50 -79
q1 -35 29 -61q26 -26 70 -44q43 -19 100 -29q56 -10 121 -10t121 10q57 10 100 29q44 18 70 44q28 26 29 61q-3 48 -50 79q-45 31 -117 48v0zM452 221v0v0v0v0v0v0v0v0zM448 217h-1v0v0l-1 -1q-6 -5 -22 -13q-30 -16 -104 -19q-74 3 -104 19q-16 8 -22 13q-1 0 -1 1h-1
q0 59 36 96q37 38 92 39q55 -1 92 -39q36 -37 36 -96v0zM96 136l32 -32l-32 32l32 -32l32 32v0l-32 32v0l-32 -32v0zM288 88l32 -32l-32 32l32 -32l32 32v0l-32 32v0l-32 -32v0zM512 168l-32 -32l32 32l-32 -32l32 -32v0l32 32v0l-32 32v0z" />
    <glyph glyph-name="ufo-beam" unicode="&#xe048;" horiz-adv-x="576" 
d="M141 281l12 12l-12 -12l12 12q-9 -8 -10 -10l-2 -2v0v0v0v0h1v0v-1v0h1q0 -1 1 -1q2 -2 7 -5q9 -7 26 -14q35 -18 111 -20q76 2 111 20q17 7 26 14q5 3 7 5q1 1 2 1v1v0h1v0v0v0v0v0v0v0l-12 12v0l12 -12v0q4 4 4 10q1 12 1 24q45 -12 73 -30q33 -22 31 -39
q1 -12 -16 -28q-18 -16 -53 -29q-74 -28 -187 -29q-113 1 -187 29q-35 13 -53 29q-17 16 -16 28q-2 17 31 39q28 18 73 30q-1 -12 0 -24q1 -6 5 -10v0zM144 350q-60 -14 -98 -37q-20 -13 -33 -29q-13 -17 -13 -38q2 -30 27 -51q24 -21 63 -36q80 -30 198 -31q118 1 198 31
q39 15 63 36q25 21 27 51q0 21 -13 38q-13 16 -33 29q-38 23 -98 37q-16 44 -55 71q-39 26 -89 27q-50 -1 -89 -27q-39 -27 -55 -71v0zM288 416q52 -1 86 -33v0v0q34 -33 34 -82l-1 -1v0q-6 -4 -21 -11q-28 -15 -98 -17q-70 2 -98 17q-15 7 -21 11l-1 1v0q0 49 34 82
q34 32 86 33v0zM118 103l-29 15l29 -15l-29 15l-7 -14v0l-72 -136v0l-8 -15v0l29 -15v0l7 14v0l72 136v0l8 14v1zM487 118l-29 -15l29 15l-29 -15l8 -14v0l72 -136v0l7 -15v0l29 15v0l-8 15v0l-72 136v0l-7 14v0zM288 232l-32 -32l32 32l-32 -32l32 -32v0l32 32v0l-32 32v0z
M64 248l32 -32l-32 32l32 -32l32 32v0l-32 32v0l-32 -32v0zM480 280l-32 -32l32 32l-32 -32l32 -32v0l32 32v0l-32 32v0z" />
    <glyph glyph-name="user-alien" unicode="&#xe04a;" horiz-adv-x="448" 
d="M224 416q-54 -1 -90 -39v0v0q-37 -38 -38 -96q1 -35 21 -68q20 -34 49 -62q30 -28 52 -44q2 -1 4 -3l2 -2l4 4q1 0 2 1q22 16 52 44q29 28 49 62q20 33 21 68q-1 58 -38 96q-36 38 -90 39v0zM64 281q2 71 47 118v0v0q45 47 113 49q68 -2 113 -49t47 -118q-3 -60 -41 -109
q-39 -49 -78 -78q-38 -29 -41 -30q-3 1 -41 30q-39 29 -78 78q-38 49 -41 109v0zM169 64h-97h97h-97l-29 -96v0h362v0l-29 96v0h-97v0q18 13 38 32h83v0l38 -128v0l10 -32v0h-33h-415l10 32v0l38 128v0h83v0q20 -19 38 -32v0zM149 271l48 -16l-48 16l48 -16l15 -5v0l-10 -30
v0l-15 5v0l-48 16v0l-15 5v0l10 30v0l15 -5v0zM309 241l-48 -16l48 16l-48 -16l-15 -5v0l-10 30v0l15 5v0l48 16v0l15 5v0l10 -30v0l-15 -5v0z" />
    <glyph glyph-name="user-robot" unicode="&#xe04b;" horiz-adv-x="448" 
d="M240 432v16v-16v16h-32v0v-16v0v-48v0h-112h-32v-32v0v-192v0v-32v0h32h288v32v0v192v0v32v0h-32h-112v48v0zM96 352h256h-256h256v-192v0h-48v0v48v0h-32v0v-48v0h-32v0v48v0h-32v0v-48v0h-32v0v48v0h-32v0v-48v0h-48v0v192v0zM32 320h-32h32h-32v-128v0h32v0v128v0z
M448 320h-32h32h-32v-128v0h32v0v128v0zM160 272q-15 1 -16 16q1 15 16 16q15 -1 16 -16q-1 -15 -16 -16v0zM112 288q1 -27 24 -42q24 -12 48 0q23 15 24 42q-1 27 -24 42q-24 12 -48 0q-23 -15 -24 -42v0zM304 288q-1 -15 -16 -16q-15 1 -16 16q1 15 16 16q15 -1 16 -16v0z
M288 336q-27 -1 -42 -24q-12 -24 0 -48q15 -23 42 -24q27 1 42 24q12 24 0 48q-15 23 -42 24v0zM272 0v-32v32v-32h-32v0v32v0h32v0zM304 -32v32v-32v32h32v0v-32v0h-32v0zM368 -32v32v-32v32v32v0h-32h-256v-32v0v-32v0h-37v0l29 96v0h304v0l29 -96v0h-37v0zM112 -32v32
v-32v32h32v0v-32v0h-32v0zM176 -32v32v-32v32h32v0v-32v0h-32v0zM80 -64h32h-32h368l-10 32v0l-38 128v0h-352v0l-38 -128v0l-10 -32v0h33h47z" />
    <glyph glyph-name="user-visor" unicode="&#xe04c;" horiz-adv-x="448" 
d="M224 224q32 1 56 18v0v0q24 18 35 46h-182v0q11 -28 35 -46q24 -17 56 -18v0zM224 192q-46 1 -79 27v0v0q-34 27 -45 69h-20v0v32v0v32v0v32v0h32h1q17 29 46 46q29 18 65 18t65 -18q29 -17 46 -46h1h32v-32v0v-32v0v-32v0h-20v0q-11 -42 -45 -69q-33 -26 -79 -27v0z
M152 384h144h-144h144q-28 31 -72 32q-44 -1 -72 -32v0zM43 -32h362h-362h362l-45 144v0h-272v0l-45 -144v0zM64 144h320h-320h320l54 -176v0l10 -32v0h-33h-415l10 32v0l54 176v0zM336 352h-224h224h-224v-32v0h224v0v32v0zM288 -8l-8 8l8 -8l-8 8l40 88v0l40 -88v0l-8 -8
v0l-24 24v0l-40 -24v0z" />
    <glyph glyph-name="vacuum" unicode="&#xe04d;" horiz-adv-x="640" 
d="M237 416h291h-291h291q34 -1 57 -23q22 -23 23 -57q0 -27 -15 -47t-38 -28q-55 57 -139 59h-32h-32v-32v0v-132v0q15 4 32 4v128v0h32v0q68 -2 113 -47t47 -113v-160v0h-81v0q-11 -18 -26 -32h107h32v32v0v160v0q-1 60 -32 107q29 13 46 40q18 27 18 61q-1 48 -33 79
q-31 32 -79 33h-304h-13l-3 -13v0l-44 -211v0h33v0l40 192v0zM190 192h-32h32h-32l-27 -128v0h-67v0l-64 -64v0v-32v0v-32v0h32h192v32v0v64v0v32v0h-32h-28l26 128v0zM77 32h67h-67h67v0v0h48v0v-64v0h-160v0v19v0l45 45v0zM384 96q36 -1 55 -32q18 -32 0 -64
q-19 -31 -55 -32q-36 1 -55 32q-18 32 0 64q19 31 55 32v0zM384 -64q26 0 48 13v0v0q22 13 35 35q13 23 13 48t-13 48q-13 22 -35 35t-48 13t-48 -13t-35 -35q-13 -23 -13 -48t13 -48q13 -22 35 -35t48 -13v0zM408 32q-2 22 -24 24q-22 -2 -24 -24q2 -22 24 -24q22 2 24 24
v0z" />
    <glyph glyph-name="vacuum-robot" unicode="&#xe04e;" 
d="M480 192q-1 61 -30 112v0v0q-30 51 -82 82q-53 30 -112 30t-112 -30q-52 -31 -82 -82q-29 -51 -30 -112q1 -61 30 -112q30 -51 82 -82q53 -30 112 -30t112 30q52 31 82 82q29 51 30 112v0zM0 192q1 70 34 128v0v0q34 58 94 94q61 34 128 34t128 -34q60 -36 94 -94
q33 -58 34 -128q-1 -70 -34 -128q-34 -58 -94 -94q-61 -34 -128 -34t-128 34q-60 36 -94 94q-33 58 -34 128v0zM357 293q-44 41 -101 41v0v0q-57 0 -101 -41l-22 22v0q53 51 123 51t123 -51q51 -53 51 -123t-51 -123l-22 22v0q41 44 41 101t-41 101v0zM224 247l11 -12
l-11 12l11 -12l64 -64v0l12 -11v0l-23 -23v0l-11 12v0l-64 64v0l-12 11v0l23 23v0zM144 231l11 -12l-11 12l11 -12l128 -128v0l12 -11v0l-23 -23v0l-11 12v0l-128 128v0l-12 11v0l23 23v0zM128 151l11 -12l-11 12l11 -12l64 -64v0l12 -11v0l-23 -23v0l-11 12v0l-64 64v0
l-12 11v0l23 23v0z" />
    <glyph glyph-name="window-frame" unicode="&#xe04f;" 
d="M240 160v-192v192v-192h-176v0v192v0h176v0zM272 -32v192v-192v192h176v0v-192v0h-176v0zM480 -32v448v-448v448v32v0h-32h-416v-32v0v-448v0h-16h-16v-32v0h16h496v32v0h-16h-16zM448 192h-176h176h-176v224v0h176v0v-224v0zM64 416h176h-176h176v-224v0h-176v0v224v0z
" />
    <glyph glyph-name="window-frame" unicode="&#x1fa9f;" 
d="M240 160v-192v192v-192h-176v0v192v0h176v0zM272 -32v192v-192v192h176v0v-192v0h-176v0zM480 -32v448v-448v448v32v0h-32h-416v-32v0v-448v0h-16h-16v-32v0h16h496v32v0h-16h-16zM448 192h-176h176h-176v224v0h176v0v-224v0zM64 416h176h-176h176v-224v0h-176v0v224v0z
" />
    <glyph glyph-name="window-frame" unicode="&#x1fa9f;" 
d="M240 160v-192v192v-192h-176v0v192v0h176v0zM272 -32v192v-192v192h176v0v-192v0h-176v0zM480 -32v448v-448v448v32v0h-32h-416v-32v0v-448v0h-16h-16v-32v0h16h496v32v0h-16h-16zM448 192h-176h176h-176v224v0h176v0v-224v0zM64 416h176h-176h176v-224v0h-176v0v224v0z
" />
    <glyph glyph-name="window-frame-open" unicode="&#xe050;" 
d="M272 416h176h-176h176v-224v0h-176v0v224v0zM480 160v32v-32v32v224v0v32v0h-32h-416v-32v0v-224v0v-32v0h32h416zM64 192v224v-224v224h176v0v-224v0h-176v0zM16 -32h-16h16h-16v-32v0h16h496v32v0h-16h-16v160v0h-32v0v-160v0h-384v0v160v0h-32v0v-160v0h-16v0z" />
    <glyph glyph-name="coffin-cross" unicode="&#xe051;" horiz-adv-x="384" 
d="M35 297l93 119l-93 -119l93 119h128v0l93 -119v0l-93 -329v0h-128v0l-93 329v0zM104 -64h176h-176h176l104 368v0l-112 144v0h-160v0l-112 -144v0l104 -368v0zM208 336v16v-16v16h-32v0v-16v0v-64v0h-64h-16v-32v0h16h64v-128v0v-16v0h32v0v16v0v128v0h64h16v32v0h-16
h-64v64v0z" />
    <glyph glyph-name="folder-arrow-down" unicode="&#xe053;" 
d="M32 416h192h-192h192l48 -64v0h208h32v-32v0v-320v0v-32v0h-32h-480v32v0v384v0v32v0h32v0zM272 320h-16h16h-16l-10 13v0l-38 51v0h-176v0v-384v0h448v0v320v0h-208v0zM272 240v-121v121v-121l53 52v0l11 12v0l23 -23v0l-12 -11v0l-80 -80v0l-11 -12v0l-11 12v0l-80 80
v0l-12 11v0l23 23v0l11 -12v0l53 -52v0v121v0v16v0h32v0v-16v0z" />
    <glyph glyph-name="folder-arrow-up" unicode="&#xe054;" 
d="M32 416h192h-192h192l48 -64v0h208h32v-32v0v-320v0v-32v0h-32h-480v32v0v384v0v32v0h32v0zM272 320h-16h16h-16l-10 13v0l-38 51v0h-176v0v-384v0h448v0v320v0h-208v0zM272 80v-16v16v-16h-32v0v16v0v121v0l-53 -52v0l-11 -12v0l-23 23v0l12 11v0l80 80v0l11 12v0
l11 -12v0l80 -80v0l12 -11v0l-23 -23v0l-11 12v0l-53 52v0v-121v0z" />
    <glyph glyph-name="user-unlock" unicode="&#xe058;" horiz-adv-x="640" 
d="M224 224q26 0 48 13v0v0q22 13 35 35q13 23 13 48t-13 48q-13 22 -35 35t-48 13t-48 -13t-35 -35q-13 -23 -13 -48t13 -48q13 -22 35 -35t48 -13v0zM224 448q35 0 64 -17v0v0q29 -17 47 -47q17 -30 17 -64t-17 -64q-18 -30 -47 -47t-64 -17t-64 17t-47 47q-17 30 -17 64
t17 64q18 30 47 47t64 17v0zM88 112l-45 -144l45 144l-45 -144h341v0v-32v0h-350h-34l10 32v0l54 176v0h320v0v-109v0l-24 77v0h-272v0zM480 176v-48v48v-48h32h128v-32v0v-128v0v-32v0h-32h-192v32v0v128v0v32v0h32v0v48v0q1 34 23 57q23 22 57 23q34 -1 57 -23
q22 -23 23 -57h-32v0q-1 20 -14 34q-14 13 -34 14q-20 -1 -34 -14q-13 -14 -14 -34v0zM448 -32h160h-160h160v128v0h-160v0v-128v0z" />
    <glyph glyph-name="bacteria" unicode="&#xe059;" horiz-adv-x="640" 
d="M286 448l-7 -21l7 21l-7 -21q-12 1 -24 -2q-15 -3 -29 -8l-4 10v0l-6 15v0l-29 -13v0l6 -14v0l3 -9v0q-26 -11 -48 -25l-9 15v0l-8 13v0l-27 -17v0l8 -13v0l10 -17v0q-22 -18 -38 -38l-5 4v0l-13 9v0l-19 -25v0l13 -10v0l5 -4v0q-3 -4 -6 -9q-12 -20 -19 -37l-11 5v0
l-15 8v0l-14 -29v0l14 -7v0l16 -8v0q-1 -1 -1 -3q-5 -17 -7 -35q-1 -7 0 -14l-21 -7v0l9 -30v0l20 6v0q12 -25 37 -38l-4 -11v0l-7 -14v0l30 -13v0l6 15v0l7 14v0q30 -2 53 14l10 -10v0l11 -12v0l23 22v0l-11 12v0l-10 11v0q12 17 14 38l2 10l8 -3v0l14 -7v0l14 29v0l-15 6
v0l-7 4v0q10 19 39 37l2 -10v0l4 -16v0l31 7v0l-4 15v0l-4 18v0q9 3 20 5q13 3 25 11l13 -9v0l14 -8v0l17 27v0l-14 9v0l-6 3v0q17 25 15 56l15 6v0l15 7v0l-13 29v0l-15 -6v0l-11 -5v0q-13 25 -38 37l7 20v0l-31 10v0zM222 299q21 2 24 24q-3 22 -24 24q-22 -2 -24 -24
q2 -22 24 -24v0zM157 169q-3 -21 -19 -34v0v0q-15 -13 -37 -12q-22 3 -35 19q-14 16 -12 38q1 14 6 30q6 26 26 62q22 38 64 71q42 34 112 51q21 4 39 -7t23 -32q5 -22 -6 -40q-11 -17 -33 -23q-46 -11 -72 -32t-37 -41q-13 -21 -19 -48v-1v-1v0zM351 -61l7 21l-7 -21l7 21
q12 -1 25 2l28 8l4 -10v0l7 -15v0l29 13v0l-6 14v0l-4 9v0q27 11 48 25l9 -14v0l9 -14v0l27 17v0l-8 13v0l-11 17v0q22 18 38 38l5 -4v0l13 -9v0l19 25v0l-12 10v0l-5 4v0q3 4 6 9q11 20 18 37l12 -5v0l14 -8v0l15 29v0l-15 7v0l-15 8v0q1 1 1 2q5 18 7 36v14l21 7v0l-10 30
v0l-19 -6v0q-13 25 -38 38l5 11v0l6 14v0l-29 13v0l-7 -15v0l-6 -14v0q-30 2 -54 -14l-9 10v0l-11 12v0l-24 -22v0l11 -12v0l11 -11v0q-12 -17 -14 -38q-1 -5 -3 -10l-7 3v0l-15 7v0l-13 -29v0l14 -6v0l8 -4v0q-11 -19 -39 -37l-2 10v0l-4 16v0l-31 -7v0l3 -15v0l4 -18v0
q-9 -3 -19 -5q-14 -3 -25 -11l-14 9v0l-13 8v0l-17 -27v0l14 -9v0l6 -3v0q-18 -25 -16 -56l-14 -6v0l-15 -7v0l13 -29v0l15 6v0l10 5v0q13 -25 38 -37l-6 -20v0l30 -10v0zM416 88q-22 -2 -24 -24q2 -22 24 -24q22 2 24 24q-2 22 -24 24v0zM480 218q3 21 19 34v0v0
q16 13 38 12q22 -3 35 -19t12 -38q-2 -14 -6 -30q-6 -26 -27 -62q-21 -38 -64 -71q-42 -34 -111 -51q-22 -4 -40 7q-17 11 -23 32q-4 22 7 40q11 17 32 23q47 11 73 32q25 21 37 41q13 21 18 48v2v0z" />
    <glyph glyph-name="bacterium" unicode="&#xe05a;" 
d="M409 408q40 -16 59 -54l30 13v0l13 -30v0l-33 -14v0q7 -45 -17 -81l14 -15v0l12 -11v0l-23 -23v0l-11 12v0l-13 13v0q-20 -17 -47 -23q-16 -4 -29 -9l3 -14v0l5 -15v0l-31 -9v0l-4 16v0l-3 9v0q-44 -27 -58 -54l18 -8v0l15 -7v0l-13 -29v0l-14 6v0l-21 9v0q-4 -11 -6 -22
q-4 -35 -25 -60l13 -13v0l12 -11v0l-23 -23v0l-11 12v0l-15 14v0q-31 -21 -72 -19q-2 1 -5 1q-2 0 -4 1l-14 -32v0l-30 13v0l13 29v0q-34 17 -51 51l-32 -7v0l-6 32v0l28 6v0q-2 14 -1 28q3 28 12 56l-18 7v0l-15 6v0l12 30v0l15 -6v0l16 -7v0q12 29 28 56l10 16l-14 11v0
l-12 10v0l20 25v0l12 -10v0l13 -10v0q26 32 63 61l-11 16v0l-9 13v0l26 18v0l9 -13v0l11 -16v0q32 22 73 38l-8 19v0l-6 14v0l29 13v0l7 -15v0l8 -20v0q19 6 40 11q18 4 35 2l6 28v0l32 -7v0l-7 -28v0zM224 73q6 34 23 60q14 26 47 52q32 26 92 41q33 8 50 36q17 27 10 60
q-8 33 -36 50q-27 17 -60 10q-95 -23 -153 -69t-88 -98q-36 -60 -45 -128q-2 -34 19 -58q20 -25 54 -29q33 -2 58 18q24 20 29 53v1v1v0zM216 240q2 22 24 24q22 -2 24 -24q-2 -22 -24 -24q-22 2 -24 24v0zM144 128q1 -15 16 -16q15 1 16 16q-1 15 -16 16q-15 -1 -16 -16v0z
M160 80q-27 1 -42 24q-12 24 0 48q15 23 42 24q27 -1 42 -24q12 -24 0 -48q-15 -23 -42 -24v0z" />
    <glyph glyph-name="box-tissue" unicode="&#xe05b;" 
d="M97 448h111h-111h111q29 -1 43 -15q13 -14 21 -33t22 -33q13 -14 42 -15h78h34l-11 -32v0l-32 -96v0l-10 -32v0l-16 -48v0h37v0v-32v0h-320v0v32v0h36v0l-11 48v0l-7 32v0l-43 192v0l-7 32v0h33v0zM345 144l59 176l-59 -176l59 176h-68v0q-41 0 -64 24q-20 21 -28 40v0
l-1 2v0q-8 18 -14 24q-4 5 -21 6h-104v0l60 -272v0h181v0zM480 192h-52h52h-52l11 32v0h41h32v-32v0v-224v0v-32v0h-32h-480v32v0v224v0v32v0h32h49l7 -32v0h-56v0v-128v0h448v0v128v0zM480 32h-448h448h-448v-64v0h448v0v64v0z" />
    <glyph glyph-name="hand-holding-medical" unicode="&#xe05c;" horiz-adv-x="576" 
d="M251 448h74h-74h90v-16v0v-59v0h59h16v-16v0v-74v0v-16v0h-16h-59v-59v0v-16v0h-16h-90v16v0v59v0h-59h-16v16v0v74v0v16v0h16h59v59v0v16v0h16v0zM267 357v-16v16v-16h-16h-59v-42v0h59h16v-16v0v-59v0h42v0v59v0v16v0h16h59v42v0h-59h-16v16v0v59v0h-42v0v-59v0z
M171 144h5h-5h229v-16v0v-64v0v0v0l104 62v0l13 8v0l9 -14v0l40 -64v0l8 -13v0l-13 -9v0l-152 -96v0l-4 -2v0h-5h-400v32v0h16h379l135 85v0l-23 37v0l-94 -56v0l-4 -2v0h-4h-165v32v0h16h112v48v0h-187v0l-92 -61v0l-4 -3v0h-5h-80v32v0h16h59l92 61v0l4 3v0z" />
    <glyph glyph-name="hand-sparkles" unicode="&#xe05d;" horiz-adv-x="640" 
d="M272 448h16h-16h112v-16v0v-16v0h64h16v-16v0v-48v0v0v0h64h16v-16v0v-208v0h-32v0v192v0h-48v0v-112v0v-16v0h-32v0v16v0v112v0v0v0v16v0v48v0h-48v0v-16v0v-160v0v-16v0h-32v0v16v0v160v0v16v0v0v0v16v0v16v0h-48v0v-16v0v-192v0v-16v0h-32v0v16v0v176v0h-48v0v-240v0
v-7v0l-5 -4v0l-11 -12v0l-12 -11v0l-11 11v0l-48 48v0l-17 17v0l-24 -24v0v-20v0l7 -7v0l104 -104v0q31 -30 70 -47q39 -16 83 -16h8v0v0v0q45 1 80 24v-24v0h21v0q-44 -31 -101 -32v0v0h-9v0q-49 0 -95 19q-45 19 -80 54l-104 103v0l-11 12v0l-5 5v0v6v0v33v0v7v0l5 5v0
l40 40v0l11 11v0l11 -11v0l29 -28v0l32 -33v0v241v0v16v0h16h64v16v0v16v0zM96 368v-48v48v-48h48h16v-32v0h-16h-48v-32v0v-16v0h-32v0v16v0v32v0h-48h-16v32v0h16h48v48v0v16v0h32v0v-16v0zM336 144v-32v32v-32h32h16v-32v0h-16h-32v-32v0v-16v0h-32v0v16v0v32v0h-32h-16
v32v0h16h32v32v0v16v0h32v0v-16v0zM576 80v-48v48v-48h48h16v-32v0h-16h-48v-48v0v-16v0h-32v0v16v0v48v0h-48h-16v32v0h16h48v48v0v16v0h32v0v-16v0z" />
    <glyph glyph-name="hands-bubbles" unicode="&#xe05e;" horiz-adv-x="576" 
d="M384 424q2 22 24 24q22 -2 24 -24q-2 -22 -24 -24q-22 2 -24 24v0zM0 208l1 123l-1 -123l1 123h96v0v-19v0l60 133v0l58 -27v0l13 29v0l88 -39v0l-13 -29v0l58 -27v0l-3 -6v0l-9 -4v0l-35 -15v0l5 9v0l-29 14v0l-20 -43v0l-20 -9v0q-13 -5 -25 -13l49 107v0l-30 13v0
l-66 -146v0l-29 14v0l53 116v0l-29 13v0l-82 -179v0l-27 2v0l1 74v0h-32v0l-1 -91v0q0 -39 18 -71t50 -52q-15 -8 -27 -20q-34 25 -54 62q-19 37 -19 81v0zM334 -63q-56 0 -99 31q5 15 5 32v4q39 -34 94 -35h130h16v32v0h-16h-80v32v0h16h112v32v0h-16h-112v32v0h16h144v32
v0h-16h-144v32v0h16h112v32v0h-16h-181l-9 26v0l10 4v0l43 19v0l14 6v0l-13 30v0l-14 -7v0l-70 -31v0q-39 -17 -61 -52q-23 -34 -23 -77q0 -15 3 -30q-16 10 -34 14q-1 7 -1 16q1 52 28 95q28 42 75 64l70 31v0l29 13v0l14 6v0l7 -15v0l26 -58v0l6 -15v0l-14 -6v0l-3 -1v0
h98h48v-16v0v-48v0h16h16v-16v0v-64v0v-16v0h-16h-16v-48v0v-16v0h-16h-16v-48v0v-16v0h-16h-162zM176 0q0 14 -9 23v0v0q-9 9 -23 9t-23 -9t-9 -23t9 -23t23 -9t23 9t9 23v0zM80 0q1 36 32 55q32 18 64 0q31 -19 32 -55q-1 -36 -32 -55q-32 -18 -64 0q-31 19 -32 55v0z
M512 304q-1 15 -16 16q-15 -1 -16 -16q1 -15 16 -16q15 1 16 16v0zM448 304q1 27 24 42q24 12 48 0q23 -15 24 -42q-1 -27 -24 -42q-24 -12 -48 0q-23 15 -24 42v0z" />
    <glyph glyph-name="handshake-simple-slash" unicode="&#xe05f;" horiz-adv-x="640" 
d="M40 430l-12 10l12 -10l-12 10l-20 -25v0l13 -10v0l579 -451v0l12 -10v0l20 25v0l-12 10v0l-580 451v0zM592 97h16h-16h16v32v0h-16h-89l40 -32v0h49v0zM397 49l-25 20l25 -20l-25 20l-47 -46v0l-26 26v0l-11 12v0l-12 -12v0l-29 -29v0l-32 33v0l-12 11v0l-7 7v0l-52 52v0
l-4 5v0h-7h-101v-32v0h16h78l48 -47v0l7 -7v0l11 -12v0l44 -44v0l11 -11v0l12 11v0l29 29v0l26 -26v0l11 -12v0l12 12v0l60 60v0zM325 380l-64 -60l64 60l-64 -60l26 -20v0l55 52v0h74v0l71 -60v0l5 -4v0h6h110v32v0h-16h-89l-71 60v0l-5 4v0h-6h-91l-5 -4v0zM359 270
l-16 -15l16 15l-16 -15l23 -18v0l26 21v0l-22 22v0l-11 -10v0zM196 371l26 -20l-26 20l26 -20l1 1v0h18v0l32 32v0h-56h-6l-4 -4v0l-11 -9v0zM95 288l-40 32l40 -32l-40 32h-7h-16v-32v0h16h47z" />
    <glyph glyph-name="handshake-slash" unicode="&#xe060;" horiz-adv-x="640" 
d="M40 430l-12 10l12 -10l-12 10l-20 -25v0l13 -10v0l579 -451v0l12 -10v0l20 25v0l-12 10v0l-580 451v0zM626 32h14h-14h14v32v0v224v0v32v0h-32h-80v-32v0v-179v0l32 -25v0v204v0h48v0v-96v0v-128v0v-18v0l18 -14v0zM372 69l-47 -46l47 46l-47 -46l-26 26v0l-11 12v0
l-12 -12v0l-29 -29v0l-32 33v0l-12 11v0l-7 7v0l-52 52v0l-4 5v0h-7h-21v147v0l-57 45v0h-23h-32v-32v0v-224v0v-32v0h32h80v32v0v32v0h14v0l48 -47v0l7 -7v0l11 -12v0l44 -44v0l11 -11v0l12 11v0l29 29v0l26 -26v0l11 -12v0l12 12v0l60 60v0l-25 20v0zM261 320l26 -20
l-26 20l26 -20l55 52v0h74v0l71 -60v0l5 -4v0h4v0v38v0l-64 54v0l-5 4v0h-6h-91l-5 -4v0l-64 -60v0zM222 351l1 1l-1 -1l1 1h18v0l32 32v0h-56h-6l-4 -4v0l-11 -9v0l26 -20v0zM343 255l23 -18l-23 18l23 -18l26 21v0l-22 22v0l-11 -10v0l-16 -15v0zM32 288h48h-48h48v-224v0
h-48v0v224v0z" />
    <glyph glyph-name="head-side-cough" unicode="&#xe061;" horiz-adv-x="640" 
d="M32 224q2 82 56 136v0v0q54 54 136 56h24v0q68 -2 113 -47t47 -113v-7v0l5 -5v0l67 -59v0v-41v0h-48h-16v-16v0v-8v0v-8v0v-10v0l-98 -14v0l-14 -2v0v-14v0v-40v0v-15v0l15 -1v0l81 -7v0v-17v0h-96h-16v-16v0v-24v0v-16v0h32v0v16v0v8v0h96h16v16v0v48v0v15v0l-15 1v0
l-81 7v0v11v0l98 14v0l14 2v0v14v0v24v0v0v0h48h16v16v0v64v0v7v0l-5 5v0l-67 59v0q-5 79 -59 131q-53 52 -133 54h-24v0q-63 -1 -113 -31q-51 -29 -80 -80q-30 -50 -31 -113q0 -46 17 -86t47 -71v-115v0v-16v0h32v0v16v0v122v0v7v0l-5 4v0q-57 55 -59 139v0zM344 224
q22 2 24 24q-2 22 -24 24q-22 -2 -24 -24q2 -22 24 -24v0zM512 56q-2 22 -24 24q-22 -2 -24 -24q2 -22 24 -24q22 2 24 24v0zM616 32q22 2 24 24q-2 22 -24 24q-22 -2 -24 -24q2 -22 24 -24v0zM640 -40q-2 22 -24 24q-22 -2 -24 -24q2 -22 24 -24q22 2 24 24v0zM552 80
q22 2 24 24q-2 22 -24 24q-22 -2 -24 -24q2 -22 24 -24v0zM640 152q-2 22 -24 24q-22 -2 -24 -24q2 -22 24 -24q22 2 24 24v0zM552 -16q22 2 24 24q-2 22 -24 24q-22 -2 -24 -24q2 -22 24 -24v0z" />
    <glyph glyph-name="head-side-cough-slash" unicode="&#xe062;" horiz-adv-x="640" 
d="M224 416h24h-24h24q68 -2 113 -47t47 -113v-7v0l5 -5v0l67 -59v0v-38v0l32 -25v0v6v0v64v0v7v0l-5 5v0l-67 59v0q-5 79 -59 131q-53 52 -133 54h-24v0q-53 0 -97 -22l28 -23v0q33 13 69 13v0zM31 338q-30 -51 -31 -114q0 -46 17 -86t47 -71v-115v0v-16v0h32v0v16v0v122v0
v7v0l-5 4v0q-57 55 -59 139q1 52 25 94l-26 20v0zM529 109l33 -27l-33 27l33 -27q13 7 14 22q-2 22 -24 24q-19 -1 -23 -19v0zM592 59l32 -26l-32 26l32 -26q15 6 16 23q-2 22 -24 24q-20 -2 -24 -21v0zM432 22l-24 19l24 -19l-24 19l-72 6v0v11v0l43 6v0l-35 28v0l-26 -4v0
l-14 -2v0v-14v0v-40v0v-15v0l15 -1v0l81 -7v0v-17v0h-96h-16v-16v0v-24v0v-16v0h32v0v16v0v8v0h96h16v16v0v46v0zM640 152q-2 22 -24 24q-22 -2 -24 -24q2 -22 24 -24q22 2 24 24v0zM33 438l-13 10l13 -10l-13 10l-20 -25v0l13 -10v0l595 -467v0l12 -10v0l20 25v0l-12 10v0
l-595 467v0z" />
    <glyph glyph-name="head-side-mask" unicode="&#xe063;" horiz-adv-x="576" 
d="M79 298l198 -122l-198 122l198 -122h11h224v9v0l-67 59v0l-5 5v0v7v0q-2 68 -47 113t-113 47h-24v0q-61 -1 -108 -33t-69 -85v0zM69 266q-5 -20 -5 -42q2 -84 59 -139l5 -4v0v-7v0v-122v0v-16v0h-32v0v16v0v115v0q-30 31 -47 71t-17 86q1 63 31 113q29 51 80 80
q50 30 113 31h24v0q80 -2 133 -54q54 -52 59 -131l67 -59v0l5 -5v0v-7v0v-16v0v-16v0l-5 -16v0l-59 -208v0h-192h-32v32v0v176v0v7v0l-187 115v0zM376 272q22 -2 24 -24q-2 -22 -24 -24q-22 2 -24 24q2 22 24 24v0zM506 144h-218h218h-218v-176v0h168v0l11 40v0h-99h-16v32
v0h16h108l10 32v0h-118h-16v32v0h16h127l11 40v0z" />
    <glyph glyph-name="head-side-virus" unicode="&#xe064;" 
d="M32 224q2 82 56 136v0v0q54 54 136 56h24v0q68 -2 113 -47t47 -113v-7v0l5 -5v0l67 -59v0v-41v0h-48h-16v-16v0v-96v0h-112h-16v-16v0v-64v0v-16v0h32v0v16v0v48v0h112h16v16v0v96v0h48h16v16v0v64v0v7v0l-5 5v0l-67 59v0q-5 79 -59 131q-53 52 -133 54h-24v0
q-63 -1 -113 -31q-51 -29 -80 -80q-30 -50 -31 -113q0 -46 17 -86t47 -71v-115v0v-16v0h32v0v16v0v122v0v7v0l-5 4v0q-57 55 -59 139v0zM224 323q47 -1 72 -41q23 -42 0 -84q-25 -40 -72 -42q-47 2 -72 42q-23 42 0 84q25 40 72 41v0zM96 224q25 -2 34 -23v0v0q9 -21 -8 -40
l-11 -12v0l11 -11v0v0v0l12 -11v0l11 11v0v0v0q19 17 40 8t23 -34v-16v0h16h16v16v0q2 25 23 34t40 -8l12 -11v0l11 11v0l11 11v0l-11 12v0q-17 19 -8 40t34 23h16v0v16v0v16v0h-16v0q-25 2 -34 23t8 40l11 11v0l-11 12v0l-11 11v0l-12 -11v0v0v0q-19 -17 -40 -8t-23 34v16
v0h-16h-16v-16v0q-2 -25 -23 -34t-40 8l-11 11v0l-12 -11v0v0v0l-11 -12v0l11 -11v0v0v0q17 -19 8 -40t-34 -23h-16v0v-16v0v-16v0h16v0zM208 232q22 2 24 24q-2 22 -24 24q-22 -2 -24 -24q2 -22 24 -24v0zM272 208q-1 15 -16 16q-15 -1 -16 -16q1 -15 16 -16q15 1 16 16v0z
" />
    <glyph glyph-name="house-chimney-user" unicode="&#xe065;" horiz-adv-x="576" 
d="M299 436l-11 9l11 -9l-11 9l-11 -9v0l-272 -240v0l22 -24v0l37 33v0v-253v0v-16v0h16h432v16v0v253v0l37 -33v0l22 24v0l-59 52v0v0v0v152v0v16v0h-16h-112v-16v0v-39v0l-85 75v0zM480 384v-108v108v-108l-64 56v0v52v0h64v0zM96 -32v265v-265v265l192 170v0l192 -170v0
v-265v0h-384v0zM256 224q0 14 9 23v0v0q9 9 23 9t23 -9t9 -23t-9 -23t-23 -9t-23 9t-9 23v0zM352 224q-1 36 -32 55q-32 18 -64 0q-31 -19 -32 -55q1 -36 32 -55q32 -18 64 0q31 19 32 55v0zM231 96h114h-114h114l21 -64v0h34v0l-32 96v0h-160v0l-32 -96v0h34v0l21 64v0z
" />
    <glyph glyph-name="house-laptop" unicode="&#xe066;" horiz-adv-x="640" 
d="M240 445l10 -9l-10 9l10 -9l216 -176v0l13 -10v0l-21 -25v0l-12 11v0l-30 24v0v-36v0h-32v0v62v0l-144 117v0l-144 -117v0v-222v0h176v0v-32v0h-192h-16v16v0v212v0l-30 -24v0l-12 -11v0l-20 25v0l12 10v0l216 176v0l10 9v0zM192 272h96h-96h112v-16v0v-32v0h-32v0v16v0
h-64v0v-64v0h48h16v-32v0h-16h-80v16v0v96v0v16v0h16v0zM304 192h16h-16h288v-16v0v-160v0v-16v0h-32v0v16v0v144v0h-224v0v-144v0v-16v0h-32v0v16v0v160v0v16v0zM256 -32h384h-384h384v-32v0h-384v0v32v0z" />
    <glyph glyph-name="lungs-virus" unicode="&#xe067;" horiz-adv-x="640" 
d="M336 432v-128v128v-128h-32v0v128v0v16v0h32v0v-16v0zM256 320v-60v60v-60l-32 32v0v28v0h-56v0q-34 -46 -62 -96q-29 -49 -51 -99q-22 -51 -23 -100q1 -24 17 -40t40 -17q34 1 76 13q14 5 31 10q4 1 9 3v0l26 -26v0q-8 -2 -17 -5q-4 -1 -7 -2v0v0q-30 -10 -59 -17
q-30 -8 -59 -8q-38 1 -63 26t-26 63q2 56 26 112q24 55 52 103q34 58 74 112h72h32v-32v0zM444 -9q17 -5 32 -10q41 -12 75 -13q24 1 40 17t17 40q-1 49 -23 100q-22 50 -51 99q-28 50 -62 96h-56v0v-28v0l-32 -32v0v60v0v32v0h32h72q40 -54 74 -112q28 -48 52 -103
q24 -56 26 -112q-1 -38 -26 -63t-63 -26q-29 0 -59 8q-29 7 -59 17l-8 2q-8 3 -16 5l26 26v0q2 -1 5 -2q2 0 5 -1h-1zM320 44q47 2 72 42q23 42 0 84q-25 40 -72 42q-47 -2 -72 -42q-23 -42 0 -84q25 -40 72 -42v0zM192 112h-16h16h-16v16v0v16v0h16v0q25 2 34 23t-8 40v0
l-11 11v0l11 12v0v0l12 11v0l11 -11v0q19 -17 40 -8t23 34v16v0h16h16v-16v0q2 -25 23 -34t40 8v0v0l12 11v0l11 -11v0l11 -12v0l-11 -11v0q-17 -19 -8 -40t34 -23h16v0v-16v0v-16v0h-16v0q-25 -2 -34 -23t8 -40l11 -12v0l-11 -11v0l-11 -11v0l-12 11v0q-19 17 -40 8
t-23 -34v-16v0h-16h-16v16v0q-2 25 -23 34t-40 -8v0v0l-11 -11v0l-12 11v0v0v0l-11 11v0l11 12v0q17 19 8 40t-34 23v0zM304 168q22 -2 24 -24q-2 -22 -24 -24q-22 2 -24 24q2 22 24 24v0zM336 96q1 15 16 16q15 -1 16 -16q-1 -15 -16 -16q-15 1 -16 16v0z" />
    <glyph glyph-name="people-arrows" unicode="&#xe068;" horiz-adv-x="640" 
d="M128 352q14 0 23 9v0v0q9 9 9 23t-9 23t-23 9t-23 -9t-9 -23t9 -23t23 -9v0zM128 448q36 -1 55 -32q18 -32 0 -64q-19 -31 -55 -32q-36 1 -55 32q-18 32 0 64q19 31 55 32v0zM63 256l-6 -128l6 128l-6 -128h7h60l18 -18v0l14 -14v0h-60v0v-144v0v-16v0h-32v0v16v0v144v0
h-8h-32l1 32v0l7 160v0h192v0l1 -27v0l-19 -19v0l-12 -12v0l-1 26v0h-130v0zM160 -48v140v-140v140l32 -32v0v-108v0v-16v0h-32v0v16v0zM448 -48v108v-108v108l32 32v0v-140v0v-16v0h-32v0v16v0zM544 96h-60h60h-60l14 14v0l18 18v0h28h39l-6 128v0h-130v0l-1 -26v0l-12 12
v0l-19 19v0l1 27v0h192v0l7 -160v0l1 -32v0h-32h-8v-144v0v-16v0h-32v0v16v0v144v0zM512 352q14 0 23 9v0v0q9 9 9 23t-9 23t-23 9t-23 -9t-9 -23t9 -23t23 -9v0zM512 448q36 -1 55 -32q18 -32 0 -64q-19 -31 -55 -32q-36 1 -55 32q-18 32 0 64q19 31 55 32v0zM251 197
l-36 -37l36 37l-36 -37h210v0l-36 37v0l-12 11v0l23 23v0l11 -12v0l64 -64v0l12 -11v0l-12 -11v0l-64 -64v0l-11 -12v0l-23 23v0l12 11v0l36 37v0h-210v0l36 -37v0l12 -11v0l-23 -23v0l-11 12v0l-64 64v0l-12 11v0l12 11v0l64 64v0l11 12v0l23 -23v0l-12 -11v0z" />
    <glyph glyph-name="plane-slash" unicode="&#xe069;" horiz-adv-x="640" 
d="M348 89l-69 -121l69 121l-69 -121h-66v0l45 156v0l6 20v0h-22h-82l-5 -6v0l-43 -58v0h-35v0l27 108v0l1 4v0l-1 4v0l-27 106v0l-41 33v0l5 -19v0l31 -124v0l-31 -124v0l-5 -20v0h20h72l5 6v0l43 58v0h45v0l-44 -156v0l-6 -20v0h21h105l5 8v0l71 125v0l-25 20v0zM177 428
l15 -53l-15 53l15 -53l43 -34v0l-22 75v0h66v0l96 -168v0l4 -8v0h10h109q23 0 52 -17q13 -8 20 -16q6 -9 6 -15q0 -15 -26 -32q-29 -16 -52 -16h-14v0l37 -29v0q24 5 45 18q16 9 29 24q12 15 13 35q-1 20 -13 35q-12 14 -29 24q-34 20 -68 21h-100v0l-96 168v0l-5 8v0h-9
h-117l6 -20v0zM33 438l-13 10l13 -10l-13 10l-20 -25v0l13 -10v0l595 -467v0l12 -10v0l20 25v0l-12 10v0l-595 467v0z" />
    <glyph glyph-name="pump-medical" unicode="&#xe06a;" horiz-adv-x="448" 
d="M144 448h96h-96h112v-16v0v-32v0h96h7l4 -5v0l48 -48v0l12 -11v0l-23 -23v0l-11 12v0l-44 43v0h-89v0v-48v0h-32v0v96v0h-64v0v-96v0h-32v0v112v0v16v0h16v0zM64 -64h-32h32h-32l2 32v0l22 320v0h272v0l22 -320v0l2 -32v0h-32h-256zM318 -32l-20 288l20 -288l-20 288
h-212v0l-20 -288v0h252v0zM208 160v-32v32v-32h32h16v-32v0h-16h-32v-32v0v-16v0h-32v0v16v0v32v0h-32h-16v32v0h16h32v32v0v16v0h32v0v-16v0z" />
    <glyph glyph-name="pump-soap" unicode="&#xe06b;" horiz-adv-x="448" 
d="M144 448h96h-96h112v-16v0v-32v0h96h7l4 -5v0l48 -48v0l12 -11v0l-23 -23v0l-11 12v0l-44 43v0h-89v0v-48v0h-32v0v96v0h-64v0v-96v0h-32v0v112v0v16v0h16v0zM64 -64h-32h32h-32l2 32v0l22 320v0h272v0l22 -320v0l2 -32v0h-32h-256zM66 -32h252h-252h252l-20 288v0h-212
v0l-20 -288v0zM192 211l13 -18l-13 18l13 -18l45 -62v0q14 -19 14 -43q-1 -30 -21 -51q-20 -20 -51 -21q-31 1 -51 21q-20 21 -21 51q0 24 14 43l45 62v0l13 18v0zM192 157l-32 -45l32 45l-32 -45q-8 -11 -8 -24q0 -17 12 -28q11 -12 28 -12t28 12q12 11 12 28q0 13 -8 24
l-32 45v0z" />
    <glyph glyph-name="shield-virus" unicode="&#xe06c;" 
d="M49 333l207 81l-207 -81l207 81l208 -81v0q2 -35 -6 -84q-7 -49 -29 -102t-64 -100q-42 -46 -109 -76q-67 30 -109 76q-42 47 -64 100t-29 102q-8 49 -5 84v0zM496 335l-2 20l2 -20l-2 20l-19 8v0l-207 80v0l-12 5v0l-12 -5v0l-207 -80v0l-19 -8v0l-1 -20v0q-3 -38 5 -91
t32 -110t70 -108q46 -52 119 -85l13 -5v0l13 5v0q73 33 119 85q46 51 70 108t32 110t5 91h1zM256 291q47 -1 72 -41q23 -42 0 -84q-25 -40 -72 -42q-47 2 -72 42q-23 42 0 84q25 40 72 41v0zM128 192q25 -2 34 -23v0v0q9 -21 -8 -40l-11 -12v0l11 -11v0v0v0l12 -11v0l11 11
v0v0v0q19 17 40 8t23 -34v-16v0h16h16v16v0q2 25 23 34t40 -8l12 -11v0l11 11v0l11 11v0l-11 12v0q-17 19 -8 40t34 23h16v0v16v0v16v0h-16v0q-25 2 -34 23t8 40l11 11v0l-11 12v0l-11 11v0l-12 -11v0v0v0q-19 -17 -40 -8t-23 34v16v0h-16h-16v-16v0q-2 -25 -23 -34t-40 8
l-11 11v0l-12 -11v0v0l-11 -12v0l11 -11v0v0q17 -19 8 -40t-34 -23h-16v0v-16v0v-16v0h16v0zM240 200q22 2 24 24q-2 22 -24 24q-22 -2 -24 -24q2 -22 24 -24v0zM304 176q-1 15 -16 16q-15 -1 -16 -16q1 -15 16 -16q15 1 16 16v0z" />
    <glyph glyph-name="sink" unicode="&#xe06d;" 
d="M272 368q1 20 14 34v0v0q14 13 34 14q20 -1 34 -14q13 -14 14 -34v-32v0v-16v0h32v0v16v0v32v0q-1 34 -23 57q-23 22 -57 23q-34 -1 -57 -23q-22 -23 -23 -57v-208v0h-80v0v48v0v16v0h-16h-112v-32v0h16h80v-32v0h-112h-16v-32v0h16h496v32v0h-16h-112v32v0h80h16v32v0
h-16h-112v-16v0v-48v0h-80v0v208v0zM32 96v-48v48v-48q1 -48 33 -79q31 -32 79 -33h224v0q48 1 79 33q32 31 33 79v48v0h-32v0v-48v0q-1 -34 -23 -57q-23 -22 -57 -23h-224v0q-34 1 -57 23q-22 23 -23 57v48v0h-32v0z" />
    <glyph glyph-name="soap" unicode="&#xe06e;" 
d="M224 384q0 14 -9 23v0v0q-9 9 -23 9t-23 -9t-9 -23t9 -23t23 -9t23 9t9 23v0zM128 384q1 36 32 55q32 18 64 0q31 -19 32 -55q-1 -36 -32 -55q-32 -18 -64 0q-31 19 -32 55v0zM32 256h193h-193h193q3 -17 12 -32h-205v0v-256v0h448v0v256v0h-77v0q9 15 12 32h65h32v-32v0
v-256v0v-32v0h-32h-480v32v0v256v0v32v0h32v0zM112 176h208h-208h320v-32v0v-96v0v-32v0h-32h-320v32v0v96v0v32v0h32v0zM112 48h288h-288h288v96v0h-288v0v-96v0zM400 384q15 1 16 16q-1 15 -16 16q-15 -1 -16 -16q1 -15 16 -16v0zM400 448q27 -1 42 -24q12 -24 0 -48
q-15 -23 -42 -24q-27 1 -42 24q-12 24 0 48q15 23 42 24v0zM352 272q0 14 -9 23v0v0q-9 9 -23 9t-23 -9t-9 -23t9 -23t23 -9t23 9t9 23v0zM256 272q1 36 32 55q32 18 64 0q31 -19 32 -55q-1 -36 -32 -55q-32 -18 -64 0q-31 19 -32 55v0z" />
    <glyph glyph-name="soap" unicode="&#x1f9fc;" 
d="M224 384q0 14 -9 23v0v0q-9 9 -23 9t-23 -9t-9 -23t9 -23t23 -9t23 9t9 23v0zM128 384q1 36 32 55q32 18 64 0q31 -19 32 -55q-1 -36 -32 -55q-32 -18 -64 0q-31 19 -32 55v0zM32 256h193h-193h193q3 -17 12 -32h-205v0v-256v0h448v0v256v0h-77v0q9 15 12 32h65h32v-32v0
v-256v0v-32v0h-32h-480v32v0v256v0v32v0h32v0zM112 176h208h-208h320v-32v0v-96v0v-32v0h-32h-320v32v0v96v0v32v0h32v0zM112 48h288h-288h288v96v0h-288v0v-96v0zM400 384q15 1 16 16q-1 15 -16 16q-15 -1 -16 -16q1 -15 16 -16v0zM400 448q27 -1 42 -24q12 -24 0 -48
q-15 -23 -42 -24q-27 1 -42 24q-12 24 0 48q15 23 42 24v0zM352 272q0 14 -9 23v0v0q-9 9 -23 9t-23 -9t-9 -23t9 -23t23 -9t23 9t9 23v0zM256 272q1 36 32 55q32 18 64 0q31 -19 32 -55q-1 -36 -32 -55q-32 -18 -64 0q-31 19 -32 55v0z" />
    <glyph glyph-name="soap" unicode="&#x1f9fc;" 
d="M224 384q0 14 -9 23v0v0q-9 9 -23 9t-23 -9t-9 -23t9 -23t23 -9t23 9t9 23v0zM128 384q1 36 32 55q32 18 64 0q31 -19 32 -55q-1 -36 -32 -55q-32 -18 -64 0q-31 19 -32 55v0zM32 256h193h-193h193q3 -17 12 -32h-205v0v-256v0h448v0v256v0h-77v0q9 15 12 32h65h32v-32v0
v-256v0v-32v0h-32h-480v32v0v256v0v32v0h32v0zM112 176h208h-208h320v-32v0v-96v0v-32v0h-32h-320v32v0v96v0v32v0h32v0zM112 48h288h-288h288v96v0h-288v0v-96v0zM400 384q15 1 16 16q-1 15 -16 16q-15 -1 -16 -16q1 -15 16 -16v0zM400 448q27 -1 42 -24q12 -24 0 -48
q-15 -23 -42 -24q-27 1 -42 24q-12 24 0 48q15 23 42 24v0zM352 272q0 14 -9 23v0v0q-9 9 -23 9t-23 -9t-9 -23t9 -23t23 -9t23 9t9 23v0zM256 272q1 36 32 55q32 18 64 0q31 -19 32 -55q-1 -36 -32 -55q-32 -18 -64 0q-31 19 -32 55v0z" />
    <glyph glyph-name="stopwatch-20" unicode="&#xe06f;" horiz-adv-x="448" 
d="M320 448h-192h192h-192v-32v0h80v0v-65v0q-82 -8 -136 -65q-54 -58 -56 -142q2 -88 61 -147t147 -61q88 2 147 61t61 147q-1 73 -43 126l38 39v0l12 11v0l-23 23v0l-11 -12v0l-37 -37v0q-52 50 -128 57v65v0h80v0v32v0zM224 -32q-48 0 -88 24v0v0q-40 23 -64 64
q-24 42 -24 88t24 88q24 41 64 64q40 24 88 24t88 -24q40 -23 64 -64q24 -42 24 -88t-24 -88q-24 -41 -64 -64q-40 -24 -88 -24v0zM240 208v-128v128v-128q1 -20 14 -34q14 -13 34 -14q20 1 34 14q13 14 14 34v128v0q-1 20 -14 34q-14 13 -34 14q-20 -1 -34 -14
q-13 -14 -14 -34v0zM288 224q15 -1 16 -16v-128v0q-1 -15 -16 -16q-15 1 -16 16v128v0q1 15 16 16v0zM152 213q4 10 16 11q15 -1 16 -17v-14v0q0 -11 -7 -20l-32 -41v0q-25 -30 -25 -70v-14v0v-16v0h16h80v32v0h-16h-48q1 27 18 48l32 41v0q14 17 14 40v14v0q-1 21 -14 35
q-14 13 -34 14q-34 -2 -47 -33v-2v0l-5 -15v0l30 -10v0l5 15v0l1 2v0z" />
    <glyph glyph-name="shop-slash" unicode="&#xe070;" horiz-adv-x="640" 
d="M608 224h32h-32h32v32v0v16v0l-96 176v0h-445v0l41 -32v0h385v0l83 -152v0v-8v0h-48h-218l41 -32v0h161v0v-127v0l32 -26v0v153v0h32v0zM0 272v-16v16v-16v-32v0h32h32v-272v0v-16v0h16h304v16v0v108v0l-46 36v0h-242v0v128v0h80v0l-40 32v0h-40h-64v8v0l28 51v0l-25 21
v0l-35 -64v0zM96 -32v96v-96v96h256v0v-96v0h-256v0zM33 438l-13 10l13 -10l-13 10l-20 -25v0l13 -10v0l595 -467v0l12 -10v0l20 25v0l-12 10v0l-595 467v0z" />
    <glyph glyph-name="store-slash" unicode="&#xe071;" horiz-adv-x="640" 
d="M541 -64l-40 32l40 -32l-40 32h-373v0v96v0h251v0l-41 32v0h-210v0v96v0h-32v0v-96v0v-32v0v-96v0v-32v0h32h413zM385 224q30 1 52 17q7 6 13 12q6 -7 13 -12q22 -16 53 -17q6 0 12 1q42 8 58 45q15 37 -6 74l-68 104v0h-384v0l-10 -15v0l25 -20v0l2 3v0h350v0l58 -89v0
q13 -24 3 -45t-33 -26h-8q-25 1 -41 18l-24 27v0l-23 -27v0q-16 -17 -42 -18q-25 1 -41 18l-24 27v0l-14 -16v0l77 -61v0h1h1v0zM512 192v-70v70v-70l32 -25v0v95v0h-32v0zM164 233l-29 24l29 -24l-29 24q-5 -1 -11 -1h-7q-16 3 -26 15t-11 29l-29 23v0q-9 -34 8 -63t53 -35
q6 -1 12 -1q22 0 40 9v0zM33 438l-13 10l13 -10l-13 10l-20 -25v0l13 -10v0l595 -467v0l12 -10v0l20 25v0l-12 10v0l-595 467v0z" />
    <glyph glyph-name="toilet-paper-slash" unicode="&#xe072;" horiz-adv-x="640" 
d="M416 256q1 63 20 106v0v0q20 44 50 53q5 1 10 1q34 -2 57 -47q22 -45 23 -113q0 -50 -13 -89q-13 -38 -35 -58l25 -20v0q18 18 28 40q26 53 27 127q-1 74 -27 127q-12 26 -33 45t-52 20h-4v0v0h-332v0q-21 0 -39 -17l25 -20v0q9 5 14 5h272v0q-13 -15 -21 -33
q-26 -53 -27 -127v-32v-1l31 -25v0q1 30 1 58v0zM372 69q-9 -53 -28 -101v0v0h-288v0v0v0q26 70 34 145q7 75 6 143q0 16 1 30l-29 24v0q-4 -26 -4 -54q1 -68 -6 -140q-7 -71 -32 -136l-5 -12v0l-13 -32v0h35h322l9 20v0q17 43 26 91l-28 22v0zM482 236q-2 9 -2 20t2 20
q4 26 14 28q10 -2 15 -28q1 -9 1 -20t-1 -20q-5 -26 -15 -28q-10 2 -14 28v0zM527 192q8 10 11 20q6 20 6 44t-6 44q-3 10 -11 20q-3 5 -11 10q-8 6 -20 6t-20 -6q-8 -5 -11 -10q-8 -10 -11 -20q-6 -20 -6 -44t6 -44q3 -10 11 -20q3 -5 11 -10q8 -6 20 -6t20 6q8 5 11 10v0z
M33 438l-13 10l13 -10l-13 10l-20 -25v0l13 -10v0l595 -467v0l12 -10v0l20 25v0l-12 10v0l-595 467v0z" />
    <glyph glyph-name="users-slash" unicode="&#xe073;" horiz-adv-x="640" 
d="M192 375l30 -24l-30 24l30 -24q2 8 2 17q-1 34 -23 57q-23 22 -57 23q-19 0 -35 -8l31 -24v0h4q19 0 32 -12q13 -11 16 -29v0zM136 256h-88h88h-88l-48 -128v0h34v0l36 96v0h106v0l-40 32v0zM413 200q3 12 3 24q-1 41 -28 68t-68 28q-25 0 -45 -11l29 -23v0q8 2 16 2
q27 -1 45 -19t19 -45v-1v0l29 -23v0zM338 96h-18h18h-162l-38 -128v0l-10 -32v0h33h351l-9 30v0l-44 35v0l10 -33v0h-298v0l29 96v0h179v0l-41 32v0zM570 224l36 -96l-36 96l36 -96h34v0l-48 128v0h-148v0q4 -15 4 -32h122v0zM512 416q27 -1 42 -24q12 -24 0 -48
q-15 -23 -42 -24q-27 1 -42 24q-12 24 0 48q15 23 42 24v0zM512 288q45 1 69 40q22 40 0 80q-24 39 -69 40q-45 -1 -69 -40q-22 -40 0 -80q24 -39 69 -40v0zM40 430l-12 10l12 -10l-12 10l-20 -25v0l13 -10v0l579 -451v0l12 -10v0l20 25v0l-12 10v0l-580 451v0z" />
    <glyph glyph-name="virus" unicode="&#xe074;" 
d="M384 365v0q-30 -25 -61 -12q-32 13 -35 51v12v0v0v0v32v0h-32v0v0v0v0v0h-32v0v-32v0v0v0v-12v0q-3 -38 -35 -51q-31 -13 -61 12l-8 8v0v0v0l-22 23v0l-23 -23v0v0v0v0v0v0v0v0v0l-23 -23v0l23 -22v0v0v0l8 -8v0v0v0q25 -30 12 -61q-13 -32 -51 -35h-12v0v0v0h-32v0v-32
v0v0v0v0v0v-32v0h32v0v0v0h12v0q38 -3 51 -35q13 -31 -12 -61l-8 -8v0v0v0l-23 -22v0l23 -23v0v0v0v0v0v0v0l23 -23v0l22 23v0v0v0l8 8v0v0v0q30 26 61 12q32 -13 35 -51v-12v0v0v0v-32v0h32v0v0v0v0v0h32v0v32v0v0v0v12v0q3 38 35 51q31 14 61 -12l8 -8v0v0v0l22 -23v0
l23 23v0v0v0v0v0l23 23v0l-23 22v0v0v0l-8 8v0q-26 30 -12 61q13 32 51 35h12v0v0v0h32v0v32v0v0v0v0v0v32v0h-32v0v0v0h-12v0q-38 3 -51 35q-14 31 12 61l8 8v0v0v0l23 22v0l-23 23v0v0v0v0v0l-23 23v0l-22 -23v0v0v0l-8 -8v0zM414 351h1h-1h1v0v0v-1v0l-9 -8v0
q-27 -29 -25 -63q1 -35 24 -60q24 -25 63 -27h12v0v0v0v0v0v0v0v0v0h-12v0q-39 -1 -63 -27q-23 -25 -24 -60q-2 -34 25 -63l9 -8v0v0v0v-1v0h-1v0v0v0l-8 9v0q-29 27 -63 26q-35 -2 -60 -25q-25 -24 -27 -63v-12v0v0v0v0v0v0v0v0v0v12v0q-2 39 -27 63q-25 23 -60 25
q-34 1 -63 -26v0v0v0v0v0v0l-8 -8v0v-1v0v1v0v0h-1v0v0v0v0v0h1v0l8 8v0q27 29 26 64q-2 34 -25 59q-24 26 -63 27h-12v0v0v0v0v0v1v0v0v0h12v0q39 1 63 26q23 25 25 60q1 34 -26 63v0v0v0v0l-8 9v0h-1v0h1v0v0v0v0v0v0v0v0v0l8 -8v0q29 -27 64 -26q34 1 59 25q26 23 27 63
v11v0v1v0v0v0v0v0v-1v0v-11v0q2 -40 27 -63q25 -24 60 -25q34 -1 63 26v0v0v0v0l8 8v0v0v0zM224 240q15 -1 16 -16q-1 -15 -16 -16q-15 1 -16 16q1 15 16 16v0zM224 176q27 1 42 24q12 24 0 48q-15 23 -42 24q-27 -1 -42 -24q-12 -24 0 -48q15 -23 42 -24v0zM304 120
q22 2 24 24q-2 22 -24 24q-22 -2 -24 -24q2 -22 24 -24v0z" />
    <glyph glyph-name="virus-slash" unicode="&#xe075;" horiz-adv-x="640" 
d="M533 160h11h-11h11v0v0h32v0v32v0v0v0v0v0v32v0h-32v0v0v0h-12v0q-38 3 -51 35q-14 31 12 61l8 8v0v0v0l23 22v0l-23 23v0v0v0v0v0l-23 23v0l-22 -23v0v0v0l-8 -8v0v0v0q-30 -25 -61 -12q-32 13 -35 51v12v0v0v0v32v0h-32v0v0v0v0v0h-32v0v-32v0v0v0v-12v0
q-1 -27 -20 -42q-19 -16 -43 -13l35 -28v0q25 9 42 30q17 22 18 53v12v0v0v0v0v0v0v0v0v0v-12v0q2 -39 27 -63q25 -23 60 -24q34 -2 63 25v0v0v0v0l8 9v0v0v0h1v0v-1v0v0v0l-9 -8v0q-27 -29 -26 -63q2 -35 25 -60q24 -25 63 -27h12v0v0v0v0v0v0v0v0v0h-12v0q-44 -2 -68 -32
l25 -20v0q16 19 43 20h1zM151 244q-16 -19 -43 -20h-12v0v0v0h-32v0v-32v0v0v0v0v0v-32v0h32v0v0v0h12v0q38 -3 51 -35q13 -31 -12 -61l-8 -8v0v0v0l-23 -22v0l23 -23v0v0v0v0v0v0l23 -23v0l22 23v0v0v0l8 8v0v0v0q30 26 61 12q32 -13 35 -51v-12v0v0v0v-32v0h32v0v0v0v0v0
h32v0v32v0v0v0v12v0q1 27 20 43q19 15 43 12l-35 28v0q-25 -9 -42 -30q-17 -22 -18 -53v-12v0v0v0v0v0v0v0v0v0v12v0q-2 39 -27 63q-25 23 -60 24q-34 2 -63 -25v0v0v0v0v0v0l-8 -8v0v-1v0v1v0v0v0v0v0v0v0h-1v0h1v0l8 8v0q27 29 26 64q-2 34 -25 59q-24 26 -63 27h-12v0v0
v0v0v0v1v0v0v0h12v0q44 1 68 32l-25 19v0zM33 438l-13 10l13 -10l-13 10l-20 -25v0l13 -10v0l595 -467v0l12 -10v0l20 25v0l-12 10v0l-595 467v0z" />
    <glyph glyph-name="viruses" unicode="&#xe076;" horiz-adv-x="640" 
d="M345 375l-27 -27l27 27l-27 -27q-18 -21 -9 -43q9 -23 37 -25h38v0v-48v0h-38v0q-28 -2 -37 -25q-9 -22 9 -43l27 -27v0l-34 -34v0l-27 27v0q-21 18 -43 9q-23 -9 -25 -37v-38v0h-48v0v38v0q-2 28 -25 37q-22 9 -43 -9l-27 -27v0l-34 34v0l27 27v0q18 21 9 43
q-9 23 -37 25h-38v0v48v0h38v0q28 2 39 24q10 21 -11 44l-27 27v0l34 34v0l27 -27v0q21 -18 43 -9q23 9 25 37v38v0h48v0v-38v0q2 -28 25 -37q22 -9 43 9l27 27v0l34 -34v0zM278 342q-23 -7 -44 0q-28 8 -42 34q-13 -23 -36 -32q-23 -10 -48 -3q9 -26 -2 -51
q-11 -23 -34 -34q23 -13 33 -37q9 -24 1 -49q26 8 49 -2q24 -9 37 -32q13 23 37 32q23 10 49 2q-8 26 2 49q9 24 32 37q-23 13 -32 37q-10 23 -2 49v0zM168 304q22 -2 24 -24q-2 -22 -24 -24q-22 2 -24 24q2 22 24 24v0zM208 224q1 15 16 16q15 -1 16 -16q-1 -15 -16 -16
q-15 1 -16 16v0zM464 96q1 15 16 16q15 -1 16 -16q-1 -15 -16 -16q-15 1 -16 16v0zM587 193l22 -23l-22 23l22 -23l-11 -11v0q-17 -19 -8 -40t34 -23h16v0v-32v0h-16v0q-25 -2 -34 -23t8 -40l11 -12v0l-22 -22v0l-12 11v0q-19 17 -40 8t-23 -34v-16v0h-32v0v16v0
q-2 25 -23 34t-40 -8l-11 -11v0l-23 23v0l11 11v0q17 19 8 40t-34 23h-16v0v32v0h16v0q25 2 34 23t-8 40l-11 11v0l23 23v0l11 -11v0q19 -17 40 -8t23 34v16v0h32v0v-16v0q2 -25 23 -34t40 8l12 11v0zM555 139q-14 -1 -27 3q-19 6 -32 21q-24 -26 -59 -24q2 -35 -25 -59
q27 -24 25 -59q35 2 59 -25q24 27 59 25q-2 35 25 59q-27 24 -25 59v0z" />
    <glyph glyph-name="vest" unicode="&#xe085;" horiz-adv-x="448" 
d="M143 448h4h-4h11l4 -11v0v0v0v0v-1q1 -1 3 -4q2 -5 10 -13q13 -16 53 -19q40 3 53 19q8 8 11 13q1 3 2 4v1v0v0v0l4 11v0h7h99v-16v0v-112v0v-68v0l46 -76v0l2 -4v0v-4v0v-216v0v-16v0h-16h-240v16v0v208v0v3v0l1 3v0l82 213v0q-20 -10 -51 -11q-31 1 -51 11l34 -88v0
l-17 -44v0l-65 169v0h-45v0v-96v0v-72v0v-4v0l-2 -4v0l-46 -76v0v-141v0l69 68v0l11 12v0l23 -23v0l-12 -11v0l-88 -88v0l-3 -4v0v-9v0h128v0v-16v0v-16v0h-144h-16v16v0v216v0v4v0l2 4v0l46 76v0v68v0v112v0v16v0h16h79zM323 416l-99 -259l99 259l-99 -259v-189v0h192v0v9
v0l-3 4v0l-88 88v0l-12 11v0l23 23v0l11 -12v0l69 -68v0v140v0l-46 77v0l-2 3v0v5v0v72v0v96v0h-45v0z" />
    <glyph glyph-name="vest-patches" unicode="&#xe086;" horiz-adv-x="448" 
d="M173 379l34 -88l-34 88l34 -88l-17 -44v0l-65 169v0h-45v0v-96v0v-72v0v-4v0l-2 -4v0l-46 -76v0v-196v0h128v0v-16v0v-16v0h-144h-16v16v0v216v0v4v0l2 4v0l46 76v0v68v0v112v0v16v0h16h90l4 -11v0v0v0v0v-1q1 -1 3 -4q2 -5 10 -13q13 -16 53 -19q40 3 53 19q8 8 11 13
q1 3 2 4v1v0v0v0l4 11v0h7h99v-16v0v-112v0v-68v0l46 -76v0l2 -4v0v-4v0v-216v0v-16v0h-16h-240v16v0v208v0v3v0l1 3v0l82 213v0q-20 -10 -51 -11q-31 1 -51 11v0zM323 416l-99 -259l99 259l-99 -259v-189v0h192v0v196v0l-46 76v0l-2 4v0v4v0v72v0v96v0h-45v0zM112 32
q15 1 16 16q-1 15 -16 16q-15 -1 -16 -16q1 -15 16 -16v0zM112 96q27 -1 42 -24q12 -24 0 -48q-15 -23 -42 -24q-27 1 -42 24q-12 24 0 48q15 23 42 24v0zM96 215l11 -12l-11 12l11 -12l13 -12v0l13 12v0l11 12v0l23 -23v0l-12 -11v0l-12 -13v0l12 -13v0l12 -11v0l-23 -23v0
l-11 12v0l-13 12v0l-13 -12v0l-11 -12v0l-23 23v0l12 11v0l12 13v0l-12 13v0l-12 11v0l23 23v0zM312 208q15 0 26 -9v0v0q10 -9 13 -24q15 -3 24 -13q9 -11 9 -26q0 -17 -12 -28q-11 -12 -28 -12h-8h-64v16v0v48v0v8v0q0 17 12 28q11 12 28 12v0zM304 168v-8v8v-8v-32v0h32
h8q7 1 8 8q-1 7 -8 8h-8h-16v16v0v8v0q-1 7 -8 8q-7 -1 -8 -8v0z" />
    <glyph glyph-name="airplay" unicode="&#xe089;" horiz-adv-x="576" 
d="M32 384h512h-512h512v-320v0h-101v0l26 -24v0l9 -8v0h66h32v32v0v320v0v32v0h-32h-544v-32v0v-320v0v-32v0h32h66l9 8v0l27 24v0h-102v0v320v0zM160 2l128 115l-128 -115l128 115l128 -115v0v-2v0h-256v0v2v0zM128 -32h32h-32h320v32v0v16v0l-160 144v0l-160 -144v0v-16
v0v-32v0z" />
    <glyph glyph-name="alt" unicode="&#xe08a;" horiz-adv-x="640" 
d="M464 384h-8h8h-8l-4 -6v0l-284 -346v0h-152h-16v-32v0h16h168l4 6v0l284 346v0h152h16v32v0h-16h-160zM432 32h-16h16h-16v-32v0h16h208v32v0h-16h-192z" />
    <glyph glyph-name="angle" unicode="&#xe08c;" horiz-adv-x="448" 
d="M210 407l-199 -416l199 416l-199 -416l-11 -23v0h26h422v32v0h-16h-381l187 393v0l-28 14v0zM224 275l-14 -29l14 29l-14 -29q39 -28 68 -68l27 18v0q-33 46 -81 79v0zM333 40h33h-33h33q-8 62 -36 115l-27 -18v0q23 -45 31 -97h-1z" />
    <glyph glyph-name="angle-90" unicode="&#xe08d;" horiz-adv-x="448" 
d="M32 400v16v-16v16h-32v0v-16v0v-416v0v-16v0h16h432v32v0h-16h-400v400v0zM80 352v-32v32v-32q60 -4 112 -30l17 28v0q-59 30 -129 34v0zM220 274q52 -34 86 -86l28 17v0q-39 59 -98 97l-16 -28v0zM352 48h32h-32h32q-4 70 -34 129l-28 -17v0q26 -52 30 -112v0z" />
    <glyph glyph-name="apple-core" unicode="&#xe08f;" horiz-adv-x="384" 
d="M178 320h-18h18h-18v18v0v14v0v16v0q1 34 23 57q23 22 57 23h16h32v-18v0v-14v0v-16v0q-1 -34 -23 -57q-23 -22 -57 -23h-16h-14zM240 416q-20 -1 -34 -14v0v0q-13 -14 -14 -34v-16v0h16v0q20 1 34 14q13 14 14 34v16v0h-16v0zM80 320l112 -32l-112 32l112 -32l112 32v0
q21 0 38 -8q15 -7 28 -19q-14 -9 -26 -20q-54 -50 -56 -129q0 -41 17 -75q16 -35 45 -59q7 -6 15 -12q-10 -13 -22 -24q-40 -37 -87 -38l-64 16v0l-64 -16v0q-47 1 -87 39q-12 10 -22 24q8 5 15 11q29 24 45 59q17 34 17 75q-2 79 -56 129q-12 11 -26 20q12 12 28 19
q17 8 38 8v0zM201 257l-9 -2l9 2l-9 -2l-9 2v0l-107 31v0q-3 0 -5 -1v0q55 -58 57 -143q0 -44 -17 -82q-16 -38 -46 -67q30 -26 59 -27l60 15v0l8 2v0l8 -2v0l60 -15v0q29 2 59 27q-30 29 -46 67q-17 38 -17 82q2 85 57 143q-2 1 -5 1l-107 -31v0z" />
    <glyph glyph-name="arrow-down-from-dotted-line" unicode="&#xe090;" horiz-adv-x="448" 
d="M56 408v-48v48v-48h-48v0v48v0h48v0zM152 408v-48v48v-48h-48v0v48v0h48v0zM200 408h48h-48h48v-48v0h-48v0v48v0zM344 408v-48v48v-48h-48v0v48v0h48v0zM392 408h48h-48h48v-48v0h-48v0v48v0zM235 -19l-11 -12l11 12l-11 -12l-11 12v0l-128 128v0l-12 11v0l23 23v0
l11 -12v0l101 -100v0v241v0v16v0h32v0v-16v0v-241v0l101 100v0l11 12v0l23 -23v0l-12 -11v0l-128 -128v0z" />
    <glyph glyph-name="arrow-down-left" unicode="&#xe091;" horiz-adv-x="384" 
d="M48 32h-16h16h-16v16v0v224v0v16v0h32v0v-16v0v-185v0l253 252v0l11 12v0l23 -23v0l-12 -11v0l-252 -253v0h185h16v-32v0h-16h-224z" />
    <glyph glyph-name="arrow-down-left-and-arrow-up-right-to-center" unicode="&#xe092;" 
d="M499 413l12 11l-12 -11l12 11l-23 23v0l-11 -12v0l-157 -156v0v105v0v16v0h-32v0v-16v0v-144v0v-16v0h16h160v32v0h-16h-105l156 157v0zM13 -29l-12 -11l12 11l-12 -11l23 -23v0l11 12v0l157 156v0v-105v0v-16v0h32v0v16v0v144v0v16v0h-16h-160v-32v0h16h105l-156 -157v0
z" />
    <glyph glyph-name="arrow-down-right" unicode="&#xe093;" horiz-adv-x="384" 
d="M336 32h16h-16h16v16v0v224v0v16v0h-32v0v-16v0v-185v0l-253 252v0l-11 12v0l-23 -23v0l12 -11v0l252 -253v0h-185h-16v-32v0h16h224z" />
    <glyph glyph-name="arrow-down-to-bracket" unicode="&#xe094;" horiz-adv-x="448" 
d="M235 101l-11 -12l11 12l-11 -12l-11 12v0l-128 128v0l-12 11v0l23 23v0l11 -12v0l101 -100v0v281v0v16v0h32v0v-16v0v-281v0l101 100v0l11 12v0l23 -23v0l-12 -11v0l-128 -128v0zM32 112v-144v144v-144h384v0v144v0v16v0h32v0v-16v0v-160v0v-16v0h-16h-432v16v0v160v0v16
v0h32v0v-16v0z" />
    <glyph glyph-name="arrow-down-to-dotted-line" unicode="&#xe095;" horiz-adv-x="448" 
d="M235 101l-11 -12l11 12l-11 -12l-11 12v0l-128 128v0l-12 11v0l23 23v0l11 -12v0l101 -100v0v105v0v144v0v16v0h32v0v-16v0v-144v0v-105v0l101 100v0l11 12v0l23 -23v0l-12 -11v0l-128 -128v0zM56 24v-48v48v-48h-48v0v48v0h48v0zM152 24v-48v48v-48h-48v0v48v0h48v0z
M200 -24v48v-48v48h48v0v-48v0h-48v0zM344 24v-48v48v-48h-48v0v48v0h48v0zM392 24h48h-48h48v-48v0h-48v0v48v0z" />
    <glyph glyph-name="arrow-down-to-square" unicode="&#xe096;" 
d="M268 117l96 104l-96 -104l96 104l11 12v0l-24 22v0l-11 -12v0l-68 -74v0v263v0v16v0h-32v0v-16v0v-263v0l-68 74v0l-11 12v0l-24 -22v0l11 -12v0l96 -104v0l12 -13v0l12 13v0zM16 416h-16h16h-16v-16v0v-448v0v-16v0h16h496v16v0v448v0v16v0h-16h-112v-32v0h16h80v-416v0
h-448v0v416v0h80h16v32v0h-16h-96z" />
    <glyph glyph-name="arrow-trend-down" unicode="&#xe097;" horiz-adv-x="576" 
d="M368 32h16h-16h208v16v0v176v0v16v0h-32v0v-16v0v-137v0l-213 212v0l-11 12v0l-11 -12v0l-117 -116v0l-165 164v0l-22 -22v0l176 -176v0l11 -12v0l11 12v0l117 116v0l201 -201v0h-137h-16v-32v0z" />
    <glyph glyph-name="arrow-trend-up" unicode="&#xe098;" horiz-adv-x="576" 
d="M368 352h16h-16h208v-16v0v-176v0v-16v0h-32v0v16v0v137v0l-213 -212v0l-11 -12v0l-11 12v0l-117 116v0l-165 -164v0l-22 22v0l176 176v0l11 12v0l11 -12v0l117 -116v0l201 201v0h-137h-16v32v0z" />
    <glyph glyph-name="arrow-up-arrow-down" unicode="&#xe099;" horiz-adv-x="576" 
d="M427 -19l96 96l-96 -96l96 96l12 11v0l-23 23v0l-11 -12v0l-69 -68v0v369v0v16v0h-32v0v-16v0v-369v0l-69 68v0l-11 12v0l-23 -23v0l12 -11v0l96 -96v0l11 -12v0l11 12v0zM171 403l-11 12l11 -12l-11 12l-11 -12v0l-96 -96v0l-12 -11v0l23 -23v0l11 12v0l69 68v0v-369v0
v-16v0h32v0v16v0v369v0l69 -68v0l11 -12v0l23 23v0l-12 11v0l-96 96v0z" />
    <glyph glyph-name="arrow-up-from-bracket" unicode="&#xe09a;" horiz-adv-x="448" 
d="M235 435l-11 12l11 -12l-11 12l-11 -12v0l-128 -128v0l-12 -11v0l23 -23v0l11 12v0l101 100v0v-273v0v-16v0h32v0v16v0v273v0l101 -100v0l11 -12v0l23 23v0l-12 11v0l-128 128v0zM32 112v16v-16v16h-32v0v-16v0v-160v0v-16v0h16h432v16v0v160v0v16v0h-32v0v-16v0v-144v0
h-384v0v144v0z" />
    <glyph glyph-name="arrow-up-from-dotted-line" unicode="&#xe09b;" horiz-adv-x="448" 
d="M235 403l-11 12l11 -12l-11 12l-11 -12v0l-128 -128v0l-12 -11v0l23 -23v0l11 12v0l101 100v0v-241v0v-16v0h32v0v16v0v241v0l101 -100v0l11 -12v0l23 23v0l-12 11v0l-128 128v0zM56 24h-48h48h-48v-48v0h48v0v48v0zM152 24h-48h48h-48v-48v0h48v0v48v0zM200 -24h48h-48
h48v48v0h-48v0v-48v0zM344 24h-48h48h-48v-48v0h48v0v48v0zM392 24v-48v48v-48h48v0v48v0h-48v0z" />
    <glyph glyph-name="arrow-up-from-square" unicode="&#xe09c;" 
d="M267 435l-11 12l11 -12l-11 12l-11 -12v0l-104 -104v0l-12 -11v0l23 -23v0l11 12v0l77 76v0v-257v0v-16v0h32v0v16v0v257v0l77 -76v0l11 -12v0l23 23v0l-12 11v0l-104 104v0zM16 416h-16h16h-16v-16v0v-448v0v-16v0h16h496v16v0v448v0v16v0h-16h-96v-32v0h16h64v-416v0
h-448v0v416v0h64h16v32v0h-16h-80z" />
    <glyph glyph-name="arrow-up-left" unicode="&#xe09d;" horiz-adv-x="384" 
d="M48 352h-16h16h-16v-16v0v-224v0v-16v0h32v0v16v0v185v0l253 -252v0l11 -12v0l23 23v0l-12 11v0l-252 253v0h185h16v32v0h-16h-224z" />
    <glyph glyph-name="arrow-up-left-from-circle" unicode="&#xe09e;" 
d="M16 448h-16h16h-16v-16v0v-160v0v-16v0h32v0v16v0v121v0l269 -268v0l11 -12v0l23 23v0l-12 11v0l-268 269v0h121h16v32v0h-16h-160zM288 384h-16h16h-16v-32v0h16v0q82 -2 136 -56t56 -136q-2 -82 -56 -136t-136 -56q-82 2 -136 56t-56 136v16v0h-32v0v-16v0
q1 -63 31 -113q29 -51 80 -80q50 -30 113 -31q63 1 113 31q51 29 80 80q30 50 31 113q-1 63 -31 113q-29 51 -80 80q-50 30 -113 31v0z" />
    <glyph glyph-name="arrow-up-right" unicode="&#xe09f;" horiz-adv-x="384" 
d="M336 352h16h-16h16v-16v0v-224v0v-16v0h-32v0v16v0v185v0l-253 -252v0l-11 -12v0l-23 23v0l12 11v0l252 253v0h-185h-16v32v0h16h224z" />
    <glyph glyph-name="arrow-up-right-and-arrow-down-left-from-center" unicode="&#xe0a0;" 
d="M293 251l-12 -11l12 11l-12 -11l23 -23v0l11 12v0l165 164v0v-105v0v-16v0h32v0v16v0v144v0v16v0h-16h-160v-32v0h16h105l-164 -165v0zM219 133l12 11l-12 -11l12 11l-23 23v0l-11 -12v0l-165 -164v0v105v0v16v0h-32v0v-16v0v-144v0v-16v0h16h160v32v0h-16h-105l164 165
v0z" />
    <glyph glyph-name="arrow-up-to-dotted-line" unicode="&#xe0a1;" horiz-adv-x="448" 
d="M56 408h-48h48h-48v-48v0h48v0v48v0zM152 408h-48h48h-48v-48v0h48v0v48v0zM200 408v-48v48v-48h48v0v48v0h-48v0zM344 408h-48h48h-48v-48v0h48v0v48v0zM392 408v-48v48v-48h48v0v48v0h-48v0zM235 283l-11 12l11 -12l-11 12l-11 -12v0l-128 -128v0l-12 -11v0l23 -23v0
l11 12v0l101 100v0v-105v0v-144v0v-16v0h32v0v16v0v144v0v105v0l101 -100v0l11 -12v0l23 23v0l-12 11v0l-128 128v0z" />
    <glyph glyph-name="arrows-cross" unicode="&#xe0a2;" horiz-adv-x="448" 
d="M288 416h-16h16h-16v-32v0h16h105l-380 -381v0l-12 -11v0l23 -23v0l11 12v0l381 380v0v-105v0v-16v0h32v0v16v0v144v0v16v0h-16h-144zM35 403l-11 12l11 -12l-11 12l-23 -23v0l12 -11v0l160 -161v0l23 23v0l-161 160v0zM252 141l141 -141l-141 141l141 -141h-105h-16v-32
v0h16h160v16v0v144v0v16v0h-32v0v-16v0v-105v0l-141 141v0l-23 -23v0z" />
    <glyph glyph-name="arrows-from-dotted-line" unicode="&#xe0a3;" horiz-adv-x="448" 
d="M224 447l11 -12l-11 12l11 -12l80 -80v0l12 -11v0l-23 -23v0l-11 12v0l-53 52v0v-113v0v-16v0h-32v0v16v0v113v0l-53 -52v0l-11 -12v0l-23 23v0l12 11v0l80 80v0l11 12v0zM224 -63l-11 12l11 -12l-11 12l-80 80v0l-12 11v0l23 23v0l11 -12v0l53 -52v0v113v0v16v0h32v0
v-16v0v-113v0l53 52v0l11 12v0l23 -23v0l-12 -11v0l-80 -80v0l-11 -12v0zM56 216v-48v48v-48h-48v0v48v0h48v0zM104 216h48h-48h48v-48v0h-48v0v48v0zM248 168h-48h48h-48v48v0h48v0v-48v0zM296 216h48h-48h48v-48v0h-48v0v48v0zM440 216v-48v48v-48h-48v0v48v0h48v0z" />
    <glyph glyph-name="arrows-from-line" unicode="&#xe0a4;" horiz-adv-x="448" 
d="M224 447l11 -12l-11 12l11 -12l80 -80v0l12 -11v0l-23 -23v0l-11 12v0l-53 52v0v-113v0v-16v0h-32v0v16v0v113v0l-53 -52v0l-11 -12v0l-23 23v0l12 11v0l80 80v0l11 12v0zM224 -63l-11 12l11 -12l-11 12l-80 80v0l-12 11v0l23 23v0l11 -12v0l53 -52v0v113v0v16v0h32v0
v-16v0v-113v0l53 52v0l11 12v0l23 -23v0l-12 -11v0l-80 -80v0l-11 -12v0zM16 208h416h-416h432v-32v0h-16h-432v32v0h16v0z" />
    <glyph glyph-name="arrows-minimize" unicode="&#xe0a5;" 
d="M56 415l11 -12l-11 12l11 -12l125 -124v0v105v0v16v0h32v0v-16v0v-144v0v-16v0h-16h-160v32v0h16h105l-124 125v0l-12 11v0l23 23v0zM479 392l-12 -11l12 11l-12 -11l-124 -125v0h105h16v-32v0h-16h-160v16v0v144v0v16v0h32v0v-16v0v-105v0l125 124v0l11 12v0l23 -23v0z
M48 128v32v-32v32h16h160v-16v0v-144v0v-16v0h-32v0v16v0v105v0l-125 -124v0l-11 -12v0l-23 23v0l12 11v0l124 125v0h-105h-16zM288 160h16h-16h176v-32v0h-16h-105l124 -125v0l12 -11v0l-23 -23v0l-11 12v0l-125 124v0v-105v0v-16v0h-32v0v16v0v144v0v16v0z" />
    <glyph glyph-name="arrows-to-dotted-line" unicode="&#xe0a6;" horiz-adv-x="448" 
d="M224 249l11 12l-11 -12l11 12l80 80v0l12 11v0l-23 23v0l-11 -12v0l-53 -52v0v121v0v16v0h-32v0v-16v0v-121v0l-53 52v0l-11 12v0l-23 -23v0l12 -11v0l80 -80v0l11 -12v0zM8 216v-48v48v-48h48v0v48v0h-48v0zM104 216v-48v48v-48h48v0v48v0h-48v0zM200 216v-48v48v-48h48
v0v48v0h-48v0zM296 216v-48v48v-48h48v0v48v0h-48v0zM440 216h-48h48h-48v-48v0h48v0v48v0zM235 123l-11 12l11 -12l-11 12l-11 -12v0l-80 -80v0l-12 -11v0l23 -23v0l11 12v0l53 52v0v-121v0v-16v0h32v0v16v0v121v0l53 -52v0l11 -12v0l23 23v0l-12 11v0l-80 80v0z" />
    <glyph glyph-name="arrows-to-line" unicode="&#xe0a7;" horiz-adv-x="448" 
d="M224 249l11 12l-11 -12l11 12l80 80v0l12 11v0l-23 23v0l-11 -12v0l-53 -52v0v121v0v16v0h-32v0v-16v0v-121v0l-53 52v0l-11 12v0l-23 -23v0l12 -11v0l80 -80v0l11 -12v0zM0 208v-32v32v-32h16h432v32v0h-16h-432zM235 123l-11 12l11 -12l-11 12l-11 -12v0l-80 -80v0
l-12 -11v0l23 -23v0l11 12v0l53 52v0v-121v0v-16v0h32v0v16v0v121v0l53 -52v0l11 -12v0l23 23v0l-12 11v0l-80 80v0z" />
    <glyph glyph-name="audio-description-slash" unicode="&#xe0a8;" horiz-adv-x="640" 
d="M32 438l-12 10l12 -10l-12 10l-20 -25v0l13 -10v0l595 -467v0l12 -10v0l20 25v0l-12 10v0l-596 467v0zM608 384v32v-32v32h-32h-436l40 -32v0h396v0v-313v0l32 -25v0v338v0zM125 96h36h-36h36l22 48v0h1h81l22 -48v0h36v0l-9 19v0l-77 61v0h-39v0l10 23v0l-26 20v0
l-57 -123v0zM32 338v-338v338v-338v-32v0h32h436l-40 32v0h-396v0v313v0l-32 25v0zM336 96h2h-2h2l-2 2v0v-2v0zM512 192q-1 41 -28 68v0v0q-27 27 -68 28h-64h-16v-16v0v-11v0l32 -25v0v20v0h48v0q27 -1 45 -19t19 -45q0 -20 -11 -36l25 -20v0q18 24 18 56v0z" />
    <glyph glyph-name="austral-sign" unicode="&#xe0a9;" horiz-adv-x="448" 
d="M205 416h11h-11h38l4 -10v0l72 -182v0h113h16v-32v0h-16h-100l25 -64v0h75h16v-32v0h-16h-62l45 -114v0l5 -14v0h-34v0l-1 2v0l-50 126v0h-222v0l-50 -126v0l-1 -2v0h-34v0l5 14v0l45 114v0h-62h-16v32v0h16h75l25 64v0h-100h-16v32v0h16h113l72 182v0l4 10v0zM224 377
l-60 -153l60 153l-60 -153h121v0l-61 153v0zM125 128h198h-198h198l-26 64v0h-146v0l-26 -64v0z" />
    <glyph glyph-name="avocado" unicode="&#xe0aa;" 
d="M393 171l54 54l-54 -54l54 54q33 34 33 79t-33 79q-34 33 -79 33t-79 -33l-54 -54v0l-10 -9v0h-13v0q-73 1 -128 -52q-52 -54 -52 -124t52 -124q54 -52 124 -52t124 52q53 55 52 128v13v0l9 10v0zM470 202l-54 -54l54 54l-54 -54q1 -41 -14 -80q-16 -39 -47 -71
q-64 -61 -147 -61t-147 61q-61 64 -61 147t61 147q32 31 71 47q39 15 80 14l54 54v0q45 42 102 42t102 -42q42 -44 42 -102q0 -57 -42 -102v0zM176 208q-28 -30 -31 -62v0v0q-4 -31 15 -50t50 -15q32 3 62 31q28 30 31 61q4 32 -15 51t-51 15q-31 -3 -61 -31v0zM311 247
q30 -33 24 -77v0v0q-6 -45 -41 -81q-35 -34 -80 -40q-44 -6 -77 24q-30 33 -24 77q6 45 40 80q36 35 81 41q44 6 77 -24v0z" />
    <glyph glyph-name="award-simple" unicode="&#xe0ab;" horiz-adv-x="384" 
d="M236 421l-44 27l44 -27l-44 27l-44 -27v0l-52 1v0l-25 -45v0l-45 -25v0l1 -52v0l-27 -44v0l27 -44v0l-1 -52v0l45 -25v0l25 -45v0l52 1v0l44 -27v0l44 27v0l52 -1v0l25 45v0l45 25v0l-1 52v0l27 44v0l-27 44v0l1 52v0l-45 25v0l-25 45v0l-52 -1v0zM269 390l16 -28l-16 28
l16 -28l4 -9v0l8 -4v0l29 -16v0l-1 -32v0v-9v0l5 -8v0l17 -28v0l-17 -28v0l-5 -8v0v-9v0l1 -32v0l-28 -16v0l-9 -4v0l-4 -9v0l-16 -28v0l-32 1v0h-9v0l-8 -5v0l-28 -17v0l-28 17v0l-8 5v0h-9v0l-32 -1v0l-16 28v0l-4 9v0l-8 4v0l-29 16v0l1 32v0v9v0l-5 8v0l-16 28v0l16 28
v0l5 8v0v9v0l-1 32v0l29 16v0l8 4v0l4 8v0l16 29v0l32 -1v0h9v0l8 5v0l28 16v0l28 -16v0l8 -5v0h9v0l32 1v0zM192 200q-32 1 -48 28q-16 28 0 56q16 27 48 28q32 -1 48 -28q16 -28 0 -56q-16 -27 -48 -28v0zM104 256q2 -50 44 -76q44 -24 88 0q42 26 44 76q-2 50 -44 76
q-44 24 -88 0q-42 -26 -44 -76v0zM92 58l-19 -85l19 85l-19 -85l-9 -37v0l36 13v0l92 35v0l92 -35v0l36 -13v0l-9 37v0l-19 85v0h-5h-28l17 -71v0l-73 27v0l-11 4v0l-11 -4v0l-72 -27v0l16 71v0h-28h-5z" />
    <glyph glyph-name="baht-sign" unicode="&#xe0ac;" horiz-adv-x="320" 
d="M160 448h-32h32h-32v-64v0h-96h-32v-32v0v-144v0v-32v0v-144v0v-32v0h32h96v-64v0h32v0v64v0h56v0q44 1 74 30q29 30 30 74q-1 34 -19 60q-19 26 -49 37q35 31 36 79q-1 44 -30 74q-30 29 -74 30h-24v0v64v0zM128 352v-144v144v-144h-96v0v144v0h96v0zM160 208v144v-144
v144h24v0q31 -1 51 -21t21 -51q-1 -31 -21 -51t-51 -21h-24v0zM128 176v-144v144v-144h-96v0v144v0h96v0zM160 32v144v-144v144h24h32q31 -1 51 -21t21 -51q-1 -31 -21 -51t-51 -21h-56v0z" />
    <glyph glyph-name="bars-filter" unicode="&#xe0ad;" horiz-adv-x="448" 
d="M0 384h448h-448h448v-32v0h-448v0v32v0zM64 224h320h-320h320v-32v0h-320v0v32v0zM288 64v-32v32v-32h-128v0v32v0h128v0z" />
    <glyph glyph-name="bars-sort" unicode="&#xe0ae;" horiz-adv-x="448" 
d="M0 384h448h-448h448v-32v0h-448v0v32v0zM0 224h320h-320h320v-32v0h-320v0v32v0zM192 64v-32v32v-32h-192v0v32v0h192v0z" />
    <glyph glyph-name="basket-shopping-simple" unicode="&#xe0af;" horiz-adv-x="576" 
d="M254 430l-8 -14l8 14l-8 -14l-91 -160v0h266v0l-91 160v0l-8 14v0l28 16v0l8 -14v0l99 -176v0h54h65v-32v0h-40v0l-72 -288v0h-352v0l-72 288v0h-40v0v32v0h32h87l99 176v0l8 14v0l28 -16v0zM503 224h-430h430h-430l64 -256v0h302v0l64 256v0zM144 152q2 22 24 24
q22 -2 24 -24q-2 -22 -24 -24q-22 2 -24 24v0zM408 176q22 -2 24 -24q-2 -22 -24 -24q-22 2 -24 24q2 22 24 24v0z" />
    <glyph glyph-name="battery-exclamation" unicode="&#xe0b0;" horiz-adv-x="576" 
d="M80 352h128h-128h128v-32v0h-128v0q-20 -1 -34 -14q-13 -14 -14 -34v-160v0q1 -20 14 -34q14 -13 34 -14h128v0v-32v0h-128v0q-34 1 -57 23q-22 23 -23 57v160v0q1 34 23 57q23 22 57 23v0zM432 64q20 1 34 14v0v0q13 14 14 34v160v0q-1 20 -14 34q-14 13 -34 14h-96v0
v32v0h96v0q34 -1 57 -23q22 -23 23 -57v-160v0q-1 -34 -23 -57q-23 -22 -57 -23h-96v0v32v0h96v0zM560 256q15 -1 16 -16v-96v0q-1 -15 -16 -16q-15 1 -16 16v96v0q1 15 16 16v0zM288 352v-16v16v-16v-192v0v-16v0h-32v0v16v0v192v0v16v0h32v0zM248 96h48h-48h48v-48v0h-48
v0v48v0z" />
    <glyph glyph-name="battery-low" unicode="&#xe0b1;" horiz-adv-x="576" 
d="M480 320v-256v256v-256h-448v0v256v0h448v0zM32 352h-32h32h-32v-32v0v-256v0v-32v0h32h480v32v0v256v0v32v0h-32h-448zM576 256h-32h32h-32v-32v0v-64v0v-32v0h32v0v32v0v64v0v32v0zM96 256h32h-32h32v-128v0h-32v0v128v0zM64 288v-32v32v-32v-128v0v-32v0h32h64v32v0
v128v0v32v0h-32h-64z" />
    <glyph glyph-name="bee" unicode="&#xe0b2;" horiz-adv-x="576" 
d="M227 435l-11 12l11 -12l-11 12l-23 -23v0l12 -11v0l23 -24v0q-19 -22 -20 -53q0 -5 1 -9q-36 24 -81 25q-51 -1 -88 -31q-38 -30 -40 -81q1 -47 34 -76q33 -30 79 -35q-1 7 -1 15q0 9 1 17q-36 5 -58 27t-23 52q1 34 28 56q27 23 68 24q31 0 55 -14q23 -14 34 -37
q-33 -19 -53 -51q-20 -33 -20 -74q3 -49 37 -97q35 -47 70 -78q34 -32 37 -33q3 1 37 33q35 31 70 78q34 48 37 97q0 41 -20 74q-20 32 -53 51q11 23 34 37q24 14 55 14q41 -1 68 -24q27 -22 28 -56q-1 -30 -23 -52t-58 -27q1 -8 1 -17q0 -8 -1 -15q46 5 79 35q33 29 34 76
q-2 51 -40 81q-37 30 -88 31q-45 -1 -80 -25v9q-1 31 -20 53l23 24v0l12 11v0l-23 23v0l-11 -12v0l-27 -27v0q-16 8 -34 8t-34 -8l-27 27v0zM288 384q27 -1 42 -24q12 -24 0 -48q-15 -23 -42 -24q-27 1 -42 24q-12 24 0 48q15 23 42 24v0zM177 160q3 17 10 32h202v0
q7 -15 10 -32h-222v0zM210 224q31 31 78 32q47 -1 78 -32h-156v0zM398 128q-3 -15 -11 -32h-198v0q-8 17 -11 32h220v0zM367 64q-12 -17 -25 -32h-108v0q-13 15 -25 32h158v0zM312 0q-13 -12 -23 -21l-1 -1v0l-1 1v0q-10 9 -23 21h48v0z" />
    <glyph glyph-name="beer-mug" unicode="&#xe0b3;" 
d="M208 448q-41 -1 -69 -29q-19 13 -43 13q-34 -1 -57 -23q-22 -23 -23 -57q1 -34 23 -57q23 -22 57 -23q24 0 43 13q28 -28 69 -29q41 1 69 29q19 -13 43 -13q34 1 57 23q22 23 23 57q-1 34 -23 57q-23 22 -57 23q-24 0 -43 -13q-28 28 -69 29v0zM155 388q19 27 53 28
q34 -1 53 -28l11 -16v0l14 14v0q13 13 34 14q20 -1 34 -14q13 -14 14 -34q-1 -20 -14 -34q-14 -13 -34 -14q-21 1 -34 14l-14 14v0l-11 -16v0q-19 -27 -53 -28q-34 1 -53 28l-11 16v0l-14 -14v0q-13 -13 -34 -14q-20 1 -34 14q-13 14 -14 34q1 20 14 34q14 13 34 14
q21 -1 34 -14l14 -14v0l11 16v0zM32 260v-292v292v-292v-32v0h32h320v32v0v45v0l118 52v0l10 4v0v11v0v160v0v16v0h-16h-112v4v0q-15 -10 -32 -15v-221v0v0v0v-56v0h-288v0v277v0q-17 5 -32 15v0zM208 224h-16h16h-16v-16v0v-160v0v-16v0h32v0v16v0v160v0v16v0h-16v0z
M480 90l-96 -42l96 42l-96 -42v176v0h96v0v-134v0zM160 208v16v-16v16h-32v0v-16v0v-160v0v-16v0h32v0v16v0v160v0zM288 208v16v-16v16h-32v0v-16v0v-160v0v-16v0h32v0v16v0v160v0z" />
    <glyph glyph-name="bitcoin-sign" unicode="&#xe0b4;" horiz-adv-x="320" 
d="M64 448h32h-32h32v-64v0h64v0v64v0h32v0v-64v0q41 -4 68 -33t28 -71q-1 -48 -36 -79q30 -11 49 -37q18 -26 19 -60q-1 -44 -30 -74q-30 -29 -74 -30h-24v0v-64v0h-32v0v64v0h-64v0v-64v0h-32v0v64v0h-32h-32v32v0v144v0v32v0v144v0v32v0h32h32v64v0zM160 32h32h-32h56
q31 1 51 21t21 51q-1 31 -21 51t-51 21h-32h-152v-144v0h32h96zM184 352h-24h24h-152v-144v0h152v0q31 1 51 21t21 51q-1 31 -21 51t-51 21v0z" />
    <glyph glyph-name="block-quote" unicode="&#xe0b5;" horiz-adv-x="448" 
d="M16 368h-16h16h-16v-32v0h16h432v32v0h-16h-416zM144 208h-16h16h-16v-32v0h16h304v32v0h-16h-288zM128 48v-32v32v-32h16h304v32v0h-16h-304zM0 16v-16v16v-16h32v0v16v0v192v0v16v0h-32v0v-16v0v-192v0z" />
    <glyph glyph-name="bolt-auto" unicode="&#xe0b6;" horiz-adv-x="576" 
d="M339 398l-35 -134l35 134l-35 -134l-9 -32v0l33 -2v0l88 -6v0v-48v0l-279 -209v0l-41 -31v0l13 50v0l36 134v0l8 32v0l-33 2v0l-88 6v0v48v0l279 209v0l41 31v0l-13 -50v0zM293 200l-39 3l39 -3l-39 3l10 37v0l34 127v0l-234 -175v0v-2v0l91 -6v0l39 -3v0l-10 -37v0
l-34 -127v0l234 175v0v2v0l-91 6v0zM454 160h21h-21h21l4 -10v0l94 -214v0h-35v0l-21 48v0h-106v0l-21 -48v0h-35v0l94 214v0l5 10v0zM464 104l-39 -88l39 88l-39 -88h78v0l-39 88v0z" />
    <glyph glyph-name="bolt-lightning" unicode="&#xe0b7;" horiz-adv-x="384" 
d="M230 320l20 96l-20 -96l20 96l6 32v0h-33h-191l-28 -256v0l-4 -32v0h32h144l-7 -32v0l-27 -125v0l-14 -67v0l44 52v0l212 252v0v16v0v32v0h-32h-128l6 32v0zM352 256v-4v4v-4l-166 -197v0l21 98v0l9 39v0h-40h-140l25 224v0h156v0l-24 -122v0l-8 -38v0h39h128z" />
    <glyph glyph-name="bolt-slash" unicode="&#xe0b8;" horiz-adv-x="640" 
d="M544 176v48v-48v48l-88 6v0l-33 2v0l9 32v0l35 134v0l13 50v0l-41 -31v0l-154 -116v0l26 -20v0l115 86v0l-34 -127v0l-5 -19v0l25 -20v0l9 -1v0l91 -6v0v-2v0l-45 -34v0l26 -21v0l51 39v0zM179 222l-19 -14l19 14l-19 -14v-48v0l88 -6v0l18 -1v0l-44 35v0l-30 2v0v2v0
l13 9v0l-26 21v0zM279 143l-6 -23l6 23l-6 -23l-36 -134v0l-13 -50v0l41 31v0l122 91v0l-26 20v0l-83 -61v0l28 104v0l-27 22v0zM40 430l-12 10l12 -10l-12 10l-20 -25v0l13 -10v0l579 -451v0l12 -10v0l20 25v0l-12 10v0l-580 451v0z" />
    <glyph glyph-name="book-arrow-right" unicode="&#xe0b9;" horiz-adv-x="640" 
d="M64 448q-27 -1 -45 -19v0v0q-18 -18 -19 -45v-384v0v0v0q1 -27 19 -45t45 -19h368h16v32v0h-16h-16v64v0h16h16v16v0v128v0h-32v0v-112v0h-352v0q-18 0 -32 -9v329v0q0 14 9 23t23 9h352v0v-112v0h32v0v128v0v16v0h-16h-368zM384 32v-64v64v-64h-320v0q-14 0 -23 9t-9 23
t9 23t23 9h320v0zM531 347l-11 12l11 -12l-11 12l-23 -23v0l12 -11v0l68 -69v0h-305h-16v-32v0h16h305l-68 -69v0l-12 -11v0l23 -23v0l11 12v0l96 96v0l12 11v0l-12 11v0l-96 96v0z" />
    <glyph glyph-name="book-arrow-up" unicode="&#xe0ba;" horiz-adv-x="448" 
d="M64 448q-27 -1 -45 -19v0v0q-18 -18 -19 -45v-384v0v0v0q1 -27 19 -45t45 -19h112v0v32v0h-112v0q-14 0 -23 9t-9 23t9 23t23 9h112v0v32v0h-112v0q-18 0 -32 -9v329v0q0 14 9 23t23 9h352v0v-352v0h-112v0v-32v0h80v0v-64v0h-80v0v-32v0h128h16v32v0h-16h-16v64v0h16h16
v16v0v384v0v16v0h-16h-368zM133 219l-12 -11l12 11l-12 -11l23 -23v0l11 12v0l69 68v0v-313v0v-16v0h32v0v16v0v313v0l69 -68v0l11 -12v0l23 23v0l-12 11v0l-96 96v0l-11 12v0l-11 -12v0l-96 -96v0z" />
    <glyph glyph-name="book-bookmark" unicode="&#xe0bb;" horiz-adv-x="448" 
d="M0 384q1 27 19 45v0v0q18 18 45 19h96h288v-16v0v-384v0v-16v0h-16h-16v-64v0h16h16v-32v0h-16h-368q-27 1 -45 19t-19 45v0v0v384v0zM320 416h-128h128h-128v-175v0l54 43v0l10 8v0l10 -8v0l54 -43v0v175v0zM160 416h-96h96h-96q-14 0 -23 -9t-9 -23v-329v0q14 9 32 9
h352v0v352v0h-64v0v-208v0v-33v0l-26 21v0l-70 56v0l-70 -56v0l-26 -21v0v33v0v208v0zM64 32q-14 0 -23 -9v0v0q-9 -9 -9 -23t9 -23t23 -9h320v0v64v0h-320v0z" />
    <glyph glyph-name="book-circle-arrow-right" unicode="&#xe0bc;" horiz-adv-x="640" 
d="M64 448q-27 -1 -45 -19v0v0q-18 -18 -19 -45v-384v0v0v0q1 -27 19 -45t45 -19h331v0q-20 14 -35 32h-296v0q-14 0 -23 9t-9 23t9 23t23 9h263v0q-5 15 -6 32h-257v0q-18 0 -32 -9v329v0q0 14 9 23t23 9h352v0v-179v0q15 8 32 12v183v0v16v0h-16h-368zM496 192
q30 0 56 -15v0v0q26 -15 41 -41t15 -56t-15 -56t-41 -41t-56 -15t-56 15t-41 41t-15 56t15 56t41 41t56 15v0zM496 -64q39 0 72 19v0v0q33 19 53 53q19 34 19 72t-19 72q-20 34 -53 53t-72 19t-72 -19t-53 -53q-19 -34 -19 -72t19 -72q20 -34 53 -53t72 -19v0zM504 159
l-23 -23l23 23l-23 -23l12 -11v0v0v0v-1v0v0v0v0v0v0v0v0v0v0v0h1v0v0v0v0v0v0v0v-1v0v0v0v0v0v0v0v0v0v0v0h1v0v0v0v0v0v0v0v-1v0v0v0v0v0v0v0v0v0v0v0h1v0v0v0v0v0v0v0v-1v0v0v0v0v0v0v0v0v0v0v0h1v0v0v0v0v0v0v0v-1v0v0v0v0v0v0v0v0v0v0v0h1v0v0v0v0v0v0v0v-1v0v0v0v0v0
v0v0v0v0v0v0h1v0v0v0v0v0v0v0v-1v0v0v0v0v0v0v0v0v0v0v0h1v0v0v0v0v0v0v0v-1v0v0v0v0v0v0v0v0v0v0v0h1v0v0v0v0v0v0v0v-1v0v0v0v0v0v0v0v0v0v0v0h1v0v0v0v0v0v0v0v-1v0v0v0v0v0v0v0v0v0v0v0h1v0v0v0v0v0v0v0v-1v0v0v0v0v0v0v0v0v0v0v0h1v0v0v0v0v0v0v0v-1v0v0v0v0v0v0v0v0v0
v0v0h1v0v0v0v0v0v0v0v-1v0v0v0v0v0v0v0v0v0v0v0h1v0v0v0v0v0v0v0v-1v0v0v0v0v0v0v0v0v0v0v0h1v0v0v0v0v0v0v0v-1v0v0v0v0v0v0v0v0v0v0v0h1v0v0v0v0v0v0v0v-1v0v0v0v0v0v0v0v0v0v0v0h1v0v0v0v0v0v0v0v-1v0v0v0v0v0v0v0v0v0v0v0h1v0v0v0v0v0v0v0v-1v0v0v0v0v0v0v0v0v0v0v0h1v0
v0v0v0v0v0v0v-1v0v0v0v0v0v0v0v0v0v0v0h1v0v0v0v0v0v0v0v-1v0v0v0v0v0v0v0v0v0v0v0h1v0v0v0v0v0v0v0v-1l-81 -8v0h-16v0v-32v0h16h89l-28 -29v0l-12 -11v0l23 -23v0l11 12v0l56 56v0l12 11v0l-12 11v0l-11 -11v0l11 11v0v0v0v0v0v0v0v0v0v0v0v0v0v0v0v0v0v0v0v0v0v0v0v0v0v0
v0v0v0v0v0v0v0v0v0v0v0v0v0v0v0v0v0v0v0v0v0v0v0v0v0v0v0v0v0v0v0v0v0v0v0v0v0v0v0v0v0v0v0v0v0v0v0v0v0v0v0v0v0v0v0v0v0v0v0v0v0v0v0v0v0v0v0v0v0v0v0v0v0v0v0v0v0v0v0v0v0v0v0v0v0v0v0v0v0v0v0v0v0v0v0v0v0v0v0v0v0v0v0v0v0v0v0v0v0v0v0v0v0v0v0v1v0v0v0v0v0v0v0v0v0v0v0
h-1v0v0v0v0v0v0v1v0v0v0v0v0v0v0v0v0v0v0v0h-1v0v0v0v0v0v0v1v0v0v0v0v0v0v0v0v0v0v0v0h-1v0v0v0v0v0v1v0v0v0v0v0v0v0v0v0v0v0v0h-1v0v0v0v0v0v1v0v0v0v0v0v0v0v0v0v0v0v0v0h-1v0v0v0v0v0v1v0v0v0v0v0v0v0v0v0v0v0v0v0h-1v0v0v0v0v0v1v0v0v0v0v0v0v0v0v0v0v0v0v0h-1v0v0v0
v0v0v1v0v0v0v0v0v0v0v0v0v0v0v0v0h-1v0v0v0v0v0v1v0v0v0v0v0v0v0v0v0v0v0v0v0h-1v0v0v0v0v0v1v0v0v0v0v0v0v0v0v0v0v0v0v0h-1v0v0v0v0v0v1v0v0v0v0v0v0v0v0v0v0v0v0v0h-1v0v0v0v0v0v1v0v0v0v0v0v0v0v0v0v0v0v0v0h-1v0v0v0v0v0v1v0v0v0v0v0v0v0v0v0v0v0v0v0h-1v0v0v0v0v0v1v0
v0v0v0v0v0v0v0v0v0v0v0v0h-1v0v0v0v0v0v1v0v0v0v0v0v0v0v0v0v0v0v0v0h-1v0v0v0v0v0v1v0v0v0v0v0v0v0v0v0v0v0v0v0h-1v0v0v0v0v0v1v0v0v0v0v0v0v0v0v0v0v0v0v0h-1v0v0v0v0v0v1v0v0v0v0v0v0v0v0v0v0v0v0v0h-1v0v0v0v0v0v1v0v0v0v0v0v0v0v0v0v0v0v0v0h-1v0v0v0v0v0v1v0v0v0v0v0
v0v0v0v0v0v0v0v0h-1v0v0v0v0v0v1v0v0v0v0v0v0v0v0v0v0v0v0v0h-1v0v0v0v0v0v1v0v0v0v0v0v0v0v0v0v0v0v0v0h-1v0v0v0v0v0v1v0v0v0v0v0v0v0v0v0v0v0v0v0h-1v0v0v0v0v0v1v0v0v0v0v0v0v0v0v0v0v0v0v0h-1v0v0v0v0v0v1v0v0v0v0v0v0v0v0v0v0v0v0v0h-1v0v0v0v0v0v1v0v0v0v0v0v0v0v0v0
v0v0v0v0h-1v0v0v0v0v0v1v0v0v0v0v0v0v0v0v0v0v0v0v0h-1v0v0v0v0v0v1v0v0v0v0v0v0v0v0v0v0v0v0v0h-1v0v0v0v0v0v1v0v0v0v0v0v0v0v0v0v0v0v0v0h-1v0v0v0v0v0v1v0v0v0v0v0v0v0v0v0v0v0v0v0h-1v0v0v0v0v0v1v0v0v0v0v0v0v0v0v0v0v0v0v0h-1v0v0v0v0v0v1v0v0v0v0v0v0v0v0v0v0v0v0v0
h-1v0v0v0v0v0v1v0v0v0v0v0v0v0v0v0v0v0v0v0h-1v0v0v0v0v0v1v0v0v0v0v0v0v0v0v0v0v0v0v0h-1v0v0v0v0v0v1v0v0v0v0v0v0v0v0v0v0v0v0v0h-1v0v0v0v0v0v1v0v0v0v0v0v0v0v0v0v0v0v0v0h-1v0v0v0v0v0v1v0v0v0v0v0v0v0v0v0v0v0v0v0h-1v0v0v0v0v0v1v0v0v0v0v0v0v0v0v0v0v0v0v0h-1v0v0
v0v0v0v1v0v0v0v0v0v0v0v0v0v0v0v0v0h-1v0v0v0v0v0v1v0v0v0v0v0v0v0v0v0v0v0v0v0h-1v0v0v0v0v0v1v0v0v0v0v0v0v0v0v0v0v0v0v0h-1v0v0v0v0v0v1v0v0v0v0v0v0v0v0v0v0v0v0v0h-1v0v0v0v0v0v1v0v0v0v0v0v0v0v0v0v0v0v0v0h-1v0v0v0v0v0v1v0v0v0v0v0v0v0v0v0v0v0v0v0h-1v0v0v0v0v0v1
v0l-23 23v0z" />
    <glyph glyph-name="book-circle-arrow-up" unicode="&#xe0bd;" horiz-adv-x="640" 
d="M64 448q-27 -1 -45 -19v0v0q-18 -18 -19 -45v-384v0v0v0q1 -27 19 -45t45 -19h331v0q-20 14 -35 32h-296v0q-14 0 -23 9t-9 23t9 23t23 9h263v0q-5 15 -6 32h-257v0q-18 0 -32 -9v329v0q0 14 9 23t23 9h352v0v-179v0q15 8 32 12v183v0v16v0h-16h-368zM384 80q0 30 15 56
v0v0q15 26 41 41t56 15t56 -15t41 -41t15 -56t-15 -56t-41 -41t-56 -15t-56 15t-41 41t-15 56v0zM640 80q0 39 -19 72v0v0q-19 33 -53 53q-34 19 -72 19t-72 -19q-34 -20 -53 -53t-19 -72t19 -72t53 -53q34 -19 72 -19t72 19q34 20 53 53t19 72v0zM417 88l23 -23l-23 23
l23 -23l11 12v0v0v0h1v0v0v0v0v0v0v0v0v0v0v0v1v0v0v0v0v0v0v0h1v0v0v0v0v0v0v0v0v0v0v0v1v0v0v0v0v0v0v0h1v0v0v0v0v0v0v0v0v0v0v0v1v0v0v0v0v0v0v0h1v0v0v0v0v0v0v0v0v0v0v0v1v0v0v0v0v0v0v0h1v0v0v0v0v0v0v0v0v0v0v0v1v0v0v0v0v0v0v0h1v0v0v0v0v0v0v0v0v0v0v0v1v0v0v0v0
v0v0v0h1v0v0v0v0v0v0v0v0v0v0v0v1v0v0v0v0v0v0v0h1v0v0v0v0v0v0v0v0v0v0v0v1v0v0v0v0v0v0v0h1v0v0v0v0v0v0v0v0v0v0v0v1v0v0v0v0v0v0v0h1v0v0v0v0v0v0v0v0v0v0v0v1v0v0v0v0v0v0v0h1v0v0v0v0v0v0v0v0v0v0v0v1v0v0v0v0v0v0v0h1v0v0v0v0v0v0v0v0v0v0v0v1v0v0v0v0v0v0v0h1v0v0v0
v0v0v0v0v0v0v0v0v1v0v0v0v0v0v0v0h1v0v0v0v0v0v0v0v0v0v0v0v1v0v0v0v0v0v0v0h1v0v0v0v0v0v0v0v0v0v0v0v1v0v0v0v0v0v0v0h1v0v0v0v0v0v0v0v0v0v0v0v1v0v0v0v0v0v0v0h1v0v0v0v0v0v0v0v0v0v0v0v1v0v0v0v0v0v0v0h1v0v0v0v0v0v0v0v0v0v0v0v1v0v0v0v0v0v0v0h1v0v0v0v0v0v0v0v0v0v0
v0v1v0v0v0v0v0v0v0h1v0v0v0v0v0v0v0v0v0v0v0v1v0v0v0v0v0v0v0h1v-89v0v-16v0h32v0v16v0v89v0l28 -29v0l20 -3v0l23 23v0l-12 11v0l-56 56v0l-11 12v0l-11 -12v0l11 -11v0l-11 11v0v0v0v0v0v0v0v0v0v0v0v0v0v0v0v0v0v0v0v0v0v0v0v0v0v0v0v0v0v0v0v0v0v0v0v0v0v0v0v0v0v0v0v0
v0v0v0v0v0v0v0v0v0v0v0v0v0v0v0v0v0v0v0v0v0v0v0v0v0v0v0v0v0v0v0v0v0v0v0v0v0v0v0v0v0v0v0v0v0v0v0v0v0v0v0v0v0v0v0v0v0v0v0v0v0v0v0v0v0v0v0v0v0v0v0v0v0v0v0v0v0v0v0v0v0v0v0v0v0v0v0v0v0v0v0v0v0v0v0v0v0v0h-1v0v0v0v0v0v0v0v0v0v0v0v0v-1v0v0v0v0v0h-1v0v0v0v0v0v0v0
v0v0v0v0v0v0v-1v0v0v0v0v0h-1v0v0v0v0v0v0v0v0v0v0v0v0v0v-1v0v0v0v0h-1v0v0v0v0v0v0v0v0v0v0v0v0v0v-1v0v0v0v0v0h-1v0v0v0v0v0v0v0v0v0v0v0v0v0v-1v0v0v0v0v0h-1v0v0v0v0v0v0v0v0v0v0v0v0v0v-1v0v0v0v0v0h-1v0v0v0v0v0v0v0v0v0v0v0v0v0v-1v0v0v0v0v0h-1v0v0v0v0v0v0v0v0v0
v0v0v0v0v-1v0v0v0v0v0h-1v0v0v0v0v0v0v0v0v0v0v0v0v0v-1v0v0v0v0v0h-1v0v0v0v0v0v0v0v0v0v0v0v0v0v-1v0v0v0v0v0h-1v0v0v0v0v0v0v0v0v0v0v0v0v0v-1v0v0v0v0v0h-1v0v0v0v0v0v0v0v0v0v0v0v0v0v-1v0v0v0v0v0h-1v0v0v0v0v0v0v0v0v0v0v0v0v0v-1v0v0v0v0v0h-1v0v0v0v0v0v0v0v0v0v0
v0v0v0v-1v0v0v0v0v0h-1v0v0v0v0v0v0v0v0v0v0v0v0v0v-1v0v0v0v0v0h-1v0v0v0v0v0v0v0v0v0v0v0v0v0v-1v0v0v0v0v0h-1v0v0v0v0v0v0v0v0v0v0v0v0v0v-1v0v0v0v0v0h-1v0v0v0v0v0v0v0v0v0v0v0v0v0v-1v0v0v0v0v0h-1v0v0v0v0v0v0v0v0v0v0v0v0v0v-1v0v0v0v0v0h-1v0v0v0v0v0v0v0v0v0v0v0
v0v0v-1v0v0v0v0v0h-1v0v0v0v0v0v0v0v0v0v0v0v0v0v-1v0v0v0v0v0h-1v0v0v0v0v0v0v0v0v0v0v0v0v0v-1v0v0v0v0v0h-1v0v0v0v0v0v0v0v0v0v0v0v0v0v-1v0v0v0v0v0h-1v0v0v0v0v0v0v0v0v0v0v0v0v0v-1v0v0v0v0v0h-1v0v0v0v0v0v0v0v0v0v0v0v0v0v-1v0v0v0v0v0h-1v0v0v0v0v0v0v0v0v0v0v0v0
v0v-1v0v0v0v0v0h-1v0v0v0v0v0v0v0v0v0v0v0v0v0v-1v0v0v0v0v0h-1v0v0v0v0v0v0v0v0v0v0v0v0v0v-1v0v0v0v0v0h-1v0v0v0v0v0v0v0v0v0v0v0v0v0v-1v0v0v0v0v0h-1v0v0v0v0v0v0v0v0v0v0v0v0v0v-1v0v0v0v0v0h-1v0v0v0v0v0v0v0v0v0v0v0v0v0v-1v0v0v0v0v0h-1v0v0v0v0v0v0v0v0v0v0v0v0v0
v-1v0v0v0v0v0h-1v0v0v0v0v0v0v0v0v0v0v0v0v0v-1v0v0v0v0v0h-1v0v0v0v0v0v0v0v0v0v0v0v0v0v-1v0v0v0v0v0h-1v0v0v0v0v0v0v0v0v0v0v0v0v0v-1v0v0v0v0v0h-1v0v0v0v0v0v0v0v0v0v0v0v0v0v-1v0v0v0v0v0h-1v0v0v0v0v0v0v0v0v0v0v0v0v0v-1v0v0v0v0v0h-1v0v0v0v0v0v0v0v0v0v0v0v0v0
v-1v0v0v0v0v0h-1v0v0v0v0v0v0v0v0v0v0v0v0v0v-1v0v0v0v0v0h-1v0v0v0v0v0v0v0v0v0v0v0v0v0v-1v0v0v0v0v0h-1v0v0v0v0v0v0v0v0v0v0v0v0v0v-1v0v0v0v0v0h-1v0v0v0v0v0v0v0v0v0v0v0v0v0v-1v0v0v0v0v0h-1v0v0v0v0v0v0v0v0v0v0v0v0v0v-1v0v0v0v0v0h-1v0v0v0v0v0v0v0v0v0v0v0v0v0
v-1v0v0v0v0v0h-1v0l-23 -23v0z" />
    <glyph glyph-name="book-copy" unicode="&#xe0be;" horiz-adv-x="576" 
d="M256 448h304h-304h320v-16v0v-288v0v-16v0h-16h-16v-64v0h16h16v-32v0h-16h-304q-27 1 -45 19t-19 45v288v0q1 27 19 45t45 19v0zM224 384v-233v233v-233q14 9 32 9h272h16v256v0h-288v0q-14 0 -23 -9t-9 -23v0zM256 64h256h-256h256v64v0h-256v0q-14 0 -23 -9t-9 -23
t9 -23t23 -9v0zM64 352h96h-96h96v-32v0h-96v0q-14 0 -23 -9t-9 -23v-233v0q14 9 32 9h102v0q6 -18 19 -32h-121v0q-14 0 -23 -9t-9 -23t9 -23t23 -9h256v0v32v0h32v0v-32v0h16h16v-32v0h-16h-304q-27 1 -45 19t-19 45v288v0q1 27 19 45t45 19v0z" />
    <glyph glyph-name="book-font" unicode="&#xe0bf;" horiz-adv-x="448" 
d="M0 384q1 27 19 45v0v0q18 18 45 19h368h16v-16v0v-384v0v-16v0h-16h-16v-64v0h16h16v-32v0h-16h-368q-27 1 -45 19t-19 45v0v0v384v0zM64 32q-14 0 -23 -9v0v0q-9 -9 -9 -23t9 -23t23 -9h320v0v64v0h-320v0zM32 55q14 9 32 9h352v0v352v0h-352v0q-14 0 -23 -9t-9 -23
v-329v0zM250 352l4 -9l-4 9l4 -9l108 -215v0h-36v0l-32 64v0h-108v0l-32 -64v0h-36v0l108 215v0l4 9v0h20v0zM202 224h76h-76h76l-38 76v0l-38 -76v0z" />
    <glyph glyph-name="book-open-cover" unicode="&#xe0c0;" horiz-adv-x="640" 
d="M96 74l208 -41l-208 41l208 -41v350v0l-208 28v0v-337v0zM336 33l208 41l-208 -41l208 41v337v0l-208 -28v0v-350v0zM576 448v-32v32v-32v-368v0l-256 -51v0l-256 51v0v368v0v32v0l32 -4v0l224 -31v0l224 31v0l32 4v0zM0 419l32 -4l-32 4l32 -4v-33v0v-94v0v-259v0
l288 -57v0l288 57v0v259v0v94v0v33v0l32 4v0v-32v0v-384v0l-320 -64v0l-320 64v0v384v0v32v0z" />
    <glyph glyph-name="book-section" unicode="&#xe0c1;" horiz-adv-x="448" 
d="M0 384q1 27 19 45v0v0q18 18 45 19h368h16v-16v0v-384v0v-16v0h-16h-16v-64v0h16h16v-32v0h-16h-368q-27 1 -45 19t-19 45v0v0v384v0zM64 32q-14 0 -23 -9v0v0q-9 -9 -9 -23t9 -23t23 -9h320v0v64v0h-320v0zM32 55q14 9 32 9h352v0v352v0h-352v0q-14 0 -23 -9t-9 -23
v-329v0zM232 192l-7 2l7 -2l-7 2q-18 3 -39 16q-21 12 -17 43q3 15 16 25q-20 13 -16 42q5 23 27 33q21 10 55 6q11 -2 28 -7l-9 -29v0q-14 5 -23 6q-42 5 -49 -15q-2 -6 4 -12q6 -5 30 -12l7 -2v0v0v0v0q23 -4 45 -17q22 -12 18 -43q-3 -16 -16 -26q20 -13 16 -42
q-9 -39 -63 -40q-9 0 -19 2q-19 3 -36 9l-5 2v0l9 28v0l5 -1v0q16 -6 31 -9q42 -4 49 15q2 9 -7 14q-8 6 -34 12v0zM232 259q-1 1 -5 2v0v0q-4 1 -5 1q-7 -1 -14 -4q-8 -3 -10 -11q-2 -6 4 -12t30 -12q1 0 7 -2q7 -2 10 -3q7 1 14 4q8 4 10 11q2 9 -7 15q-8 5 -34 11v0z" />
    <glyph glyph-name="bookmark-slash" unicode="&#xe0c2;" horiz-adv-x="640" 
d="M512 416v32v-32v32h-32h-352v-23v0l32 -25v0v16v0h320v0v-269v0l32 -25v0v294v0zM160 -8v245v-245v245l-32 25v0v-289v0v-37v0l32 19v0l160 93v0l160 -93v0l32 -19v0v23v0l-69 54v0l-107 63v0l-16 9v0l-16 -9v0l-144 -84v0zM33 438l-13 10l13 -10l-13 10l-20 -25v0
l13 -10v0l595 -467v0l12 -10v0l20 25v0l-12 10v0l-595 467v0z" />
    <glyph glyph-name="bowling-ball-pin" unicode="&#xe0c3;" horiz-adv-x="576" 
d="M404 283q-6 15 -13 38v0v0q-6 24 -7 45v2v0q1 34 23 57q23 22 57 23q34 -1 57 -23q22 -23 23 -57v-2v0q-1 -30 -12 -61q-10 -31 -12 -33l56 -192v0l-40 -144v0h-144v0l-12 41v0q14 14 25 30l11 -39v0h96v0l31 112v0l-52 176v0h-54v0l-7 -21v0q-10 25 -26 48v0zM492 288v1
v0v0l2 4q3 9 8 22q9 30 10 51v2v0q-1 20 -14 34q-14 13 -34 14q-20 -1 -34 -14q-13 -14 -14 -34v-2v0q1 -21 11 -51q4 -13 7 -22q1 -3 2 -5h56v0zM176 184q2 22 24 24q22 -2 24 -24q-2 -22 -24 -24q-22 2 -24 24v0zM120 224q22 -2 24 -24q-2 -22 -24 -24q-22 2 -24 24
q2 22 24 24v0zM176 264q2 22 24 24q22 -2 24 -24q-2 -22 -24 -24q-22 2 -24 24v0zM384 144q0 48 -24 88v0v0q-23 40 -64 64q-42 24 -88 24t-88 -24q-41 -24 -64 -64q-24 -40 -24 -88t24 -88q23 -40 64 -64q42 -24 88 -24t88 24q41 24 64 64q24 40 24 88v0zM0 144
q0 57 28 104v0v0q27 47 76 76q49 28 104 28t104 -28q49 -29 76 -76q28 -47 28 -104t-28 -104q-27 -47 -76 -76q-49 -28 -104 -28t-104 28q-49 29 -76 76q-28 47 -28 104v0z" />
    <glyph glyph-name="box-circle-check" unicode="&#xe0c4;" horiz-adv-x="576" 
d="M42 288l43 96l-43 -96l43 96h123v0v-96v0h-166v0zM208 256h32h-32h240v16v0l-64 144v0h-320v0l-64 -144v0v-272v0v-32v0h32h264q-12 15 -21 32h-243v0v256v0h176v0zM363 384l43 -96l-43 96l43 -96h-166v0v96v0h123v0zM432 192q30 0 56 -15v0v0q26 -15 41 -41t15 -56
t-15 -56t-41 -41t-56 -15t-56 15t-41 41t-15 56t15 56t41 41t56 15v0zM432 -64q39 0 72 19v0v0q33 19 53 53q19 34 19 72t-19 72q-20 34 -53 53t-72 19t-72 -19t-53 -53q-19 -34 -19 -72t19 -72q20 -34 53 -53t72 -19v0zM511 112l-23 23l23 -23l-23 23l-11 -12v0l-61 -60v0
l-29 28v0l-11 12v0l-23 -23v0l12 -11v0l40 -40v0l11 -12v0l11 12v0l72 72v0l12 11v0z" />
    <glyph glyph-name="brackets-round" unicode="&#xe0c5;" 
d="M136 414q-23 -12 -55 -42v0v0q-32 -29 -56 -75v0v0q-24 -45 -25 -105q1 -60 25 -105q24 -46 56 -75q32 -30 55 -42l16 28v0q-22 11 -49 37q-28 26 -49 66t-22 91q1 51 22 91t49 66q27 26 49 37l-16 28v0zM376 414l-16 -28l16 28l-16 -28q22 -11 49 -37q28 -26 49 -66
t22 -91q-1 -51 -22 -91t-49 -66q-27 -26 -49 -37l16 -28v0q23 12 55 42q32 29 56 75q24 45 25 105q-1 60 -25 105q-24 46 -56 75q-32 30 -55 42v0z" />
    <glyph glyph-name="brain-circuit" unicode="&#xe0c6;" 
d="M192 416h48h-48h48v-48v0v-48v0h-27v0q-11 23 -37 24q-17 0 -28 -12q-12 -11 -12 -28t12 -28q11 -12 28 -12q26 1 37 24h27v0v-112v0h-80h-16v-16v0v-27v0q-23 -11 -24 -37q0 -17 12 -28q11 -12 28 -12t28 12q12 11 12 28q-1 26 -24 37v11v0h64v0v-128v0v-48v0h-48v0
q-33 2 -45 31l-4 12v0l-13 -2v0q-5 -1 -10 -1q-24 1 -39 16q-16 16 -17 40q0 12 5 22l5 12v0l-12 8v0q-29 18 -30 54q1 30 22 48l8 7v0l-4 10v0q-2 7 -2 15q2 33 31 45l12 5v0l-2 13v0q-1 4 -1 9q0 17 10 30q10 12 26 17l11 2v0l1 12v0q2 18 16 30q13 13 32 13v0zM272 288
h64h-64h64v-27v0q-23 -11 -24 -37q0 -17 12 -28q11 -12 28 -12t28 12q12 11 12 28q-1 26 -24 37v43v0v16v0h-16h-80v48v0v48v0h48v0q19 0 32 -13q14 -12 16 -30l1 -12v0l11 -3v0q16 -4 26 -16q10 -13 10 -30q0 -5 -1 -9l-2 -13v0l12 -5v0q29 -12 31 -45q0 -8 -2 -15l-4 -10
v0l8 -7v0q21 -18 22 -48q-1 -36 -30 -54l-12 -8v0l5 -12v0q5 -10 5 -22q-1 -24 -17 -39q-15 -16 -39 -17q-5 0 -10 1l-12 2v0l-5 -12v0q-12 -29 -45 -31h-48v0v48v0v48v0h59v0q11 -23 37 -24q17 0 28 12q12 11 12 28t-12 28q-11 12 -28 12q-26 -1 -37 -24h-59v0v192v0z
M192 -64h48h-48h128q47 2 69 40h2h1q37 1 62 26t26 62q0 11 -3 22q34 28 35 74q-1 39 -25 65q1 7 1 15q-2 47 -40 69v2v1q0 26 -14 45q-14 20 -36 29q-7 27 -28 44t-50 18h-48h-80q-29 -1 -50 -18t-28 -44q-22 -9 -36 -29q-14 -19 -14 -45v-1v-2q-38 -22 -40 -69q0 -8 1 -15
q-24 -26 -25 -65q2 -46 35 -74q-3 -11 -3 -22q1 -37 26 -62t62 -26h1h2q23 -38 69 -40v0zM176 320q15 -1 16 -16q-1 -15 -16 -16q-15 1 -16 16q1 15 16 16v0zM160 112q15 -1 16 -16q-1 -15 -16 -16q-15 1 -16 16q1 15 16 16v0zM336 224q1 15 16 16q15 -1 16 -16
q-1 -15 -16 -16q-15 1 -16 16v0zM368 96q15 -1 16 -16q-1 -15 -16 -16q-15 1 -16 16q1 15 16 16v0z" />
    <glyph glyph-name="brake-warning" unicode="&#xe0c7;" horiz-adv-x="640" 
d="M320 384q52 0 96 -26v0v0q44 -25 70 -70t26 -96t-26 -96t-70 -70q-44 -26 -96 -26t-96 26q-44 25 -70 70t-26 96t26 96t70 70q44 26 96 26v0zM320 -32q61 1 112 30v0v0q51 30 82 82q30 53 30 112t-30 112q-31 52 -82 82q-51 29 -112 30q-61 -1 -112 -30q-51 -30 -82 -82
q-30 -53 -30 -112t30 -112q31 -52 82 -82q51 -29 112 -30v0zM336 304v16v-16v16h-32v0v-16v0v-128v0v-16v0h32v0v16v0v128v0zM296 128v-48v48v-48h48v0v48v0h-48v0zM78 347l8 14l-8 -14l8 14l-27 17v0l-8 -13v0q-50 -76 -51 -173q1 -97 51 -173l8 -13v0l27 17v0l-9 14v0
q-44 68 -45 155q1 87 46 155v0zM590 365l-9 13l9 -13l-9 13l-27 -17v0l9 -14v0q44 -68 45 -155q-1 -87 -45 -155l-9 -14v0l27 -17v0l8 13v0q50 76 51 173q-1 97 -50 173v0z" />
    <glyph glyph-name="briefcase-blank" unicode="&#xe0c8;" 
d="M144 448h-16h16h-16v-16v0v-80v0h-96h-32v-32v0v-320v0v-32v0h32h480v32v0v320v0v32v0h-32h-96v80v0v16v0h-16h-224zM352 352h-192h192h-192v64v0h192v0v-64v0zM144 320h224h-224h336v-320v0h-448v0v320v0h112v0z" />
    <glyph glyph-name="brightness" unicode="&#xe0c9;" 
d="M240 344v-16v16v-16h32v0v16v0v88v0v16v0h-32v0v-16v0v-88v0zM256 256q36 -1 55 -32q18 -32 0 -64q-19 -31 -55 -32q-36 1 -55 32q-18 32 0 64q19 31 55 32v0zM256 96q26 0 48 13v0v0q22 13 35 35q13 23 13 48t-13 48q-13 22 -35 35t-48 13t-48 -13t-35 -35
q-13 -23 -13 -48t13 -48q13 -22 35 -35t48 -13v0zM240 -64h32h-32h32v16v0v80v0v16v0h-32v0v-16v0v-80v0v-16v0zM0 208v-32v32v-32h16h96v32v0h-16h-96zM408 208h-16h16h-16v-32v0h16h104v32v0h-16h-88zM64 22l22 -22l-22 22l22 -22l12 11v0l56 57v0l12 11v0l-23 22v0
l-11 -11v0l-57 -56v0l-11 -12v0zM352 311l-11 -12l11 12l-11 -12l23 -22v0l11 11v0l62 62v0l11 12v0l-22 22v0l-12 -11v0l-62 -62v0zM86 384l-22 -22l22 22l-22 -22l11 -12v0l57 -56v0l11 -12v0l23 23v0l-12 11v0l-56 57v0l-12 11v0zM375 96l-11 11l11 -11l-11 11l-23 -23v0
l11 -11v0l62 -62v0l12 -11v0l22 22v0l-11 12v0l-62 62v0z" />
    <glyph glyph-name="brightness-low" unicode="&#xe0ca;" 
d="M232 392v-48v48v-48h48v0v48v0h-48v0zM256 256q36 -1 55 -32q18 -32 0 -64q-19 -31 -55 -32q-36 1 -55 32q-18 32 0 64q19 31 55 32v0zM256 96q26 0 48 13v0v0q22 13 35 35q13 23 13 48t-13 48q-13 22 -35 35t-48 13t-48 -13t-35 -35q-13 -23 -13 -48t13 -48
q13 -22 35 -35t48 -13v0zM132 350l-34 -34l34 34l-34 -34l34 -33v0l33 33v0l-33 34v0zM56 168h48h-48h48v48v0h-48v0v-48v0zM98 67l34 -33l-34 33l34 -33l33 33v0l-33 34v0l-34 -34v0zM280 40h-48h48h-48v-48v0h48v0v48v0zM380 101l-33 -33l33 33l-33 -33l33 -34v0l34 34v0
l-34 33v0zM408 216v-48v48v-48h48v0v48v0h-48v0zM347 316l33 -33l-33 33l33 -33l34 33v0l-34 34v0l-33 -34v0z" />
    <glyph glyph-name="browsers" unicode="&#xe0cb;" horiz-adv-x="576" 
d="M544 416v-64v64v-64h-288v0v64v0h288v0zM128 416h96h-96h96v-64v0h-96v0v64v0zM128 64v256v-256v256h112h304v-256v0h-416v0zM128 448h-32h32h-32v-32v0v-352v0v-32v0h32h448v32v0v352v0v32v0h-32h-416zM32 336v16v-16v16h-32v0v-16v0v-384v0v-16v0h16h464v32v0h-16h-432
v368v0z" />
    <glyph glyph-name="buildings" unicode="&#xe0cc;" 
d="M480 416v-448v448v-448h-224v0v448v0h224v0zM256 448h-32h32h-32v-32v0v-448v0v-32v0h32h256v32v0v448v0v32v0h-32h-224zM192 320h-16h16h-192v-16v0v-352v0v-16v0h16h176v32v0h-16h-144v320v0h144h16v32v0zM80 128h-16h16h-16v-16v0v-64v0v-16v0h16h80v16v0v64v0v16v0
h-16h-64zM96 64v32v-32v32h32v0v-32v0h-32v0zM320 32h16h-16h96v16v0v64v0v16v0h-16h-80v-16v0v-64v0v-16v0zM352 64v32v-32v32h32v0v-32v0h-32v0zM80 256h-16h16h-16v-16v0v-64v0v-16v0h16h80v16v0v64v0v16v0h-16h-64zM96 192v32v-32v32h32v0v-32v0h-32v0zM320 384v-16v16
v-16v-64v0v-16v0h16h80v16v0v64v0v16v0h-16h-80zM352 352h32h-32h32v-32v0h-32v0v32v0zM336 160h64h-64h80v16v0v64v0v16v0h-16h-80v-16v0v-64v0v-16v0h16v0zM352 224h32h-32h32v-32v0h-32v0v32v0z" />
    <glyph glyph-name="burger-fries" unicode="&#xe0cd;" horiz-adv-x="640" 
d="M144 445l23 -12l-23 12l23 -12l64 -32v0l9 -4v0v-10v0v-195v0v-16v0h-32v0v16v0v185v0l-32 16v0v-201v0v-16v0h-32v0v16v0v227v0v26v0zM302 242l-30 -42l30 42l-30 -42v39v0l27 124v0l-27 -5v0v33v0l45 9v0l24 4v0l-5 -23v0l-29 -131v0l-5 -8v0zM333 256l19 99l-19 -99
l19 99l32 -6v0l-16 -77v0q-19 -7 -35 -16v0v0zM112 144h144h-144h144v-32v0h-144h-18l-9 15v0l-39 65v0h-6v0l50 -224v0h166v0v-32v0h-192v0l-57 256v0l-7 32v0h33h31l48 -80v0zM19 256l-19 93l19 -93l-19 93l32 6v0l20 -99v0h-33v0zM82 242l-2 3l2 -3l-2 3l-24 144v0l-2 12
v0l11 5v0l47 24v0v-36v0l-22 -11v0l33 -199v0l-41 58v0zM326 162q-4 -4 -6 -7v-11v0h288v0v11v0q-2 3 -5 7q-9 11 -27 26q-7 5 -16 11q-2 -14 -16 -15q-14 2 -16 16q0 7 5 12q-23 9 -55 12q2 -4 2 -8q-1 -14 -16 -16q-14 2 -16 16q0 4 2 8q-31 -3 -55 -12q5 -5 5 -12
q-1 -14 -16 -16q-13 1 -16 15q-9 -6 -16 -11q-18 -15 -26 -26v0zM638 168l2 -3l-2 3l2 -3v-5v0v-32v0v-16v0h-16h-336v16v0v32v0v5v0l2 3v0l14 -8v0q-10 6 -12 7q-2 2 -2 1v0v0v0v0v1v0h1v0v1q1 0 1 2q1 0 1 1v0q3 4 8 10q10 13 31 30t54 30q33 12 78 13q45 -1 78 -13
q33 -13 54 -30t31 -30q5 -6 8 -10v0q1 -2 2 -3q0 -1 1 -1v0v0v-1v0v0v0v0v0l-14 -8v0l14 8v0zM288 88h16h-16h352v-32v0h-16h-336v32v0zM288 32h16h-16h352v-16v0v-64v0v-16v0h-16h-336v16v0v64v0v16v0zM320 0v-32v32v-32h288v0v32v0h-288v0z" />
    <glyph glyph-name="burger-glass" unicode="&#xe0ce;" horiz-adv-x="640" 
d="M47 256l23 -288l-23 288l23 -288h186v0v-32v0h-216v0l-37 480v0l-3 32v0h32h352l-2 -32v0l-12 -143v0q-20 -7 -37 -17h-286v0zM45 288h294h-294h294l10 128v0h-314v0l10 -128v0zM326 162q-4 -4 -6 -7v-11v0h288v0v11v0q-2 3 -5 7q-9 11 -27 25q-7 6 -16 12
q-2 -14 -16 -15q-14 2 -16 16q0 7 5 12q-23 9 -55 12q2 -4 2 -8q-1 -15 -16 -16q-14 1 -16 16q0 4 2 8q-31 -3 -55 -12q5 -5 5 -12q-1 -14 -16 -16q-13 1 -16 15q-9 -6 -16 -12q-18 -14 -26 -25v0zM638 168l2 -3l-2 3l2 -3v-5v0v-32v0v-16v0h-16h-336v16v0v32v0v5v0l2 3v0
l14 -8v0q-10 6 -12 7q-2 2 -2 1v0v0v0v0v0v0l1 1v0v1q1 0 1 1q1 1 1 2v0q3 4 8 10q10 13 31 30t54 30q33 12 78 13q45 -1 78 -14q33 -12 54 -29t31 -30q5 -6 8 -10v-1l2 -2q0 -1 1 -1v-1v0v0v0v0v0v0v0l-14 -8v0l14 8v0zM288 88h16h-16h352v-32v0h-16h-336v32v0zM288 32h16
h-16h352v-16v0v-64v0v-16v0h-16h-336v16v0v64v0v16v0zM320 0v-32v32v-32h288v0v32v0h-288v0z" />
    <glyph glyph-name="calendar-arrow-down" unicode="&#xe0d0;" horiz-adv-x="448" 
d="M128 432v16v-16v16h-32v0v-16v0v-48v0h-64h-32v-32v0v-64v0v-32v0v-288v0v-32v0h32h416v32v0v288v0v32v0v64v0v32v0h-32h-64v48v0v16v0h-32v0v-16v0v-48v0h-192v0v48v0zM32 256h384h-384h384v-288v0h-384v0v288v0zM32 352h384h-384h384v-64v0h-384v0v64v0zM240 192v16
v-16v16h-32v0v-16v0v-121v0l-53 52v0l-11 12v0l-23 -23v0l12 -11v0l80 -80v0l11 -12v0l11 12v0l80 80v0l12 11v0l-23 23v0l-11 -12v0l-53 -52v0v121v0z" />
    <glyph glyph-name="calendar-arrow-up" unicode="&#xe0d1;" horiz-adv-x="448" 
d="M128 432v16v-16v16h-32v0v-16v0v-48v0h-64h-32v-32v0v-64v0v-32v0v-288v0v-32v0h32h416v32v0v288v0v32v0v64v0v32v0h-32h-64v48v0v16v0h-32v0v-16v0v-48v0h-192v0v48v0zM32 256h384h-384h384v-288v0h-384v0v288v0zM32 352h384h-384h384v-64v0h-384v0v64v0zM208 40v-16v16
v-16h32v0v16v0v121v0l53 -52v0l11 -12v0l23 23v0l-12 11v0l-80 80v0l-11 12v0l-11 -12v0l-80 -80v0l-12 -11v0l23 -23v0l11 12v0l53 52v0v-121v0z" />
    <glyph glyph-name="calendar-clock" unicode="&#xe0d2;" horiz-adv-x="576" 
d="M128 448v-16v16v-16v-48v0h192v0v48v0v16v0h32v0v-16v0v-48v0h64h32v-32v0v-64v0v-32v0v-1v0q-8 1 -16 1t-16 -1v1v0h-384v0v-288v0h264v0q15 -18 35 -32h-299h-32v32v0v288v0v32v0v64v0v32v0h32h64v48v0v16v0h32v0zM416 352h-384h384h-384v-64v0h384v0v64v0zM432 -32
q30 0 56 15v0v0q26 15 41 41t15 56t-15 56t-41 41t-56 15t-56 -15t-41 -41t-15 -56t15 -56t41 -41t56 -15v0zM432 224q39 0 72 -19v0v0q33 -19 53 -53q19 -34 19 -72t-19 -72q-20 -34 -53 -53t-72 -19t-72 19t-53 53q-19 34 -19 72t19 72q20 34 53 53t72 19v0zM448 160v-16
v16v-16v-48v0h32h16v-32v0h-16h-64v16v0v64v0v16v0h32v0z" />
    <glyph glyph-name="calendar-heart" unicode="&#xe0d3;" horiz-adv-x="448" 
d="M128 432v16v-16v16h-32v0v-16v0v-48v0h-64h-32v-32v0v-64v0v-32v0v-288v0v-32v0h32h416v32v0v288v0v32v0v64v0v32v0h-32h-64v48v0v16v0h-32v0v-16v0v-48v0h-192v0v48v0zM32 256h384h-384h384v-288v0h-384v0v288v0zM32 352h384h-384h384v-64v0h-384v0v64v0zM216 191
q-18 17 -42 17h-3v0q-25 -1 -42 -17q-16 -17 -17 -42q0 -25 18 -43l83 -80v0l11 -10v0l11 11v0l83 79v0q18 18 18 43q-1 25 -17 42q-17 16 -42 17h-2v0q-25 0 -43 -17l-8 -7v0l-8 7v0zM296 129l-72 -69l72 69l-72 -69l-72 69v0q-8 8 -8 20q0 11 8 19t19 8h3v0q12 0 20 -8
l8 -8v0l22 -21v0l22 21v0l8 8v0q9 8 20 8h3v0q11 0 19 -8t8 -19q0 -12 -8 -20v0z" />
    <glyph glyph-name="calendar-image" unicode="&#xe0d4;" horiz-adv-x="448" 
d="M128 448v-16v16v-16v-48v0h192v0v48v0v16v0h32v0v-16v0v-48v0h64h32v-32v0v-64v0v-32v0v-288v0v-32v0h-32h-416v32v0v288v0v32v0v64v0v32v0h32h64v48v0v16v0h32v0zM416 256h-384h384h-384v-288v0h384v0v288v0zM416 352h-384h384h-384v-64v0h384v0v64v0zM251 196l13 -19
l-13 19l13 -19l109 -152v0l18 -25v0h-31h-303l18 25v0l68 97v0l11 16v0l13 -14v0l21 -21v0l50 74v0l13 19v0zM252 140l-49 -71l49 71l-49 -71l-11 -16v0l-13 14v0l-21 21v0l-39 -56v0h210v0l-77 108v0zM96 216q22 -2 24 -24q-2 -22 -24 -24q-22 2 -24 24q2 22 24 24v0z" />
    <glyph glyph-name="calendar-lines" unicode="&#xe0d5;" horiz-adv-x="448" 
d="M128 448v-16v16v-16v-48v0h192v0v48v0v16v0h32v0v-16v0v-48v0h64h32v-32v0v-64v0v-32v0v-288v0v-32v0h-32h-416v32v0v288v0v32v0v64v0v32v0h32h64v48v0v16v0h32v0zM416 256h-384h384h-384v-288v0h384v0v288v0zM416 352h-384h384h-384v-64v0h384v0v64v0zM96 96h16h-16h160
v-32v0h-16h-144v32v0zM112 192h224h-224h240v-32v0h-16h-240v32v0h16v0z" />
    <glyph glyph-name="calendar-range" unicode="&#xe0d6;" horiz-adv-x="448" 
d="M128 448v-16v16v-16v-48v0h192v0v48v0v16v0h32v0v-16v0v-48v0h64h32v-32v0v-64v0v-32v0v-288v0v-32v0h-32h-416v32v0v288v0v32v0v64v0v32v0h32h64v48v0v16v0h32v0zM416 256h-384h384h-384v-288v0h384v0v288v0zM416 352h-384h384h-384v-64v0h384v0v64v0zM384 160h-16h16
h-192v32v0h16h176v-32v0zM240 32h-160h160h-176v32v0h16h176v-32v0h-16v0zM128 192h-32h32h-32v-32v0h32v0v32v0zM96 224h32h-32h64v-32v0v-32v0v-32v0h-32h-64v32v0v32v0v32v0h32v0zM320 64v-32v32v-32h32v0v32v0h-32v0zM288 96h32h-32h96v-32v0v-32v0v-32v0h-32h-64v32v0
v32v0v32v0z" />
    <glyph glyph-name="calendars" unicode="&#xe0d7;" 
d="M224 448v-16v16v-16v-48v0h160v0v48v0v16v0h32v0v-16v0v-48v0h64h32v-32v0v-96v0v-192v0v-32v0h-32h-384v32v0v192v0v96v0v32v0h32h64v48v0v16v0h32v0zM128 352v-64v64v-64h352v0v64v0h-352v0zM480 256h-352h352h-352v-192v0h352v0v192v0zM32 240v-272v272v-272h336h16
v-32v0h-16h-368v16v0v288v0v16v0h32v0v-16v0z" />
    <glyph glyph-name="camera-rotate" unicode="&#xe0d8;" horiz-adv-x="640" 
d="M224 416h192h-192h192l21 -64v0h107h32v-32v0v-320v0v-32v0h-32h-480v32v0v320v0v32v0h32h107l21 64v0zM437 320h-23h23h-23l-7 22v0l-14 42v0h-146v0l-14 -42v0l-7 -22v0h-23h-107v-320v0h448v0v320v0h-107v0zM224 144h64h-64h80v-32v0h-16h-25l14 -14v0q18 -18 43 -18
q43 2 67 36l26 -18v0q-15 -23 -39 -36q-24 -14 -54 -14q-38 1 -66 27l-14 14v0v-25v0v-16v0h-32v0v16v0v64v0v16v0h16v0zM432 176h-16h16h-96v32v0h16h25l-14 14v0q-18 18 -43 18q-43 -2 -67 -36l-26 18v0q15 23 39 36q24 14 54 14q38 -1 66 -27l14 -14v0v25v0v16v0h32v0
v-16v0v-64v0v-16v0z" />
    <glyph glyph-name="camera-slash" unicode="&#xe0d9;" horiz-adv-x="640" 
d="M32 438l-12 10l12 -10l-12 10l-20 -25v0l13 -10v0l595 -467v0l12 -10v0l20 25v0l-12 10v0l-596 467v0zM500 -32l-40 32l40 -32l-40 32h-364v0v287v0l-32 26v0v-313v0v-32v0h32h404zM206 363l27 -21l-27 21l27 -21l14 42v0h146v0l14 -42v0l7 -22v0h23h107v-223v0l32 -26v0
v249v0v32v0h-32h-107l-21 64v0h-192v0l-18 -53v0zM213 195q-5 -17 -5 -35q1 -48 33 -79q31 -32 79 -33q32 0 58 16l-27 22v0q-15 -6 -31 -6q-34 1 -57 24q-22 22 -23 56q0 7 1 13l-28 22v0z" />
    <glyph glyph-name="camera-viewfinder" unicode="&#xe0da;" 
d="M0 448h16h-16h160v-32v0h-16h-112v-112v0v-16v0h-32v0v16v0v128v0v16v0zM320 352l12 -32l-12 32l12 -32h52h32v-32v0v-192v0v-32v0h-32h-288v32v0v192v0v32v0h32h52l12 32v0h128v0zM332 288h-22h22h-22l-8 21v0l-4 11v0h-84v0l-4 -11v0l-8 -21v0h-22h-52v-192v0h256v0
v192v0h-52v0zM288 192q0 14 -9 23v0v0q-9 9 -23 9t-23 -9t-9 -23t9 -23t23 -9t23 9t9 23v0zM192 192q1 36 32 55q32 18 64 0q31 -19 32 -55q-1 -36 -32 -55q-32 -18 -64 0q-31 19 -32 55v0zM496 448h16h-16h16v-16v0v-128v0v-16v0h-32v0v16v0v112v0h-112h-16v32v0h16h128z
M0 -64v16v-16v16v128v0v16v0h32v0v-16v0v-112v0h112h16v-32v0h-16h-144zM496 -64h-128h128h-144v32v0h16h112v112v0v16v0h32v0v-16v0v-128v0v-16v0h-16v0z" />
    <glyph glyph-name="cart-minus" unicode="&#xe0db;" horiz-adv-x="576" 
d="M0 448h16h-16h93l3 -13v0l55 -243v0h325v0l66 224v0h33v0l-72 -245v0l-3 -11v0h-12h-330l15 -64v0h323h16v-32v0h-16h-349l-3 12v0l-77 340v0h-51h-16v32v0zM184 -32q22 2 24 24q-2 22 -24 24q-22 -2 -24 -24q2 -22 24 -24v0zM184 48q32 -1 48 -28q16 -28 0 -56
q-16 -27 -48 -28q-32 1 -48 28q-16 28 0 56q16 27 48 28v0zM480 -8q-2 22 -24 24q-22 -2 -24 -24q2 -22 24 -24q22 2 24 24v0zM400 -8q1 32 28 48q28 16 56 0q27 -16 28 -48q-1 -32 -28 -48q-28 -16 -56 0q-27 16 -28 48v0zM256 336h128h-128h144v-32v0h-16h-144v32v0h16v0z
" />
    <glyph glyph-name="cart-shopping-fast" unicode="&#xe0dc;" horiz-adv-x="640" 
d="M64 448h16h-16h93l3 -13v0l4 -19v0h442h34l-10 -32v0l-70 -224v0h-338v0l15 -64v0h323h16v-32v0h-16h-349l-3 12v0l-77 340v0h-51h-16v32v0zM537 192l60 192l-60 -192l60 192h-426v0l44 -192v0h322v0zM272 -8q-2 22 -24 24q-22 -2 -24 -24q2 -22 24 -24q22 2 24 24v0z
M192 -8q1 32 28 48q28 16 56 0q27 -16 28 -48q-1 -32 -28 -48q-28 -16 -56 0q-27 16 -28 48v0zM520 -32q22 2 24 24q-2 22 -24 24q-22 -2 -24 -24q2 -22 24 -24v0zM520 48q32 -1 48 -28q16 -28 0 -56q-16 -27 -48 -28q-32 1 -48 28q-16 28 0 56q16 27 48 28v0zM16 320h96
h-96h112v-32v0h-16h-112v32v0h16v0zM16 256h112h-112h128v-32v0h-16h-128v32v0h16v0zM16 192h128h-128h144v-32v0h-16h-144v32v0h16v0z" />
    <glyph glyph-name="cart-xmark" unicode="&#xe0dd;" horiz-adv-x="576" 
d="M0 448h16h-16h93l3 -13v0l55 -243v0h325v0l66 224v0h33v0l-72 -245v0l-3 -11v0h-12h-330l15 -64v0h323h16v-32v0h-16h-349l-3 12v0l-77 340v0h-51h-16v32v0zM184 -32q22 2 24 24q-2 22 -24 24q-22 -2 -24 -24q2 -22 24 -24v0zM184 48q32 -1 48 -28q16 -28 0 -56
q-16 -27 -48 -28q-32 1 -48 28q-16 28 0 56q16 27 48 28v0zM480 -8q-2 22 -24 24q-22 -2 -24 -24q2 -22 24 -24q22 2 24 24v0zM400 -8q1 32 28 48q28 16 56 0q27 -16 28 -48q-1 -32 -28 -48q-28 -16 -56 0q-27 16 -28 48v0zM379 357l-36 -37l36 37l-36 -37l36 -37v0l12 -11
v0l-23 -23v0l-11 12v0l-37 36v0l-37 -36v0l-11 -12v0l-23 23v0l12 11v0l36 37v0l-36 37v0l-12 11v0l23 23v0l11 -12v0l37 -36v0l37 36v0l11 12v0l23 -23v0l-12 -11v0z" />
    <glyph glyph-name="castle" unicode="&#xe0de;" horiz-adv-x="640" 
d="M128 448h16h-16h104v-16v0v-48v0h32v0v48v0v16v0h16h96v-16v0v-48v0h32v0v48v0v16v0h16h88v-16v0v-208v0h32v0v48v0v16v0h16h80v-16v0v-320v0v-16v0h-16h-624v16v0v320v0v16v0h16h80v-16v0v-48v0h32v0v208v0v16v0zM160 192h-16h16h-96v16v0v48v0h-32v0v-288v0h192v0v80v0
q1 41 28 68t68 28q41 -1 68 -28t28 -68v-80v0h192v0v288v0h-32v0v-48v0v-16v0h-16h-400zM480 224v192v-192v192h-40v0v-48v0v-16v0h-16h-80v16v0v48v0h-48v0v-48v0v-16v0h-16h-80v16v0v48v0h-40v0v-192v0h320v0zM384 48q-1 27 -19 45v0v0q-18 18 -45 19q-27 -1 -45 -19
t-19 -45v-80v0h128v0v80v0z" />
    <glyph glyph-name="cedi-sign" unicode="&#xe0df;" horiz-adv-x="384" 
d="M224 448v-16v16v-16v-48v0h2h2q67 -1 118 -38l-19 -26v0q-43 31 -99 32h-2h-2v-320v0h2h2q56 1 99 32l18 -26v0q-50 -37 -117 -38h-2h-2v-48v0v-16v0h-32v0v16v0v51v0q-70 14 -114 65q-45 52 -46 124q1 72 46 124q44 51 114 65v51v0v16v0h32v0zM64 192q1 -58 36 -101v0v0
q36 -42 92 -55v312v0q-56 -13 -92 -55q-35 -43 -36 -101v0z" />
    <glyph glyph-name="chart-bullet" unicode="&#xe0e1;" 
d="M288 416v-16v16v-16v-16v0h192h32v-32v0v-96v0v-32v0h-32h-192v-16v0v-16v0h-32v0v16v0v16v0h-224h-32v32v0v96v0v32v0h32h224v16v0v16v0h32v0zM160 352v-96v96v-96h96v0v96v0h-96v0zM288 352v-96v96v-96h192v0v96v0h-192v0zM128 352h-96h96h-96v-96v0h96v0v96v0z
M384 192v-16v16v-16v-16v0h96h32v-32v0v-96v0v-32v0h-32h-96v-16v0v-16v0h-32v0v16v0v16v0h-320h-32v32v0v96v0v32v0h32h320v16v0v16v0h32v0zM224 32h128h-128h128v96v0h-128v0v-96v0zM384 128v-96v96v-96h96v0v96v0h-96v0zM192 128h-160h160h-160v-96v0h160v0v96v0z" />
    <glyph glyph-name="chart-candlestick" unicode="&#xe0e2;" 
d="M32 400v16v-16v16h-32v0v-16v0v-416v0v-16v0h16h496v32v0h-16h-464v400v0zM320 400v16v-16v16h-32v0v-16v0v-48v0h-32v0v-32v0v-96v0v-32v0h32v0v-48v0v-16v0h32v0v16v0v48v0h32v0v32v0v96v0v32v0h-32v0v48v0zM192 384h-32h32h-32v-16v0v-48v0h-32v0v-32v0v-128v0v-32v0
h32v0v-48v0v-16v0h32v0v16v0v48v0h32v0v32v0v128v0v32v0h-32v0v48v0v16v0zM320 320v-96v96v-96h-32v0v96v0h32v0zM448 224v-64v64v-64h-32v0v64v0h32v0zM416 256h-32h32h-32v-32v0v-64v0v-32v0h32v0v-48v0v-16v0h32v0v16v0v48v0h32v0v32v0v64v0v32v0h-32v0v48v0v16v0h-32v0
v-16v0v-48v0zM160 288h32h-32h32v-128v0h-32v0v128v0z" />
    <glyph glyph-name="chart-column" unicode="&#xe0e3;" 
d="M32 416v-16v16v-16v-400v0h464h16v-32v0h-16h-496v16v0v416v0v16v0h32v0zM160 192v-16v16v-16v-96v0v-16v0h-32v0v16v0v96v0v16v0h32v0zM256 304v-224v224v-224v-16v0h-32v0v16v0v224v0v16v0h32v0v-16v0zM352 256v-16v16v-16v-160v0v-16v0h-32v0v16v0v160v0v16v0h32v0z
M448 336v-256v256v-256v-16v0h-32v0v16v0v256v0v16v0h32v0v-16v0z" />
    <glyph glyph-name="chart-gantt" unicode="&#xe0e4;" 
d="M32 416v-16v16v-16v-400v0h464h16v-32v0h-16h-496v16v0v416v0v16v0h32v0zM128 320h16h-16h160v-32v0h-16h-144v32v0zM208 224h160h-160h176v-32v0h-16h-176v32v0h16v0zM368 128h96h-96h112v-32v0h-16h-112v32v0h16v0z" />
    <glyph glyph-name="chart-line-up" unicode="&#xe0e5;" 
d="M32 400v16v-16v16h-32v0v-16v0v-416v0v-16v0h16h496v32v0h-16h-464v400v0zM336 320h-16h16h-16v-32v0h16h89l-105 -105v0l-85 84v0l-11 12v0l-11 -12v0l-112 -112v0l-12 -11v0l23 -23v0l11 12v0l101 100v0l85 -84v0l11 -12v0l11 12v0l117 116v0v-89v0v-16v0h32v0v16v0
v128v0v16v0h-16h-128z" />
    <glyph glyph-name="chart-pyramid" unicode="&#xe0e6;" 
d="M18 0l-18 -32l18 32l-18 -32h37h475l-18 32v0l-220 384v0l-18 32v0l-18 -32v0l-220 -384v0zM311 256h-109h109h-109l54 95v0l55 -95v0zM329 224l55 -96l-55 96l55 -96h-256v0l55 96v0h146v0zM402 96l55 -96l-55 96l55 -96h-402v0l55 96v0h292v0z" />
    <glyph glyph-name="chart-radar" unicode="&#xe0e7;" 
d="M136 416h-9h9h-9l-5 -8v0l-120 -208v0l-5 -8v0l5 -8v0l120 -208v0l5 -8v0h9h249l5 8v0l120 208v0l4 8v0l-4 8v0l-120 208v0l-5 8v0h-9h-240zM35 192l110 192l-110 -192l110 192h222v0l111 -192v0l-111 -192v0h-222v0l-110 192v0zM312 288q-1 24 -16 40v0v0q-16 15 -40 16
q-24 -1 -40 -16q-15 -16 -16 -40q0 -19 11 -33l-32 -42v0q-9 3 -19 3q-24 -1 -40 -16q-15 -16 -16 -40q1 -24 16 -39q16 -16 40 -17q34 2 50 30l54 -11v0q3 -22 18 -36q16 -14 38 -15q24 1 40 17q15 15 16 39q-1 24 -16 40q-16 16 -40 16h-5v0l-24 60v0q20 16 21 44v0z
M271 154l-55 11l55 -11l-55 11q-2 16 -11 28l32 42v0q9 -3 19 -3h5v0l24 -60v0q-9 -7 -14 -18v0zM256 312q22 -2 24 -24q-2 -22 -24 -24q-22 2 -24 24q2 22 24 24v0zM296 128q2 22 24 24q22 -2 24 -24q-2 -22 -24 -24q-22 2 -24 24v0zM160 184q22 -2 24 -24q-2 -22 -24 -24
q-22 2 -24 24q2 22 24 24v0z" />
    <glyph glyph-name="chart-scatter-3d" unicode="&#xe0e8;" 
d="M272 167v233v-233v233v16v0h-32v0v-16v0v-233v0l-202 -171v0l-12 -10v0l20 -25v0l12 11v0l198 167v0l198 -167v0l12 -11v0l21 25v0l-13 10v0l-202 171v0zM56 408h-48h48h-48v-48v0h48v0v48v0zM8 216v-48v48v-48h48v0v48v0h-48v0zM152 312h-48h48h-48v-48v0h48v0v48v0z
M456 312v-48v48v-48h48v0v48v0h-48v0zM408 408h-48h48h-48v-48v0h48v0v48v0zM360 216v-48v48v-48h48v0v48v0h-48v0zM280 -24v48v-48v48h-48v0v-48v0h48v0z" />
    <glyph glyph-name="chart-scatter-bubble" unicode="&#xe0e9;" 
d="M32 416v-16v16v-16v-400v0h464h16v-32v0h-16h-496v16v0v416v0v16v0h32v0zM176 125q11 0 17 9q5 10 0 20q-6 9 -17 9t-17 -9q-5 -10 0 -20q6 -9 17 -9v0zM176 192q27 -1 42 -24q12 -24 0 -48q-15 -23 -42 -24q-27 1 -42 24q-12 24 0 48q15 23 42 24v0zM384 160q0 14 -9 23
v0v0q-9 9 -23 9t-23 -9t-9 -23t9 -23t23 -9t23 9t9 23v0zM288 160q1 36 32 55q32 18 64 0q31 -19 32 -55q-1 -36 -32 -55q-32 -18 -64 0q-31 19 -32 55v0zM240 253q18 1 19 19q-1 18 -19 19q-11 0 -17 -9q-5 -10 0 -20q6 -9 17 -9v0zM240 320q27 -1 42 -24q12 -24 0 -48
q-15 -23 -42 -24q-27 1 -42 24q-12 24 0 48q15 23 42 24v0zM416 320q0 14 -9 23v0v0q-9 9 -23 9t-23 -9t-9 -23t9 -23t23 -9t23 9t9 23v0zM320 320q1 36 32 55q32 18 64 0q31 -19 32 -55q-1 -36 -32 -55q-32 -18 -64 0q-31 19 -32 55v0z" />
    <glyph glyph-name="chart-tree-map" unicode="&#xe0ea;" 
d="M192 384v-144v144v-144h-160v0v144v0h160v0zM32 416h-32h32h-32v-32v0v-144v0v-32v0h32h192v32v0v144v0v32v0h-32h-160zM192 144v-144v144v-144h-160v0v144v0h160v0zM32 176h-32h32h-32v-32v0v-144v0v-32v0h32h192v32v0v144v0v32v0h-32h-160zM288 384h192h-192h192v-64v0
h-192v0v64v0zM256 416v-32v32v-32v-64v0v-32v0h32h224v32v0v64v0v32v0h-32h-224zM480 224v-64v64v-64h-192v0v64v0h192v0zM288 256h-32h32h-32v-32v0v-64v0v-32v0h32h224v32v0v64v0v32v0h-32h-192zM288 64h192h-192h192v-64v0h-192v0v64v0zM256 96v-32v32v-32v-64v0v-32v0
h32h224v32v0v64v0v32v0h-32h-224z" />
    <glyph glyph-name="chart-waterfall" unicode="&#xe0eb;" 
d="M32 416v-16v16v-16v-400v0h464h16v-32v0h-16h-496v16v0v416v0v16v0h32v0zM160 224v-16v16v-16v-96v0v-16v0h-32v0v16v0v96v0v16v0h32v0zM256 304v-96v96v-96v-16v0h-32v0v16v0v96v0v16v0h32v0v-16v0zM352 384v-16v16v-16v-96v0v-16v0h-32v0v16v0v96v0v16v0h32v0zM448 368
v-256v256v-256v-16v0h-32v0v16v0v256v0v16v0h32v0v-16v0z" />
    <glyph glyph-name="cherries" unicode="&#xe0ec;" horiz-adv-x="640" 
d="M288 416l9 13l-9 -13l9 13l-23 16v0l-2 -28v0v0v0v0v0v0v0v0v0v0v0v-1v0v-2v-2l-3 -15q-3 -21 -12 -54q-9 -32 -27 -69t-48 -75q-12 8 -34 16t-52 9q-2 1 -25 -4t-46 -29t-25 -79q2 -71 39 -110q37 -38 82 -52q45 -15 71 -14q26 -1 71 10t82 49t39 117q-2 55 -25 79
t-46 29t-25 4q-33 -1 -56 -11q41 67 55 120q10 32 13 54l1 -1v0q21 -16 49 -47q24 -26 45 -59q21 -34 31 -75q-20 12 -53 18q18 -16 30 -42l4 -2q11 -5 16 -9q3 -2 4 -3h1v0v0l20 -16v0l20 16v0v0v0h1q1 1 4 3q5 4 16 9q21 11 55 13v0v0h1q3 0 8 -1q10 -2 23 -9
q11 -5 21 -21t11 -49q-1 -50 -19 -79q-18 -28 -43 -41q-27 -15 -54 -20q-27 -4 -44 -4q-11 0 -30 3q-19 4 -41 13q-11 -14 -23 -25q28 -13 53 -18t41 -5q26 -1 71 10t82 49t39 117q-2 55 -25 79t-46 29t-25 4q-28 -1 -50 -8q-21 -8 -34 -16q-11 50 -35 91q-24 40 -51 70
q-31 32 -53 50q-11 9 -17 13l-2 2q-2 1 -3 2q-1 0 -1 1v0h-1v0v0v0v0v0v0v0l-9 -13v0zM288 192v0v0v0v0h2t7 -1q10 -2 23 -9q11 -5 21 -21t11 -49q-1 -50 -19 -79q-18 -28 -43 -41q-27 -15 -54 -20q-27 -4 -44 -4q-15 0 -42 6q-27 7 -55 23q-27 16 -44 43q-18 28 -19 72
q1 33 11 49t21 21q13 7 23 9q5 1 7 1h1h1v0v0q34 -1 55 -13q11 -5 16 -9q3 -2 4 -3h1v0v0l20 -16v0l20 16v0v0v0v0h1q1 1 4 3q5 4 16 9q21 11 55 13v0z" />
    <glyph glyph-name="circle-0" unicode="&#xe0ed;" 
d="M256 416q61 -1 112 -30v0v0q51 -30 82 -82q30 -53 30 -112t-30 -112q-31 -52 -82 -82q-51 -29 -112 -30q-61 1 -112 30q-51 30 -82 82q-30 53 -30 112t30 112q31 52 82 82q51 29 112 30v0zM256 -64q70 1 128 34v0v0q58 34 94 94q34 61 34 128t-34 128q-36 60 -94 94
q-58 33 -128 34q-70 -1 -128 -34q-58 -34 -94 -94q-34 -61 -34 -128t34 -128q36 -60 94 -94q58 -33 128 -34v0zM256 320q-41 -1 -68 -28v0v0q-27 -27 -28 -68v-64v0q1 -41 28 -68t68 -28q41 1 68 28t28 68v64v0q-1 41 -28 68t-68 28v0zM192 224q1 27 19 45v0v0q18 18 45 19
q27 -1 45 -19t19 -45v-64v0q-1 -27 -19 -45t-45 -19q-27 1 -45 19t-19 45v64v0z" />
    <glyph glyph-name="circle-1" unicode="&#xe0ee;" 
d="M256 416q61 -1 112 -30v0v0q51 -30 82 -82q30 -53 30 -112t-30 -112q-31 -52 -82 -82q-51 -29 -112 -30q-61 1 -112 30q-51 30 -82 82q-30 53 -30 112t30 112q31 52 82 82q51 29 112 30v0zM256 -64q70 1 128 34v0v0q58 34 94 94q34 61 34 128t-34 128q-36 60 -94 94
q-58 33 -128 34q-70 -1 -128 -34q-58 -34 -94 -94q-34 -61 -34 -128t34 -128q36 -60 94 -94q58 -33 128 -34v0zM197 251l43 28l-43 -28l43 28v-183v0h-48h-16v-32v0h16h144v32v0h-16h-48v208v0v16v0h-16h-13l-4 -3v0l-55 -36v0v-39v0l13 9v0z" />
    </font>
</defs>
</svg>
