<?xml version="1.0" standalone="no"?>
<!DOCTYPE svg PUBLIC "-//W3C//DTD SVG 1.1//EN" "http://www.w3.org/Graphics/SVG/1.1/DTD/svg11.dtd" >
<svg xmlns="http://www.w3.org/2000/svg" xmlns:xlink="http://www.w3.org/1999/xlink" version="1.1">
<metadata>
Created by FontForge 20230101 at Mon Jul 15 17:25:33 2024
 By Johanna Fagerås
Copyright (c) Font Awesome
</metadata>
<defs>
<font id="FontAwesome6Sharp-Solid" horiz-adv-x="512" >
  <font-face 
    font-family="Font Awesome 6 Sharp Solid"
    font-weight="900"
    font-stretch="normal"
    units-per-em="512"
    panose-1="2 0 9 3 0 0 0 0 0 0"
    ascent="409"
    descent="-103"
    cap-height="416"
    bbox="-11 -67 640.564 448.5"
    underline-thickness="25"
    underline-position="-49"
    unicode-range="U+0021-F8FF"
  />
<missing-glyph horiz-adv-x="384" 
d="M0 448h32h-32h384v-32v0v-448v0v-32v0h-32h-352v32v0v448v0v32v0zM64 58l90 134l-90 -134l90 134l-90 134v0v-268v0zM103 0h179h-179h179l-90 134v0l-89 -134v0zM231 192l89 -134l-89 134l89 -134v268v0l-89 -134v0zM282 384h-179h179h-179l89 -134v0l90 134v0z" />
    <glyph glyph-name=".notdef" horiz-adv-x="384" 
d="M0 448h32h-32h384v-32v0v-448v0v-32v0h-32h-352v32v0v448v0v32v0zM64 58l90 134l-90 -134l90 134l-90 134v0v-268v0zM103 0h179h-179h179l-90 134v0l-89 -134v0zM231 192l89 -134l-89 134l89 -134v268v0l-89 -134v0zM282 384h-179h179h-179l89 -134v0l90 134v0z" />
    <glyph glyph-name="exclamation" unicode="!" horiz-adv-x="128" 
d="M96 384v32v-32v32h-64v0v-32v0v-256v0v-32v0h64v0v32v0v256v0zM96 32h-64h64h-64v-64v0h64v0v64v0z" />
    <glyph glyph-name="exclamation" unicode="&#xf12a;" horiz-adv-x="128" 
d="M96 384v32v-32v32h-64v0v-32v0v-256v0v-32v0h64v0v32v0v256v0zM96 32h-64h64h-64v-64v0h64v0v64v0z" />
    <glyph glyph-name="exclamation" unicode="&#x2757;" horiz-adv-x="128" 
d="M96 384v32v-32v32h-64v0v-32v0v-256v0v-32v0h64v0v32v0v256v0zM96 32h-64h64h-64v-64v0h64v0v64v0z" />
    <glyph glyph-name="exclamation" unicode="&#x2755;" horiz-adv-x="128" 
d="M96 384v32v-32v32h-64v0v-32v0v-256v0v-32v0h64v0v32v0v256v0zM96 32h-64h64h-64v-64v0h64v0v64v0z" />
    <glyph glyph-name="exclamation" unicode="&#xf12a;" horiz-adv-x="128" 
d="M96 384v32v-32v32h-64v0v-32v0v-256v0v-32v0h64v0v32v0v256v0zM96 32h-64h64h-64v-64v0h64v0v64v0z" />
    <glyph glyph-name="exclamation" unicode="&#x2757;" horiz-adv-x="128" 
d="M96 384v32v-32v32h-64v0v-32v0v-256v0v-32v0h64v0v32v0v256v0zM96 32h-64h64h-64v-64v0h64v0v64v0z" />
    <glyph glyph-name="exclamation" unicode="&#x2755;" horiz-adv-x="128" 
d="M96 384v32v-32v32h-64v0v-32v0v-256v0v-32v0h64v0v32v0v256v0zM96 32h-64h64h-64v-64v0h64v0v64v0z" />
    <glyph glyph-name="ditto" unicode="&#x22;" horiz-adv-x="320" 
d="M0 416l32 -256l-32 256l32 -256h64v0l32 256v0h-128v0zM192 416l32 -256l-32 256l32 -256h64v0l32 256v0h-128v0z" />
    <glyph glyph-name="hashtag" unicode="#" horiz-adv-x="448" 
d="M309 416h65h-65h65l-16 -96v0h74h13l-11 -64v0h-2h-85l-21 -128v0h74h13l-11 -64v0h-2h-85l-16 -96v0h-65v0l16 96v0h-95v0l-16 -96v0h-65v0l16 96v0h-74h-13l11 64v0h2h85l21 128v0h-74h-13l11 64v0h2h85l16 96v0h65v0l-16 -96v0h95v0l16 96v0zM166 128h95h-95h95
l21 128v0h-95v0l-21 -128v0z" />
    <glyph glyph-name="hashtag" unicode="&#xf292;" horiz-adv-x="448" 
d="M309 416h65h-65h65l-16 -96v0h74h13l-11 -64v0h-2h-85l-21 -128v0h74h13l-11 -64v0h-2h-85l-16 -96v0h-65v0l16 96v0h-95v0l-16 -96v0h-65v0l16 96v0h-74h-13l11 64v0h2h85l21 128v0h-74h-13l11 64v0h2h85l16 96v0h65v0l-16 -96v0h95v0l16 96v0zM166 128h95h-95h95
l21 128v0h-95v0l-21 -128v0z" />
    <glyph glyph-name="hashtag" unicode="&#xf292;" horiz-adv-x="448" 
d="M309 416h65h-65h65l-16 -96v0h74h13l-11 -64v0h-2h-85l-21 -128v0h74h13l-11 -64v0h-2h-85l-16 -96v0h-65v0l16 96v0h-95v0l-16 -96v0h-65v0l16 96v0h-74h-13l11 64v0h2h85l21 128v0h-74h-13l11 64v0h2h85l16 96v0h65v0l-16 -96v0h95v0l16 96v0zM166 128h95h-95h95
l21 128v0h-95v0l-21 -128v0z" />
    <glyph glyph-name="dollar-sign" unicode="$" horiz-adv-x="320" 
d="M192 448v-32v32v-32v-36v0h5v0l1 -1l48 -8v0l31 -6v0l-11 -63v0l-32 6v0l-47 8v0q-48 6 -79 -6q-27 -12 -29 -28q-2 -15 2 -20q2 -6 12 -14q25 -14 74 -26l3 -1v0h1q22 -5 45 -13q24 -8 44 -21q22 -13 36 -39q12 -27 6 -59q-6 -29 -23 -48q-18 -19 -43 -29
q-20 -8 -44 -11v-33v0v-32v0h-64v0v32v0v35v0h-1v0h-1v0v0v0q-19 3 -44 10q-26 7 -47 16l-29 13v0l26 59v0l29 -13v0q17 -8 38 -13q21 -6 37 -9q16 -2 30 -2h1v0q28 0 45 7q25 11 27 29q2 15 -1 20q-3 6 -13 14q-25 15 -74 26l-3 1v0v0v0q-1 0 -3 1q-21 5 -44 13t-43 20
q-22 14 -35 40q-13 27 -6 59q5 28 24 47t44 29q20 8 43 11v35v0v32v0h64v0z" />
    <glyph glyph-name="dollar-sign" unicode="&#x1f4b2;" horiz-adv-x="320" 
d="M192 448v-32v32v-32v-36v0h5v0l1 -1l48 -8v0l31 -6v0l-11 -63v0l-32 6v0l-47 8v0q-48 6 -79 -6q-27 -12 -29 -28q-2 -15 2 -20q2 -6 12 -14q25 -14 74 -26l3 -1v0h1q22 -5 45 -13q24 -8 44 -21q22 -13 36 -39q12 -27 6 -59q-6 -29 -23 -48q-18 -19 -43 -29
q-20 -8 -44 -11v-33v0v-32v0h-64v0v32v0v35v0h-1v0h-1v0v0v0q-19 3 -44 10q-26 7 -47 16l-29 13v0l26 59v0l29 -13v0q17 -8 38 -13q21 -6 37 -9q16 -2 30 -2h1v0q28 0 45 7q25 11 27 29q2 15 -1 20q-3 6 -13 14q-25 15 -74 26l-3 1v0v0v0q-1 0 -3 1q-21 5 -44 13t-43 20
q-22 14 -35 40q-13 27 -6 59q5 28 24 47t44 29q20 8 43 11v35v0v32v0h64v0z" />
    <glyph glyph-name="dollar-sign" unicode="&#xf155;" horiz-adv-x="320" 
d="M192 448v-32v32v-32v-36v0h5v0l1 -1l48 -8v0l31 -6v0l-11 -63v0l-32 6v0l-47 8v0q-48 6 -79 -6q-27 -12 -29 -28q-2 -15 2 -20q2 -6 12 -14q25 -14 74 -26l3 -1v0h1q22 -5 45 -13q24 -8 44 -21q22 -13 36 -39q12 -27 6 -59q-6 -29 -23 -48q-18 -19 -43 -29
q-20 -8 -44 -11v-33v0v-32v0h-64v0v32v0v35v0h-1v0h-1v0v0v0q-19 3 -44 10q-26 7 -47 16l-29 13v0l26 59v0l29 -13v0q17 -8 38 -13q21 -6 37 -9q16 -2 30 -2h1v0q28 0 45 7q25 11 27 29q2 15 -1 20q-3 6 -13 14q-25 15 -74 26l-3 1v0v0v0q-1 0 -3 1q-21 5 -44 13t-43 20
q-22 14 -35 40q-13 27 -6 59q5 28 24 47t44 29q20 8 43 11v35v0v32v0h64v0z" />
    <glyph glyph-name="dollar-sign" unicode="&#x1f4b2;" horiz-adv-x="320" 
d="M192 448v-32v32v-32v-36v0h5v0l1 -1l48 -8v0l31 -6v0l-11 -63v0l-32 6v0l-47 8v0q-48 6 -79 -6q-27 -12 -29 -28q-2 -15 2 -20q2 -6 12 -14q25 -14 74 -26l3 -1v0h1q22 -5 45 -13q24 -8 44 -21q22 -13 36 -39q12 -27 6 -59q-6 -29 -23 -48q-18 -19 -43 -29
q-20 -8 -44 -11v-33v0v-32v0h-64v0v32v0v35v0h-1v0h-1v0v0v0q-19 3 -44 10q-26 7 -47 16l-29 13v0l26 59v0l29 -13v0q17 -8 38 -13q21 -6 37 -9q16 -2 30 -2h1v0q28 0 45 7q25 11 27 29q2 15 -1 20q-3 6 -13 14q-25 15 -74 26l-3 1v0v0v0q-1 0 -3 1q-21 5 -44 13t-43 20
q-22 14 -35 40q-13 27 -6 59q5 28 24 47t44 29q20 8 43 11v35v0v32v0h64v0z" />
    <glyph glyph-name="dollar-sign" unicode="&#xf155;" horiz-adv-x="320" 
d="M192 448v-32v32v-32v-36v0h5v0l1 -1l48 -8v0l31 -6v0l-11 -63v0l-32 6v0l-47 8v0q-48 6 -79 -6q-27 -12 -29 -28q-2 -15 2 -20q2 -6 12 -14q25 -14 74 -26l3 -1v0h1q22 -5 45 -13q24 -8 44 -21q22 -13 36 -39q12 -27 6 -59q-6 -29 -23 -48q-18 -19 -43 -29
q-20 -8 -44 -11v-33v0v-32v0h-64v0v32v0v35v0h-1v0h-1v0v0v0q-19 3 -44 10q-26 7 -47 16l-29 13v0l26 59v0l29 -13v0q17 -8 38 -13q21 -6 37 -9q16 -2 30 -2h1v0q28 0 45 7q25 11 27 29q2 15 -1 20q-3 6 -13 14q-25 15 -74 26l-3 1v0v0v0q-1 0 -3 1q-21 5 -44 13t-43 20
q-22 14 -35 40q-13 27 -6 59q5 28 24 47t44 29q20 8 43 11v35v0v32v0h64v0z" />
    <glyph glyph-name="percent" unicode="%" horiz-adv-x="384" 
d="M359 313l22 23l-22 -23l22 23l-45 45v0l-23 -22v0l-288 -288v0l-22 -23v0l45 -45v0l23 22v0l288 288v0zM8 376v-112v112v-112h112v0v112v0h-112v0zM264 120v-112v112v-112h112v0v112v0h-112v0z" />
    <glyph glyph-name="percent" unicode="&#xf541;" horiz-adv-x="384" 
d="M359 313l22 23l-22 -23l22 23l-45 45v0l-23 -22v0l-288 -288v0l-22 -23v0l45 -45v0l23 22v0l288 288v0zM8 376v-112v112v-112h112v0v112v0h-112v0zM264 120v-112v112v-112h112v0v112v0h-112v0z" />
    <glyph glyph-name="percent" unicode="&#xf295;" horiz-adv-x="384" 
d="M359 313l22 23l-22 -23l22 23l-45 45v0l-23 -22v0l-288 -288v0l-22 -23v0l45 -45v0l23 22v0l288 288v0zM8 376v-112v112v-112h112v0v112v0h-112v0zM264 120v-112v112v-112h112v0v112v0h-112v0z" />
    <glyph glyph-name="percent" unicode="&#xf541;" horiz-adv-x="384" 
d="M359 313l22 23l-22 -23l22 23l-45 45v0l-23 -22v0l-288 -288v0l-22 -23v0l45 -45v0l23 22v0l288 288v0zM8 376v-112v112v-112h112v0v112v0h-112v0zM264 120v-112v112v-112h112v0v112v0h-112v0z" />
    <glyph glyph-name="percent" unicode="&#xf295;" horiz-adv-x="384" 
d="M359 313l22 23l-22 -23l22 23l-45 45v0l-23 -22v0l-288 -288v0l-22 -23v0l45 -45v0l23 22v0l288 288v0zM8 376v-112v112v-112h112v0v112v0h-112v0zM264 120v-112v112v-112h112v0v112v0h-112v0z" />
    <glyph glyph-name="ampersand" unicode="&#x26;" horiz-adv-x="448" 
d="M112 416h-32h32h-32v-32v0v-65v0q1 -43 29 -76l32 -34v0l-64 -47v0q-44 -35 -45 -90v-72v0v-32v0h32h209l10 14v0l27 42v0l51 -56v0h87v0l-16 18v0l-85 92v0l64 96v0l17 27v0l-53 35v0l-18 -26v0l-55 -83v0l-67 73v0l40 30v0q44 35 45 90v64v0v32v0h-32h-176zM237 282
l-45 -34l45 34l-45 -34l-35 39v0q-13 13 -13 32v33v0h112v0v-32v0q-1 -24 -19 -38v0zM115 110l69 52l-69 -52l69 52l82 -90v0l-27 -40v0h-143v0v40v0q1 24 19 38v0z" />
    <glyph glyph-name="apostrophe" unicode="'" horiz-adv-x="192" 
d="M72 96q51 1 85 35v0v0q34 34 35 85v8v0v96v0v96v0h-192v0v-192v0h128v0v-8v0q-1 -24 -16 -40q-16 -15 -40 -16h-8h-32v-64v0h32h8z" />
    <glyph glyph-name="bracket-round" unicode="(" horiz-adv-x="192" 
d="M0 192q1 58 20 102v0v0q19 45 45 74v0v0q25 30 45 43l36 -54v0q-22 -13 -51 -55q-28 -43 -31 -110q3 -67 31 -110q29 -42 51 -55l-36 -54v0q-20 13 -45 43q-26 29 -45 74q-19 44 -20 102v0z" />
    <glyph glyph-name="bracket-round-right" unicode=")" horiz-adv-x="192" 
d="M192 192q-1 58 -20 102v0v0q-19 45 -45 74v0v0q-25 30 -45 43l-36 -54v0q22 -13 51 -55q28 -43 31 -110q-3 -67 -31 -110q-29 -42 -51 -55l36 -54v0q20 13 45 43q26 29 45 74q19 44 20 102v0z" />
    <glyph glyph-name="asterisk" unicode="*" horiz-adv-x="384" 
d="M224 416v-32v32v-32v-136v0l96 58v0l27 16v0l33 -55v0l-27 -16v0l-99 -59v0l99 -59v0l27 -17v0l-33 -54v0l-27 16v0l-96 57v0v-135v0v-32v0h-64v0v32v0v135v0l-95 -57v0l-28 -16v0l-33 55v0l28 16v0l98 59v0l-98 59v0l-28 16v0l33 55v0l27 -16v0l96 -58v0v136v0v32v0h64
v0z" />
    <glyph glyph-name="asterisk" unicode="&#xf069;" horiz-adv-x="384" 
d="M224 416v-32v32v-32v-136v0l96 58v0l27 16v0l33 -55v0l-27 -16v0l-99 -59v0l99 -59v0l27 -17v0l-33 -54v0l-27 16v0l-96 57v0v-135v0v-32v0h-64v0v32v0v135v0l-95 -57v0l-28 -16v0l-33 55v0l28 16v0l98 59v0l-98 59v0l-28 16v0l33 55v0l27 -16v0l96 -58v0v136v0v32v0h64
v0z" />
    <glyph glyph-name="asterisk" unicode="&#x2731;" horiz-adv-x="384" 
d="M224 416v-32v32v-32v-136v0l96 58v0l27 16v0l33 -55v0l-27 -16v0l-99 -59v0l99 -59v0l27 -17v0l-33 -54v0l-27 16v0l-96 57v0v-135v0v-32v0h-64v0v32v0v135v0l-95 -57v0l-28 -16v0l-33 55v0l28 16v0l98 59v0l-98 59v0l-28 16v0l33 55v0l27 -16v0l96 -58v0v136v0v32v0h64
v0z" />
    <glyph glyph-name="asterisk" unicode="&#xf069;" horiz-adv-x="384" 
d="M224 416v-32v32v-32v-136v0l96 58v0l27 16v0l33 -55v0l-27 -16v0l-99 -59v0l99 -59v0l27 -17v0l-33 -54v0l-27 16v0l-96 57v0v-135v0v-32v0h-64v0v32v0v135v0l-95 -57v0l-28 -16v0l-33 55v0l28 16v0l98 59v0l-98 59v0l-28 16v0l33 55v0l27 -16v0l96 -58v0v136v0v32v0h64
v0z" />
    <glyph glyph-name="asterisk" unicode="&#x2731;" horiz-adv-x="384" 
d="M224 416v-32v32v-32v-136v0l96 58v0l27 16v0l33 -55v0l-27 -16v0l-99 -59v0l99 -59v0l27 -17v0l-33 -54v0l-27 16v0l-96 57v0v-135v0v-32v0h-64v0v32v0v135v0l-95 -57v0l-28 -16v0l-33 55v0l28 16v0l98 59v0l-98 59v0l-28 16v0l33 55v0l27 -16v0l96 -58v0v136v0v32v0h64
v0z" />
    <glyph glyph-name="plus" unicode="+" horiz-adv-x="448" 
d="M256 368v32v-32v32h-64v0v-32v0v-144v0h-144h-32v-64v0h32h144v-144v0v-32v0h64v0v32v0v144v0h144h32v64v0h-32h-144v144v0z" />
    <glyph glyph-name="plus" unicode="&#xf067;" horiz-adv-x="448" 
d="M256 368v32v-32v32h-64v0v-32v0v-144v0h-144h-32v-64v0h32h144v-144v0v-32v0h64v0v32v0v144v0h144h32v64v0h-32h-144v144v0z" />
    <glyph glyph-name="plus" unicode="&#x2795;" horiz-adv-x="448" 
d="M256 368v32v-32v32h-64v0v-32v0v-144v0h-144h-32v-64v0h32h144v-144v0v-32v0h64v0v32v0v144v0h144h32v64v0h-32h-144v144v0z" />
    <glyph glyph-name="plus" unicode="&#xf067;" horiz-adv-x="448" 
d="M256 368v32v-32v32h-64v0v-32v0v-144v0h-144h-32v-64v0h32h144v-144v0v-32v0h64v0v32v0v144v0h144h32v64v0h-32h-144v144v0z" />
    <glyph glyph-name="plus" unicode="&#x2795;" horiz-adv-x="448" 
d="M256 368v32v-32v32h-64v0v-32v0v-144v0h-144h-32v-64v0h32h144v-144v0v-32v0h64v0v32v0v144v0h144h32v64v0h-32h-144v144v0z" />
    <glyph glyph-name="comma" unicode="," horiz-adv-x="192" 
d="M48 160l-32 -224l32 224l-32 -224h64v0l80 224v0h-112v0z" />
    <glyph glyph-name="hyphen" unicode="-" horiz-adv-x="320" 
d="M0 224h32h-32h320v-64v0h-32h-288v64v0z" />
    <glyph glyph-name="period" unicode="." horiz-adv-x="192" 
d="M32 96h128h-128h128v-128v0h-128v0v128v0z" />
    <glyph glyph-name="slash-forward" unicode="/" horiz-adv-x="320" 
d="M320 448h-71h71h-71l-249 -512v0h71v0l249 512v0z" />
    <glyph glyph-name="0" unicode="0" horiz-adv-x="320" 
d="M0 256q2 68 47 113v0v0q45 45 113 47q68 -2 113 -47t47 -113v-128v0q-2 -68 -47 -113t-113 -47q-68 2 -113 47t-47 113v128v0zM160 352q-41 -1 -68 -28v0v0q-27 -27 -28 -68v-128v0q1 -41 28 -68t68 -28q41 1 68 28t28 68v128v0q-1 41 -28 68t-68 28v0z" />
    <glyph glyph-name="1" unicode="1" horiz-adv-x="256" 
d="M104 416h8h-8h56v-32v0v-352v0h64h32v-64v0h-32h-224v64v0h32h64v307v0l-89 -47v0l-7 -4v0v72v0l97 52v0l7 4v0z" />
    <glyph glyph-name="2" unicode="2" horiz-adv-x="320" 
d="M143 416q-60 -1 -103 -43l-15 -14v0l-22 -23v0l45 -45v0l23 22v0l15 15v0q23 24 57 24q34 -1 57 -24t24 -57q0 -34 -24 -58l-191 -190v0l-9 -10v0v-45v0h32h288v64v0h-32h-179l137 136v0q41 43 42 103q-2 62 -43 102q-40 41 -102 43v0z" />
    <glyph glyph-name="3" unicode="3" horiz-adv-x="320" 
d="M304 416v-46v46v-46l-10 -10v0l-132 -120v0h22v0q58 -1 96 -40q39 -38 40 -96q-1 -58 -40 -96q-38 -39 -96 -40h-73v0q-35 0 -63 20q-28 19 -41 53l-5 12v0l60 22v0l5 -12v0q12 -29 44 -31h73v0q31 1 51 21t21 51q-1 31 -21 51t-51 21h-104h-32v46v0l10 10v0l132 120v0
h-158h-32v64v0h32h272z" />
    <glyph glyph-name="4" unicode="4" horiz-adv-x="384" 
d="M210 416h-70h70h-70l-121 -292v0l-19 -44v0h48h208v-80v0v-32v0h64v0v32v0v80v0h32h32v64v0h-32h-32v144v0v32v0h-64v0v-32v0v-144v0h-160v0l110 262v0l4 10v0z" />
    <glyph glyph-name="5" unicode="5" horiz-adv-x="320" 
d="M36 416h28h-28h252v-64v0h-32h-164l-17 -112v0h109v0q58 -1 96 -40q39 -38 40 -96q-1 -58 -40 -96q-38 -39 -96 -40h-78v0q-33 0 -59 19q-27 18 -38 48l-7 18v0l60 22v0l6 -17v0q11 -25 38 -26h78v0q31 1 51 21t21 51q-1 31 -21 51t-51 21h-146h-37l5 37v0l26 176v0l4 27
v0z" />
    <glyph glyph-name="6" unicode="6" horiz-adv-x="320" 
d="M160 32q26 0 48 13v0v0q22 13 35 35q13 23 13 48t-13 48q-13 22 -35 35t-48 13t-48 -13t-35 -35q-13 -23 -13 -48t13 -48q13 -22 35 -35t48 -13v0zM253 416l-96 -128l96 128l-96 -128h1h2q68 -2 113 -47t47 -113q-2 -68 -47 -113t-113 -47q-68 2 -113 47t-47 113
q0 59 35 106l138 182v0h80v0z" />
    <glyph glyph-name="7" unicode="7" horiz-adv-x="320" 
d="M320 416v-40v40v-40l-4 -7v0l-211 -401v0h-73v0l203 384v0h-203h-32v64v0h32h288z" />
    <glyph glyph-name="8" unicode="8" horiz-adv-x="320" 
d="M304 288q-1 54 -37 91v0v0q-37 36 -91 37h-32v0q-54 -1 -91 -37q-36 -37 -37 -91q1 -53 36 -89q-24 -18 -38 -44q-14 -27 -14 -59q1 -54 37 -91q37 -36 91 -37h64v0q54 1 91 37q36 37 37 91q0 32 -14 59q-14 26 -38 44q35 36 36 89v0zM176 160h16h-16h16q27 -1 45 -19
t19 -45q-1 -27 -19 -45t-45 -19h-64v0q-27 1 -45 19t-19 45q1 27 19 45t45 19h16v0v0v0h32v0v0v0v0zM176 224v0v0v0v0h-32v0v0v0q-27 1 -45 19t-19 45q1 27 19 45t45 19h32v0q27 -1 45 -19t19 -45q-1 -27 -19 -45t-45 -19v0z" />
    <glyph glyph-name="9" unicode="9" horiz-adv-x="320" 
d="M160 352q-26 0 -48 -13v0v0q-22 -13 -35 -35q-13 -23 -13 -48t13 -48q13 -22 35 -35t48 -13t48 13t35 35q13 23 13 48t-13 48q-13 22 -35 35t-48 13v0zM67 -32l97 128l-97 -128l97 128h-2h-2q-68 2 -113 47t-47 113q2 68 47 113t113 47q68 -2 113 -47t47 -113
q0 -59 -35 -106l-138 -182v0h-80v0z" />
    <glyph glyph-name="colon" unicode=":" horiz-adv-x="192" 
d="M160 384h-128h128h-128v-128v0h128v0v128v0zM160 128h-128h128h-128v-128v0h128v0v128v0z" />
    <glyph glyph-name="semicolon" unicode=";" horiz-adv-x="192" 
d="M160 384v-128v128v-128h-128v0v128v0h128v0zM16 -64l32 224l-32 -224l32 224h112v0l-80 -224v0h-64v0z" />
    <glyph glyph-name="less-than" unicode="&#x3c;" horiz-adv-x="384" 
d="M384 383l-5 -2l5 2l-5 -2l-360 -160v0l-19 -8v0v-42v0l19 -8v0l360 -160v0l5 -2v0v70v0l-273 121v0l273 121v0v70v0z" />
    <glyph glyph-name="less-than" unicode="&#xf536;" horiz-adv-x="384" 
d="M384 383l-5 -2l5 2l-5 -2l-360 -160v0l-19 -8v0v-42v0l19 -8v0l360 -160v0l5 -2v0v70v0l-273 121v0l273 121v0v70v0z" />
    <glyph glyph-name="less-than" unicode="&#xf536;" horiz-adv-x="384" 
d="M384 383l-5 -2l5 2l-5 -2l-360 -160v0l-19 -8v0v-42v0l19 -8v0l360 -160v0l5 -2v0v70v0l-273 121v0l273 121v0v70v0z" />
    <glyph glyph-name="equals" unicode="=" horiz-adv-x="448" 
d="M48 320h-32h32h-32v-64v0h32h384v64v0h-32h-352zM48 128h-32h32h-32v-64v0h32h384v64v0h-32h-352z" />
    <glyph glyph-name="equals" unicode="&#xf52c;" horiz-adv-x="448" 
d="M48 320h-32h32h-32v-64v0h32h384v64v0h-32h-352zM48 128h-32h32h-32v-64v0h32h384v64v0h-32h-352z" />
    <glyph glyph-name="equals" unicode="&#xf52c;" horiz-adv-x="448" 
d="M48 320h-32h32h-32v-64v0h32h384v64v0h-32h-352zM48 128h-32h32h-32v-64v0h32h384v64v0h-32h-352z" />
    <glyph glyph-name="greater-than" unicode="&#x3e;" horiz-adv-x="384" 
d="M0 383l5 -2l-5 2l5 -2l360 -160v0l19 -8v0v-42v0l-19 -8v0l-360 -160v0l-5 -2v0v70v0l273 121v0l-273 121v0v70v0z" />
    <glyph glyph-name="greater-than" unicode="&#xf531;" horiz-adv-x="384" 
d="M0 383l5 -2l-5 2l5 -2l360 -160v0l19 -8v0v-42v0l-19 -8v0l-360 -160v0l-5 -2v0v70v0l273 121v0l-273 121v0v70v0z" />
    <glyph glyph-name="greater-than" unicode="&#xf531;" horiz-adv-x="384" 
d="M0 383l5 -2l-5 2l5 -2l360 -160v0l19 -8v0v-42v0l-19 -8v0l-360 -160v0l-5 -2v0v70v0l273 121v0l-273 121v0v70v0z" />
    <glyph glyph-name="question" unicode="?" horiz-adv-x="320" 
d="M80 288q1 27 19 45v0v0q18 18 45 19h32v0q27 -1 45 -19t19 -45v-9v0q-1 -31 -24 -51l-76 -59v0l-12 -9v0v-16v0v-48v0h64v0v32v0l63 50v0q48 39 49 101v9v0q-1 54 -37 91q-37 36 -91 37h-32v0q-54 -1 -91 -37q-36 -37 -37 -91v-16v0h64v0v16v0zM200 48h-80h80h-80v-80v0
h80v0v80v0z" />
    <glyph glyph-name="question" unicode="&#xf128;" horiz-adv-x="320" 
d="M80 288q1 27 19 45v0v0q18 18 45 19h32v0q27 -1 45 -19t19 -45v-9v0q-1 -31 -24 -51l-76 -59v0l-12 -9v0v-16v0v-48v0h64v0v32v0l63 50v0q48 39 49 101v9v0q-1 54 -37 91q-37 36 -91 37h-32v0q-54 -1 -91 -37q-36 -37 -37 -91v-16v0h64v0v16v0zM200 48h-80h80h-80v-80v0
h80v0v80v0z" />
    <glyph glyph-name="question" unicode="&#x2754;" horiz-adv-x="320" 
d="M80 288q1 27 19 45v0v0q18 18 45 19h32v0q27 -1 45 -19t19 -45v-9v0q-1 -31 -24 -51l-76 -59v0l-12 -9v0v-16v0v-48v0h64v0v32v0l63 50v0q48 39 49 101v9v0q-1 54 -37 91q-37 36 -91 37h-32v0q-54 -1 -91 -37q-36 -37 -37 -91v-16v0h64v0v16v0zM200 48h-80h80h-80v-80v0
h80v0v80v0z" />
    <glyph glyph-name="question" unicode="&#x2753;" horiz-adv-x="320" 
d="M80 288q1 27 19 45v0v0q18 18 45 19h32v0q27 -1 45 -19t19 -45v-9v0q-1 -31 -24 -51l-76 -59v0l-12 -9v0v-16v0v-48v0h64v0v32v0l63 50v0q48 39 49 101v9v0q-1 54 -37 91q-37 36 -91 37h-32v0q-54 -1 -91 -37q-36 -37 -37 -91v-16v0h64v0v16v0zM200 48h-80h80h-80v-80v0
h80v0v80v0z" />
    <glyph glyph-name="question" unicode="&#xf128;" horiz-adv-x="320" 
d="M80 288q1 27 19 45v0v0q18 18 45 19h32v0q27 -1 45 -19t19 -45v-9v0q-1 -31 -24 -51l-76 -59v0l-12 -9v0v-16v0v-48v0h64v0v32v0l63 50v0q48 39 49 101v9v0q-1 54 -37 91q-37 36 -91 37h-32v0q-54 -1 -91 -37q-36 -37 -37 -91v-16v0h64v0v16v0zM200 48h-80h80h-80v-80v0
h80v0v80v0z" />
    <glyph glyph-name="question" unicode="&#x2754;" horiz-adv-x="320" 
d="M80 288q1 27 19 45v0v0q18 18 45 19h32v0q27 -1 45 -19t19 -45v-9v0q-1 -31 -24 -51l-76 -59v0l-12 -9v0v-16v0v-48v0h64v0v32v0l63 50v0q48 39 49 101v9v0q-1 54 -37 91q-37 36 -91 37h-32v0q-54 -1 -91 -37q-36 -37 -37 -91v-16v0h64v0v16v0zM200 48h-80h80h-80v-80v0
h80v0v80v0z" />
    <glyph glyph-name="question" unicode="&#x2753;" horiz-adv-x="320" 
d="M80 288q1 27 19 45v0v0q18 18 45 19h32v0q27 -1 45 -19t19 -45v-9v0q-1 -31 -24 -51l-76 -59v0l-12 -9v0v-16v0v-48v0h64v0v32v0l63 50v0q48 39 49 101v9v0q-1 54 -37 91q-37 36 -91 37h-32v0q-54 -1 -91 -37q-36 -37 -37 -91v-16v0h64v0v16v0zM200 48h-80h80h-80v-80v0
h80v0v80v0z" />
    <glyph glyph-name="at" unicode="@" 
d="M256 384q-82 -2 -136 -56v0v0q-54 -54 -56 -136q2 -82 56 -136t136 -56h32v0v-64v0h-32v0q-72 1 -129 35q-58 34 -92 92q-34 57 -35 129q1 72 35 129q34 58 92 92q57 34 129 35q72 -1 129 -35q58 -34 92 -92q34 -57 35 -129v-96v0v-32v0h-32h-40q-56 2 -90 41
q-37 -39 -94 -41q-54 1 -91 37q-36 37 -37 91q1 54 37 91q37 36 91 37q50 -1 85 -32h43v0v-32v0v-64v0v-8v0q1 -24 16 -40q16 -15 40 -16h8v0v64v0q-2 82 -56 136t-136 56v0zM320 192q-1 36 -32 55q-32 18 -64 0q-31 -19 -32 -55q1 -36 32 -55q32 -18 64 0q31 19 32 55v0z
" />
    <glyph glyph-name="at" unicode="&#xf1fa;" 
d="M256 384q-82 -2 -136 -56v0v0q-54 -54 -56 -136q2 -82 56 -136t136 -56h32v0v-64v0h-32v0q-72 1 -129 35q-58 34 -92 92q-34 57 -35 129q1 72 35 129q34 58 92 92q57 34 129 35q72 -1 129 -35q58 -34 92 -92q34 -57 35 -129v-96v0v-32v0h-32h-40q-56 2 -90 41
q-37 -39 -94 -41q-54 1 -91 37q-36 37 -37 91q1 54 37 91q37 36 91 37q50 -1 85 -32h43v0v-32v0v-64v0v-8v0q1 -24 16 -40q16 -15 40 -16h8v0v64v0q-2 82 -56 136t-136 56v0zM320 192q-1 36 -32 55q-32 18 -64 0q-31 -19 -32 -55q1 -36 32 -55q32 -18 64 0q31 19 32 55v0z
" />
    <glyph glyph-name="at" unicode="&#xf1fa;" 
d="M256 384q-82 -2 -136 -56v0v0q-54 -54 -56 -136q2 -82 56 -136t136 -56h32v0v-64v0h-32v0q-72 1 -129 35q-58 34 -92 92q-34 57 -35 129q1 72 35 129q34 58 92 92q57 34 129 35q72 -1 129 -35q58 -34 92 -92q34 -57 35 -129v-96v0v-32v0h-32h-40q-56 2 -90 41
q-37 -39 -94 -41q-54 1 -91 37q-36 37 -37 91q1 54 37 91q37 36 91 37q50 -1 85 -32h43v0v-32v0v-64v0v-8v0q1 -24 16 -40q16 -15 40 -16h8v0v64v0q-2 82 -56 136t-136 56v0zM320 192q-1 36 -32 55q-32 18 -64 0q-31 -19 -32 -55q1 -36 32 -55q32 -18 64 0q31 19 32 55v0z
" />
    <glyph glyph-name="a" unicode="A" horiz-adv-x="384" 
d="M170 416h44h-44h44l8 -21v0l109 -288v0l53 -139v0h-68v0l-37 96v0h-174v0l-37 -96v0h-68v0l53 139v0l109 288v0l8 21v0zM255 128l-63 166l63 -166l-63 166l-63 -166v0h126v0z" />
    <glyph glyph-name="a" unicode="a" horiz-adv-x="384" 
d="M170 416h44h-44h44l8 -21v0l109 -288v0l53 -139v0h-68v0l-37 96v0h-174v0l-37 -96v0h-68v0l53 139v0l109 288v0l8 21v0zM255 128l-63 166l63 -166l-63 166l-63 -166v0h126v0z" />
    <glyph glyph-name="a" unicode="a" horiz-adv-x="384" 
d="M170 416h44h-44h44l8 -21v0l109 -288v0l53 -139v0h-68v0l-37 96v0h-174v0l-37 -96v0h-68v0l53 139v0l109 288v0l8 21v0zM255 128l-63 166l63 -166l-63 166l-63 -166v0h126v0z" />
    <glyph glyph-name="b" unicode="B" horiz-adv-x="320" 
d="M32 416h-32h32h-32v-32v0v-160v0v-32v0v-32v0v-160v0v-32v0h32h160q54 1 91 37q36 37 37 91q0 35 -17 64t-45 46q29 34 30 82q-1 54 -37 91q-37 36 -91 37h-128v0zM160 224h-96h96h-96v128v0h96v0q27 -1 45 -19t19 -45q-1 -27 -19 -45t-45 -19v0zM64 160h96h-96h128
q27 -1 45 -19t19 -45q-1 -27 -19 -45t-45 -19h-128v0v128v0z" />
    <glyph glyph-name="b" unicode="b" horiz-adv-x="320" 
d="M32 416h-32h32h-32v-32v0v-160v0v-32v0v-32v0v-160v0v-32v0h32h160q54 1 91 37q36 37 37 91q0 35 -17 64t-45 46q29 34 30 82q-1 54 -37 91q-37 36 -91 37h-128v0zM160 224h-96h96h-96v128v0h96v0q27 -1 45 -19t19 -45q-1 -27 -19 -45t-45 -19v0zM64 160h96h-96h128
q27 -1 45 -19t19 -45q-1 -27 -19 -45t-45 -19h-128v0v128v0z" />
    <glyph glyph-name="b" unicode="b" horiz-adv-x="320" 
d="M32 416h-32h32h-32v-32v0v-160v0v-32v0v-32v0v-160v0v-32v0h32h160q54 1 91 37q36 37 37 91q0 35 -17 64t-45 46q29 34 30 82q-1 54 -37 91q-37 36 -91 37h-128v0zM160 224h-96h96h-96v128v0h96v0q27 -1 45 -19t19 -45q-1 -27 -19 -45t-45 -19v0zM64 160h96h-96h128
q27 -1 45 -19t19 -45q-1 -27 -19 -45t-45 -19h-128v0v128v0z" />
    <glyph glyph-name="c" unicode="C" horiz-adv-x="384" 
d="M329 305q-49 47 -109 47v0v0q-60 0 -109 -47q-47 -49 -47 -113t47 -113q49 -47 109 -47t109 47l45 -46v0q-68 -65 -154 -65t-154 65q-44 45 -59 102q-14 57 0 114q15 57 59 101q68 66 154 66t154 -66l-45 -45v0z" />
    <glyph glyph-name="c" unicode="c" horiz-adv-x="384" 
d="M329 305q-49 47 -109 47v0v0q-60 0 -109 -47q-47 -49 -47 -113t47 -113q49 -47 109 -47t109 47l45 -46v0q-68 -65 -154 -65t-154 65q-44 45 -59 102q-14 57 0 114q15 57 59 101q68 66 154 66t154 -66l-45 -45v0z" />
    <glyph glyph-name="c" unicode="c" horiz-adv-x="384" 
d="M329 305q-49 47 -109 47v0v0q-60 0 -109 -47q-47 -49 -47 -113t47 -113q49 -47 109 -47t109 47l45 -46v0q-68 -65 -154 -65t-154 65q-44 45 -59 102q-14 57 0 114q15 57 59 101q68 66 154 66t154 -66l-45 -45v0z" />
    <glyph glyph-name="d" unicode="D" horiz-adv-x="384" 
d="M0 416h32h-32h160q63 -1 113 -31q51 -29 80 -80q30 -50 31 -113q-1 -63 -31 -113q-29 -51 -80 -80q-50 -30 -113 -31h-128h-32v32v0v384v0v32v0zM64 352v-320v320v-320h96v0q68 2 113 47t47 113q-2 68 -47 113t-113 47h-96v0z" />
    <glyph glyph-name="d" unicode="d" horiz-adv-x="384" 
d="M0 416h32h-32h160q63 -1 113 -31q51 -29 80 -80q30 -50 31 -113q-1 -63 -31 -113q-29 -51 -80 -80q-50 -30 -113 -31h-128h-32v32v0v384v0v32v0zM64 352v-320v320v-320h96v0q68 2 113 47t47 113q-2 68 -47 113t-113 47h-96v0z" />
    <glyph glyph-name="d" unicode="d" horiz-adv-x="384" 
d="M0 416h32h-32h160q63 -1 113 -31q51 -29 80 -80q30 -50 31 -113q-1 -63 -31 -113q-29 -51 -80 -80q-50 -30 -113 -31h-128h-32v32v0v384v0v32v0zM64 352v-320v320v-320h96v0q68 2 113 47t47 113q-2 68 -47 113t-113 47h-96v0z" />
    <glyph glyph-name="e" unicode="E" horiz-adv-x="320" 
d="M32 416h-32h32h-32v-32v0v-160v0v-32v0v-32v0v-160v0v-32v0h32h288v64v0h-32h-224v128v0h160h32v64v0h-32h-160v128v0h224h32v64v0h-32h-256z" />
    <glyph glyph-name="e" unicode="e" horiz-adv-x="320" 
d="M32 416h-32h32h-32v-32v0v-160v0v-32v0v-32v0v-160v0v-32v0h32h288v64v0h-32h-224v128v0h160h32v64v0h-32h-160v128v0h224h32v64v0h-32h-256z" />
    <glyph glyph-name="e" unicode="e" horiz-adv-x="320" 
d="M32 416h-32h32h-32v-32v0v-160v0v-32v0v-32v0v-160v0v-32v0h32h288v64v0h-32h-224v128v0h160h32v64v0h-32h-160v128v0h224h32v64v0h-32h-256z" />
    <glyph glyph-name="f" unicode="F" horiz-adv-x="320" 
d="M32 416h-32h32h-32v-32v0v-160v0v-32v0v-32v0v-160v0v-32v0h64v0v32v0v160v0h160h32v64v0h-32h-160v128v0h224h32v64v0h-32h-256z" />
    <glyph glyph-name="f" unicode="f" horiz-adv-x="320" 
d="M32 416h-32h32h-32v-32v0v-160v0v-32v0v-32v0v-160v0v-32v0h64v0v32v0v160v0h160h32v64v0h-32h-160v128v0h224h32v64v0h-32h-256z" />
    <glyph glyph-name="f" unicode="f" horiz-adv-x="320" 
d="M32 416h-32h32h-32v-32v0v-160v0v-32v0v-32v0v-160v0v-32v0h64v0v32v0v160v0h160h32v64v0h-32h-160v128v0h224h32v64v0h-32h-256z" />
    <glyph glyph-name="g" unicode="G" horiz-adv-x="448" 
d="M224 352q-68 -2 -113 -47v0v0q-45 -45 -47 -113q2 -68 47 -113t113 -47q59 1 102 37q43 35 55 91h-157v0v64v0h192h32v-32v0q-1 -63 -31 -113q-29 -51 -80 -80q-50 -30 -113 -31q-63 1 -113 31q-51 29 -80 80q-30 50 -31 113q1 63 31 113q29 51 80 80q50 30 113 31
q54 0 99 -23q45 -22 76 -61l-50 -40v0q-22 28 -55 44q-32 16 -70 16v0z" />
    <glyph glyph-name="g" unicode="g" horiz-adv-x="448" 
d="M224 352q-68 -2 -113 -47v0v0q-45 -45 -47 -113q2 -68 47 -113t113 -47q59 1 102 37q43 35 55 91h-157v0v64v0h192h32v-32v0q-1 -63 -31 -113q-29 -51 -80 -80q-50 -30 -113 -31q-63 1 -113 31q-51 29 -80 80q-30 50 -31 113q1 63 31 113q29 51 80 80q50 30 113 31
q54 0 99 -23q45 -22 76 -61l-50 -40v0q-22 28 -55 44q-32 16 -70 16v0z" />
    <glyph glyph-name="g" unicode="g" horiz-adv-x="448" 
d="M224 352q-68 -2 -113 -47v0v0q-45 -45 -47 -113q2 -68 47 -113t113 -47q59 1 102 37q43 35 55 91h-157v0v64v0h192h32v-32v0q-1 -63 -31 -113q-29 -51 -80 -80q-50 -30 -113 -31q-63 1 -113 31q-51 29 -80 80q-30 50 -31 113q1 63 31 113q29 51 80 80q50 30 113 31
q54 0 99 -23q45 -22 76 -61l-50 -40v0q-22 28 -55 44q-32 16 -70 16v0z" />
    <glyph glyph-name="h" unicode="H" horiz-adv-x="384" 
d="M320 192v-192v192v-192v-32v0h64v0v32v0v192v0v32v0v32v0v128v0v32v0h-64v0v-32v0v-128v0h-256v0v128v0v32v0h-64v0v-32v0v-128v0v-64v0v-192v0v-32v0h64v0v32v0v192v0h256v0z" />
    <glyph glyph-name="h" unicode="h" horiz-adv-x="384" 
d="M320 192v-192v192v-192v-32v0h64v0v32v0v192v0v32v0v32v0v128v0v32v0h-64v0v-32v0v-128v0h-256v0v128v0v32v0h-64v0v-32v0v-128v0v-64v0v-192v0v-32v0h64v0v32v0v192v0h256v0z" />
    <glyph glyph-name="h" unicode="h" horiz-adv-x="384" 
d="M320 192v-192v192v-192v-32v0h64v0v32v0v192v0v32v0v32v0v128v0v32v0h-64v0v-32v0v-128v0h-256v0v128v0v32v0h-64v0v-32v0v-128v0v-64v0v-192v0v-32v0h64v0v32v0v192v0h256v0z" />
    <glyph glyph-name="i" unicode="I" horiz-adv-x="320" 
d="M32 416h-32h32h-32v-64v0h32h96v-320v0h-96h-32v-64v0h32h288v64v0h-32h-96v320v0h96h32v64v0h-32h-256z" />
    <glyph glyph-name="i" unicode="i" horiz-adv-x="320" 
d="M32 416h-32h32h-32v-64v0h32h96v-320v0h-96h-32v-64v0h32h288v64v0h-32h-96v320v0h96h32v64v0h-32h-256z" />
    <glyph glyph-name="i" unicode="i" horiz-adv-x="320" 
d="M32 416h-32h32h-32v-64v0h32h96v-320v0h-96h-32v-64v0h32h288v64v0h-32h-96v320v0h96h32v64v0h-32h-256z" />
    <glyph glyph-name="j" unicode="J" horiz-adv-x="320" 
d="M320 416v-32v32v-32v-256v0q-2 -68 -47 -113t-113 -47q-68 2 -113 47t-47 113v32v0v32v0h64v0v-32v0v-32v0q1 -41 28 -68t68 -28q41 1 68 28t28 68v256v0v32v0h64v0z" />
    <glyph glyph-name="j" unicode="j" horiz-adv-x="320" 
d="M320 416v-32v32v-32v-256v0q-2 -68 -47 -113t-113 -47q-68 2 -113 47t-47 113v32v0v32v0h64v0v-32v0v-32v0q1 -41 28 -68t68 -28q41 1 68 28t28 68v256v0v32v0h64v0z" />
    <glyph glyph-name="j" unicode="j" horiz-adv-x="320" 
d="M320 416v-32v32v-32v-256v0q-2 -68 -47 -113t-113 -47q-68 2 -113 47t-47 113v32v0v32v0h64v0v-32v0v-32v0q1 -41 28 -68t68 -28q41 1 68 28t28 68v256v0v32v0h64v0z" />
    <glyph glyph-name="k" unicode="K" horiz-adv-x="320" 
d="M237 416h83h-83h83l-11 -13v0l-142 -171v0l151 -264v0h-74v0l-121 211v0l-59 -71v0v-108v0v-32v0h-64v0v32v0v120v0v264v0v32v0h64v0v-32v0v-176v0l39 48v0l134 160v0z" />
    <glyph glyph-name="k" unicode="k" horiz-adv-x="320" 
d="M237 416h83h-83h83l-11 -13v0l-142 -171v0l151 -264v0h-74v0l-121 211v0l-59 -71v0v-108v0v-32v0h-64v0v32v0v120v0v264v0v32v0h64v0v-32v0v-176v0l39 48v0l134 160v0z" />
    <glyph glyph-name="k" unicode="k" horiz-adv-x="320" 
d="M237 416h83h-83h83l-11 -13v0l-142 -171v0l151 -264v0h-74v0l-121 211v0l-59 -71v0v-108v0v-32v0h-64v0v32v0v120v0v264v0v32v0h64v0v-32v0v-176v0l39 48v0l134 160v0z" />
    <glyph glyph-name="l" unicode="L" horiz-adv-x="320" 
d="M96 416v-32v32v-32v-352v0h192h32v-64v0h-32h-256v32v0v384v0v32v0h64v0z" />
    <glyph glyph-name="l" unicode="l" horiz-adv-x="320" 
d="M96 416v-32v32v-32v-352v0h192h32v-64v0h-32h-256v32v0v384v0v32v0h64v0z" />
    <glyph glyph-name="l" unicode="l" horiz-adv-x="320" 
d="M96 416v-32v32v-32v-352v0h192h32v-64v0h-32h-256v32v0v384v0v32v0h64v0z" />
    <glyph glyph-name="m" unicode="M" horiz-adv-x="448" 
d="M0 416v-32v32v-32v-384v0v-32v0h64v0v32v0v278v0l133 -200v0l27 -40v0l27 40v0l133 200v0v-278v0v-32v0h64v0v32v0v384v0v32v0h-49v0l-10 -14v0l-165 -248v0l-165 248v0l-10 14v0h-49v0z" />
    <glyph glyph-name="m" unicode="m" horiz-adv-x="448" 
d="M0 416v-32v32v-32v-384v0v-32v0h64v0v32v0v278v0l133 -200v0l27 -40v0l27 40v0l133 200v0v-278v0v-32v0h64v0v32v0v384v0v32v0h-49v0l-10 -14v0l-165 -248v0l-165 248v0l-10 14v0h-49v0z" />
    <glyph glyph-name="m" unicode="m" horiz-adv-x="448" 
d="M0 416v-32v32v-32v-384v0v-32v0h64v0v32v0v278v0l133 -200v0l27 -40v0l27 40v0l133 200v0v-278v0v-32v0h64v0v32v0v384v0v32v0h-49v0l-10 -14v0l-165 -248v0l-165 248v0l-10 14v0h-49v0z" />
    <glyph glyph-name="n" unicode="N" horiz-adv-x="384" 
d="M0 416h47h-47h47l10 -12v0l263 -316v0v296v0v32v0h64v0v-32v0v-384v0v-32v0h-47v0l-10 11v0l-263 317v0v-296v0v-32v0h-64v0v32v0v384v0v32v0z" />
    <glyph glyph-name="n" unicode="n" horiz-adv-x="384" 
d="M0 416h47h-47h47l10 -12v0l263 -316v0v296v0v32v0h64v0v-32v0v-384v0v-32v0h-47v0l-10 11v0l-263 317v0v-296v0v-32v0h-64v0v32v0v384v0v32v0z" />
    <glyph glyph-name="n" unicode="n" horiz-adv-x="384" 
d="M0 416h47h-47h47l10 -12v0l263 -316v0v296v0v32v0h64v0v-32v0v-384v0v-32v0h-47v0l-10 11v0l-263 317v0v-296v0v-32v0h-64v0v32v0v384v0v32v0z" />
    <glyph glyph-name="o" unicode="O" horiz-adv-x="448" 
d="M224 352q-43 0 -80 -21v0v0q-37 -22 -59 -59q-21 -38 -21 -80t21 -80q22 -37 59 -59q37 -21 80 -21t80 21q37 22 59 59q21 38 21 80t-21 80q-22 37 -59 59q-37 21 -80 21v0zM448 192q-1 -61 -30 -112v0v0q-30 -51 -82 -82q-53 -30 -112 -30t-112 30q-52 31 -82 82
q-29 51 -30 112q1 61 30 112q30 51 82 82q53 30 112 30t112 -30q52 -31 82 -82q29 -51 30 -112v0z" />
    <glyph glyph-name="o" unicode="o" horiz-adv-x="448" 
d="M224 352q-43 0 -80 -21v0v0q-37 -22 -59 -59q-21 -38 -21 -80t21 -80q22 -37 59 -59q37 -21 80 -21t80 21q37 22 59 59q21 38 21 80t-21 80q-22 37 -59 59q-37 21 -80 21v0zM448 192q-1 -61 -30 -112v0v0q-30 -51 -82 -82q-53 -30 -112 -30t-112 30q-52 31 -82 82
q-29 51 -30 112q1 61 30 112q30 51 82 82q53 30 112 30t112 -30q52 -31 82 -82q29 -51 30 -112v0z" />
    <glyph glyph-name="o" unicode="o" horiz-adv-x="448" 
d="M224 352q-43 0 -80 -21v0v0q-37 -22 -59 -59q-21 -38 -21 -80t21 -80q22 -37 59 -59q37 -21 80 -21t80 21q37 22 59 59q21 38 21 80t-21 80q-22 37 -59 59q-37 21 -80 21v0zM448 192q-1 -61 -30 -112v0v0q-30 -51 -82 -82q-53 -30 -112 -30t-112 30q-52 31 -82 82
q-29 51 -30 112q1 61 30 112q30 51 82 82q53 30 112 30t112 -30q52 -31 82 -82q29 -51 30 -112v0z" />
    <glyph glyph-name="p" unicode="P" horiz-adv-x="320" 
d="M64 160h96h-96h96q41 1 68 28t28 68q-1 41 -28 68t-68 28h-96v0v-192v0zM0 96v32v-32v32v32v0v192v0v32v0v32v0h32h128q68 -2 113 -47t47 -113q-2 -68 -47 -113t-113 -47h-96v0v-96v0v-32v0h-64v0v32v0v96v0z" />
    <glyph glyph-name="p" unicode="p" horiz-adv-x="320" 
d="M64 160h96h-96h96q41 1 68 28t28 68q-1 41 -28 68t-68 28h-96v0v-192v0zM0 96v32v-32v32v32v0v192v0v32v0v32v0h32h128q68 -2 113 -47t47 -113q-2 -68 -47 -113t-113 -47h-96v0v-96v0v-32v0h-64v0v32v0v96v0z" />
    <glyph glyph-name="p" unicode="p" horiz-adv-x="320" 
d="M64 160h96h-96h96q41 1 68 28t28 68q-1 41 -28 68t-68 28h-96v0v-192v0zM0 96v32v-32v32v32v0v192v0v32v0v32v0h32h128q68 -2 113 -47t47 -113q-2 -68 -47 -113t-113 -47h-96v0v-96v0v-32v0h-64v0v32v0v96v0z" />
    <glyph glyph-name="q" unicode="Q" horiz-adv-x="448" 
d="M64 192q2 -68 47 -113v0v0q45 -45 113 -47q38 0 71 16l-100 144v0h78v0l72 -105v0q38 44 39 105q-2 68 -47 113t-113 47q-68 -2 -113 -47t-47 -113v0zM331 -5q-48 -26 -107 -27q-63 1 -113 31q-51 29 -80 80q-30 50 -31 113q1 63 31 113q29 51 80 80q50 30 113 31
q63 -1 113 -31q51 -29 80 -80q30 -50 31 -113q0 -47 -18 -87q-17 -41 -47 -71l66 -96v0l1 -2v0h-78v0l-41 59v0z" />
    <glyph glyph-name="q" unicode="q" horiz-adv-x="448" 
d="M64 192q2 -68 47 -113v0v0q45 -45 113 -47q38 0 71 16l-100 144v0h78v0l72 -105v0q38 44 39 105q-2 68 -47 113t-113 47q-68 -2 -113 -47t-47 -113v0zM331 -5q-48 -26 -107 -27q-63 1 -113 31q-51 29 -80 80q-30 50 -31 113q1 63 31 113q29 51 80 80q50 30 113 31
q63 -1 113 -31q51 -29 80 -80q30 -50 31 -113q0 -47 -18 -87q-17 -41 -47 -71l66 -96v0l1 -2v0h-78v0l-41 59v0z" />
    <glyph glyph-name="q" unicode="q" horiz-adv-x="448" 
d="M64 192q2 -68 47 -113v0v0q45 -45 113 -47q38 0 71 16l-100 144v0h78v0l72 -105v0q38 44 39 105q-2 68 -47 113t-113 47q-68 -2 -113 -47t-47 -113v0zM331 -5q-48 -26 -107 -27q-63 1 -113 31q-51 29 -80 80q-30 50 -31 113q1 63 31 113q29 51 80 80q50 30 113 31
q63 -1 113 -31q51 -29 80 -80q30 -50 31 -113q0 -47 -18 -87q-17 -41 -47 -71l66 -96v0l1 -2v0h-78v0l-41 59v0z" />
    <glyph glyph-name="r" unicode="R" horiz-adv-x="320" 
d="M32 416h-32h32h-32v-32v0v-224v0v-160v0v-32v0h64v0v32v0v128v0h93v0l89 -160v0h73v0l-4 7v0l-89 162v0q42 16 67 52q26 36 27 83q-2 61 -42 102q-41 40 -102 42h-144v0zM176 192h-112h112h-112v160v0h112v0q34 -1 57 -23q22 -23 23 -57q-1 -34 -23 -57q-23 -22 -57 -23
v0z" />
    <glyph glyph-name="r" unicode="r" horiz-adv-x="320" 
d="M32 416h-32h32h-32v-32v0v-224v0v-160v0v-32v0h64v0v32v0v128v0h93v0l89 -160v0h73v0l-4 7v0l-89 162v0q42 16 67 52q26 36 27 83q-2 61 -42 102q-41 40 -102 42h-144v0zM176 192h-112h112h-112v160v0h112v0q34 -1 57 -23q22 -23 23 -57q-1 -34 -23 -57q-23 -22 -57 -23
v0z" />
    <glyph glyph-name="r" unicode="r" horiz-adv-x="320" 
d="M32 416h-32h32h-32v-32v0v-224v0v-160v0v-32v0h64v0v32v0v128v0h93v0l89 -160v0h73v0l-4 7v0l-89 162v0q42 16 67 52q26 36 27 83q-2 61 -42 102q-41 40 -102 42h-144v0zM176 192h-112h112h-112v160v0h112v0q34 -1 57 -23q22 -23 23 -57q-1 -34 -23 -57q-23 -22 -57 -23
v0z" />
    <glyph glyph-name="s" unicode="S" horiz-adv-x="320" 
d="M99 343q-30 -13 -34 -40q-3 -20 2 -29q4 -10 17 -19q29 -18 85 -32v0q2 -1 3 -1q25 -7 52 -16q26 -10 49 -25q24 -16 38 -45q13 -30 7 -66q-14 -64 -72 -88q-55 -22 -124 -10v0v0v0v0q-19 3 -43 11q-25 7 -45 14q-5 2 -9 3q-2 1 -3 1l-31 11v0l21 60v0l30 -10v0
q7 -2 16 -5q1 0 2 -1q20 -7 39 -13q20 -6 33 -8q57 -8 89 6q30 13 34 40q3 20 -2 29q-4 9 -17 19q-29 18 -85 32v0q-2 1 -3 1q-25 7 -52 16q-26 10 -49 25q-24 16 -38 45q-13 30 -7 66l32 -5v0l-32 5v0q14 64 72 87q55 23 124 11q11 -1 32 -6q22 -4 34 -7l31 -8v0l-16 -62v0
l-31 8v0q-10 3 -30 7q-20 3 -30 5l5 32v0l-5 -32v0q-57 8 -89 -6v0z" />
    <glyph glyph-name="s" unicode="s" horiz-adv-x="320" 
d="M99 343q-30 -13 -34 -40q-3 -20 2 -29q4 -10 17 -19q29 -18 85 -32v0q2 -1 3 -1q25 -7 52 -16q26 -10 49 -25q24 -16 38 -45q13 -30 7 -66q-14 -64 -72 -88q-55 -22 -124 -10v0v0v0v0q-19 3 -43 11q-25 7 -45 14q-5 2 -9 3q-2 1 -3 1l-31 11v0l21 60v0l30 -10v0
q7 -2 16 -5q1 0 2 -1q20 -7 39 -13q20 -6 33 -8q57 -8 89 6q30 13 34 40q3 20 -2 29q-4 9 -17 19q-29 18 -85 32v0q-2 1 -3 1q-25 7 -52 16q-26 10 -49 25q-24 16 -38 45q-13 30 -7 66l32 -5v0l-32 5v0q14 64 72 87q55 23 124 11q11 -1 32 -6q22 -4 34 -7l31 -8v0l-16 -62v0
l-31 8v0q-10 3 -30 7q-20 3 -30 5l5 32v0l-5 -32v0q-57 8 -89 -6v0z" />
    <glyph glyph-name="s" unicode="s" horiz-adv-x="320" 
d="M99 343q-30 -13 -34 -40q-3 -20 2 -29q4 -10 17 -19q29 -18 85 -32v0q2 -1 3 -1q25 -7 52 -16q26 -10 49 -25q24 -16 38 -45q13 -30 7 -66q-14 -64 -72 -88q-55 -22 -124 -10v0v0v0v0q-19 3 -43 11q-25 7 -45 14q-5 2 -9 3q-2 1 -3 1l-31 11v0l21 60v0l30 -10v0
q7 -2 16 -5q1 0 2 -1q20 -7 39 -13q20 -6 33 -8q57 -8 89 6q30 13 34 40q3 20 -2 29q-4 9 -17 19q-29 18 -85 32v0q-2 1 -3 1q-25 7 -52 16q-26 10 -49 25q-24 16 -38 45q-13 30 -7 66l32 -5v0l-32 5v0q14 64 72 87q55 23 124 11q11 -1 32 -6q22 -4 34 -7l31 -8v0l-16 -62v0
l-31 8v0q-10 3 -30 7q-20 3 -30 5l5 32v0l-5 -32v0q-57 8 -89 -6v0z" />
    <glyph glyph-name="t" unicode="T" horiz-adv-x="384" 
d="M32 416h-32h32h-32v-64v0h32h128v-352v0v-32v0h64v0v32v0v352v0h128h32v64v0h-32h-320z" />
    <glyph glyph-name="t" unicode="t" horiz-adv-x="384" 
d="M32 416h-32h32h-32v-64v0h32h128v-352v0v-32v0h64v0v32v0v352v0h128h32v64v0h-32h-320z" />
    <glyph glyph-name="t" unicode="t" horiz-adv-x="384" 
d="M32 416h-32h32h-32v-64v0h32h128v-352v0v-32v0h64v0v32v0v352v0h128h32v64v0h-32h-320z" />
    <glyph glyph-name="u" unicode="U" horiz-adv-x="384" 
d="M64 416v-32v32v-32v-224v0q1 -54 37 -91q37 -36 91 -37q54 1 91 37q36 37 37 91v224v0v32v0h64v0v-32v0v-224v0q-2 -82 -56 -136t-136 -56q-82 2 -136 56t-56 136v224v0v32v0h64v0z" />
    <glyph glyph-name="u" unicode="u" horiz-adv-x="384" 
d="M64 416v-32v32v-32v-224v0q1 -54 37 -91q37 -36 91 -37q54 1 91 37q36 37 37 91v224v0v32v0h64v0v-32v0v-224v0q-2 -82 -56 -136t-136 -56q-82 2 -136 56t-56 136v224v0v32v0h64v0z" />
    <glyph glyph-name="u" unicode="u" horiz-adv-x="384" 
d="M64 416v-32v32v-32v-224v0q1 -54 37 -91q37 -36 91 -37q54 1 91 37q36 37 37 91v224v0v32v0h64v0v-32v0v-224v0q-2 -82 -56 -136t-136 -56q-82 2 -136 56t-56 136v224v0v32v0h64v0z" />
    <glyph glyph-name="v" unicode="V" horiz-adv-x="384" 
d="M0 416l162 -427l-162 427l162 -427l8 -21v0h44v0l8 21v0l162 427v0h-68v0l-124 -326v0l-124 326v0h-68v0z" />
    <glyph glyph-name="v" unicode="v" horiz-adv-x="384" 
d="M0 416l162 -427l-162 427l162 -427l8 -21v0h44v0l8 21v0l162 427v0h-68v0l-124 -326v0l-124 326v0h-68v0z" />
    <glyph glyph-name="v" unicode="v" horiz-adv-x="384" 
d="M0 416l162 -427l-162 427l162 -427l8 -21v0h44v0l8 21v0l162 427v0h-68v0l-124 -326v0l-124 326v0h-68v0z" />
    <glyph glyph-name="w" unicode="W" horiz-adv-x="576" 
d="M507 416h67h-67h67l-144 -426v0l-7 -22v0h-47v0l-7 23v0l-81 279v0l-81 -279v0l-7 -23v0h-47v0l-7 22v0l-144 426v0h67v0l105 -309v0l83 286v0l7 23v0h48v0l7 -23v0l83 -286v0l105 309v0z" />
    <glyph glyph-name="w" unicode="w" horiz-adv-x="576" 
d="M507 416h67h-67h67l-144 -426v0l-7 -22v0h-47v0l-7 23v0l-81 279v0l-81 -279v0l-7 -23v0h-47v0l-7 22v0l-144 426v0h67v0l105 -309v0l83 286v0l7 23v0h48v0l7 -23v0l83 -286v0l105 309v0z" />
    <glyph glyph-name="w" unicode="w" horiz-adv-x="576" 
d="M507 416h67h-67h67l-144 -426v0l-7 -22v0h-47v0l-7 23v0l-81 279v0l-81 -279v0l-7 -23v0h-47v0l-7 22v0l-144 426v0h67v0l105 -309v0l83 286v0l7 23v0h48v0l7 -23v0l83 -286v0l105 309v0z" />
    <glyph glyph-name="x" unicode="X" horiz-adv-x="384" 
d="M306 416h78h-78h78l-2 -2v0l-151 -222v0l151 -222v0l2 -2v0h-78v0l-114 167v0l-114 -167v0h-78v0l2 2v0l151 222v0l-151 222v0l-2 2v0h78v0l114 -167v0l114 167v0z" />
    <glyph glyph-name="x" unicode="x" horiz-adv-x="384" 
d="M306 416h78h-78h78l-2 -2v0l-151 -222v0l151 -222v0l2 -2v0h-78v0l-114 167v0l-114 -167v0h-78v0l2 2v0l151 222v0l-151 222v0l-2 2v0h78v0l114 -167v0l114 167v0z" />
    <glyph glyph-name="x" unicode="x" horiz-adv-x="384" 
d="M306 416h78h-78h78l-2 -2v0l-151 -222v0l151 -222v0l2 -2v0h-78v0l-114 167v0l-114 -167v0h-78v0l2 2v0l151 222v0l-151 222v0l-2 2v0h78v0l114 -167v0l114 167v0z" />
    <glyph glyph-name="y" unicode="Y" horiz-adv-x="384" 
d="M1 416l159 -265l-159 265l159 -265v-151v0v-32v0h64v0v32v0v151v0l159 265v0h-75v0l-116 -194v0l-116 194v0h-75v0z" />
    <glyph glyph-name="y" unicode="y" horiz-adv-x="384" 
d="M1 416l159 -265l-159 265l159 -265v-151v0v-32v0h64v0v32v0v151v0l159 265v0h-75v0l-116 -194v0l-116 194v0h-75v0z" />
    <glyph glyph-name="y" unicode="y" horiz-adv-x="384" 
d="M1 416l159 -265l-159 265l159 -265v-151v0v-32v0h64v0v32v0v151v0l159 265v0h-75v0l-116 -194v0l-116 194v0h-75v0z" />
    <glyph glyph-name="z" unicode="Z" horiz-adv-x="384" 
d="M384 416v-44v44v-44l-7 -9v0l-277 -331v0h252h32v-64v0h-32h-352v44v0l7 8v0l277 332v0h-252h-32v64v0h32h352z" />
    <glyph glyph-name="z" unicode="z" horiz-adv-x="384" 
d="M384 416v-44v44v-44l-7 -9v0l-277 -331v0h252h32v-64v0h-32h-352v44v0l7 8v0l277 332v0h-252h-32v64v0h32h352z" />
    <glyph glyph-name="z" unicode="z" horiz-adv-x="384" 
d="M384 416v-44v44v-44l-7 -9v0l-277 -331v0h252h32v-64v0h-32h-352v44v0l7 8v0l277 332v0h-252h-32v64v0h32h352z" />
    <glyph glyph-name="bracket-square" unicode="[" horiz-adv-x="192" 
d="M0 416h32h-32h160v-64v0h-32h-64v-320v0h64h32v-64v0h-32h-128v32v0v384v0v32v0z" />
    <glyph glyph-name="slash-back" unicode="\" horiz-adv-x="320" 
d="M0 448h71h-71h71l249 -512v0h-71v0l-249 512v0z" />
    <glyph glyph-name="bracket-square-right" unicode="]" horiz-adv-x="192" 
d="M192 416h-32h32h-160v-64v0h32h64v-320v0h-64h-32v-64v0h32h128v32v0v384v0v32v0z" />
    <glyph glyph-name="accent-grave" unicode="`" horiz-adv-x="192" 
d="M144 448l32 -224l-32 224l32 -224h-64v0l-80 224v0h112v0z" />
    <glyph glyph-name="bracket-curly" unicode="{" horiz-adv-x="256" 
d="M96 416h-32h32h-32v-32v0v-115v0l-55 -54v0l-9 -10v0v-26v0l9 -10v0l55 -54v0v-115v0v-32v0h32h128v64v0h-32h-64v96v0v13v0l-9 10v0l-42 41v0l42 41v0l9 10v0v13v0v96v0h64h32v64v0h-32h-96z" />
    <glyph glyph-name="pipe" unicode="|" horiz-adv-x="64" 
d="M64 448v-32v32v-32v-448v0v-32v0h-64v0v32v0v448v0v32v0h64v0z" />
    <glyph glyph-name="bracket-curly-right" unicode="}" horiz-adv-x="256" 
d="M160 416h32h-32h32v-32v0v-115v0l55 -54v0l9 -10v0v-26v0l-9 -10v0l-55 -54v0v-115v0v-32v0h-32h-128v64v0h32h64v96v0v13v0l9 10v0l42 41v0l-42 41v0l-9 10v0v13v0v96v0h-64h-32v64v0h32h96z" />
    <glyph glyph-name="tilde" unicode="~" horiz-adv-x="448" 
d="M0 320h32h-32h141l10 -9v0l182 -183v0h51v0v128v0v32v0h64v0v-32v0v-160v0v-32v0h-32h-109l-10 9v0l-182 183v0h-51v0v-128v0v-32v0h-64v0v32v0v160v0v32v0z" />
    <glyph glyph-name="tilde" unicode="&#xf69f;" horiz-adv-x="448" 
d="M0 320h32h-32h141l10 -9v0l182 -183v0h51v0v128v0v32v0h64v0v-32v0v-160v0v-32v0h-32h-109l-10 9v0l-182 183v0h-51v0v-128v0v-32v0h-64v0v32v0v160v0v32v0z" />
    <glyph glyph-name="tilde" unicode="&#xf69f;" horiz-adv-x="448" 
d="M0 320h32h-32h141l10 -9v0l182 -183v0h51v0v128v0v32v0h64v0v-32v0v-160v0v-32v0h-32h-109l-10 9v0l-182 183v0h-51v0v-128v0v-32v0h-64v0v32v0v160v0v32v0z" />
    <glyph glyph-name="caravan-simple" unicode="&#xe000;" horiz-adv-x="640" 
d="M416 416h-416h416h-416v-384v0h96v0q1 -41 28 -68t68 -28q41 1 68 28t28 68h288h64v64v0h-32h-32v160v0q-2 68 -47 113t-113 47v0zM64 320h192h-192h192v-128v0h-192v0v128v0zM448 320v-128v128v-128h-128v0v128v0h128v0zM144 32q1 27 24 42q24 12 48 0q23 -15 24 -42
q-1 -27 -24 -42q-24 -12 -48 0q-23 15 -24 42v0z" />
    <glyph glyph-name="cat-space" unicode="&#xe001;" horiz-adv-x="640" 
d="M576 288q-1 -54 -37 -91v0v0q-37 -36 -91 -37q-54 1 -91 37q-36 37 -37 91q1 50 32 85v-85v0q1 -41 28 -68t68 -28q41 1 68 28t28 68v85v0q31 -35 32 -85v0zM416 352l-41 41l41 -41l-41 41q32 22 73 23q41 -1 73 -23l-41 -41v0h-64v0zM480 131q56 12 91 55v0v0
q36 43 37 102q-2 68 -47 113t-113 47q-68 -2 -113 -47t-47 -113q0 -18 4 -34q-42 -7 -76 -28q-34 -22 -56 -56v86v0q-1 41 -28 68t-68 28h-32v0v-64v0h32v0q14 0 23 -9t9 -23v-288v0v-32v0h32h240v64v0h-32h-56l136 109v0v-141v0v-32v0h64v0v32v0v163v0zM400 288q1 15 16 16
q15 -1 16 -16q-1 -15 -16 -16q-15 1 -16 16v0zM480 304q15 -1 16 -16q-1 -15 -16 -16q-15 1 -16 16q1 15 16 16v0zM241 401l-17 47l17 -47l-17 47l-17 -47v0l-47 -17v0l47 -17v0l17 -47v0l17 47v0l47 17v0l-47 17v0z" />
    <glyph glyph-name="coffee-pot" unicode="&#xe002;" 
d="M32 416h-32h32h-32v-32v0v-128v0v-32v0h64v0v32v0v96v0h53v0l28 -83v0q-37 -27 -59 -67q-22 -41 -22 -90v-8v0q1 -40 19 -71q17 -30 34 -48q18 -17 19 -17h304v0q1 0 19 17q17 18 34 48q18 31 19 71v8v0q0 49 -22 90q-22 40 -59 67l49 147v0h-256h-192zM194 224h188h-188
h188q26 -15 44 -40q17 -25 21 -56h-318v0q4 31 21 56q18 25 44 40v0z" />
    <glyph glyph-name="comet" unicode="&#xe003;" 
d="M512 448l-213 -76l213 76l-213 -76l5 60v0l-203 -117v0q-47 -28 -74 -75q-27 -46 -27 -101q2 -86 59 -144q58 -57 144 -59q55 0 101 27q47 27 75 74l117 203v0l-60 -5v0l76 213v0zM232 172l88 -13l-88 13l88 -13l-64 -61v0l15 -87v0l-79 41v0l-79 -41v0l15 87v0l-64 61v0
l88 13v0l40 79v0l40 -79v0z" />
    <glyph glyph-name="fan-table" unicode="&#xe004;" horiz-adv-x="448" 
d="M256 34q76 14 125 70v0v0q49 56 51 136q-2 88 -61 147t-147 61q-88 -2 -147 -61t-61 -147q2 -80 51 -136t125 -70v-34v0h-96h-32v-64v0h32h288v64v0h-32h-96v34v0zM179 394l45 -112l-45 112l45 -112q15 19 36 29q22 9 48 6q36 -6 58 -34q21 -28 17 -65l-3 -16v0l-120 17
v0q10 -22 7 -46q-2 -24 -18 -44q-24 -29 -59 -33q-34 -4 -64 18l-13 10v0l75 95v0q-24 3 -43 17q-20 14 -30 38q-13 35 1 67t48 47l15 6v0zM224 224q15 1 16 16q-1 15 -16 16q-15 -1 -16 -16q1 -15 16 -16v0z" />
    <glyph glyph-name="faucet" unicode="&#xe005;" 
d="M192 384v-45v45v-45l-128 13v0v-64v0l128 13v0l31 3v0h1v0v0v0v0v0h1v0l31 -3v0l128 -13v0v64v0l-128 -13v0v45v0h-64v0zM160 224l-32 -32l32 32l-32 -32h-128v0v-128v0h132v0q33 -46 92 -48q59 2 92 48h36v0q14 0 23 -9t9 -23v-32v0h128v0v32v0q-2 68 -47 113t-113 47
h-32v0l-32 32v0h-32v0v45v0l-32 3v0l-32 -3v0v-45v0h-32v0z" />
    <glyph glyph-name="faucet-drip" unicode="&#xe006;" 
d="M256 448v-45v45v-45l128 13v0v-64v0l-128 13v0l-31 3v0h-1v0v0v0v0v0h-1v0l-31 -3v0l-128 -13v0v64v0l128 -13v0v45v0h64v0zM128 256l32 32l-32 -32l32 32h32v0v45v0l32 3v0l32 -3v0v-45v0h32v0l32 -32v0h32v0q68 -2 113 -47t47 -113v-32v0h-128v0v32v0q0 14 -9 23t-23 9
h-36v0q-33 -46 -92 -48q-59 2 -92 48h-132v0v128v0h128v0zM448 32l28 -49l-28 49l28 -49q4 -7 4 -15q0 -14 -9 -23t-23 -9v0v0q-14 0 -23 9t-9 23q0 8 4 15l28 49v0z" />
    <glyph glyph-name="faucet-drip" unicode="&#x1f6b0;" 
d="M256 448v-45v45v-45l128 13v0v-64v0l-128 13v0l-31 3v0h-1v0v0v0v0v0h-1v0l-31 -3v0l-128 -13v0v64v0l128 -13v0v45v0h64v0zM128 256l32 32l-32 -32l32 32h32v0v45v0l32 3v0l32 -3v0v-45v0h32v0l32 -32v0h32v0q68 -2 113 -47t47 -113v-32v0h-128v0v32v0q0 14 -9 23t-23 9
h-36v0q-33 -46 -92 -48q-59 2 -92 48h-132v0v128v0h128v0zM448 32l28 -49l-28 49l28 -49q4 -7 4 -15q0 -14 -9 -23t-23 -9v0v0q-14 0 -23 9t-9 23q0 8 4 15l28 49v0z" />
    <glyph glyph-name="faucet-drip" unicode="&#x1f6b0;" 
d="M256 448v-45v45v-45l128 13v0v-64v0l-128 13v0l-31 3v0h-1v0v0v0v0v0h-1v0l-31 -3v0l-128 -13v0v64v0l128 -13v0v45v0h64v0zM128 256l32 32l-32 -32l32 32h32v0v45v0l32 3v0l32 -3v0v-45v0h32v0l32 -32v0h32v0q68 -2 113 -47t47 -113v-32v0h-128v0v32v0q0 14 -9 23t-23 9
h-36v0q-33 -46 -92 -48q-59 2 -92 48h-132v0v128v0h128v0zM448 32l28 -49l-28 49l28 -49q4 -7 4 -15q0 -14 -9 -23t-23 -9v0v0q-14 0 -23 9t-9 23q0 8 4 15l28 49v0z" />
    <glyph glyph-name="galaxy" unicode="&#xe008;" 
d="M336 448h32h-32h32l-13 -8v0q-39 -24 -62 -62q-24 -38 -28 -83q25 9 55 9h9h3t5 -1q75 -8 124 -61t51 -130v-32v0l-8 13v0q-24 39 -62 62q-38 24 -83 28q9 -25 9 -55v-9v-3t-1 -5q-8 -75 -61 -124t-130 -51h-32v0l13 8v0q39 24 62 62q24 38 28 83q-25 -9 -55 -9h-9h-2
q-3 0 -6 1q-75 8 -124 61t-51 130v32v0l8 -13v0q24 -39 62 -62q38 -24 83 -28q-9 25 -9 55v9v2q0 3 1 6q8 75 61 124t130 51v0zM256 152l40 40l-40 -40l40 40l-40 40v0l-40 -40v0l40 -40v0z" />
    <glyph glyph-name="garage" unicode="&#xe009;" horiz-adv-x="640" 
d="M0 320v-384v384v-384h96v0v320v0h448v0v-320v0h96v0v384v0l-320 128v0l-320 -128v0zM512 224h-384h384h-384v-96v0h384v0v96v0zM128 -64h384h-384h384v160v0h-384v0v-160v0zM256 32h16h-16h128v-32v0h-16h-112v32v0z" />
    <glyph glyph-name="garage-car" unicode="&#xe00a;" horiz-adv-x="640" 
d="M0 -64v384v-384v384l320 128v0l320 -128v0v-384v0h-96v0v320v0h-448v0v-320v0h-96v0zM224 208h192h-192h208l6 -15v0l40 -103v0l2 -4v0v-4v0v-26v0v-24v0v-64v0v-32v0h-64v0v32v0v16v0h-192v0v-16v0v-32v0h-64v0v32v0v64v0v24v0v24v0v4v0l2 5v0l40 104v0l6 15v0h16v0z
M418 112l-18 48l18 -48l-18 48h-159v0l-19 -48v0h196v0zM240 24q22 2 24 24q-2 22 -24 24q-22 -2 -24 -24q2 -22 24 -24v0zM424 48q-2 22 -24 24q-22 -2 -24 -24q2 -22 24 -24q22 2 24 24v0z" />
    <glyph glyph-name="garage-open" unicode="&#xe00b;" horiz-adv-x="640" 
d="M0 320v-384v384v-384h96v0v320v0h448v0v-320v0h96v0v384v0l-320 128v0l-320 -128v0zM177 128l-15 -39l15 39l-15 -39l-2 -5v0v-4v0v-24v0v-24v0v-64v0v-32v0h64v0v32v0v16v0h192v0v-16v0v-32v0h64v0v32v0v64v0v24v0v26v0v4v0l-2 4v0l-14 38v0h-52v0l7 -16v0h-197v0l6 16
v0h-51v0zM240 72q22 -2 24 -24q-2 -22 -24 -24q-22 2 -24 24q2 22 24 24v0zM376 48q2 22 24 24q22 -2 24 -24q-2 -22 -24 -24q-22 2 -24 24v0zM512 224h-384h384h-384v-64v0h384v0v64v0z" />
    <glyph glyph-name="heat" unicode="&#xe00c;" horiz-adv-x="448" 
d="M208 416v-32v32v-32v-80v0q0 -53 32 -96l19 -26v0q44 -60 45 -134v-48v0v-32v0h-64v0v32v0v48v0q0 53 -32 96l-19 26v0q-44 60 -45 134v80v0v32v0h64v0zM64 352v-32v32v-32v-32v0q0 -53 32 -96l19 -26v0q44 -60 45 -134v-32v0v-32v0h-64v0v32v0v32v0q0 53 -32 96l-19 26
v0q-44 60 -45 134v32v0v32v0h64v0zM352 320v-32v32v-32q0 -53 32 -96l19 -26v0q44 -60 45 -134v-32v0v-32v0h-64v0v32v0v32v0q0 53 -32 96l-19 26v0q-44 60 -45 134v32v0v32v0h64v0v-32v0z" />
    <glyph glyph-name="house-chimney-window" unicode="&#xe00d;" horiz-adv-x="576" 
d="M576 160h-64h64h-64l1 -224v0h-449v0v224v0h-64v0v48v0l288 240v0l128 -107v0v75v0h96v0v-155v0l64 -53v0v-48v0zM352 256h-128h128h-128v-128v0h128v0v128v0z" />
    <glyph glyph-name="house-day" unicode="&#xe00e;" horiz-adv-x="640" 
d="M160 448l-40 -62l40 62l-40 -62l-73 15v0l16 -73v0l-63 -40v0l62 -40v0l-15 -73v0l73 15v0l16 -25v0l3 3v0l52 45v0q-14 -6 -31 -6q-34 1 -57 23q-22 23 -23 57q1 34 23 57q23 22 57 23q34 -1 57 -23q22 -23 23 -57q0 -23 -11 -41l67 58v0l-38 24v0l15 73v0l-73 -15v0
l-40 62v0zM208 288q-1 27 -24 42q-24 12 -48 0q-23 -15 -24 -42q1 -27 24 -42q24 -12 48 0q23 15 24 42v0zM400 352l-240 -208l240 208l-240 -208v-48v0h64v0v-160v0h352v0v160v0h64v0v48v0l-240 208v0zM352 160h96h-96h96v-96v0h-96v0v96v0z" />
    <glyph glyph-name="house-person-leave" unicode="&#xe00f;" horiz-adv-x="640" 
d="M376 330l-136 118l136 -118l-136 118l-240 -208v0v-48v0h64v0v-160v0h254v0l44 44v0l22 56v0l4 10v0l-10 3v0l-61 20v0l-30 10v0l10 31v0l31 92v0l4 13v0l13 6v0l31 13v0zM128 256h96h-96h96v-96v0h-96v0v96v0zM528 352q27 1 42 24q12 24 0 48q-15 23 -42 24
q-27 -1 -42 -24q-12 -24 0 -48q15 -23 42 -24v0zM452 321l-9 -4l9 4l-9 -4l-72 -32v0l-13 -5v0l-4 -14v0l-16 -48v0l-10 -30v0l60 -20v0l10 30v0l12 35v0l37 16v0l-17 -64v0q-8 -33 14 -59l71 -78v0l22 -80v0l9 -31v0l61 17v0l-8 30v0l-24 88v0l-2 8v0l-5 6v0l-53 57v0
l19 62v0l13 -27v0l5 -10v0l10 -5v0l48 -24v0l28 58v0l-38 19v0l-35 70v0l-7 14v0l-16 3v0l-80 16v0l-10 2v0zM414 112l-25 -62l25 62l-25 -62l-44 -43v0l-22 -23v0l45 -45v0l23 22v0l48 48v0l4 5v0l3 6v0l15 39v0l-40 45v0q-4 4 -7 8v0z" />
    <glyph glyph-name="house-night" unicode="&#xe010;" horiz-adv-x="640" 
d="M88 360q0 29 16 51v0v0q16 22 42 32q-16 5 -34 5q-48 -1 -79 -33q-32 -31 -33 -79q1 -48 33 -79q31 -32 79 -33q31 0 56 15q25 14 40 39q-15 -6 -32 -6q-37 1 -62 26t-26 62v0zM256 448l-21 -43l21 43l-21 -43l-43 -21v0l43 -21v0l21 -43v0l21 43v0l43 21v0l-43 21v0
l-21 43v0zM400 352l-240 -208l240 208l-240 -208v-48v0h64v0v-160v0h352v0v160v0h64v0v48v0l-240 208v0zM352 160h96h-96h96v-96v0h-96v0v96v0zM75 85l-43 -21l43 21l-43 -21l43 -21v0l21 -43v0l21 43v0l43 21v0l-43 21v0l-21 43v0l-21 -43v0z" />
    <glyph glyph-name="house-person-return" unicode="&#xe011;" horiz-adv-x="640" 
d="M381 326l-6 -11l6 11l-6 -11l-38 -75v0l-29 -15v0l-28 -14v0l14 -29v0l29 -57v0l14 -28v0l29 14v0l13 7v0l-14 -16v0l-6 -6v0l-2 -8v0l-15 -56v0h-278v0v160v0h-64v0v48v0l240 208v0l141 -122v0zM128 256v-96v96v-96h96v0v96v0h-96v0zM432 448q27 -1 42 -24q12 -24 0 -48
q-15 -23 -42 -24q-27 1 -42 24q-12 24 0 48q15 23 42 24v0zM508 321l9 -4l-9 4l9 -4l72 -32v0l13 -5v0l4 -14v0l16 -48v0l11 -30v0l-61 -20v0l-10 30v0l-12 35v0l-36 16v0l17 -64v0q7 -33 -15 -59l-71 -78v0l-22 -80v0l-8 -31v0l-62 17v0l8 30v0l24 88v0l2 8v0l5 6v0l53 57
v0l-19 62v0l-13 -27v0l-5 -10v0l-10 -5v0l-48 -24v0l-28 58v0l38 19v0l35 70v0l7 14v0l16 3v0l80 16v0l10 2v0zM546 112l25 -62l-25 62l25 -62l44 -43v0l22 -23v0l-45 -45v0l-23 22v0l-48 48v0l-4 5v0l-3 6v0l-15 39v0l40 45v0q4 4 7 8v0z" />
    <glyph glyph-name="house-signal" unicode="&#xe012;" horiz-adv-x="576" 
d="M336 448l-240 -208l240 208l-240 -208v-32v0q62 -23 108 -68q45 -46 68 -108h240v0v160v0h64v0v48v0l-240 208v0zM288 256h96h-96h96v-96v0h-96v0v96v0zM0 144q88 -2 147 -61v0v0q59 -59 61 -147h48v0q-1 72 -35 129q-34 58 -92 92q-57 34 -129 35v-48v0zM32 -64
q14 0 23 9v0v0q9 9 9 23t-9 23t-23 9t-23 -9t-9 -23t9 -23t23 -9v0zM112 -64h48h-48h48q-2 68 -47 113t-113 47v-48v0q48 -1 79 -33q32 -31 33 -79v0z" />
    <glyph glyph-name="lamp-desk" unicode="&#xe014;" 
d="M258 448q-28 -1 -47 -19v0v0q-18 -19 -19 -47q0 -27 19 -47l4 -3v0l-110 -118v0l-12 -13v0l4 -17v0l46 -184v0h-111h-32v-64v0h32h151h1h1h167h32v64v0h-32h-143l-46 183v0l93 99v0v-106v0l48 -48v0l80 80v0l48 48v0l80 80v0l-48 48v0h-115v0l-44 45v0q-20 19 -47 19v0z
M480 208q-1 22 -15 35l-68 -68v0q13 -14 35 -15q20 1 34 14q13 14 14 34v0z" />
    <glyph glyph-name="lamp-floor" unicode="&#xe015;" horiz-adv-x="384" 
d="M0 224l64 224l-64 -224l64 224h256v0l64 -224v0h-384v0zM160 192h64h-64h64v-192v0h64h32v-64v0h-32h-224v64v0h32h64v192v0z" />
    <glyph glyph-name="light-ceiling" unicode="&#xe016;" 
d="M224 286v162v-162v162h64v0v-162v0q97 -14 159 -84q63 -70 65 -170h-512v0q2 100 65 170q62 70 159 84v0zM256 -64q-27 1 -45 19v0v0q-18 18 -19 45h128v0q-1 -27 -19 -45t-45 -19v0z" />
    <glyph glyph-name="light-switch" unicode="&#xe017;" horiz-adv-x="384" 
d="M384 448h-384h384h-384v-512v0h384v0v512v0zM96 176h192h-192h192v-144v0h-192v0v144v0zM96 208v144v-144v144h192v0v-144v0h-192v0zM192 416q15 -1 16 -16q-1 -15 -16 -16q-15 1 -16 16q1 15 16 16v0zM192 0q15 -1 16 -16q-1 -15 -16 -16q-15 1 -16 16q1 15 16 16v0z
" />
    <glyph glyph-name="light-switch-off" unicode="&#xe018;" horiz-adv-x="384" 
d="M384 -64h-384h384h-384v512v0h384v0v-512v0zM96 32h192h-192h192v320v0h-192v0v-320v0zM192 0q-15 -1 -16 -16q1 -15 16 -16q15 1 16 16q-1 15 -16 16v0zM192 416q-15 -1 -16 -16q1 -15 16 -16q15 1 16 16q-1 15 -16 16v0zM256 64h-128h128h-128v128v0h128v0v-128v0z" />
    <glyph glyph-name="light-switch-on" unicode="&#xe019;" horiz-adv-x="384" 
d="M384 448h-384h384h-384v-512v0h384v0v512v0zM96 352h192h-192h192v-320v0h-192v0v320v0zM192 416q15 -1 16 -16q-1 -15 -16 -16q-15 1 -16 16q1 15 16 16v0zM192 0q15 -1 16 -16q-1 -15 -16 -16q-15 1 -16 16q1 15 16 16v0zM256 320h-128h128h-128v-128v0h128v0v128v0z
" />
    <glyph glyph-name="microwave" unicode="&#xe01b;" horiz-adv-x="576" 
d="M0 416h576h-576h576v-416v0h-64v0v-32v0h-64v0v32v0h-320v0v-32v0h-64v0v32v0h-64v0v416v0zM96 320v-224v224v-224h320v0v224v0h-320v0zM512 336h-32h32h-32v-256v0h32v0v256v0z" />
    <glyph glyph-name="outlet" unicode="&#xe01c;" horiz-adv-x="448" 
d="M448 416h-448h448h-448v-448v0h448v0v448v0zM64 192q1 44 17 72v0v0q15 29 30 42v0v0q16 14 17 14h192v0q1 0 17 -14q15 -13 30 -42q16 -28 17 -72q-1 -44 -17 -72q-15 -29 -30 -42q-16 -14 -17 -14h-192v0q-1 0 -17 14q-15 13 -30 42q-16 28 -17 72v0zM176 256h-32h32
h-32v-16v0v-48v0v-16v0h32v0v16v0v48v0v16v0zM304 256h-32h32h-32v-16v0v-48v0v-16v0h32v0v16v0v48v0v16v0zM224 160q-22 -2 -24 -24v-24v0h48v0v24v0q-2 22 -24 24v0z" />
    <glyph glyph-name="oven" unicode="&#xe01d;" horiz-adv-x="448" 
d="M0 448v-160v160v-160h448v0v160v0h-448v0zM56 368q2 22 24 24q22 -2 24 -24q-2 -22 -24 -24q-22 2 -24 24v0zM176 392q22 -2 24 -24q-2 -22 -24 -24q-22 2 -24 24q2 22 24 24v0zM248 368q2 22 24 24q22 -2 24 -24q-2 -22 -24 -24q-22 2 -24 24v0zM368 392q22 -2 24 -24
q-2 -22 -24 -24q-22 2 -24 24q2 22 24 24v0zM384 192v-192v192v-192h-320v0v192v0h320v0zM64 256h-64h64h-64v-64v0v-192v0v-64v0h64h384v64v0v192v0v64v0h-64h-320zM336 160h-224h224h-240v-32v0h16h240v32v0h-16v0z" />
    <glyph glyph-name="planet-moon" unicode="&#xe01f;" horiz-adv-x="576" 
d="M512 448q36 -1 55 -32q18 -32 0 -64q-19 -31 -55 -32q-36 1 -55 32q-18 32 0 64q19 31 55 32v0zM0 160q1 61 30 112v0v0q30 51 82 82q53 30 112 30t112 -30q52 -31 82 -82q29 -51 30 -112q-1 -61 -30 -112q-30 -51 -82 -82q-53 -30 -112 -30t-112 30q-52 31 -82 82
q-29 51 -30 112v0zM256 333q-16 3 -32 3q-66 -1 -113 -41t-60 -103h77v0l64 -64v0v-64v0h32v0v-72v0h40v0l56 104v0v64v0h-112v0l-32 32v0l80 96v0v45v0z" />
    <glyph glyph-name="planet-ringed" unicode="&#xe020;" 
d="M320 128q94 97 133 166v0v0q39 70 46 108v0v0q7 37 5 38v0v0v0q-1 2 -42 -6t-117 -54q-41 20 -89 20q-88 -2 -147 -61t-61 -147q0 -48 20 -89q-46 -76 -54 -117t-6 -42q1 -2 38 5q38 7 107 46q70 39 167 133v0zM256 -16q88 2 147 61v0v0q59 59 61 147q0 26 -6 51
q-41 -61 -116 -137q-76 -75 -137 -116q25 -6 51 -6v0z" />
    <glyph glyph-name="planet-ringed" unicode="&#x1fa90;" 
d="M320 128q94 97 133 166v0v0q39 70 46 108v0v0q7 37 5 38v0v0v0q-1 2 -42 -6t-117 -54q-41 20 -89 20q-88 -2 -147 -61t-61 -147q0 -48 20 -89q-46 -76 -54 -117t-6 -42q1 -2 38 5q38 7 107 46q70 39 167 133v0zM256 -16q88 2 147 61v0v0q59 59 61 147q0 26 -6 51
q-41 -61 -116 -137q-76 -75 -137 -116q25 -6 51 -6v0z" />
    <glyph glyph-name="planet-ringed" unicode="&#x1fa90;" 
d="M320 128q94 97 133 166v0v0q39 70 46 108v0v0q7 37 5 38v0v0v0q-1 2 -42 -6t-117 -54q-41 20 -89 20q-88 -2 -147 -61t-61 -147q0 -48 20 -89q-46 -76 -54 -117t-6 -42q1 -2 38 5q38 7 107 46q70 39 167 133v0zM256 -16q88 2 147 61v0v0q59 59 61 147q0 26 -6 51
q-41 -61 -116 -137q-76 -75 -137 -116q25 -6 51 -6v0z" />
    <glyph glyph-name="police-box" unicode="&#xe021;" horiz-adv-x="384" 
d="M208 448v-16v16v-16v-16v0h112v0v-32v0h32v0v-384v0h32v0v-64v0h-384v0v64v0h32v0v384v0h32v0v32v0h112v0v16v0v16v0h32v0zM96 320v-32v32v-32h32v0v32v0h-32v0zM96 272v-32v32v-32h32v0v32v0h-32v0zM176 320h-32h32h-32v-32v0h32v0v32v0zM144 272v-32v32v-32h32v0v32v0
h-32v0zM240 320h-32h32h-32v-32v0h32v0v32v0zM240 272h-32h32h-32v-32v0h32v0v32v0zM256 320v-32v32v-32h32v0v32v0h-32v0zM288 272h-32h32h-32v-32v0h32v0v32v0zM96 208v-80v80v-80h80v0v80v0h-80v0z" />
    <glyph glyph-name="person-to-portal" unicode="&#xe022;" 
d="M224 400q1 27 24 42q24 12 48 0q23 -15 24 -42q-1 -27 -24 -42q-24 -12 -48 0q-23 15 -24 42v0zM115 352h13h-13h83l6 -2v0l80 -32v0l11 -5v0l6 -11v0l39 -78v0h13v0q4 97 26 159q22 63 53 65q34 -3 57 -75q22 -72 23 -181q-1 -109 -23 -181q-23 -72 -57 -75
q-31 2 -53 65q-22 62 -26 159h-33h-20l-9 18v0l-24 48v0l-29 -77v0l67 -42v0l20 -13v0l-6 -23v0l-16 -56v0l-16 -56v0l-7 -23v0h-66v0l11 41v0l16 56v0l10 33v0l-87 53v0q-19 13 -26 33t0 42l31 94v0h-28v0l-38 -39v0l-23 -22v0l-45 45v0l22 23v0l48 48v0l10 9v0zM91 96
l19 41l-19 -41l19 41q11 -27 37 -45l10 -6v0l-16 -35v0l-8 -19v0h-21h-112v64v0h32h59z" />
    <glyph glyph-name="person-from-portal" unicode="&#xe023;" 
d="M154 96q6 45 6 96q0 27 -2 52l18 -17v0l23 22v0l38 39v0h28v0l-31 -94v0q-7 -22 0 -42t27 -33l86 -53v0l-10 -33v0l-16 -56v0l-11 -41v0h66v0l7 23v0l16 56v0l16 56v0l6 23v0l-20 13v0l-67 42v0l29 77v0l24 -48v0l9 -18v0h20h80v64v0h-32h-28l-40 78v0l-5 11v0l-11 5v0
l-80 32v0l-6 2v0h-6h-77l-10 -9v0l-48 -48v0v-1q-9 69 -29 111q-19 42 -44 43q-34 -3 -57 -75q-22 -72 -23 -181q1 -109 23 -181q23 -72 57 -75q19 1 35 26q16 26 28 70h65h21l8 19v0l16 35v0l-9 6v0q-27 17 -38 45l-19 -41v0h-33v0zM416 400q-1 27 -24 42q-24 12 -48 0
q-23 -15 -24 -42q1 -27 24 -42q24 -12 48 0q23 15 24 42v0z" />
    <glyph glyph-name="radar" unicode="&#xe024;" 
d="M305 275q-22 13 -49 13q-41 -1 -68 -28t-28 -68q1 -41 28 -68t68 -28q41 1 68 28t28 68h64v0q-1 -56 -33 -98q-33 -41 -84 -56q-14 25 -43 26q-29 -1 -43 -26q-39 11 -68 38q-28 28 -41 66q23 14 24 42q-2 31 -28 44q13 54 56 89q42 34 100 35q54 -1 95 -31l23 23v0
q-50 39 -118 40q-71 -1 -122 -44q-51 -42 -66 -110q-16 -4 -26 -16q-10 -13 -10 -30q0 -18 12 -31q11 -13 28 -16q15 -49 51 -84q36 -34 86 -47q4 -17 17 -27q12 -11 30 -11t30 11q13 10 17 27q64 17 104 67t41 119h64v0q-1 -72 -35 -129q-34 -58 -92 -92q-57 -34 -129 -35
q-72 1 -129 35q-58 34 -92 92q-34 57 -35 129q1 72 35 129q34 58 92 92q57 34 129 35q95 -2 163 -59l36 36v0l17 17v0l34 -34v0l-17 -17v0l-174 -174v0q5 -12 5 -25q-1 -27 -19 -45t-45 -19q-27 1 -45 19t-19 45q1 27 19 45t45 19q14 0 25 -5l24 24v0z" />
    <glyph glyph-name="raygun" unicode="&#xe025;" horiz-adv-x="576" 
d="M192 384h96h-96h96v8v0v24v0h48v0v-24v0v-240v0v-24v0h-48v0v24v0v8v0l-112 -224v0l-128 64v0l80 160v0h-16v0q-48 1 -79 33q-32 31 -33 79q0 34 18 61q17 26 46 40v75v0l128 -64v0zM416 384v-24v24v-24v-56v0h64v0l96 48v0v-160v0l-96 48v0h-64v0v-56v0v-24v0h-48v0v24
v0v176v0v24v0h48v0zM136 272q-2 22 -24 24q-22 -2 -24 -24q2 -22 24 -24q22 2 24 24v0zM208 248q22 2 24 24q-2 22 -24 24q-22 -2 -24 -24q2 -22 24 -24v0z" />
    <glyph glyph-name="refrigerator" unicode="&#xe026;" horiz-adv-x="384" 
d="M384 448h-384h384h-384v-160v0h288v0v48v0v16v0h32v0v-16v0v-48v0h64v0v160v0zM384 256h-64h64h-64v-176v0v-16v0h-32v0v16v0v176v0h-288v0v-320v0h384v0v320v0z" />
    <glyph glyph-name="rocket-launch" unicode="&#xe027;" 
d="M384 143v-127v127v-127l-160 -80v0v142v0q0 34 -24 58q-24 23 -58 24h-142v0l80 160v0h127v0q45 70 100 98q55 29 107 30t89 -9q10 -37 9 -89t-30 -107q-28 -55 -98 -100v0zM424 320q-1 23 -20 35q-20 10 -40 0q-19 -12 -20 -35q1 -23 20 -35q20 -10 40 0q19 12 20 35v0z
M167 -22q-27 -24 -66 -33v0v0q-38 -8 -68 -9v0v0h-32q-1 2 -1 33q1 30 9 68q9 39 33 65q27 26 62 26t63 -26q25 -27 25 -62t-25 -62v0zM120 14q8 9 8 21v0v0q0 12 -8 21q-9 8 -21 8t-21 -8q-11 -14 -13 -34q-1 -19 0 -21q2 -1 21 0q20 2 34 13v0z" />
    <glyph glyph-name="rocket-launch" unicode="&#x1f680;" 
d="M384 143v-127v127v-127l-160 -80v0v142v0q0 34 -24 58q-24 23 -58 24h-142v0l80 160v0h127v0q45 70 100 98q55 29 107 30t89 -9q10 -37 9 -89t-30 -107q-28 -55 -98 -100v0zM424 320q-1 23 -20 35q-20 10 -40 0q-19 -12 -20 -35q1 -23 20 -35q20 -10 40 0q19 12 20 35v0z
M167 -22q-27 -24 -66 -33v0v0q-38 -8 -68 -9v0v0h-32q-1 2 -1 33q1 30 9 68q9 39 33 65q27 26 62 26t63 -26q25 -27 25 -62t-25 -62v0zM120 14q8 9 8 21v0v0q0 12 -8 21q-9 8 -21 8t-21 -8q-11 -14 -13 -34q-1 -19 0 -21q2 -1 21 0q20 2 34 13v0z" />
    <glyph glyph-name="rocket-launch" unicode="&#x1f680;" 
d="M384 143v-127v127v-127l-160 -80v0v142v0q0 34 -24 58q-24 23 -58 24h-142v0l80 160v0h127v0q45 70 100 98q55 29 107 30t89 -9q10 -37 9 -89t-30 -107q-28 -55 -98 -100v0zM424 320q-1 23 -20 35q-20 10 -40 0q-19 -12 -20 -35q1 -23 20 -35q20 -10 40 0q19 12 20 35v0z
M167 -22q-27 -24 -66 -33v0v0q-38 -8 -68 -9v0v0h-32q-1 2 -1 33q1 30 9 68q9 39 33 65q27 26 62 26t63 -26q25 -27 25 -62t-25 -62v0zM120 14q8 9 8 21v0v0q0 12 -8 21q-9 8 -21 8t-21 -8q-11 -14 -13 -34q-1 -19 0 -21q2 -1 21 0q20 2 34 13v0z" />
    <glyph glyph-name="sensor" unicode="&#xe028;" horiz-adv-x="448" 
d="M448 416h-448h448h-448v-448v0h448v0v448v0zM112 328v-144v144v-144v-24v0h-48v0v24v0v144v0v24v0h48v0v-24v0zM208 328v-144v144v-144v-24v0h-48v0v24v0v144v0v24v0h48v0v-24v0z" />
    <glyph glyph-name="sensor-triangle-exclamation" unicode="&#xe029;" horiz-adv-x="640" 
d="M448 416h-448h448h-448v-448v0h237v0l211 387v0v61v0zM112 328v-144v144v-144v-24v0h-48v0v24v0v144v0v24v0h48v0v-24v0zM208 328v-144v144v-144v-24v0h-48v0v24v0v144v0v24v0h48v0v-24v0zM448 288l-192 -352l192 352l-192 -352h384v0l-192 352v0zM464 144v-64v64v-64
v-16v0h-32v0v16v0v64v0v16v0h32v0v-16v0zM432 32h32h-32h32v-32v0h-32v0v32v0z" />
    <glyph glyph-name="sensor-fire" unicode="&#xe02a;" horiz-adv-x="640" 
d="M448 416h-448h448h-448v-448v0h337v0q-47 52 -49 128q1 43 23 81q21 38 49 69q40 45 88 83v87v0zM112 328v-144v144v-144v-24v0h-48v0v24v0v144v0v24v0h48v0v-24v0zM208 328v-144v144v-144v-24v0h-48v0v24v0v144v0v24v0h48v0v-24v0zM448 288q-23 -14 -52 -42v0v0
q-30 -28 -52 -66v0v0q-23 -39 -24 -84q2 -68 47 -113t113 -47q68 2 113 47t47 113q1 22 -19 66q-21 45 -77 94l-32 -32v0l-64 64v0zM544 48q-1 -27 -19 -45v0v0q-18 -19 -45 -19t-45 19q-18 18 -19 45q1 24 17 46q15 22 30 36q16 13 17 14q1 -1 17 -14q15 -14 30 -36
q16 -22 17 -46v0z" />
    <glyph glyph-name="sensor-on" unicode="&#xe02b;" horiz-adv-x="640" 
d="M0 416h448h-448h448v-448v0h-448v0v448v0zM112 352h-48h48h-48v-24v0v-144v0v-24v0h48v0v24v0v144v0v24v0zM208 352h-48h48h-48v-24v0v-144v0v-24v0h48v0v24v0v144v0v24v0zM597 340l-48 -32l48 32l-48 -32l-20 -13v0l-26 40v0l20 13v0l48 32v0l20 13v0l26 -40v0l-20 -13
v0zM536 216h80h-80h104v-48v0h-24h-104v48v0h24v0zM549 76l48 -32l-48 32l48 -32l20 -13v0l-26 -40v0l-20 13v0l-48 32v0l-20 13v0l26 40v0l20 -13v0z" />
    <glyph glyph-name="sensor-cloud" unicode="&#xe02c;" horiz-adv-x="640" 
d="M448 416h-448h448h-448v-448v0h224v0v48v0q0 34 18 61q17 26 46 40q3 46 35 76q31 30 77 31q26 0 48 -11v203v0zM112 328v-144v144v-144v-24v0h-48v0v24v0v144v0v24v0h48v0v-24v0zM208 328v-144v144v-144v-24v0h-48v0v24v0v144v0v24v0h48v0v-24v0zM256 16v-80v80v-80h80
h304v80v0q-1 30 -18 51q-18 21 -46 27v10v0q-1 24 -16 40q-16 15 -40 16q-28 -1 -44 -22q-9 24 -29 39t-47 15q-34 -1 -57 -23q-22 -23 -23 -57v-18v0q-28 -6 -46 -27q-17 -21 -18 -51v0z" />
    <glyph glyph-name="siren" unicode="&#xe02d;" horiz-adv-x="448" 
d="M80 352l-32 -256l32 256l-32 -256h58v0l22 178v0l2 14v0h32v0l-2 -18v0l-22 -174v0h262v0l-32 256v0h-288v0zM448 64h-448h448h-448v-96v0h448v0v96v0z" />
    <glyph glyph-name="siren-on" unicode="&#xe02e;" horiz-adv-x="640" 
d="M69 412l48 -32l-48 32l48 -32l20 -13v0l-26 -40v0l-20 13v0l-48 32v0l-20 13v0l26 40v0l20 -13v0zM597 372l-48 -32l48 32l-48 -32l-20 -13v0l-26 40v0l20 13v0l48 32v0l20 13v0l26 -40v0l-20 -13v0zM24 256h64h-64h88v-48v0h-24h-88v48v0h24v0zM552 256h64h-64h88v-48v0
h-24h-88v48v0h24v0zM144 96l32 256l-32 -256l32 256h288v0l32 -256v0h-262v0l22 174v0l2 18v0h-32v0l-2 -14v0l-22 -178v0h-58v0zM96 64h448h-448h448v-96v0h-448v0v96v0z" />
    <glyph glyph-name="solar-system" unicode="&#xe02f;" 
d="M448 192q-1 -64 -36 -112q-19 -2 -31 -15q-13 -14 -13 -33q1 -20 14 -34q14 -13 34 -14q20 1 34 14q13 14 14 34q0 5 -1 9q48 65 49 151q-1 72 -35 129q-34 58 -92 92q-57 34 -129 35q-64 -1 -117 -28q29 -19 36 -54q37 18 81 18q82 -2 136 -56t56 -136v0zM256 0
q-82 2 -136 56v0v0q-54 54 -56 136q1 64 36 112q19 2 31 15q13 14 13 33q-1 20 -14 34q-14 13 -34 14q-20 -1 -34 -14q-13 -14 -14 -34q0 -5 1 -9q-48 -65 -49 -151q1 -72 35 -129q34 -58 92 -92q57 -34 129 -35q64 1 117 28q-29 19 -36 54q-37 -18 -81 -18v0zM360 192
q-1 -44 -30 -74v0v0q-30 -29 -74 -30q-44 1 -74 30q-29 30 -30 74q1 44 30 74q30 29 74 30q31 0 56 -16q1 -16 11 -27t25 -13q12 -22 12 -48v0zM392 280q0 17 -12 28v0v0q-11 12 -28 12q-6 0 -11 -2q-37 25 -85 26q-65 -2 -107 -45q-43 -42 -45 -107q2 -65 45 -107
q42 -43 107 -45q65 2 107 45q43 42 45 107q0 40 -19 73q3 7 3 15v0zM256 128l64 64l-64 -64l64 64l-64 64v0l-64 -64v0l64 -64v0z" />
    <glyph glyph-name="circle-sort" unicode="&#xe030;" 
d="M0 192q1 70 34 128v0v0q34 58 94 94q61 34 128 34t128 -34q60 -36 94 -94q33 -58 34 -128q-1 -70 -34 -128q-34 -58 -94 -94q-61 -34 -128 -34t-128 34q-60 36 -94 94q-33 58 -34 128v0zM144 256v-32v32v-32h224v0v32v0l-112 96v0l-112 -96v0zM256 32l112 96l-112 -96
l112 96v32v0h-224v0v-32v0l112 -96v0z" />
    <glyph glyph-name="circle-sort-down" unicode="&#xe031;" 
d="M512 192q-1 70 -34 128v0v0q-34 58 -94 94q-61 34 -128 34t-128 -34q-60 -36 -94 -94q-33 -58 -34 -128q1 -70 34 -128q34 -58 94 -94q61 -34 128 -34t128 34q60 36 94 94q33 58 34 128v0zM144 128v32v-32v32h224v0v-32v0l-112 -96v0l-112 96v0zM144 224v32v-32v32
l112 96v0l112 -96v0v-32v0h-32h-192zM256 310l-63 -54l63 54l-63 -54h126v0l-63 54v0z" />
    <glyph glyph-name="circle-sort-up" unicode="&#xe032;" 
d="M0 192q1 70 34 128v0v0q34 58 94 94q61 34 128 34t128 -34q60 -36 94 -94q33 -58 34 -128q-1 -70 -34 -128q-34 -58 -94 -94q-61 -34 -128 -34t-128 34q-60 36 -94 94q-33 58 -34 128v0zM144 256v-32v32v-32h224v0v32v0l-112 96v0l-112 -96v0zM144 160v-32v32v-32
l112 -96v0l112 96v0v32v0h-32h-192zM256 74l-63 54l63 -54l-63 54h126v0l-63 -54v0z" />
    <glyph glyph-name="space-station-moon" unicode="&#xe033;" 
d="M512 192q0 -12 -1 -23q-110 -40 -255 -41q-145 1 -255 41q-1 11 -1 23q1 72 35 129q34 58 92 92q57 34 129 35q72 -1 129 -35q58 -34 92 -92q34 -57 35 -129v0zM256 -64q-93 2 -160 56v0v0q-68 55 -89 141q110 -36 249 -37q139 1 249 37q-21 -86 -89 -141
q-67 -54 -160 -56v0zM160 288q0 14 9 23v0v0q9 9 23 9t23 -9t9 -23t-9 -23t-23 -9t-23 9t-9 23v0zM272 288q-1 45 -40 69q-40 22 -80 0q-39 -24 -40 -69q1 -45 40 -69q40 -22 80 0q39 24 40 69v0z" />
    <glyph glyph-name="space-station-moon-construction" unicode="&#xe034;" 
d="M511 169q1 11 1 23q0 16 -2 32h-62v0v64v0h-32h-64v64v0h64v0v40v0q-67 54 -160 56q-72 -1 -129 -35q-58 -34 -92 -92q-34 -57 -35 -129q0 -12 1 -23q110 -40 255 -41q145 1 255 41v0zM7 133q21 -86 89 -141v0v0q67 -54 160 -56q58 0 107 23t85 64v41v0h-64v0v41v0
q-61 -9 -128 -9q-139 1 -249 37v0zM192 256q14 0 23 9v0v0q9 9 9 23t-9 23t-23 9t-23 -9t-9 -23t9 -23t23 -9v0zM192 368q45 -1 69 -40q22 -40 0 -80q-24 -39 -69 -40q-45 1 -69 40q-22 40 0 80q24 39 69 40v0z" />
    <glyph glyph-name="sprinkler" unicode="&#xe035;" 
d="M24 448q22 -2 24 -24q-2 -22 -24 -24q-22 2 -24 24q2 22 24 24v0zM0 320q2 22 24 24q22 -2 24 -24q-2 -22 -24 -24q-22 2 -24 24v0zM0 216q2 22 24 24q22 -2 24 -24q-2 -22 -24 -24q-22 2 -24 24v0zM64 376q2 22 24 24q22 -2 24 -24q-2 -22 -24 -24q-22 2 -24 24v0z
M88 288q22 -2 24 -24q-2 -22 -24 -24q-22 2 -24 24q2 22 24 24v0zM128 320q2 22 24 24q22 -2 24 -24q-2 -22 -24 -24q-22 2 -24 24v0zM488 240q22 -2 24 -24q-2 -22 -24 -24q-22 2 -24 24q2 22 24 24v0zM512 320q-2 -22 -24 -24q-22 2 -24 24q2 22 24 24q22 -2 24 -24v0z
M488 448q22 -2 24 -24q-2 -22 -24 -24q-22 2 -24 24q2 22 24 24v0zM448 376q-2 -22 -24 -24q-22 2 -24 24q2 22 24 24q22 -2 24 -24v0zM424 288q22 -2 24 -24q-2 -22 -24 -24q-22 2 -24 24q2 22 24 24v0zM384 320q-2 -22 -24 -24q-22 2 -24 24q2 22 24 24q22 -2 24 -24v0z
M288 384v-32v32v-32v-160v0h128v0v-40v0l-96 -88v0v-128v0h-128v0v128v0l-96 88v0v40v0h128v0v160v0v32v0h64v0z" />
    <glyph glyph-name="star-shooting" unicode="&#xe036;" 
d="M297 391l17 17l-17 -17l17 17l-34 34v0l-17 -17v0l-32 -32v0l-17 -17v0l34 -34v0l17 17v0l32 32v0zM489 199l17 17l-17 -17l17 17l-34 34v0l-17 -17v0l-32 -32v0l-17 -17v0l34 -34v0l17 17v0l32 32v0zM506 408l-34 34l34 -34l-34 34l-17 -17v0l-128 -128v0l-17 -17v0
l34 -34v0l17 17v0l128 128v0l17 17v0zM253 183l-59 121l59 -121l-59 121l-60 -121v0l-134 -20v0l97 -94v0l-23 -133v0l120 63v0l119 -63v0l-23 133v0l97 94v0l-134 20v0z" />
    <glyph glyph-name="star-shooting" unicode="&#x1f320;" 
d="M297 391l17 17l-17 -17l17 17l-34 34v0l-17 -17v0l-32 -32v0l-17 -17v0l34 -34v0l17 17v0l32 32v0zM489 199l17 17l-17 -17l17 17l-34 34v0l-17 -17v0l-32 -32v0l-17 -17v0l34 -34v0l17 17v0l32 32v0zM506 408l-34 34l34 -34l-34 34l-17 -17v0l-128 -128v0l-17 -17v0
l34 -34v0l17 17v0l128 128v0l17 17v0zM253 183l-59 121l59 -121l-59 121l-60 -121v0l-134 -20v0l97 -94v0l-23 -133v0l120 63v0l119 -63v0l-23 133v0l97 94v0l-134 20v0z" />
    <glyph glyph-name="star-shooting" unicode="&#x1f320;" 
d="M297 391l17 17l-17 -17l17 17l-34 34v0l-17 -17v0l-32 -32v0l-17 -17v0l34 -34v0l17 17v0l32 32v0zM489 199l17 17l-17 -17l17 17l-34 34v0l-17 -17v0l-32 -32v0l-17 -17v0l34 -34v0l17 17v0l32 32v0zM506 408l-34 34l34 -34l-34 34l-17 -17v0l-128 -128v0l-17 -17v0
l34 -34v0l17 17v0l128 128v0l17 17v0zM253 183l-59 121l59 -121l-59 121l-60 -121v0l-134 -20v0l97 -94v0l-23 -133v0l120 63v0l119 -63v0l-23 133v0l97 94v0l-134 20v0z" />
    <glyph glyph-name="starfighter" unicode="&#xe037;" horiz-adv-x="640" 
d="M352 448l32 -256l-32 256l32 -256v-224v0h-128v0v224v0l32 256v0h64v0zM288 192v-64v64v-64h64v0v64v0q0 14 -9 23t-23 9t-23 -9t-9 -23v0zM72 376v-24v24v-24v-24v0h24v0v-48v0h-24v0v-184v0h56v0v64v0h96v0v-64v0v-64v0v-32v0v-32v0v-32v0h-64v0v32v0v13v0l-88 35v0
v-16v0v-24v0h-48v0v24v0v280v0h-24v0v48v0h24v0v24v0v24v0h48v0zM616 376v-24v24v-24v-24v0h24v0v-48v0h-24v0v-280v0v-24v0h-48v0v24v0v16v0l-88 -35v0v-13v0v-32v0h-64v0v32v0v32v0v32v0v64v0v64v0h96v0v-64v0h56v0v184v0h-24v0v48v0h24v0v24v0v24v0h48v0z" />
    <glyph glyph-name="starfighter-twin-ion-engine" unicode="&#xe038;" horiz-adv-x="576" 
d="M64 416v-32v32v-32v-147v0l76 15v0q18 45 57 72q40 27 91 28q51 -1 91 -28q39 -27 57 -72l76 -15v0v147v0v32v0h64v0v-32v0v-160v0v-64v0v-160v0v-32v0h-64v0v32v0v147v0l-76 -15v0q-18 -45 -57 -72q-40 -27 -91 -28q-51 1 -91 28q-39 27 -57 72l-76 15v0v-147v0v-32v0
h-64v0v32v0v160v0v64v0v160v0v32v0h64v0zM272 97v33v-33v33q-9 2 -16 7l-24 -23v0q18 -13 40 -17v0zM210 136l23 23l-23 -23l23 23q-5 8 -7 17h-33v0q4 -22 17 -40v0zM193 208h33h-33h33q2 9 7 16l-23 24v0q-13 -18 -17 -40v0zM232 270l23 -23l-23 23l23 -23q8 5 17 7v33v0
q-22 -4 -40 -17v0zM344 114l-23 23l23 -23l-23 23q-8 -5 -17 -7v-33v0q22 4 40 17v0zM366 136q13 18 17 40h-33v0q-2 -9 -7 -17l23 -23v0zM350 208h33h-33h33q-4 22 -17 40l-23 -24v0q5 -7 7 -16v0zM344 270q-18 13 -40 17v-33v0q9 -2 17 -7l23 23v0zM311 169q9 9 9 23
t-9 23t-23 9t-23 -9t-9 -23t9 -23t23 -9t23 9v0v0z" />
    <glyph glyph-name="starship" unicode="&#xe039;" horiz-adv-x="640" 
d="M448 256q36 -1 55 -32q18 -32 0 -64q-19 -31 -55 -32q-36 1 -55 32q-18 32 0 64q19 31 55 32v0zM448 0q52 0 96 26v0v0q44 25 70 70t26 96t-26 96t-70 70q-44 26 -96 26t-96 -26q-44 -25 -70 -70t-26 -96t26 -96t70 -70q44 -26 96 -26v0zM480 192q0 14 -9 23v0v0
q-9 9 -23 9t-23 -9t-9 -23t9 -23t23 -9t23 9t9 23v0zM189 243l-52 45l52 -45l-52 45h71h32v64v0h-32h-208v-64v0h32h32l66 -57v0l-34 -7v0v-64v0l34 -7v0l-66 -57v0h-32h-32v-64v0h32h208v64v0h-32h-71l52 45v0l43 -8v0q-8 28 -8 59t8 59l-43 -8v0z" />
    <glyph glyph-name="starship-freighter" unicode="&#xe03a;" horiz-adv-x="576" 
d="M224 -32q-63 1 -113 31v0v0q-51 29 -80 80v0v0q-30 50 -31 113q1 63 31 113q29 51 80 80q50 30 113 31q64 0 124 -23l228 -89v0v-80v0h-130h-30v-64v0h30h130v-80v0l-96 -37v0v-75v0h-128v0l-29 15v0q-48 -15 -99 -15v0zM224 240q27 -1 42 -24q12 -24 0 -48
q-15 -23 -42 -24q-27 1 -42 24q-12 24 0 48q15 23 42 24v0zM224 112q45 1 69 40q22 40 0 80q-24 39 -69 40q-45 -1 -69 -40q-22 -40 0 -80q24 -39 69 -40v0zM80 176q15 1 16 16q-1 15 -16 16q-15 -1 -16 -16q1 -15 16 -16v0zM128 288q-1 15 -16 16q-15 -1 -16 -16
q1 -15 16 -16q15 1 16 16v0zM112 80q15 1 16 16q-1 15 -16 16q-15 -1 -16 -16q1 -15 16 -16v0z" />
    <glyph glyph-name="sword-laser" unicode="&#xe03b;" 
d="M480 448l-250 -226l250 226l-250 -226l56 -56v0l226 250v0l-32 32v0zM184 223l-23 -23l23 23l-23 -23l103 -103v0l23 23v0l-12 11v0l-80 80v0l-11 12v0zM161 177l-23 -23l23 23l-23 -23l80 -80v0l23 23v0l-80 80v0zM126 142l-20 -20l20 20l-20 -20l80 -80v0l20 20v0
l-80 80v0zM80 112l-80 -80l80 80l-80 -80v-48v0l32 -32v0l16 -16v0h48v0l80 80v0l-96 96v0z" />
    <glyph glyph-name="sword-laser-alt" unicode="&#xe03c;" 
d="M480 448l-248 -224l248 224l-248 -224h106v0l174 192v0l-32 32v0zM80 -64l98 98l-98 -98l98 98l-18 19v0l-98 -99v0l18 -18v0zM149 64l-21 21l21 -21l-21 21l-98 -99v0l20 -20v0l99 98v0zM0 16l18 -18l-18 18l18 -18l99 98v0l-19 18v0l-98 -98v0zM134 102l32 -32l-32 32
l32 -32l24 -24v0l146 146v0h-160v0l-66 -66v0l24 -24v0z" />
    <glyph glyph-name="swords-laser" unicode="&#xe03d;" horiz-adv-x="640" 
d="M352 168v106v-106v106l-192 174v0l-32 -32v0l224 -248v0zM622 -2l18 18l-18 -18l18 18l-98 98v0l-19 -18v0l99 -98v0zM610 -14l-98 99l98 -99l-98 99l-21 -21v0l99 -98v0l20 20v0zM578 -46l-98 99l98 -99l-98 99l-18 -19v0l98 -98v0l18 18v0zM450 46l24 24l-24 -24l24 24
l32 32v0l24 24v0l-146 146v0v-160v0l66 -66v0zM247 237l-27 -25l27 25l-27 -25l-12 12v0l-33 -33v0l-9 8v0q-9 9 -22 9t-23 -9q-9 -10 -9 -23t9 -23l8 -8v0l-129 -129v0l80 -80v0l144 144v0v18v0l75 82v0l-52 57v0zM391 282l121 134l-121 -134l121 134l-32 32v0l-136 -123v0
l47 -43v0zM152 104q1 15 16 16q15 -1 16 -16q-1 -15 -16 -16q-15 1 -16 16v0z" />
    <glyph glyph-name="telescope" unicode="&#xe03e;" horiz-adv-x="576" 
d="M476 170l97 56l-97 -56l97 56l-128 222v0l-97 -56v0l128 -222v0zM336 348l-2 6l-297 -191v0l19 -33v0l-56 -33v0l50 -86v0l56 32v0l16 -28v0l116 62v0l-58 -141v0h52v0l72 176v0l72 -176v0h52v0l-82 199v0l87 47v0h-1v0l-96 166v0z" />
    <glyph glyph-name="telescope" unicode="&#x1f52d;" horiz-adv-x="576" 
d="M476 170l97 56l-97 -56l97 56l-128 222v0l-97 -56v0l128 -222v0zM336 348l-2 6l-297 -191v0l19 -33v0l-56 -33v0l50 -86v0l56 32v0l16 -28v0l116 62v0l-58 -141v0h52v0l72 176v0l72 -176v0h52v0l-82 199v0l87 47v0h-1v0l-96 166v0z" />
    <glyph glyph-name="telescope" unicode="&#x1f52d;" horiz-adv-x="576" 
d="M476 170l97 56l-97 -56l97 56l-128 222v0l-97 -56v0l128 -222v0zM336 348l-2 6l-297 -191v0l19 -33v0l-56 -33v0l50 -86v0l56 32v0l16 -28v0l116 62v0l-58 -141v0h52v0l72 176v0l72 -176v0h52v0l-82 199v0l87 47v0h-1v0l-96 166v0z" />
    <glyph glyph-name="temperature-arrow-down" unicode="&#xe03f;" horiz-adv-x="576" 
d="M114 130l14 18l-14 -18l14 18v23v0v213v0h96v0v-214v0v-22v0l14 -18v0q17 -21 18 -50q-1 -34 -23 -57q-23 -22 -57 -23q-34 1 -57 23q-22 23 -23 57q1 29 18 50v0zM288 448h-64h64h-224v-64v0v-214v0q-31 -38 -32 -90q2 -61 42 -102q41 -40 102 -42q61 2 102 42
q40 41 42 102q-1 52 -32 90v214v0v64v0zM176 32q20 1 34 14v0v0q13 14 14 34q-2 33 -32 45v51v0v16v0h-32v0v-16v0v-51v0q-30 -12 -32 -45q1 -20 14 -34q14 -13 34 -14v0zM544 96h-64h64h-64v288v0v32v0h-64v0v-32v0v-288v0h-64v0v-32v0l96 -96v0l96 96v0v32v0z" />
    <glyph glyph-name="temperature-arrow-up" unicode="&#xe040;" horiz-adv-x="576" 
d="M114 130l14 18l-14 -18l14 18v23v0v213v0h96v0v-214v0v-22v0l14 -18v0q17 -21 18 -50q-1 -34 -23 -57q-23 -22 -57 -23q-34 1 -57 23q-22 23 -23 57q1 29 18 50v0zM288 448h-64h64h-224v-64v0v-214v0q-31 -38 -32 -90q2 -61 42 -102q41 -40 102 -42q61 2 102 42
q40 41 42 102q-1 52 -32 90v214v0v64v0zM176 32q20 1 34 14v0v0q13 14 14 34q-2 33 -32 45v211v0v16v0h-32v0v-16v0v-211v0q-30 -12 -32 -45q1 -20 14 -34q14 -13 34 -14v0zM480 288h64h-64h64v32v0l-96 96v0l-96 -96v0v-32v0h64v0v-288v0v-32v0h64v0v32v0v288v0z" />
    <glyph glyph-name="trailer" unicode="&#xe041;" horiz-adv-x="640" 
d="M544 416h-544h544h-544v-352v0h65v0q7 42 37 68q31 27 74 28q43 -1 74 -28q30 -26 37 -68h193h160v64v0h-32h-64v288v0zM480 128h-32h32h-32v16v0v192v0v16v0h32v0v-16v0v-192v0v-16v0zM96 352v-16v16v-16v-131v0q-17 -9 -32 -21v152v0v16v0h32v0zM176 224q-8 0 -16 -1
v113v0v16v0h32v0v-16v0v-113v0q-8 1 -16 1v0zM256 205v131v-131v131v16v0h32v0v-16v0v-152v0q-15 12 -32 21v0zM384 352v-16v16v-16v-192v0v-16v0h-32v0v16v0v192v0v16v0h32v0zM176 -32q45 1 69 40q22 40 0 80q-24 39 -69 40q-45 -1 -69 -40q-22 -40 0 -80q24 -39 69 -40v0z
M176 80q14 0 23 -9v0v0q9 -9 9 -23t-9 -23t-23 -9t-23 9t-9 23t9 23t23 9v0z" />
    <glyph glyph-name="transporter" unicode="&#xe042;" 
d="M208 400q1 27 24 42q24 12 48 0q23 -15 24 -42q-1 -27 -24 -42q-24 -12 -48 0q-23 15 -24 42v0zM190 320h15h-15h133l9 -12v0l77 -96v0l20 -25v0l-50 -40v0l-20 25v0l-31 39v0v-179v0h-64v0v96v0h-16v0v-96v0h-64v0v179v0l-31 -39v0l-20 -25v0l-50 40v0l20 25v0l77 96v0
l10 12v0zM296 -64h-80h80h-200v64v0h320v0v-64v0h-120v0zM480 416l32 -16l-32 16l32 -16l-32 -16v0l-16 -32v0l-16 32v0l-32 16v0l32 16v0l16 32v0l16 -32v0zM48 384l16 -32l-16 32l16 -32l32 -16v0l-32 -16v0l-16 -32v0l-16 32v0l-32 16v0l32 16v0l16 32v0z" />
    <glyph glyph-name="transporter-1" unicode="&#xe043;" 
d="M256 352q27 1 42 24q12 24 0 48q-15 23 -42 24q-27 -1 -42 -24q-12 -24 0 -48q15 -23 42 -24v0zM205 320h-15h15h-15l-10 -12v0l-77 -96v0l-20 -25v0l50 -40v0l20 25v0l31 39v0v-51v0h144v0v51v0l31 -39v0l20 -25v0l50 40v0l-20 25v0l-77 96v0l-10 12v0h-15h-102z
M416 -64v64v-64v64h-320v0v-64v0h120h200zM464 320l-16 -32l16 32l-16 -32l-32 -16v0l32 -16v0l16 -32v0l16 32v0l32 16v0l-32 16v0l-16 32v0zM64 96l-16 32l16 -32l-16 32l-16 -32v0l-32 -16v0l32 -16v0l16 -32v0l16 32v0l32 16v0l-32 16v0zM176 128h-16h16h-16v-32v0h16
h176v32v0h-16h-160zM176 64h-16h16h-16v-32v0h16h176v32v0h-16h-160z" />
    <glyph glyph-name="transporter-2" unicode="&#xe044;" 
d="M64 416l-16 32l16 -32l-16 32l-16 -32v0l-32 -16v0l32 -16v0l16 -32v0l16 32v0l32 16v0l-32 16v0zM256 352q27 1 42 24q12 24 0 48q-15 23 -42 24q-27 -1 -42 -24q-12 -24 0 -48q15 -23 42 -24v0zM205 320h-15h15h-15l-10 -12v0l-67 -84v0h286v0l-67 84v0l-10 12v0h-15
h-102zM416 -64v64v-64v64h-320v0v-64v0h120h200zM96 192v0v0v0v-1v-31v0h16h304v32v0h-16h-304v0v0zM464 128l-16 -32l16 32l-16 -32l-32 -16v0l32 -16v0l16 -32v0l16 32v0l32 16v0l-32 16v0l-16 32v0zM176 128h-16h16h-16v-32v0h16h176v32v0h-16h-160zM176 64h-16h16h-16
v-32v0h16h176v32v0h-16h-160z" />
    <glyph glyph-name="transporter-3" unicode="&#xe045;" 
d="M256 352q27 1 42 24q12 24 0 48q-15 23 -42 24q-27 -1 -42 -24q-12 -24 0 -48q15 -23 42 -24v0zM96 -64h120h-120h320v64v0h-320v0v-64v0zM96 192v0v0v0v-1v-31v0h16h304v32v0h-16h-304v0v0zM464 448l-16 -32l16 32l-16 -32l-32 -16v0l32 -16v0l16 -32v0l16 32v0l32 16v0
l-32 16v0l-16 32v0zM64 320l-16 32l16 -32l-16 32l-16 -32v0l-32 -16v0l32 -16v0l16 -32v0l16 32v0l32 16v0l-32 16v0zM176 320h-16h16h-16v-32v0h16h176v32v0h-16h-160zM144 256h-16h16h-16v-32v0h16h240v32v0h-16h-224zM176 128h-16h16h-16v-32v0h16h176v32v0h-16h-160z
M176 64h-16h16h-16v-32v0h16h176v32v0h-16h-160z" />
    <glyph glyph-name="transporter-empty" unicode="&#xe046;" 
d="M96 0h320h-320h320v-64v0h-320v0v64v0z" />
    <glyph glyph-name="ufo" unicode="&#xe047;" horiz-adv-x="640" 
d="M320 336q45 -1 79 -26v0v0q35 -24 49 -65q8 -21 8 -45q1 -3 -32 -20q-32 -18 -104 -20q-71 2 -104 20q-32 17 -32 20q0 24 8 45q14 41 49 65q34 25 79 26v0zM320 384q-69 -1 -118 -43v0v0q-50 -42 -63 -107q-64 -18 -101 -45q-37 -28 -38 -61q1 -36 44 -65
q42 -28 115 -46q72 -17 161 -17t161 17q73 18 115 46q43 29 44 65q-1 33 -38 61q-37 27 -101 45q-13 65 -63 107q-49 42 -118 43v0zM320 104l32 -32l-32 32l32 -32l-32 -32v0l-32 32v0l32 32v0zM96 120l32 32l-32 -32l32 32l32 -32v0l-32 -32v0l-32 32v0zM512 152l32 -32
l-32 32l32 -32l-32 -32v0l-32 32v0l32 32v0z" />
    <glyph glyph-name="ufo" unicode="&#x1f6f8;" horiz-adv-x="640" 
d="M320 336q45 -1 79 -26v0v0q35 -24 49 -65q8 -21 8 -45q1 -3 -32 -20q-32 -18 -104 -20q-71 2 -104 20q-32 17 -32 20q0 24 8 45q14 41 49 65q34 25 79 26v0zM320 384q-69 -1 -118 -43v0v0q-50 -42 -63 -107q-64 -18 -101 -45q-37 -28 -38 -61q1 -36 44 -65
q42 -28 115 -46q72 -17 161 -17t161 17q73 18 115 46q43 29 44 65q-1 33 -38 61q-37 27 -101 45q-13 65 -63 107q-49 42 -118 43v0zM320 104l32 -32l-32 32l32 -32l-32 -32v0l-32 32v0l32 32v0zM96 120l32 32l-32 -32l32 32l32 -32v0l-32 -32v0l-32 32v0zM512 152l32 -32
l-32 32l32 -32l-32 -32v0l-32 32v0l32 32v0z" />
    <glyph glyph-name="ufo" unicode="&#x1f6f8;" horiz-adv-x="640" 
d="M320 336q45 -1 79 -26v0v0q35 -24 49 -65q8 -21 8 -45q1 -3 -32 -20q-32 -18 -104 -20q-71 2 -104 20q-32 17 -32 20q0 24 8 45q14 41 49 65q34 25 79 26v0zM320 384q-69 -1 -118 -43v0v0q-50 -42 -63 -107q-64 -18 -101 -45q-37 -28 -38 -61q1 -36 44 -65
q42 -28 115 -46q72 -17 161 -17t161 17q73 18 115 46q43 29 44 65q-1 33 -38 61q-37 27 -101 45q-13 65 -63 107q-49 42 -118 43v0zM320 104l32 -32l-32 32l32 -32l-32 -32v0l-32 32v0l32 32v0zM96 120l32 32l-32 -32l32 32l32 -32v0l-32 -32v0l-32 32v0zM512 152l32 -32
l-32 32l32 -32l-32 -32v0l-32 32v0l32 32v0z" />
    <glyph glyph-name="ufo-beam" unicode="&#xe048;" horiz-adv-x="576" 
d="M184 296q-1 -3 22 -20v0v0q23 -18 82 -20q59 2 82 20q23 17 22 20q0 38 -25 70q-26 32 -79 34q-53 -2 -79 -34q-25 -32 -25 -70v0zM141 336q15 50 54 80v0v0q40 31 93 32q53 -1 93 -32q39 -30 54 -80q64 -15 102 -40t39 -56q-1 -31 -39 -57q-39 -25 -104 -40t-145 -15
t-145 15t-104 40q-38 26 -39 57q1 31 39 56t102 40v0zM256 192l32 -32l-32 32l32 -32l32 32v0l-32 32v0l-32 -32v0zM96 272l-32 -32l32 32l-32 -32l32 -32v0l32 32v0l-32 32v0zM448 240l32 -32l-32 32l32 -32l32 32v0l-32 32v0l-32 -32v0zM74 122l4 9l-4 -9l4 9
q22 -8 46 -15l-6 -14v0l-64 -144v0l-10 -22v0l-44 20v0l10 22v0l64 144v0zM458 102l-6 14l6 -14l-6 14q24 7 46 15l4 -9v0l64 -144v0l10 -22v0l-44 -20v0l-10 22v0l-64 144v0z" />
    <glyph glyph-name="user-alien" unicode="&#xe04a;" horiz-adv-x="448" 
d="M64 281q2 71 47 118v0v0q45 47 113 49q68 -2 113 -49t47 -118q-3 -60 -41 -109q-39 -49 -78 -78q-38 -29 -41 -30q-3 1 -41 30q-39 29 -78 78q-38 49 -41 109v0zM144 272h-16h16h-32v-16v0q1 -27 19 -45t45 -19h16h16v16v0q-1 27 -19 45t-45 19v0zM240 208v-16v16v-16h16
h16q27 1 45 19t19 45v16v0h-16h-16q-27 -1 -45 -19t-19 -45v0zM400 96l48 -160l-48 160l48 -160h-448v0l48 160v0h80v0l96 -72v0l96 72v0h80v0z" />
    <glyph glyph-name="user-robot" unicode="&#xe04b;" horiz-adv-x="448" 
d="M240 448v-16v16v-16v-48v0h128v0v-256v0h-288v0v256v0h128v0v48v0v16v0h32v0zM16 320h32h-32h32v-128v0h-32v0v128v0zM400 320h32h-32h32v-128v0h-32v0v128v0zM160 256q14 0 23 9v0v0q9 9 9 23t-9 23t-23 9t-23 -9t-9 -23t9 -23t23 -9v0zM320 288q0 14 -9 23v0v0
q-9 9 -23 9t-23 -9t-9 -23t9 -23t23 -9t23 9t9 23v0zM240 208h-32h32h-32v-32v0h32v0v32v0zM400 96l48 -160l-48 160l48 -160h-96v0v96v0h-256v0v-96v0h-96v0l48 160v0h352v0zM176 -16v-48v48v-48h-32v0v48v0v16v0h32v0v-16v0zM240 -16v-48v48v-48h-32v0v48v0v16v0h32v0v-16
v0zM176 208h-32h32h-32v-32v0h32v0v32v0zM272 208v-32v32v-32h32v0v32v0h-32v0zM304 -16v-48v48v-48h-32v0v48v0v16v0h32v0v-16v0z" />
    <glyph glyph-name="user-visor" unicode="&#xe04c;" horiz-adv-x="448" 
d="M343 272q-15 -36 -47 -58v0v0q-31 -21 -72 -22q-41 1 -72 22q-32 22 -47 58h-25v0v128v0h44v0q37 46 100 48q63 -2 100 -48h44v0v-128v0h-25v0zM384 144l64 -208l-64 208l64 -208h-448v0l64 208v0h320v0zM328 8l24 -24l-24 24l24 -24l8 8v0l-40 88v0l-40 -88v0l8 -8v0
l40 24v0zM144 352h-16h16h-16v-32v0h16h176v32v0h-16h-160z" />
    <glyph glyph-name="vacuum" unicode="&#xe04d;" horiz-adv-x="640" 
d="M250 384h262h-262h262q27 -1 45 -19t19 -45q-1 -34 -28 -53q-53 51 -132 53h-64v0v-164v0q15 4 32 4q54 -1 91 -37q36 -37 37 -91q-2 -59 -43 -96h139v0v192v0q0 48 -21 88q24 18 38 45q15 27 15 59q-1 54 -37 91q-37 36 -91 37h-288h-26l-5 -25v0l-43 -199v0h66v0
l34 160v0zM209 192h-66h66h-66l-34 -160v0h-61v0l-48 -48v0v-48v0h127v0h1h1h95v0v96v0h-50v0l35 160v0zM480 32q0 26 -13 48v0v0q-13 22 -35 35q-23 13 -48 13t-48 -13q-22 -13 -35 -35t-13 -48t13 -48t35 -35q23 -13 48 -13t48 13q22 13 35 35t13 48v0zM352 32q0 14 9 23
v0v0q9 9 23 9t23 -9t9 -23t-9 -23t-23 -9t-23 9t-9 23v0z" />
    <glyph glyph-name="vacuum-robot" unicode="&#xe04e;" 
d="M256 -64q70 1 128 34v0v0q58 34 94 94q34 61 34 128t-34 128q-36 60 -94 94q-58 33 -128 34q-70 -1 -128 -34q-58 -34 -94 -94q-34 -61 -34 -128t34 -128q36 -60 94 -94q58 -33 128 -34v0zM357 91q41 44 41 101v0v0q0 57 -41 101q-44 41 -101 41t-101 -41l-22 22v0
q53 51 123 51t123 -51q51 -53 51 -123t-51 -123l-22 22v0zM224 247l11 -12l-11 12l11 -12l64 -64v0l12 -11v0l-23 -23v0l-11 12v0l-64 64v0l-12 11v0l23 23v0zM144 231l11 -12l-11 12l11 -12l128 -128v0l12 -11v0l-23 -23v0l-11 12v0l-128 128v0l-12 11v0l23 23v0zM128 151
l11 -12l-11 12l11 -12l64 -64v0l12 -11v0l-23 -23v0l-11 12v0l-64 64v0l-12 11v0l23 23v0z" />
    <glyph glyph-name="window-frame" unicode="&#xe04f;" 
d="M32 192v192v-192v192v64v0h64h384v-64v0v-192v0v-192v0h32v0v-64v0h-32h-480v64v0h32v0v192v0zM416 160h-136h136h-136v-160v0h136v0v160v0zM232 160h-136h136h-136v-160v0h136v0v160v0zM280 224h136h-136h136v160v0h-136v0v-160v0zM232 384h-136h136h-136v-160v0h136v0
v160v0z" />
    <glyph glyph-name="window-frame" unicode="&#x1fa9f;" 
d="M32 192v192v-192v192v64v0h64h384v-64v0v-192v0v-192v0h32v0v-64v0h-32h-480v64v0h32v0v192v0zM416 160h-136h136h-136v-160v0h136v0v160v0zM232 160h-136h136h-136v-160v0h136v0v160v0zM280 224h136h-136h136v160v0h-136v0v-160v0zM232 384h-136h136h-136v-160v0h136v0
v160v0z" />
    <glyph glyph-name="window-frame" unicode="&#x1fa9f;" 
d="M32 192v192v-192v192v64v0h64h384v-64v0v-192v0v-192v0h32v0v-64v0h-32h-480v64v0h32v0v192v0zM416 160h-136h136h-136v-160v0h136v0v160v0zM232 160h-136h136h-136v-160v0h136v0v160v0zM280 224h136h-136h136v160v0h-136v0v-160v0zM232 384h-136h136h-136v-160v0h136v0
v160v0z" />
    <glyph glyph-name="window-frame-open" unicode="&#xe050;" 
d="M480 384v-160v160v-160v-64v0h-64h-384v64v0v160v0v64v0h64h384v-64v0zM232 384h-136h136h-136v-160v0h136v0v160v0zM280 384v-160v160v-160h136v0v160v0h-136v0zM96 0h320h-320h320v128v0h64v0v-128v0h32v0v-64v0h-32h-480v64v0h32v0v128v0h64v0v-128v0z" />
    <glyph glyph-name="coffin-cross" unicode="&#xe051;" horiz-adv-x="384" 
d="M104 -64l-104 368l104 -368l-104 368l112 144v0h160v0l112 -144v0l-104 -368v0h-176v0zM216 328v24v-24v24h-48v0v-24v0v-40v0h-48h-24v-48v0h24h48v-120v0v-24v0h48v0v24v0v120v0h48h24v48v0h-24h-48v40v0z" />
    <glyph glyph-name="folder-arrow-down" unicode="&#xe053;" 
d="M512 352v-384v384v-384h-512v0v448v0h224v0l48 -64v0h240v0zM280 248v24v-24v24h-48v0v-24v0v-102v0l-31 31v0l-17 17v0l-34 -34v0l17 -17v0l72 -72v0l17 -17v0l17 17v0l72 72v0l17 17v0l-34 34v0l-17 -17v0l-31 -31v0v102v0z" />
    <glyph glyph-name="folder-arrow-up" unicode="&#xe054;" 
d="M512 352v-384v384v-384h-512v0v448v0h224v0l48 -64v0h240v0zM280 72v102v-102v102l31 -31v0l17 -17v0l34 34v0l-17 17v0l-72 72v0l-17 17v0l-17 -17v0l-72 -72v0l-17 -17v0l34 -34v0l17 17v0l31 31v0v-102v0v-24v0h48v0v24v0z" />
    <glyph glyph-name="user-unlock" unicode="&#xe058;" horiz-adv-x="640" 
d="M352 320q0 35 -17 64v0v0q-17 29 -47 47q-30 17 -64 17t-64 -17q-30 -18 -47 -47t-17 -64t17 -64t47 -47q30 -17 64 -17t64 17q30 18 47 47t17 64v0zM384 -64v208v-208v208v0v0h-320v0l-64 -208v0h384v0zM496 176q0 14 9 23v0v0q9 9 23 9t23 -9t9 -23h48v0q-1 34 -23 57
q-23 22 -57 23q-34 -1 -57 -23q-22 -23 -23 -57v-48v0h-32v0v-192v0h224v0v192v0h-32h-112v48v0z" />
    <glyph glyph-name="bacteria" unicode="&#xe059;" horiz-adv-x="640" 
d="M323 433l-34 12l34 -12l-34 12l-6 -17v0l-1 -4v0q-13 1 -25 -2q-13 -3 -26 -7l-4 10v0l-7 17v0l-34 -15v0l8 -16v0l3 -9v0q-25 -10 -45 -23l-5 7v0l-10 15v0l-30 -20v0l10 -15v0l6 -9v0q-20 -17 -36 -35l-10 8v0l-14 11v0l-22 -28v0l14 -11v0l11 -9v0q-2 -4 -4 -7
q-11 -18 -18 -34l-7 3v0l-17 6v0l-13 -33v0l16 -7v0l9 -3v0q0 -1 -1 -3q-3 -14 -5 -23q-1 -5 -1 -8v-2l-1 -2v0v0v0v0v0v0v0q-1 0 4 -1q5 0 26 -2v0v0l-30 3v0v-14l-4 -1v0l-17 -6v0l12 -34v0l17 6v0l2 1v0q13 -23 36 -35l-3 -10v0l-5 -17v0l34 -10v0l5 17v0l3 11v0
q28 -1 49 13l8 -8v0l13 -13v0l26 26v0l-13 13v0l-8 8v0q10 16 13 36v1v0q0 1 1 7l1 1v0l9 -4v0l16 -8v0l15 34v0l-17 7v0l-8 3v0q10 18 36 35l2 -6v0l5 -17v0l34 10v0l-5 17v0l-3 11v0q8 2 17 4q14 4 26 11l8 -8v0l13 -13v0l25 26v0l-12 13v0l-8 8v0q14 22 13 48l11 4v0
l17 4v0l-10 35v0l-17 -5v0l-10 -3v0q-12 24 -35 36l1 2v0l6 17v0zM106 172l-32 3l32 -3l-32 3v0l32 -3v0zM128 256q14 0 23 -9v0v0q9 -9 9 -23t-9 -23t-23 -9t-23 9t-9 23t9 23t23 9v0zM192 304q1 15 16 16q15 -1 16 -16q-1 -15 -16 -16q-15 1 -16 16v0zM323 -32l-6 -17
l6 17l-6 -17l34 -12v0l6 17v0l2 4v0q12 -1 24 2q13 3 26 7l5 -10v0l7 -17v0l33 15v0l-7 16v0l-4 9v0q25 10 45 24l5 -8v0l10 -15v0l30 20v0l-10 15v0l-6 9v0q21 17 36 35l10 -8v0l14 -11v0l23 28v0l-14 11v0l-12 9v0q2 4 5 7q10 18 17 34l7 -3v0l17 -6v0l13 33v0l-16 7v0
l-9 3v0q0 1 1 2q3 15 5 24q1 5 1 8q0 1 1 2v1v0v1v0v0v0v0v0q1 0 -4 1q-5 0 -26 2v0v0l30 -3v0v14l4 1v0l17 6v0l-12 34v0l-17 -6v0l-2 -1v0q-13 23 -36 35l3 10v0l5 17v0l-34 10v0l-5 -17v0l-3 -11v0q-28 1 -49 -13l-8 8v0l-13 12v0l-25 -25v0l12 -13v0l8 -8v0
q-10 -16 -12 -36l-1 -1v0q0 -1 -1 -7l-1 -1v0l-9 4v0l-16 8v0l-15 -34v0l17 -7v0l8 -3v0q-10 -18 -36 -35l-2 6v0l-5 17v0l-34 -10v0l5 -17v0l3 -11v0q-8 -2 -17 -4q-14 -4 -26 -11l-8 8v0l-13 12v0l-25 -25v0l12 -13v0l8 -8v0q-14 -22 -13 -49l-11 -3v0l-17 -5v0l10 -34v0
l17 5v0l10 3v0q12 -23 35 -36l-1 -2v0zM566 209v0v0v0v0l-32 3v0l32 -3v0zM448 64q0 -14 -9 -23v0v0q-9 -9 -23 -9t-23 9t-9 23t9 23t23 9t23 -9t9 -23v0z" />
    <glyph glyph-name="bacterium" unicode="&#xe05a;" 
d="M423 408l7 23l-7 -23l7 23l-45 15v0l-8 -22v0l-2 -8v0q-16 1 -32 -3q-18 -4 -35 -9l-6 13v0l-9 22v0l-44 -18v0l9 -23v0l5 -11v0q-33 -14 -60 -32l-7 10v0l-13 20v0l-40 -26v0l13 -20v0l8 -12v0q-27 -22 -47 -47l-14 11v0l-19 15v0l-30 -38v0l19 -15v0l15 -12v0l-6 -10
q-14 -23 -23 -45l-10 4v0l-22 9v0l-18 -44v0l22 -9v0l12 -5v0q-1 -2 -1 -3q-5 -19 -7 -31q-1 -6 -2 -11v-3v0v-2v0v0v0v0v0v-1v0q-2 1 4 0q7 -1 35 -3v0v0l-40 3v0v-15l-15 -4v0l-23 -6v0l14 -47v0l23 7v0l13 4v0q16 -31 47 -48l-2 -5v0l-7 -23v0l45 -15v0l8 22v0l2 8v0
q38 -1 67 18l11 -11v0l17 -17v0l34 34v0l-17 17v0l-11 11v0q14 21 17 48v1v0q1 2 3 9v1v0l13 -5v0l22 -10v0l19 44v0l-23 10v0l-11 5v0q14 23 49 46l2 -8v0l6 -23v0l47 13v0l-7 23v0l-4 15v0q10 3 22 6q20 4 35 15l11 -11v0l17 -17v0l34 34v0l-17 17v0l-11 11v0q19 29 18 65
l15 4v0l23 7v0l-13 46v0l-24 -7v0l-13 -4v0q-17 31 -47 48l2 5v0zM99 84v0v0v0v0l45 -4v0l-45 4v0zM112 128q1 27 24 42q24 12 48 0q23 -15 24 -42q-1 -27 -24 -42q-24 -12 -48 0q-23 15 -24 42v0zM240 264q22 -2 24 -24q-2 -22 -24 -24q-22 2 -24 24q2 22 24 24v0z" />
    <glyph glyph-name="box-tissue" unicode="&#xe05b;" 
d="M114 224l-50 224l50 -224l-50 224h144v0q29 -1 43 -15q13 -14 21 -33t22 -33q13 -14 42 -15h112v0l-43 -128v0l-21 -64v0h-256v0l-14 64v0zM95 160h-31h31h-31v-32v0h38h346v32v0h-30v0l21 64v0h73v0v-160v0h-512v0v160v0h81v0l14 -64v0zM0 32h512h-512h512v-96v0h-512v0
v96v0z" />
    <glyph glyph-name="hand-holding-medical" unicode="&#xe05c;" horiz-adv-x="576" 
d="M224 448v-80v80v-80h-80v0v-96v0h80v0v-80v0h96v0v80v0h80v0v96v0h-80v0v80v0h-96v0zM140 121l-71 -57l71 57l-71 -57h-69v0v-128v0h32h364l11 7v0l128 88v0l33 23v0l-46 66v0l-33 -23v0l-94 -65v0h-139v0v32v0h32h96v64v0h-32h-203l-9 -7v0z" />
    <glyph glyph-name="hand-sparkles" unicode="&#xe05d;" horiz-adv-x="640" 
d="M352 416v32v-32v32h-64v0v-32v0v-224v0h-32v0v192v0v32v0h-64v0v-32v0v-272v0v-5l-43 42v0l-29 27v0l-56 -57v0l29 -28v0l96 -91v0q67 -63 160 -64h19v0q68 1 116 43l-36 16v0v42v0l64 27v0l32 76v0v180v0v32v0h-64v0v-32v0v-128v0h-32v0v192v0v32v0h-64v0v-32v0v-192v0
h-32v0v224v0zM288 96l16 32l-16 -32l16 32l16 -32v0l32 -16v0l-32 -16v0l-16 -32v0l-16 32v0l-32 16v0l32 16v0zM56 328l-56 -24l56 24l-56 -24l56 -24v0l24 -56v0l24 56v0l56 24v0l-56 24v0l-24 56v0l-24 -56v0zM560 96l-24 -56l24 56l-24 -56l-56 -24v0l56 -24v0l24 -56v0
l24 56v0l56 24v0l-56 24v0l-24 56v0z" />
    <glyph glyph-name="hands-bubbles" unicode="&#xe05e;" horiz-adv-x="576" 
d="M416 384q14 0 23 9v0v0q9 9 9 23t-9 23t-23 9t-23 -9t-9 -23t9 -23t23 -9v0zM32 320v-32v32v-32v-73v0q0 -39 17 -74q17 -34 47 -59q1 62 30 114q30 52 82 85l46 29v0l34 22v0l39 67v0l12 21v0l-41 24v0l-12 -21v0l-84 -145v0l-21 12v0l63 109v0l12 21v0l-41 24v0
l-12 -21v0l-64 -109v0v0v0l-43 -75v0v49v0v32v0h-64v0zM316 332l29 -46l-29 46l29 -46l29 50v0l12 20v0l-42 24v0l-12 -20v0l-16 -28v0zM359 263l17 -27l-17 27l17 -27h23v0l21 36v0l12 21v0l-42 24v0l-12 -21v0l-19 -33v0zM298 300l-27 -17l27 17l-27 -17l-60 -38v0
q-39 -24 -61 -64q-22 -39 -22 -85v-8v0q0 -13 2 -26q27 -7 44 -28t18 -50q0 -9 -2 -18q39 -29 90 -30h176h24v48v0h-24h-104v24v0h136h24v48v0h-24h-136v24v0h168h24v48v0h-24h-168v24v0h136h24v48v0h-24h-136v0v0h-93v0l46 29v0l27 17v0l-34 54v0zM544 288q0 14 -9 23v0v0
q-9 9 -23 9t-23 -9t-9 -23t9 -23t23 -9t23 9t9 23v0zM112 -64q27 1 42 24q12 24 0 48q-15 23 -42 24q-27 -1 -42 -24q-12 -24 0 -48q15 -23 42 -24v0z" />
    <glyph glyph-name="handshake-simple-slash" unicode="&#xe05f;" horiz-adv-x="640" 
d="M48 433l-19 15l19 -15l-19 15l-29 -38v0l19 -15v0l573 -444v0l19 -15v0l29 38v0l-19 15v0l-112 87v0l7 7v0l-36 32v0l-134 123v0l-23 -18v0l-26 20v0l77 61v0l13 9v0l19 -25v0l-12 -10v0l-21 -16v0l177 -163v0h90v0v224v0h-48h-81l-4 2v0l-96 62v0h-61v0l-117 -94v0
l-26 20v0l92 74v0h-75v0l-60 -40v0l-116 89v0zM0 320v-224v224v-224h156v0l74 -67v0l36 -33v0l47 52v0l23 -20v0l35 -32v0l34 37v0l-364 287v0h-41v0z" />
    <glyph glyph-name="handshake-slash" unicode="&#xe060;" horiz-adv-x="640" 
d="M48 433l-19 15l19 -15l-19 15l-29 -38v0l19 -15v0l573 -444v0l19 -15v0l29 38v0l-19 15v0l-112 87v0l7 7v0l-36 32v0l-134 123v0l-23 -18v0l-26 20v0l77 61v0l13 9v0l19 -25v0l-12 -10v0l-21 -16v0l139 -128v0v189v0h-1v0l-4 2v0l-96 62v0h-61v0l-117 -94v0l-26 20v0
l92 74v0h-75v0l-60 -40v0l-116 89v0zM96 276l-55 44l55 -44l-55 44h-41v0v-256v0h96v0v212v0zM405 33l-277 218l277 -218l-277 218v-155v0h28v0l74 -67v0l36 -33v0l47 52v0l23 -20v0l35 -32v0l34 37v0zM32 112q1 15 16 16q15 -1 16 -16q-1 -15 -16 -16q-15 1 -16 16v0z
M640 320h-96h96h-96v-256v0h96v0v256v0zM592 128q15 -1 16 -16q-1 -15 -16 -16q-15 1 -16 16q1 15 16 16v0z" />
    <glyph glyph-name="head-side-cough" unicode="&#xe061;" horiz-adv-x="640" 
d="M0 224q1 62 31 113v0v0q30 50 80 80v0v0q51 30 113 31h32v0q78 -2 132 -52q53 -51 60 -128l57 -72v0l7 -9v0v-11v0v-16v0v-32v0h-32h-32v-32v0l-128 -16v0v-40v0l128 -8v0v-64v0h-128v0v-32v0h-32h-224v32v0v99v0q-31 32 -47 72q-17 40 -17 85v0zM352 224q14 0 23 9v0v0
q9 9 9 23t-9 23t-23 9t-23 -9t-9 -23t9 -23t23 -9v0zM464 64q2 22 24 24q22 -2 24 -24q-2 -22 -24 -24q-22 2 -24 24v0zM616 88q22 -2 24 -24q-2 -22 -24 -24q-22 2 -24 24q2 22 24 24v0zM592 -32q2 22 24 24q22 -2 24 -24q-2 -22 -24 -24q-22 2 -24 24v0zM552 136
q22 -2 24 -24q-2 -22 -24 -24q-22 2 -24 24q2 22 24 24v0zM592 160q2 22 24 24q22 -2 24 -24q-2 -22 -24 -24q-22 2 -24 24v0zM552 40q22 -2 24 -24q-2 -22 -24 -24q-22 2 -24 24q2 22 24 24v0z" />
    <glyph glyph-name="head-side-cough-slash" unicode="&#xe062;" horiz-adv-x="640" 
d="M448 123l46 -36l-46 36l46 -36q10 -3 15 -11l46 -36v0q14 -3 19 -15l43 -33v0q17 -2 22 -17l1 -1v0l-29 -38v0l-19 15v0l-573 444v0l-19 15v0l29 38v0l19 -15v0l40 -31v0q58 45 136 46h32v0q78 -2 132 -52q53 -51 60 -128l57 -72v0l7 -9v0v-11v0v-16v0v-32v0h-32h-32v-5
v0zM0 224q1 58 27 107l315 -248v0l-22 -3v0v-40v0l83 -5v0l45 -36v0v-31v0h-128v0v-32v0h-32h-224v32v0v99v0q-31 32 -47 72q-17 40 -17 85v0zM616 88q22 -2 24 -24q-2 -22 -24 -24q-22 2 -24 24q2 22 24 24v0zM552 136q22 -2 24 -24q-2 -22 -24 -24q-22 2 -24 24
q2 22 24 24v0zM592 160q2 22 24 24q22 -2 24 -24q-2 -22 -24 -24q-22 2 -24 24v0z" />
    <glyph glyph-name="head-side-mask" unicode="&#xe063;" horiz-adv-x="576" 
d="M32 224q0 34 10 65l214 -143v0v-210v0h-128h-32v32v0v99v0q-31 32 -47 72q-17 40 -17 85v0zM269 176l-215 144l215 -144l-215 144q27 57 81 92q53 35 121 36h32v0q78 -2 132 -52q53 -51 60 -128l57 -72v0l7 -9v0v-11v0h-272h-3zM304 144h240h-240h240v0v0l-20 -64v0h-156
h-16v-32v0h16h147l-10 -32v0h-137h-16v-32v0h16h127l-15 -48v0h-192v0v208v0h16v0v0v0v0zM384 224q14 0 23 9v0v0q9 9 9 23t-9 23t-23 9t-23 -9t-9 -23t9 -23t23 -9v0z" />
    <glyph glyph-name="head-side-virus" unicode="&#xe064;" 
d="M0 224q1 62 31 113v0v0q30 50 80 80v0v0q51 30 113 31h32v0q78 -2 132 -52q53 -51 60 -128l57 -72v0l7 -9v0v-11v0v-16v0v-32v0h-32h-32v-96v0v-32v0h-32h-96v-32v0v-32v0h-32h-224v32v0v99v0q-31 32 -47 72q-17 40 -17 85v0zM315 353l-12 -11l12 11l-12 -11
q-19 -17 -40 -8t-23 34v16v0h-16h-16v-16v0q-2 -25 -23 -34t-40 8l-11 11v0l-12 -11v0v0v0l-11 -12v0l11 -11v0q17 -19 8 -40t-34 -23h-16v0v-16v0v-16v0h16v0q25 -2 34 -23t-8 -40l-11 -12v0l11 -11v0v0v0l12 -11v0l11 11v0q19 17 40 8t23 -34v-16v0h16h16v16v0q2 25 23 34
t40 -8l12 -11v0l11 11v0l11 11v0l-11 12v0q-17 19 -8 40t34 23h16v0v16v0v16v0h-16v0q-25 2 -34 23t8 40l11 11v0l-11 12v0l-11 11v0zM200 288q22 -2 24 -24q-2 -22 -24 -24q-22 2 -24 24q2 22 24 24v0zM240 208q1 15 16 16q15 -1 16 -16q-1 -15 -16 -16q-15 1 -16 16v0z
" />
    <glyph glyph-name="house-chimney-user" unicode="&#xe065;" horiz-adv-x="576" 
d="M512 160h64h-64h64v48v0l-64 53v0v155v0h-96v0v-75v0l-128 107v0l-288 -240v0v-48v0h64v0v-224v0h449v0l-1 224v0zM288 288q36 -1 55 -32q18 -32 0 -64q-19 -31 -55 -32q-36 1 -55 32q-18 32 0 64q19 31 55 32v0zM368 128l32 -96l-32 96l32 -96h-224v0l32 96v0h160v0z
" />
    <glyph glyph-name="house-laptop" unicode="&#xe066;" horiz-adv-x="640" 
d="M0 240l240 208l-240 -208l240 208l240 -208v0v-16v0h-192v0v32v0h-96v0v-96v0h80v0v-128v0h-208v0v160v0h-64v0v48v0zM544 144h-192h192h-192v-144v0h192v0v144v0zM304 144v48v-48v48h48h240v-48v0v-144v0h48v0v-32v0l-32 -32v0h-16h-304l-32 32v0v32v0h48v0v144v0z" />
    <glyph glyph-name="lungs-virus" unicode="&#xe067;" horiz-adv-x="640" 
d="M352 416v-32v32v-32v-80v0h-64v0v80v0v32v0v32v0h64v0v-32v0zM256 320v-60v60v-60l-26 26v0l-68 -68v0l32 -32v0q5 -8 -4 -10h-46v0v-96v0h46v0q9 -2 4 -10l-32 -33v0l69 -68v0l-120 -30v0q-11 -3 -22 -3q-38 1 -63 26t-26 63v7v0v4q8 54 30 107q23 53 48 97q26 44 45 71
q8 13 14 21q2 3 4 5l1 2v0v0v0v0v0v0v0v0v0l26 -19v0l-26 19v0l10 13v0h16h88v-32v0zM529 -61l-119 30l119 -30l-119 30l68 69v0l-32 32v0q-5 8 4 10h46v0v96v0h-46v0q-9 2 -4 10l32 33v0l-67 67v0l-27 -26v0v60v0v32v0h32h72l10 -13v0l-26 -19v0q18 14 22 17t4 2v0v0v0v0v0
v0v0v0l1 -2v0l2 -2q1 -2 2 -3q6 -8 15 -21q18 -27 44 -71q25 -43 48 -97q22 -53 30 -107v-4v-7v0q-1 -38 -26 -63t-63 -26q-11 0 -22 3v0zM411 241l11 -11l-11 11l11 -11l11 -12v0l-11 -11v0q-17 -19 -8 -40t34 -23h16v0v-16v0v-16v0h-16v0q-25 -2 -34 -23t8 -40l11 -12v0
l-11 -11v0l-11 -11v0l-12 11v0q-19 17 -40 8t-23 -34v-16v0h-16h-16v16v0q-2 25 -23 34t-40 -8l-11 -11v0l-12 11v0v0v0l-11 11v0l11 12v0q17 19 8 40t-34 23h-16v0v16v0v16v0h16v0q25 2 34 23t-8 40l-11 11v0l11 12v0v0l12 11v0l11 -11v0q19 -17 40 -8t23 34v16v0h16h16
v-16v0q2 -25 23 -34t40 8l12 11v0zM296 128q22 2 24 24q-2 22 -24 24q-22 -2 -24 -24q2 -22 24 -24v0zM368 96q-1 15 -16 16q-15 -1 -16 -16q1 -15 16 -16q15 1 16 16v0z" />
    <glyph glyph-name="people-arrows" unicode="&#xe068;" horiz-adv-x="640" 
d="M128 320q36 1 55 32q18 32 0 64q-19 31 -55 32q-36 -1 -55 -32q-18 -32 0 -64q19 -31 55 -32v0zM137 121l-22 23l22 -23l-22 23l22 23v0l88 88v0l-1 33v0h-192v0l-8 -192v0h40v0v-160v0h128v0v131v0l-55 54v0zM512 320q36 1 55 32q18 32 0 64q-19 31 -55 32
q-36 -1 -55 -32q-18 -32 0 -64q19 -31 55 -32v0zM616 96l-8 192l8 -192l-8 192h-192v0l-1 -33v0l88 -88v0l22 -23v0l-22 -23v0l-55 -54v0v-131v0h128v0v160v0h40v0zM272 256l-112 -112l112 112l-112 -112l112 -112v0v80v0h96v0v-80v0l112 112v0l-112 112v0v-80v0h-96v0v80v0
z" />
    <glyph glyph-name="plane-slash" unicode="&#xe069;" horiz-adv-x="640" 
d="M514 256q29 -1 60 -19v0v0q31 -18 34 -45q-3 -28 -34 -46q-31 -17 -60 -18h-72v0l179 -139v0l19 -15v0l-29 -38v0l-19 15v0l-573 444v0l-19 15v0l29 38v0l19 -15v0l190 -147v0l-46 162v0h96v0l110 -192v0h116v0zM41 320l322 -254l-322 254l322 -254l-75 -130v0h-96v0
l55 192v0h-103v0l-48 -64v0h-64v0l32 128v0l-32 128v0h9v0z" />
    <glyph glyph-name="pump-medical" unicode="&#xe06a;" horiz-adv-x="448" 
d="M128 448v-128v128v-128h128v0v32v0h83v0l38 -39v0l23 -22v0l45 45v0l-22 23v0l-48 48v0l-10 9v0h-13h-96v32v0h-128v0zM56 288l-24 -352l24 352l-24 -352h320v0l-24 352v0h-272v0zM216 192v-24v24v-24v-32v0h32h24v-48v0h-24h-32v-32v0v-24v0h-48v0v24v0v32v0h-32h-24v48
v0h24h32v32v0v24v0h48v0z" />
    <glyph glyph-name="pump-soap" unicode="&#xe06b;" horiz-adv-x="448" 
d="M128 448v-128v128v-128h128v0v32v0h83v0l38 -39v0l23 -22v0l45 45v0l-22 23v0l-48 48v0l-10 9v0h-13h-96v32v0h-128v0zM56 288l-24 -352l24 352l-24 -352h320v0l-24 352v0h-272v0zM192 32q-27 0 -45 15v0v0q-18 14 -19 41q1 21 17 49q15 28 30 49q16 21 17 22
q1 -1 17 -22q15 -21 30 -49q16 -28 17 -49q-1 -27 -19 -41q-18 -15 -45 -15v0z" />
    <glyph glyph-name="shield-virus" unicode="&#xe06c;" 
d="M256 442l12 -4l-12 4l12 -4l207 -80v0l19 -8v0l1 -20v0q3 -38 -5 -91q-8 -52 -32 -109t-70 -108t-119 -83l-13 -6v0l-13 6v0q-73 32 -119 83t-70 108t-32 109q-8 53 -5 91l1 20v0l19 8v0l208 80v0l11 4v0zM347 305l-12 -11l12 11l-12 -11q-19 -17 -40 -8t-23 34v16v0h-16
h-16v-16v0q-2 -25 -23 -34t-40 8l-11 11v0l-12 -11v0v0l-11 -12v0l11 -11v0q17 -19 8 -40t-34 -23h-16v0v-16v0v-16v0h16v0q25 -2 34 -23t-8 -40l-11 -12v0l11 -11v0v0v0l12 -11v0l11 11v0q19 17 40 8t23 -34v-16v0h16h16v16v0q2 25 23 34t40 -8l12 -11v0l11 11v0l11 11v0
l-11 12v0q-17 19 -8 40t34 23h16v0v16v0v16v0h-16v0q-25 2 -34 23t8 40l11 11v0l-11 12v0l-11 11v0zM232 240q22 -2 24 -24q-2 -22 -24 -24q-22 2 -24 24q2 22 24 24v0zM272 160q1 15 16 16q15 -1 16 -16q-1 -15 -16 -16q-15 1 -16 16v0z" />
    <glyph glyph-name="sink" unicode="&#xe06d;" 
d="M288 352q0 14 9 23v0v0q9 9 23 9t23 -9t9 -23v-32v0h64v0v32v0q-1 41 -28 68t-68 28q-41 -1 -68 -28t-28 -68v-192v0h-64v0v56v0v24v0h-24h-104v-48v0h24h56v-32v0h-80h-32v-64v0h32h480v64v0h-32h-80v32v0h64h24v48v0h-24h-112v-24v0v-56v0h-64v0v192v0zM480 64h-448
h448h-448v-32v0q1 -41 28 -68t68 -28h256v0q41 1 68 28t28 68v32v0z" />
    <glyph glyph-name="soap" unicode="&#xe06e;" 
d="M208 352q27 1 42 24q12 24 0 48q-15 23 -42 24q-27 -1 -42 -24q-12 -24 0 -48q15 -23 42 -24v0zM320 192q36 1 55 32q18 32 0 64q-19 31 -55 32q-36 -1 -55 -32q-18 -32 0 -64q19 -31 55 -32v0zM416 416q0 14 -9 23v0v0q-9 9 -23 9t-23 -9t-9 -23t9 -23t23 -9t23 9t9 23
v0zM416 256q-1 -38 -24 -64h24h32v-32v0v-128v0v-32v0h-32h-352v32v0v128v0v32v0h32h152q-23 26 -24 64h-224v0v-320v0h512v0v320v0h-96v0zM96 32h320h-320h320v128v0h-96h-224v-128v0z" />
    <glyph glyph-name="soap" unicode="&#x1f9fc;" 
d="M208 352q27 1 42 24q12 24 0 48q-15 23 -42 24q-27 -1 -42 -24q-12 -24 0 -48q15 -23 42 -24v0zM320 192q36 1 55 32q18 32 0 64q-19 31 -55 32q-36 -1 -55 -32q-18 -32 0 -64q19 -31 55 -32v0zM416 416q0 14 -9 23v0v0q-9 9 -23 9t-23 -9t-9 -23t9 -23t23 -9t23 9t9 23
v0zM416 256q-1 -38 -24 -64h24h32v-32v0v-128v0v-32v0h-32h-352v32v0v128v0v32v0h32h152q-23 26 -24 64h-224v0v-320v0h512v0v320v0h-96v0zM96 32h320h-320h320v128v0h-96h-224v-128v0z" />
    <glyph glyph-name="soap" unicode="&#x1f9fc;" 
d="M208 352q27 1 42 24q12 24 0 48q-15 23 -42 24q-27 -1 -42 -24q-12 -24 0 -48q15 -23 42 -24v0zM320 192q36 1 55 32q18 32 0 64q-19 31 -55 32q-36 -1 -55 -32q-18 -32 0 -64q19 -31 55 -32v0zM416 416q0 14 -9 23v0v0q-9 9 -23 9t-23 -9t-9 -23t9 -23t23 -9t23 9t9 23
v0zM416 256q-1 -38 -24 -64h24h32v-32v0v-128v0v-32v0h-32h-352v32v0v128v0v32v0h32h152q-23 26 -24 64h-224v0v-320v0h512v0v320v0h-96v0zM96 32h320h-320h320v128v0h-96h-224v-128v0z" />
    <glyph glyph-name="stopwatch-20" unicode="&#xe06f;" horiz-adv-x="448" 
d="M304 448h-160h160h-160v-64v0h48v0v-34v0q-76 -14 -125 -70t-51 -136q2 -88 61 -147t147 -61q88 2 147 61t61 147q-1 64 -33 113l24 24v0l22 23v0l-45 45v0l-23 -22v0l-21 -22v0q-43 35 -100 45v34v0h48v0v64v0zM288 244q22 -1 37 -15v0v0q14 -15 15 -37v-96v0
q-1 -22 -15 -37q-15 -14 -37 -15q-22 1 -37 15q-14 15 -15 37v96v0q1 22 15 37q15 14 37 15v0zM276 192v-96v96v-96q1 -11 12 -12q11 1 12 12v96v0q-1 11 -12 12q-11 -1 -12 -12v0zM157 204q-8 0 -13 -8l-6 -13v0l-36 18v0l6 13v0q16 29 49 30q24 -1 39 -16q15 -16 16 -39
q0 -20 -14 -36l-39 -44v0q-9 -11 -11 -25h44h20v-40v0h-20h-84v20v0v16v0q0 32 21 56l39 43v0q4 5 4 10q-1 14 -15 15v0z" />
    <glyph glyph-name="shop-slash" unicode="&#xe070;" horiz-adv-x="640" 
d="M0 256v64v-64v64l15 20v0l107 -84v0h-122v0zM277 256l43 -34l-43 34l43 -34v2v0h64v0v-51v0l128 -100v0v151v0h64v0v-200v0l45 -35v0l19 -15v0l-29 -38v0l-19 15v0l-573 444v0l-19 15v0l29 38v0l19 -15v0l24 -18v0l24 33v0h448v0l96 -128v0v-64v0h-363v0zM320 64v36v-36
v36l64 -51v0v-113v0h-320v0v128v0v160v0h64v0v-160v0h192v0z" />
    <glyph glyph-name="store-slash" unicode="&#xe071;" horiz-adv-x="640" 
d="M580 344l-68 104l68 -104l-68 104h-384v0l-33 -51v0l-47 36v0l-19 15v0l-29 -38v0l19 -15v0l573 -444v0l19 -15v0l29 38v0l-19 15v0l-77 59v0v16v0v131v0l-12 -2v0q-8 -1 -17 -1q-18 0 -35 5v-99v0l-179 139v0q11 7 19 16q25 -28 65 -29q40 1 65 29q25 -28 66 -29
q6 0 12 1q42 8 58 45q15 37 -6 74v0zM112 225q6 -1 12 -1q17 0 31 6l-106 83v0q-4 -31 13 -57t50 -31v0zM160 64v133v-133v133q-17 -5 -36 -5q-8 0 -16 1v0v0l-12 2v-131v0v-128v0h432v0l-162 128v0h-206v0z" />
    <glyph glyph-name="toilet-paper-slash" unicode="&#xe072;" horiz-adv-x="640" 
d="M95 397l-47 36l47 -36l-47 36l-19 15v0l-29 -38v0l19 -15v0l573 -444v0l19 -15v0l29 38v0l-19 15v0l-98 76v0q36 10 60 62q24 53 25 129q-1 82 -28 136t-68 56q-41 -2 -68 -56t-28 -136q1 -74 24 -127l-58 45v0q2 41 2 82q-1 50 12 102q14 52 48 90h-284v0
q-39 -2 -65 -51v0zM370 61l-303 239l303 -239l-303 239q-3 -21 -3 -44q1 -68 -6 -140q-7 -71 -32 -136l-18 -44v0h325v0q25 61 37 125v0zM544 256q0 -27 -9 -45v0v0q-9 -18 -23 -19q-14 1 -23 19t-9 45t9 45t23 19q14 -1 23 -19t9 -45v0z" />
    <glyph glyph-name="users-slash" unicode="&#xe073;" horiz-adv-x="640" 
d="M203 313q20 23 21 55q-1 34 -23 57q-23 22 -57 23q-44 -2 -67 -37l-29 22v0l-19 15v0l-29 -38v0l19 -15v0l573 -444v0l19 -15v0l29 38v0l-19 15v0l-179 139v0h198v0l-48 128v0h-148v0q4 -15 4 -32q-1 -46 -28 -80l-25 20v0q20 25 21 60q-1 41 -28 68t-68 28
q-49 -2 -77 -38l-40 31v0zM48 256l-48 -128l48 128l-48 -128h235v0q-31 28 -40 71l-73 57v0h-74v0zM176 96l-48 -160l48 160l-48 -160h384v0l-5 16v0l-182 144v0h-149v0zM512 288q45 1 69 40q22 40 0 80q-24 39 -69 40q-45 -1 -69 -40q-22 -40 0 -80q24 -39 69 -40v0z" />
    <glyph glyph-name="virus" unicode="&#xe074;" 
d="M256 448h-32h32h-32v-32v0v-12v0q-3 -38 -35 -51q-31 -13 -61 12l-8 8v0l-22 23v0l-23 -23v0v0v0v0v0l-23 -23v0l23 -22v0l8 -8v0v0v0q25 -30 12 -61q-13 -32 -51 -35h-12h-32v-32v0v-32v0h32h12q38 -3 51 -35q13 -31 -12 -61l-8 -8v0l-23 -22v0l23 -23v0v0v0l23 -23v0
l22 23v0l8 8v0v0v0q30 26 61 12q32 -13 35 -51v-12v0v-32v0h32h32v32v0v12v0q3 38 35 51q31 14 61 -12l8 -8v0l22 -23v0l23 23v0l23 23v0l-23 22v0l-8 8v0q-26 30 -12 61q13 32 51 35h12h32v32v0v32v0h-32h-12q-38 3 -51 35q-14 31 12 61l8 8v0l23 22v0l-23 23v0l-23 23v0
l-22 -23v0l-8 -8v0v0v0q-30 -25 -61 -12q-32 13 -35 51v12v0v32v0h-32v0zM176 224q1 27 24 42q24 12 48 0q23 -15 24 -42q-1 -27 -24 -42q-24 -12 -48 0q-23 15 -24 42v0zM304 168q22 -2 24 -24q-2 -22 -24 -24q-22 2 -24 24q2 22 24 24v0z" />
    <glyph glyph-name="virus-slash" unicode="&#xe075;" horiz-adv-x="640" 
d="M476 101q0 23 15 41v0v0q15 17 41 18h12h32v32v0v32v0h-32h-12q-38 3 -51 35q-14 31 12 61l8 8v0l23 22v0l-23 23v0l-23 23v0l-22 -23v0l-8 -8v0v0v0q-30 -25 -61 -12q-32 13 -35 51v12v0v32v0h-32h-32v-32v0v-12v0q-3 -38 -35 -51q-31 -13 -61 12l-8 8v0l-22 23v0
l-23 -23v0v0v0v0v0l-6 -6v0l-85 66v0l-19 15v0l-29 -38v0l19 -15v0l573 -444v0l19 -15v0l29 38v0l-19 15v0l-145 112v0zM264 266q11 6 24 6q20 -1 34 -14q13 -14 14 -34q0 -7 -2 -13l-70 55v0zM402 35l-257 203l257 -203l-257 203q-15 -13 -37 -14h-12h-32v-32v0v-32v0h32
h12q38 -3 51 -35q13 -31 -12 -61l-8 -8v0l-23 -22v0l23 -23v0v0v0l23 -23v0l22 23v0l8 8v0v0v0q30 26 61 12q32 -13 35 -51v-12v0v-32v0h32h32v32v0v12v0q1 23 15 38q15 15 35 17v0z" />
    <glyph glyph-name="viruses" unicode="&#xe076;" horiz-adv-x="640" 
d="M168 448h24h-24h48v-24v0v-14v0q2 -27 25 -36q22 -10 43 8l10 10v0l17 17v0l17 -17v0v0v0v0v0l17 -17v0l-17 -17v0l-10 -10v0q-18 -21 -8 -43q9 -23 37 -25h13h24v-24v0v-24v0h-24h-13q-28 -2 -37 -25q-10 -22 8 -43v0v0l10 -10v0l17 -17v0l-17 -17v0l-17 -17v0l-17 17v0
l-10 10v0v0v0q-21 18 -43 8q-23 -9 -25 -37v-13v0v-24v0h-24h-24v24v0v13v0q-2 28 -25 37q-22 10 -43 -8l-10 -10v0l-17 -17v0l-17 17v0l-17 17v0l17 17v0l10 10v0q18 21 8 43q-9 23 -36 25h-14h-24v24v0v24v0h24h14q27 2 36 25q10 22 -8 43l-10 10v0l-17 17v0l17 17v0
l17 17v0l17 -17v0l10 -10v0v0v0q21 -18 43 -8q23 9 25 36v14v0v24v0zM240 224q15 1 16 16q-1 15 -16 16q-15 -1 -16 -16q1 -15 16 -16v0zM192 288q0 14 -9 23v0v0q-9 9 -23 9t-23 -9t-9 -23t9 -23t23 -9t23 9t9 23v0zM598 182l11 -12l-11 12l11 -12l-11 -11v0
q-17 -19 -8 -40t34 -23h16v0v-16v0v-16v0h-16v0q-25 -2 -34 -23t8 -40l11 -12v0l-11 -11v0l-11 -11v0l-12 11v0q-19 17 -40 8t-23 -34v-16v0h-16h-16v16v0q-2 25 -23 34t-40 -8l-11 -11v0l-12 11v0v0v0l-11 11v0l11 12v0q17 19 8 40t-34 23h-16v0v16v0v16v0h16v0q25 2 34 23
t-8 40l-11 11v0l11 12v0v0v0l12 11v0l11 -11v0q19 -17 40 -8t23 34v16v0h16h16v-16v0q2 -25 23 -34t40 8l12 11v0l11 -11v0zM512 96q0 14 -9 23v0v0q-9 9 -23 9t-23 -9t-9 -23t9 -23t23 -9t23 9t9 23v0z" />
    <glyph glyph-name="vest" unicode="&#xe085;" horiz-adv-x="448" 
d="M207 211l-56 167l56 -167l-56 167q26 -16 73 -18q47 2 73 18l-73 -218v0v-224v0h224v0v256v0l-64 96v0v32v0v104v0v24v0h-24h-60l-7 -11v0l-1 -1v0l-1 -1l-1 -1q-3 -4 -11 -10q-16 -14 -55 -16q-39 2 -55 16q-8 6 -11 10q-2 2 -2 3h-1v0l-7 11v0h-13h-71v-24v0v-104v0
v-32v0l-64 -96v0v-256v0h192v0v224v0v5v0l2 5v0l13 41v0zM336 103l11 -12l-11 12l11 -12l48 -48v0l12 -11v0l-23 -23v0l-11 12v0l-48 48v0l-12 11v0l23 23v0zM101 91l11 12l-11 -12l11 12l23 -23v0l-12 -11v0l-48 -48v0l-11 -12v0l-23 23v0l12 11v0l48 48v0z" />
    <glyph glyph-name="vest-patches" unicode="&#xe086;" horiz-adv-x="448" 
d="M151 378l56 -167l-56 167l56 -167l-13 -41v0l-2 -5v0v-5v0v-224v0h-192v0v256v0l64 96v0v32v0v104v0v24v0h24h60l7 -11v0l1 -1v0l1 -1q0 -1 1 -1q3 -4 11 -10q16 -14 55 -16q39 2 55 16q8 6 11 10l3 3v0v0l7 11v0h13h71v-24v0v-104v0v-32v0l64 -96v0v-256v0h-224v0v224v0
l73 218v0q-26 -16 -73 -18q-47 2 -73 18v0zM96 -8q23 1 35 20q10 20 0 40q-12 19 -35 20q-23 -1 -35 -20q-10 -20 0 -40q12 -19 35 -20v0zM72 201l-17 -17l17 17l-17 -17l9 -9v0l15 -15v0l-15 -16v0l-9 -8v0l17 -17v0l9 8v0l15 16v0l16 -16v0l8 -8v0l17 17v0l-8 8v0l-16 16
v0l16 15v0l8 9v0l-17 17v0l-8 -9v0l-16 -15v0l-15 15v0l-9 9v0zM304 168v-8v8v-8v-48v0h48h8q22 2 24 24q-2 22 -24 24h-8v0v8v0q-2 22 -24 24q-22 -2 -24 -24v0z" />
    <glyph glyph-name="airplay" unicode="&#xe089;" horiz-adv-x="576" 
d="M512 352h-448h448h-448v-256v0h105v0l-62 -56v0l-9 -8v0h-34h-64v64v0v256v0v64v0h64h512v-64v0v-256v0v-64v0h-64h-34l-9 8v0l-62 56v0h105v0v256v0zM288 160l160 -144l-160 144l160 -144v-48v0h-320v0v48v0l160 144v0z" />
    <glyph glyph-name="alt" unicode="&#xe08a;" horiz-adv-x="640" 
d="M448 384h-15h15h-15l-10 -12v0l-246 -308v0h-145h-32v-64v0h32h175l10 12v0l246 308v0h145h32v64v0h-32h-160zM448 64h-32h32h-32v-64v0h32h192v64v0h-32h-160z" />
    <glyph glyph-name="angle" unicode="&#xe08c;" horiz-adv-x="448" 
d="M0 -32v61v-61v61l196 370v0l15 28v0l56 -30v0l-15 -28v0l-178 -337v0h342h32v-64v0h-32h-416zM316 195l-41 -26l41 26l-41 -26q-25 36 -59 63l23 43v0q45 -34 77 -80v0zM292 142l40 26l-40 -26l40 26q27 -48 38 -104h-49v0q-9 42 -29 78v0z" />
    <glyph glyph-name="angle-90" unicode="&#xe08d;" horiz-adv-x="448" 
d="M64 384v32v-32v32h-64v0v-32v0v-384v0v-32v0h32h416v64v0h-32h-352v352v0zM96 350v-48v48v-48q56 -7 102 -34l28 40v0q-59 35 -130 42v0zM225 251q45 -33 73 -81l42 24v0q-34 57 -87 96l-28 -39v0zM334 64h48h-48h48q-5 54 -27 102l-42 -24v0q16 -37 21 -78v0z" />
    <glyph glyph-name="apple-core" unicode="&#xe08f;" horiz-adv-x="384" 
d="M176 352v16v-16v16q1 34 23 57q23 22 57 23h16h16v-16v0v-16v0q-1 -34 -23 -57q-23 -22 -57 -23h-16h-16v16v0zM14 293q26 26 66 27l112 -32v0l112 32v0q40 -1 66 -27q-38 -24 -60 -63t-22 -86q0 -46 21 -84q21 -37 56 -62q-47 -60 -109 -62l-64 16v0l-64 -16v0
q-62 2 -109 62q35 25 56 62q21 38 21 84q0 47 -22 86t-60 63v0z" />
    <glyph glyph-name="arrow-down-from-dotted-line" unicode="&#xe090;" horiz-adv-x="448" 
d="M64 416v-64v64v-64h-64v0v64v0h64v0zM160 416v-64v64v-64h-64v0v64v0h64v0zM192 416h64h-64h64v-64v0h-64v0v64v0zM352 416v-64v64v-64h-64v0v64v0h64v0zM384 416h64h-64h64v-64v0h-64v0v64v0zM247 -7l-23 -22l23 22l-23 -22l-23 22v0l-128 128v0l-22 23v0l45 45v0
l23 -22v0l73 -74v0v163v0v32v0h64v0v-32v0v-163v0l73 74v0l23 22v0l45 -45v0l-22 -23v0l-128 -128v0z" />
    <glyph glyph-name="arrow-down-left" unicode="&#xe091;" horiz-adv-x="384" 
d="M64 32h-32h32h-32v32v0v224v0v32v0h64v0v-32v0v-147v0l201 202v0l23 22v0l45 -45v0l-22 -23v0l-202 -201v0h147h32v-64v0h-32h-224z" />
    <glyph glyph-name="arrow-down-left-and-arrow-up-right-to-center" unicode="&#xe092;" 
d="M381 272l122 121l-122 -121l122 121l-46 46v0l-121 -122v0v51v0v32v0h-64v0v-32v0v-128v0v-32v0h32h160v64v0h-32h-51zM80 176h-32h32h-32v-64v0h32h51l-122 -121v0l46 -46v0l121 122v0v-51v0v-32v0h64v0v32v0v128v0v32v0h-32h-128z" />
    <glyph glyph-name="arrow-down-right" unicode="&#xe093;" horiz-adv-x="384" 
d="M320 32h32h-32h32v32v0v224v0v32v0h-64v0v-32v0v-147v0l-201 202v0l-23 22v0l-45 -45v0l22 -23v0l202 -201v0h-147h-32v-64v0h32h224z" />
    <glyph glyph-name="arrow-down-to-bracket" unicode="&#xe094;" horiz-adv-x="448" 
d="M247 105l-23 -22l23 22l-23 -22l-23 22v0l-128 128v0l-22 23v0l45 45v0l23 -22v0l73 -74v0v211v0v32v0h64v0v-32v0v-211v0l73 74v0l23 22v0l45 -45v0l-22 -23v0l-128 -128v0zM64 96v-96v96v-96h320v0v96v0v32v0h64v0v-32v0v-128v0v-32v0h-32h-416v32v0v128v0v32v0h64v0
v-32v0z" />
    <glyph glyph-name="arrow-down-to-dotted-line" unicode="&#xe095;" horiz-adv-x="448" 
d="M247 105l-23 -22l23 22l-23 -22l-23 22v0l-128 128v0l-22 23v0l45 45v0l23 -22v0l73 -74v0v67v0v112v0v32v0h64v0v-32v0v-112v0v-67v0l73 74v0l23 22v0l45 -45v0l-22 -23v0l-128 -128v0zM64 32v-64v64v-64h-64v0v64v0h64v0zM160 32v-64v64v-64h-64v0v64v0h64v0zM192 -32
v64v-64v64h64v0v-64v0h-64v0zM352 32v-64v64v-64h-64v0v64v0h64v0zM384 32h64h-64h64v-64v0h-64v0v64v0z" />
    <glyph glyph-name="arrow-down-to-square" unicode="&#xe096;" 
d="M279 105l96 96l-96 -96l96 96l22 23v0l-45 45v0l-23 -22v0l-41 -42v0v211v0v32v0h-64v0v-32v0v-211v0l-41 42v0l-23 22v0l-45 -45v0l22 -23v0l96 -96v0l23 -22v0l23 22v0zM32 416h-32h32h-32v-32v0v-416v0v-32v0h32h480v32v0v416v0v32v0h-32h-96v-64v0h64v0v-352v0h-384
v0v352v0h64v0v64v0h-96v0z" />
    <glyph glyph-name="arrow-trend-down" unicode="&#xe097;" horiz-adv-x="576" 
d="M544 32h32h-32h32v32v0v160v0v32v0h-64v0v-32v0v-83v0l-169 170v0l-23 22v0l-23 -22v0l-105 -106v0l-137 138v0l-46 -46v0l160 -160v0l23 -22v0l23 22v0l105 106v0l147 -147v0h-83h-32v-64v0h32h160v0v0v0z" />
    <glyph glyph-name="arrow-trend-up" unicode="&#xe098;" horiz-adv-x="576" 
d="M544 352h32h-32h32v-32v0v-160v0v-32v0h-64v0v32v0v83v0l-169 -170v0l-23 -22v0l-23 22v0l-105 106v0l-137 -138v0l-46 46v0l160 160v0l23 22v0l23 -22v0l105 -106v0l147 147v0h-83h-32v64v0h32h160v0v0v0z" />
    <glyph glyph-name="arrow-up-arrow-down" unicode="&#xe099;" horiz-adv-x="576" 
d="M439 -7l96 96l-96 -96l96 96l22 23v0l-45 45v0l-23 -22v0l-41 -42v0v291v0v32v0h-64v0v-32v0v-291v0l-41 42v0l-23 22v0l-45 -45v0l22 -23v0l96 -96v0l23 -22v0l23 22v0zM183 391l-23 22l23 -22l-23 22l-23 -22v0l-96 -96v0l-22 -23v0l45 -45v0l23 22v0l41 42v0v-291v0
v-32v0h64v0v32v0v291v0l41 -42v0l23 -22v0l45 45v0l-22 23v0l-96 96v0z" />
    <glyph glyph-name="arrow-up-from-bracket" unicode="&#xe09a;" horiz-adv-x="448" 
d="M247 423l-23 22l23 -22l-23 22l-23 -22v0l-128 -128v0l-22 -23v0l45 -45v0l23 22v0l73 74v0v-195v0v-32v0h64v0v32v0v195v0l73 -74v0l23 -22v0l45 45v0l-22 23v0l-128 128v0zM64 96v32v-32v32h-64v0v-32v0v-128v0v-32v0h32h416v32v0v128v0v32v0h-64v0v-32v0v-96v0h-320v0
v96v0z" />
    <glyph glyph-name="arrow-up-from-dotted-line" unicode="&#xe09b;" horiz-adv-x="448" 
d="M247 391l-23 22l23 -22l-23 22l-23 -22v0l-128 -128v0l-22 -23v0l45 -45v0l23 22v0l73 74v0v-163v0v-32v0h64v0v32v0v163v0l73 -74v0l23 -22v0l45 45v0l-22 23v0l-128 128v0zM64 32h-64h64h-64v-64v0h64v0v64v0zM160 32h-64h64h-64v-64v0h64v0v64v0zM192 -32h64h-64h64
v64v0h-64v0v-64v0zM352 32h-64h64h-64v-64v0h64v0v64v0zM384 32v-64v64v-64h64v0v64v0h-64v0z" />
    <glyph glyph-name="arrow-up-from-square" unicode="&#xe09c;" 
d="M279 423l-23 22l23 -22l-23 22l-23 -22v0l-96 -96v0l-22 -23v0l45 -45v0l23 22v0l41 42v0v-195v0v-32v0h64v0v32v0v195v0l41 -42v0l23 -22v0l45 45v0l-22 23v0l-96 96v0zM32 416h-32h32h-32v-32v0v-416v0v-32v0h32h480v32v0v416v0v32v0h-32h-64v-64v0h32v0v-352v0h-384v0
v352v0h32v0v64v0h-64v0z" />
    <glyph glyph-name="arrow-up-left" unicode="&#xe09d;" horiz-adv-x="384" 
d="M64 352h-32h32h-32v-32v0v-224v0v-32v0h64v0v32v0v147v0l201 -202v0l23 -22v0l45 45v0l-22 23v0l-202 201v0h147h32v64v0h-32h-224z" />
    <glyph glyph-name="arrow-up-left-from-circle" unicode="&#xe09e;" 
d="M32 448h-32h32h-32v-32v0v-160v0v-32v0h64v0v32v0v83v0l233 -234v0l23 -22v0l45 45v0l-22 23v0l-234 233v0h83h32v64v0h-32h-160zM288 320q68 -2 113 -47v0v0q45 -45 47 -113q-2 -68 -47 -113t-113 -47q-68 2 -113 47t-47 113h-64v0q1 -63 31 -113q29 -51 80 -80
q50 -30 113 -31q63 1 113 31q51 29 80 80q30 50 31 113q-1 63 -31 113q-29 51 -80 80q-50 30 -113 31v-64v0z" />
    <glyph glyph-name="arrow-up-right" unicode="&#xe09f;" horiz-adv-x="384" 
d="M320 352h32h-32h32v-32v0v-224v0v-32v0h-64v0v32v0v147v0l-201 -202v0l-23 -22v0l-45 45v0l22 23v0l202 201v0h-147h-32v64v0h32h224z" />
    <glyph glyph-name="arrow-up-right-and-arrow-down-left-from-center" unicode="&#xe0a0;" 
d="M352 448h-32h32h-32v-64v0h32h51l-106 -105v0l-22 -23v0l45 -45v0l23 22v0l105 106v0v-51v0v-32v0h64v0v32v0v128v0v32v0h-32h-128zM215 105l22 23l-22 -23l22 23l-45 45v0l-23 -22v0l-105 -106v0v51v0v32v0h-64v0v-32v0v-128v0v-32v0h32h160v64v0h-32h-51l106 105v0z
" />
    <glyph glyph-name="arrow-up-to-dotted-line" unicode="&#xe0a1;" horiz-adv-x="448" 
d="M64 416h-64h64h-64v-64v0h64v0v64v0zM160 416h-64h64h-64v-64v0h64v0v64v0zM192 416v-64v64v-64h64v0v64v0h-64v0zM352 416h-64h64h-64v-64v0h64v0v64v0zM384 416v-64v64v-64h64v0v64v0h-64v0zM247 279l-23 22l23 -22l-23 22l-23 -22v0l-128 -128v0l-22 -23v0l45 -45v0
l23 22v0l73 74v0v-67v0v-112v0v-32v0h64v0v32v0v112v0v67v0l73 -74v0l23 -22v0l45 45v0l-22 23v0l-128 128v0z" />
    <glyph glyph-name="arrows-cross" unicode="&#xe0a2;" horiz-adv-x="448" 
d="M288 416h-32h32h-32v-64v0h32h51l-314 -313v0l-22 -23v0l45 -45v0l23 22v0l313 314v0v-51v0v-32v0h64v0v32v0v128v0v32v0h-32h-128zM71 391l-23 22l23 -22l-23 22l-45 -45v0l22 -23v0l131 -130v0l45 45v0l-130 131v0zM339 32h-51h51h-83v-64v0h32h160v32v0v128v0v32v0
h-64v0v-32v0v-51v0l-92 92v0l-45 -45v0l92 -92v0z" />
    <glyph glyph-name="arrows-from-dotted-line" unicode="&#xe0a3;" horiz-adv-x="448" 
d="M128 352l96 96l-96 -96l96 96l96 -96v0v-32v0h-64v0v-32v0v-32v0h-64v0v32v0v32v0h-64v0v32v0zM256 96v-16v16v-16v-16v0h64v0v-32v0l-96 -96v0l-96 96v0v32v0h64v0v16v0v16v0v32v0h64v0v-32v0zM64 224v-64v64v-64h-64v0v64v0h64v0zM96 224h64h-64h64v-64v0h-64v0v64v0z
M256 224v-64v64v-64h-64v0v64v0h64v0zM288 224h64h-64h64v-64v0h-64v0v64v0zM384 224h64h-64h64v-64v0h-64v0v64v0z" />
    <glyph glyph-name="arrows-from-line" unicode="&#xe0a4;" horiz-adv-x="448" 
d="M128 352l96 96l-96 -96l96 96l96 -96v0v-32v0h-64v0v-32v0v-32v0h-64v0v32v0v32v0h-64v0v32v0zM256 88v-24v24v-24h64v0v-32v0l-96 -96v0l-96 96v0v32v0h64v0v24v0v32v0h64v0v-32v0zM32 224h384h-384h416v-64v0h-32h-416v64v0h32v0z" />
    <glyph glyph-name="arrows-minimize" unicode="&#xe0a5;" 
d="M48 445l23 -22l-23 22l23 -22l89 -90v0v35v0v32v0h64v0v-32v0v-112v0v-32v0h-32h-144v64v0h32h35l-90 89v0l-22 23v0l45 45v0zM509 400l-22 -23l22 23l-22 -23l-90 -89v0h35h32v-64v0h-32h-144v32v0v112v0v32v0h64v0v-32v0v-35v0l89 90v0l23 22v0l45 -45v0zM48 160h32
h-32h176v-32v0v-112v0v-32v0h-64v0v32v0v35v0l-89 -90v0l-23 -22v0l-45 45v0l22 23v0l90 89v0h-35h-32v64v0zM288 160h32h-32h176v-64v0h-32h-35l90 -89v0l22 -23v0l-45 -45v0l-23 22v0l-89 90v0v-35v0v-32v0h-64v0v32v0v112v0v32v0z" />
    <glyph glyph-name="arrows-to-dotted-line" unicode="&#xe0a6;" horiz-adv-x="448" 
d="M256 416v32v-32v32h-64v0v-32v0v-32v0h-64v0v-32v0l96 -96v0l96 96v0v32v0h-64v0v32v0zM192 0v-32v32v-32v-32v0h64v0v32v0v32v0h64v0v32v0l-96 96v0l-96 -96v0v-32v0h64v0zM64 224h-64h64h-64v-64v0h64v0v64v0zM96 224v-64v64v-64h64v0v64v0h-64v0zM256 224h-64h64h-64
v-64v0h64v0v64v0zM288 224v-64v64v-64h64v0v64v0h-64v0zM384 224v-64v64v-64h64v0v64v0h-64v0z" />
    <glyph glyph-name="arrows-to-line" unicode="&#xe0a7;" horiz-adv-x="448" 
d="M256 416v32v-32v32h-64v0v-32v0v-32v0h-64v0v-32v0l96 -96v0l96 96v0v32v0h-64v0v32v0zM192 0v-32v32v-32v-32v0h64v0v32v0v32v0h64v0v32v0l-96 96v0l-96 -96v0v-32v0h64v0zM32 224h-32h32h-32v-64v0h32h416v64v0h-32h-384z" />
    <glyph glyph-name="audio-description-slash" unicode="&#xe0a8;" horiz-adv-x="640" 
d="M48 433l-19 15l19 -15l-19 15l-29 -38v0l19 -15v0l573 -444v0l19 -15v0l29 38v0l-19 15v0l-13 10v0v417v0h-537v0l-23 17v0zM336 210v54v-54v54v24v0h24h56q41 -1 68 -28t28 -68q0 -27 -13 -48q-12 -22 -34 -34l-44 34v0q18 2 30 16q13 13 13 32q-1 20 -14 34
q-14 13 -34 14h-32v0v-67v0l-48 37v0zM233 168l-18 14l18 -14l-18 14l-6 -14v0h24v0zM126 96l50 117l-50 -117l50 117l-144 114v0v-359v0h455v0l-167 132v0l2 -4v0h-52v0l-14 32v0h-64v0l-13 -32v0h-53v0z" />
    <glyph glyph-name="austral-sign" unicode="&#xe0a9;" horiz-adv-x="448" 
d="M194 416h22h-22h60l8 -20v0l69 -172v0h85h32v-64v0h-32h-60l13 -32v0h47h32v-64v0h-32h-21l27 -68v0l11 -28v0h-69v0l-2 4v0l-36 92v0h-204v0l-36 -92v0l-2 -4v0h-69v0l11 28v0l28 68v0h-22h-32v64v0h32h47l13 32v0h-60h-32v64v0h32h86l68 172v0l8 20v0zM224 318l-37 -94
l37 94l-37 -94h75v0l-38 94v0zM148 128h152h-152h152l-13 32v0h-126v0l-13 -32v0z" />
    <glyph glyph-name="avocado" unicode="&#xe0aa;" 
d="M470 202q42 45 42 102v0v0q0 57 -42 102q-45 42 -102 42t-102 -42l-54 -54v0q-41 1 -80 -14q-39 -16 -71 -47q-61 -64 -61 -147t61 -147q64 -61 147 -61t147 61q31 32 47 71q15 39 14 80l54 54v0zM283 101q-33 -32 -71 -36v0v0q-38 -5 -64 19q-24 26 -19 64q4 38 36 71
q33 32 71 36q38 5 64 -19q24 -26 19 -64q-4 -38 -36 -71v0z" />
    <glyph glyph-name="award-simple" unicode="&#xe0ab;" horiz-adv-x="384" 
d="M192 448l44 -27l-44 27l44 -27l52 1v0l25 -45v0l45 -25v0l-1 -52v0l27 -44v0l-27 -44v0l1 -52v0l-45 -25v0l-25 -45v0l-52 1v0l-44 -27v0l-44 27v0l-52 -1v0l-25 45v0l-45 25v0l1 52v0l-27 44v0l27 44v0l-1 52v0l45 25v0l25 45v0l52 -1v0l44 27v0zM272 256q-1 45 -40 69
q-40 22 -80 0q-39 -24 -40 -69q1 -45 40 -69q40 -22 80 0q39 24 40 69v0zM64 -64l29 124l-29 -124l29 124l42 1v0l40 -24v0l17 -11v0l17 11v0l40 24v0l42 -1v0l29 -124v0l-128 32v0l-128 -32v0z" />
    <glyph glyph-name="baht-sign" unicode="&#xe0ac;" horiz-adv-x="320" 
d="M176 448h-64h64h-64v-64v0h-48h-64v-64v0v-96v0v-64v0v-96v0v-64v0h64h48v-64v0h64v0v64v0h32v0q48 1 79 33q32 31 33 79q0 30 -14 55q-15 25 -39 40q20 28 21 65q-1 48 -33 79q-31 32 -79 33v64v0zM112 320v-96v96v-96h-48v0v96v0h48v0zM176 224v96v-96v96q20 -1 34 -14
q13 -14 14 -34q-1 -20 -14 -34q-14 -13 -34 -14v0zM112 160v-96v96v-96h-48v0v96v0h48v0zM176 64v96v-96v96h32v0q20 -1 34 -14q13 -14 14 -34q-1 -20 -14 -34q-14 -13 -34 -14h-32v0z" />
    <glyph glyph-name="bars-filter" unicode="&#xe0ad;" horiz-adv-x="448" 
d="M0 384h448h-448h448v-64v0h-448v0v64v0zM64 224h320h-320h320v-64v0h-320v0v64v0zM288 64v-64v64v-64h-128v0v64v0h128v0z" />
    <glyph glyph-name="bars-sort" unicode="&#xe0ae;" horiz-adv-x="448" 
d="M0 384h448h-448h448v-64v0h-448v0v64v0zM0 224h320h-320h320v-64v0h-320v0v64v0zM192 64v-64v64v-64h-192v0v64v0h192v0z" />
    <glyph glyph-name="basket-shopping-simple" unicode="&#xe0af;" horiz-adv-x="576" 
d="M256 418l-11 -21l11 21l-11 -21l-73 -141v0h232v0l-73 141v0l-11 21v0l42 22v0l11 -21v0l85 -163v0h118v0v-64v0h-32v0l-64 -256v0h-384v0l-64 256v0h-32v0v64v0h118v0l85 163v0l11 21v0l42 -22v0zM144 152q22 2 24 24q-2 22 -24 24q-22 -2 -24 -24q2 -22 24 -24v0z
M456 176q-2 22 -24 24q-22 -2 -24 -24q2 -22 24 -24q22 2 24 24v0z" />
    <glyph glyph-name="battery-exclamation" unicode="&#xe0b0;" horiz-adv-x="576" 
d="M208 352v-64v64v-64h-144v0v-192v0h128v0v-64v0h-128h-64v64v0v192v0v64v0h64h144zM336 288v64v-64v64h144h64v-64v0v-32v0h32v0v-128v0h-32v0v-32v0v-64v0h-64h-128v64v0h128v0v192v0h-144v0zM296 352v-24v24v-24v-176v0v-24v0h-48v0v24v0v176v0v24v0h48v0zM304 96v-64
v64v-64h-64v0v64v0h64v0z" />
    <glyph glyph-name="battery-low" unicode="&#xe0b1;" horiz-adv-x="576" 
d="M480 288v-192v192v-192h-416v0v192v0h416v0zM64 352h-64h64h-64v-64v0v-192v0v-64v0h64h480v64v0v32v0h32v0v128v0h-32v0v32v0v64v0h-64h-416zM160 256h-64h64h-64v-128v0h64v0v128v0z" />
    <glyph glyph-name="bee" unicode="&#xe0b2;" horiz-adv-x="576" 
d="M216 447l11 -12l-11 12l11 -12l27 -27v0q16 8 34 8t34 -8l27 27v0l11 12v0l23 -23v0l-12 -11v0l-23 -24v0q19 -22 20 -53v-9q35 24 80 25q51 -1 88 -31q38 -30 40 -81q-1 -47 -34 -76q-33 -30 -79 -35q1 7 1 15q0 25 -7 48q27 4 41 18q14 15 14 30q0 17 -17 32
q-16 15 -47 16q-26 -1 -42 -12t-20 -26q44 -41 46 -106q-3 -49 -37 -97q-35 -47 -70 -78q-34 -32 -37 -33q-3 1 -37 33q-35 31 -70 78q-34 48 -37 97q2 65 46 106q-4 15 -20 26t-42 12q-31 -1 -47 -16q-17 -15 -17 -32q0 -15 14 -30q14 -14 41 -18q-7 -23 -7 -48q0 -8 1 -15
q-46 5 -79 35q-33 29 -34 76q2 51 40 81q37 30 88 31q45 -1 81 -25q-1 4 -1 9q1 31 20 53l-23 24v0l-12 11v0l23 23v0zM249 64q7 -9 15 -17q12 -14 24 -26q12 12 24 26q8 8 15 17h-78v0zM368 144h-160h160h-160q-1 -11 9 -32h142v0q9 21 9 32v0zM352 192q-23 31 -64 32
q-41 -1 -64 -32h128v0z" />
    <glyph glyph-name="beer-mug" unicode="&#xe0b3;" 
d="M208 288q-25 0 -44 13v0v0q-19 13 -29 34q-18 -29 -55 -31q-27 1 -45 19t-19 45q1 27 19 45t45 19q37 -2 55 -31q10 21 29 34t44 13t44 -13t29 -34q18 29 55 31q27 -1 45 -19t19 -45q-1 -27 -19 -45t-45 -19q-37 2 -55 31q-10 -21 -29 -34t-44 -13v0zM32 -64v349v-349
v349q21 -13 48 -13q29 0 51 15q31 -30 77 -31q46 1 77 31q23 -15 51 -15q30 0 53 16h91h32v-32v0v-176v0v-21v0l-19 -8v0l-109 -49v0v-66v0h-352v0zM384 72l64 29l-64 -29l64 29v123v0h-64v0v-152v0zM160 208v16v-16v16h-32v0v-16v0v-160v0v-16v0h32v0v16v0v160v0zM224 208
v16v-16v16h-32v0v-16v0v-160v0v-16v0h32v0v16v0v160v0zM288 208v16v-16v16h-32v0v-16v0v-160v0v-16v0h32v0v16v0v160v0z" />
    <glyph glyph-name="bitcoin-sign" unicode="&#xe0b4;" horiz-adv-x="320" 
d="M112 448h-64h64h-64v-64v0h-48v0v-64v0v-96v0v-64v0v-96v0v-64v0h48v0v-64v0h64v0v64v0h32v0v-64v0h64v0v64v0q48 1 79 33q32 31 33 79q0 30 -14 55q-15 25 -39 40q20 28 21 65q-1 39 -23 68q-22 28 -57 39v69v0h-64v0v-64v0h-32v0v64v0zM64 320h112h-112h112
q20 -1 34 -14q13 -14 14 -34q-1 -20 -14 -34q-14 -13 -34 -14h-112v0v96v0zM176 160h32h-32h32q20 -1 34 -14q13 -14 14 -34q-1 -20 -14 -34q-14 -13 -34 -14h-144v0v96v0h112v0z" />
    <glyph glyph-name="block-quote" unicode="&#xe0b5;" horiz-adv-x="448" 
d="M448 384h-448h448h-448v-64v0h448v0v64v0zM448 224h-320h320h-320v-64v0h320v0v64v0zM128 64v-64v64v-64h320v0v64v0h-320v0zM64 224h-64h64h-64v-224v0h64v0v224v0z" />
    <glyph glyph-name="bolt-auto" unicode="&#xe0b6;" horiz-adv-x="576" 
d="M304 448l-304 -288l304 288l-304 -288l162 -23v0l-50 -201v0l304 288v0l-162 23v0l50 201v0zM506 -64h70h-70h70l-96 224v0h-64v0l-96 -224v0h70v0l13 32v0h90v0l13 -32v0zM448 72l17 -40l-17 40l17 -40h-34v0l17 40v0z" />
    <glyph glyph-name="bolt-lightning" unicode="&#xe0b7;" horiz-adv-x="384" 
d="M0 160l32 288l-32 -288l32 288h224v0l-48 -160v0h176v0v-48v0l-256 -304v0l48 224v0h-176v0z" />
    <glyph glyph-name="bolt-slash" unicode="&#xe0b8;" horiz-adv-x="640" 
d="M433 134l95 90l-95 -90l95 90l-171 26v0l59 198v0l-174 -165v0l-194 150v0l-19 15v0l-29 -38v0l19 -15v0l573 -444v0l19 -15v0l29 38v0l-19 15v0l-188 145v0zM112 160l164 -25l-164 25l164 -25l-104 82v0l-60 -57v0zM362 67l-80 63l80 -63l-80 63l-58 -194v0l138 131v0z
" />
    <glyph glyph-name="book-arrow-right" unicode="&#xe0b9;" horiz-adv-x="640" 
d="M96 448q-41 -1 -68 -28v0v0q-27 -27 -28 -68v-320v0q1 -41 28 -68t68 -28h288h64v64v0h-32v0v64v0h32v0v152v0h94v0l-39 -39v0l-17 -17v0l34 -34v0l17 17v0l80 80v0l17 17v0l-17 17v0l-80 80v0l-17 17v0l-34 -34v0l17 -17v0l39 -39v0h-94v0v184v0h-32h-320zM448 264v-48
v48v-48h-200h-24v48v0h24h200zM96 64h256h-256h256v-64v0h-256v0q-14 0 -23 9t-9 23t9 23t23 9v0z" />
    <glyph glyph-name="book-arrow-up" unicode="&#xe0ba;" horiz-adv-x="448" 
d="M0 352q1 41 28 68v0v0q27 27 68 28h288h64v-384v0h-32v0v-64v0h32v0v-64v0h-32h-320q-41 1 -68 28t-28 68v320v0zM64 32q0 -14 9 -23v0v0q9 -9 23 -9h256v0v64v0h-88v0v174v0l39 -39v0l17 -17v0l34 34v0l-17 17v0l-80 80v0l-17 17v0l-17 -17v0l-80 -80v0l-17 -17v0
l34 -34v0l17 17v0l39 39v0v-174v0h-120v0q-14 0 -23 -9t-9 -23v0z" />
    <glyph glyph-name="book-bookmark" unicode="&#xe0bb;" horiz-adv-x="448" 
d="M0 352q1 41 28 68v0v0q27 27 68 28h96v0v-224v0l80 64v0l80 -64v0v224v0h32h64v-384v0h-32v0v-64v0h32v0v-64v0h-32h-320q-41 1 -68 28t-28 68v320v0zM64 32q0 -14 9 -23v0v0q9 -9 23 -9h256v0v64v0h-256v0q-14 0 -23 -9t-9 -23v0z" />
    <glyph glyph-name="book-circle-arrow-right" unicode="&#xe0bc;" horiz-adv-x="640" 
d="M96 448q-41 -1 -68 -28v0v0q-27 -27 -28 -68v-320v0q1 -41 28 -68t68 -28h288h11q-36 25 -56 64h-243v0q-14 0 -23 9t-9 23t9 23t23 9h225v0q-1 8 -1 16q1 62 36 107q36 46 92 62v199v0h-32h-320zM640 80q0 39 -19 72v0v0q-19 33 -53 53q-34 19 -72 19t-72 -19
q-34 -20 -53 -53t-19 -72t19 -72t53 -53q34 -19 72 -19t72 19q34 20 53 53t19 72v0zM504 159l11 -12l-11 12l11 -12l56 -56v0l12 -11v0l-12 -11v0l-56 -56v0l-11 -12v0l-23 23v0l12 11v0l28 29v0h-89h-16v32v0h16h89l-28 29v0l-12 11v0l23 23v0z" />
    <glyph glyph-name="book-circle-arrow-up" unicode="&#xe0bd;" horiz-adv-x="640" 
d="M96 448q-41 -1 -68 -28v0v0q-27 -27 -28 -68v-320v0q1 -41 28 -68t68 -28h288h11q-36 25 -56 64h-243v0q-14 0 -23 9t-9 23t9 23t23 9h225v0q-1 8 -1 16q1 62 36 107q36 46 92 62v199v0h-32h-320zM496 224q-39 0 -72 -19v0v0q-33 -19 -53 -53q-19 -34 -19 -72t19 -72
q20 -34 53 -53t72 -19t72 19t53 53q19 34 19 72t-19 72q-20 34 -53 53t-72 19v0zM417 88l12 11l-12 -11l12 11l56 56v0l11 12v0l11 -12v0l56 -56v0l12 -11v0l-23 -23v0l-11 12v0l-29 28v0v-89v0v-16v0h-32v0v16v0v89v0l-29 -28v0l-11 -12v0l-23 23v0z" />
    <glyph glyph-name="book-copy" unicode="&#xe0be;" horiz-adv-x="576" 
d="M160 352h-64h64h-64q-41 -1 -68 -28t-28 -68v-224v0q1 -41 28 -68t68 -28h224h64v64v0h-32h-256q-14 0 -23 9t-9 23t9 23t23 9h81v0q-17 29 -17 64v224v0zM320 32h32h-32h256v32v0v32v0h-32v0v64v0h32v0v256v0v32v0h-32h-256q-41 -1 -68 -28t-28 -68v-224v0q1 -38 24 -64
q28 -31 72 -32h32v0zM256 128q0 14 9 23v0v0q9 9 23 9h96h96v-64v0h-96h-96q-14 0 -23 9t-9 23v0z" />
    <glyph glyph-name="book-font" unicode="&#xe0bf;" horiz-adv-x="448" 
d="M0 352q1 41 28 68v0v0q27 27 68 28h288h64v-384v0h-32v0v-64v0h32v0v-64v0h-32h-320q-41 1 -68 28t-28 68v320v0zM64 32q0 -14 9 -23v0v0q9 -9 23 -9h256v0v64v0h-256v0q-14 0 -23 -9t-9 -23v0zM250 384h-20h20h-20l-4 -9v0l-62 -128v0l-40 -84v0l-1 -3v0h35v0l31 64v0
h102v0l31 -64v0h35v0l-1 3v0l-40 84v0l-62 128v0l-4 9v0zM276 256h-72h72h-72l36 75v0l36 -75v0z" />
    <glyph glyph-name="book-open-cover" unicode="&#xe0c0;" horiz-adv-x="640" 
d="M304 416v-376v376v-376l-208 40v0v368v0l208 -32v0zM64 48l256 -51l-256 51l256 -51l256 51v0v371v0l64 13v0v-432v0l-320 -64v0l-320 64v0v432v0l64 -13v0v-371v0zM336 40v376v-376v376l208 32v0v-368v0l-208 -40v0z" />
    <glyph glyph-name="book-section" unicode="&#xe0c1;" horiz-adv-x="448" 
d="M0 352q1 41 28 68v0v0q27 27 68 28h288h64v-384v0h-32v0v-64v0h32v0v-64v0h-32h-320q-41 1 -68 28t-28 68v320v0zM64 32q0 -14 9 -23v0v0q9 -9 23 -9h256v0v64v0h-256v0q-14 0 -23 -9t-9 -23v0zM236 205q28 -7 37 -13v0v0q9 -6 7 -15q-7 -21 -52 -16q-16 3 -33 9v0l-6 2
v0l-10 -30v0l6 -2v0v0v0q18 -7 38 -10q11 -2 21 -2q57 1 67 43q4 31 -17 44q13 11 17 28q4 33 -19 46q-23 14 -48 19v0v0l-7 2v0q-27 7 -33 13t-4 12q7 21 52 16q10 -1 25 -6l10 30v0q-18 6 -30 8q-36 5 -60 -6q-23 -11 -28 -36q-4 -31 17 -44q-14 -11 -17 -28
q-4 -32 18 -45q22 -14 41 -17h1l7 -2v0zM236 277q28 -7 37 -13v0v0q9 -6 7 -15q-3 -8 -11 -12q-8 -3 -15 -4q-3 1 -10 3q-6 1 -7 2v0q-27 7 -33 13t-4 12q3 9 10 12q8 4 16 5q1 -1 5 -2t5 -1v0v0z" />
    <glyph glyph-name="bookmark-slash" unicode="&#xe0c2;" horiz-adv-x="640" 
d="M128 -64v315v-315v315l384 -302v0v-13v0l-192 112v0l-192 -112v0zM512 73l109 -84l-109 84l109 -84l19 -15v0l-29 -38v0l-19 15v0l-573 444v0l-19 15v0l29 38v0l19 -15v0l80 -62v0v77v0h384v0v-375v0z" />
    <glyph glyph-name="bowling-ball-pin" unicode="&#xe0c3;" horiz-adv-x="576" 
d="M416 384q1 27 19 45v0v0q18 18 45 19q27 -1 45 -19t19 -45v-1v0q0 -11 -3 -22l-18 -65v0q-1 -4 -1 -8h-84v0q0 4 -1 8l-18 65v0q-3 11 -3 22v1v0zM439 256h82h-82h82q1 -9 4 -18l51 -157v0l-40 -145v0h-112v0l-20 69v0q43 60 44 139q0 46 -16 86l3 8v0q3 9 4 18v0zM0 144
q0 57 28 104v0v0q27 47 76 76q49 28 104 28t104 -28q49 -29 76 -76q28 -47 28 -104t-28 -104q-27 -47 -76 -76q-49 -28 -104 -28t-104 28q-49 29 -76 76q-28 47 -28 104v0zM224 276q0 12 -8 20v0v0q-8 8 -20 8t-20 -8t-8 -20t8 -20t20 -8t20 8t8 20v0zM196 160q12 0 20 8v0
v0q8 8 8 20t-8 20t-20 8t-20 -8t-8 -20t8 -20t20 -8v0zM152 228q0 12 -8 20v0v0q-8 8 -20 8t-20 -8t-8 -20t8 -20t20 -8t20 8t8 20v0z" />
    <glyph glyph-name="box-circle-check" unicode="&#xe0c4;" horiz-adv-x="576" 
d="M208 416v-128v128v-128h-208v0l64 128v0h144v0zM240 416h144h-144h144l64 -128v0h-32h-176v128v0zM0 -32v288v-288v288h416v0v-1v0q-69 -7 -114 -56q-44 -49 -46 -119q1 -65 40 -112h-296v0zM288 80q0 39 19 72v0v0q19 33 53 53q34 19 72 19t72 -19q34 -20 53 -53t19 -72
t-19 -72t-53 -53q-34 -19 -72 -19t-72 19q-34 20 -53 53t-19 72v0zM511 112l-23 23l23 -23l-23 23l-11 -12v0l-61 -60v0l-29 28v0l-11 12v0l-23 -23v0l12 -11v0l40 -40v0l11 -12v0l11 12v0l72 72v0l12 11v0z" />
    <glyph glyph-name="brackets-round" unicode="&#xe0c5;" 
d="M110 411l36 -54l-36 54l36 -54q-22 -13 -51 -55q-28 -43 -31 -110q3 -67 31 -110q29 -42 51 -55l-36 -54v0q-20 13 -45 43q-26 29 -45 74q-19 44 -20 102q1 58 20 102q19 45 45 74q25 30 45 43v0zM402 411q20 -13 45 -43v0v0q26 -29 45 -74v0v0q19 -44 20 -102
q-1 -58 -20 -102q-19 -45 -45 -74q-25 -30 -45 -43l-36 54v0q22 13 51 55q28 43 31 110q-3 67 -31 110q-29 42 -51 55l36 54v0z" />
    <glyph glyph-name="brain-circuit" unicode="&#xe0c6;" 
d="M240 392v56v-56v56h-56v0q-22 0 -38 -14q-15 -14 -18 -36q-21 -6 -34 -22q-14 -17 -14 -40q0 -9 2 -17q-22 -6 -36 -23t-14 -40t14 -40q-21 -10 -33 -29q-13 -19 -13 -43q0 -26 14 -46q15 -20 38 -29q-4 -10 -4 -21q1 -27 19 -45t45 -19q8 0 16 2q3 -22 18 -36
q16 -14 38 -14h56v0v56v0v184v0h-64v0v-51v0q30 -12 32 -45q-1 -20 -14 -34q-14 -13 -34 -14q-20 1 -34 14q-13 14 -14 34q2 33 32 45v67v0v16v0h16h80v80v0h-35v0q-12 -30 -45 -32q-20 1 -34 14q-13 14 -14 34q1 20 14 34q14 13 34 14q33 -2 45 -32h35v0v72v0zM272 288
v-192v192v-192h35v0q12 30 45 32q20 -1 34 -14q13 -14 14 -34q-1 -20 -14 -34q-14 -13 -34 -14q-33 2 -45 32h-35v0v-72v0v-56v0h56v0q22 0 38 14q15 14 18 36q8 -2 16 -2q27 1 45 19t19 45q0 11 -4 21q23 9 38 29q14 20 14 46q0 24 -13 43q-12 19 -33 29q14 17 14 40
t-14 40t-36 23q2 8 2 17q0 23 -14 40q-13 16 -34 22q-3 22 -18 36q-16 14 -38 14h-56v0v-56v0v-72v0h80h16v-16v0v-35v0q30 -12 32 -45q-1 -20 -14 -34q-14 -13 -34 -14q-20 1 -34 14q-13 14 -14 34q2 33 32 45v19v0h-64v0zM144 304q1 -15 16 -16q15 1 16 16q-1 15 -16 16
q-15 -1 -16 -16v0zM352 240q-15 -1 -16 -16q1 -15 16 -16q15 1 16 16q-1 15 -16 16v0zM144 80q1 -15 16 -16q15 1 16 16q-1 15 -16 16q-15 -1 -16 -16v0zM336 80q1 -15 16 -16q15 1 16 16q-1 15 -16 16q-15 -1 -16 -16v0z" />
    <glyph glyph-name="brake-warning" unicode="&#xe0c7;" horiz-adv-x="640" 
d="M96 192q1 61 30 112v0v0q30 51 82 82q53 30 112 30t112 -30q52 -31 82 -82q29 -51 30 -112q-1 -61 -30 -112q-30 -51 -82 -82q-53 -30 -112 -30t-112 30q-52 31 -82 82q-29 51 -30 112v0zM344 296v24v-24v24h-48v0v-24v0v-112v0v-24v0h48v0v24v0v112v0zM296 128v-48v48
v-48h48v0v48v0h-48v0zM91 339q-42 -65 -43 -147q1 -82 43 -147l13 -20v0l-40 -26v0l-13 20v0q-50 76 -51 173q1 97 51 173l13 20v0l40 -26v0l-13 -20v0zM589 365q50 -76 51 -173q-1 -97 -51 -173l-13 -20v0l-40 26v0l13 20v0q42 65 43 147q-1 82 -43 147l-13 20v0l40 26v0
l13 -20v0z" />
    <glyph glyph-name="briefcase-blank" unicode="&#xe0c8;" 
d="M152 448h-24h24h-24v-24v0v-72v0h-128v0v-384v0h512v0v384v0h-128v0v72v0v24v0h-24h-208zM336 352h-160h160h-160v48v0h160v0v-48v0z" />
    <glyph glyph-name="brightness" unicode="&#xe0c9;" 
d="M288 416v32v-32v32h-64v0v-32v0v-48v0v-32v0h64v0v32v0v48v0zM119 375l-23 22l23 -22l-23 22l-45 -45v0l22 -23v0l32 -32v0l23 -22v0l45 45v0l-22 23v0l-32 32v0zM439 329l22 23l-22 -23l22 23l-45 45v0l-23 -22v0l-32 -32v0l-22 -23v0l45 -45v0l23 22v0l32 32v0zM32 224
h-32h32h-32v-64v0h32h80v64v0h-32h-48zM480 224h-48h48h-80v-64v0h32h80v64v0h-32v0zM151 41l22 23l-22 -23l22 23l-45 45v0l-23 -22v0l-32 -32v0l-22 -23v0l45 -45v0l23 22v0l32 32v0zM407 87l-23 22l23 -22l-23 22l-45 -45v0l22 -23v0l32 -32v0l23 -22v0l45 45v0l-22 23v0
l-32 32v0zM288 -32v48v-48v48v32v0h-64v0v-32v0v-48v0v-32v0h64v0v32v0zM256 96q26 0 48 13v0v0q22 13 35 35q13 23 13 48t-13 48q-13 22 -35 35t-48 13t-48 -13t-35 -35q-13 -23 -13 -48t13 -48q13 -22 35 -35t48 -13v0z" />
    <glyph glyph-name="brightness-low" unicode="&#xe0ca;" 
d="M224 400v-64v64v-64h64v0v64v0h-64v0zM128 365l-45 -45l45 45l-45 -45l45 -45v0l45 45v0l-45 45v0zM48 224v-64v64v-64h64v0v64v0h-64v0zM173 64l-45 45l45 -45l-45 45l-45 -45v0l45 -45v0l45 45v0zM288 -16v64v-64v64h-64v0v-64v0h64v0zM339 64l45 -45l-45 45l45 -45
l45 45v0l-45 45v0l-45 -45v0zM464 224h-64h64h-64v-64v0h64v0v64v0zM429 320l-45 45l45 -45l-45 45l-45 -45v0l45 -45v0l45 45v0zM256 96q26 0 48 13v0v0q22 13 35 35q13 23 13 48t-13 48q-13 22 -35 35t-48 13t-48 -13t-35 -35q-13 -23 -13 -48t13 -48q13 -22 35 -35
t48 -13v0z" />
    <glyph glyph-name="browsers" unicode="&#xe0cb;" horiz-adv-x="576" 
d="M576 448h-480h480h-480v-416v0h480v0v416v0zM512 376v-48v48v-48h-256v0v48v0h256v0zM160 384h64h-64h64v-64v0h-64v0v64v0zM48 328v24v-24v24h-48v0v-24v0v-368v0v-24v0h24h456v48v0h-24h-408v344v0z" />
    <glyph glyph-name="buildings" unicode="&#xe0cc;" 
d="M512 448h-320h320h-320v-128v0h-192v0v-384v0h192h320v384v0v128v0zM64 160h64h-64h64v-64v0h-64v0v64v0zM320 128h-64h64h-64v64v0h64v0v-64v0zM384 128v64v-64v64h64v0v-64v0h-64v0zM128 256v-64v64v-64h-64v0v64v0h64v0zM256 384h64h-64h64v-64v0h-64v0v64v0zM448 384
v-64v64v-64h-64v0v64v0h64v0zM256 224v64v-64v64h64v0v-64v0h-64v0zM448 224h-64h64h-64v64v0h64v0v-64v0z" />
    <glyph glyph-name="burger-fries" unicode="&#xe0cd;" horiz-adv-x="640" 
d="M64 416l33 -189l-33 189l33 -189l21 -51v0h10v0v181v0l-16 91v0l-48 -32v0zM19 256h41h-41h41l-18 101v0l-42 11v0l19 -112v0zM384 368l-41 -10l41 10l-41 -10l-17 -102v0h7v0q16 9 35 16l16 96v0zM256 -64v208v-208v208h-160v0l-32 80v0h-64v0l64 -288v0h192v0zM256 176
h4h-4h4q3 8 8 15q4 8 12 18l10 25v0l30 182v0l-64 -16v0v-224v0zM160 176h64h-64h64v32v0v208v0l-64 32v0v-272v0zM640 160q1 2 -14 25v0v0q-14 23 -52 46v0v0q-39 23 -110 25q-71 -2 -110 -25q-38 -23 -52 -46q-15 -23 -14 -25v-32v0h352v0v32v0zM384 208q15 -1 16 -16
q-1 -14 -16 -16q-15 2 -16 16q1 15 16 16v0zM448 208q1 15 16 16q15 -1 16 -16q-1 -14 -16 -16q-15 2 -16 16v0zM544 208q15 -1 16 -16q-1 -14 -16 -16q-15 2 -16 16q1 15 16 16v0zM288 96v-64v64v-64h352v0v64v0h-352v0zM288 0v-64v64v-64h352v0v64v0h-352v0z" />
    <glyph glyph-name="burger-glass" unicode="&#xe0ce;" horiz-adv-x="640" 
d="M77 288l-8 96l8 -96l-8 96h246v0l-8 -96v0h-230v0zM40 -64h216h-216h216v229v0q4 14 12 26q9 18 32 41q26 24 70 41l9 111v0l5 64v0h-64h-320l5 -64v0l35 -448v0zM640 160q1 2 -14 25v0v0q-14 23 -52 46v0v0q-39 23 -110 25q-71 -2 -110 -25q-38 -23 -52 -46
q-15 -23 -14 -25v-32v0h352v0v32v0zM384 208q15 -1 16 -16q-1 -14 -16 -16q-15 2 -16 16q1 15 16 16v0zM448 208q1 15 16 16q15 -1 16 -16q-1 -14 -16 -16q-15 2 -16 16v0zM544 208q15 -1 16 -16q-1 -14 -16 -16q-15 2 -16 16q1 15 16 16v0zM288 96v-64v64v-64h352v0v64v0
h-352v0zM288 0v-64v64v-64h352v0v64v0h-352v0z" />
    <glyph glyph-name="calendar-arrow-down" unicode="&#xe0d0;" horiz-adv-x="448" 
d="M160 448v-64v64v-64h128v0v64v0h64v0v-64v0h96v0v-96v0h-448v0v96v0h96v0v64v0h64v0zM0 256h448h-448h448v-320v0h-448v0v320v0zM248 184v24v-24v24h-48v0v-24v0v-102v0l-39 39v0l-17 17v0l-34 -34v0l17 -17v0l80 -80v0l17 -17v0l17 17v0l80 80v0l17 17v0l-34 34v0
l-17 -17v0l-39 -39v0v102v0z" />
    <glyph glyph-name="calendar-arrow-up" unicode="&#xe0d1;" horiz-adv-x="448" 
d="M160 448v-64v64v-64h128v0v64v0h64v0v-64v0h96v0v-96v0h-448v0v96v0h96v0v64v0h64v0zM0 256h448h-448h448v-320v0h-448v0v320v0zM248 24v102v-102v102l39 -39v0l17 -17v0l34 34v0l-17 17v0l-80 80v0l-17 17v0l-17 -17v0l-80 -80v0l-17 -17v0l34 -34v0l17 17v0l39 39v0
v-102v0v-24v0h48v0v24v0z" />
    <glyph glyph-name="calendar-clock" unicode="&#xe0d2;" horiz-adv-x="576" 
d="M96 448v-64v64v-64h-96v0v-96v0h448v0v96v0h-96v0v64v0h-64v0v-64v0h-128v0v64v0h-64v0zM448 256h-16h16h-448v-320v0h331v0q-35 24 -55 62q-20 37 -20 82q2 75 52 124q49 50 124 52q8 0 16 -1v1v0zM576 80q0 39 -19 72v0v0q-19 33 -53 53q-34 19 -72 19t-72 -19
q-34 -20 -53 -53t-19 -72t19 -72t53 -53q34 -19 72 -19t72 19q34 20 53 53t19 72v0zM448 160v-16v16v-16v-48v0h32h16v-32v0h-16h-64v16v0v64v0v16v0h32v0z" />
    <glyph glyph-name="calendar-heart" unicode="&#xe0d3;" horiz-adv-x="448" 
d="M160 448v-64v64v-64h128v0v64v0h64v0v-64v0h96v0v-96v0h-448v0v96v0h96v0v64v0h64v0zM0 256h448h-448h448v-320v0h-448v0v320v0zM112 133q0 -25 18 -43l83 -80v0l11 -10v0l11 11v0l83 79v0q18 18 18 43q-1 25 -17 42q-17 16 -42 17h-2v0q-25 0 -43 -17l-8 -7v0l-8 7v0
q-18 17 -42 17h-3v0q-25 -1 -42 -17q-16 -17 -17 -42v0z" />
    <glyph glyph-name="calendar-image" unicode="&#xe0d4;" horiz-adv-x="448" 
d="M96 448v-64v64v-64h-96v0v-96v0h448v0v96v0h-96v0v64v0h-64v0v-64v0h-128v0v64v0h-64v0zM448 256h-448h448h-448v-320v0h448v0v320v0zM160 104l24 -32l-24 32l24 -32l72 104v0l112 -176v0h-288v0l80 104v0zM128 192q14 0 23 -9v0v0q9 -9 9 -23t-9 -23t-23 -9t-23 9t-9 23
t9 23t23 9v0z" />
    <glyph glyph-name="calendar-lines" unicode="&#xe0d5;" horiz-adv-x="448" 
d="M96 448v-64v64v-64h-96v0v-96v0h448v0v96v0h-96v0v64v0h-64v0v-64v0h-128v0v64v0h-64v0zM448 256h-448h448h-448v-320v0h448v0v320v0zM96 176h256h-256h256v-48v0h-256v0v48v0zM256 80v-48v48v-48h-160v0v48v0h160v0z" />
    <glyph glyph-name="calendar-range" unicode="&#xe0d6;" horiz-adv-x="448" 
d="M96 448v-64v64v-64h-96v0v-96v0h448v0v96v0h-96v0v64v0h-64v0v-64v0h-128v0v64v0h-64v0zM448 256h-448h448h-448v-320v0h448v0v320v0zM128 192v-64v64v-64h-64v0v64v0h64v0zM320 0v64v-64v64h64v0v-64v0h-64v0zM384 184v-48v48v-48h-192v0v48v0h192v0zM64 56h192h-192
h192v-48v0h-192v0v48v0z" />
    <glyph glyph-name="calendars" unicode="&#xe0d7;" 
d="M256 448h-64h64h-64v-64v0h-96v0v-96v0h416v0v96v0h-96v0v64v0h-64v0v-64v0h-96v0v64v0zM96 256v-224v224v-224h416v0v224v0h-416v0zM0 288v-328v328v-328v-24v0h24h392v48v0h-368v0v304v0h-48v0z" />
    <glyph glyph-name="camera-rotate" unicode="&#xe0d8;" horiz-adv-x="640" 
d="M224 416l-21 -64l21 64l-21 -64h-139v0v-384v0h512v0v384v0h-139v0l-21 64v0h-192v0zM448 176h-88h88h-88l-16 16v0l27 27v0q-21 21 -51 21t-51 -21l-20 -20v0l-34 34v0l20 20v0q35 34 85 35q49 -1 85 -35l27 27v0l16 -16v0v-88v0zM192 144h88h-88h88l16 -16v0l-27 -27v0
q21 -21 51 -21t51 21l20 20v0l34 -34v0l-20 -20v0q-35 -34 -85 -35q-49 1 -85 35l-27 -27v0l-16 16v0v88v0z" />
    <glyph glyph-name="camera-slash" unicode="&#xe0d9;" horiz-adv-x="640" 
d="M48 433l-19 15l19 -15l-19 15l-29 -38v0l19 -15v0l573 -444v0l19 -15v0l29 38v0l-19 15v0l-45 35v0v328v0h-139v0l-21 64v0h-192v0l-21 -64v0h-50v0l-105 81v0zM285 249q16 7 35 7q41 -1 68 -28t28 -68q0 -6 -1 -12l-130 101v0zM224 160q0 8 1 15l-161 127v0v-334v0h423
v0l-131 103v0q-17 -7 -36 -7q-41 1 -68 28t-28 68v0z" />
    <glyph glyph-name="camera-viewfinder" unicode="&#xe0da;" 
d="M0 448v-24v24v-24v-112v0v-24v0h48v0v24v0v88v0h88h24v48v0h-24h-136zM192 352l-12 -32l12 32l-12 -32h-84v0v-256v0h320v0v256v0h-84v0l-12 32v0h-128v0zM256 256q36 -1 55 -32q18 -32 0 -64q-19 -31 -55 -32q-36 1 -55 32q-18 32 0 64q19 31 55 32v0zM488 448h-112h112
h-136v-48v0h24h88v-88v0v-24v0h48v0v24v0v112v0v24v0h-24v0zM0 -64h24h-24h160v48v0h-24h-88v88v0v24v0h-48v0v-24v0v-112v0v-24v0zM488 -64h24h-24h24v24v0v112v0v24v0h-48v0v-24v0v-88v0h-88h-24v-48v0h24h112z" />
    <glyph glyph-name="cart-minus" unicode="&#xe0db;" horiz-adv-x="576" 
d="M0 448h24h-24h116l4 -20v0l2 -12v0h454v0l-80 -256v0h-325v0l9 -48v0h308h24v-48v0h-24h-348l-4 19v0l-60 317v0h-52h-24v48v0zM128 -16q1 27 24 42q24 12 48 0q23 -15 24 -42q-1 -27 -24 -42q-24 -12 -48 0q-23 15 -24 42v0zM464 32q27 -1 42 -24q12 -24 0 -48
q-15 -23 -42 -24q-27 1 -42 24q-12 24 0 48q15 23 42 24v0zM256 276h160h-160h160v40v0h-160v0v-40v0z" />
    <glyph glyph-name="cart-shopping-fast" unicode="&#xe0dc;" horiz-adv-x="640" 
d="M64 448h24h-24h116l4 -20v0l2 -12v0h454v0l-80 -256v0h-325v0l9 -48v0h308h24v-48v0h-24h-348l-4 19v0l-60 317v0h-52h-24v48v0zM192 -16q1 27 24 42q24 12 48 0q23 -15 24 -42q-1 -27 -24 -42q-24 -12 -48 0q-23 15 -24 42v0zM528 32q27 -1 42 -24q12 -24 0 -48
q-15 -23 -42 -24q-27 1 -42 24q-12 24 0 48q15 23 42 24v0zM0 304v48v-48v48h112v0v-48v0h-112v0zM0 224v48v-48v48h128v0v-48v0h-128v0zM0 144v48v-48v48h144v0v-48v0h-144v0z" />
    <glyph glyph-name="cart-xmark" unicode="&#xe0dd;" horiz-adv-x="576" 
d="M0 448h24h-24h116l4 -20v0l2 -12v0h454v0l-80 -256v0h-325v0l9 -48v0h308h24v-48v0h-24h-348l-4 19v0l-60 317v0h-52h-24v48v0zM128 -16q1 27 24 42q24 12 48 0q23 -15 24 -42q-1 -27 -24 -42q-24 -12 -48 0q-23 15 -24 42v0zM464 32q27 -1 42 -24q12 -24 0 -48
q-15 -23 -42 -24q-27 1 -42 24q-12 24 0 48q15 23 42 24v0zM378 359l-42 -43l42 43l-42 -43l-42 43v0l-29 -29v0l43 -42v0l-43 -42v0l29 -29v0l42 43v0l42 -43v0l29 29v0l-43 42v0l43 42v0l-29 29v0z" />
    <glyph glyph-name="castle" unicode="&#xe0de;" horiz-adv-x="640" 
d="M128 448h64h-64h64v-64v0h48v0v64v0h64v0v-64v0h32v0v64v0h64v0v-64v0h48v0v64v0h64v0v-112v0v-112v0h64v0v64v0h64v0v-64v0v-64v0v-224v0h-256v0v128v0q-1 27 -19 45t-45 19q-27 -1 -45 -19t-19 -45v-128v0h-256v0v224v0v64v0v64v0h64v0v-64v0h64v0v112v0v112v0z" />
    <glyph glyph-name="cedi-sign" unicode="&#xe0df;" horiz-adv-x="384" 
d="M256 416v32v-32v32h-64v0v-32v0v-35v0q-70 -13 -114 -64q-45 -52 -46 -125q1 -73 46 -125q44 -51 114 -64v-35v0v-32v0h64v0v32v0v35v0q76 14 122 74l-52 38v0q-26 -35 -70 -47v248v0q44 -12 70 -47l52 38v0q-46 60 -122 74v35v0zM192 316v-248v248v-248q-42 11 -69 45
q-26 33 -27 79q1 46 27 79q27 34 69 45v0z" />
    <glyph glyph-name="chart-bullet" unicode="&#xe0e1;" 
d="M288 416v-24v24v-24v-8v0h160h64v-64v0v-32v0v-64v0h-64h-160v-8v0v-24v0h-48v0v24v0v8v0h-176h-64v64v0v32v0v64v0h64h176v8v0v24v0h48v0zM160 320v-32v32v-32h80v0v32v0h-80v0zM288 320v-32v32v-32h160v0v32v0h-160v0zM336 96h-80h80h-80v-32v0h80v0v32v0zM336 160v8
v-8v8v24v0h48v0v-24v0v-8v0h64h64v-64v0v-32v0v-64v0h-64h-64v-8v0v-24v0h-48v0v24v0v8v0h-272h-64v64v0v32v0v64v0h64h272zM384 96v-32v32v-32h64v0v32v0h-64v0z" />
    <glyph glyph-name="chart-candlestick" unicode="&#xe0e2;" 
d="M64 384v32v-32v32h-64v0v-32v0v-384v0v-32v0h32h480v64v0h-32h-416v352v0zM320 400v16v-16v16h-32v0v-16v0v-48v0h-32v0v-160v0h32v0v-48v0v-16v0h32v0v16v0v48v0h32v0v160v0h-32v0v48v0zM384 256v-128v128v-128h32v0v-48v0v-16v0h32v0v16v0v48v0h32v0v128v0h-32v0v48v0
v16v0h-32v0v-16v0v-48v0h-32v0zM224 320h-32h32h-32v48v0v16v0h-32v0v-16v0v-48v0h-32v0v-192v0h32v0v-48v0v-16v0h32v0v16v0v48v0h32v0v192v0z" />
    <glyph glyph-name="chart-column" unicode="&#xe0e3;" 
d="M64 416v-32v32v-32v-352v0h416h32v-64v0h-32h-480v32v0v384v0v32v0h64v0zM192 224v-32v32v-32v-64v0v-32v0h-64v0v32v0v64v0v32v0h64v0zM288 288v-160v160v-160v-32v0h-64v0v32v0v160v0v32v0h64v0v-32v0zM384 256v-32v32v-32v-96v0v-32v0h-64v0v32v0v96v0v32v0h64v0z
M480 352v-224v224v-224v-32v0h-64v0v32v0v224v0v32v0h64v0v-32v0z" />
    <glyph glyph-name="chart-gantt" unicode="&#xe0e4;" 
d="M64 416v-32v32v-32v-352v0h416h32v-64v0h-32h-480v32v0v384v0v32v0h64v0zM128 352h32h-32h160v-64v0h-32h-128v64v0zM224 256h128h-128h160v-64v0h-32h-160v64v0h32v0zM384 160h64h-64h96v-64v0h-32h-96v64v0h32v0z" />
    <glyph glyph-name="chart-line-up" unicode="&#xe0e5;" 
d="M64 384v32v-32v32h-64v0v-32v0v-384v0v-32v0h32h480v64v0h-32h-416v352v0zM352 320l-32 -32l32 32l-32 -32l41 -41v0l-57 -58v0l-73 74v0l-23 22v0l-23 -22v0l-80 -80v0l46 -46v0l57 58v0l73 -74v0l23 -22v0l23 22v0l80 80v0l41 -41v0l32 32v0v128v0h-128v0z" />
    <glyph glyph-name="chart-pyramid" unicode="&#xe0e6;" 
d="M91 128h330h-330h330l-74 128v0h-182v0l-74 -128v0zM73 96l-73 -128l73 128l-73 -128h512v0l-73 128v0h-366v0zM256 416l-73 -128l73 128l-73 -128h146v0l-73 128v0z" />
    <glyph glyph-name="chart-radar" unicode="&#xe0e7;" 
d="M74 192l91 160l-91 -160l91 160h182v0l91 -160v0l-91 -160v0h-182v0l-91 160v0zM128 416l-128 -224l128 224l-128 -224l128 -224v0h256v0l128 224v0l-128 224v0h-256v0zM290 267q6 9 6 21q0 17 -12 28q-11 12 -28 12t-28 -12q-12 -11 -12 -28q0 -6 2 -11l-58 -77v0
q-17 0 -28 -12q-12 -11 -12 -28t12 -28q11 -12 28 -12q16 0 27 10l97 -19v0q11 -22 36 -23q17 1 28 12q12 11 12 28q-2 30 -30 39l-40 100v0zM202 176l48 63l-48 -63l48 63l31 -79v0l-79 16v0z" />
    <glyph glyph-name="chart-scatter-3d" unicode="&#xe0e8;" 
d="M64 416h-64h64h-64v-64v0h64v0v64v0zM288 384v32v-32v32h-64v0v-32v0v-209v0l-180 -150v0l-25 -21v0l41 -49v0l25 20v0l171 143v0l172 -143v0l24 -20v0l41 49v0l-24 21v0l-181 150v0v209v0zM0 224v-64v64v-64h64v0v64v0h-64v0zM160 320h-64h64h-64v-64v0h64v0v64v0z
M352 416v-64v64v-64h64v0v64v0h-64v0zM512 320h-64h64h-64v-64v0h64v0v64v0zM352 224v-64v64v-64h64v0v64v0h-64v0zM288 32h-64h64h-64v-64v0h64v0v64v0z" />
    <glyph glyph-name="chart-scatter-bubble" unicode="&#xe0e9;" 
d="M64 416v-32v32v-32v-352v0h416h32v-64v0h-32h-480v32v0v384v0v32v0h64v0zM128 144q1 27 24 42q24 12 48 0q23 -15 24 -42q-1 -27 -24 -42q-24 -12 -48 0q-23 15 -24 42v0zM352 224q36 -1 55 -32q18 -32 0 -64q-19 -31 -55 -32q-36 1 -55 32q-18 32 0 64q19 31 55 32v0z
M192 272q1 27 24 42q24 12 48 0q23 -15 24 -42q-1 -27 -24 -42q-24 -12 -48 0q-23 15 -24 42v0zM384 384q36 -1 55 -32q18 -32 0 -64q-19 -31 -55 -32q-36 1 -55 32q-18 32 0 64q19 31 55 32v0z" />
    <glyph glyph-name="chart-tree-map" unicode="&#xe0ea;" 
d="M0 416h224h-224h224v-208v0h-224v0v208v0zM0 176h224h-224h224v-208v0h-224v0v208v0zM512 416v-128v128v-128h-256v0v128v0h256v0zM256 256h256h-256h256v-128v0h-256v0v128v0zM512 96v-128v128v-128h-256v0v128v0h256v0z" />
    <glyph glyph-name="chart-waterfall" unicode="&#xe0eb;" 
d="M64 416v-32v32v-32v-352v0h416h32v-64v0h-32h-480v32v0v384v0v32v0h64v0zM192 224v-32v32v-32v-64v0v-32v0h-64v0v32v0v64v0v32v0h64v0zM288 288v-64v64v-64v-32v0h-64v0v32v0v64v0v32v0h64v0v-32v0zM384 384v-32v32v-32v-64v0v-32v0h-64v0v32v0v64v0v32v0h64v0zM480 352
v-224v224v-224v-32v0h-64v0v32v0v224v0v32v0h64v0v-32v0z" />
    <glyph glyph-name="cherries" unicode="&#xe0ec;" horiz-adv-x="640" 
d="M288 408l13 20l-13 -20l13 20l-32 20v0l-5 -37v0v0v0v0v0v0v0v0v0v0v0v-1v0v-3l-1 -1q-1 -5 -2 -13q-4 -19 -16 -51q-19 -60 -76 -136q-26 15 -73 18q-2 1 -25 -4t-46 -29t-25 -79q2 -71 39 -110q37 -38 82 -52q45 -15 71 -14q26 -1 71 10t82 49t39 117q-2 55 -25 79
t-46 29t-25 4q-31 -1 -53 -10q39 63 56 112q8 23 13 41q18 -14 41 -38q22 -23 41 -53q20 -30 31 -66q-18 8 -44 12q19 -16 31 -43t12 -67q-1 -54 -18 -91q-17 -38 -44 -62q28 -13 53 -18t41 -5q26 -1 71 10t82 49t39 117q-2 55 -25 79t-46 29t-25 4q-24 0 -44 -6
q-19 -6 -32 -14q-12 51 -37 91q-24 40 -52 68q-31 31 -54 48q-11 8 -17 13q-3 1 -4 2l-1 1l-1 1h-1v0v0v0v0v0v0l-13 -20v0z" />
    <glyph glyph-name="circle-0" unicode="&#xe0ed;" 
d="M256 -64q70 1 128 34v0v0q58 34 94 94q34 61 34 128t-34 128q-36 60 -94 94q-58 33 -128 34q-70 -1 -128 -34q-58 -34 -94 -94q-34 -61 -34 -128t34 -128q36 -60 94 -94q58 -33 128 -34v0zM256 320q41 -1 68 -28v0v0q27 -27 28 -68v-64v0q-1 -41 -28 -68t-68 -28
q-41 1 -68 28t-28 68v64v0q1 41 28 68t68 28v0zM208 224v-64v64v-64q1 -20 14 -34q14 -13 34 -14q20 1 34 14q13 14 14 34v64v0q-1 20 -14 34q-14 13 -34 14q-20 -1 -34 -14q-13 -14 -14 -34v0z" />
    <glyph glyph-name="circle-1" unicode="&#xe0ee;" 
d="M0 192q1 70 34 128v0v0q34 58 94 94q61 34 128 34t128 -34q60 -36 94 -94q33 -58 34 -128q-1 -70 -34 -128q-34 -58 -94 -94q-61 -34 -128 -34t-128 34q-60 36 -94 94q-33 58 -34 128v0zM176 112v-48v48v-48h24h136v48v0h-24h-32v184v0v24v0h-24h-14l-6 -3v0l-60 -34v0
v-54v0l12 6v0l44 25v0v-148v0h-32h-24z" />
    <glyph glyph-name="circle-2" unicode="&#xe0ef;" 
d="M256 -64q70 1 128 34v0v0q58 34 94 94q34 61 34 128t-34 128q-36 60 -94 94q-58 33 -128 34q-70 -1 -128 -34q-58 -34 -94 -94q-34 -61 -34 -128t34 -128q36 -60 94 -94q58 -33 128 -34v0zM194 301q24 19 55 19l3 -1v0q36 -1 60 -25q23 -24 24 -60q-1 -36 -27 -62
l-64 -60v0h83h24v-48v0h-24h-168v34v0l8 7v0l108 102v0q12 11 12 27t-11 27q-10 10 -26 11h-3v0q-14 0 -25 -9l-16 -12v0l-20 -15v0l-29 39v0l19 14v0l17 12v0z" />
    <glyph glyph-name="circle-3" unicode="&#xe0f0;" 
d="M256 -64q70 1 128 34v0v0q58 34 94 94q34 61 34 128t-34 128q-36 60 -94 94q-58 33 -128 34q-70 -1 -128 -34q-58 -34 -94 -94q-34 -61 -34 -128t34 -128q36 -60 94 -94q58 -33 128 -34v0zM312 320h24h-24h24v-35v0l-8 -7v0l-51 -46v0q33 -5 53 -28q21 -23 22 -56
q-1 -36 -25 -59q-23 -24 -59 -25h-25v0q-25 0 -45 13q-20 12 -31 34l-5 8v0l43 22v0l5 -9v0q10 -19 33 -20h25v0q15 0 25 11q11 10 11 25q0 16 -11 26q-10 10 -25 11l-52 -1v0h-24v0v35v0l8 7v0l50 46v0h-66h-24v48v0h24h128z" />
    <glyph glyph-name="circle-4" unicode="&#xe0f1;" 
d="M0 192q1 70 34 128v0v0q34 58 94 94q61 34 128 34t128 -34q60 -36 94 -94q33 -58 34 -128q-1 -70 -34 -128q-34 -58 -94 -94q-61 -34 -128 -34t-128 34q-60 36 -94 94q-33 58 -34 128v0zM320 256h-48h48h-48v-24v0v-56v0h-64v0l40 144v0h-50v0l-45 -162v0l-9 -30v0h32h96
v-40v0v-24v0h48v0v24v0v40v0h8h24v48v0h-24h-8v56v0v24v0z" />
    <glyph glyph-name="circle-5" unicode="&#xe0f2;" 
d="M256 -64q70 1 128 34v0v0q58 34 94 94q34 61 34 128t-34 128q-36 60 -94 94q-58 33 -128 34q-70 -1 -128 -34q-58 -34 -94 -94q-34 -61 -34 -128t34 -128q36 -60 94 -94q58 -33 128 -34v0zM208 320h104h-104h128v-48v0h-24h-82l-4 -43v0l56 -7v0q31 -4 50 -26t20 -53
q-1 -33 -23 -56q-23 -22 -56 -23h-33v0q-48 2 -72 43l-5 10v0l42 22v0l6 -10v0q9 -16 29 -17h33v0q13 0 22 9t9 23q-2 26 -28 31l-79 9v0l-23 3v0l2 23v0l8 88v0l2 22v0h22v0z" />
    <glyph glyph-name="circle-6" unicode="&#xe0f3;" 
d="M0 192q1 70 34 128v0v0q34 58 94 94q61 34 128 34t128 -34q60 -36 94 -94q33 -58 34 -128q-1 -70 -34 -128q-34 -58 -94 -94q-61 -34 -128 -34t-128 34q-60 36 -94 94q-33 58 -34 128v0zM256 208q27 -1 42 -24q12 -24 0 -48q-15 -23 -42 -24q-27 1 -42 24q-12 24 0 48
q15 23 42 24v0zM160 160q1 -41 28 -68v0v0q27 -27 68 -28q41 1 68 28t28 68q-1 38 -24 64q-24 26 -61 31l45 49v0l15 16v0h-65v0l-69 -74v0q-32 -37 -33 -86v0z" />
    <glyph glyph-name="circle-7" unicode="&#xe0f4;" 
d="M256 -64q70 1 128 34v0v0q58 34 94 94q34 61 34 128t-34 128q-36 60 -94 94q-58 33 -128 34q-70 -1 -128 -34q-58 -34 -94 -94q-34 -61 -34 -128t34 -128q36 -60 94 -94q58 -33 128 -34v0zM328 320h24h-24h24v-29v0l-2 -5v0l-104 -222v0h-53v0l3 8v0l94 200v0h-106h-24
v48v0h24h144z" />
    <glyph glyph-name="circle-8" unicode="&#xe0f5;" 
d="M0 192q1 70 34 128v0v0q34 58 94 94q61 34 128 34t128 -34q60 -36 94 -94q33 -58 34 -128q-1 -70 -34 -128q-34 -58 -94 -94q-61 -34 -128 -34t-128 34q-60 36 -94 94q-33 58 -34 128v0zM264 320h-16h16h-16q-31 -1 -51 -21t-21 -51q0 -24 14 -42q-29 -23 -30 -62
q1 -34 23 -57q23 -22 57 -23h32v0q34 1 57 23q22 23 23 57q-1 39 -29 62q13 18 13 42q-1 31 -21 51t-51 21v0zM248 224q-22 2 -24 24q2 22 24 24h16v0q22 -2 24 -24q-2 -22 -24 -24v0v0h-16v0v0v0v0zM264 176h8h-8h8q14 0 23 -9t9 -23t-9 -23t-23 -9h-32v0q-14 0 -23 9
t-9 23t9 23t23 9h8h16z" />
    <glyph glyph-name="circle-9" unicode="&#xe0f6;" 
d="M0 192q1 70 34 128v0v0q34 58 94 94q61 34 128 34t128 -34q60 -36 94 -94q33 -58 34 -128q-1 -70 -34 -128q-34 -58 -94 -94q-61 -34 -128 -34t-128 34q-60 36 -94 94q-33 58 -34 128v0zM256 176q-27 1 -42 24q-12 24 0 48q15 23 42 24q27 -1 42 -24q12 -24 0 -48
q-15 -23 -42 -24v0zM352 224q-1 41 -28 68v0v0q-27 27 -68 28q-41 -1 -68 -28t-28 -68q1 -38 24 -64q24 -26 61 -31l-45 -49v0l-15 -16v0h66v0l68 74v0q32 37 33 86v0z" />
    <glyph glyph-name="circle-a" unicode="&#xe0f7;" 
d="M256 -64q70 1 128 34v0v0q58 34 94 94q34 61 34 128t-34 128q-36 60 -94 94q-58 33 -128 34q-70 -1 -128 -34q-58 -34 -94 -94q-34 -61 -34 -128t34 -128q36 -60 94 -94q58 -33 128 -34v0zM234 322l7 14l-7 -14l7 14h30v0l7 -14v0l113 -242v0h-53v0l-22 48v0h-120v0
l-22 -48v0h-53v0l113 242v0zM256 255l-37 -79l37 79l-37 -79h74v0l-37 79v0z" />
    <glyph glyph-name="circle-ampersand" unicode="&#xe0f8;" 
d="M256 -64q70 1 128 34v0v0q58 34 94 94q34 61 34 128t-34 128q-36 60 -94 94q-58 33 -128 34q-70 -1 -128 -34q-58 -34 -94 -94q-34 -61 -34 -128t34 -128q36 -60 94 -94q58 -33 128 -34v0zM168 320h24h-24h144v-24v0v-36v0q-1 -32 -26 -51l-18 -13v0l28 -30v0l28 40v0
l14 19v0l39 -27v0l-13 -20v0l-34 -48v0l61 -63v0q1 -2 2 -3v0h-66v0l-24 26v0l-11 -16v0l-7 -10v0h-13h-128v24v0v40v0q1 36 29 58l22 16v0l-7 8v0q-20 21 -20 49v37v0v24v0zM234 230l24 17l-24 -17l24 17q6 5 6 13v12v0h-48v0v-13v0q0 -9 7 -16l11 -13v0zM229 167l-27 -20
l27 20l-27 -20q-10 -7 -10 -19v-16v0h67v0l10 13v0l-40 42v0z" />
    <glyph glyph-name="circle-arrow-down-left" unicode="&#xe0f9;" 
d="M256 -64q-70 1 -128 34v0v0q-58 34 -94 94q-34 61 -34 128t34 128q36 60 94 94q58 33 128 34q70 -1 128 -34q58 -34 94 -94q34 -61 34 -128t-34 -128q-36 -60 -94 -94q-58 -33 -128 -34v0zM168 80h152h-152h176v48v0h-24h-94l135 135v0l17 17v0l-34 34v0l-17 -17v0
l-135 -135v0v102v0v24v0h-48v0v-24v0v-160v0v-24v0h24v0z" />
    <glyph glyph-name="circle-arrow-down-right" unicode="&#xe0fa;" 
d="M256 448q-70 -1 -128 -34v0v0q-58 -34 -94 -94q-34 -61 -34 -128t34 -128q36 -60 94 -94q58 -33 128 -34q70 1 128 34q58 34 94 94q34 61 34 128t-34 128q-36 60 -94 94q-58 33 -128 34v0zM344 80h-152h152h-176v48v0h24h94l-135 135v0l-17 17v0l34 34v0l17 -17v0
l135 -135v0v102v0v24v0h48v0v-24v0v-160v0v-24v0h-24v0z" />
    <glyph glyph-name="circle-arrow-up-left" unicode="&#xe0fb;" 
d="M256 -64q70 1 128 34v0v0q58 34 94 94q34 61 34 128t-34 128q-36 60 -94 94q-58 33 -128 34q-70 -1 -128 -34q-58 -34 -94 -94q-34 -61 -34 -128t34 -128q36 -60 94 -94q58 -33 128 -34v0zM168 304h152h-152h176v-48v0h-24h-94l135 -135v0l17 -17v0l-34 -34v0l-17 17v0
l-135 135v0v-102v0v-24v0h-48v0v24v0v160v0v24v0h24v0z" />
    <glyph glyph-name="circle-arrow-up-right" unicode="&#xe0fc;" 
d="M256 448q70 -1 128 -34v0v0q58 -34 94 -94q34 -61 34 -128t-34 -128q-36 -60 -94 -94q-58 -33 -128 -34q-70 1 -128 34q-58 34 -94 94q-34 61 -34 128t34 128q36 60 94 94q58 33 128 34v0zM344 304h-152h152h-176v-48v0h24h94l-135 -135v0l-17 -17v0l34 -34v0l17 17v0
l135 135v0v-102v0v-24v0h48v0v24v0v160v0v24v0h-24v0z" />
    <glyph glyph-name="circle-b" unicode="&#xe0fd;" 
d="M256 -64q70 1 128 34v0v0q58 34 94 94q34 61 34 128t-34 128q-36 60 -94 94q-58 33 -128 34q-70 -1 -128 -34q-58 -34 -94 -94q-34 -61 -34 -128t34 -128q36 -60 94 -94q58 -33 128 -34v0zM160 320h24h-24h116q32 -1 54 -22q21 -22 22 -54q0 -25 -14 -44q29 -22 30 -60
q-1 -32 -22 -54q-22 -21 -54 -22h-108h-24v24v0v80v0v24v0v24v0v80v0v24v0zM304 244q0 12 -8 20v0v0q-8 8 -20 8h-68v0v-56v0h68v0q12 0 20 8t8 20v0zM208 112h84h-84h84q12 0 20 8t8 20t-8 20t-20 8h-16h-68v-56v0z" />
    <glyph glyph-name="circle-bolt" unicode="&#xe0fe;" 
d="M256 -64q70 1 128 34v0v0q58 34 94 94q34 61 34 128t-34 128q-36 60 -94 94q-58 33 -128 34q-70 -1 -128 -34q-58 -34 -94 -94q-34 -61 -34 -128t34 -128q36 -60 94 -94q58 -33 128 -34v0zM232 176h-88h88h-88v24v0l176 136v0l-40 -128v0h88v0v-24v0l-176 -136v0l40 128
v0z" />
    <glyph glyph-name="circle-book-open" unicode="&#xe0ff;" 
d="M256 -64q70 1 128 34v0v0q58 34 94 94q34 61 34 128t-34 128q-36 60 -94 94q-58 33 -128 34q-70 -1 -128 -34q-58 -34 -94 -94q-34 -61 -34 -128t34 -128q36 -60 94 -94q58 -33 128 -34v0zM184 112q-22 -1 -38 -8v0v0q-17 -7 -18 -8v176v0q1 1 18 8q16 7 38 8
q22 -1 38 -8q17 -7 18 -8v-176v0q-1 1 -18 8q-16 7 -38 8v0zM328 112q-22 -1 -38 -8v0v0q-17 -7 -18 -8v176v0q1 1 18 8q16 7 38 8q22 -1 38 -8q17 -7 18 -8v-176v0q-1 1 -18 8q-16 7 -38 8v0z" />
    <glyph glyph-name="circle-bookmark" unicode="&#xe100;" 
d="M256 -64q70 1 128 34v0v0q58 34 94 94q34 61 34 128t-34 128q-36 60 -94 94q-58 33 -128 34q-70 -1 -128 -34q-58 -34 -94 -94q-34 -61 -34 -128t34 -128q36 -60 94 -94q58 -33 128 -34v0zM160 64v256v-256v256h192v0v-256v0l-96 64v0l-96 -64v0z" />
    <glyph glyph-name="circle-c" unicode="&#xe101;" 
d="M256 -64q70 1 128 34v0v0q58 34 94 94q34 61 34 128t-34 128q-36 60 -94 94q-58 33 -128 34q-70 -1 -128 -34q-58 -34 -94 -94q-34 -61 -34 -128t34 -128q36 -60 94 -94q58 -33 128 -34v0zM176 192q1 -34 23 -57v0v0q23 -22 57 -23q45 2 68 38l41 -26v0q-18 -27 -46 -43
q-28 -17 -63 -17q-54 1 -91 37q-36 37 -37 91q1 54 37 91q37 36 91 37q35 0 63 -17q28 -16 46 -44l-41 -25v0q-23 36 -68 38q-34 -1 -57 -23q-22 -23 -23 -57v0z" />
    <glyph glyph-name="circle-calendar" unicode="&#xe102;" 
d="M256 -64q70 1 128 34v0v0q58 34 94 94q34 61 34 128t-34 128q-36 60 -94 94q-58 33 -128 34q-70 -1 -128 -34q-58 -34 -94 -94q-34 -61 -34 -128t34 -128q36 -60 94 -94q58 -33 128 -34v0zM224 352v-32v32v-32h64v0v32v0h32v0v-32v0h64v0v-64v0h-256v0v64v0h64v0v32v0h32
v0zM128 64v160v-160v160h256v0v-160v0h-256v0z" />
    <glyph glyph-name="circle-camera" unicode="&#xe103;" 
d="M256 -64q70 1 128 34v0v0q58 34 94 94q34 61 34 128t-34 128q-36 60 -94 94q-58 33 -128 34q-70 -1 -128 -34q-58 -34 -94 -94q-34 -61 -34 -128t34 -128q36 -60 94 -94q58 -33 128 -34v0zM196 288l12 32l-12 -32l12 32h96v0l12 -32v0h68v0v-192v0h-256v0v192v0h68v0z
M304 192q-1 27 -24 42q-24 12 -48 0q-23 -15 -24 -42q1 -27 24 -42q24 -12 48 0q23 15 24 42v0z" />
    <glyph glyph-name="circle-d" unicode="&#xe104;" 
d="M256 -64q70 1 128 34v0v0q58 34 94 94q34 61 34 128t-34 128q-36 60 -94 94q-58 33 -128 34q-70 -1 -128 -34q-58 -34 -94 -94q-34 -61 -34 -128t34 -128q36 -60 94 -94q58 -33 128 -34v0zM184 320h72h-72h72q54 -1 91 -37q36 -37 37 -91q-1 -54 -37 -91q-37 -36 -91 -37
h-72h-24v24v0v208v0v24v0h24v0zM256 112q34 1 57 23v0v0q22 23 23 57q-1 34 -23 57q-23 22 -57 23h-48v0v-160v0h48v0z" />
    <glyph glyph-name="circle-dashed" unicode="&#xe105;" 
d="M1 208h64h-64h64q6 62 44 108l-45 45v0q-56 -63 -63 -153v0zM132 339q46 38 108 44v64v0q-90 -7 -153 -63l45 -45v0zM272 1v-65v65v-65q90 7 153 64l-45 45v0q-45 -38 -108 -44v0zM403 68l45 -45l-45 45l45 -45q56 63 64 153h-65v0q-6 -62 -44 -108v0zM87 0
q63 -56 153 -64v65v0q-62 6 -108 44l-45 -45v0zM64 23l45 45l-45 -45l45 45q-38 46 -44 108h-64v0q7 -90 63 -153v0zM425 384q-63 56 -153 63v-64v0q62 -6 108 -44l45 45v0zM448 361l-45 -45l45 45l-45 -45q38 -45 44 -108h65v0q-8 90 -64 153v0z" />
    <glyph glyph-name="circle-divide" unicode="&#xe106;" 
d="M256 -64q70 1 128 34v0v0q58 34 94 94q34 61 34 128t-34 128q-36 60 -94 94q-58 33 -128 34q-70 -1 -128 -34q-58 -34 -94 -94q-34 -61 -34 -128t34 -128q36 -60 94 -94q58 -33 128 -34v0zM288 256h-64h64h-64v64v0h64v0v-64v0zM168 216h176h-176h200v-48v0h-24h-200v48
v0h24v0zM224 64v64v-64v64h64v0v-64v0h-64v0z" />
    <glyph glyph-name="circle-down-left" unicode="&#xe107;" 
d="M256 -64q-70 1 -128 34v0v0q-58 34 -94 94q-34 61 -34 128t34 128q36 60 94 94q58 33 128 34q70 -1 128 -34q58 -34 94 -94q34 -61 34 -128t-34 -128q-36 -60 -94 -94q-58 -33 -128 -34v0zM160 256v-160v160v-160h160v0l24 24v0l-52 52v0l76 76v0l-56 56v0l-76 -76v0
l-52 52v0l-24 -24v0z" />
    <glyph glyph-name="circle-down-right" unicode="&#xe108;" 
d="M256 448q-70 -1 -128 -34v0v0q-58 -34 -94 -94q-34 -61 -34 -128t34 -128q36 -60 94 -94q58 -33 128 -34q70 1 128 34q58 34 94 94q34 61 34 128t-34 128q-36 60 -94 94q-58 33 -128 34v0zM352 256v-160v160v-160h-160v0l-24 24v0l52 52v0l-76 76v0l56 56v0l76 -76v0
l52 52v0l24 -24v0z" />
    <glyph glyph-name="circle-e" unicode="&#xe109;" 
d="M256 -64q70 1 128 34v0v0q58 34 94 94q34 61 34 128t-34 128q-36 60 -94 94q-58 33 -128 34q-70 -1 -128 -34q-58 -34 -94 -94q-34 -61 -34 -128t34 -128q36 -60 94 -94q58 -33 128 -34v0zM184 320h144h-144h168v-48v0h-24h-120v-56v0h88h24v-48v0h-24h-88v-56v0h120h24
v-48v0h-24h-168v24v0v104v0v104v0v24v0h24v0z" />
    <glyph glyph-name="circle-ellipsis" unicode="&#xe10a;" 
d="M256 -64q70 1 128 34v0v0q58 34 94 94q34 61 34 128t-34 128q-36 60 -94 94q-58 33 -128 34q-70 -1 -128 -34q-58 -34 -94 -94q-34 -61 -34 -128t34 -128q36 -60 94 -94q58 -33 128 -34v0zM192 224v-64v64v-64h-64v0v64v0h64v0zM384 224v-64v64v-64h-64v0v64v0h64v0z
M224 224h64h-64h64v-64v0h-64v0v64v0z" />
    <glyph glyph-name="circle-ellipsis-vertical" unicode="&#xe10b;" 
d="M256 -64q70 1 128 34v0v0q58 34 94 94q34 61 34 128t-34 128q-36 60 -94 94q-58 33 -128 34q-70 -1 -128 -34q-58 -34 -94 -94q-34 -61 -34 -128t34 -128q36 -60 94 -94q58 -33 128 -34v0zM288 256h-64h64h-64v64v0h64v0v-64v0zM288 64h-64h64h-64v64v0h64v0v-64v0z
M288 224v-64v64v-64h-64v0v64v0h64v0z" />
    <glyph glyph-name="circle-envelope" unicode="&#xe10c;" 
d="M256 -64q70 1 128 34v0v0q58 34 94 94q34 61 34 128t-34 128q-36 60 -94 94q-58 33 -128 34q-70 -1 -128 -34q-58 -34 -94 -94q-34 -61 -34 -128t34 -128q36 -60 94 -94q58 -33 128 -34v0zM128 244v44v-44v44h256v0v-44v0l-128 -51v0l-128 51v0zM262 161l122 48l-122 -48
l122 48v-113v0h-256v0v113v0l122 -48v0l6 -2v0l6 2v0z" />
    <glyph glyph-name="circle-exclamation-check" unicode="&#xe10d;" horiz-adv-x="640" 
d="M507 245l-27 -27l27 27l-27 -27l-19 19v0l-45 45v0l-90 -90v0l45 -45v0l64 -64v0l34 -34v0q-36 -52 -91 -82t-122 -31q-72 1 -129 35q-58 34 -92 92q-34 57 -35 129q1 72 35 129q34 58 92 92q57 34 129 35q94 -2 162 -58t89 -145v0zM280 296v24v-24v24h-48v0v-24v0v-112
v0v-24v0h48v0v24v0v112v0zM232 128v-48v48v-48h48v0v48v0h-48v0zM617 239l-128 -128l128 128l-128 -128l-17 -17v0l-17 17v0l-64 64v0l-17 17v0l34 34v0l17 -17v0l47 -47v0l111 111v0l17 17v0l34 -34v0l-17 -17v0z" />
    <glyph glyph-name="circle-f" unicode="&#xe10e;" 
d="M256 -64q70 1 128 34v0v0q58 34 94 94q34 61 34 128t-34 128q-36 60 -94 94q-58 33 -128 34q-70 -1 -128 -34q-58 -34 -94 -94q-34 -61 -34 -128t34 -128q36 -60 94 -94q58 -33 128 -34v0zM184 320h144h-144h168v-48v0h-24h-120v-64v0h88h24v-48v0h-24h-88v-72v0v-24v0
h-48v0v24v0v96v0v112v0v24v0h24v0z" />
    <glyph glyph-name="circle-g" unicode="&#xe10f;" 
d="M256 -64q70 1 128 34v0v0q58 34 94 94q34 61 34 128t-34 128q-36 60 -94 94q-58 33 -128 34q-70 -1 -128 -34q-58 -34 -94 -94q-34 -61 -34 -128t34 -128q36 -60 94 -94q58 -33 128 -34v0zM176 192q1 -34 23 -57v0v0q23 -22 57 -23q27 0 48 16q20 15 28 40h-52h-24v48v0
h24h104v-24v0q-1 -54 -37 -91q-37 -36 -91 -37q-54 1 -91 37q-36 37 -37 91q1 54 37 91q37 36 91 37q50 -1 85 -33l-32 -35v0q-22 19 -53 20q-34 -1 -57 -23q-22 -23 -23 -57v0z" />
    <glyph glyph-name="circle-half" unicode="&#xe110;" 
d="M256 448q-72 -1 -129 -35v0v0q-58 -34 -92 -92v0v0q-34 -57 -35 -129q1 -72 35 -129q34 -58 92 -92q57 -34 129 -35v512v0z" />
    <glyph glyph-name="circle-i" unicode="&#xe111;" 
d="M256 -64q70 1 128 34v0v0q58 34 94 94q34 61 34 128t-34 128q-36 60 -94 94q-58 33 -128 34q-70 -1 -128 -34q-58 -34 -94 -94q-34 -61 -34 -128t34 -128q36 -60 94 -94q58 -33 128 -34v0zM184 320h72h-72h168v-48v0h-24h-48v-160v0h48h24v-48v0h-24h-168v48v0h24h48v160
v0h-48h-24v48v0h24v0z" />
    <glyph glyph-name="circle-j" unicode="&#xe112;" 
d="M256 -64q70 1 128 34v0v0q58 34 94 94q34 61 34 128t-34 128q-36 60 -94 94q-58 33 -128 34q-70 -1 -128 -34q-58 -34 -94 -94q-34 -61 -34 -128t34 -128q36 -60 94 -94q58 -33 128 -34v0zM336 296v-136v136v-136q-1 -41 -28 -68t-68 -28q-41 1 -68 28t-28 68v8v0v24v0
h48v0v-24v0v-8v0q1 -20 14 -34q14 -13 34 -14q20 1 34 14q13 14 14 34v136v0v24v0h48v0v-24v0z" />
    <glyph glyph-name="circle-k" unicode="&#xe113;" 
d="M256 -64q70 1 128 34v0v0q58 34 94 94q34 61 34 128t-34 128q-36 60 -94 94q-58 33 -128 34q-70 -1 -128 -34q-58 -34 -94 -94q-34 -61 -34 -128t34 -128q36 -60 94 -94q58 -33 128 -34v0zM369 320l-1 -1l1 1l-1 -1l-98 -109v0l92 -139v0l5 -7v0h-58v0l-72 109v0l-29 -33
v0v-52v0v-24v0h-48v0v24v0v61v0v147v0v24v0h48v0v-24v0v-84v0l14 16v0l83 92v0h64v0z" />
    <glyph glyph-name="circle-l" unicode="&#xe114;" 
d="M256 -64q70 1 128 34v0v0q58 34 94 94q34 61 34 128t-34 128q-36 60 -94 94q-58 33 -128 34q-70 -1 -128 -34q-58 -34 -94 -94q-34 -61 -34 -128t34 -128q36 -60 94 -94q58 -33 128 -34v0zM208 296v-184v184v-184h120h24v-48v0h-24h-168v24v0v208v0v24v0h48v0v-24v0z" />
    <glyph glyph-name="circle-m" unicode="&#xe115;" 
d="M256 -64q70 1 128 34v0v0q58 34 94 94q34 61 34 128t-34 128q-36 60 -94 94q-58 33 -128 34q-70 -1 -128 -34q-58 -34 -94 -94q-34 -61 -34 -128t34 -128q36 -60 94 -94q58 -33 128 -34v0zM128 296v24v-24v24h36v0l8 -10v0l84 -117v0l85 117v0l7 10v0h36v0v-24v0v-208v0
v-24v0h-48v0v24v0v134v0l-60 -84v0l-20 -27v0l-19 27v0l-61 84v0v-134v0v-24v0h-48v0v24v0v208v0z" />
    <glyph glyph-name="circle-microphone" unicode="&#xe116;" 
d="M256 -64q70 1 128 34v0v0q58 34 94 94q34 61 34 128t-34 128q-36 60 -94 94q-58 33 -128 34q-70 -1 -128 -34q-58 -34 -94 -94q-34 -61 -34 -128t34 -128q36 -60 94 -94q58 -33 128 -34v0zM208 192v160v-160v160h96v0v-160v0q-1 -20 -14 -34q-14 -13 -34 -14
q-20 1 -34 14q-13 14 -14 34v0zM160 224v-16v16v-16v-16v0q1 -41 28 -68t68 -28q41 1 68 28t28 68v16v0v16v0h32v0v-16v0v-16v0q-1 -50 -32 -85q-32 -35 -80 -42v-17v0v-16v0h-32v0v16v0v17v0q-48 7 -80 42q-31 35 -32 85v16v0v16v0h32v0z" />
    <glyph glyph-name="circle-microphone-lines" unicode="&#xe117;" 
d="M0 192q1 70 34 128v0v0q34 58 94 94q61 34 128 34t128 -34q60 -36 94 -94q33 -58 34 -128q-1 -70 -34 -128q-34 -58 -94 -94q-61 -34 -128 -34t-128 34q-60 36 -94 94q-33 58 -34 128v0zM208 352v-160v160v-160q1 -20 14 -34q14 -13 34 -14q20 1 34 14q13 14 14 34v16v0
h-32h-16v32v0h16h32v32v0h-32h-16v32v0h16h32v48v0h-96v0zM160 208v16v-16v16h-32v0v-16v0v-16v0q1 -50 32 -85q32 -35 80 -42v-17v0v-16v0h32v0v16v0v17v0q48 7 80 42q31 35 32 85v16v0v16v0h-32v0v-16v0v-16v0q-1 -41 -28 -68t-68 -28q-41 1 -68 28t-28 68v16v0z" />
    <glyph glyph-name="circle-n" unicode="&#xe118;" 
d="M256 -64q70 1 128 34v0v0q58 34 94 94q34 61 34 128t-34 128q-36 60 -94 94q-58 33 -128 34q-70 -1 -128 -34q-58 -34 -94 -94q-34 -61 -34 -128t34 -128q36 -60 94 -94q58 -33 128 -34v0zM304 320h48h-48h48v-24v0v-208v0v-24v0h-37v0l-7 10v0l-100 145v0v-131v0v-24v0
h-48v0v24v0v208v0v24v0h37v0l7 -10v0l100 -145v0v131v0v24v0z" />
    <glyph glyph-name="circle-o" unicode="&#xe119;" 
d="M256 -64q70 1 128 34v0v0q58 34 94 94q34 61 34 128t-34 128q-36 60 -94 94q-58 33 -128 34q-70 -1 -128 -34q-58 -34 -94 -94q-34 -61 -34 -128t34 -128q36 -60 94 -94q58 -33 128 -34v0zM176 192q1 -45 40 -69q40 -22 80 0q39 24 40 69q-1 45 -40 69q-40 22 -80 0
q-39 -24 -40 -69v0zM256 64q-35 0 -64 17v0v0q-29 17 -47 47q-17 30 -17 64t17 64q18 30 47 47t64 17t64 -17t47 -47q17 -30 17 -64t-17 -64q-18 -30 -47 -47t-64 -17v0z" />
    <glyph glyph-name="circle-p" unicode="&#xe11a;" 
d="M256 -64q70 1 128 34v0v0q58 34 94 94q34 61 34 128t-34 128q-36 60 -94 94q-58 33 -128 34q-70 -1 -128 -34q-58 -34 -94 -94q-34 -61 -34 -128t34 -128q36 -60 94 -94q58 -33 128 -34v0zM184 320h92h-92h92q39 -1 65 -27t27 -65q-1 -39 -27 -65t-65 -27h-68v0v-48v0
v-24v0h-48v0v24v0v72v0v136v0v24v0h24v0zM276 184q19 0 31 13v0v0q13 12 13 31t-13 31q-12 13 -31 13h-68v0v-88v0h68v0z" />
    <glyph glyph-name="circle-phone" unicode="&#xe11b;" 
d="M256 -64q70 1 128 34v0v0q58 34 94 94q34 61 34 128t-34 128q-36 60 -94 94q-58 33 -128 34q-70 -1 -128 -34q-58 -34 -94 -94q-34 -61 -34 -128t34 -128q36 -60 94 -94q58 -33 128 -34v0zM200 320l40 -72l-40 72l40 -72l-42 -34v0q28 -52 81 -80l33 42v0l72 -40v0
l-16 -72v0h-16v0q-63 1 -113 31q-51 29 -80 80q-30 50 -31 113v16v0l72 16v0z" />
    <glyph glyph-name="circle-phone-flip" unicode="&#xe11c;" 
d="M256 448q70 -1 128 -34v0v0q58 -34 94 -94q34 -61 34 -128t-34 -128q-36 -60 -94 -94q-58 -33 -128 -34q-70 1 -128 34q-58 34 -94 94q-34 61 -34 128t34 128q36 60 94 94q58 33 128 34v0zM312 320l-40 -72l40 72l-40 -72l42 -34v0q-28 -52 -80 -80l-34 42v0l-72 -40v0
l16 -72v0h16v0q63 1 113 31q51 29 80 80q30 50 31 113v16v0l-72 16v0z" />
    <glyph glyph-name="circle-phone-hangup" unicode="&#xe11d;" 
d="M256 -64q70 1 128 34v0v0q58 34 94 94q34 61 34 128t-34 128q-36 60 -94 94q-58 33 -128 34q-70 -1 -128 -34q-58 -34 -94 -94q-34 -61 -34 -128t34 -128q36 -60 94 -94q58 -33 128 -34v0zM379 128l-75 21l75 -21l-75 21l6 49v0q-54 16 -108 0l6 -49v0l-75 -21v0l-37 57
v0l11 11v0q65 60 149 60t149 -60l11 -11v0l-37 -57v0z" />
    <glyph glyph-name="circle-q" unicode="&#xe11e;" 
d="M256 -64q70 1 128 34v0v0q58 34 94 94q34 61 34 128t-34 128q-36 60 -94 94q-58 33 -128 34q-70 -1 -128 -34q-58 -34 -94 -94q-34 -61 -34 -128t34 -128q36 -60 94 -94q58 -33 128 -34v0zM256 272q-34 -1 -57 -23v0v0q-22 -23 -23 -57q1 -34 23 -57q23 -22 57 -23
q21 0 38 10l-56 70v0h62v0l28 -35v0q8 16 8 35q-1 34 -23 57q-23 22 -57 23v0zM256 64q-54 1 -91 37v0v0q-36 37 -37 91q1 54 37 91q37 36 91 37q54 -1 91 -37q36 -37 37 -91q-1 -43 -24 -75l42 -53v0h-62v0l-15 20v0q-31 -20 -69 -20v0z" />
    <glyph glyph-name="circle-quarter" unicode="&#xe11f;" 
d="M0 192q1 72 35 129v0v0q34 58 92 92v0v0q57 34 129 35v-256v0h-256v0z" />
    <glyph glyph-name="circle-r" unicode="&#xe120;" 
d="M256 -64q70 1 128 34v0v0q58 34 94 94q34 61 34 128t-34 128q-36 60 -94 94q-58 33 -128 34q-70 -1 -128 -34q-58 -34 -94 -94q-34 -61 -34 -128t34 -128q36 -60 94 -94q58 -33 128 -34v0zM160 320h24h-24h128q34 -1 57 -23q22 -23 23 -57q-1 -29 -18 -50t-44 -28l63 -98
v0h-57v0l-61 96v0h-43v0v-72v0v-24v0h-48v0v24v0v96v0v112v0v24v0zM208 208h56h-56h80q14 0 23 9t9 23t-9 23t-23 9h-80v0v-64v0z" />
    <glyph glyph-name="circle-s" unicode="&#xe121;" 
d="M256 -64q70 1 128 34v0v0q58 34 94 94q34 61 34 128t-34 128q-36 60 -94 94q-58 33 -128 34q-70 -1 -128 -34q-58 -34 -94 -94q-34 -61 -34 -128t34 -128q36 -60 94 -94q58 -33 128 -34v0zM208 252q-2 -9 0 -12q1 -3 8 -8q15 -9 46 -17l2 -1v0q31 -6 59 -23q15 -9 24 -27
t5 -40q-10 -39 -45 -52q-34 -12 -73 -6v0v0v0v0q-13 2 -30 7t-28 8l-22 7v0l14 46v0l23 -7v0q11 -4 26 -8q14 -4 24 -6q31 -4 48 3q14 7 15 16t0 12t-8 7q-15 10 -47 18h-2v0v1q-30 6 -58 23q-15 9 -24 27t-5 40q10 39 45 52q33 12 73 6q7 -1 16 -3q10 -2 16 -4l23 -6v0
l-12 -46v0l-23 6v0q-5 1 -14 3q-8 2 -13 2q-31 5 -48 -3q-14 -6 -15 -15v0z" />
    <glyph glyph-name="circle-small" unicode="&#xe122;" horiz-adv-x="320" 
d="M0 192q0 43 21 80v0v0q22 37 59 59q38 21 80 21t80 -21q37 -22 59 -59q21 -37 21 -80t-21 -80q-22 -37 -59 -59q-38 -21 -80 -21t-80 21q-37 22 -59 59q-21 37 -21 80v0z" />
    <glyph glyph-name="circle-star" unicode="&#xe123;" 
d="M256 -64q70 1 128 34v0v0q58 34 94 94q34 61 34 128t-34 128q-36 60 -94 94q-58 33 -128 34q-70 -1 -128 -34q-58 -34 -94 -94q-34 -61 -34 -128t34 -128q36 -60 94 -94q58 -33 128 -34v0zM303 257l105 -16l-105 16l105 -16l-76 -74v0l18 -105v0l-94 50v0l-94 -49v0
l18 104v0l-76 74v0l105 16v0l47 95v0l47 -95v0z" />
    <glyph glyph-name="circle-t" unicode="&#xe124;" 
d="M256 -64q70 1 128 34v0v0q58 34 94 94q34 61 34 128t-34 128q-36 60 -94 94q-58 33 -128 34q-70 -1 -128 -34q-58 -34 -94 -94q-34 -61 -34 -128t34 -128q36 -60 94 -94q58 -33 128 -34v0zM152 304h104h-104h232v-48v0h-24h-80v-168v0v-24v0h-48v0v24v0v168v0h-80h-24v48
v0h24v0z" />
    <glyph glyph-name="circle-three-quarters" unicode="&#xe125;" 
d="M256 448q-72 -1 -129 -35v0v0q-58 -34 -92 -92v0v0q-34 -57 -35 -129q1 -72 35 -129q34 -58 92 -92q57 -34 129 -35q72 1 129 35q58 34 92 92q34 57 35 129h-256v0v256v0z" />
    <glyph glyph-name="circle-trash" unicode="&#xe126;" 
d="M256 -64q70 1 128 34v0v0q58 34 94 94q34 61 34 128t-34 128q-36 60 -94 94q-58 33 -128 34q-70 -1 -128 -34q-58 -34 -94 -94q-34 -61 -34 -128t34 -128q36 -60 94 -94q58 -33 128 -34v0zM160 320h41h-41h41l12 11v0l4 5v0h7h71l4 -5v0l12 -11v0h41h16v-32v0h-16h-208
v32v0h16v0zM160 256h192h-192h192l-16 -192v0h-160v0l-16 192v0z" />
    <glyph glyph-name="circle-u" unicode="&#xe127;" 
d="M256 -64q70 1 128 34v0v0q58 34 94 94q34 61 34 128t-34 128q-36 60 -94 94q-58 33 -128 34q-70 -1 -128 -34q-58 -34 -94 -94q-34 -61 -34 -128t34 -128q36 -60 94 -94q58 -33 128 -34v0zM192 280v-120v120v-120q1 -27 19 -45t45 -19q27 1 45 19t19 45v120v0v24v0h48v0
v-24v0v-120v0q-1 -48 -33 -79q-31 -32 -79 -33q-48 1 -79 33q-32 31 -33 79v120v0v24v0h48v0v-24v0z" />
    <glyph glyph-name="circle-up-left" unicode="&#xe128;" 
d="M256 -64q70 1 128 34v0v0q58 34 94 94q34 61 34 128t-34 128q-36 60 -94 94q-58 33 -128 34q-70 -1 -128 -34q-58 -34 -94 -94q-34 -61 -34 -128t34 -128q36 -60 94 -94q58 -33 128 -34v0zM160 128v160v-160v160h160v0l24 -24v0l-52 -52v0l76 -76v0l-56 -56v0l-76 76v0
l-52 -52v0l-24 24v0z" />
    <glyph glyph-name="circle-up-right" unicode="&#xe129;" 
d="M256 448q70 -1 128 -34v0v0q58 -34 94 -94q34 -61 34 -128t-34 -128q-36 -60 -94 -94q-58 -33 -128 -34q-70 1 -128 34q-58 34 -94 94q-34 61 -34 128t34 128q36 60 94 94q58 33 128 34v0zM352 128v160v-160v160h-160v0l-24 -24v0l52 -52v0l-76 -76v0l56 -56v0l76 76v0
l52 -52v0l24 24v0z" />
    <glyph glyph-name="circle-v" unicode="&#xe12a;" 
d="M256 -64q70 1 128 34v0v0q58 34 94 94q34 61 34 128t-34 128q-36 60 -94 94q-58 33 -128 34q-70 -1 -128 -34q-58 -34 -94 -94q-34 -61 -34 -128t34 -128q36 -60 94 -94q58 -33 128 -34v0zM384 304l-106 -242l106 242l-106 -242l-6 -14v0h-32v0l-6 14v0l-106 242v0h53v0
l75 -172v0l76 172v0h52v0z" />
    <glyph glyph-name="circle-video" unicode="&#xe12b;" 
d="M256 -64q70 1 128 34v0v0q58 34 94 94q34 61 34 128t-34 128q-36 60 -94 94q-58 33 -128 34q-70 -1 -128 -34q-58 -34 -94 -94q-34 -61 -34 -128t34 -128q36 -60 94 -94q58 -33 128 -34v0zM128 288h192h-192h192v-192v0h-192v0v192v0zM416 112l-64 48l64 -48l-64 48v64v0
l64 48v0v-160v0z" />
    <glyph glyph-name="circle-w" unicode="&#xe12c;" 
d="M256 -64q70 1 128 34v0v0q58 34 94 94q34 61 34 128t-34 128q-36 60 -94 94q-58 33 -128 34q-70 -1 -128 -34q-58 -34 -94 -94q-34 -61 -34 -128t34 -128q36 -60 94 -94q58 -33 128 -34v0zM410 296l-67 -231l67 231l-67 -231l-5 -17v0h-35v0l-6 17v0l-41 128v0l-41 -128
v0l-5 -17v0h-36v0l-5 17v0l-66 231v0h50v0l40 -142v0l40 125v0l5 17v0h35v0l6 -17v0l40 -125v0l41 142v0h50v0z" />
    <glyph glyph-name="circle-waveform-lines" unicode="&#xe12d;" 
d="M256 -64q70 1 128 34v0v0q58 34 94 94q34 61 34 128t-34 128q-36 60 -94 94q-58 33 -128 34q-70 -1 -128 -34q-58 -34 -94 -94q-34 -61 -34 -128t34 -128q36 -60 94 -94q58 -33 128 -34v0zM288 304v-224v224v-224v-16v0h-32v0v16v0v224v0v16v0h32v0v-16v0zM160 272v-160
v160v-160v-16v0h-32v0v16v0v160v0v16v0h32v0v-16v0zM352 248v-112v112v-112v-16v0h-32v0v16v0v112v0v16v0h32v0v-16v0zM224 232v-80v80v-80v-16v0h-32v0v16v0v80v0v16v0h32v0v-16v0zM416 208v-32v32v-32v-16v0h-32v0v16v0v32v0v16v0h32v0v-16v0z" />
    <glyph glyph-name="circle-x" unicode="&#xe12e;" 
d="M256 -64q70 1 128 34v0v0q58 34 94 94q34 61 34 128t-34 128q-36 60 -94 94q-58 33 -128 34q-70 -1 -128 -34q-58 -34 -94 -94q-34 -61 -34 -128t34 -128q36 -60 94 -94q58 -33 128 -34v0zM381 320l-95 -128l95 128l-95 -128l95 -128v0h-60v0l-65 88v0l-65 -88v0h-60v0
l95 128v0l-95 128v0h60v0l65 -88v0l65 88v0h60v0z" />
    <glyph glyph-name="circle-y" unicode="&#xe12f;" 
d="M256 -64q70 1 128 34v0v0q58 34 94 94q34 61 34 128t-34 128q-36 60 -94 94q-58 33 -128 34q-70 -1 -128 -34q-58 -34 -94 -94q-34 -61 -34 -128t34 -128q36 -60 94 -94q58 -33 128 -34v0zM232 152l-111 152l111 -152l-111 152h59v0l76 -103v0l76 103v0h59v0l-111 -152v0
v-80v0v-24v0h-48v0v24v0v80v0z" />
    <glyph glyph-name="circle-z" unicode="&#xe130;" 
d="M256 -64q70 1 128 34v0v0q58 34 94 94q34 61 34 128t-34 128q-36 60 -94 94q-58 33 -128 34q-70 -1 -128 -34q-58 -34 -94 -94q-34 -61 -34 -128t34 -128q36 -60 94 -94q58 -33 128 -34v0zM352 288l-4 -6l4 6l-4 -6l-118 -170v0h98h24v-48v0h-24h-168v31v0l4 7v0l118 170
v0h-98h-24v48v0h24h168v-32v0z" />
    <glyph glyph-name="clapperboard" unicode="&#xe131;" 
d="M362 416l-1 -1l1 1l-1 -1l-127 -127v0h92v0l1 1v0l127 127v0h-92v0zM512 288v118v-118v118l-118 -118v0h118v0zM294 416h-92h92h-92l-1 -1v0l-127 -127v0h92v0l1 1v0l127 127v0zM0 416v-128v128v-128h6v0l1 1v0l127 127v0h-134v0zM512 256h-512h512h-512v-288v0h512v0
v288v0z" />
    <glyph glyph-name="clapperboard-play" unicode="&#xe132;" 
d="M454 416l-127 -127l127 127l-127 -127l-1 -1v0h-92v0l127 127v0l1 1v0h92v0zM394 288l118 118l-118 -118l118 118v-118v0h-118v0zM202 416h92h-92h92l-127 -127v0l-1 -1v0h-92v0l127 127v0l1 1v0zM134 416l-127 -127l127 127l-127 -127l-1 -1v0h-6v0v128v0h134v0zM0 256
h512h-512h512v-288v0h-512v0v288v0zM344 112l-136 88l136 -88l-136 88v-176v0l136 88v0z" />
    <glyph glyph-name="clipboard-medical" unicode="&#xe133;" horiz-adv-x="384" 
d="M192 448q-32 -1 -56 -18v0v0q-24 -18 -34 -46h-102v0v-448v0h384v0v448v0h-101v0q-11 28 -35 46q-24 17 -56 18v0zM192 384q14 0 23 -9v0v0q9 -9 9 -23t-9 -23t-23 -9t-23 9t-9 23t9 23t23 9v0zM160 160v64v-64v64h64v0v-64v0h64v0v-64v0h-64v0v-64v0h-64v0v64v0h-64v0
v64v0h64v0z" />
    <glyph glyph-name="clock-desk" unicode="&#xe134;" horiz-adv-x="448" 
d="M0 224q1 61 30 112v0v0q30 51 82 82q53 30 112 30t112 -30q52 -31 82 -82q29 -51 30 -112q-1 -61 -30 -112q-30 -51 -82 -82q-53 -30 -112 -30t-112 30q-52 31 -82 82q-29 51 -30 112v0zM248 352h-48h48h-48v-24v0v-104v0v-10v0l7 -7v0l48 -48v0l17 -17v0l34 34v0l-17 17
v0l-41 41v0v94v0v24v0zM224 -32q73 1 132 36v0v0q58 36 92 96v-164v0h-448v0v164v0q34 -60 92 -96q59 -35 132 -36v0z" />
    <glyph glyph-name="closed-captioning-slash" unicode="&#xe135;" horiz-adv-x="640" 
d="M48 433l-19 15l19 -15l-19 15l-29 -38v0l19 -15v0l573 -444v0l19 -15v0l29 38v0l-19 15v0l-13 10v0v417v0h-537v0l-23 17v0zM236 288q51 -4 77 -45l-11 -7v0l-66 52v0zM331 214q8 32 33 53v0v0q25 20 60 21q53 -2 81 -45l-40 -25v0q-14 21 -41 22q-20 -1 -34 -14
q-13 -14 -14 -34q0 -8 2 -15l-47 37v0zM421 144h3q27 1 41 22l40 -25v0q-14 -22 -36 -34l-48 37v0zM32 -32h455h-455h455l-192 152v0q-26 -23 -63 -24q-41 1 -68 28t-28 68q0 24 11 44l-115 91v0v-359v0zM184 192q1 -20 14 -34v0v0q14 -13 34 -14q13 0 24 6l-70 55v0
q-2 -6 -2 -13v0z" />
    <glyph glyph-name="clothes-hanger" unicode="&#xe136;" horiz-adv-x="640" 
d="M210 363q10 38 40 61v0v0q29 23 69 24h1v0q48 -1 79 -33q32 -31 33 -79v-6v0q-1 -58 -48 -92l-8 -6v0l250 -174v0l14 -9v0v-17v0v-64v0v-32v0h-32h-608v32v0v64v0v17v0l14 9v0l288 200v0v0v0l46 32v0q19 15 20 40v6v0q-1 20 -14 34q-14 13 -34 14h-1v0q-17 0 -30 -10
t-17 -26l-1 -4v0l-8 -31v0l-62 16v0l8 31v0l1 3v0zM320 193l-256 -178l256 178l-256 -178v-15v0h512v0v15v0l-256 178v0z" />
    <glyph glyph-name="cloud-slash" unicode="&#xe137;" horiz-adv-x="640" 
d="M48 433l-19 15l19 -15l-19 15l-29 -38v0l19 -15v0l573 -444v0l19 -15v0l24 32v0h5v0v128v0q-1 46 -27 79q-27 34 -69 45v36v0q-1 41 -28 68t-68 28q-30 0 -53 -16q-22 36 -58 58q-36 21 -81 22q-72 -2 -118 -52l-90 69v0zM96 256v-8v8v-8q-43 -16 -69 -52t-27 -84v-144v0
h144h343l-390 307v0q-1 -9 -1 -19v0z" />
    <glyph glyph-name="cloud-word" unicode="&#xe138;" horiz-adv-x="640" 
d="M0 -32h144h-144h640v128v0q-1 46 -27 79q-27 34 -69 45v36v0q-1 41 -28 68t-68 28q-30 0 -53 -16q-22 36 -58 58q-36 21 -81 22q-68 -2 -113 -47t-47 -113v-8v0q-43 -16 -69 -52t-27 -84v-144v0zM512 96v-32v32v-32h-16h-208v32v0h16h208zM240 96h16h-16h16v-32v0h-16
h-112v32v0h16h96zM128 160h16h-16h224v-32v0h-16h-208v32v0zM400 160h96h-96h112v-32v0h-16h-112v32v0h16v0z" />
    <glyph glyph-name="clover" unicode="&#xe139;" horiz-adv-x="448" 
d="M121 321l39 -65l-39 65l39 -65l-65 39v0q-15 9 -32 9q-27 -1 -45 -18q-17 -18 -18 -45v-17v0l32 -32v0l-32 -32v0v-17v0q1 -27 18 -45q18 -17 45 -18q17 0 32 9l65 39v0l-39 -65v0q-9 -15 -9 -32q1 -27 18 -45q18 -17 45 -18h17v0l32 32v0l32 -32v0h17v0q27 1 45 18
q17 18 18 45q0 17 -9 32l-39 65v0l65 -39v0q15 -9 32 -9q27 1 45 18q17 18 18 45v17v0l-32 32v0l32 32v0v17v0q-1 27 -18 45q-18 17 -45 18q-17 0 -32 -9l-65 -39v0l39 65v0q9 15 9 32q-1 27 -18 45q-18 17 -45 18h-17v0l-32 -32v0l-32 32v0h-17v0q-27 -1 -45 -18
q-17 -18 -18 -45q0 -17 9 -32v0z" />
    <glyph glyph-name="code-compare" unicode="&#xe13a;" 
d="M288 128l-96 -96l96 96l-96 -96l96 -96v0h32v0v64v0h16v0q54 1 91 37q36 37 37 91v160v0h48v0v56v0v48v0v56v0h-56h-104v-56v0v-48v0v-56v0h48v0v-160v0q-1 -27 -19 -45t-45 -19h-16v0v64v0h-32v0zM408 392h48h-48h48v-48v0h-48v0v48v0zM224 448h-32h32h-32v-64v0h-16v0
q-54 -1 -91 -37q-36 -37 -37 -91v-160v0h-48v0v-56v0v-48v0v-56v0h56h104v56v0v48v0v56v0h-48v0v160v0q1 27 19 45t45 19h16v0v-64v0h32v0l96 96v0l-96 96v0zM56 40h48h-48h48v-48v0h-48v0v48v0z" />
    <glyph glyph-name="code-fork" unicode="&#xe13b;" horiz-adv-x="448" 
d="M104 392v-48v48v-48h-48v0v48v0h48v0zM56 448h-56h56h-56v-56v0v-48v0v-56v0h48v0v-32v0q1 -41 28 -68t68 -28h48v0v-64v0h-48v0v-56v0v-48v0v-56v0h56h104v56v0v48v0v56v0h-48v0v64v0h48v0q41 1 68 28t28 68v32v0h48v0v56v0v48v0v56v0h-56h-104v-56v0v-48v0v-56v0h48v0
v-32v0q0 -14 -9 -23t-23 -9h-160v0q-14 0 -23 9t-9 23v32v0h48v0v56v0v48v0v56v0h-56h-48zM392 392v-48v48v-48h-48v0v48v0h48v0zM200 40h48h-48h48v-48v0h-48v0v48v0z" />
    <glyph glyph-name="code-pull-request" unicode="&#xe13c;" 
d="M56 392h48h-48h48v-48v0h-48v0v48v0zM0 448v-56v56v-56v-48v0v-56v0h48v0v-192v0h-48v0v-56v0v-48v0v-56v0h56h104v56v0v48v0v56v0h-48v0v192v0h48v0v56v0v48v0v56v0h-56h-104zM56 40h48h-48h48v-48v0h-48v0v48v0zM456 40v-48v48v-48h-48v0v48v0h48v0zM400 256v-160v160
v-160h-48v0v-56v0v-48v0v-56v0h56h104v56v0v48v0v56v0h-48v0v160v0q-1 54 -37 91q-37 36 -91 37h-16v0v64v0h-32v0l-96 -96v0l96 -96v0h32v0v64v0h16v0q27 -1 45 -19t19 -45v0z" />
    <glyph glyph-name="code-simple" unicode="&#xe13d;" horiz-adv-x="576" 
d="M200 315l-109 -123l109 123l-109 -123l109 -123v0l21 -24v0l-48 -42v0l-21 24v0l-128 144v0l-19 21v0l19 21v0l128 144v0l21 24v0l48 -42v0l-21 -24v0zM376 315l-21 24l21 -24l-21 24l48 42v0l21 -24v0l128 -144v0l19 -21v0l-19 -21v0l-128 -144v0l-21 -24v0l-48 42v0
l21 24v0l109 123v0l-109 123v0z" />
    <glyph glyph-name="coffee-bean" unicode="&#xe13e;" horiz-adv-x="448" 
d="M400 374q2 -1 3 -3q37 -38 44 -92q6 -54 -16 -113q-23 -58 -73 -108q-67 -66 -145 -84t-139 16l68 124v0l189 126v0l4 3v0l2 4v0l63 127v0zM48 10q-1 0 -1 1v0v0l-2 2q-37 38 -44 92q-6 54 17 113q22 58 72 108q67 66 145 84q79 18 139 -16l-64 -129v0l-189 -126v0l-3 -2
v0l-2 -4v0l-68 -123v0z" />
    <glyph glyph-name="coffee-beans" unicode="&#xe13f;" 
d="M296 366l169 -101l-169 101l169 -101l28 -58v0q26 40 17 92q-10 51 -52 95q-45 44 -99 52q-53 9 -93 -20l30 -60v0zM272 343l-29 58l29 -58l-29 58q-26 -40 -17 -92q10 -51 52 -95q45 -44 99 -52q53 -9 93 20l-30 60v0l-168 101v0zM89 198l19 57l-19 -57l19 57
q-47 -10 -77 -54t-31 -105q1 -64 33 -108t81 -52l21 64v0l-46 189v0l-2 4v0l2 5v0zM121 192l47 -189l-47 189l47 -189l1 -4v0l-2 -5v0l-19 -57v0q47 10 77 54t31 105q-1 64 -33 108t-81 52l-21 -64v0z" />
    <glyph glyph-name="colon-sign" unicode="&#xe140;" horiz-adv-x="384" 
d="M255 425l-10 -42l10 42l-10 -42q15 -2 29 -6l15 62v0l62 -14v0l-17 -75v0q25 -18 44 -43l-52 -38v0q-4 5 -9 11l-48 -208v0q35 14 57 43l52 -38v0q-47 -61 -125 -75l-14 -57v0l-62 14v0l10 45v0q-15 2 -28 7l-16 -66v0l-62 14v0l20 86v0q-32 27 -50 64q-19 38 -19 83
q1 69 42 120q40 50 105 67l14 60v0l62 -14v0zM202 66l58 249l-58 -249l58 249q-14 4 -29 5l-58 -246v0q14 -5 29 -8v0zM96 192q1 -41 22 -72l43 183v0q-29 -16 -47 -46q-18 -29 -18 -65v0z" />
    <glyph glyph-name="command" unicode="&#xe142;" 
d="M0 448h32h-32h192v-32v0v-96v0h128v0v96v0v32v0h32h160v-32v0v-128v0v-32v0h-32h-96v-128v0h96h32v-32v0v-128v0v-32v0h-32h-160v32v0v96v0h-128v0v-96v0v-32v0h-32h-160v32v0v128v0v32v0h32h96v128v0h-96h-32v32v0v128v0v32v0zM128 320v64v-64v64h-64v0v-64v0h64v0z
M192 128h128h-128h128v128v0h-128v0v-128v0zM128 64h-64h64h-64v-64v0h64v0v64v0zM384 64v-64v64v-64h64v0v64v0h-64v0zM384 320h64h-64h64v64v0h-64v0v-64v0z" />
    <glyph glyph-name="comment-arrow-down" unicode="&#xe143;" 
d="M512 208q-1 -58 -35 -105v0v0q-34 -47 -92 -75v0v0q-57 -27 -129 -28q-47 0 -90 13l-150 -45v0l41 109v0q-55 55 -57 131q1 58 35 105t92 75q57 27 129 28q72 -1 129 -28q58 -28 92 -75t35 -105v0zM280 296v24v-24v24h-48v0v-24v0v-118v0l-31 31v0l-17 17v0l-34 -34v0
l17 -17v0l72 -72v0l17 -17v0l17 17v0l72 72v0l17 17v0l-34 34v0l-17 -17v0l-31 -31v0v118v0z" />
    <glyph glyph-name="comment-arrow-up" unicode="&#xe144;" 
d="M512 208q-1 -58 -35 -105v0v0q-34 -47 -92 -75v0v0q-57 -27 -129 -28q-47 0 -90 13l-150 -45v0l41 109v0q-55 55 -57 131q1 58 35 105t92 75q57 27 129 28q72 -1 129 -28q58 -28 92 -75t35 -105v0zM280 120v118v-118v118l31 -31v0l17 -17v0l34 34v0l-17 17v0l-72 72v0
l-17 17v0l-17 -17v0l-72 -72v0l-17 -17v0l34 -34v0l17 17v0l31 31v0v-118v0v-24v0h48v0v24v0z" />
    <glyph glyph-name="comment-arrow-up-right" unicode="&#xe145;" 
d="M512 208q-1 -58 -35 -105v0v0q-34 -47 -92 -75v0v0q-57 -27 -129 -28q-47 0 -90 13l-150 -45v0l41 109v0q-55 55 -57 131q1 58 35 105t92 75q57 27 129 28q72 -1 129 -28q58 -28 92 -75t35 -105v0zM200 288h-24h24h-24v-48v0h24h54l-87 -87v0l-17 -17v0l34 -34v0l17 17v0
l87 87v0v-54v0v-24v0h48v0v24v0v112v0v24v0h-24h-112z" />
    <glyph glyph-name="comment-captions" unicode="&#xe146;" 
d="M512 208q-1 -58 -35 -105v0v0q-34 -47 -92 -75v0v0q-57 -27 -129 -28q-47 0 -90 13l-150 -45v0l41 109v0q-55 55 -57 131q1 58 35 105t92 75q57 27 129 28q72 -1 129 -28q58 -28 92 -75t35 -105v0zM120 240h-24h24h-24v-48v0h24h168v48v0h-24h-144zM344 240h-24h24h-24
v-48v0h24h72v48v0h-24h-48zM120 160h-24h24h-24v-48v0h24h72v48v0h-24h-48zM248 160h-24h24h-24v-48v0h24h168v48v0h-24h-144z" />
    <glyph glyph-name="comment-code" unicode="&#xe147;" 
d="M512 208q-1 -58 -35 -105v0v0q-34 -47 -92 -75v0v0q-57 -27 -129 -28q-47 0 -90 13l-150 -45v0l41 109v0q-55 55 -57 131q1 58 35 105t92 75q57 27 129 28q72 -1 129 -28q58 -28 92 -75t35 -105v0zM217 255l17 17l-17 -17l17 17l-34 34v0l-17 -17v0l-64 -64v0l-17 -17v0
l17 -17v0l64 -64v0l17 -17v0l34 34v0l-17 17v0l-47 47v0l47 47v0zM329 289l-17 17l17 -17l-17 17l-34 -34v0l17 -17v0l47 -47v0l-47 -47v0l-17 -17v0l34 -34v0l17 17v0l64 64v0l17 17v0l-17 17v0l-64 64v0z" />
    <glyph glyph-name="comment-image" unicode="&#xe148;" 
d="M512 208q-1 -58 -35 -105v0v0q-34 -47 -92 -75v0v0q-57 -27 -129 -28q-47 0 -90 13l-150 -45v0l41 109v0q-55 55 -57 131q1 58 35 105t92 75q57 27 129 28q72 -1 129 -28q58 -28 92 -75t35 -105v0zM192 288q0 14 -9 23v0v0q-9 9 -23 9t-23 -9t-9 -23t9 -23t23 -9t23 9
t9 23v0zM96 160v-32v32v-32h320v0v32v0l-120 144v0l-100 -121v0l-36 41v0l-64 -64v0z" />
    <glyph glyph-name="comment-middle" unicode="&#xe149;" 
d="M320 39q85 18 137 73v0v0q53 54 55 128q-1 58 -35 105t-92 75q-57 27 -129 28q-72 -1 -129 -28q-58 -28 -92 -75t-35 -105q2 -74 55 -128q52 -55 137 -73l64 -103v0l64 103v0z" />
    <glyph glyph-name="comment-middle-top" unicode="&#xe14a;" 
d="M320 345q85 -18 137 -73v0v0q53 -54 55 -128q-1 -58 -35 -105t-92 -75q-57 -27 -129 -28q-72 1 -129 28q-58 28 -92 75t-35 105q2 74 55 128q52 55 137 73l64 103v0l64 -103v0z" />
    <glyph glyph-name="comment-question" unicode="&#xe14b;" 
d="M512 208q-1 -58 -35 -105v0v0q-34 -47 -92 -75v0v0q-57 -27 -129 -28q-47 0 -90 13l-150 -45v0l41 109v0q-55 55 -57 131q1 58 35 105t92 75q57 27 129 28q72 -1 129 -28q58 -28 92 -75t35 -105v0zM168 280v-7v7v-7h48v0v7v0q1 7 8 8h57v0q14 -1 15 -15q0 -9 -8 -13
l-44 -26v0l-12 -7v0v-14v0v-21v0v-24v0h48v0v24v0v8v0l32 18v0q31 19 32 55q-1 27 -18 45q-18 17 -45 18h-57v0q-24 -1 -40 -16q-15 -16 -16 -40v0zM232 80h48h-48h48v48v0h-48v0v-48v0z" />
    <glyph glyph-name="comment-quote" unicode="&#xe14c;" 
d="M512 208q-1 -58 -35 -105v0v0q-34 -47 -92 -75v0v0q-57 -27 -129 -28q-47 0 -90 13l-150 -45v0l41 109v0q-55 55 -57 131q1 58 35 105t92 75q57 27 129 28q72 -1 129 -28q58 -28 92 -75t35 -105v0zM240 304h-112h112h-112v-112v0h64v0v-32v0h-24h-24v-48v0h24h72v24v0v56
v0v48v0v24v0v40v0zM384 304h-112h112h-112v-112v0h64v0v-32v0h-24h-24v-48v0h24h72v24v0v56v0v48v0v24v0v40v0z" />
    <glyph glyph-name="comment-text" unicode="&#xe14d;" 
d="M512 208q-1 -58 -35 -105v0v0q-34 -47 -92 -75v0v0q-57 -27 -129 -28q-47 0 -90 13l-150 -45v0l41 109v0q-55 55 -57 131q1 58 35 105t92 75q57 27 129 28q72 -1 129 -28q58 -28 92 -75t35 -105v0zM184 288h-24h24h-24v-48v0h24h48v-104v0v-24v0h48v0v24v0v104v0h48h24
v48v0h-24h-144z" />
    <glyph glyph-name="comments-question" unicode="&#xe14e;" horiz-adv-x="640" 
d="M208 96q88 2 147 52v0v0q59 49 61 124q-2 75 -61 124q-59 50 -147 52q-88 -2 -147 -52q-59 -49 -61 -124q1 -57 38 -101l-38 -75v0l108 22v0q45 -22 100 -22v0zM232 65q19 -57 73 -92v0v0q54 -36 127 -37q55 0 100 22l108 -22v0l-38 75v0q37 44 38 101q-2 71 -56 120
t-137 55q1 -7 1 -15q-3 -86 -64 -142q-62 -56 -152 -65v0zM135 324q0 20 13 33v0v0q14 13 33 14h48v0q22 -1 37 -16t15 -37q-1 -30 -26 -46l-27 -15v0v-6v0v-20v0h-40v0v20v0v18v0v11v0l10 6v0l37 21v0q6 4 6 11q-1 12 -12 13h-48v0q-6 -1 -6 -7v-6v0h-40v0v6v0zM188 197h40
h-40h40v-40v0h-40v0v40v0z" />
    <glyph glyph-name="comments-question-check" unicode="&#xe14f;" horiz-adv-x="640" 
d="M416 272q-2 -75 -61 -124v0v0q-59 -50 -147 -52q-55 0 -100 22l-108 -22v0l38 75v0q-37 44 -38 101q2 75 61 124q59 50 147 52q88 -2 147 -52q59 -49 61 -124v0zM448 272q0 8 -1 15q83 -6 137 -55t56 -120q-1 -57 -38 -101l38 -75v0l-108 22v0q-45 -22 -100 -22
q-73 1 -127 37q-54 35 -73 92q90 9 152 65q61 56 64 142v0zM181 371q-20 -1 -33 -14v0v0q-13 -13 -13 -33v-6v0h40v0v6v0q0 6 6 7h48v0q11 -1 12 -13q0 -7 -6 -11l-37 -21v0l-10 -6v0v-12v0v-17v0v-20v0h40v0v20v0v6v0l27 15v0q25 16 26 46q0 22 -15 37t-37 15h-48v1z
M228 197h-40h40h-40v-40v0h40v0v40v0zM566 122l14 14l-14 -14l14 14l-28 28v0l-14 -14v0l-66 -66v0l-26 26v0l-14 14v0l-28 -28v0l14 -14v0l40 -40v0l14 -14v0l14 14v0l80 80v0z" />
    <glyph glyph-name="conveyor-belt-empty" unicode="&#xe150;" horiz-adv-x="640" 
d="M96 128q-41 -1 -68 -28v0v0q-27 -27 -28 -68q1 -41 28 -68t68 -28h448v0q41 1 68 28t28 68q-1 41 -28 68t-68 28h-448v0zM128 64q14 0 23 -9v0v0q9 -9 9 -23t-9 -23t-23 -9t-23 9t-9 23t9 23t23 9v0zM288 32q0 14 9 23v0v0q9 9 23 9t23 -9t9 -23t-9 -23t-23 -9t-23 9
t-9 23v0zM512 64q14 0 23 -9v0v0q9 -9 9 -23t-9 -23t-23 -9t-23 9t-9 23t9 23t23 9v0z" />
    <glyph glyph-name="crate-empty" unicode="&#xe151;" 
d="M512 224h-512h512h-512v-128v0h512v0v128v0zM512 64h-512h512h-512v-128v0h512v0v128v0zM64 176q15 -1 16 -16q-1 -15 -16 -16q-15 1 -16 16q1 15 16 16v0zM48 0q1 15 16 16q15 -1 16 -16q-1 -15 -16 -16q-15 1 -16 16v0zM448 176q15 -1 16 -16q-1 -15 -16 -16
q-15 1 -16 16q1 15 16 16v0zM432 0q1 15 16 16q15 -1 16 -16q-1 -15 -16 -16q-15 1 -16 16v0z" />
    <glyph glyph-name="cruzeiro-sign" unicode="&#xe152;" horiz-adv-x="448" 
d="M96 192q2 68 47 113v0v0q45 45 113 47q74 -2 120 -54l48 42v0q-31 35 -74 55q-43 21 -94 21q-63 -1 -113 -31q-51 -29 -80 -80q-30 -50 -31 -113q1 -63 31 -113q29 -51 80 -80q50 -30 113 -31q51 0 94 20q43 21 74 56l-48 42v0q-46 -52 -120 -54v96v0v1v0q0 13 9 22t22 9
q8 0 15 -4l26 -16v0l32 55v0l-25 15v0q-22 14 -48 14q-17 0 -31 -5v5v0h-64v0v-95v0v-1v0v-83v0q-43 20 -69 58q-26 39 -27 89v0z" />
    <glyph glyph-name="delete-right" unicode="&#xe154;" horiz-adv-x="576" 
d="M0 384v-384v384v-384h400v0l176 192v0l-176 192v0h-400v0zM177 273l47 -47l-47 47l47 -47l47 47v0l17 17v0l34 -34v0l-17 -17v0l-47 -47v0l47 -47v0l17 -17v0l-34 -34v0l-17 17v0l-47 47v0l-47 -47v0l-17 -17v0l-34 34v0l17 17v0l47 47v0l-47 47v0l-17 17v0l34 34v0
l17 -17v0z" />
    <glyph glyph-name="desktop-arrow-down" unicode="&#xe155;" horiz-adv-x="576" 
d="M576 448h-224h224h-224v-64v0h160v0v-224v0h-448v0v224v0h160v0v64v0h-224v0v-416v0h240v0l-11 -32v0h-69h-32v-64v0h32h288v64v0h-32h-69l-11 32v0h240v0v416v0zM312 424v24v-24v24h-48v0v-24v0v-142v0l-39 39v0l-17 17v0l-34 -34v0l17 -17v0l80 -80v0l17 -17v0l17 17v0
l80 80v0l17 17v0l-34 34v0l-17 -17v0l-39 -39v0v142v0z" />
    <glyph glyph-name="diagram-lean-canvas" unicode="&#xe156;" horiz-adv-x="640" 
d="M512 352v-208v208v-208h64v0v208v0h-64v0zM464 352h-64h64h-64v-80v0h64v0v80v0zM352 352h-64h64h-64v-208v0h64v0v208v0zM240 352h-64h64h-64v-80v0h64v0v80v0zM128 352h-64h64h-64v-208v0h64v0v208v0zM64 96v-64v64v-64h232v0v64v0h-232v0zM344 32h232h-232h232v64v0
h-232v0v-64v0zM0 416h64h-64h640v-64v0v-320v0v-64v0h-64h-576v64v0v320v0v64v0zM240 144v80v-80v80h-64v0v-80v0h64v0zM464 224h-64h64h-64v-80v0h64v0v80v0z" />
    <glyph glyph-name="diagram-nested" unicode="&#xe157;" horiz-adv-x="448" 
d="M0 416h192h-192h192v-192v0h-64v0v-128v0h128v0v64v0h192v0v-192v0h-192v0v64v0h-160h-32v32v0v160v0h-64v0v192v0z" />
    <glyph glyph-name="diagram-sankey" unicode="&#xe158;" horiz-adv-x="576" 
d="M304 416h16h-16h272v-64v0h-32h-208l-86 -115v0l-10 -13v0h-16h-224v64v0h32h176l86 115v0l10 13v0zM142 128h-110h110h-142v64v0h32h544v-64v0h-32h-327l57 -96v0h270h32v-64v0h-32h-306l-9 15v0l-87 145v0z" />
    <glyph glyph-name="diagram-venn" unicode="&#xe15a;" horiz-adv-x="640" 
d="M256 35q-30 31 -47 71v0v0q-17 40 -17 86t17 86t47 71q-15 3 -32 3q-68 -2 -113 -47t-47 -113q2 -68 47 -113t113 -47q17 0 32 3v0zM320 -11q-44 -21 -96 -21q-63 1 -113 31q-51 29 -80 80q-30 50 -31 113q1 63 31 113q29 51 80 80q50 30 113 31q52 0 96 -22q44 22 96 22
q63 -1 113 -31q51 -29 80 -80q30 -50 31 -113q-1 -63 -31 -113q-29 -51 -80 -80q-50 -30 -113 -31q-52 0 -96 22v-1zM371 256h-102h102h-102q-10 -23 -12 -48h126v0q-2 25 -12 48v0zM269 128h102h-102h102q10 22 12 48h-126v0q2 -26 12 -48v0zM288 96q14 -18 32 -32
q18 14 32 32h-64v0zM352 288q-14 18 -32 32q-18 -14 -32 -32h64v0z" />
    <glyph glyph-name="dial" unicode="&#xe15b;" horiz-adv-x="576" 
d="M320 448v-64v64v-64h-64v0v64v0h64v0zM128 384v-64v64v-64h-64v0v64v0h64v0zM512 384v-64v64v-64h-64v0v64v0h64v0zM512 192h64h-64h64v-64v0h-64v0v64v0zM512 0v-64v64v-64h-64v0v64v0h64v0zM64 0h64h-64h64v-64v0h-64v0v64v0zM0 192h64h-64h64v-64v0h-64v0v64v0z
M175 274q44 42 102 46v0v0q57 4 106 -31l-112 -111v0l-17 -17v0l34 -34v0l17 17v0l112 112v0q35 -49 31 -107q-4 -57 -47 -101q-49 -47 -113 -47t-113 47q-47 49 -47 113t47 113v0z" />
    <glyph glyph-name="dial-high" unicode="&#xe15c;" horiz-adv-x="576" 
d="M320 448v-64v64v-64h-64v0v64v0h64v0zM128 384v-64v64v-64h-64v0v64v0h64v0zM512 384v-64v64v-64h-64v0v64v0h64v0zM512 192h64h-64h64v-64v0h-64v0v64v0zM512 0v-64v64v-64h-64v0v64v0h64v0zM64 0h64h-64h64v-64v0h-64v0v64v0zM0 192h64h-64h64v-64v0h-64v0v64v0z
M288 320q62 -1 105 -39v0v0q44 -38 54 -97h-159h-24v-48v0h24h159q-10 -59 -54 -96q-43 -38 -105 -40q-68 2 -113 47t-47 113q2 68 47 114q45 45 113 46v0z" />
    <glyph glyph-name="dial-low" unicode="&#xe15d;" horiz-adv-x="576" 
d="M320 448v-64v64v-64h-64v0v64v0h64v0zM128 384v-64v64v-64h-64v0v64v0h64v0zM512 384v-64v64v-64h-64v0v64v0h64v0zM512 192h64h-64h64v-64v0h-64v0v64v0zM512 0v-64v64v-64h-64v0v64v0h64v0zM64 0h64h-64h64v-64v0h-64v0v64v0zM0 192h64h-64h64v-64v0h-64v0v64v0zM288 0
q-62 2 -105 40v0v0q-44 37 -54 96h159h24v48v0h-24h-159q10 59 54 97q43 38 105 39q68 -1 113 -46q45 -46 47 -114q-2 -68 -47 -113t-113 -47v0z" />
    <glyph glyph-name="dial-max" unicode="&#xe15e;" horiz-adv-x="576" 
d="M320 448v-64v64v-64h-64v0v64v0h64v0zM128 384v-64v64v-64h-64v0v64v0h64v0zM512 384v-64v64v-64h-64v0v64v0h64v0zM512 192h64h-64h64v-64v0h-64v0v64v0zM512 0v-64v64v-64h-64v0v64v0h64v0zM64 0h64h-64h64v-64v0h-64v0v64v0zM0 192h64h-64h64v-64v0h-64v0v64v0z
M401 273q43 -44 47 -101v0v0q4 -58 -31 -107l-112 112v0l-17 17v0l-34 -34v0l17 -17v0l112 -112v0q-49 -34 -106 -30q-57 3 -102 46q-47 49 -47 113t47 113q50 47 113 47q64 0 114 -47h-1z" />
    <glyph glyph-name="dial-med" unicode="&#xe15f;" horiz-adv-x="576" 
d="M320 448v-64v64v-64h-64v0v64v0h64v0zM128 384v-64v64v-64h-64v0v64v0h64v0zM512 384v-64v64v-64h-64v0v64v0h64v0zM512 192h64h-64h64v-64v0h-64v0v64v0zM512 0v-64v64v-64h-64v0v64v0h64v0zM64 0h64h-64h64v-64v0h-64v0v64v0zM0 192h64h-64h64v-64v0h-64v0v64v0z
M128 161q1 61 39 105v0v0q38 43 97 53v-158v0v-24v0h48v0v24v0v158v0q59 -10 97 -53q38 -44 39 -105q-2 -68 -47 -113t-113 -47q-68 2 -113 47t-47 113v0z" />
    <glyph glyph-name="dial-med-low" unicode="&#xe160;" horiz-adv-x="576" 
d="M320 448v-64v64v-64h-64v0v64v0h64v0zM128 384v-64v64v-64h-64v0v64v0h64v0zM512 384v-64v64v-64h-64v0v64v0h64v0zM512 192h64h-64h64v-64v0h-64v0v64v0zM512 0v-64v64v-64h-64v0v64v0h64v0zM64 0h64h-64h64v-64v0h-64v0v64v0zM0 192h64h-64h64v-64v0h-64v0v64v0z
M175 47q-43 45 -47 102v0v0q-4 58 31 106l112 -111v0l17 -17v0l34 34v0l-17 17v0l-112 111v0q49 35 106 31t102 -46q47 -49 47 -113t-47 -114q-50 -46 -113 -46q-64 0 -114 46h1z" />
    <glyph glyph-name="dial-min" unicode="&#xe161;" horiz-adv-x="576" 
d="M320 448v-64v64v-64h-64v0v64v0h64v0zM128 384v-64v64v-64h-64v0v64v0h64v0zM512 384v-64v64v-64h-64v0v64v0h64v0zM512 192h64h-64h64v-64v0h-64v0v64v0zM512 0v-64v64v-64h-64v0v64v0h64v0zM64 0h64h-64h64v-64v0h-64v0v64v0zM0 192h64h-64h64v-64v0h-64v0v64v0z
M401 47q-44 -43 -102 -46v0v0q-57 -4 -106 30l112 112v0l17 17v0l-34 34v0l-17 -17v0l-112 -112v0q-35 49 -31 106q4 58 47 102q49 47 113 47t113 -47q47 -49 47 -113t-47 -113v0z" />
    <glyph glyph-name="dial-off" unicode="&#xe162;" horiz-adv-x="576" 
d="M320 448v-64v64v-64h-64v0v64v0h64v0zM128 384v-64v64v-64h-64v0v64v0h64v0zM512 384v-64v64v-64h-64v0v64v0h64v0zM512 192h64h-64h64v-64v0h-64v0v64v0zM512 0v-64v64v-64h-64v0v64v0h64v0zM64 0h64h-64h64v-64v0h-64v0v64v0zM0 192h64h-64h64v-64v0h-64v0v64v0z
M448 160q-1 -61 -39 -105v0v0q-38 -43 -97 -53v158v0v24v0h-48v0v-24v0v-158v0q-59 10 -97 53q-38 44 -39 105q2 68 47 113t113 47q68 -2 113 -47t47 -113v0z" />
    <glyph glyph-name="display" unicode="&#xe163;" horiz-adv-x="576" 
d="M576 448h-576h576h-576v-416v0h240v0l-11 -32v0h-69h-32v-64v0h32h288v64v0h-32h-69l-11 32v0h240v0v416v0zM512 384v-288v288v-288h-448v0v288v0h448v0z" />
    <glyph glyph-name="display-arrow-down" unicode="&#xe164;" horiz-adv-x="576" 
d="M576 448h-224h224h-224v-64v0h160v0v-288v0h-448v0v288v0h160v0v64v0h-224v0v-416v0h240v0l-11 -32v0h-69h-32v-64v0h32h288v64v0h-32h-69l-11 32v0h240v0v416v0zM312 424v24v-24v24h-48v0v-24v0v-174v0l-39 39v0l-17 17v0l-34 -34v0l17 -17v0l80 -80v0l17 -17v0l17 17v0
l80 80v0l17 17v0l-34 34v0l-17 -17v0l-39 -39v0v174v0z" />
    <glyph glyph-name="display-code" unicode="&#xe165;" horiz-adv-x="576" 
d="M0 448h576h-576h576v-416v0h-240v0l11 -32v0h69h32v-64v0h-32h-288v64v0h32h69l11 32v0h-240v0v416v0zM64 384v-288v288v-288h448v0v288v0h-448v0zM249 271l-31 -31l31 31l-31 -31l31 -31v0l17 -17v0l-34 -34v0l-17 17v0l-48 48v0l-17 17v0l17 17v0l48 48v0l17 17v0
l34 -34v0l-17 -17v0zM361 305l48 -48l-48 48l48 -48l17 -17v0l-17 -17v0l-48 -48v0l-17 -17v0l-34 34v0l17 17v0l31 31v0l-31 31v0l-17 17v0l34 34v0l17 -17v0z" />
    <glyph glyph-name="display-medical" unicode="&#xe166;" horiz-adv-x="576" 
d="M0 448h576h-576h576v-416v0h-240v0l11 -32v0h69h32v-64v0h-32h-288v64v0h32h69l11 32v0h-240v0v416v0zM64 384v-288v288v-288h448v0v288v0h-448v0zM256 336h64h-64h64v-64v0h64v0v-64v0h-64v0v-64v0h-64v0v64v0h-64v0v64v0h64v0v64v0z" />
    <glyph glyph-name="dolphin" unicode="&#xe168;" 
d="M176 448h31h-31h31q69 0 128 -29l129 29v0l16 -16v0l-53 -79v0q40 -41 62 -95q23 -54 23 -116q-2 -73 -51 -120q-50 -46 -122 -44l-73 4v0l-18 -46v0h-88v0l32 80v0l-32 80v0h88v0l22 -54v0l60 3v0q23 2 38 18t16 40q-1 24 -17 40t-40 17h-7v0v-64v0h-32v0l-80 64v0h-16
h-192v32v0v16v0v18v0l16 9v0l26 16v0q-10 25 -10 53q2 61 42 102q41 40 102 42v0zM176 280q22 2 24 24q-2 22 -24 24q-22 -2 -24 -24q2 -22 24 -24v0z" />
    </font>
</defs>
</svg>
